<?xml version="1.0" encoding="UTF-8" standalone="no"?>
<!-- Created with Inkscape (http://www.inkscape.org/) -->

<svg
   width="125.18806mm"
   height="71.683029mm"
   viewBox="0 0 125.18806 71.683029"
   version="1.1"
   id="svg1"
   xml:space="preserve"
   inkscape:version="1.3.2 (091e20e, 2023-11-25, custom)"
   sodipodi:docname="Faradays_disc.svg"
   xmlns:inkscape="http://www.inkscape.org/namespaces/inkscape"
   xmlns:sodipodi="http://sodipodi.sourceforge.net/DTD/sodipodi-0.dtd"
   xmlns="http://www.w3.org/2000/svg"
   xmlns:svg="http://www.w3.org/2000/svg"><sodipodi:namedview
     id="namedview1"
     pagecolor="#505050"
     bordercolor="#eeeeee"
     borderopacity="1"
     inkscape:showpageshadow="0"
     inkscape:pageopacity="0"
     inkscape:pagecheckerboard="0"
     inkscape:deskcolor="#505050"
     inkscape:document-units="mm"
     inkscape:zoom="1.3416246"
     inkscape:cx="244.47972"
     inkscape:cy="163.60762"
     inkscape:window-width="1920"
     inkscape:window-height="991"
     inkscape:window-x="1911"
     inkscape:window-y="-9"
     inkscape:window-maximized="1"
     inkscape:current-layer="layer1" /><defs
     id="defs1"><marker
       style="overflow:visible"
       id="ArrowWide"
       refX="0"
       refY="0"
       orient="auto-start-reverse"
       inkscape:stockid="Wide arrow"
       markerWidth="1"
       markerHeight="1"
       viewBox="0 0 1 1"
       inkscape:isstock="true"
       inkscape:collect="always"
       preserveAspectRatio="xMidYMid"><path
         style="fill:none;stroke:context-stroke;stroke-width:1;stroke-linecap:butt"
         d="M 3,-3 0,0 3,3"
         transform="rotate(180,0.125,0)"
         sodipodi:nodetypes="ccc"
         id="path26" /></marker><inkscape:path-effect
       effect="spiro"
       id="path-effect19"
       is_visible="true"
       lpeversion="1" /><marker
       style="overflow:visible"
       id="marker16"
       refX="0"
       refY="0"
       orient="auto-start-reverse"
       inkscape:stockid="Triangle arrow"
       markerWidth="1.5"
       markerHeight="1.5"
       viewBox="0 0 1 1"
       inkscape:isstock="true"
       inkscape:collect="always"
       preserveAspectRatio="xMidYMid"><path
         transform="scale(0.5)"
         style="fill:context-stroke;fill-rule:evenodd;stroke:context-stroke;stroke-width:1pt"
         d="M 5.77,0 -2.88,5 V -5 Z"
         id="path16" /></marker><inkscape:path-effect
       effect="bspline"
       id="path-effect14"
       is_visible="true"
       lpeversion="1.3"
       weight="33.333333"
       steps="2"
       helper_size="0"
       apply_no_weight="true"
       apply_with_weight="true"
       only_selected="false"
       uniform="false" /><inkscape:path-effect
       effect="bspline"
       id="path-effect12"
       is_visible="true"
       lpeversion="1.3"
       weight="33.333333"
       steps="2"
       helper_size="0"
       apply_no_weight="true"
       apply_with_weight="true"
       only_selected="false"
       uniform="false" /><inkscape:path-effect
       effect="bspline"
       id="path-effect11"
       is_visible="true"
       lpeversion="1.3"
       weight="33.333333"
       steps="2"
       helper_size="0"
       apply_no_weight="true"
       apply_with_weight="true"
       only_selected="false"
       uniform="false" /><inkscape:path-effect
       effect="bspline"
       id="path-effect10"
       is_visible="true"
       lpeversion="1.3"
       weight="33.333333"
       steps="2"
       helper_size="0"
       apply_no_weight="true"
       apply_with_weight="true"
       only_selected="false"
       uniform="false" /><inkscape:path-effect
       effect="bspline"
       id="path-effect9"
       is_visible="true"
       lpeversion="1.3"
       weight="33.333333"
       steps="2"
       helper_size="0"
       apply_no_weight="true"
       apply_with_weight="true"
       only_selected="false"
       uniform="false" /><marker
       style="overflow:visible"
       id="Triangle"
       refX="0"
       refY="0"
       orient="auto-start-reverse"
       inkscape:stockid="Triangle arrow"
       markerWidth="1"
       markerHeight="1"
       viewBox="0 0 1 1"
       inkscape:isstock="true"
       inkscape:collect="always"
       preserveAspectRatio="xMidYMid"><path
         transform="scale(0.5)"
         style="fill:context-stroke;fill-rule:evenodd;stroke:context-stroke;stroke-width:1pt"
         d="M 5.77,0 -2.88,5 V -5 Z"
         id="path135" /></marker><inkscape:path-effect
       effect="spiro"
       id="path-effect19-2"
       is_visible="true"
       lpeversion="1" /><inkscape:path-effect
       effect="spiro"
       id="path-effect19-2-6"
       is_visible="true"
       lpeversion="1" /><marker
       style="overflow:visible"
       id="Triangle-8"
       refX="0"
       refY="0"
       orient="auto-start-reverse"
       inkscape:stockid="Triangle arrow"
       markerWidth="1"
       markerHeight="1"
       viewBox="0 0 1 1"
       inkscape:isstock="true"
       inkscape:collect="always"
       preserveAspectRatio="xMidYMid"><path
         transform="scale(0.5)"
         style="fill:context-stroke;fill-rule:evenodd;stroke:context-stroke;stroke-width:1pt"
         d="M 5.77,0 -2.88,5 V -5 Z"
         id="path135-8" /></marker></defs><g
     inkscape:label="Layer 1"
     inkscape:groupmode="layer"
     id="layer1"
     transform="translate(-29.600709,-51.028554)"><ellipse
       style="fill:#ffffff;fill-opacity:1;fill-rule:evenodd;stroke:#000000;stroke-width:0.304001;stroke-linecap:round;stroke-miterlimit:3.9;stroke-dasharray:none;stroke-opacity:1"
       id="path6"
       cx="148.68787"
       cy="83.634987"
       rx="2.4752259"
       ry="4.3836818" /><rect
       style="fill:#ffffff;fill-opacity:1;fill-rule:evenodd;stroke:none;stroke-width:0.304001;stroke-linecap:round;stroke-miterlimit:3.9;stroke-dasharray:none;stroke-opacity:1"
       id="rect6"
       width="46.694134"
       height="8.7673645"
       x="101.99374"
       y="79.251305" /><ellipse
       style="fill:#ffffff;fill-opacity:1;fill-rule:evenodd;stroke:#000000;stroke-width:0.304;stroke-linecap:round;stroke-miterlimit:3.9;stroke-dasharray:none"
       id="path1-1-7"
       cx="85.96965"
       cy="83.748138"
       rx="16.024218"
       ry="27.41127" /><ellipse
       style="fill:#ffffff;fill-opacity:1;fill-rule:evenodd;stroke:#000000;stroke-width:0.304;stroke-linecap:round;stroke-miterlimit:3.9;stroke-dasharray:none"
       id="path1-1"
       cx="82.303017"
       cy="83.748138"
       rx="14.822724"
       ry="27.41127" /><ellipse
       style="fill:none;fill-rule:evenodd;stroke:#000000;stroke-width:0.304;stroke-linecap:round;stroke-miterlimit:3.9;stroke-dasharray:none"
       id="path1-1-1"
       cx="85.96965"
       cy="83.748138"
       rx="4.4039679"
       ry="11.138779" /><rect
       style="fill:#ffffff;fill-opacity:1;fill-rule:evenodd;stroke:none;stroke-width:0.304001;stroke-linecap:round;stroke-miterlimit:3.9;stroke-dasharray:none"
       id="rect1"
       width="45.946491"
       height="22.277557"
       x="40.023159"
       y="72.60936" /><ellipse
       style="fill:#ffffff;fill-opacity:1;fill-rule:evenodd;stroke:#000000;stroke-width:0.304;stroke-linecap:round;stroke-miterlimit:3.9;stroke-dasharray:none"
       id="path1"
       cx="40.023159"
       cy="83.748138"
       rx="3.6309905"
       ry="11.13878" /><path
       style="fill:none;fill-opacity:1;fill-rule:evenodd;stroke:none;stroke-width:0.304001;stroke-linecap:round;stroke-miterlimit:3.9;stroke-dasharray:none"
       d="m 40.023158,72.609357 45.946491,3e-6"
       id="path2" /><path
       style="fill:none;fill-opacity:1;fill-rule:evenodd;stroke:none;stroke-width:0.304001;stroke-linecap:round;stroke-miterlimit:3.9;stroke-dasharray:none"
       d="m 44.714583,86.783332 45.946491,3e-6"
       id="path2-4" /><path
       style="fill:none;fill-opacity:1;fill-rule:evenodd;stroke:none;stroke-width:1.004;stroke-linecap:round;stroke-miterlimit:3.9;stroke-dasharray:none"
       d="m 40.023158,72.609357 45.946491,3e-6"
       id="path3" /><path
       style="fill:none;fill-opacity:1;fill-rule:evenodd;stroke:none;stroke-width:7.004;stroke-linecap:round;stroke-miterlimit:3.9;stroke-dasharray:none"
       d="m 38.766919,69.166874 16.803645,-0.06972"
       id="path4" /><path
       style="fill:none;fill-opacity:1;fill-rule:evenodd;stroke:#000000;stroke-width:0.304;stroke-linecap:round;stroke-miterlimit:3.9;stroke-dasharray:none;stroke-opacity:1"
       d="m 40.023159,94.886918 45.946491,-10e-7 M 42.810949,75.442096"
       id="path5"
       sodipodi:nodetypes="cc" /><path
       style="fill:none;fill-opacity:1;fill-rule:evenodd;stroke:#000000;stroke-width:0.304;stroke-linecap:round;stroke-miterlimit:3.9;stroke-dasharray:none;stroke-opacity:1"
       d="m 40.023159,72.60936 45.946491,-10e-7 M 42.810949,53.164538"
       id="path5-9"
       sodipodi:nodetypes="cc" /><path
       style="fill:none;fill-opacity:1;fill-rule:evenodd;stroke:#000000;stroke-width:0.304;stroke-linecap:round;stroke-miterlimit:3.9;stroke-dasharray:none;stroke-opacity:1"
       d="m 101.78393,88.170668 47.44649,-1e-6"
       id="path5-9-1"
       sodipodi:nodetypes="cc" /><path
       style="fill:none;fill-opacity:1;fill-rule:evenodd;stroke:#000000;stroke-width:0.304;stroke-linecap:round;stroke-miterlimit:3.9;stroke-dasharray:none;stroke-opacity:1"
       d="m 101.77677,79.251304 47.45365,-1e-6"
       id="path5-9-1-0"
       sodipodi:nodetypes="cc" /><path
       style="fill:none;fill-opacity:1;fill-rule:evenodd;stroke:#000000;stroke-width:0.204;stroke-linecap:round;stroke-miterlimit:3.9;stroke-dasharray:2.448, 2.448;stroke-dashoffset:0;stroke-opacity:1"
       d="M 29.702709,83.748138 154.78877,83.634986"
       id="path7" /><path
       style="fill:none;fill-opacity:1;fill-rule:evenodd;stroke:#000000;stroke-width:0.204001;stroke-linecap:round;stroke-miterlimit:3.9;stroke-dasharray:none;stroke-dashoffset:0;stroke-opacity:1;marker-end:url(#Triangle)"
       id="path8"
       sodipodi:type="arc"
       sodipodi:cx="50.919788"
       sodipodi:cy="83.739334"
       sodipodi:rx="11.179527"
       sodipodi:ry="17.779791"
       sodipodi:start="4.2480979"
       sodipodi:end="1.9635064"
       sodipodi:open="true"
       sodipodi:arc-type="arc"
       d="m 45.913719,67.841725 a 11.179527,17.779791 0 0 1 13.540614,4.413354 11.179527,17.779791 0 0 1 0.494592,21.968344 11.179527,17.779791 0 0 1 -13.30747,5.942217" /><path
       style="fill:none;fill-opacity:1;fill-rule:evenodd;stroke:#000000;stroke-width:0.204001;stroke-linecap:round;stroke-miterlimit:3.9;stroke-dasharray:none;stroke-dashoffset:0;stroke-opacity:1;marker-end:url(#Triangle-8)"
       id="path8-9"
       sodipodi:type="arc"
       sodipodi:cx="80.934036"
       sodipodi:cy="78.865265"
       sodipodi:rx="9.5913458"
       sodipodi:ry="17.779791"
       sodipodi:start="3.9804713"
       sodipodi:end="5.4365744"
       sodipodi:open="true"
       sodipodi:arc-type="arc"
       d="m 74.524165,65.638982 a 9.5913458,17.779791 0 0 1 12.764383,-0.09148" /><path
       style="fill:none;fill-opacity:1;fill-rule:evenodd;stroke:#000000;stroke-width:0.204;stroke-linecap:round;stroke-miterlimit:3.9;stroke-dasharray:none;stroke-dashoffset:0;stroke-opacity:1;marker-end:url(#marker16)"
       d="m 95.746016,72.457359 c 1.692762,-1.341723 3.385473,-2.683406 5.040664,-4.636949 1.6552,-1.953543 3.28683,-4.541082 4.9185,-7.128677"
       id="path9"
       inkscape:path-effect="#path-effect9"
       inkscape:original-d="m 95.746016,72.457359 c 1.692762,-1.341723 3.385473,-2.683406 5.078184,-4.02509 1.59416,-2.58023 3.23755,-5.160357 4.88098,-7.740536" /><path
       style="fill:none;fill-opacity:1;fill-rule:evenodd;stroke:#000000;stroke-width:0.204;stroke-linecap:round;stroke-miterlimit:3.9;stroke-dasharray:none;stroke-dashoffset:0;stroke-opacity:1;marker-end:url(#marker16)"
       d="m 97.277739,78.588644 c 1.400841,-0.574949 2.801681,-1.149897 4.559611,-2.308529 1.75793,-1.158632 3.87287,-2.90088 5.98785,-4.643162"
       id="path10"
       inkscape:path-effect="#path-effect10"
       inkscape:original-d="m 97.277739,78.588644 c 1.400842,-0.574947 2.801681,-1.149898 4.202521,-1.724845 2.11502,-1.742318 4.22996,-3.484565 6.34494,-5.226846" /><path
       style="fill:none;fill-opacity:1;fill-rule:evenodd;stroke:#000000;stroke-width:0.204;stroke-linecap:round;stroke-miterlimit:3.9;stroke-dasharray:none;stroke-dashoffset:0;stroke-opacity:1;marker-end:url(#marker16)"
       d="m 97.175737,88.597112 c 2.021474,1.018944 4.042893,2.037859 5.826693,3.206004 1.7838,1.168145 3.35427,2.506204 4.92477,3.844292"
       id="path11"
       inkscape:path-effect="#path-effect11"
       inkscape:original-d="m 97.175737,88.597112 c 2.021475,1.018942 4.042893,2.037858 6.064303,3.056771 1.56242,1.298334 3.12477,2.645918 4.68716,3.993525" /><path
       style="fill:none;fill-opacity:1;fill-rule:evenodd;stroke:#000000;stroke-width:0.204;stroke-linecap:round;stroke-miterlimit:3.9;stroke-dasharray:none;stroke-dashoffset:0;stroke-opacity:1;marker-end:url(#marker16)"
       d="m 96.140438,95.038917 c 1.88994,1.714783 3.779879,3.429567 5.349362,5.396293 1.56949,1.96672 2.81847,4.18531 4.06747,6.40393"
       id="path12"
       inkscape:path-effect="#path-effect12"
       inkscape:original-d="m 96.140438,95.038917 c 1.88994,1.714783 3.77988,3.429566 5.669822,5.144353 1.24903,2.21866 2.49801,4.43725 3.74701,6.65587" /><path
       style="fill:none;fill-opacity:1;fill-rule:evenodd;stroke:#000000;stroke-width:0.304;stroke-linecap:round;stroke-miterlimit:3.9;stroke-dasharray:none;stroke-dashoffset:0;stroke-opacity:1"
       d="m 130.89293,72.080677 0.0986,6.36006 h 8.92381 v -6.434014"
       id="path13" /><path
       style="fill:none;fill-opacity:1;fill-rule:evenodd;stroke:#000000;stroke-width:0.304;stroke-linecap:round;stroke-miterlimit:3.9;stroke-dasharray:none;stroke-dashoffset:0;stroke-opacity:1"
       d="m 130.89293,95.202564 0.0986,-6.36006 h 8.92381 v 6.434014"
       id="path13-4" /><path
       style="fill:none;fill-opacity:1;fill-rule:evenodd;stroke:#000000;stroke-width:0.304;stroke-linecap:round;stroke-miterlimit:3.9;stroke-dasharray:none;stroke-dashoffset:0;stroke-opacity:1"
       d="m 78.588644,113.93874 c 0.209959,-0.54127 0.419146,-1.08055 1.114899,-1.64017 0.695753,-0.55963 1.870978,-1.1356 2.902816,-1.11882 1.031839,0.0168 1.89209,0.62455 2.511841,1.23476 0.619751,0.61021 0.98932,1.21513 1.35889,1.82005"
       id="path14"
       inkscape:path-effect="#path-effect14"
       inkscape:original-d="m 78.588644,113.93874 c 0.20996,-0.54127 0.419146,-1.08055 0.628585,-1.62048 1.182067,-0.57932 2.35729,-1.15529 3.547714,-1.7387 0.873258,0.61696 1.733508,1.22474 2.602491,1.83869 0.370519,0.60647 0.740086,1.21139 1.109656,1.81631"
       sodipodi:nodetypes="ccccc" /><path
       style="fill:none;fill-opacity:1;fill-rule:evenodd;stroke:#000000;stroke-width:0.304;stroke-linecap:round;stroke-miterlimit:3.9;stroke-dasharray:none;stroke-dashoffset:0;stroke-opacity:1"
       d="m 86.497513,121.6763 c 0.01643,-2.49801 -0.03686,-4.94373 -0.02043,-7.44174"
       id="path15"
       sodipodi:nodetypes="cc" /><text
       xml:space="preserve"
       style="font-size:4.23333px;line-height:0.95;font-family:sans-serif;-inkscape-font-specification:sans-serif;text-align:center;letter-spacing:-0.0978958px;word-spacing:-0.148167px;text-anchor:middle;fill:none;fill-opacity:1;fill-rule:evenodd;stroke:#000000;stroke-width:0.304001;stroke-linecap:round;stroke-miterlimit:3.9;stroke-dasharray:none;stroke-dashoffset:0;stroke-opacity:1"
       x="79.606598"
       y="83.120613"
       id="text16"><tspan
         sodipodi:role="line"
         id="tspan16"
         style="font-size:4.23333px;fill:#000000;fill-opacity:1;stroke:none;stroke-width:0.304"
         x="79.557648"
         y="83.120613">N</tspan></text><text
       xml:space="preserve"
       style="font-size:4.23333px;line-height:0.95;font-family:sans-serif;-inkscape-font-specification:sans-serif;text-align:center;letter-spacing:-0.0978958px;word-spacing:-0.148167px;text-anchor:middle;fill:none;fill-opacity:1;fill-rule:evenodd;stroke:#000000;stroke-width:0.304001;stroke-linecap:round;stroke-miterlimit:3.9;stroke-dasharray:none;stroke-dashoffset:0;stroke-opacity:1"
       x="50.633068"
       y="83.120613"
       id="text16-1"><tspan
         sodipodi:role="line"
         id="tspan16-5"
         style="font-size:4.23333px;fill:#000000;fill-opacity:1;stroke:none;stroke-width:0.304"
         x="50.584122"
         y="83.120613">S</tspan></text><g
       inkscape:label=""
       transform="translate(43.806149,102.53013)"
       id="g18"><g
   fill="#000000"
   fill-opacity="1"
   id="g3"
   transform="matrix(0.352778,0,0,0.352778,-0.747183,-0.656475)">
    <g
   id="use2"
   transform="translate(1.993,6.6890001)">
      <path
   d="m 6.59375,-4.0625 c 0,-0.484375 -0.1875,-0.765625 -0.4375,-0.765625 -0.28125,0 -0.578125,0.265625 -0.578125,0.515625 0,0.109375 0.0625,0.234375 0.171875,0.328125 C 5.9375,-3.8125 6.125,-3.515625 6.125,-3.0625 6.125,-2.625 5.921875,-2 5.578125,-1.5 5.25,-1.03125 4.859375,-0.671875 4.34375,-0.671875 c -0.625,0 -0.96875,-0.390625 -1.0625,-0.96875 0.125,-0.296875 0.375,-0.984375 0.375,-1.296875 0,-0.125 -0.0625,-0.234375 -0.203125,-0.234375 -0.078125,0 -0.203125,0.015625 -0.296875,0.1875 -0.109375,0.21875 -0.25,0.921875 -0.25,1.3125 -0.359375,0.515625 -0.796875,1 -1.484375,1 -0.71875,0 -0.9375,-0.640625 -0.9375,-1.25 0,-1.359375 1.109375,-2.5 1.109375,-2.640625 0,-0.125 -0.09375,-0.21875 -0.203125,-0.21875 -0.140625,0 -0.21875,0.140625 -0.296875,0.25 C 0.546875,-3.734375 0.125,-2.4375 0.125,-1.4375 c 0,0.75 0.25,1.5625 1.15625,1.5625 0.765625,0 1.28125,-0.546875 1.671875,-1.15625 C 3.046875,-0.390625 3.484375,0.125 4.15625,0.125 5,0.125 5.53125,-0.546875 5.921875,-1.359375 6.1875,-1.890625 6.59375,-3.375 6.59375,-4.0625 Z m 0,0"
   id="path17" />
    </g>
  </g>
  <g
   fill="#000000"
   fill-opacity="1"
   id="g4"
   transform="matrix(0.352778,0,0,0.352778,-0.747183,-0.656475)">
    <g
   id="use3"
   transform="translate(8.783,8.3249998)">
      <path
   d="m 1.46875,-1.8125 c 0,-0.609375 0.25,-1.46875 1.015625,-1.484375 -0.046875,0.03125 -0.140625,0.09375 -0.140625,0.28125 0,0.25 0.203125,0.359375 0.359375,0.359375 0.1875,0 0.359375,-0.125 0.359375,-0.359375 0,-0.28125 -0.25,-0.5 -0.609375,-0.5 -0.515625,0 -0.875,0.390625 -1.03125,0.84375 H 1.40625 v -0.84375 l -1.125,0.09375 v 0.265625 c 0.546875,0 0.609375,0.046875 0.609375,0.4375 V -0.625 c 0,0.359375 -0.109375,0.359375 -0.609375,0.359375 V 0 c 0.3125,-0.03125 0.75,-0.03125 0.9375,-0.03125 0.46875,0 0.484375,0 1,0.03125 V -0.265625 H 2.0625 c -0.578125,0 -0.59375,-0.078125 -0.59375,-0.375 z m 0,0"
   id="path18" />
    </g>
  </g>
</g><path
       style="fill:none;fill-opacity:1;fill-rule:evenodd;stroke:#000000;stroke-width:0.204;stroke-linecap:round;stroke-miterlimit:3.9;stroke-dasharray:none;stroke-dashoffset:0;stroke-opacity:1"
       d="M 68.728086,75.442095 59.459164,56.184868"
       id="path19"
       inkscape:path-effect="#path-effect19"
       inkscape:original-d="M 68.728086,75.442095 59.459164,56.184868" /><path
       style="fill:none;fill-opacity:1;fill-rule:evenodd;stroke:#000000;stroke-width:0.204;stroke-linecap:round;stroke-miterlimit:3.9;stroke-dasharray:none;stroke-dashoffset:0;stroke-opacity:1"
       d="M 57.278616,69.595169 76.074204,62.68074"
       id="path19-0"
       inkscape:path-effect="#path-effect19-2"
       inkscape:original-d="M 57.278616,69.595169 76.074204,62.68074"
       transform="translate(33.247002,-9.5162023)"
       sodipodi:nodetypes="cc" /><path
       style="fill:none;fill-opacity:1;fill-rule:evenodd;stroke:#000000;stroke-width:0.204;stroke-linecap:round;stroke-miterlimit:3.9;stroke-dasharray:none;stroke-dashoffset:0;stroke-opacity:1"
       d="M 66.054512,73.621363 74.928727,62.74547"
       id="path19-0-8"
       inkscape:path-effect="#path-effect19-2-6"
       inkscape:original-d="M 66.054512,73.621363 74.928727,62.74547"
       transform="translate(50.574868,6.4214045)"
       sodipodi:nodetypes="cc" /><text
       xml:space="preserve"
       style="font-size:4.23333px;line-height:0.95;font-family:sans-serif;-inkscape-font-specification:sans-serif;text-align:center;letter-spacing:-0.0978958px;word-spacing:-0.148167px;text-anchor:middle;fill:none;fill-opacity:1;fill-rule:evenodd;stroke:#000000;stroke-width:0.204;stroke-linecap:round;stroke-miterlimit:3.9;stroke-dasharray:none;stroke-dashoffset:0;stroke-opacity:1"
       x="50.368362"
       y="55.310505"
       id="text19"><tspan
         sodipodi:role="line"
         id="tspan19"
         style="fill:#000000;fill-opacity:1;stroke:none;stroke-width:0.204"
         x="50.319416"
         y="55.310505">Permanent magnet</tspan></text><text
       xml:space="preserve"
       style="font-size:4.23333px;line-height:0.95;font-family:sans-serif;-inkscape-font-specification:sans-serif;text-align:center;letter-spacing:-0.0978958px;word-spacing:-0.148167px;text-anchor:middle;fill:#ffffff;fill-opacity:1;fill-rule:evenodd;stroke:none;stroke-width:0.204;stroke-linecap:round;stroke-miterlimit:3.9;stroke-dasharray:none;stroke-dashoffset:0;stroke-opacity:1"
       x="121.9258"
       y="54.244892"
       id="text20"><tspan
         sodipodi:role="line"
         id="tspan20"
         style="fill:#000000;fill-opacity:1;stroke-width:0.204"
         x="121.87685"
         y="54.244892">Copper disk</tspan></text><g
       inkscape:label=""
       transform="translate(106.09157,65.813481)"
       id="g20"><g
   fill="#000000"
   fill-opacity="1"
   id="g2"
   transform="matrix(0.352778,0,0,0.352778,-0.868451,-0.702954)">
    <g
   id="use1"
   transform="translate(1.993,9.4770002)">
      <path
   d="m 1.78125,-0.734375 c -0.046875,0.171875 -0.0625,0.1875 -0.25,0.203125 -0.1875,0.015625 -0.40625,0.015625 -0.578125,0.015625 -0.28125,0 -0.3125,0 -0.359375,0.03125 -0.125,0.0625 -0.125,0.25 -0.125,0.28125 C 0.46875,0 0.671875,0 0.84375,0 h 4.625 C 7.75,0 8.765625,-1.4375 8.765625,-2.40625 c 0,-0.9375 -0.8125,-1.40625 -1.8125,-1.5 1.734375,-0.3125 2.359375,-1.328125 2.359375,-2.0625 0,-0.890625 -0.78125,-1.515625 -2.328125,-1.515625 H 2.625 c -0.21875,0 -0.40625,0 -0.40625,0.3125 0,0.203125 0.140625,0.203125 0.453125,0.203125 0.234375,0 0.4375,0.015625 0.671875,0.015625 z m 2.921875,-6.03125 C 4.75,-6.9375 4.75,-6.953125 4.828125,-6.953125 4.921875,-6.96875 5,-6.96875 5.109375,-6.96875 h 1.625 c 0.21875,0 1.109375,0 1.109375,0.953125 C 7.84375,-5.25 7.234375,-4.09375 5.75,-4.09375 H 4.03125 Z m -1.296875,6.25 c -0.171875,0 -0.1875,0 -0.265625,-0.015625 l 0.78125,-3.171875 h 2.125 c 0.296875,0 1.203125,0 1.203125,1.125 0,0.828125 -0.546875,2.0625 -2.109375,2.0625 z m 0,0"
   id="path20" />
    </g>
  </g>
</g><text
       xml:space="preserve"
       style="font-size:4.23333px;line-height:0.95;font-family:sans-serif;-inkscape-font-specification:sans-serif;text-align:center;letter-spacing:-0.0978958px;word-spacing:-0.148167px;text-anchor:middle;fill:#000000;fill-opacity:1;fill-rule:evenodd;stroke:none;stroke-width:0.204;stroke-linecap:round;stroke-miterlimit:3.9;stroke-dasharray:none;stroke-dashoffset:0;stroke-opacity:1"
       x="131.44124"
       y="67.399948"
       id="text21"><tspan
         sodipodi:role="line"
         id="tspan21"
         style="stroke-width:0.204"
         x="131.39229"
         y="67.399948">Conductive shaft</tspan></text><g
       id="use9678"
       transform="translate(-7.528445,202.3196)"
       style="stroke-width:0.3;stroke-dasharray:none"><title
         id="title21">Voltage_measurement</title><g
         transform="translate(82.020833,-174.625)"
         id="g22"
         style="stroke-width:0.3;stroke-dasharray:none"><path
           sodipodi:nodetypes="cc"
           inkscape:connector-curvature="0"
           id="path21"
           d="m 60.854166,81.364573 v 2.645834"
           style="fill:none;stroke:#000000;stroke-width:0.3;stroke-linecap:round;stroke-linejoin:miter;stroke-dasharray:none;stroke-opacity:1" /><circle
           r="2.6458333"
           cy="78.718742"
           cx="60.854168"
           id="circle21"
           style="opacity:1;fill:none;fill-opacity:1;stroke:#000000;stroke-width:0.3;stroke-linecap:round;stroke-linejoin:round;stroke-miterlimit:4;stroke-dasharray:none;stroke-dashoffset:0;stroke-opacity:1;paint-order:normal" /><path
           sodipodi:nodetypes="cc"
           inkscape:connector-curvature="0"
           id="path22"
           d="m 60.854166,73.427077 v 2.64583"
           style="fill:none;stroke:#000000;stroke-width:0.3;stroke-linecap:round;stroke-linejoin:miter;stroke-dasharray:none;stroke-opacity:1" /></g><text
         xml:space="preserve"
         style="font-style:normal;font-weight:normal;font-size:2.82222px;line-height:1.25;font-family:sans-serif;letter-spacing:0px;word-spacing:0px;fill:#000000;fill-opacity:1;stroke:none;stroke-width:0.3;stroke-dasharray:none"
         x="141.91037"
         y="-94.877556"
         id="text22"><tspan
           sodipodi:role="line"
           id="tspan22"
           x="141.91037"
           y="-94.877556"
           style="stroke-width:0.3;stroke-dasharray:none">V</tspan></text><title
         id="title22">Voltage_measurement</title></g><path
       style="fill:none;fill-opacity:1;fill-rule:evenodd;stroke:#000000;stroke-width:0.3;stroke-linecap:round;stroke-miterlimit:3.9;stroke-dasharray:none;stroke-dashoffset:0;stroke-opacity:1"
       d="m 86.497511,121.6763 48.861199,0.152 -0.0122,-10.12329"
       id="path23"
       sodipodi:nodetypes="ccc" /><path
       style="fill:none;fill-opacity:1;fill-rule:evenodd;stroke:#000000;stroke-width:0.3;stroke-linecap:round;stroke-miterlimit:3.9;stroke-dasharray:none;stroke-dashoffset:0;stroke-opacity:1"
       d="M 135.34655,101.12168 V 88.842502"
       id="path24" /><path
       style="fill:none;fill-opacity:1;fill-rule:evenodd;stroke:#000000;stroke-width:0.204;stroke-linecap:round;stroke-miterlimit:3.9;stroke-dasharray:none;stroke-dashoffset:0;stroke-opacity:1;marker-end:url(#ArrowWide)"
       d="m 139.34711,109.66238 -0.0637,-6.48062"
       id="path25"
       sodipodi:nodetypes="cc" /><path
       style="fill:none;fill-opacity:1;fill-rule:evenodd;stroke:#000000;stroke-width:0.204;stroke-linecap:round;stroke-miterlimit:3.9;stroke-dasharray:none;stroke-dashoffset:0;stroke-opacity:1;marker-end:url(#marker16)"
       d="m 121.83201,121.78622 -5.80964,-0.0181"
       id="path25-1"
       sodipodi:nodetypes="cc" /><g
       inkscape:label=""
       transform="translate(140.11469,105.01946)"
       id="g29"><g
   fill="#000000"
   fill-opacity="1"
   id="g28"
   transform="matrix(0.352778,0,0,0.352778,-0.962157,-0.703395)">
    <g
   id="g27"
   transform="translate(1.993,9.4469995)">
      <path
   d="m 6.921875,-6.296875 c 0.109375,-0.453125 0.3125,-0.78125 1.1875,-0.8125 0.046875,0 0.171875,-0.015625 0.171875,-0.21875 0,-0.015625 0,-0.125 -0.140625,-0.125 -0.359375,0 -0.734375,0.03125 -1.109375,0.03125 -0.375,0 -0.765625,-0.03125 -1.125,-0.03125 -0.078125,0 -0.203125,0 -0.203125,0.21875 0,0.125 0.109375,0.125 0.203125,0.125 0.609375,0.015625 0.734375,0.234375 0.734375,0.484375 0,0.03125 -0.015625,0.1875 -0.03125,0.21875 L 5.625,-2.515625 C 5.25,-1.046875 4,-0.09375 2.90625,-0.09375 c -0.734375,0 -1.328125,-0.484375 -1.328125,-1.421875 0,-0.015625 0,-0.375 0.125,-0.84375 l 1.0625,-4.25 c 0.09375,-0.390625 0.109375,-0.5 0.90625,-0.5 0.28125,0 0.375,0 0.375,-0.21875 0,-0.125 -0.125,-0.125 -0.15625,-0.125 -0.296875,0 -1.09375,0.03125 -1.390625,0.03125 -0.3125,0 -1.09375,-0.03125 -1.40625,-0.03125 -0.09375,0 -0.203125,0 -0.203125,0.21875 0,0.125 0.09375,0.125 0.296875,0.125 0.015625,0 0.234375,0 0.421875,0.015625 0.1875,0.03125 0.28125,0.03125 0.28125,0.171875 0,0.078125 -0.109375,0.53125 -0.171875,0.78125 l -0.25,0.953125 c -0.09375,0.4375 -0.625,2.5 -0.65625,2.703125 -0.078125,0.296875 -0.078125,0.46875 -0.078125,0.625 0,1.328125 0.984375,2.09375 2.140625,2.09375 C 4.25,0.234375 5.59375,-1 5.953125,-2.4375 Z m 0,0"
   id="path27" />
    </g>
  </g>
</g><g
       inkscape:label=""
       transform="translate(114.53098,118.17815)"
       id="g32"><g
   fill="#000000"
   fill-opacity="1"
   id="g31"
   transform="matrix(0.352778,0,0,0.352778,-0.835378,-0.703395)">
    <g
   id="g30"
   transform="translate(1.993,9.4469995)">
      <path
   d="m 4.078125,-6.609375 c 0.09375,-0.390625 0.125,-0.5 1,-0.5 0.25,0 0.34375,0 0.34375,-0.203125 0,-0.140625 -0.125,-0.140625 -0.171875,-0.140625 -0.3125,0 -1.109375,0.03125 -1.4375,0.03125 -0.328125,0 -1.125,-0.03125 -1.453125,-0.03125 -0.0625,0 -0.203125,0 -0.203125,0.21875 0,0.125 0.09375,0.125 0.296875,0.125 0.453125,0 0.75,0 0.75,0.203125 0,0.0625 0,0.078125 -0.015625,0.171875 L 1.71875,-0.84375 c -0.109375,0.390625 -0.140625,0.5 -1,0.5 -0.25,0 -0.34375,0 -0.34375,0.21875 C 0.375,0 0.5,0 0.53125,0 0.84375,0 1.640625,-0.03125 1.96875,-0.03125 2.296875,-0.03125 3.09375,0 3.421875,0 c 0.09375,0 0.21875,0 0.21875,-0.203125 0,-0.140625 -0.078125,-0.140625 -0.328125,-0.140625 -0.1875,0 -0.25,0 -0.46875,-0.015625 -0.21875,-0.015625 -0.265625,-0.0625 -0.265625,-0.1875 0,-0.078125 0.015625,-0.171875 0.046875,-0.25 z m 0,0"
   id="path29" />
    </g>
  </g>
</g><text
       xml:space="preserve"
       style="font-size:4.23333px;line-height:0.95;font-family:sans-serif;-inkscape-font-specification:sans-serif;text-align:center;letter-spacing:-0.0978958px;word-spacing:-0.148167px;text-anchor:middle;fill:none;fill-opacity:1;fill-rule:evenodd;stroke:#000000;stroke-width:0.204;stroke-linecap:round;stroke-miterlimit:3.9;stroke-dasharray:none;stroke-dashoffset:0;stroke-opacity:1"
       x="73.791992"
       y="118.61843"
       id="text32"><tspan
         sodipodi:role="line"
         id="tspan32"
         style="fill:#000000;fill-opacity:1;stroke:none;stroke-width:0.204"
         x="73.743042"
         y="118.61843">slip ring</tspan></text><g
       inkscape:label=""
       transform="translate(79.276922,63.808269)"
       id="g37"><g
   fill="#000000"
   fill-opacity="1"
   id="g34"
   transform="matrix(0.352778,0,0,0.352778,-0.747183,-0.656475)">
    <g
   id="g33"
   transform="translate(1.993,6.6890001)">
      <path
   d="m 6.59375,-4.0625 c 0,-0.484375 -0.1875,-0.765625 -0.4375,-0.765625 -0.28125,0 -0.578125,0.265625 -0.578125,0.515625 0,0.109375 0.0625,0.234375 0.171875,0.328125 C 5.9375,-3.8125 6.125,-3.515625 6.125,-3.0625 6.125,-2.625 5.921875,-2 5.578125,-1.5 5.25,-1.03125 4.859375,-0.671875 4.34375,-0.671875 c -0.625,0 -0.96875,-0.390625 -1.0625,-0.96875 0.125,-0.296875 0.375,-0.984375 0.375,-1.296875 0,-0.125 -0.0625,-0.234375 -0.203125,-0.234375 -0.078125,0 -0.203125,0.015625 -0.296875,0.1875 -0.109375,0.21875 -0.25,0.921875 -0.25,1.3125 -0.359375,0.515625 -0.796875,1 -1.484375,1 -0.71875,0 -0.9375,-0.640625 -0.9375,-1.25 0,-1.359375 1.109375,-2.5 1.109375,-2.640625 0,-0.125 -0.09375,-0.21875 -0.203125,-0.21875 -0.140625,0 -0.21875,0.140625 -0.296875,0.25 C 0.546875,-3.734375 0.125,-2.4375 0.125,-1.4375 c 0,0.75 0.25,1.5625 1.15625,1.5625 0.765625,0 1.28125,-0.546875 1.671875,-1.15625 C 3.046875,-0.390625 3.484375,0.125 4.15625,0.125 5,0.125 5.53125,-0.546875 5.921875,-1.359375 6.1875,-1.890625 6.59375,-3.375 6.59375,-4.0625 Z m 0,0"
   id="path32" />
    </g>
  </g>
  <g
   fill="#000000"
   fill-opacity="1"
   id="g36"
   transform="matrix(0.352778,0,0,0.352778,-0.747183,-0.656475)">
    <g
   id="g35"
   transform="translate(8.783,8.4659996)">
      <path
   d="m 2.625,-5.4375 v 0.265625 c 0.53125,0 0.609375,0.046875 0.609375,0.4375 v 1.6875 c -0.28125,-0.3125 -0.65625,-0.46875 -1.078125,-0.46875 -1,0 -1.875,0.78125 -1.875,1.796875 0,0.984375 0.796875,1.796875 1.796875,1.796875 0.46875,0 0.859375,-0.21875 1.125,-0.5 v 0.5 L 4.421875,0 V -0.265625 C 3.875,-0.265625 3.8125,-0.3125 3.8125,-0.703125 V -5.53125 Z m 0.578125,4.453125 c 0,0.140625 0,0.171875 -0.125,0.328125 C 2.859375,-0.328125 2.5,-0.140625 2.125,-0.140625 1.75,-0.140625 1.4375,-0.328125 1.25,-0.625 1.03125,-0.9375 0.984375,-1.328125 0.984375,-1.703125 0.984375,-2.171875 1.0625,-2.5 1.25,-2.765625 c 0.1875,-0.296875 0.546875,-0.53125 0.953125,-0.53125 0.375,0 0.765625,0.203125 1,0.609375 z m 0,0"
   id="path34" />
    </g>
  </g>
</g></g></svg>
