<?xml version="1.0" encoding="UTF-8" standalone="no"?>
<!-- Created with Inkscape (http://www.inkscape.org/) -->

<svg
   width="70mm"
   height="70mm"
   viewBox="0 0 70 70"
   version="1.1"
   id="svg1"
   inkscape:version="1.3.2 (091e20e, 2023-11-25, custom)"
   sodipodi:docname="abc_alphabeta_vectors.svg"
   xmlns:inkscape="http://www.inkscape.org/namespaces/inkscape"
   xmlns:sodipodi="http://sodipodi.sourceforge.net/DTD/sodipodi-0.dtd"
   xmlns="http://www.w3.org/2000/svg"
   xmlns:svg="http://www.w3.org/2000/svg">
  <sodipodi:namedview
     id="namedview1"
     pagecolor="#505050"
     bordercolor="#eeeeee"
     borderopacity="1"
     inkscape:showpageshadow="0"
     inkscape:pageopacity="0"
     inkscape:pagecheckerboard="0"
     inkscape:deskcolor="#505050"
     inkscape:document-units="mm"
     showgrid="true"
     inkscape:zoom="3.9660774"
     inkscape:cx="191.37297"
     inkscape:cy="124.68239"
     inkscape:window-width="2560"
     inkscape:window-height="1351"
     inkscape:window-x="-9"
     inkscape:window-y="-9"
     inkscape:window-maximized="1"
     inkscape:current-layer="g16">
    <inkscape:grid
       id="grid1"
       units="px"
       originx="0"
       originy="0"
       spacingx="0.26458333"
       spacingy="0.26458334"
       empcolor="#0099e5"
       empopacity="0.30196078"
       color="#0099e5"
       opacity="0.14901961"
       empspacing="5"
       dotted="false"
       gridanglex="30"
       gridanglez="30"
       visible="true" />
  </sodipodi:namedview>
  <defs
     id="defs1">
    <marker
       style="overflow:visible"
       id="Triangle"
       refX="0"
       refY="0"
       orient="auto-start-reverse"
       inkscape:stockid="Triangle arrow"
       markerWidth="1"
       markerHeight="1"
       viewBox="0 0 1 1"
       inkscape:isstock="true"
       inkscape:collect="always"
       preserveAspectRatio="xMidYMid">
      <path
         transform="scale(0.5)"
         style="fill:context-stroke;fill-rule:evenodd;stroke:context-stroke;stroke-width:1pt"
         d="M 5.77,0 -2.88,5 V -5 Z"
         id="path135" />
    </marker>
    <marker
       style="overflow:visible"
       id="Triangle-6"
       refX="0"
       refY="0"
       orient="auto-start-reverse"
       inkscape:stockid="Triangle arrow"
       markerWidth="1"
       markerHeight="1"
       viewBox="0 0 1 1"
       inkscape:isstock="true"
       inkscape:collect="always"
       preserveAspectRatio="xMidYMid">
      <path
         transform="scale(0.5)"
         style="fill:context-stroke;fill-rule:evenodd;stroke:context-stroke;stroke-width:1pt"
         d="M 5.77,0 -2.88,5 V -5 Z"
         id="path135-3" />
    </marker>
    <marker
       style="overflow:visible"
       id="Triangle-69"
       refX="0"
       refY="0"
       orient="auto-start-reverse"
       inkscape:stockid="Triangle arrow"
       markerWidth="1"
       markerHeight="1"
       viewBox="0 0 1 1"
       inkscape:isstock="true"
       inkscape:collect="always"
       preserveAspectRatio="xMidYMid">
      <path
         transform="scale(0.5)"
         style="fill:context-stroke;fill-rule:evenodd;stroke:context-stroke;stroke-width:1pt"
         d="M 5.77,0 -2.88,5 V -5 Z"
         id="path135-7" />
    </marker>
    <marker
       style="overflow:visible"
       id="Triangle-69-8"
       refX="0"
       refY="0"
       orient="auto-start-reverse"
       inkscape:stockid="Triangle arrow"
       markerWidth="1"
       markerHeight="1"
       viewBox="0 0 1 1"
       inkscape:isstock="true"
       inkscape:collect="always"
       preserveAspectRatio="xMidYMid">
      <path
         transform="scale(0.5)"
         style="fill:context-stroke;fill-rule:evenodd;stroke:context-stroke;stroke-width:1pt"
         d="M 5.77,0 -2.88,5 V -5 Z"
         id="path135-7-6" />
    </marker>
  </defs>
  <g
     inkscape:label="Layer 1"
     inkscape:groupmode="layer"
     id="layer1">
    <path
       style="fill:none;fill-rule:evenodd;stroke:#000000;stroke-width:0.2;stroke-linecap:round;stroke-miterlimit:3.9;stroke-dasharray:none;stroke-opacity:1;marker-start:url(#Triangle)"
       d="M 34.395831,1.984376 V 69.453127"
       id="path1" />
    <path
       style="fill:none;fill-rule:evenodd;stroke:#000000;stroke-width:0.2;stroke-linecap:round;stroke-miterlimit:3.9;stroke-dasharray:none;stroke-opacity:1;marker-start:url(#Triangle-69)"
       d="M 17.622987,6.4095812 51.357362,64.839234"
       id="path1-2" />
    <path
       style="fill:none;fill-rule:evenodd;stroke:#000000;stroke-width:0.2;stroke-linecap:round;stroke-miterlimit:3.9;stroke-dasharray:none;stroke-opacity:1;marker-start:url(#Triangle-69-8)"
       d="M 17.528642,64.668994 51.263019,6.2393421"
       id="path1-2-8" />
    <path
       style="fill:none;fill-rule:evenodd;stroke:#000000;stroke-width:0.2;stroke-linecap:round;stroke-miterlimit:3.9;stroke-dasharray:none;stroke-opacity:1;marker-start:url(#Triangle-6)"
       d="M 67.825099,35.413644 H 0.35634729"
       id="path1-9" />
    <g
       inkscape:label=""
       transform="translate(65.077513,36.297527)"
       id="g1">
      <g
         fill="#000000"
         fill-opacity="1"
         id="g4"
         transform="matrix(0.352778,0,0,0.352778,-0.84089,-0.648185)">
        <g
           id="use3"
           transform="translate(1.993,5.8530002)">
          <path
             d="m 3.0625,-0.640625 c 0.046875,0.375 0.3125,0.6875 0.703125,0.6875 0.21875,0 0.78125,-0.125 0.78125,-0.84375 v -0.5 h -0.25 V -0.8125 c 0,0.109375 0,0.546875 -0.328125,0.546875 -0.3125,0 -0.3125,-0.421875 -0.3125,-0.5625 V -2.40625 c 0,-0.515625 0,-0.8125 -0.40625,-1.1875 -0.328125,-0.296875 -0.765625,-0.421875 -1.21875,-0.421875 -0.75,0 -1.375,0.375 -1.375,0.953125 0,0.265625 0.1875,0.421875 0.421875,0.421875 0.234375,0 0.40625,-0.171875 0.40625,-0.40625 0,-0.390625 -0.390625,-0.4375 -0.40625,-0.4375 0.25,-0.234375 0.6875,-0.3125 0.9375,-0.3125 0.453125,0 0.96875,0.34375 0.96875,1.140625 V -2.375 c -0.484375,0.03125 -1.15625,0.0625 -1.75,0.359375 -0.65625,0.3125 -0.84375,0.78125 -0.84375,1.140625 0,0.734375 0.859375,0.96875 1.46875,0.96875 0.734375,0 1.078125,-0.484375 1.203125,-0.734375 z m -0.078125,-0.625 c 0,0.875 -0.671875,1.140625 -1.0625,1.140625 -0.421875,0 -0.8125,-0.3125 -0.8125,-0.75 0,-0.59375 0.5,-1.21875 1.875,-1.28125 z m 0,0"
             id="path6" />
        </g>
      </g>
      <g
         fill="#000000"
         fill-opacity="1"
         id="g5"
         transform="matrix(0.352778,0,0,0.352778,-0.84089,-0.648185)">
        <g
           id="use4"
           transform="translate(6.5999999,5.8530002)">
          <path
             d="m 1.625,-0.140625 c 0,0.296875 0,1.03125 -0.65625,1.671875 -0.046875,0.046875 -0.046875,0.0625 -0.046875,0.09375 0,0.0625 0.0625,0.109375 0.109375,0.109375 0.09375,0 0.828125,-0.703125 0.828125,-1.75 0,-0.5625 -0.203125,-0.953125 -0.578125,-0.953125 -0.3125,0 -0.484375,0.234375 -0.484375,0.484375 C 0.796875,-0.234375 0.96875,0 1.28125,0 1.40625,0 1.546875,-0.046875 1.625,-0.140625 Z m 0,0"
             id="path7" />
        </g>
      </g>
      <g
         fill="#000000"
         fill-opacity="1"
         id="g6"
         transform="matrix(0.352778,0,0,0.352778,-0.84089,-0.648185)">
        <g
           id="use5"
           transform="translate(10.693162,5.8530002)">
          <path
             d="m 4.40625,-2.109375 c 0,-1.328125 -0.8125,-1.859375 -1.578125,-1.859375 -1.21875,0 -2.4375,1.25 -2.4375,2.53125 0,0.921875 0.625,1.53125 1.5,1.53125 0.96875,0 1.703125,-0.5625 1.9375,-0.75 0.109375,0.453125 0.40625,0.75 0.84375,0.75 0.484375,0 0.78125,-0.46875 0.78125,-0.625 0,-0.109375 -0.09375,-0.109375 -0.125,-0.109375 -0.09375,0 -0.109375,0.046875 -0.140625,0.125 -0.09375,0.25 -0.328125,0.390625 -0.484375,0.390625 -0.296875,0 -0.296875,-0.796875 -0.296875,-0.984375 0,-0.109375 0,-0.125 0.09375,-0.234375 0.140625,-0.1875 0.390625,-0.5 0.625,-0.953125 0.265625,-0.53125 0.40625,-1.078125 0.40625,-1.125 0,-0.015625 0,-0.109375 -0.109375,-0.109375 -0.109375,0 -0.109375,0.03125 -0.15625,0.171875 -0.09375,0.3125 -0.296875,1 -0.859375,1.75 z m -0.625,1.1875 C 3.546875,-0.71875 2.828125,-0.125 1.90625,-0.125 c -0.5,0 -0.828125,-0.328125 -0.828125,-0.984375 0,-0.375 0.171875,-1.265625 0.53125,-1.84375 0.234375,-0.359375 0.703125,-0.78125 1.21875,-0.78125 0.609375,0 0.796875,0.53125 0.890625,1.078125 0.0625,0.484375 0.015625,1.34375 0.0625,1.734375 z m 0,0"
             id="path8" />
        </g>
      </g>
    </g>
    <g
       inkscape:label=""
       transform="translate(35.756474,0.41892304)"
       id="g3">
      <g
         fill="#000000"
         fill-opacity="1"
         id="g2"
         transform="matrix(0.352778,0,0,0.352778,-0.801448,-0.667059)">
        <g
           id="use1"
           transform="translate(1.993,8.2189999)">
          <path
             d="m 5.25,-5.125 c 0,-0.625 -0.421875,-1.203125 -1.375,-1.203125 -0.21875,0 -0.40625,0.03125 -0.671875,0.171875 C 2.40625,-5.75 1.9375,-4.875 1.6875,-4 L 0.28125,1.640625 c -0.015625,0.046875 0.046875,0.09375 0.109375,0.09375 0.078125,0 0.125,-0.015625 0.125,-0.046875 l 0.625,-2.4375 c 0.21875,0.546875 0.640625,0.84375 1.234375,0.84375 0.6875,0 1.359375,-0.296875 1.84375,-0.765625 C 4.625,-1.0625 4.890625,-1.625 4.890625,-2.21875 c 0,-0.5625 -0.25,-1.109375 -0.65625,-1.375 C 4.671875,-3.8125 5.25,-4.4375 5.25,-5.125 Z M 3.59375,-3.59375 C 3.4375,-3.5625 3.296875,-3.53125 3.140625,-3.53125 3,-3.53125 2.875,-3.53125 2.75,-3.578125 c 0.109375,-0.0625 0.265625,-0.0625 0.390625,-0.0625 0.15625,0 0.296875,0 0.453125,0.046875 z m 1.125,-1.6875 c 0,0.5625 -0.328125,1.296875 -0.796875,1.515625 -0.234375,-0.078125 -0.453125,-0.09375 -0.71875,-0.09375 -0.453125,0 -0.734375,0.0625 -0.734375,0.296875 0,0.1875 0.21875,0.25 0.640625,0.25 0.3125,0 0.515625,-0.046875 0.796875,-0.125 0.28125,0.203125 0.375,0.625 0.375,0.96875 0,0.609375 -0.1875,1.28125 -0.59375,1.71875 -0.34375,0.375 -0.796875,0.609375 -1.296875,0.609375 -0.671875,0 -1.078125,-0.46875 -1.078125,-1.125 0,-0.09375 0,-0.1875 0.03125,-0.28125 L 1.953125,-4 c 0.203125,-0.765625 0.890625,-2.109375 1.9375,-2.109375 0.421875,0 0.828125,0.21875 0.828125,0.828125 z m 0,0"
             id="path2" />
        </g>
      </g>
    </g>
    <g
       inkscape:label=""
       transform="translate(18.729323,5.0258864)"
       id="g9">
      <g
         fill="#000000"
         fill-opacity="1"
         id="g8"
         transform="matrix(0.352778,0,0,0.352778,-0.796793,-0.705644)">
        <g
           id="g7"
           transform="translate(1.993,8.2189999)">
          <path
             d="m 1.625,-2.859375 c 0,-0.171875 0,-0.1875 0.09375,-0.328125 0.3125,-0.40625 0.75,-0.546875 1.09375,-0.546875 0.375,0 0.734375,0.203125 0.96875,0.59375 0.234375,0.375 0.25,0.90625 0.25,1.1875 0,0.421875 -0.046875,0.90625 -0.28125,1.265625 C 3.546875,-0.40625 3.1875,-0.125 2.703125,-0.125 2.3125,-0.125 1.96875,-0.34375 1.75,-0.671875 1.625,-0.859375 1.625,-0.875 1.625,-1.046875 Z m -0.078125,2.3125 C 1.828125,-0.15625 2.265625,0.09375 2.75,0.09375 c 1.078125,0 2.0625,-0.859375 2.0625,-2.03125 0,-1.125 -0.890625,-2.03125 -1.96875,-2.03125 -0.609375,0 -1.03125,0.3125 -1.25,0.5625 v -2.8125 L 0.265625,-6.125 v 0.28125 c 0.609375,0 0.6875,0.0625 0.6875,0.5 V 0 h 0.25 z m 0,0"
             id="path3" />
        </g>
      </g>
    </g>
    <g
       inkscape:label=""
       transform="translate(16.200215,62.1385)"
       id="g12">
      <g
         fill="#000000"
         fill-opacity="1"
         id="g11"
         transform="matrix(0.352778,0,0,0.352778,-0.813329,-0.648185)">
        <g
           id="g10"
           transform="translate(1.993,5.8530002)">
          <path
             d="m 3.265625,-3.53125 c -0.1875,0.046875 -0.375,0.171875 -0.375,0.421875 0,0.234375 0.1875,0.421875 0.421875,0.421875 0.234375,0 0.421875,-0.15625 0.421875,-0.4375 0,-0.546875 -0.625,-0.890625 -1.421875,-0.890625 -1.140625,0 -2,0.953125 -2,2.078125 0,1.15625 0.921875,2.03125 1.984375,2.03125 1.25,0 1.53125,-1.078125 1.53125,-1.15625 0,-0.109375 -0.09375,-0.109375 -0.125,-0.109375 -0.09375,0 -0.09375,0.015625 -0.15625,0.171875 -0.203125,0.609375 -0.703125,0.84375 -1.15625,0.84375 -0.578125,0 -1.3125,-0.46875 -1.3125,-1.796875 0,-1.390625 0.71875,-1.8125 1.25,-1.8125 0.125,0 0.609375,0.015625 0.9375,0.234375 z m 0,0"
             id="path9" />
        </g>
      </g>
    </g>
    <g
       inkscape:label=""
       transform="translate(43.557027,12.259028)"
       id="g16">
      <g
         fill="#000000"
         fill-opacity="1"
         id="g13"
         transform="matrix(0.352778,0,0,0.352778,-0.73008141,-0.85756332)">
        <g
           id="use2"
           transform="translate(1.993,5.8530002)">
          <path
             d="m 4.40625,-3.625 c -0.328125,0.0625 -0.421875,0.34375 -0.421875,0.484375 0,0.171875 0.125,0.328125 0.34375,0.328125 0.25,0 0.5,-0.21875 0.5,-0.53125 0,-0.421875 -0.453125,-0.625 -0.875,-0.625 -0.53125,0 -0.84375,0.484375 -0.953125,0.671875 -0.171875,-0.4375 -0.5625,-0.671875 -1,-0.671875 -0.953125,0 -1.484375,1.15625 -1.484375,1.390625 0,0.078125 0.0625,0.109375 0.125,0.109375 0.078125,0 0.109375,-0.046875 0.125,-0.109375 0.28125,-0.890625 0.875,-1.15625 1.21875,-1.15625 0.265625,0 0.484375,0.171875 0.484375,0.59375 0,0.3125 -0.375,1.75 -0.5,2.1875 C 1.90625,-0.6875 1.625,-0.125 1.140625,-0.125 c -0.1875,0 -0.375,-0.0625 -0.453125,-0.109375 C 0.921875,-0.28125 1.109375,-0.5 1.109375,-0.71875 c 0,-0.234375 -0.171875,-0.328125 -0.34375,-0.328125 -0.265625,0 -0.5,0.21875 -0.5,0.53125 0,0.4375 0.484375,0.609375 0.859375,0.609375 0.53125,0 0.828125,-0.421875 0.96875,-0.671875 0.21875,0.59375 0.75,0.671875 0.984375,0.671875 0.96875,0 1.484375,-1.15625 1.484375,-1.375 0,-0.046875 -0.03125,-0.109375 -0.109375,-0.109375 -0.109375,0 -0.109375,0.03125 -0.15625,0.171875 -0.203125,0.640625 -0.71875,1.09375 -1.1875,1.09375 -0.25,0 -0.5,-0.15625 -0.5,-0.59375 0,-0.203125 0.125,-0.6875 0.203125,-1.03125 0.046875,-0.15625 0.28125,-1.125 0.296875,-1.1875 0.109375,-0.328125 0.375,-0.796875 0.84375,-0.796875 0.15625,0 0.328125,0.015625 0.453125,0.109375 z m 0,0"
             id="path4" />
        </g>
      </g>
      <g
         fill="#000000"
         fill-opacity="1"
         id="g15"
         transform="matrix(0.352778,0,0,0.352778,-0.73008141,-0.85756332)">
        <g
           id="g14"
           transform="translate(7.2160001,6.849)">
          <path
             d="m 2.453125,-2.40625 c -0.0625,0.03125 -0.125,0.109375 -0.125,0.234375 0,0.15625 0.109375,0.296875 0.28125,0.296875 0.1875,0 0.296875,-0.140625 0.296875,-0.296875 0,-0.484375 -0.625,-0.5 -1.015625,-0.5 -1.09375,0 -1.5625,0.796875 -1.5625,1.375 0,0.75 0.65625,1.359375 1.5,1.359375 0.953125,0 1.15625,-0.71875 1.15625,-0.78125 0,-0.078125 -0.09375,-0.078125 -0.109375,-0.078125 -0.078125,0 -0.09375,0.03125 -0.109375,0.078125 -0.046875,0.09375 -0.109375,0.265625 -0.3125,0.40625 -0.125,0.09375 -0.328125,0.15625 -0.5625,0.15625 -0.453125,0 -1,-0.328125 -1,-1.140625 0,-0.265625 0.046875,-0.59375 0.265625,-0.84375 0.265625,-0.3125 0.578125,-0.3125 0.765625,-0.3125 0.171875,0 0.375,0 0.53125,0.046875 z m 0,0"
             id="path5" />
        </g>
      </g>
    </g>
    <g
       inkscape:label=""
       transform="translate(28.391596,30.595381)"
       id="g21">
      <g
         fill="#000000"
         fill-opacity="1"
         id="g18"
         transform="matrix(0.352778,0,0,0.352778,-0.796793,-0.664722)">
        <g
           id="g17"
           transform="translate(1.993,5.8530002)">
          <path
             d="m 4.40625,-3.625 c -0.328125,0.0625 -0.421875,0.34375 -0.421875,0.484375 0,0.171875 0.125,0.328125 0.34375,0.328125 0.25,0 0.5,-0.21875 0.5,-0.53125 0,-0.421875 -0.453125,-0.625 -0.875,-0.625 -0.53125,0 -0.84375,0.484375 -0.953125,0.671875 -0.171875,-0.4375 -0.5625,-0.671875 -1,-0.671875 -0.953125,0 -1.484375,1.15625 -1.484375,1.390625 0,0.078125 0.0625,0.109375 0.125,0.109375 0.078125,0 0.109375,-0.046875 0.125,-0.109375 0.28125,-0.890625 0.875,-1.15625 1.21875,-1.15625 0.265625,0 0.484375,0.171875 0.484375,0.59375 0,0.3125 -0.375,1.75 -0.5,2.1875 C 1.90625,-0.6875 1.625,-0.125 1.140625,-0.125 c -0.1875,0 -0.375,-0.0625 -0.453125,-0.109375 C 0.921875,-0.28125 1.109375,-0.5 1.109375,-0.71875 c 0,-0.234375 -0.171875,-0.328125 -0.34375,-0.328125 -0.265625,0 -0.5,0.21875 -0.5,0.53125 0,0.4375 0.484375,0.609375 0.859375,0.609375 0.53125,0 0.828125,-0.421875 0.96875,-0.671875 0.21875,0.59375 0.75,0.671875 0.984375,0.671875 0.96875,0 1.484375,-1.15625 1.484375,-1.375 0,-0.046875 -0.03125,-0.109375 -0.109375,-0.109375 -0.109375,0 -0.109375,0.03125 -0.15625,0.171875 -0.203125,0.640625 -0.71875,1.09375 -1.1875,1.09375 -0.25,0 -0.5,-0.15625 -0.5,-0.59375 0,-0.203125 0.125,-0.6875 0.203125,-1.03125 0.046875,-0.15625 0.28125,-1.125 0.296875,-1.1875 0.109375,-0.328125 0.375,-0.796875 0.84375,-0.796875 0.15625,0 0.328125,0.015625 0.453125,0.109375 z m 0,0"
             id="path16" />
        </g>
      </g>
      <g
         fill="#000000"
         fill-opacity="1"
         id="g20"
         transform="matrix(0.352778,0,0,0.352778,-0.796793,-0.664722)">
        <g
           id="g19"
           transform="translate(7.2160001,6.915)">
          <path
             d="m 1.296875,-4.15625 -0.953125,0.0625 v 0.234375 c 0.421875,0 0.46875,0.046875 0.46875,0.34375 V 0 H 1.046875 C 1.15625,-0.203125 1.234375,-0.328125 1.25,-0.359375 1.453125,-0.125 1.765625,0.0625 2.171875,0.0625 3,0.0625 3.71875,-0.53125 3.71875,-1.296875 c 0,-0.71875 -0.65625,-1.34375 -1.46875,-1.34375 -0.328125,0 -0.671875,0.09375 -0.953125,0.359375 z M 1.3125,-1.984375 c 0.1875,-0.296875 0.546875,-0.46875 0.890625,-0.46875 0.328125,0 0.5625,0.15625 0.703125,0.328125 0.1875,0.234375 0.234375,0.515625 0.234375,0.828125 0,1.140625 -0.859375,1.171875 -1,1.171875 -0.203125,0 -0.5,-0.0625 -0.734375,-0.375 C 1.3125,-0.625 1.3125,-0.640625 1.3125,-0.75 Z m 0,0"
             id="path18" />
        </g>
      </g>
    </g>
    <g
       inkscape:label=""
       transform="translate(48.331783,36.032944)"
       id="g29">
      <g
         fill="#000000"
         fill-opacity="1"
         id="g23"
         transform="matrix(0.352778,0,0,0.352778,-0.796793,-0.664722)">
        <g
           id="g22"
           transform="translate(1.993,5.8530002)">
          <path
             d="m 4.40625,-3.625 c -0.328125,0.0625 -0.421875,0.34375 -0.421875,0.484375 0,0.171875 0.125,0.328125 0.34375,0.328125 0.25,0 0.5,-0.21875 0.5,-0.53125 0,-0.421875 -0.453125,-0.625 -0.875,-0.625 -0.53125,0 -0.84375,0.484375 -0.953125,0.671875 -0.171875,-0.4375 -0.5625,-0.671875 -1,-0.671875 -0.953125,0 -1.484375,1.15625 -1.484375,1.390625 0,0.078125 0.0625,0.109375 0.125,0.109375 0.078125,0 0.109375,-0.046875 0.125,-0.109375 0.28125,-0.890625 0.875,-1.15625 1.21875,-1.15625 0.265625,0 0.484375,0.171875 0.484375,0.59375 0,0.3125 -0.375,1.75 -0.5,2.1875 C 1.90625,-0.6875 1.625,-0.125 1.140625,-0.125 c -0.1875,0 -0.375,-0.0625 -0.453125,-0.109375 C 0.921875,-0.28125 1.109375,-0.5 1.109375,-0.71875 c 0,-0.234375 -0.171875,-0.328125 -0.34375,-0.328125 -0.265625,0 -0.5,0.21875 -0.5,0.53125 0,0.4375 0.484375,0.609375 0.859375,0.609375 0.53125,0 0.828125,-0.421875 0.96875,-0.671875 0.21875,0.59375 0.75,0.671875 0.984375,0.671875 0.96875,0 1.484375,-1.15625 1.484375,-1.375 0,-0.046875 -0.03125,-0.109375 -0.109375,-0.109375 -0.109375,0 -0.109375,0.03125 -0.15625,0.171875 -0.203125,0.640625 -0.71875,1.09375 -1.1875,1.09375 -0.25,0 -0.5,-0.15625 -0.5,-0.59375 0,-0.203125 0.125,-0.6875 0.203125,-1.03125 0.046875,-0.15625 0.28125,-1.125 0.296875,-1.1875 0.109375,-0.328125 0.375,-0.796875 0.84375,-0.796875 0.15625,0 0.328125,0.015625 0.453125,0.109375 z m 0,0"
             id="path21" />
        </g>
      </g>
      <g
         fill="#000000"
         fill-opacity="1"
         id="g25"
         transform="matrix(0.352778,0,0,0.352778,-0.796793,-0.664722)">
        <g
           id="g24"
           transform="translate(7.2160001,6.849)">
          <path
             d="m 2.84375,-1.78125 c 0,-0.5625 -0.5625,-0.890625 -1.234375,-0.890625 -0.296875,0 -1,0.03125 -1,0.53125 0,0.171875 0.109375,0.296875 0.296875,0.296875 0.171875,0 0.28125,-0.125 0.28125,-0.28125 0,-0.109375 -0.046875,-0.21875 -0.15625,-0.265625 0.203125,-0.09375 0.5,-0.09375 0.5625,-0.09375 0.421875,0 0.75,0.265625 0.75,0.71875 v 0.15625 c -0.265625,0 -0.75,0.015625 -1.1875,0.171875 -0.390625,0.140625 -0.765625,0.40625 -0.765625,0.8125 0,0.53125 0.625,0.6875 1.09375,0.6875 0.5,0 0.796875,-0.25 0.9375,-0.484375 0.03125,0.3125 0.234375,0.453125 0.4375,0.453125 0.03125,0 0.671875,0 0.671875,-0.5625 V -0.875 H 3.3125 v 0.328125 c 0,0.0625 0,0.328125 -0.234375,0.328125 -0.234375,0 -0.234375,-0.265625 -0.234375,-0.328125 z m -0.5,0.9375 c 0,0.609375 -0.609375,0.71875 -0.8125,0.71875 -0.3125,0 -0.625,-0.203125 -0.625,-0.5 0,-0.34375 0.328125,-0.78125 1.4375,-0.8125 z m 0,0"
             id="path10" />
        </g>
      </g>
      <g
         fill="#000000"
         fill-opacity="1"
         id="g26"
         transform="matrix(0.352778,0,0,0.352778,-0.796793,-0.664722)">
        <g
           id="use6"
           transform="translate(13.927,5.8530002)">
          <path
             d="m 6.34375,-2.96875 c 0.125,0 0.296875,0 0.296875,-0.1875 0,-0.203125 -0.1875,-0.203125 -0.328125,-0.203125 H 0.84375 c -0.140625,0 -0.328125,0 -0.328125,0.203125 0,0.1875 0.171875,0.1875 0.296875,0.1875 z M 6.3125,-1.140625 c 0.140625,0 0.328125,0 0.328125,-0.203125 0,-0.1875 -0.171875,-0.1875 -0.296875,-0.1875 H 0.8125 c -0.125,0 -0.296875,0 -0.296875,0.1875 0,0.203125 0.1875,0.203125 0.328125,0.203125 z m 0,0"
             id="path11" />
        </g>
      </g>
      <g
         fill="#000000"
         fill-opacity="1"
         id="g27"
         transform="matrix(0.352778,0,0,0.352778,-0.796793,-0.664722)">
        <g
           id="use7"
           transform="translate(23.653999,5.8530002)">
          <path
             d="m 4.40625,-3.625 c -0.328125,0.0625 -0.421875,0.34375 -0.421875,0.484375 0,0.171875 0.125,0.328125 0.34375,0.328125 0.25,0 0.5,-0.21875 0.5,-0.53125 0,-0.421875 -0.453125,-0.625 -0.875,-0.625 -0.53125,0 -0.84375,0.484375 -0.953125,0.671875 -0.171875,-0.4375 -0.5625,-0.671875 -1,-0.671875 -0.953125,0 -1.484375,1.15625 -1.484375,1.390625 0,0.078125 0.0625,0.109375 0.125,0.109375 0.078125,0 0.109375,-0.046875 0.125,-0.109375 0.28125,-0.890625 0.875,-1.15625 1.21875,-1.15625 0.265625,0 0.484375,0.171875 0.484375,0.59375 0,0.3125 -0.375,1.75 -0.5,2.1875 C 1.90625,-0.6875 1.625,-0.125 1.140625,-0.125 c -0.1875,0 -0.375,-0.0625 -0.453125,-0.109375 C 0.921875,-0.28125 1.109375,-0.5 1.109375,-0.71875 c 0,-0.234375 -0.171875,-0.328125 -0.34375,-0.328125 -0.265625,0 -0.5,0.21875 -0.5,0.53125 0,0.4375 0.484375,0.609375 0.859375,0.609375 0.53125,0 0.828125,-0.421875 0.96875,-0.671875 0.21875,0.59375 0.75,0.671875 0.984375,0.671875 0.96875,0 1.484375,-1.15625 1.484375,-1.375 0,-0.046875 -0.03125,-0.109375 -0.109375,-0.109375 -0.109375,0 -0.109375,0.03125 -0.15625,0.171875 -0.203125,0.640625 -0.71875,1.09375 -1.1875,1.09375 -0.25,0 -0.5,-0.15625 -0.5,-0.59375 0,-0.203125 0.125,-0.6875 0.203125,-1.03125 0.046875,-0.15625 0.28125,-1.125 0.296875,-1.1875 0.109375,-0.328125 0.375,-0.796875 0.84375,-0.796875 0.15625,0 0.328125,0.015625 0.453125,0.109375 z m 0,0"
             id="path12" />
        </g>
      </g>
      <g
         fill="#000000"
         fill-opacity="1"
         id="g28"
         transform="matrix(0.352778,0,0,0.352778,-0.796793,-0.664722)">
        <g
           id="use8"
           transform="translate(28.878,6.849)">
          <path
             d="m 3.515625,-0.84375 c 0.640625,-0.6875 0.78125,-1.40625 0.78125,-1.421875 0,-0.09375 -0.09375,-0.09375 -0.109375,-0.09375 -0.09375,0 -0.09375,0.03125 -0.125,0.15625 -0.140625,0.484375 -0.40625,0.875 -0.5625,1.0625 C 3.484375,-1.28125 3.484375,-1.40625 3.46875,-1.546875 3.390625,-2.296875 2.828125,-2.640625 2.25,-2.640625 1.328125,-2.640625 0.453125,-1.84375 0.453125,-1 c 0,0.609375 0.46875,1.0625 1.171875,1.0625 0.3125,0 0.84375,-0.09375 1.453125,-0.515625 0.09375,0.25 0.296875,0.515625 0.65625,0.515625 0.359375,0 0.59375,-0.28125 0.59375,-0.421875 0,-0.078125 -0.09375,-0.078125 -0.109375,-0.078125 -0.078125,0 -0.09375,0 -0.125,0.078125 -0.046875,0.15625 -0.234375,0.21875 -0.328125,0.21875 -0.09375,0 -0.21875,0 -0.25,-0.703125 z M 3.03125,-0.671875 c -0.59375,0.46875 -1.125,0.53125 -1.390625,0.53125 C 1.25,-0.140625 0.96875,-0.375 0.96875,-0.8125 c 0,-0.203125 0.109375,-0.75 0.359375,-1.109375 C 1.59375,-2.3125 1.96875,-2.4375 2.234375,-2.4375 c 0.421875,0 0.625,0.3125 0.71875,0.78125 0.046875,0.25 0.03125,0.640625 0.078125,0.984375 z m 0,0"
             id="path13" />
        </g>
      </g>
    </g>
    <g
       inkscape:label=""
       transform="translate(30.640554,16.795353)"
       id="g34">
      <g
         fill="#000000"
         fill-opacity="1"
         id="g31"
         transform="matrix(0.352778,0,0,0.352778,-0.796793,-0.664722)">
        <g
           id="g30"
           transform="translate(1.993,5.8530002)">
          <path
             d="m 4.40625,-3.625 c -0.328125,0.0625 -0.421875,0.34375 -0.421875,0.484375 0,0.171875 0.125,0.328125 0.34375,0.328125 0.25,0 0.5,-0.21875 0.5,-0.53125 0,-0.421875 -0.453125,-0.625 -0.875,-0.625 -0.53125,0 -0.84375,0.484375 -0.953125,0.671875 -0.171875,-0.4375 -0.5625,-0.671875 -1,-0.671875 -0.953125,0 -1.484375,1.15625 -1.484375,1.390625 0,0.078125 0.0625,0.109375 0.125,0.109375 0.078125,0 0.109375,-0.046875 0.125,-0.109375 0.28125,-0.890625 0.875,-1.15625 1.21875,-1.15625 0.265625,0 0.484375,0.171875 0.484375,0.59375 0,0.3125 -0.375,1.75 -0.5,2.1875 C 1.90625,-0.6875 1.625,-0.125 1.140625,-0.125 c -0.1875,0 -0.375,-0.0625 -0.453125,-0.109375 C 0.921875,-0.28125 1.109375,-0.5 1.109375,-0.71875 c 0,-0.234375 -0.171875,-0.328125 -0.34375,-0.328125 -0.265625,0 -0.5,0.21875 -0.5,0.53125 0,0.4375 0.484375,0.609375 0.859375,0.609375 0.53125,0 0.828125,-0.421875 0.96875,-0.671875 0.21875,0.59375 0.75,0.671875 0.984375,0.671875 0.96875,0 1.484375,-1.15625 1.484375,-1.375 0,-0.046875 -0.03125,-0.109375 -0.109375,-0.109375 -0.109375,0 -0.109375,0.03125 -0.15625,0.171875 -0.203125,0.640625 -0.71875,1.09375 -1.1875,1.09375 -0.25,0 -0.5,-0.15625 -0.5,-0.59375 0,-0.203125 0.125,-0.6875 0.203125,-1.03125 0.046875,-0.15625 0.28125,-1.125 0.296875,-1.1875 0.109375,-0.328125 0.375,-0.796875 0.84375,-0.796875 0.15625,0 0.328125,0.015625 0.453125,0.109375 z m 0,0"
             id="path29" />
        </g>
      </g>
      <g
         fill="#000000"
         fill-opacity="1"
         id="g33"
         transform="matrix(0.352778,0,0,0.352778,-0.796793,-0.664722)">
        <g
           id="g32"
           transform="translate(7.2160001,6.9159999)">
          <path
             d="m 4.015625,-3.40625 c 0,-0.4375 -0.421875,-0.8125 -1.078125,-0.8125 -0.1875,0 -0.375,0.046875 -0.53125,0.140625 -0.5625,0.28125 -0.953125,0.875 -1.078125,1.40625 l -0.9375,3.75 C 0.359375,1.140625 0.4375,1.15625 0.5,1.15625 c 0.0625,0 0.09375,0 0.109375,-0.0625 0,0 0.328125,-1.296875 0.390625,-1.5625 0.171875,0.359375 0.5625,0.53125 0.9375,0.53125 0.828125,0 1.859375,-0.578125 1.859375,-1.5 0,-0.328125 -0.109375,-0.671875 -0.484375,-0.921875 0.5,-0.328125 0.703125,-0.671875 0.703125,-1.046875 z M 2.703125,-2.375 C 2.65625,-2.359375 2.5,-2.34375 2.4375,-2.34375 c -0.0625,0 -0.21875,0 -0.25,-0.015625 C 2.28125,-2.375 2.375,-2.375 2.46875,-2.375 c 0.078125,0 0.15625,0 0.234375,0 z m 0.875,-1.09375 c 0,0.421875 -0.25,0.8125 -0.53125,0.96875 C 2.875,-2.5625 2.6875,-2.578125 2.515625,-2.578125 c -0.15625,0 -0.609375,-0.015625 -0.609375,0.21875 0,0.234375 0.390625,0.21875 0.53125,0.21875 0.140625,0 0.46875,-0.03125 0.59375,-0.109375 0.171875,0.125 0.296875,0.296875 0.296875,0.65625 0,0.8125 -0.546875,1.453125 -1.390625,1.453125 -0.4375,0 -0.8125,-0.28125 -0.8125,-0.734375 0,-0.0625 0,-0.109375 0.015625,-0.15625 l 0.40625,-1.625 C 1.6875,-3.234375 2.265625,-4.015625 2.9375,-4.015625 c 0.359375,0 0.640625,0.15625 0.640625,0.546875 z m 0,0"
             id="path31" />
        </g>
      </g>
    </g>
    <g
       inkscape:label=""
       transform="translate(53.765534,20.268186)"
       id="g37">
      <g
         fill="#000000"
         fill-opacity="1"
         id="g36"
         transform="matrix(0.352778,0,0,0.352778,-0.829866,-0.680905)">
        <g
           id="g35"
           transform="translate(1.993,5.9770002)">
          <path
             d="m -5.5624937,1.687496 c -0.296875,0.078125 -0.515625,0.359375 -0.515625,0.640625 0,0.328125 0.25,0.453125 0.46875,0.453125 0.34375,0 0.671875,-0.28125 0.671875,-0.734375 0,-0.53125 -0.5,-0.84375 -1.046875,-0.84375 -0.4375,0 -0.78125,0.234375 -1,0.515625 -0.125,-0.15625 -0.4375,-0.515625 -1.265625,-0.515625 -1.1875,0 -1.8125003,1.09375 -1.8125003,1.390625 0,0.140625 0.1250003,0.140625 0.2343753,0.140625 0.140625,0 0.1875,0 0.21875,-0.125 0.296875,-0.890625 1.015625,-1.046875 1.296875,-1.046875 0.53125,0 0.53125,0.328125 0.53125,0.453125 0,0.171875 -0.125,0.671875 -0.203125,1 -0.078125,0.265625 -0.25,0.96875 -0.296875,1.15625 -0.140625,0.5625 -0.5,0.796875 -0.78125,0.796875 -0.1875,0 -0.359375,-0.078125 -0.4375,-0.140625 0.296875,-0.078125 0.5,-0.34375 0.5,-0.640625 0,-0.328125 -0.25,-0.453125 -0.453125,-0.453125 -0.34375,0 -0.6875003,0.28125 -0.6875003,0.75 0,0.515625 0.5156253,0.84375 1.0625003,0.84375 0.421875,0 0.765625,-0.25 0.984375,-0.53125 0.125,0.15625 0.4375,0.53125 1.28125,0.53125 1.1875,0 1.796875,-1.09375 1.796875,-1.40625 0,-0.140625 -0.140625,-0.140625 -0.234375,-0.140625 -0.15625,0 -0.1875,0.03125 -0.21875,0.125 -0.296875,0.890625 -1.015625,1.0625 -1.296875,1.0625 -0.53125,0 -0.53125,-0.34375 -0.53125,-0.46875 0,-0.171875 0.140625,-0.671875 0.21875,-1 0.0625,-0.265625 0.234375,-0.96875 0.296875,-1.15625 0.140625,-0.5625 0.484375,-0.78125 0.765625,-0.78125 0.1875,0 0.359375,0.0625 0.453125,0.125 z m 0,0"
             id="path34" />
        </g>
      </g>
    </g>
    <path
       style="fill:none;fill-rule:evenodd;stroke:#000000;stroke-width:0.1;stroke-linecap:round;stroke-miterlimit:3.9;stroke-dasharray:0.3, 0.3;stroke-dashoffset:0;stroke-opacity:1"
       d="m 53.874852,17.990518 0,17.423126"
       id="path38"
       sodipodi:nodetypes="cc" />
    <path
       style="fill:none;fill-rule:evenodd;stroke:#000000;stroke-width:0.0999999;stroke-linecap:round;stroke-miterlimit:3.9;stroke-dasharray:0.3, 0.3;stroke-dashoffset:0;stroke-opacity:1"
       d="M 53.874852,17.941668 H 34.48203"
       id="path38-0"
       sodipodi:nodetypes="cc" />
    <path
       style="fill:none;fill-rule:evenodd;stroke:#000000;stroke-width:0.0999999;stroke-linecap:round;stroke-miterlimit:3.9;stroke-dasharray:0.3, 0.3;stroke-dashoffset:0;stroke-opacity:1"
       d="M 53.874852,17.990518 31.70629,30.665197"
       id="path38-0-7"
       sodipodi:nodetypes="cc" />
    <path
       style="fill:none;fill-rule:evenodd;stroke:#000000;stroke-width:0.0999999;stroke-linecap:round;stroke-miterlimit:3.9;stroke-dasharray:0.3, 0.3;stroke-dashoffset:0;stroke-opacity:1"
       d="M 53.874852,17.990518 46.935064,13.88242"
       id="path38-0-6"
       sodipodi:nodetypes="cc" />
    <path
       style="fill:none;fill-rule:evenodd;stroke:#ff0100;stroke-width:0.25;stroke-linecap:round;stroke-miterlimit:3.9;stroke-dasharray:none;stroke-opacity:1;marker-end:url(#Triangle)"
       d="M 34.39583,35.454169 53.263929,18.533235"
       id="path37"
       sodipodi:nodetypes="cc" />
  </g>
</svg>
