<?xml version="1.0" encoding="UTF-8" standalone="no"?>
<!-- Created with Inkscape (http://www.inkscape.org/) -->

<svg
   width="71.127167mm"
   height="53.790325mm"
   viewBox="0 0 71.127167 53.790325"
   version="1.1"
   id="svg1"
   xml:space="preserve"
   inkscape:version="1.3.2 (091e20e, 2023-11-25, custom)"
   sodipodi:docname="Eddy_currents_rotor_bar.svg"
   xmlns:inkscape="http://www.inkscape.org/namespaces/inkscape"
   xmlns:sodipodi="http://sodipodi.sourceforge.net/DTD/sodipodi-0.dtd"
   xmlns="http://www.w3.org/2000/svg"
   xmlns:svg="http://www.w3.org/2000/svg"><sodipodi:namedview
     id="namedview1"
     pagecolor="#505050"
     bordercolor="#eeeeee"
     borderopacity="1"
     inkscape:showpageshadow="0"
     inkscape:pageopacity="0"
     inkscape:pagecheckerboard="0"
     inkscape:deskcolor="#505050"
     inkscape:document-units="mm"
     showgrid="true"
     inkscape:zoom="2.8044403"
     inkscape:cx="197.54388"
     inkscape:cy="129.61588"
     inkscape:window-width="2560"
     inkscape:window-height="1351"
     inkscape:window-x="2551"
     inkscape:window-y="-9"
     inkscape:window-maximized="1"
     inkscape:current-layer="layer1"><inkscape:grid
       id="grid1"
       units="px"
       originx="-21.59922"
       originy="-24.523897"
       spacingx="0.26458333"
       spacingy="0.26458334"
       empcolor="#0099e5"
       empopacity="0.30196078"
       color="#0099e5"
       opacity="0.14901961"
       empspacing="5"
       dotted="false"
       gridanglex="30"
       gridanglez="30"
       visible="true" /></sodipodi:namedview><defs
     id="defs1"><marker
       style="overflow:visible"
       id="marker44"
       refX="0"
       refY="0"
       orient="auto-start-reverse"
       inkscape:stockid="Wide arrow"
       markerWidth="2"
       markerHeight="2"
       viewBox="0 0 1 1"
       inkscape:isstock="true"
       inkscape:collect="always"
       preserveAspectRatio="xMidYMid"><path
         style="fill:none;stroke:context-stroke;stroke-width:1;stroke-linecap:butt"
         d="M 3,-3 0,0 3,3"
         transform="rotate(180,0.125,0)"
         sodipodi:nodetypes="ccc"
         id="path44" /></marker><marker
       style="overflow:visible"
       id="ArrowWide"
       refX="0"
       refY="0"
       orient="auto-start-reverse"
       inkscape:stockid="Wide arrow"
       markerWidth="2"
       markerHeight="2"
       viewBox="0 0 1 1"
       inkscape:isstock="true"
       inkscape:collect="always"
       preserveAspectRatio="xMidYMid"><path
         style="fill:none;stroke:context-stroke;stroke-width:1;stroke-linecap:butt"
         d="M 3,-3 0,0 3,3"
         transform="rotate(180,0.125,0)"
         sodipodi:nodetypes="ccc"
         id="path43" /></marker><inkscape:path-effect
       effect="bspline"
       id="path-effect10"
       is_visible="true"
       lpeversion="1.3"
       weight="33.333333"
       steps="2"
       helper_size="0"
       apply_no_weight="true"
       apply_with_weight="true"
       only_selected="false"
       uniform="false" /><inkscape:path-effect
       effect="spiro"
       id="path-effect9"
       is_visible="true"
       lpeversion="1" /><inkscape:path-effect
       effect="bspline"
       id="path-effect8"
       is_visible="true"
       lpeversion="1.3"
       weight="33.333333"
       steps="2"
       helper_size="0"
       apply_no_weight="true"
       apply_with_weight="true"
       only_selected="false"
       uniform="false" /><marker
       style="overflow:visible"
       id="Triangle"
       refX="0"
       refY="0"
       orient="auto-start-reverse"
       inkscape:stockid="Triangle arrow"
       markerWidth="3"
       markerHeight="3"
       viewBox="0 0 1 1"
       inkscape:isstock="true"
       inkscape:collect="always"
       preserveAspectRatio="xMidYMid"><path
         transform="scale(0.5)"
         style="fill:context-stroke;fill-rule:evenodd;stroke:context-stroke;stroke-width:1pt"
         d="M 5.77,0 -2.88,5 V -5 Z"
         id="path135" /></marker><marker
       style="overflow:visible"
       id="Triangle-6"
       refX="0"
       refY="0"
       orient="auto-start-reverse"
       inkscape:stockid="Triangle arrow"
       markerWidth="3"
       markerHeight="3"
       viewBox="0 0 1 1"
       inkscape:isstock="true"
       inkscape:collect="always"
       preserveAspectRatio="xMidYMid"><path
         transform="scale(0.5)"
         style="fill:context-stroke;fill-rule:evenodd;stroke:context-stroke;stroke-width:1pt"
         d="M 5.77,0 -2.88,5 V -5 Z"
         id="path135-4" /></marker><marker
       style="overflow:visible"
       id="Triangle-6-3"
       refX="0"
       refY="0"
       orient="auto-start-reverse"
       inkscape:stockid="Triangle arrow"
       markerWidth="3"
       markerHeight="3"
       viewBox="0 0 1 1"
       inkscape:isstock="true"
       inkscape:collect="always"
       preserveAspectRatio="xMidYMid"><path
         transform="scale(0.5)"
         style="fill:context-stroke;fill-rule:evenodd;stroke:context-stroke;stroke-width:1pt"
         d="M 5.77,0 -2.88,5 V -5 Z"
         id="path135-4-5" /></marker><marker
       style="overflow:visible"
       id="Triangle-6-3-2"
       refX="0"
       refY="0"
       orient="auto-start-reverse"
       inkscape:stockid="Triangle arrow"
       markerWidth="3"
       markerHeight="3"
       viewBox="0 0 1 1"
       inkscape:isstock="true"
       inkscape:collect="always"
       preserveAspectRatio="xMidYMid"><path
         transform="scale(0.5)"
         style="fill:context-stroke;fill-rule:evenodd;stroke:context-stroke;stroke-width:1pt"
         d="M 5.77,0 -2.88,5 V -5 Z"
         id="path135-4-5-2" /></marker><marker
       style="overflow:visible"
       id="marker44-4"
       refX="0"
       refY="0"
       orient="auto-start-reverse"
       inkscape:stockid="Wide arrow"
       markerWidth="2"
       markerHeight="2"
       viewBox="0 0 1 1"
       inkscape:isstock="true"
       inkscape:collect="always"
       preserveAspectRatio="xMidYMid"><path
         style="fill:none;stroke:context-stroke;stroke-width:1;stroke-linecap:butt"
         d="M 3,-3 0,0 3,3"
         transform="rotate(180,0.125,0)"
         sodipodi:nodetypes="ccc"
         id="path44-7" /></marker><marker
       style="overflow:visible"
       id="ArrowWide-4"
       refX="0"
       refY="0"
       orient="auto-start-reverse"
       inkscape:stockid="Wide arrow"
       markerWidth="2"
       markerHeight="2"
       viewBox="0 0 1 1"
       inkscape:isstock="true"
       inkscape:collect="always"
       preserveAspectRatio="xMidYMid"><path
         style="fill:none;stroke:context-stroke;stroke-width:1;stroke-linecap:butt"
         d="M 3,-3 0,0 3,3"
         transform="rotate(180,0.125,0)"
         sodipodi:nodetypes="ccc"
         id="path43-2" /></marker><marker
       style="overflow:visible"
       id="marker44-4-5"
       refX="0"
       refY="0"
       orient="auto-start-reverse"
       inkscape:stockid="Wide arrow"
       markerWidth="2"
       markerHeight="2"
       viewBox="0 0 1 1"
       inkscape:isstock="true"
       inkscape:collect="always"
       preserveAspectRatio="xMidYMid"><path
         style="fill:none;stroke:context-stroke;stroke-width:1;stroke-linecap:butt"
         d="M 3,-3 0,0 3,3"
         transform="rotate(180,0.125,0)"
         sodipodi:nodetypes="ccc"
         id="path44-7-6" /></marker><marker
       style="overflow:visible"
       id="ArrowWide-4-0"
       refX="0"
       refY="0"
       orient="auto-start-reverse"
       inkscape:stockid="Wide arrow"
       markerWidth="2"
       markerHeight="2"
       viewBox="0 0 1 1"
       inkscape:isstock="true"
       inkscape:collect="always"
       preserveAspectRatio="xMidYMid"><path
         style="fill:none;stroke:context-stroke;stroke-width:1;stroke-linecap:butt"
         d="M 3,-3 0,0 3,3"
         transform="rotate(180,0.125,0)"
         sodipodi:nodetypes="ccc"
         id="path43-2-2" /></marker></defs><g
     inkscape:label="Layer 1"
     inkscape:groupmode="layer"
     id="layer1"
     transform="translate(-21.59922,-24.523897)"><path
       style="fill:#bbbbbb;fill-opacity:1;fill-rule:evenodd;stroke:none;stroke-width:0.15;stroke-linecap:round;stroke-miterlimit:3.9;stroke-dasharray:none;stroke-dashoffset:0;stroke-opacity:1"
       d="M 43.068234,37.041666 68.791663,25.135417 82.55138,24.623897 55.562497,37.041666 Z"
       id="path11" /><path
       style="fill:#bbbbbb;fill-opacity:1;fill-rule:evenodd;stroke:none;stroke-width:0.15;stroke-linecap:round;stroke-miterlimit:3.9;stroke-dasharray:none;stroke-dashoffset:0;stroke-opacity:1"
       d="M 55.562497,71.437502 43.03673,71.371562 43.06823,37.041666 H 55.562493 Z"
       id="path12" /><path
       style="fill:#bbbbbb;fill-opacity:1;fill-rule:evenodd;stroke:none;stroke-width:0.15;stroke-linecap:round;stroke-miterlimit:3.9;stroke-dasharray:none;stroke-dashoffset:0;stroke-opacity:1"
       d="M 55.562498,37.041668 82.55138,24.623897 82.62638,59.106789 55.562498,71.437502 Z"
       id="path10"
       sodipodi:nodetypes="ccccc" /><path
       style="fill:none;fill-rule:evenodd;stroke:#000000;stroke-width:0.2;stroke-linecap:round;stroke-miterlimit:3.9;stroke-dasharray:none"
       d="m 21.69922,29.104166 h 19.311196 v 44.390148 l 17.197914,0.04717 V 29.104166 h 11.90625"
       id="path1" /><path
       style="fill:none;fill-rule:evenodd;stroke:#000000;stroke-width:0.2;stroke-linecap:round;stroke-miterlimit:3.9;stroke-dasharray:none"
       d="M 68.791663,25.135417 43.068234,37.041666 H 55.562497 L 82.55138,24.623897"
       id="path2" /><path
       style="fill:none;fill-rule:evenodd;stroke:#000000;stroke-width:0.2;stroke-linecap:round;stroke-miterlimit:3.9;stroke-dasharray:none"
       d="m 55.562497,37.041666 v 34.395836 l -12.525767,-0.06594 0.0315,-34.329899 v 0"
       id="path3" /><path
       style="fill:none;fill-rule:evenodd;stroke:#000000;stroke-width:0.15;stroke-linecap:round;stroke-miterlimit:3.9"
       d="M 55.562497,71.437502 82.626379,59.106789"
       id="path4" /><path
       style="fill:none;fill-rule:evenodd;stroke:#000000;stroke-width:0.15;stroke-linecap:round;stroke-miterlimit:3.9;stroke-dasharray:none;stroke-dashoffset:0;stroke-opacity:1;marker-end:url(#Triangle)"
       d="M 33.072916,62.794514 48.383941,55.562502"
       id="path7"
       sodipodi:nodetypes="cc" /><path
       style="fill:none;fill-rule:evenodd;stroke:#000000;stroke-width:0.15;stroke-linecap:round;stroke-miterlimit:3.9;stroke-dasharray:none;stroke-dashoffset:0;stroke-opacity:1;marker-end:url(#Triangle-6)"
       d="M 69.263388,46.814696 H 88.635414"
       id="path7-1"
       sodipodi:nodetypes="cc" /><path
       style="fill:none;fill-rule:evenodd;stroke:#000000;stroke-width:0.15;stroke-linecap:round;stroke-miterlimit:3.9;stroke-dasharray:none;stroke-dashoffset:0;stroke-opacity:1;marker-start:url(#marker44);marker-end:url(#ArrowWide)"
       d="M 41.378569,75.141669 H 58.208332"
       id="path7-1-0"
       sodipodi:nodetypes="cc" /><path
       style="fill:none;fill-rule:evenodd;stroke:#000000;stroke-width:0.15;stroke-linecap:round;stroke-miterlimit:3.9;stroke-dasharray:none;stroke-dashoffset:0;stroke-opacity:1;marker-start:url(#marker44-4);marker-end:url(#ArrowWide-4)"
       d="M 43.407036,68.791669 H 55.2116"
       id="path7-1-0-8"
       sodipodi:nodetypes="cc" /><path
       style="fill:none;fill-rule:evenodd;stroke:#000000;stroke-width:0.15;stroke-linecap:round;stroke-miterlimit:3.9;stroke-dasharray:none;stroke-dashoffset:0;stroke-opacity:1;marker-start:url(#marker44-4-5);marker-end:url(#ArrowWide-4-0)"
       d="m 29.971654,38.252201 v 32.79766"
       id="path7-1-0-8-2"
       sodipodi:nodetypes="cc" /><path
       style="fill:none;fill-rule:evenodd;stroke:#000000;stroke-width:0.15;stroke-linecap:round;stroke-miterlimit:3.9;stroke-dasharray:none;stroke-dashoffset:0;stroke-opacity:1;marker-end:url(#Triangle-6-3)"
       d="m 68.165327,35.454168 1.782475,-0.79375"
       id="path7-1-2"
       sodipodi:nodetypes="cc" /><path
       style="fill:none;fill-rule:evenodd;stroke:#000000;stroke-width:0.15;stroke-linecap:round;stroke-miterlimit:3.9;stroke-dasharray:none;stroke-dashoffset:0;stroke-opacity:1;marker-end:url(#Triangle-6-3-2)"
       d="m 75.312424,58.110381 -1.782475,0.79375"
       id="path7-1-2-1"
       sodipodi:nodetypes="cc" /><path
       style="fill:none;fill-rule:evenodd;stroke:#000000;stroke-width:0.15;stroke-linecap:round;stroke-miterlimit:3.9;stroke-dasharray:0.9, 0.9;stroke-dashoffset:0;stroke-opacity:1"
       d="m 82.174002,29.029165 c -6.577578,3.023673 -13.154772,6.047169 -16.575848,7.647199 -3.421077,1.600029 -3.685658,1.776416 -3.994336,1.996901 -0.308678,0.220484 -0.637446,0.46706 -0.871297,0.901445 -0.233852,0.434386 -0.313175,0.945839 -0.355736,1.647478 -0.04256,0.701638 -0.04256,1.556032 -0.06581,4.861774 -0.02325,3.305741 -0.06976,9.062606 0.0168,12.295226 0.08656,3.232621 0.130186,3.373347 0.32829,3.739784 0.198103,0.366438 0.462686,0.674763 0.783336,0.904144 0.320649,0.229381 0.697365,0.379818 1.050143,0.446141 0.352777,0.06632 0.570772,0.05453 1.011105,-0.04556 0.440333,-0.100089 0.881287,-0.276471 4.081581,-1.749902 3.200294,-1.473432 9.159664,-4.243793 15.119151,-7.014209"
       id="path9"
       inkscape:path-effect="#path-effect10"
       inkscape:original-d="m 82.174002,29.029165 c -6.577578,3.023673 -13.154772,6.047169 -19.732337,9.070836 -0.264588,0.176392 -0.529169,0.352779 -0.79375,0.529167 -0.352775,0.264581 -0.681543,0.511157 -1.058333,0.79375 -0.09091,0.586178 -0.170237,1.097631 -0.255357,1.646463 0,0.854445 0,1.708839 0,2.563284 -0.04651,5.757038 -0.09301,11.513903 -0.139515,17.270769 0.219618,0.708375 0.263248,0.849101 0.394872,1.273651 0.264583,0.308325 0.529166,0.61665 0.79375,0.924975 0.376715,0.150437 0.753431,0.300874 1.130147,0.451311 0.328839,-0.01779 0.545547,-0.05337 0.986518,-0.05337 0.440982,-0.176392 0.881936,-0.352774 1.322918,-0.529166 5.959606,-2.770471 11.918976,-5.540832 17.878463,-8.311248"
       sodipodi:nodetypes="ccccccccccccc" /><g
       inkscape:label=""
       transform="matrix(1.2557032,0,0,1.2557032,33.855945,57.343131)"
       id="g13"
       style="stroke-width:0.796367"><g
   fill="#000000"
   fill-opacity="1"
   id="g3"
   transform="matrix(0.352778,0,0,0.352778,-0.796793,-0.701014)"
   style="stroke-width:0.796367">
    <g
   id="use2"
   transform="translate(1.993,7.9089999)"
   style="stroke-width:0.796367">
      <path
   d="m 2.59375,-5.59375 c 0,-0.203125 -0.140625,-0.328125 -0.328125,-0.328125 -0.25,0 -0.484375,0.234375 -0.484375,0.46875 0,0.171875 0.125,0.328125 0.328125,0.328125 0.25,0 0.484375,-0.21875 0.484375,-0.46875 z m 0.125,4.3125 c 0,-0.046875 -0.015625,-0.109375 -0.109375,-0.109375 -0.09375,0 -0.109375,0.046875 -0.140625,0.15625 C 2.25,-0.5 1.890625,-0.125 1.546875,-0.125 1.40625,-0.125 1.328125,-0.203125 1.328125,-0.421875 1.328125,-0.640625 1.40625,-0.828125 1.46875,-1 1.625,-1.4375 1.625,-1.453125 1.75,-1.734375 1.890625,-2.109375 2.09375,-2.625 2.171875,-2.875 2.25,-3.046875 2.25,-3.125 2.25,-3.203125 2.25,-3.71875 1.84375,-3.96875 1.484375,-3.96875 c -0.875,0 -1.21875,1.28125 -1.21875,1.390625 0,0.078125 0.0625,0.109375 0.125,0.109375 0.09375,0 0.109375,-0.0625 0.140625,-0.171875 0.1875,-0.640625 0.53125,-1.09375 0.921875,-1.09375 0.09375,0 0.21875,0.015625 0.21875,0.28125 0,0.21875 -0.09375,0.453125 -0.171875,0.65625 L 0.859375,-1.125 C 0.796875,-0.953125 0.75,-0.8125 0.75,-0.65625 c 0,0.421875 0.3125,0.75 0.765625,0.75 0.875,0 1.203125,-1.28125 1.203125,-1.375 z m 0,0"
   id="path13"
   style="stroke-width:0.796367" />
    </g>
  </g>
  <g
   fill="#000000"
   fill-opacity="1"
   id="g4"
   transform="matrix(0.352778,0,0,0.352778,-0.796793,-0.701014)"
   style="stroke-width:0.796367">
    <g
   id="use3"
   transform="translate(5.1459999,8.9049997)"
   style="stroke-width:0.796367">
      <path
   d="m 1.296875,-1.34375 c 0,-0.546875 0.28125,-1.09375 0.8125,-1.109375 -0.046875,0.0625 -0.078125,0.125 -0.078125,0.203125 0,0.171875 0.125,0.28125 0.28125,0.28125 0.171875,0 0.28125,-0.109375 0.28125,-0.28125 0,-0.234375 -0.21875,-0.390625 -0.484375,-0.390625 -0.359375,0 -0.671875,0.21875 -0.859375,0.625 v -0.625 l -0.90625,0.0625 v 0.234375 c 0.421875,0 0.46875,0.046875 0.46875,0.34375 v 1.515625 c 0,0.25 -0.046875,0.25 -0.46875,0.25 V 0 C 0.5,-0.015625 0.9375,-0.03125 1.078125,-0.03125 1.375,-0.03125 1.796875,0 1.875,0 V -0.234375 H 1.75 c -0.453125,0 -0.453125,-0.0625 -0.453125,-0.265625 z m 0,0"
   id="path5"
   style="stroke-width:0.796367" />
    </g>
  </g>
</g><g
       inkscape:label=""
       transform="matrix(1.2557032,0,0,1.2557032,67.674306,37.631555)"
       id="g17"
       style="stroke-width:0.796367"><g
   fill="#000000"
   fill-opacity="1"
   id="g5"
   transform="matrix(0.352778,0,0,0.352778,-0.796793,-0.700661)"
   style="stroke-width:0.796367">
    <g
   id="use4"
   transform="translate(1.993,7.908)"
   style="stroke-width:0.796367">
      <path
   d="m 2.59375,-5.59375 c 0,-0.203125 -0.140625,-0.328125 -0.328125,-0.328125 -0.25,0 -0.484375,0.234375 -0.484375,0.46875 0,0.171875 0.125,0.328125 0.328125,0.328125 0.25,0 0.484375,-0.21875 0.484375,-0.46875 z m 0.125,4.3125 c 0,-0.046875 -0.015625,-0.109375 -0.109375,-0.109375 -0.09375,0 -0.109375,0.046875 -0.140625,0.15625 C 2.25,-0.5 1.890625,-0.125 1.546875,-0.125 1.40625,-0.125 1.328125,-0.203125 1.328125,-0.421875 1.328125,-0.640625 1.40625,-0.828125 1.46875,-1 1.625,-1.4375 1.625,-1.453125 1.75,-1.734375 1.890625,-2.109375 2.09375,-2.625 2.171875,-2.875 2.25,-3.046875 2.25,-3.125 2.25,-3.203125 2.25,-3.71875 1.84375,-3.96875 1.484375,-3.96875 c -0.875,0 -1.21875,1.28125 -1.21875,1.390625 0,0.078125 0.0625,0.109375 0.125,0.109375 0.09375,0 0.109375,-0.0625 0.140625,-0.171875 0.1875,-0.640625 0.53125,-1.09375 0.921875,-1.09375 0.09375,0 0.21875,0.015625 0.21875,0.28125 0,0.21875 -0.09375,0.453125 -0.171875,0.65625 L 0.859375,-1.125 C 0.796875,-0.953125 0.75,-0.8125 0.75,-0.65625 c 0,0.421875 0.3125,0.75 0.765625,0.75 0.875,0 1.203125,-1.28125 1.203125,-1.375 z m 0,0"
   id="path8"
   style="stroke-width:0.796367" />
    </g>
  </g>
  <g
   fill="#000000"
   fill-opacity="1"
   id="g8"
   transform="matrix(0.352778,0,0,0.352778,-0.796793,-0.700661)"
   style="stroke-width:0.796367">
    <g
   id="use5"
   transform="translate(5.1459999,8.9709997)"
   style="stroke-width:0.796367">
      <path
   d="m 2.8125,-1.359375 c 0.125,0 0.171875,0 0.171875,-0.140625 0,-0.453125 -0.25,-1.171875 -1.25,-1.171875 -0.84375,0 -1.453125,0.640625 -1.453125,1.359375 0,0.75 0.6875,1.375 1.53125,1.375 0.875,0 1.171875,-0.65625 1.171875,-0.78125 0,-0.03125 -0.015625,-0.09375 -0.109375,-0.09375 -0.078125,0 -0.09375,0.03125 -0.109375,0.109375 -0.1875,0.4375 -0.640625,0.546875 -0.90625,0.546875 -0.328125,0 -0.609375,-0.140625 -0.78125,-0.359375 -0.21875,-0.28125 -0.21875,-0.671875 -0.21875,-0.84375 z M 0.875,-1.53125 c 0.0625,-0.796875 0.609375,-0.953125 0.859375,-0.953125 0.765625,0 0.8125,0.78125 0.8125,0.953125 z m 0,0"
   id="path14"
   style="stroke-width:0.796367" />
    </g>
    <g
   id="use6"
   transform="translate(8.4115629,8.9709997)"
   style="stroke-width:0.796367">
      <path
   d="m 2.28125,-4.09375 v 0.234375 c 0.40625,0 0.46875,0.046875 0.46875,0.34375 v 1.21875 c -0.265625,-0.234375 -0.5625,-0.34375 -0.890625,-0.34375 -0.828125,0 -1.53125,0.59375 -1.53125,1.359375 0,0.734375 0.65625,1.34375 1.46875,1.34375 0.359375,0 0.671875,-0.140625 0.921875,-0.375 v 0.375 L 3.6875,0 v -0.234375 c -0.421875,0 -0.46875,-0.046875 -0.46875,-0.328125 v -3.59375 z m 0.4375,3.328125 c 0,0.109375 0,0.125 -0.09375,0.25 C 2.328125,-0.15625 1.9375,-0.125 1.828125,-0.125 c -0.25,0 -0.5,-0.109375 -0.703125,-0.328125 -0.1875,-0.234375 -0.234375,-0.5625 -0.234375,-0.828125 0,-1.09375 0.796875,-1.171875 1.015625,-1.171875 0.203125,0 0.5,0.078125 0.734375,0.328125 C 2.71875,-2.015625 2.71875,-2 2.71875,-1.890625 Z m 0,0"
   id="path15"
   style="stroke-width:0.796367" />
    </g>
    <g
   id="use7"
   transform="translate(12.451823,8.9709997)"
   style="stroke-width:0.796367">
      <path
   d="m 2.28125,-4.09375 v 0.234375 c 0.40625,0 0.46875,0.046875 0.46875,0.34375 v 1.21875 c -0.265625,-0.234375 -0.5625,-0.34375 -0.890625,-0.34375 -0.828125,0 -1.53125,0.59375 -1.53125,1.359375 0,0.734375 0.65625,1.34375 1.46875,1.34375 0.359375,0 0.671875,-0.140625 0.921875,-0.375 v 0.375 L 3.6875,0 v -0.234375 c -0.421875,0 -0.46875,-0.046875 -0.46875,-0.328125 v -3.59375 z m 0.4375,3.328125 c 0,0.109375 0,0.125 -0.09375,0.25 C 2.328125,-0.15625 1.9375,-0.125 1.828125,-0.125 c -0.25,0 -0.5,-0.109375 -0.703125,-0.328125 -0.1875,-0.234375 -0.234375,-0.5625 -0.234375,-0.828125 0,-1.09375 0.796875,-1.171875 1.015625,-1.171875 0.203125,0 0.5,0.078125 0.734375,0.328125 C 2.71875,-2.015625 2.71875,-2 2.71875,-1.890625 Z m 0,0"
   id="path16"
   style="stroke-width:0.796367" />
    </g>
    <g
   id="use8"
   transform="translate(16.492083,8.9709997)"
   style="stroke-width:0.796367">
      <path
   d="m 3.015625,-1.96875 c 0.171875,-0.359375 0.46875,-0.375 0.59375,-0.375 V -2.578125 C 3.5625,-2.578125 3.3125,-2.5625 3.125,-2.5625 c -0.15625,0 -0.484375,-0.015625 -0.5625,-0.015625 v 0.234375 c 0.21875,0.015625 0.25,0.140625 0.25,0.21875 0,0.078125 -0.03125,0.125 -0.046875,0.171875 L 2.0625,-0.53125 1.296875,-2.109375 C 1.28125,-2.140625 1.25,-2.171875 1.25,-2.21875 c 0,-0.125 0.21875,-0.125 0.3125,-0.125 V -2.578125 C 1.4375,-2.5625 1.015625,-2.5625 0.859375,-2.5625 c -0.09375,0 -0.46875,0 -0.625,-0.015625 v 0.234375 c 0.375,0 0.421875,0.015625 0.515625,0.21875 L 1.796875,0 C 1.765625,0.078125 1.6875,0.25 1.640625,0.3125 1.484375,0.625 1.28125,1.03125 0.859375,1.03125 c -0.015625,0 -0.140625,0 -0.25,-0.0625 0.0625,-0.03125 0.15625,-0.109375 0.15625,-0.25 0,-0.15625 -0.125,-0.265625 -0.28125,-0.265625 -0.140625,0 -0.265625,0.09375 -0.265625,0.265625 0,0.296875 0.296875,0.5 0.640625,0.5 0.53125,0 0.828125,-0.5 0.921875,-0.6875 z m 0,0"
   id="path17"
   style="stroke-width:0.796367" />
    </g>
  </g>
</g><g
       inkscape:label=""
       transform="matrix(1.2557032,0,0,1.2557032,84.916451,41.060861)"
       id="g22"
       style="stroke-width:0.796367"><g
   fill="#000000"
   fill-opacity="1"
   id="g6"
   transform="matrix(0.352778,0,0,0.352778,-0.851914,-0.703792)"
   style="stroke-width:0.796367">
    <g
   id="g18"
   transform="translate(1.993,8.1199999)"
   style="stroke-width:0.796367">
      <path
   d="M 1.46875,-0.6875 C 1.375,-0.359375 1.359375,-0.28125 0.6875,-0.28125 c -0.171875,0 -0.265625,0 -0.265625,0.171875 C 0.421875,0 0.515625,0 0.671875,0 H 3.9375 c 1.453125,0 2.515625,-1.0625 2.515625,-1.921875 0,-0.640625 -0.53125,-1.1875 -1.40625,-1.28125 C 6.0625,-3.40625 6.9375,-4.078125 6.9375,-4.875 c 0,-0.703125 -0.65625,-1.25 -1.71875,-1.25 h -3.0625 c -0.171875,0 -0.265625,0 -0.265625,0.15625 0,0.125 0.078125,0.125 0.265625,0.125 0.03125,0 0.1875,0 0.34375,0.015625 0.140625,0.015625 0.203125,0.03125 0.203125,0.140625 0,0.03125 0,0.078125 -0.03125,0.171875 z M 2.859375,-3.296875 3.40625,-5.5 C 3.484375,-5.828125 3.5,-5.84375 3.890625,-5.84375 H 5.09375 c 0.9375,0 1.015625,0.703125 1.015625,0.921875 0,0.8125 -0.828125,1.625 -1.84375,1.625 z M 2.4375,-0.28125 c -0.125,0 -0.15625,0 -0.1875,0 C 2.15625,-0.296875 2.140625,-0.3125 2.140625,-0.375 c 0,-0.015625 0,-0.03125 0.03125,-0.203125 l 0.625,-2.5 h 1.6875 c 0.5625,0 1.125,0.25 1.125,1.0625 0,0.890625 -0.8125,1.734375 -1.890625,1.734375 z m 0,0"
   id="path18"
   style="stroke-width:0.796367" />
    </g>
  </g>
  <g
   fill="#000000"
   fill-opacity="1"
   id="g9"
   transform="matrix(0.352778,0,0,0.352778,-0.851914,-0.703792)"
   style="stroke-width:0.796367">
    <g
   id="g19"
   transform="translate(8.9659996,9.1820002)"
   style="stroke-width:0.796367">
      <path
   d="m 2.421875,-2.5 c 0,-0.109375 0,-0.171875 -0.09375,-0.171875 -0.03125,0 -0.046875,0 -0.125,0.078125 C 2.1875,-2.578125 2.171875,-2.578125 2.09375,-2.5 1.859375,-2.65625 1.5625,-2.671875 1.4375,-2.671875 c -0.9375,0 -1.125,0.46875 -1.125,0.75 0,0.578125 0.703125,0.6875 1.171875,0.765625 0.265625,0.046875 0.78125,0.125 0.78125,0.515625 0,0.234375 -0.171875,0.515625 -0.78125,0.515625 -0.578125,0 -0.8125,-0.34375 -0.9375,-0.796875 C 0.53125,-0.96875 0.515625,-1 0.4375,-1 c -0.125,0 -0.125,0.046875 -0.125,0.171875 v 0.71875 c 0,0.109375 0,0.171875 0.09375,0.171875 0.046875,0 0.046875,-0.015625 0.15625,-0.109375 l 0.140625,-0.15625 C 1,0.0625 1.359375,0.0625 1.484375,0.0625 c 0.875,0 1.109375,-0.484375 1.109375,-0.828125 0,-0.25 -0.109375,-0.421875 -0.25,-0.53125 C 2.09375,-1.53125 1.859375,-1.5625 1.5,-1.625 1.046875,-1.703125 0.640625,-1.765625 0.640625,-2.078125 0.640625,-2.25 0.8125,-2.5 1.4375,-2.5 c 0.40625,0 0.734375,0.15625 0.765625,0.578125 0,0.078125 0.015625,0.125 0.109375,0.125 0.109375,0 0.109375,-0.046875 0.109375,-0.15625 z m 0,0"
   id="path19"
   style="stroke-width:0.796367" />
    </g>
    <g
   id="g20"
   transform="translate(11.883069,9.1820002)"
   style="stroke-width:0.796367">
      <path
   d="m 1.328125,-4.15625 -0.9375,0.0625 v 0.234375 c 0.40625,0 0.46875,0.046875 0.46875,0.34375 v 3.03125 c 0,0.25 -0.0625,0.25 -0.46875,0.25 V 0 C 0.5625,-0.015625 1.046875,-0.03125 1.09375,-0.03125 1.328125,-0.03125 1.5625,-0.015625 1.796875,0 v -0.234375 c -0.40625,0 -0.46875,0 -0.46875,-0.25 z m 0,0"
   id="path20"
   style="stroke-width:0.796367" />
    </g>
    <g
   id="g21"
   transform="translate(13.985988,9.1820002)"
   style="stroke-width:0.796367">
      <path
   d="m 3.359375,-1.28125 c 0,-0.734375 -0.671875,-1.390625 -1.53125,-1.390625 -0.875,0 -1.546875,0.65625 -1.546875,1.390625 0,0.734375 0.6875,1.34375 1.546875,1.34375 0.859375,0 1.53125,-0.609375 1.53125,-1.34375 z m -1.53125,1.125 c -0.96875,0 -0.96875,-0.890625 -0.96875,-1.171875 0,-0.1875 0,-0.59375 0.21875,-0.84375 0.203125,-0.21875 0.453125,-0.3125 0.75,-0.3125 0.28125,0 0.546875,0.09375 0.75,0.3125 0.21875,0.25 0.21875,0.65625 0.21875,0.84375 0,0.28125 0,1.171875 -0.96875,1.171875 z m 0,0"
   id="path21"
   style="stroke-width:0.796367" />
    </g>
    <g
   id="use9"
   transform="translate(17.638901,9.1820002)"
   style="stroke-width:0.796367">
      <path
   d="M 1.296875,-2.34375 H 2.28125 V -2.578125 H 1.296875 V -3.6875 h -0.21875 c 0,0.546875 -0.265625,1.125 -0.859375,1.15625 v 0.1875 H 0.8125 V -0.75 c 0,0.625 0.46875,0.8125 0.875,0.8125 0.40625,0 0.71875,-0.328125 0.71875,-0.8125 V -1.078125 H 2.171875 v 0.3125 c 0,0.421875 -0.21875,0.609375 -0.4375,0.609375 -0.4375,0 -0.4375,-0.484375 -0.4375,-0.59375 z m 0,0"
   id="path22"
   style="stroke-width:0.796367" />
    </g>
  </g>
</g><g
       inkscape:label=""
       transform="matrix(1.2557032,0,0,1.2557032,22.822919,52.71101)"
       id="g28"
       style="stroke-width:0.796367"><g
   fill="#000000"
   fill-opacity="1"
   id="g24"
   transform="matrix(0.352778,0,0,0.352778,-0.879475,-0.705644)"
   style="stroke-width:0.796367">
    <g
   id="g23"
   transform="translate(1.993,8.2189999)"
   style="stroke-width:0.796367">
      <path
   d="m 2.578125,-5.921875 c 0.03125,-0.125 0.03125,-0.140625 0.03125,-0.171875 0,-0.078125 -0.046875,-0.125 -0.140625,-0.125 -0.125,0 -0.90625,0.0625 -1.09375,0.078125 -0.078125,0.015625 -0.1875,0.03125 -0.1875,0.171875 0,0.125 0.109375,0.125 0.25,0.125 0.421875,0 0.421875,0.0625 0.421875,0.140625 0,0.03125 0,0.046875 -0.046875,0.21875 l -1.28125,5.15625 C 0.5,-0.203125 0.5,-0.1875 0.5,-0.15625 c 0,0.140625 0.109375,0.25 0.265625,0.25 0.15625,0 0.28125,-0.078125 0.34375,-0.203125 C 1.125,-0.15625 1.203125,-0.484375 1.25,-0.671875 L 1.46875,-1.46875 C 1.484375,-1.609375 1.578125,-1.953125 1.609375,-2.078125 L 1.71875,-2.46875 c 0.046875,-0.21875 0.546875,-1.265625 1.515625,-1.265625 0.484375,0 0.484375,0.46875 0.484375,0.625 0,0.546875 -0.421875,1.640625 -0.515625,1.921875 C 3.09375,-0.921875 3.0625,-0.828125 3.0625,-0.65625 c 0,0.484375 0.359375,0.75 0.765625,0.75 0.859375,0 1.21875,-1.28125 1.21875,-1.375 0,-0.046875 -0.03125,-0.109375 -0.125,-0.109375 -0.09375,0 -0.109375,0.046875 -0.140625,0.15625 C 4.5625,-0.46875 4.171875,-0.125 3.859375,-0.125 c -0.0625,0 -0.234375,0 -0.234375,-0.28125 0,-0.234375 0.09375,-0.46875 0.171875,-0.65625 0.171875,-0.46875 0.53125,-1.40625 0.53125,-1.921875 0,-0.796875 -0.59375,-0.984375 -1.0625,-0.984375 -0.546875,0 -1,0.25 -1.359375,0.6875 z m 0,0"
   id="path23"
   style="stroke-width:0.796367" />
    </g>
  </g>
  <g
   fill="#000000"
   fill-opacity="1"
   id="g7"
   transform="matrix(0.352778,0,0,0.352778,-0.879475,-0.705644)"
   style="stroke-width:0.796367">
    <g
   id="g25"
   transform="translate(7.302,9.2810001)"
   style="stroke-width:0.796367">
      <path
   d="m 1.296875,-4.15625 -0.953125,0.0625 v 0.234375 c 0.421875,0 0.46875,0.046875 0.46875,0.34375 V 0 H 1.046875 C 1.15625,-0.203125 1.234375,-0.328125 1.25,-0.359375 1.453125,-0.125 1.765625,0.0625 2.171875,0.0625 3,0.0625 3.71875,-0.53125 3.71875,-1.296875 c 0,-0.71875 -0.65625,-1.34375 -1.46875,-1.34375 -0.328125,0 -0.671875,0.09375 -0.953125,0.359375 z M 1.3125,-1.984375 c 0.1875,-0.296875 0.546875,-0.46875 0.890625,-0.46875 0.328125,0 0.5625,0.15625 0.703125,0.328125 0.1875,0.234375 0.234375,0.515625 0.234375,0.828125 0,1.140625 -0.859375,1.171875 -1,1.171875 -0.203125,0 -0.5,-0.0625 -0.734375,-0.375 C 1.3125,-0.625 1.3125,-0.640625 1.3125,-0.75 Z m 0,0"
   id="path24"
   style="stroke-width:0.796367" />
    </g>
    <g
   id="g26"
   transform="translate(11.34226,9.2810001)"
   style="stroke-width:0.796367">
      <path
   d="m 2.84375,-1.78125 c 0,-0.5625 -0.5625,-0.890625 -1.234375,-0.890625 -0.296875,0 -1,0.03125 -1,0.53125 0,0.171875 0.109375,0.296875 0.296875,0.296875 0.171875,0 0.28125,-0.125 0.28125,-0.28125 0,-0.109375 -0.046875,-0.21875 -0.15625,-0.265625 0.203125,-0.09375 0.5,-0.09375 0.5625,-0.09375 0.421875,0 0.75,0.265625 0.75,0.71875 v 0.15625 c -0.265625,0 -0.75,0.015625 -1.1875,0.171875 -0.390625,0.140625 -0.765625,0.40625 -0.765625,0.8125 0,0.53125 0.625,0.6875 1.09375,0.6875 0.5,0 0.796875,-0.25 0.9375,-0.484375 0.03125,0.3125 0.234375,0.453125 0.4375,0.453125 0.03125,0 0.671875,0 0.671875,-0.5625 V -0.875 H 3.3125 v 0.328125 c 0,0.0625 0,0.328125 -0.234375,0.328125 -0.234375,0 -0.234375,-0.265625 -0.234375,-0.328125 z m -0.5,0.9375 c 0,0.609375 -0.609375,0.71875 -0.8125,0.71875 -0.3125,0 -0.625,-0.203125 -0.625,-0.5 0,-0.34375 0.328125,-0.78125 1.4375,-0.8125 z m 0,0"
   id="path25"
   style="stroke-width:0.796367" />
    </g>
    <g
   id="g27"
   transform="translate(14.995171,9.2810001)"
   style="stroke-width:0.796367">
      <path
   d="m 1.296875,-1.34375 c 0,-0.546875 0.28125,-1.09375 0.8125,-1.109375 -0.046875,0.0625 -0.078125,0.125 -0.078125,0.203125 0,0.171875 0.125,0.28125 0.28125,0.28125 0.171875,0 0.28125,-0.109375 0.28125,-0.28125 0,-0.234375 -0.21875,-0.390625 -0.484375,-0.390625 -0.359375,0 -0.671875,0.21875 -0.859375,0.625 v -0.625 l -0.90625,0.0625 v 0.234375 c 0.421875,0 0.46875,0.046875 0.46875,0.34375 v 1.515625 c 0,0.25 -0.046875,0.25 -0.46875,0.25 V 0 C 0.5,-0.015625 0.9375,-0.03125 1.078125,-0.03125 1.375,-0.03125 1.796875,0 1.875,0 V -0.234375 H 1.75 c -0.453125,0 -0.453125,-0.0625 -0.453125,-0.265625 z m 0,0"
   id="path26"
   style="stroke-width:0.796367" />
    </g>
  </g>
</g><g
       inkscape:label=""
       transform="matrix(1.2557032,0,0,1.2557032,45.481013,66.299218)"
       id="g35"
       style="stroke-width:0.796367"><g
   fill="#000000"
   fill-opacity="1"
   id="g30"
   transform="matrix(0.352778,0,0,0.352778,-0.796793,-0.664722)"
   style="stroke-width:0.796367">
    <g
   id="g29"
   transform="translate(1.993,5.8530002)"
   style="stroke-width:0.796367">
      <path
   d="m 4.28125,-3.0625 c 0.046875,-0.1875 0.125,-0.5 0.125,-0.546875 0,-0.109375 -0.078125,-0.25 -0.28125,-0.25 -0.109375,0 -0.28125,0.0625 -0.34375,0.234375 -0.015625,0.0625 -0.453125,1.78125 -0.5,2.015625 C 3.21875,-1.390625 3.1875,-1.25 3.1875,-1.03125 3.21875,-0.8125 3.078125,-0.609375 2.953125,-0.4375 2.75,-0.1875 2.5625,-0.125 2.375,-0.125 c -0.328125,0 -0.75,-0.140625 -0.75,-0.8125 0,-0.46875 0.234375,-1.09375 0.515625,-1.828125 C 2.1875,-2.890625 2.25,-3.046875 2.25,-3.203125 2.25,-3.65625 1.921875,-3.96875 1.484375,-3.96875 c -0.859375,0 -1.21875,1.28125 -1.21875,1.390625 0,0.078125 0.0625,0.109375 0.125,0.109375 0.09375,0 0.109375,-0.0625 0.140625,-0.171875 0.1875,-0.65625 0.546875,-1.09375 0.921875,-1.09375 0.171875,0 0.21875,0.109375 0.21875,0.296875 0,0.140625 -0.046875,0.3125 -0.125,0.515625 -0.4375,1.15625 -0.53125,1.484375 -0.53125,1.859375 0,1.03125 0.875,1.15625 1.328125,1.15625 0.34375,0 0.671875,-0.140625 0.9375,-0.609375 0.265625,0.53125 0.828125,0.609375 1.171875,0.609375 0.625,0 1.015625,-0.46875 1.3125,-1.046875 0.25,-0.53125 0.59375,-1.8125 0.59375,-2.359375 0,-0.625 -0.328125,-0.65625 -0.40625,-0.65625 -0.234375,0 -0.46875,0.234375 -0.46875,0.4375 0,0.140625 0.078125,0.21875 0.140625,0.265625 0.25,0.21875 0.328125,0.515625 0.328125,0.75 0,0.265625 -0.21875,1.09375 -0.484375,1.609375 -0.203125,0.390625 -0.515625,0.78125 -1,0.78125 -0.671875,0 -0.671875,-0.625 -0.671875,-0.796875 0,-0.234375 0.046875,-0.421875 0.125,-0.734375 z m 0,0"
   id="path28"
   style="stroke-width:0.796367" />
    </g>
  </g>
  <g
   fill="#000000"
   fill-opacity="1"
   id="g34"
   transform="matrix(0.352778,0,0,0.352778,-0.796793,-0.664722)"
   style="stroke-width:0.796367">
    <g
   id="g31"
   transform="translate(8.5970001,6.915)"
   style="stroke-width:0.796367">
      <path
   d="m 1.296875,-4.15625 -0.953125,0.0625 v 0.234375 c 0.421875,0 0.46875,0.046875 0.46875,0.34375 V 0 H 1.046875 C 1.15625,-0.203125 1.234375,-0.328125 1.25,-0.359375 1.453125,-0.125 1.765625,0.0625 2.171875,0.0625 3,0.0625 3.71875,-0.53125 3.71875,-1.296875 c 0,-0.71875 -0.65625,-1.34375 -1.46875,-1.34375 -0.328125,0 -0.671875,0.09375 -0.953125,0.359375 z M 1.3125,-1.984375 c 0.1875,-0.296875 0.546875,-0.46875 0.890625,-0.46875 0.328125,0 0.5625,0.15625 0.703125,0.328125 0.1875,0.234375 0.234375,0.515625 0.234375,0.828125 0,1.140625 -0.859375,1.171875 -1,1.171875 -0.203125,0 -0.5,-0.0625 -0.734375,-0.375 C 1.3125,-0.625 1.3125,-0.640625 1.3125,-0.75 Z m 0,0"
   id="path30"
   style="stroke-width:0.796367" />
    </g>
    <g
   id="g32"
   transform="translate(12.63726,6.915)"
   style="stroke-width:0.796367">
      <path
   d="m 2.84375,-1.78125 c 0,-0.5625 -0.5625,-0.890625 -1.234375,-0.890625 -0.296875,0 -1,0.03125 -1,0.53125 0,0.171875 0.109375,0.296875 0.296875,0.296875 0.171875,0 0.28125,-0.125 0.28125,-0.28125 0,-0.109375 -0.046875,-0.21875 -0.15625,-0.265625 0.203125,-0.09375 0.5,-0.09375 0.5625,-0.09375 0.421875,0 0.75,0.265625 0.75,0.71875 v 0.15625 c -0.265625,0 -0.75,0.015625 -1.1875,0.171875 -0.390625,0.140625 -0.765625,0.40625 -0.765625,0.8125 0,0.53125 0.625,0.6875 1.09375,0.6875 0.5,0 0.796875,-0.25 0.9375,-0.484375 0.03125,0.3125 0.234375,0.453125 0.4375,0.453125 0.03125,0 0.671875,0 0.671875,-0.5625 V -0.875 H 3.3125 v 0.328125 c 0,0.0625 0,0.328125 -0.234375,0.328125 -0.234375,0 -0.234375,-0.265625 -0.234375,-0.328125 z m -0.5,0.9375 c 0,0.609375 -0.609375,0.71875 -0.8125,0.71875 -0.3125,0 -0.625,-0.203125 -0.625,-0.5 0,-0.34375 0.328125,-0.78125 1.4375,-0.8125 z m 0,0"
   id="path31"
   style="stroke-width:0.796367" />
    </g>
    <g
   id="g33"
   transform="translate(16.290171,6.915)"
   style="stroke-width:0.796367">
      <path
   d="m 1.296875,-1.34375 c 0,-0.546875 0.28125,-1.09375 0.8125,-1.109375 -0.046875,0.0625 -0.078125,0.125 -0.078125,0.203125 0,0.171875 0.125,0.28125 0.28125,0.28125 0.171875,0 0.28125,-0.109375 0.28125,-0.28125 0,-0.234375 -0.21875,-0.390625 -0.484375,-0.390625 -0.359375,0 -0.671875,0.21875 -0.859375,0.625 v -0.625 l -0.90625,0.0625 v 0.234375 c 0.421875,0 0.46875,0.046875 0.46875,0.34375 v 1.515625 c 0,0.25 -0.046875,0.25 -0.46875,0.25 V 0 C 0.5,-0.015625 0.9375,-0.03125 1.078125,-0.03125 1.375,-0.03125 1.796875,0 1.875,0 V -0.234375 H 1.75 c -0.453125,0 -0.453125,-0.0625 -0.453125,-0.265625 z m 0,0"
   id="path32"
   style="stroke-width:0.796367" />
    </g>
  </g>
</g><g
       inkscape:label=""
       transform="matrix(1.2557032,0,0,1.2557032,45.790124,76.057992)"
       id="g43"
       style="stroke-width:0.796367"><g
   fill="#000000"
   fill-opacity="1"
   id="g37"
   transform="matrix(0.352778,0,0,0.352778,-0.796793,-0.664722)"
   style="stroke-width:0.796367">
    <g
   id="g36"
   transform="translate(1.993,5.8530002)"
   style="stroke-width:0.796367">
      <path
   d="m 4.28125,-3.0625 c 0.046875,-0.1875 0.125,-0.5 0.125,-0.546875 0,-0.109375 -0.078125,-0.25 -0.28125,-0.25 -0.109375,0 -0.28125,0.0625 -0.34375,0.234375 -0.015625,0.0625 -0.453125,1.78125 -0.5,2.015625 C 3.21875,-1.390625 3.1875,-1.25 3.1875,-1.03125 3.21875,-0.8125 3.078125,-0.609375 2.953125,-0.4375 2.75,-0.1875 2.5625,-0.125 2.375,-0.125 c -0.328125,0 -0.75,-0.140625 -0.75,-0.8125 0,-0.46875 0.234375,-1.09375 0.515625,-1.828125 C 2.1875,-2.890625 2.25,-3.046875 2.25,-3.203125 2.25,-3.65625 1.921875,-3.96875 1.484375,-3.96875 c -0.859375,0 -1.21875,1.28125 -1.21875,1.390625 0,0.078125 0.0625,0.109375 0.125,0.109375 0.09375,0 0.109375,-0.0625 0.140625,-0.171875 0.1875,-0.65625 0.546875,-1.09375 0.921875,-1.09375 0.171875,0 0.21875,0.109375 0.21875,0.296875 0,0.140625 -0.046875,0.3125 -0.125,0.515625 -0.4375,1.15625 -0.53125,1.484375 -0.53125,1.859375 0,1.03125 0.875,1.15625 1.328125,1.15625 0.34375,0 0.671875,-0.140625 0.9375,-0.609375 0.265625,0.53125 0.828125,0.609375 1.171875,0.609375 0.625,0 1.015625,-0.46875 1.3125,-1.046875 0.25,-0.53125 0.59375,-1.8125 0.59375,-2.359375 0,-0.625 -0.328125,-0.65625 -0.40625,-0.65625 -0.234375,0 -0.46875,0.234375 -0.46875,0.4375 0,0.140625 0.078125,0.21875 0.140625,0.265625 0.25,0.21875 0.328125,0.515625 0.328125,0.75 0,0.265625 -0.21875,1.09375 -0.484375,1.609375 -0.203125,0.390625 -0.515625,0.78125 -1,0.78125 -0.671875,0 -0.671875,-0.625 -0.671875,-0.796875 0,-0.234375 0.046875,-0.421875 0.125,-0.734375 z m 0,0"
   id="path35"
   style="stroke-width:0.796367" />
    </g>
  </g>
  <g
   fill="#000000"
   fill-opacity="1"
   id="g42"
   transform="matrix(0.352778,0,0,0.352778,-0.796793,-0.664722)"
   style="stroke-width:0.796367">
    <g
   id="g38"
   transform="translate(8.5970001,6.915)"
   style="stroke-width:0.796367">
      <path
   d="m 2.421875,-2.5 c 0,-0.109375 0,-0.171875 -0.09375,-0.171875 -0.03125,0 -0.046875,0 -0.125,0.078125 C 2.1875,-2.578125 2.171875,-2.578125 2.09375,-2.5 1.859375,-2.65625 1.5625,-2.671875 1.4375,-2.671875 c -0.9375,0 -1.125,0.46875 -1.125,0.75 0,0.578125 0.703125,0.6875 1.171875,0.765625 0.265625,0.046875 0.78125,0.125 0.78125,0.515625 0,0.234375 -0.171875,0.515625 -0.78125,0.515625 -0.578125,0 -0.8125,-0.34375 -0.9375,-0.796875 C 0.53125,-0.96875 0.515625,-1 0.4375,-1 c -0.125,0 -0.125,0.046875 -0.125,0.171875 v 0.71875 c 0,0.109375 0,0.171875 0.09375,0.171875 0.046875,0 0.046875,-0.015625 0.15625,-0.109375 l 0.140625,-0.15625 C 1,0.0625 1.359375,0.0625 1.484375,0.0625 c 0.875,0 1.109375,-0.484375 1.109375,-0.828125 0,-0.25 -0.109375,-0.421875 -0.25,-0.53125 C 2.09375,-1.53125 1.859375,-1.5625 1.5,-1.625 1.046875,-1.703125 0.640625,-1.765625 0.640625,-2.078125 0.640625,-2.25 0.8125,-2.5 1.4375,-2.5 c 0.40625,0 0.734375,0.15625 0.765625,0.578125 0,0.078125 0.015625,0.125 0.109375,0.125 0.109375,0 0.109375,-0.046875 0.109375,-0.15625 z m 0,0"
   id="path37"
   style="stroke-width:0.796367" />
    </g>
    <g
   id="g39"
   transform="translate(11.514069,6.915)"
   style="stroke-width:0.796367">
      <path
   d="m 1.328125,-4.15625 -0.9375,0.0625 v 0.234375 c 0.40625,0 0.46875,0.046875 0.46875,0.34375 v 3.03125 c 0,0.25 -0.0625,0.25 -0.46875,0.25 V 0 C 0.5625,-0.015625 1.046875,-0.03125 1.09375,-0.03125 1.328125,-0.03125 1.5625,-0.015625 1.796875,0 v -0.234375 c -0.40625,0 -0.46875,0 -0.46875,-0.25 z m 0,0"
   id="path38"
   style="stroke-width:0.796367" />
    </g>
    <g
   id="g40"
   transform="translate(13.616988,6.915)"
   style="stroke-width:0.796367">
      <path
   d="m 3.359375,-1.28125 c 0,-0.734375 -0.671875,-1.390625 -1.53125,-1.390625 -0.875,0 -1.546875,0.65625 -1.546875,1.390625 0,0.734375 0.6875,1.34375 1.546875,1.34375 0.859375,0 1.53125,-0.609375 1.53125,-1.34375 z m -1.53125,1.125 c -0.96875,0 -0.96875,-0.890625 -0.96875,-1.171875 0,-0.1875 0,-0.59375 0.21875,-0.84375 0.203125,-0.21875 0.453125,-0.3125 0.75,-0.3125 0.28125,0 0.546875,0.09375 0.75,0.3125 0.21875,0.25 0.21875,0.65625 0.21875,0.84375 0,0.28125 0,1.171875 -0.96875,1.171875 z m 0,0"
   id="path39"
   style="stroke-width:0.796367" />
    </g>
    <g
   id="g41"
   transform="translate(17.269899,6.915)"
   style="stroke-width:0.796367">
      <path
   d="M 1.296875,-2.34375 H 2.28125 V -2.578125 H 1.296875 V -3.6875 h -0.21875 c 0,0.546875 -0.265625,1.125 -0.859375,1.15625 v 0.1875 H 0.8125 V -0.75 c 0,0.625 0.46875,0.8125 0.875,0.8125 0.40625,0 0.71875,-0.328125 0.71875,-0.8125 V -1.078125 H 2.171875 v 0.3125 c 0,0.421875 -0.21875,0.609375 -0.4375,0.609375 -0.4375,0 -0.4375,-0.484375 -0.4375,-0.59375 z m 0,0"
   id="path40"
   style="stroke-width:0.796367" />
    </g>
  </g>
</g></g></svg>
