<?xml version="1.0" encoding="UTF-8" standalone="no"?>
<!-- Created with Inkscape (http://www.inkscape.org/) -->

<svg
   width="54.63596mm"
   height="18.633558mm"
   viewBox="0 0 54.63596 18.633558"
   version="1.1"
   id="svg1"
   inkscape:version="1.3.2 (091e20e, 2023-11-25, custom)"
   sodipodi:docname="IM_squirrel_T_ECD_steady_state.svg"
   xmlns:inkscape="http://www.inkscape.org/namespaces/inkscape"
   xmlns:sodipodi="http://sodipodi.sourceforge.net/DTD/sodipodi-0.dtd"
   xmlns="http://www.w3.org/2000/svg"
   xmlns:svg="http://www.w3.org/2000/svg">
  <sodipodi:namedview
     id="namedview1"
     pagecolor="#505050"
     bordercolor="#eeeeee"
     borderopacity="1"
     inkscape:showpageshadow="0"
     inkscape:pageopacity="0"
     inkscape:pagecheckerboard="0"
     inkscape:deskcolor="#505050"
     inkscape:document-units="mm"
     showgrid="true"
     inkscape:zoom="5.8205365"
     inkscape:cx="119.4048"
     inkscape:cy="56.266291"
     inkscape:window-width="2560"
     inkscape:window-height="1351"
     inkscape:window-x="-9"
     inkscape:window-y="-9"
     inkscape:window-maximized="1"
     inkscape:current-layer="g209">
    <inkscape:grid
       id="grid1"
       units="mm"
       originx="-37.753578"
       originy="-60.122756"
       spacingx="0.99999998"
       spacingy="1"
       empcolor="#0099e5"
       empopacity="0.30196078"
       color="#0099e5"
       opacity="0.14901961"
       empspacing="5"
       dotted="false"
       gridanglex="30"
       gridanglez="30"
       visible="true" />
  </sodipodi:namedview>
  <defs
     id="defs1">
    <marker
       inkscape:isstock="true"
       style="overflow:visible"
       id="TriangleInS"
       refX="0"
       refY="0"
       orient="auto"
       inkscape:stockid="TriangleInS">
      <path
         transform="scale(-0.2)"
         style="fill:context-stroke;fill-rule:evenodd;stroke:context-stroke;stroke-width:1pt"
         d="M 5.77,0 -2.88,5 V -5 Z"
         id="path6096" />
    </marker>
    <marker
       inkscape:isstock="true"
       style="overflow:visible"
       id="TriangleOutS"
       refX="0"
       refY="0"
       orient="auto"
       inkscape:stockid="TriangleOutS">
      <path
         transform="scale(0.2)"
         style="fill:context-stroke;fill-rule:evenodd;stroke:context-stroke;stroke-width:1pt"
         d="M 5.77,0 -2.88,5 V -5 Z"
         id="path6105" />
    </marker>
    <marker
       inkscape:isstock="true"
       style="overflow:visible"
       id="marker1"
       refX="0"
       refY="0"
       orient="auto"
       inkscape:stockid="TriangleInS">
      <path
         transform="scale(-0.2)"
         style="fill:context-stroke;fill-rule:evenodd;stroke:context-stroke;stroke-width:1pt"
         d="M 5.77,0 -2.88,5 V -5 Z"
         id="path1" />
    </marker>
    <marker
       inkscape:isstock="true"
       style="overflow:visible"
       id="marker2"
       refX="0"
       refY="0"
       orient="auto"
       inkscape:stockid="TriangleOutS">
      <path
         transform="scale(0.2)"
         style="fill:context-stroke;fill-rule:evenodd;stroke:context-stroke;stroke-width:1pt"
         d="M 5.77,0 -2.88,5 V -5 Z"
         id="path2" />
    </marker>
    <marker
       inkscape:collect="always"
       inkscape:isstock="true"
       style="overflow:visible"
       id="TriangleInM-7"
       refX="0"
       refY="0"
       orient="auto"
       inkscape:stockid="TriangleInM">
      <path
         transform="scale(-0.4)"
         style="fill:context-stroke;fill-rule:evenodd;stroke:context-stroke;stroke-width:1pt"
         d="M 5.77,0 -2.88,5 V -5 Z"
         id="path5871-1" />
    </marker>
    <marker
       inkscape:collect="always"
       inkscape:isstock="true"
       style="overflow:visible"
       id="TriangleInM-7-4"
       refX="0"
       refY="0"
       orient="auto"
       inkscape:stockid="TriangleInM">
      <path
         transform="scale(-0.4)"
         style="fill:context-stroke;fill-rule:evenodd;stroke:context-stroke;stroke-width:1pt"
         d="M 5.77,0 -2.88,5 V -5 Z"
         id="path5871-1-0" />
    </marker>
    <marker
       inkscape:collect="always"
       inkscape:isstock="true"
       style="overflow:visible"
       id="TriangleInM-7-4-1"
       refX="0"
       refY="0"
       orient="auto"
       inkscape:stockid="TriangleInM">
      <path
         transform="scale(-0.4)"
         style="fill:context-stroke;fill-rule:evenodd;stroke:context-stroke;stroke-width:1pt"
         d="M 5.77,0 -2.88,5 V -5 Z"
         id="path5871-1-0-9" />
    </marker>
  </defs>
  <g
     inkscape:label="Ebene 1"
     inkscape:groupmode="layer"
     id="layer1"
     transform="translate(-37.75357,-60.122614)">
    <g
       id="use13911"
       transform="rotate(90,-40.8698,-6.2969)">
      <title
         id="title20">Resistor</title>
      <path
         style="fill:none;stroke:#000000;stroke-width:0.264583px;stroke-linecap:round;stroke-linejoin:miter;stroke-opacity:1"
         d="m 30.427082,-103.99168 v 2.65281"
         id="path20"
         inkscape:connector-curvature="0"
         sodipodi:nodetypes="cc" />
      <path
         style="fill:none;stroke:#000000;stroke-width:0.264583px;stroke-linecap:round;stroke-linejoin:miter;stroke-opacity:1"
         d="m 30.427082,-96.047194 -3e-6,6.49791"
         id="path21"
         inkscape:connector-curvature="0"
         sodipodi:nodetypes="cc" />
      <path
         style="fill:none;stroke:#000000;stroke-width:0.264583px;stroke-linecap:round;stroke-linejoin:miter;stroke-opacity:1"
         d="m 43.656253,-107.16668 v 17.617396"
         id="path21-8"
         inkscape:connector-curvature="0"
         sodipodi:nodetypes="cc" />
      <path
         style="fill:none;stroke:#000000;stroke-width:0.264583px;stroke-linecap:round;stroke-linejoin:round;stroke-opacity:1"
         d="m 31.749999,-98.693034 v 2.64584 h -2.645834 v -5.291676 h 2.645834 v 2.645836"
         id="path22"
         inkscape:connector-curvature="0" />
      <path
         style="fill:none;stroke:#000000;stroke-width:0.265;stroke-linecap:round;stroke-linejoin:miter;stroke-dasharray:none;stroke-opacity:1"
         d="M 34.337094,-132.45008 H 30.427081"
         id="path20-6"
         inkscape:connector-curvature="0"
         sodipodi:nodetypes="cc" />
      <path
         style="fill:none;stroke:#000000;stroke-width:0.265;stroke-linecap:round;stroke-linejoin:miter;stroke-dasharray:none;stroke-opacity:1"
         d="M 43.65188,-132.41188 H 39.618993"
         id="path20-6-8"
         inkscape:connector-curvature="0"
         sodipodi:nodetypes="cc" />
      <path
         style="fill:none;stroke:#000000;stroke-width:0.264583px;stroke-linecap:round;stroke-linejoin:miter;stroke-opacity:1"
         d="m 30.427081,-132.45008 1.7e-5,3.55607"
         id="path21-2"
         inkscape:connector-curvature="0"
         sodipodi:nodetypes="cc" />
      <path
         style="fill:none;stroke:#000000;stroke-width:0.264583px;stroke-linecap:round;stroke-linejoin:round;stroke-opacity:1"
         d="m 36.969,-131.08897 h -2.64584 v -2.64583 h 5.29167 v 2.64583 H 36.969"
         id="path22-7"
         inkscape:connector-curvature="0" />
      <title
         id="title22">Resistor</title>
      <title
         id="title23">Resistor</title>
      <ellipse
         ry="0.39901915"
         rx="0.40116644"
         cy="30.427078"
         cx="89.148117"
         id="path5953-31"
         style="fill:none;fill-opacity:1;stroke:#000000;stroke-width:0.256;stroke-linecap:round;stroke-linejoin:round;stroke-miterlimit:4;stroke-dasharray:none;stroke-dashoffset:0;stroke-opacity:1;paint-order:normal"
         transform="rotate(-90)" />
      <ellipse
         ry="0.39901915"
         rx="0.40116644"
         cy="43.656254"
         cx="89.148117"
         id="path5953-31-2"
         style="fill:none;fill-opacity:1;stroke:#000000;stroke-width:0.256;stroke-linecap:round;stroke-linejoin:round;stroke-miterlimit:4;stroke-dasharray:none;stroke-dashoffset:0;stroke-opacity:1;paint-order:normal"
         transform="rotate(-90)" />
      <path
         style="fill:none;stroke:#000000;stroke-width:0.264583px;stroke-linecap:round;stroke-linejoin:miter;stroke-opacity:1"
         d="m 43.656253,-107.16668 -7e-6,-25.2454"
         id="path21-8-5"
         inkscape:connector-curvature="0"
         sodipodi:nodetypes="cc" />
      <path
         inkscape:connector-curvature="0"
         id="path5718-7-5-72"
         d="m 41.765375,-89.166701 -10.33829,2.5e-5"
         style="fill:none;stroke:#000000;stroke-width:0.264999;stroke-linecap:round;stroke-linejoin:round;stroke-miterlimit:4;stroke-dasharray:none;stroke-opacity:1;marker-start:url(#TriangleInM-7)"
         sodipodi:nodetypes="cc" />
      <path
         inkscape:connector-curvature="0"
         id="path5718-7-5-72-8"
         d="m 30.42708,-91.421294 5e-6,0.682828"
         style="fill:none;stroke:#000000;stroke-width:0.264999;stroke-linecap:round;stroke-linejoin:round;stroke-miterlimit:4;stroke-dasharray:none;stroke-opacity:1;marker-start:url(#TriangleInM-7-4)"
         sodipodi:nodetypes="cc" />
      <path
         inkscape:connector-curvature="0"
         id="path5718-7-5-72-8-8"
         d="m 30.427087,-130.30049 5e-6,-0.68282"
         style="fill:none;stroke:#000000;stroke-width:0.264999;stroke-linecap:round;stroke-linejoin:round;stroke-miterlimit:4;stroke-dasharray:none;stroke-opacity:1;marker-start:url(#TriangleInM-7-4-1)"
         sodipodi:nodetypes="cc" />
      <g
         id="use41951"
         transform="rotate(180,53.578124,-25.204182)">
        <title
           id="title2">Inductor</title>
        <path
           sodipodi:arc-type="arc"
           style="opacity:1;fill:none;fill-opacity:1;stroke:#000000;stroke-width:0.265;stroke-linecap:round;stroke-linejoin:round;stroke-miterlimit:4;stroke-dasharray:none;stroke-dashoffset:0;stroke-opacity:1;paint-order:normal"
           id="path6"
           inkscape:transform-center-x="-0.85988921"
           inkscape:transform-center-y="-0.64492188"
           sodipodi:type="arc"
           sodipodi:cx="76.729156"
           sodipodi:cy="62.049992"
           sodipodi:rx="1.0583333"
           sodipodi:ry="1.0583333"
           sodipodi:start="4.712389"
           sodipodi:end="1.5707963"
           sodipodi:open="true"
           d="m 76.729156,60.991658 a 1.0583333,1.0583333 0 0 1 1.058334,1.058334 1.0583333,1.0583333 0 0 1 -1.058334,1.058333" />
        <path
           sodipodi:arc-type="arc"
           style="opacity:1;fill:none;fill-opacity:1;stroke:#000000;stroke-width:0.265;stroke-linecap:round;stroke-linejoin:round;stroke-miterlimit:4;stroke-dasharray:none;stroke-dashoffset:0;stroke-opacity:1;paint-order:normal"
           id="path19"
           inkscape:transform-center-x="-0.85988921"
           inkscape:transform-center-y="-0.64492188"
           sodipodi:type="arc"
           sodipodi:cx="76.729164"
           sodipodi:cy="59.933323"
           sodipodi:rx="1.0583333"
           sodipodi:ry="1.0583333"
           sodipodi:start="4.712389"
           sodipodi:end="1.5707963"
           sodipodi:open="true"
           d="m 76.729164,58.87499 a 1.0583333,1.0583333 0 0 1 1.058333,1.058333 1.0583333,1.0583333 0 0 1 -1.058333,1.058333" />
        <path
           sodipodi:arc-type="arc"
           style="opacity:1;fill:none;fill-opacity:1;stroke:#000000;stroke-width:0.265;stroke-linecap:round;stroke-linejoin:round;stroke-miterlimit:4;stroke-dasharray:none;stroke-dashoffset:0;stroke-opacity:1;paint-order:normal"
           id="path27"
           inkscape:transform-center-x="-0.85988921"
           inkscape:transform-center-y="-0.64492188"
           sodipodi:type="arc"
           sodipodi:cx="76.729164"
           sodipodi:cy="57.816658"
           sodipodi:rx="1.0583333"
           sodipodi:ry="1.0583333"
           sodipodi:start="4.712389"
           sodipodi:end="1.5707963"
           d="m 76.729164,56.758325 a 1.0583333,1.0583333 0 0 1 1.058333,1.058333 1.0583333,1.0583333 0 0 1 -1.058333,1.058333"
           sodipodi:open="true" />
        <path
           sodipodi:arc-type="arc"
           style="opacity:1;fill:none;fill-opacity:1;stroke:#000000;stroke-width:0.265;stroke-linecap:round;stroke-linejoin:round;stroke-miterlimit:4;stroke-dasharray:none;stroke-dashoffset:0;stroke-opacity:1;paint-order:normal"
           id="path28"
           inkscape:transform-center-x="-0.85988921"
           inkscape:transform-center-y="-0.64492188"
           sodipodi:type="arc"
           sodipodi:cx="76.729164"
           sodipodi:cy="55.699989"
           sodipodi:rx="1.0583333"
           sodipodi:ry="1.0583333"
           sodipodi:start="4.712389"
           sodipodi:end="1.5707963"
           sodipodi:open="true"
           d="m 76.729164,54.641656 a 1.0583333,1.0583333 0 0 1 1.058333,1.058333 1.0583333,1.0583333 0 0 1 -1.058333,1.058334" />
        <path
           style="fill:none;stroke:#000000;stroke-width:0.264583px;stroke-linecap:round;stroke-linejoin:miter;stroke-opacity:1"
           d="M 76.729166,64.166653 V 63.10832"
           id="path30"
           inkscape:connector-curvature="0" />
        <path
           style="fill:none;stroke:#000000;stroke-width:0.264583px;stroke-linecap:round;stroke-linejoin:miter;stroke-opacity:1"
           d="m 76.729166,53.58332 v 1.058333"
           id="path32"
           inkscape:connector-curvature="0" />
        <title
           id="title32">Inductor</title>
      </g>
      <g
         id="use41951-43"
         transform="rotate(-90,-30.737069,-8.8990794)">
        <title
           id="title2-9">Inductor</title>
        <path
           sodipodi:arc-type="arc"
           style="opacity:1;fill:none;fill-opacity:1;stroke:#000000;stroke-width:0.265;stroke-linecap:round;stroke-linejoin:round;stroke-miterlimit:4;stroke-dasharray:none;stroke-dashoffset:0;stroke-opacity:1;paint-order:normal"
           id="path6-8"
           inkscape:transform-center-x="-0.85988921"
           inkscape:transform-center-y="-0.64492188"
           sodipodi:type="arc"
           sodipodi:cx="76.729156"
           sodipodi:cy="62.049992"
           sodipodi:rx="1.0583333"
           sodipodi:ry="1.0583333"
           sodipodi:start="4.712389"
           sodipodi:end="1.5707963"
           sodipodi:open="true"
           d="m 76.729156,60.991658 a 1.0583333,1.0583333 0 0 1 1.058334,1.058334 1.0583333,1.0583333 0 0 1 -1.058334,1.058333" />
        <path
           sodipodi:arc-type="arc"
           style="opacity:1;fill:none;fill-opacity:1;stroke:#000000;stroke-width:0.265;stroke-linecap:round;stroke-linejoin:round;stroke-miterlimit:4;stroke-dasharray:none;stroke-dashoffset:0;stroke-opacity:1;paint-order:normal"
           id="path19-75"
           inkscape:transform-center-x="-0.85988921"
           inkscape:transform-center-y="-0.64492188"
           sodipodi:type="arc"
           sodipodi:cx="76.729164"
           sodipodi:cy="59.933323"
           sodipodi:rx="1.0583333"
           sodipodi:ry="1.0583333"
           sodipodi:start="4.712389"
           sodipodi:end="1.5707963"
           sodipodi:open="true"
           d="m 76.729164,58.87499 a 1.0583333,1.0583333 0 0 1 1.058333,1.058333 1.0583333,1.0583333 0 0 1 -1.058333,1.058333" />
        <path
           sodipodi:arc-type="arc"
           style="opacity:1;fill:none;fill-opacity:1;stroke:#000000;stroke-width:0.265;stroke-linecap:round;stroke-linejoin:round;stroke-miterlimit:4;stroke-dasharray:none;stroke-dashoffset:0;stroke-opacity:1;paint-order:normal"
           id="path27-7"
           inkscape:transform-center-x="-0.85988921"
           inkscape:transform-center-y="-0.64492188"
           sodipodi:type="arc"
           sodipodi:cx="76.729164"
           sodipodi:cy="57.816658"
           sodipodi:rx="1.0583333"
           sodipodi:ry="1.0583333"
           sodipodi:start="4.712389"
           sodipodi:end="1.5707963"
           d="m 76.729164,56.758325 a 1.0583333,1.0583333 0 0 1 1.058333,1.058333 1.0583333,1.0583333 0 0 1 -1.058333,1.058333"
           sodipodi:open="true" />
        <path
           sodipodi:arc-type="arc"
           style="opacity:1;fill:none;fill-opacity:1;stroke:#000000;stroke-width:0.265;stroke-linecap:round;stroke-linejoin:round;stroke-miterlimit:4;stroke-dasharray:none;stroke-dashoffset:0;stroke-opacity:1;paint-order:normal"
           id="path28-9"
           inkscape:transform-center-x="-0.85988921"
           inkscape:transform-center-y="-0.64492188"
           sodipodi:type="arc"
           sodipodi:cx="76.729164"
           sodipodi:cy="55.699989"
           sodipodi:rx="1.0583333"
           sodipodi:ry="1.0583333"
           sodipodi:start="4.712389"
           sodipodi:end="1.5707963"
           sodipodi:open="true"
           d="m 76.729164,54.641656 a 1.0583333,1.0583333 0 0 1 1.058333,1.058333 1.0583333,1.0583333 0 0 1 -1.058333,1.058334" />
        <path
           style="fill:none;stroke:#000000;stroke-width:0.264583px;stroke-linecap:round;stroke-linejoin:miter;stroke-opacity:1"
           d="m 76.737202,65.494241 -0.008,-2.385921"
           id="path30-2"
           inkscape:connector-curvature="0"
           sodipodi:nodetypes="cc" />
        <path
           style="fill:none;stroke:#000000;stroke-width:0.264583px;stroke-linecap:round;stroke-linejoin:miter;stroke-opacity:1"
           d="m 76.72113,52.26508 0.008,2.376573"
           id="path32-2"
           inkscape:connector-curvature="0"
           sodipodi:nodetypes="cc" />
        <title
           id="title32-2">Inductor</title>
      </g>
      <g
         id="use41951-4"
         transform="rotate(180,53.578132,-32.363679)">
        <title
           id="title2-8">Inductor</title>
        <path
           sodipodi:arc-type="arc"
           style="opacity:1;fill:none;fill-opacity:1;stroke:#000000;stroke-width:0.265;stroke-linecap:round;stroke-linejoin:round;stroke-miterlimit:4;stroke-dasharray:none;stroke-dashoffset:0;stroke-opacity:1;paint-order:normal"
           id="path6-1"
           inkscape:transform-center-x="-0.85988921"
           inkscape:transform-center-y="-0.64492188"
           sodipodi:type="arc"
           sodipodi:cx="76.729156"
           sodipodi:cy="62.049992"
           sodipodi:rx="1.0583333"
           sodipodi:ry="1.0583333"
           sodipodi:start="4.712389"
           sodipodi:end="1.5707963"
           sodipodi:open="true"
           d="m 76.729156,60.991658 a 1.0583333,1.0583333 0 0 1 1.058334,1.058334 1.0583333,1.0583333 0 0 1 -1.058334,1.058333" />
        <path
           sodipodi:arc-type="arc"
           style="opacity:1;fill:none;fill-opacity:1;stroke:#000000;stroke-width:0.265;stroke-linecap:round;stroke-linejoin:round;stroke-miterlimit:4;stroke-dasharray:none;stroke-dashoffset:0;stroke-opacity:1;paint-order:normal"
           id="path19-7"
           inkscape:transform-center-x="-0.85988921"
           inkscape:transform-center-y="-0.64492188"
           sodipodi:type="arc"
           sodipodi:cx="76.729164"
           sodipodi:cy="59.933323"
           sodipodi:rx="1.0583333"
           sodipodi:ry="1.0583333"
           sodipodi:start="4.712389"
           sodipodi:end="1.5707963"
           sodipodi:open="true"
           d="m 76.729164,58.87499 a 1.0583333,1.0583333 0 0 1 1.058333,1.058333 1.0583333,1.0583333 0 0 1 -1.058333,1.058333" />
        <path
           sodipodi:arc-type="arc"
           style="opacity:1;fill:none;fill-opacity:1;stroke:#000000;stroke-width:0.265;stroke-linecap:round;stroke-linejoin:round;stroke-miterlimit:4;stroke-dasharray:none;stroke-dashoffset:0;stroke-opacity:1;paint-order:normal"
           id="path27-9"
           inkscape:transform-center-x="-0.85988921"
           inkscape:transform-center-y="-0.64492188"
           sodipodi:type="arc"
           sodipodi:cx="76.729164"
           sodipodi:cy="57.816658"
           sodipodi:rx="1.0583333"
           sodipodi:ry="1.0583333"
           sodipodi:start="4.712389"
           sodipodi:end="1.5707963"
           d="m 76.729164,56.758325 a 1.0583333,1.0583333 0 0 1 1.058333,1.058333 1.0583333,1.0583333 0 0 1 -1.058333,1.058333"
           sodipodi:open="true" />
        <path
           sodipodi:arc-type="arc"
           style="opacity:1;fill:none;fill-opacity:1;stroke:#000000;stroke-width:0.265;stroke-linecap:round;stroke-linejoin:round;stroke-miterlimit:4;stroke-dasharray:none;stroke-dashoffset:0;stroke-opacity:1;paint-order:normal"
           id="path28-0"
           inkscape:transform-center-x="-0.85988921"
           inkscape:transform-center-y="-0.64492188"
           sodipodi:type="arc"
           sodipodi:cx="76.729164"
           sodipodi:cy="55.699989"
           sodipodi:rx="1.0583333"
           sodipodi:ry="1.0583333"
           sodipodi:start="4.712389"
           sodipodi:end="1.5707963"
           sodipodi:open="true"
           d="m 76.729164,54.641656 a 1.0583333,1.0583333 0 0 1 1.058333,1.058333 1.0583333,1.0583333 0 0 1 -1.058333,1.058334" />
        <path
           style="fill:none;stroke:#000000;stroke-width:0.264583px;stroke-linecap:round;stroke-linejoin:miter;stroke-opacity:1"
           d="M 76.729166,64.166653 V 63.10832"
           id="path30-9"
           inkscape:connector-curvature="0" />
        <path
           style="fill:none;stroke:#000000;stroke-width:0.264583px;stroke-linecap:round;stroke-linejoin:miter;stroke-opacity:1"
           d="m 76.729182,49.847659 -1.6e-5,4.793994"
           id="path32-5"
           inkscape:connector-curvature="0"
           sodipodi:nodetypes="cc" />
        <title
           id="title32-5">Inductor</title>
      </g>
      <ellipse
         ry="0.39901915"
         rx="0.40116644"
         cy="30.462955"
         cx="116.36531"
         id="path5953-3"
         style="fill:#000000;fill-opacity:1;stroke:#000000;stroke-width:0.256;stroke-linecap:round;stroke-linejoin:round;stroke-miterlimit:4;stroke-dasharray:none;stroke-dashoffset:0;stroke-opacity:1;paint-order:normal"
         transform="rotate(-90)" />
      <ellipse
         ry="0.39901915"
         rx="0.40116644"
         cy="43.65625"
         cx="116.36935"
         id="path5953-3-9"
         style="fill:#000000;fill-opacity:1;stroke:#000000;stroke-width:0.256;stroke-linecap:round;stroke-linejoin:round;stroke-miterlimit:4;stroke-dasharray:none;stroke-dashoffset:0;stroke-opacity:1;paint-order:normal"
         transform="rotate(-90)" />
      <g
         inkscape:label=""
         transform="rotate(-90,-53.6394,-89.0766)"
         id="g209">
        <g
           inkscape:label=""
           transform="translate(-8.1919306,0.23693246)"
           id="g1">
          <g
             fill="#000000"
             fill-opacity="1"
             id="g6"
             transform="matrix(0.352778,0,0,0.352778,-0.884987,-0.698059)">
            <g
               id="use5"
               transform="translate(1.993,7.2690001)">
              <path
                 d="M 2.609375,-3.640625 C 2.65625,-3.84375 2.65625,-3.84375 2.90625,-3.84375 H 3.5 c 0.59375,0 1.03125,0.140625 1.03125,0.625 0,0.203125 -0.09375,0.640625 -0.5,0.859375 -0.234375,0.140625 -0.5625,0.21875 -0.96875,0.21875 H 2.21875 Z m 1.21875,1.609375 c 0.578125,-0.140625 1.34375,-0.546875 1.34375,-1.125 0,-0.5 -0.625,-0.9375 -1.5625,-0.9375 H 1.6875 c -0.125,0 -0.203125,0 -0.203125,0.15625 0,0.09375 0.078125,0.09375 0.1875,0.09375 0.109375,0 0.265625,0 0.390625,0.03125 0,0.0625 0,0.109375 -0.03125,0.203125 L 1.25,-0.5 c -0.046875,0.21875 -0.0625,0.265625 -0.515625,0.265625 -0.125,0 -0.140625,0 -0.171875,0.015625 C 0.53125,-0.203125 0.515625,-0.125 0.515625,-0.078125 0.515625,-0.0625 0.53125,0 0.609375,0 c 0.1875,0 0.625,-0.03125 0.796875,-0.03125 0.375,0 -0.015625,0 0.421875,0.015625 C 1.953125,-0.015625 2.09375,0 2.21875,0 2.265625,0 2.296875,0 2.328125,-0.046875 2.34375,-0.0625 2.359375,-0.125 2.359375,-0.15625 2.34375,-0.234375 2.296875,-0.234375 2.15625,-0.234375 2.078125,-0.234375 2,-0.25 1.921875,-0.25 1.8125,-0.265625 1.78125,-0.265625 1.78125,-0.328125 c 0,-0.03125 0,-0.046875 0.015625,-0.109375 l 0.375,-1.5 h 0.875 c 0.515625,0 0.78125,0.234375 0.78125,0.515625 0,0.078125 -0.046875,0.28125 -0.09375,0.421875 -0.0625,0.265625 -0.078125,0.359375 -0.078125,0.46875 0,0.4375 0.40625,0.65625 0.921875,0.65625 0.5625,0 0.828125,-0.5625 0.828125,-0.703125 0,-0.03125 -0.03125,-0.09375 -0.109375,-0.09375 -0.078125,0 -0.109375,0.046875 -0.109375,0.09375 -0.140625,0.40625 -0.4375,0.5 -0.578125,0.5 -0.15625,0 -0.296875,-0.046875 -0.296875,-0.40625 0,-0.140625 0.046875,-0.46875 0.0625,-0.625 0,-0.0625 0.03125,-0.1875 0.03125,-0.234375 0,-0.390625 -0.3125,-0.59375 -0.578125,-0.6875 z m 0,0"
                 id="path10" />
            </g>
          </g>
          <g
             fill="#000000"
             fill-opacity="1"
             id="g7"
             transform="matrix(0.352778,0,0,0.352778,-0.884987,-0.698059)">
            <g
               id="use6"
               transform="translate(7.527,4.7600002)">
              <path
                 d="m 1.796875,-2.3125 c 0,-0.015625 0.046875,-0.109375 0.046875,-0.1875 0,-0.171875 -0.15625,-0.28125 -0.3125,-0.28125 -0.203125,0 -0.25,0.15625 -0.28125,0.21875 L 0.484375,-0.40625 C 0.46875,-0.34375 0.46875,-0.328125 0.46875,-0.3125 c 0,0.078125 0.203125,0.125 0.203125,0.125 0.046875,0 0.0625,-0.03125 0.09375,-0.09375 z m 0,0"
                 id="path11" />
            </g>
          </g>
          <g
             fill="#000000"
             fill-opacity="1"
             id="g8"
             transform="matrix(0.352778,0,0,0.352778,-0.884987,-0.698059)">
            <g
               id="use7"
               transform="translate(7.5050001,9.2609997)">
              <path
                 d="m 1.21875,-1.109375 c 0,-0.46875 0.265625,-0.921875 0.734375,-0.921875 0,0 -0.0625,0.0625 -0.0625,0.171875 0,0.171875 0.140625,0.25 0.25,0.25 0.125,0 0.25,-0.078125 0.25,-0.25 0,-0.1875 -0.1875,-0.34375 -0.453125,-0.34375 -0.25,0 -0.5625,0.125 -0.75,0.546875 H 1.171875 V -2.203125 L 0.375,-2.140625 v 0.21875 c 0.375,0 0.421875,0.03125 0.421875,0.265625 v 1.234375 c 0,0.15625 0,0.203125 -0.328125,0.203125 H 0.375 V 0 c 0.21875,-0.015625 0.4375,-0.015625 0.640625,-0.015625 0.265625,0 0.515625,0 0.71875,0.015625 V -0.21875 H 1.59375 c -0.375,0 -0.375,-0.046875 -0.375,-0.203125 z m 0,0"
                 id="path12" />
            </g>
          </g>
          <g
             fill="#000000"
             fill-opacity="1"
             id="g9"
             transform="matrix(0.352778,0,0,0.352778,-0.884987,-0.698059)">
            <g
               id="use8"
               transform="translate(9.677,9.3109999)">
              <path
                 d="m 4.03125,-6.375 c 0.0625,-0.125 0.0625,-0.140625 0.0625,-0.15625 0,-0.109375 -0.09375,-0.203125 -0.1875,-0.203125 -0.125,0 -0.171875,0.078125 -0.171875,0.09375 L 0.5625,1.890625 c -0.046875,0.125 -0.046875,0.140625 -0.046875,0.15625 0,0.109375 0.078125,0.203125 0.1875,0.203125 0.09375,0 0.15625,-0.046875 0.21875,-0.21875 z m 0,0"
                 id="path13" />
            </g>
          </g>
          <g
             fill="#000000"
             fill-opacity="1"
             id="g10"
             transform="matrix(0.352778,0,0,0.352778,-0.884987,-0.698059)">
            <g
               id="use9"
               transform="translate(13.773,9.3109999)">
              <path
                 d="M 2.734375,-2.25 C 2.5625,-2.203125 2.5,-2.0625 2.5,-1.96875 c 0,0.09375 0.0625,0.203125 0.203125,0.203125 0.125,0 0.296875,-0.09375 0.296875,-0.34375 0,-0.40625 -0.453125,-0.53125 -0.84375,-0.53125 -0.921875,0 -1.140625,0.609375 -1.140625,0.859375 0,0.484375 0.546875,0.578125 0.703125,0.609375 0.453125,0.078125 0.796875,0.140625 0.796875,0.4375 0,0.125 -0.09375,0.34375 -0.3125,0.453125 -0.234375,0.125 -0.484375,0.140625 -0.671875,0.140625 -0.203125,0 -0.578125,-0.015625 -0.75,-0.21875 0.21875,-0.03125 0.3125,-0.203125 0.3125,-0.34375 0,-0.125 -0.078125,-0.21875 -0.25,-0.21875 -0.15625,0 -0.34375,0.125 -0.34375,0.40625 0,0.328125 0.328125,0.578125 1.03125,0.578125 1.125,0 1.359375,-0.703125 1.359375,-0.96875 0,-0.203125 -0.078125,-0.34375 -0.21875,-0.453125 C 2.484375,-1.53125 2.25,-1.5625 1.96875,-1.609375 1.671875,-1.671875 1.390625,-1.71875 1.390625,-1.953125 c 0,0 0,-0.484375 0.75,-0.484375 0.15625,0 0.453125,0.015625 0.59375,0.1875 z m 0,0"
                 id="path14" />
            </g>
          </g>
        </g>
        <g
           inkscape:label=""
           transform="translate(-57.79573,-0.04396068)"
           id="g39">
          <g
             fill="#000000"
             fill-opacity="1"
             id="g3"
             transform="matrix(0.352778,0,0,0.352778,-0.702799,-0.703439)">
            <g
               id="use2"
               transform="translate(1.993,8.1190004)">
              <path
                 d="m 5.828125,-5.15625 c 0.078125,-0.375 0.25,-0.671875 0.953125,-0.6875 0.046875,0 0.15625,-0.015625 0.15625,-0.171875 0,-0.0625 -0.046875,-0.109375 -0.125,-0.109375 -0.1875,0 -0.703125,0.03125 -0.890625,0.03125 -0.234375,0 -0.25,0 -0.453125,-0.015625 C 5.3125,-6.109375 5.125,-6.125 5,-6.125 c -0.046875,0 -0.171875,0 -0.171875,0.15625 0,0.125 0.109375,0.125 0.171875,0.125 0.34375,0 0.59375,0.078125 0.59375,0.375 0,0.046875 -0.03125,0.171875 -0.03125,0.1875 l -0.796875,3.203125 c -0.3125,1.25 -1.40625,2 -2.296875,2 -0.453125,0 -1.109375,-0.25 -1.109375,-1.203125 0,-0.21875 0.03125,-0.453125 0.078125,-0.6875 l 0.875,-3.46875 c 0.078125,-0.34375 0.109375,-0.40625 0.8125,-0.40625 0.140625,0 0.234375,0 0.234375,-0.171875 0,-0.078125 -0.0625,-0.109375 -0.125,-0.109375 L 2.65625,-6.109375 C 2.390625,-6.09375 2.375,-6.09375 2.09375,-6.09375 c -0.296875,0 -0.3125,0 -0.578125,-0.015625 -0.171875,0 -0.40625,-0.015625 -0.578125,-0.015625 -0.0625,0 -0.1875,0 -0.1875,0.15625 0,0.125 0.09375,0.125 0.265625,0.125 0.046875,0 0.203125,0 0.34375,0.015625 0.171875,0.015625 0.21875,0.046875 0.21875,0.140625 0,0.046875 -0.078125,0.375 -0.140625,0.5625 L 1.25,-4.34375 C 1.171875,-3.984375 0.734375,-2.3125 0.703125,-2.125 0.625,-1.84375 0.625,-1.734375 0.625,-1.546875 c 0,1.046875 0.78125,1.75 1.828125,1.75 C 3.609375,0.203125 4.75,-0.828125 5.03125,-2 Z m 0,0"
                 id="path4" />
            </g>
          </g>
          <path
             fill="none"
             stroke-width="0.379"
             stroke-linecap="butt"
             stroke-linejoin="miter"
             stroke="#000000"
             stroke-opacity="1"
             stroke-miterlimit="10"
             d="M 0,7.4513121 H 7.2382815"
             id="path3"
             transform="scale(0.352778)" />
          <g
             fill="#000000"
             fill-opacity="1"
             id="g4"
             transform="matrix(0.352778,0,0,0.352778,-0.702799,-0.703439)">
            <g
               id="use3"
               transform="translate(9.2290001,10.51)">
              <path
                 d="m 2.421875,-2.5 c 0,-0.109375 0,-0.171875 -0.09375,-0.171875 -0.03125,0 -0.046875,0 -0.125,0.078125 C 2.1875,-2.578125 2.171875,-2.578125 2.09375,-2.5 1.859375,-2.65625 1.5625,-2.671875 1.4375,-2.671875 c -0.9375,0 -1.125,0.46875 -1.125,0.75 0,0.578125 0.703125,0.6875 1.171875,0.765625 0.265625,0.046875 0.78125,0.125 0.78125,0.515625 0,0.234375 -0.171875,0.515625 -0.78125,0.515625 -0.578125,0 -0.8125,-0.34375 -0.9375,-0.796875 C 0.53125,-0.96875 0.515625,-1 0.4375,-1 c -0.125,0 -0.125,0.046875 -0.125,0.171875 v 0.71875 c 0,0.109375 0,0.171875 0.09375,0.171875 0.046875,0 0.046875,-0.015625 0.15625,-0.109375 l 0.140625,-0.15625 C 1,0.0625 1.359375,0.0625 1.484375,0.0625 c 0.875,0 1.109375,-0.484375 1.109375,-0.828125 0,-0.25 -0.109375,-0.421875 -0.25,-0.53125 C 2.09375,-1.53125 1.859375,-1.5625 1.5,-1.625 1.046875,-1.703125 0.640625,-1.765625 0.640625,-2.078125 0.640625,-2.25 0.8125,-2.5 1.4375,-2.5 c 0.40625,0 0.734375,0.15625 0.765625,0.578125 0,0.078125 0.015625,0.125 0.109375,0.125 0.109375,0 0.109375,-0.046875 0.109375,-0.15625 z m 0,0"
                 id="path38" />
            </g>
          </g>
        </g>
        <g
           inkscape:label=""
           transform="translate(-52.624465,-9.115882)"
           id="g45">
          <g
             fill="#000000"
             fill-opacity="1"
             id="g42"
             transform="matrix(0.352778,0,0,0.352778,-0.702799,-0.703439)">
            <g
               id="g41"
               transform="translate(1.993,8.1190004)">
              <path
                 d="M 3.421875,-5.421875 C 3.5,-5.765625 3.53125,-5.84375 4.25,-5.84375 c 0.171875,0 0.265625,0 0.265625,-0.171875 0,-0.09375 -0.09375,-0.109375 -0.140625,-0.109375 -0.1875,0 -0.390625,0.015625 -0.578125,0.015625 -0.203125,0 -0.546875,0.015625 -0.609375,0.015625 -0.203125,0 -0.40625,-0.015625 -0.609375,-0.015625 -0.1875,0 -0.40625,-0.015625 -0.59375,-0.015625 -0.046875,0 -0.171875,0 -0.171875,0.15625 0,0.125 0.09375,0.125 0.265625,0.125 0.203125,0 0.40625,0 0.578125,0.0625 0.015625,0.046875 0.015625,0.078125 0.015625,0.09375 0,0.03125 -0.015625,0.125 -0.015625,0.15625 L 1.4375,-0.6875 c -0.078125,0.3125 -0.09375,0.40625 -0.796875,0.40625 -0.1875,0 -0.296875,0 -0.296875,0.171875 C 0.34375,-0.078125 0.375,0 0.484375,0 c 0.171875,0 0.375,-0.015625 0.5625,-0.015625 0.203125,0 0.421875,-0.015625 0.625,-0.015625 0.203125,0 0.40625,0.015625 0.609375,0.015625 C 2.46875,-0.015625 2.6875,0 2.875,0 c 0.0625,0 0.171875,0 0.171875,-0.15625 0,-0.125 -0.09375,-0.125 -0.265625,-0.125 -0.34375,0 -0.609375,0 -0.609375,-0.15625 0,-0.0625 0,-0.078125 0.046875,-0.203125 z m 0,0"
                 id="path41" />
            </g>
          </g>
          <path
             fill="none"
             stroke-width="0.379"
             stroke-linecap="butt"
             stroke-linejoin="miter"
             stroke="#000000"
             stroke-opacity="1"
             stroke-miterlimit="10"
             d="M 0,7.4513121 H 4.7304685"
             id="path42"
             transform="scale(0.352778)" />
          <g
             fill="#000000"
             fill-opacity="1"
             id="g44"
             transform="matrix(0.352778,0,0,0.352778,-0.702799,-0.703439)">
            <g
               id="g43"
               transform="translate(6.723,10.51)">
              <path
                 d="m 2.421875,-2.5 c 0,-0.109375 0,-0.171875 -0.09375,-0.171875 -0.03125,0 -0.046875,0 -0.125,0.078125 C 2.1875,-2.578125 2.171875,-2.578125 2.09375,-2.5 1.859375,-2.65625 1.5625,-2.671875 1.4375,-2.671875 c -0.9375,0 -1.125,0.46875 -1.125,0.75 0,0.578125 0.703125,0.6875 1.171875,0.765625 0.265625,0.046875 0.78125,0.125 0.78125,0.515625 0,0.234375 -0.171875,0.515625 -0.78125,0.515625 -0.578125,0 -0.8125,-0.34375 -0.9375,-0.796875 C 0.53125,-0.96875 0.515625,-1 0.4375,-1 c -0.125,0 -0.125,0.046875 -0.125,0.171875 v 0.71875 c 0,0.109375 0,0.171875 0.09375,0.171875 0.046875,0 0.046875,-0.015625 0.15625,-0.109375 l 0.140625,-0.15625 C 1,0.0625 1.359375,0.0625 1.484375,0.0625 c 0.875,0 1.109375,-0.484375 1.109375,-0.828125 0,-0.25 -0.109375,-0.421875 -0.25,-0.53125 C 2.09375,-1.53125 1.859375,-1.5625 1.5,-1.625 1.046875,-1.703125 0.640625,-1.765625 0.640625,-2.078125 0.640625,-2.25 0.8125,-2.5 1.4375,-2.5 c 0.40625,0 0.734375,0.15625 0.765625,0.578125 0,0.078125 0.015625,0.125 0.109375,0.125 0.109375,0 0.109375,-0.046875 0.109375,-0.15625 z m 0,0"
                 id="path43" />
            </g>
          </g>
        </g>
        <g
           inkscape:label=""
           transform="translate(-12.498947,-8.9570122)"
           id="g51">
          <g
             fill="#000000"
             fill-opacity="1"
             id="g48"
             transform="matrix(0.352778,0,0,0.352778,-0.702799,-0.694708)">
            <g
               id="g47"
               transform="translate(1.993,9.1219997)">
              <path
                 d="M 3.421875,-5.421875 C 3.5,-5.765625 3.53125,-5.84375 4.25,-5.84375 c 0.171875,0 0.265625,0 0.265625,-0.171875 0,-0.09375 -0.09375,-0.109375 -0.140625,-0.109375 -0.1875,0 -0.390625,0.015625 -0.578125,0.015625 -0.203125,0 -0.546875,0.015625 -0.609375,0.015625 -0.203125,0 -0.40625,-0.015625 -0.609375,-0.015625 -0.1875,0 -0.40625,-0.015625 -0.59375,-0.015625 -0.046875,0 -0.171875,0 -0.171875,0.15625 0,0.125 0.09375,0.125 0.265625,0.125 0.203125,0 0.40625,0 0.578125,0.0625 0.015625,0.046875 0.015625,0.078125 0.015625,0.09375 0,0.03125 -0.015625,0.125 -0.015625,0.15625 L 1.4375,-0.6875 c -0.078125,0.3125 -0.09375,0.40625 -0.796875,0.40625 -0.1875,0 -0.296875,0 -0.296875,0.171875 C 0.34375,-0.078125 0.375,0 0.484375,0 c 0.171875,0 0.375,-0.015625 0.5625,-0.015625 0.203125,0 0.421875,-0.015625 0.625,-0.015625 0.203125,0 0.40625,0.015625 0.609375,0.015625 C 2.46875,-0.015625 2.6875,0 2.875,0 c 0.0625,0 0.171875,0 0.171875,-0.15625 0,-0.125 -0.09375,-0.125 -0.265625,-0.125 -0.34375,0 -0.609375,0 -0.609375,-0.15625 0,-0.0625 0,-0.078125 0.046875,-0.203125 z m 0,0"
                 id="path47" />
            </g>
          </g>
          <path
             fill="none"
             stroke-width="0.379"
             stroke-linecap="butt"
             stroke-linejoin="miter"
             stroke="#000000"
             stroke-opacity="1"
             stroke-miterlimit="10"
             d="M 0,8.4760623 H 4.7304685"
             id="path48"
             transform="scale(0.352778)" />
          <g
             fill="#000000"
             fill-opacity="1"
             id="g5"
             transform="matrix(0.352778,0,0,0.352778,-0.702799,-0.694708)">
            <g
               id="use4"
               transform="translate(6.723,5.3130002)">
              <path
                 d="M 1.875,-2.8125 C 1.921875,-2.90625 1.9375,-2.96875 1.9375,-3 c 0,-0.1875 -0.171875,-0.34375 -0.375,-0.34375 -0.234375,0 -0.3125,0.203125 -0.328125,0.296875 l -0.84375,2.5625 c 0,0.03125 -0.03125,0.078125 -0.03125,0.09375 0,0.109375 0.25,0.15625 0.25,0.15625 0.0625,0 0.078125,-0.046875 0.109375,-0.09375 z m 0,0"
                 id="path7" />
            </g>
          </g>
          <g
             fill="#000000"
             fill-opacity="1"
             id="g50"
             transform="matrix(0.352778,0,0,0.352778,-0.702799,-0.694708)">
            <g
               id="g49"
               transform="translate(6.723,11.513)">
              <path
                 d="m 1.296875,-1.34375 c 0,-0.546875 0.28125,-1.09375 0.8125,-1.109375 -0.046875,0.0625 -0.078125,0.125 -0.078125,0.203125 0,0.171875 0.125,0.28125 0.28125,0.28125 0.171875,0 0.28125,-0.109375 0.28125,-0.28125 0,-0.234375 -0.21875,-0.390625 -0.484375,-0.390625 -0.359375,0 -0.671875,0.21875 -0.859375,0.625 v -0.625 l -0.90625,0.0625 v 0.234375 c 0.421875,0 0.46875,0.046875 0.46875,0.34375 v 1.515625 c 0,0.25 -0.046875,0.25 -0.46875,0.25 V 0 C 0.5,-0.015625 0.9375,-0.03125 1.078125,-0.03125 1.375,-0.03125 1.796875,0 1.875,0 V -0.234375 H 1.75 c -0.453125,0 -0.453125,-0.0625 -0.453125,-0.265625 z m 0,0"
                 id="path8" />
            </g>
          </g>
        </g>
      </g>
      <g
         inkscape:label=""
         transform="rotate(-90,-41.482677,-76.845647)"
         id="g84">
        <g
           fill="#000000"
           fill-opacity="1"
           id="g65"
           transform="matrix(0.352778,0,0,0.352778,-0.857426,-0.69506)">
          <g
             id="g64"
             transform="translate(1.993,9.1230001)">
            <path
               d="m 8.5,-5.4375 c 0.078125,-0.328125 0.09375,-0.40625 0.796875,-0.40625 0.140625,0 0.25,0 0.25,-0.171875 C 9.546875,-6.125 9.453125,-6.125 9.28125,-6.125 H 8.109375 c -0.21875,0 -0.265625,0 -0.375,0.171875 L 4.4375,-0.84375 3.6875,-5.890625 C 3.65625,-6.125 3.640625,-6.125 3.390625,-6.125 H 2.15625 c -0.15625,0 -0.265625,0 -0.265625,0.15625 0,0.125 0.09375,0.125 0.265625,0.125 0.046875,0 0.203125,0 0.34375,0.015625 0.171875,0.015625 0.21875,0.046875 0.21875,0.140625 0,0.03125 -0.015625,0.078125 -0.03125,0.171875 l -1.140625,4.5625 c -0.125,0.46875 -0.375,0.640625 -0.96875,0.671875 C 0.5625,-0.28125 0.4375,-0.265625 0.4375,-0.109375 0.4375,-0.09375 0.4375,0 0.5625,0 0.65625,0 0.890625,-0.015625 1,-0.015625 1.140625,-0.03125 1.171875,-0.03125 1.453125,-0.03125 c 0.21875,0 0.234375,0 0.453125,0.015625 C 2.046875,-0.015625 2.25,0 2.375,0 c 0.046875,0 0.15625,0 0.15625,-0.15625 0,-0.109375 -0.09375,-0.125 -0.171875,-0.125 -0.421875,0 -0.578125,-0.140625 -0.578125,-0.375 0,-0.0625 0,-0.078125 0.03125,-0.203125 l 1.203125,-4.875 H 3.03125 l 0.8125,5.5 C 3.859375,-0.09375 3.890625,0 4,0 4.109375,0 4.15625,-0.09375 4.21875,-0.171875 l 3.640625,-5.625 H 7.875 L 6.59375,-0.6875 C 6.515625,-0.359375 6.5,-0.28125 5.828125,-0.28125 c -0.171875,0 -0.28125,0 -0.28125,0.171875 C 5.546875,-0.03125 5.609375,0 5.6875,0 5.796875,0 6.140625,-0.015625 6.25,-0.015625 6.390625,-0.03125 6.609375,-0.03125 6.796875,-0.03125 c 0.015625,0 0.375,0.015625 0.5625,0.015625 0.1875,0 0.375,0.015625 0.546875,0.015625 0.0625,0 0.171875,0 0.171875,-0.15625 0,-0.125 -0.09375,-0.125 -0.28125,-0.125 -0.03125,0 -0.1875,0 -0.328125,-0.015625 C 7.265625,-0.328125 7.25,-0.359375 7.25,-0.4375 c 0,-0.078125 0.03125,-0.15625 0.046875,-0.21875 z m 0,0"
               id="path209" />
          </g>
        </g>
        <g
           fill="#000000"
           fill-opacity="1"
           id="g83"
           transform="matrix(0.352778,0,0,0.352778,-0.857426,-0.69506)" />
      </g>
      <g
         inkscape:label=""
         transform="rotate(-90,-47.705256,-73.254969)"
         id="g262">
        <g
           fill="#000000"
           fill-opacity="1"
           id="g256"
           transform="matrix(0.352778,0,0,0.352778,-0.84089,-0.69506)">
          <g
             id="g255"
             transform="translate(1.993,9.1230001)">
            <path
               d="M 3.421875,-5.421875 C 3.5,-5.765625 3.53125,-5.84375 4.359375,-5.84375 c 0.25,0 0.328125,0 0.328125,-0.171875 C 4.6875,-6.125 4.578125,-6.125 4.546875,-6.125 c -0.203125,0 -0.4375,0.015625 -0.65625,0.015625 -0.21875,0 -0.421875,0.015625 -0.640625,0.015625 -0.203125,0 -0.421875,0 -0.625,-0.015625 -0.15625,0 -0.4375,-0.015625 -0.59375,-0.015625 -0.046875,0 -0.171875,0 -0.171875,0.15625 0,0.125 0.078125,0.125 0.265625,0.125 0.03125,0 0.203125,0 0.34375,0.015625 0.15625,0.015625 0.21875,0.03125 0.21875,0.140625 0,0.03125 -0.015625,0.078125 -0.046875,0.171875 L 1.4375,-0.6875 c -0.078125,0.328125 -0.09375,0.40625 -0.78125,0.40625 -0.15625,0 -0.265625,0 -0.265625,0.171875 C 0.390625,0 0.484375,0 0.640625,0 H 4.875 c 0.21875,0 0.234375,-0.015625 0.296875,-0.203125 0.09375,-0.21875 0.734375,-1.921875 0.734375,-2 0,-0.0625 -0.0625,-0.109375 -0.125,-0.109375 -0.09375,0 -0.09375,0.03125 -0.171875,0.21875 -0.296875,0.796875 -0.6875,1.8125 -2.265625,1.8125 H 2.453125 c -0.125,0 -0.140625,0 -0.171875,0 -0.09375,-0.015625 -0.125,-0.03125 -0.125,-0.09375 0,-0.015625 0,-0.03125 0.046875,-0.203125 z m 0,0"
               id="path39" />
          </g>
        </g>
        <g
           fill="#000000"
           fill-opacity="1"
           id="g46"
           transform="matrix(0.352778,0,0,0.352778,-0.84089,-0.69506)">
          <g
             id="g40"
             transform="translate(8.2629995,5.3140001)">
            <path
               d="M 1.875,-2.8125 C 1.921875,-2.90625 1.9375,-2.96875 1.9375,-3 c 0,-0.1875 -0.171875,-0.34375 -0.375,-0.34375 -0.234375,0 -0.3125,0.203125 -0.328125,0.296875 l -0.84375,2.5625 c 0,0.03125 -0.03125,0.078125 -0.03125,0.09375 0,0.109375 0.25,0.15625 0.25,0.15625 0.0625,0 0.078125,-0.046875 0.109375,-0.09375 z m 0,0"
               id="path40" />
          </g>
        </g>
        <g
           fill="#000000"
           fill-opacity="1"
           id="g257"
           transform="matrix(0.352778,0,0,0.352778,-0.84089,-0.69506)">
          <g
             id="g20"
             transform="translate(8.2629995,10.7)">
            <path
               d="m 3.734375,-2.15625 c 0.0625,0 0.328125,0 0.328125,-0.25 0,-0.171875 -0.171875,-0.171875 -0.28125,-0.171875 H 2.171875 c -0.984375,0 -1.734375,0.90625 -1.734375,1.640625 0,0.609375 0.484375,1 1.078125,1 0.828125,0 1.6875,-0.703125 1.6875,-1.578125 C 3.203125,-1.796875 3.125,-2 3.015625,-2.15625 Z M 1.53125,-0.140625 c -0.203125,0 -0.640625,-0.078125 -0.640625,-0.65625 0,-0.375 0.203125,-1.359375 1.1875,-1.359375 0.34375,0 0.65625,0.125 0.65625,0.578125 0,0.171875 -0.078125,0.703125 -0.390625,1.046875 -0.234375,0.25 -0.546875,0.390625 -0.8125,0.390625 z m 0,0"
               id="path236" />
          </g>
        </g>
        <g
           fill="#000000"
           fill-opacity="1"
           id="g259"
           transform="matrix(0.352778,0,0,0.352778,-0.84089,-0.69506)">
          <g
             id="g258"
             transform="translate(12.3726,10.7)">
            <path
               d="m 1.375,-0.078125 c 0,0.5625 -0.296875,0.890625 -0.453125,1.03125 C 0.875,1 0.84375,1.015625 0.84375,1.046875 c 0,0.0625 0.0625,0.109375 0.109375,0.109375 0.078125,0 0.625,-0.46875 0.625,-1.203125 0,-0.390625 -0.15625,-0.671875 -0.453125,-0.671875 -0.234375,0 -0.359375,0.1875 -0.359375,0.359375 C 0.765625,-0.1875 0.890625,0 1.140625,0 1.234375,0 1.3125,-0.03125 1.375,-0.078125 Z m 0,0"
               id="path257" />
          </g>
        </g>
        <g
           fill="#000000"
           fill-opacity="1"
           id="g261"
           transform="matrix(0.352778,0,0,0.352778,-0.84089,-0.69506)">
          <g
             id="g260"
             transform="translate(14.643,10.7)">
            <path
               d="m 1.296875,-1.34375 c 0,-0.546875 0.28125,-1.09375 0.8125,-1.109375 -0.046875,0.0625 -0.078125,0.125 -0.078125,0.203125 0,0.171875 0.125,0.28125 0.28125,0.28125 0.171875,0 0.28125,-0.109375 0.28125,-0.28125 0,-0.234375 -0.21875,-0.390625 -0.484375,-0.390625 -0.359375,0 -0.671875,0.21875 -0.859375,0.625 v -0.625 l -0.90625,0.0625 v 0.234375 c 0.421875,0 0.46875,0.046875 0.46875,0.34375 v 1.515625 c 0,0.25 -0.046875,0.25 -0.46875,0.25 V 0 C 0.5,-0.015625 0.9375,-0.03125 1.078125,-0.03125 1.375,-0.03125 1.796875,0 1.875,0 V -0.234375 H 1.75 c -0.453125,0 -0.453125,-0.0625 -0.453125,-0.265625 z m 0,0"
               id="path259" />
          </g>
        </g>
      </g>
      <g
         inkscape:label=""
         transform="rotate(-90,-40.265933,-66.368217)"
         id="g271">
        <g
           fill="#000000"
           fill-opacity="1"
           id="g264"
           transform="matrix(0.352778,0,0,0.352778,-0.84089,-0.703792)">
          <g
             id="g263"
             transform="translate(1.993,8.1199999)">
            <path
               d="M 3.421875,-5.421875 C 3.5,-5.765625 3.53125,-5.84375 4.359375,-5.84375 c 0.25,0 0.328125,0 0.328125,-0.171875 C 4.6875,-6.125 4.578125,-6.125 4.546875,-6.125 c -0.203125,0 -0.4375,0.015625 -0.65625,0.015625 -0.21875,0 -0.421875,0.015625 -0.640625,0.015625 -0.203125,0 -0.421875,0 -0.625,-0.015625 -0.15625,0 -0.4375,-0.015625 -0.59375,-0.015625 -0.046875,0 -0.171875,0 -0.171875,0.15625 0,0.125 0.078125,0.125 0.265625,0.125 0.03125,0 0.203125,0 0.34375,0.015625 0.15625,0.015625 0.21875,0.03125 0.21875,0.140625 0,0.03125 -0.015625,0.078125 -0.046875,0.171875 L 1.4375,-0.6875 c -0.078125,0.328125 -0.09375,0.40625 -0.78125,0.40625 -0.15625,0 -0.265625,0 -0.265625,0.171875 C 0.390625,0 0.484375,0 0.640625,0 H 4.875 c 0.21875,0 0.234375,-0.015625 0.296875,-0.203125 0.09375,-0.21875 0.734375,-1.921875 0.734375,-2 0,-0.0625 -0.0625,-0.109375 -0.125,-0.109375 -0.09375,0 -0.09375,0.03125 -0.171875,0.21875 -0.296875,0.796875 -0.6875,1.8125 -2.265625,1.8125 H 2.453125 c -0.125,0 -0.140625,0 -0.171875,0 -0.09375,-0.015625 -0.125,-0.03125 -0.125,-0.09375 0,-0.015625 0,-0.03125 0.046875,-0.203125 z m 0,0"
               id="path242" />
          </g>
        </g>
        <g
           fill="#000000"
           fill-opacity="1"
           id="g266"
           transform="matrix(0.352778,0,0,0.352778,-0.84089,-0.703792)">
          <g
             id="g265"
             transform="translate(8.2629995,9.1160002)">
            <path
               d="m 3.734375,-2.15625 c 0.0625,0 0.328125,0 0.328125,-0.25 0,-0.171875 -0.171875,-0.171875 -0.28125,-0.171875 H 2.171875 c -0.984375,0 -1.734375,0.90625 -1.734375,1.640625 0,0.609375 0.484375,1 1.078125,1 0.828125,0 1.6875,-0.703125 1.6875,-1.578125 C 3.203125,-1.796875 3.125,-2 3.015625,-2.15625 Z M 1.53125,-0.140625 c -0.203125,0 -0.640625,-0.078125 -0.640625,-0.65625 0,-0.375 0.203125,-1.359375 1.1875,-1.359375 0.34375,0 0.65625,0.125 0.65625,0.578125 0,0.171875 -0.078125,0.703125 -0.390625,1.046875 -0.234375,0.25 -0.546875,0.390625 -0.8125,0.390625 z m 0,0"
               id="path23" />
          </g>
        </g>
        <g
           fill="#000000"
           fill-opacity="1"
           id="g268"
           transform="matrix(0.352778,0,0,0.352778,-0.84089,-0.703792)">
          <g
             id="g267"
             transform="translate(12.3726,9.1160002)">
            <path
               d="m 1.375,-0.078125 c 0,0.5625 -0.296875,0.890625 -0.453125,1.03125 C 0.875,1 0.84375,1.015625 0.84375,1.046875 c 0,0.0625 0.0625,0.109375 0.109375,0.109375 0.078125,0 0.625,-0.46875 0.625,-1.203125 0,-0.390625 -0.15625,-0.671875 -0.453125,-0.671875 -0.234375,0 -0.359375,0.1875 -0.359375,0.359375 C 0.765625,-0.1875 0.890625,0 1.140625,0 1.234375,0 1.3125,-0.03125 1.375,-0.078125 Z m 0,0"
               id="path246" />
          </g>
        </g>
        <g
           fill="#000000"
           fill-opacity="1"
           id="g270"
           transform="matrix(0.352778,0,0,0.352778,-0.84089,-0.703792)">
          <g
             id="g269"
             transform="translate(14.643,9.1160002)">
            <path
               d="m 2.421875,-2.5 c 0,-0.109375 0,-0.171875 -0.09375,-0.171875 -0.03125,0 -0.046875,0 -0.125,0.078125 C 2.1875,-2.578125 2.171875,-2.578125 2.09375,-2.5 1.859375,-2.65625 1.5625,-2.671875 1.4375,-2.671875 c -0.9375,0 -1.125,0.46875 -1.125,0.75 0,0.578125 0.703125,0.6875 1.171875,0.765625 0.265625,0.046875 0.78125,0.125 0.78125,0.515625 0,0.234375 -0.171875,0.515625 -0.78125,0.515625 -0.578125,0 -0.8125,-0.34375 -0.9375,-0.796875 C 0.53125,-0.96875 0.515625,-1 0.4375,-1 c -0.125,0 -0.125,0.046875 -0.125,0.171875 v 0.71875 c 0,0.109375 0,0.171875 0.09375,0.171875 0.046875,0 0.046875,-0.015625 0.15625,-0.109375 l 0.140625,-0.15625 C 1,0.0625 1.359375,0.0625 1.484375,0.0625 c 0.875,0 1.109375,-0.484375 1.109375,-0.828125 0,-0.25 -0.109375,-0.421875 -0.25,-0.53125 C 2.09375,-1.53125 1.859375,-1.5625 1.5,-1.625 1.046875,-1.703125 0.640625,-1.765625 0.640625,-2.078125 0.640625,-2.25 0.8125,-2.5 1.4375,-2.5 c 0.40625,0 0.734375,0.15625 0.765625,0.578125 0,0.078125 0.015625,0.125 0.109375,0.125 0.109375,0 0.109375,-0.046875 0.109375,-0.15625 z m 0,0"
               id="path248" />
          </g>
        </g>
      </g>
      <g
         inkscape:label=""
         transform="rotate(-90,-35.605551,-61.594665)"
         id="g290">
        <g
           fill="#000000"
           fill-opacity="1"
           id="g272"
           transform="matrix(0.352778,0,0,0.352778,-0.846402,-0.703439)">
          <g
             id="g52"
             transform="translate(1.993,8.1190004)">
            <path
               d="M 3.421875,-5.5 C 3.46875,-5.71875 3.5,-5.8125 3.65625,-5.84375 c 0.078125,0 0.375,0 0.5625,0 0.71875,0 1.703125,0 1.703125,0.90625 0,0.328125 -0.140625,1 -0.640625,1.390625 -0.21875,0.140625 -0.671875,0.375 -1.390625,0.375 h -1.0625 z M 4.8125,-3.046875 c 1.21875,-0.3125 1.96875,-0.984375 1.96875,-1.71875 0,-0.78125 -0.859375,-1.359375 -2.046875,-1.359375 h -2.59375 c -0.171875,0 -0.28125,0 -0.28125,0.15625 0,0.125 0.09375,0.125 0.28125,0.125 0.03125,0 0.1875,0 0.328125,0.015625 0.15625,0.015625 0.21875,0.03125 0.21875,0.140625 0,0.03125 0,0.078125 -0.03125,0.171875 L 1.4375,-0.6875 c -0.078125,0.328125 -0.09375,0.40625 -0.765625,0.40625 -0.171875,0 -0.265625,0 -0.265625,0.171875 C 0.40625,-0.015625 0.46875,0 0.53125,0 0.6875,0 0.953125,-0.015625 1.109375,-0.015625 1.296875,-0.03125 1.3125,-0.03125 1.65625,-0.03125 c 0.296875,0 0.3125,0 0.578125,0.015625 C 2.40625,-0.015625 2.640625,0 2.8125,0 2.875,0 2.984375,0 2.984375,-0.15625 c 0,-0.125 -0.09375,-0.125 -0.28125,-0.125 -0.03125,0 -0.1875,0 -0.328125,-0.015625 -0.203125,-0.03125 -0.21875,-0.0625 -0.21875,-0.140625 0,-0.03125 0,-0.046875 0.046875,-0.203125 l 0.578125,-2.3125 h 1.109375 c 0.796875,0 1,0.46875 1,0.8125 0,0.0625 0,0.125 -0.046875,0.3125 C 4.625,-1 4.625,-0.921875 4.625,-0.78125 c 0,0.8125 0.765625,0.984375 1.21875,0.984375 0.78125,0 1.109375,-0.90625 1.109375,-1.0625 0,-0.0625 -0.0625,-0.09375 -0.125,-0.09375 -0.09375,0 -0.09375,0.03125 -0.140625,0.140625 -0.15625,0.46875 -0.484375,0.78125 -0.8125,0.78125 -0.34375,0 -0.359375,-0.265625 -0.359375,-0.53125 0,-0.21875 0.0625,-0.734375 0.078125,-0.796875 C 5.609375,-1.5 5.65625,-1.859375 5.65625,-2 c 0,-0.515625 -0.328125,-0.859375 -0.84375,-1.046875 z m 0,0"
               id="path215" />
          </g>
        </g>
        <g
           fill="#000000"
           fill-opacity="1"
           id="g274"
           transform="matrix(0.352778,0,0,0.352778,-0.846402,-0.703439)">
          <g
             id="g273"
             transform="translate(8.9650002,9.1149998)">
            <path
               d="m 2.421875,-2.5 c 0,-0.109375 0,-0.171875 -0.09375,-0.171875 -0.03125,0 -0.046875,0 -0.125,0.078125 C 2.1875,-2.578125 2.171875,-2.578125 2.09375,-2.5 1.859375,-2.65625 1.5625,-2.671875 1.4375,-2.671875 c -0.9375,0 -1.125,0.46875 -1.125,0.75 0,0.578125 0.703125,0.6875 1.171875,0.765625 0.265625,0.046875 0.78125,0.125 0.78125,0.515625 0,0.234375 -0.171875,0.515625 -0.78125,0.515625 -0.578125,0 -0.8125,-0.34375 -0.9375,-0.796875 C 0.53125,-0.96875 0.515625,-1 0.4375,-1 c -0.125,0 -0.125,0.046875 -0.125,0.171875 v 0.71875 c 0,0.109375 0,0.171875 0.09375,0.171875 0.046875,0 0.046875,-0.015625 0.15625,-0.109375 l 0.140625,-0.15625 C 1,0.0625 1.359375,0.0625 1.484375,0.0625 c 0.875,0 1.109375,-0.484375 1.109375,-0.828125 0,-0.25 -0.109375,-0.421875 -0.25,-0.53125 C 2.09375,-1.53125 1.859375,-1.5625 1.5,-1.625 1.046875,-1.703125 0.640625,-1.765625 0.640625,-2.078125 0.640625,-2.25 0.8125,-2.5 1.4375,-2.5 c 0.40625,0 0.734375,0.15625 0.765625,0.578125 0,0.078125 0.015625,0.125 0.109375,0.125 0.109375,0 0.109375,-0.046875 0.109375,-0.15625 z m 0,0"
               id="path52" />
          </g>
        </g>
      </g>
    </g>
  </g>
</svg>
