<?xml version="1.0" encoding="UTF-8" standalone="no"?>
<!-- Created with Inkscape (http://www.inkscape.org/) -->

<svg
   width="70mm"
   height="70mm"
   viewBox="0 0 70 70"
   version="1.1"
   id="svg1"
   inkscape:version="1.3.2 (091e20e, 2023-11-25, custom)"
   sodipodi:docname="K_coordinates.svg"
   xmlns:inkscape="http://www.inkscape.org/namespaces/inkscape"
   xmlns:sodipodi="http://sodipodi.sourceforge.net/DTD/sodipodi-0.dtd"
   xmlns="http://www.w3.org/2000/svg"
   xmlns:svg="http://www.w3.org/2000/svg">
  <sodipodi:namedview
     id="namedview1"
     pagecolor="#505050"
     bordercolor="#eeeeee"
     borderopacity="1"
     inkscape:showpageshadow="0"
     inkscape:pageopacity="0"
     inkscape:pagecheckerboard="0"
     inkscape:deskcolor="#505050"
     inkscape:document-units="mm"
     showgrid="true"
     inkscape:zoom="5.6088804"
     inkscape:cx="96.810765"
     inkscape:cy="87.807185"
     inkscape:window-width="2560"
     inkscape:window-height="1351"
     inkscape:window-x="-9"
     inkscape:window-y="-9"
     inkscape:window-maximized="1"
     inkscape:current-layer="layer1"
     inkscape:lockguides="true">
    <inkscape:grid
       id="grid1"
       units="px"
       originx="0"
       originy="0"
       spacingx="0.26458333"
       spacingy="0.26458334"
       empcolor="#0099e5"
       empopacity="0.30196078"
       color="#0099e5"
       opacity="0.14901961"
       empspacing="5"
       dotted="false"
       gridanglex="30"
       gridanglez="30"
       visible="true" />
  </sodipodi:namedview>
  <defs
     id="defs1">
    <inkscape:path-effect
       effect="bspline"
       id="path-effect14"
       is_visible="true"
       lpeversion="1.3"
       weight="33.333333"
       steps="2"
       helper_size="0"
       apply_no_weight="true"
       apply_with_weight="true"
       only_selected="false"
       uniform="false" />
    <marker
       style="overflow:visible"
       id="Triangle"
       refX="0"
       refY="0"
       orient="auto-start-reverse"
       inkscape:stockid="Triangle arrow"
       markerWidth="1"
       markerHeight="1"
       viewBox="0 0 1 1"
       inkscape:isstock="true"
       inkscape:collect="always"
       preserveAspectRatio="xMidYMid">
      <path
         transform="scale(0.5)"
         style="fill:context-stroke;fill-rule:evenodd;stroke:context-stroke;stroke-width:1pt"
         d="M 5.77,0 -2.88,5 V -5 Z"
         id="path135" />
    </marker>
    <marker
       style="overflow:visible"
       id="Triangle-6"
       refX="0"
       refY="0"
       orient="auto-start-reverse"
       inkscape:stockid="Triangle arrow"
       markerWidth="1"
       markerHeight="1"
       viewBox="0 0 1 1"
       inkscape:isstock="true"
       inkscape:collect="always"
       preserveAspectRatio="xMidYMid">
      <path
         transform="scale(0.5)"
         style="fill:context-stroke;fill-rule:evenodd;stroke:context-stroke;stroke-width:1pt"
         d="M 5.77,0 -2.88,5 V -5 Z"
         id="path135-3" />
    </marker>
    <marker
       style="overflow:visible"
       id="Triangle-69-8"
       refX="0"
       refY="0"
       orient="auto-start-reverse"
       inkscape:stockid="Triangle arrow"
       markerWidth="1"
       markerHeight="1"
       viewBox="0 0 1 1"
       inkscape:isstock="true"
       inkscape:collect="always"
       preserveAspectRatio="xMidYMid">
      <path
         transform="scale(0.5)"
         style="fill:context-stroke;fill-rule:evenodd;stroke:context-stroke;stroke-width:1pt"
         d="M 5.77,0 -2.88,5 V -5 Z"
         id="path135-7-6" />
    </marker>
    <marker
       style="overflow:visible"
       id="Triangle-69-8-6"
       refX="0"
       refY="0"
       orient="auto-start-reverse"
       inkscape:stockid="Triangle arrow"
       markerWidth="1"
       markerHeight="1"
       viewBox="0 0 1 1"
       inkscape:isstock="true"
       inkscape:collect="always"
       preserveAspectRatio="xMidYMid">
      <path
         transform="scale(0.5)"
         style="fill:context-stroke;fill-rule:evenodd;stroke:context-stroke;stroke-width:1pt"
         d="M 5.77,0 -2.88,5 V -5 Z"
         id="path135-7-6-1" />
    </marker>
    <marker
       style="overflow:visible"
       id="Triangle-69-8-1"
       refX="0"
       refY="0"
       orient="auto-start-reverse"
       inkscape:stockid="Triangle arrow"
       markerWidth="1"
       markerHeight="1"
       viewBox="0 0 1 1"
       inkscape:isstock="true"
       inkscape:collect="always"
       preserveAspectRatio="xMidYMid">
      <path
         transform="scale(0.5)"
         style="fill:context-stroke;fill-rule:evenodd;stroke:context-stroke;stroke-width:1pt"
         d="M 5.77,0 -2.88,5 V -5 Z"
         id="path135-7-6-9" />
    </marker>
    <marker
       style="overflow:visible"
       id="Triangle-69-8-6-4"
       refX="0"
       refY="0"
       orient="auto-start-reverse"
       inkscape:stockid="Triangle arrow"
       markerWidth="1"
       markerHeight="1"
       viewBox="0 0 1 1"
       inkscape:isstock="true"
       inkscape:collect="always"
       preserveAspectRatio="xMidYMid">
      <path
         transform="scale(0.5)"
         style="fill:context-stroke;fill-rule:evenodd;stroke:context-stroke;stroke-width:1pt"
         d="M 5.77,0 -2.88,5 V -5 Z"
         id="path135-7-6-1-2" />
    </marker>
    <marker
       style="overflow:visible"
       id="Triangle-4"
       refX="0"
       refY="0"
       orient="auto-start-reverse"
       inkscape:stockid="Triangle arrow"
       markerWidth="1"
       markerHeight="1"
       viewBox="0 0 1 1"
       inkscape:isstock="true"
       inkscape:collect="always"
       preserveAspectRatio="xMidYMid">
      <path
         transform="scale(0.5)"
         style="fill:context-stroke;fill-rule:evenodd;stroke:context-stroke;stroke-width:1pt"
         d="M 5.77,0 -2.88,5 V -5 Z"
         id="path135-2" />
    </marker>
    <marker
       style="overflow:visible"
       id="Triangle-4-2"
       refX="0"
       refY="0"
       orient="auto-start-reverse"
       inkscape:stockid="Triangle arrow"
       markerWidth="1"
       markerHeight="1"
       viewBox="0 0 1 1"
       inkscape:isstock="true"
       inkscape:collect="always"
       preserveAspectRatio="xMidYMid">
      <path
         transform="scale(0.5)"
         style="fill:context-stroke;fill-rule:evenodd;stroke:context-stroke;stroke-width:1pt"
         d="M 5.77,0 -2.88,5 V -5 Z"
         id="path135-2-7" />
    </marker>
  </defs>
  <g
     inkscape:label="Layer 1"
     inkscape:groupmode="layer"
     id="layer1">
    <path
       style="fill:none;fill-rule:evenodd;stroke:#000000;stroke-width:0.2;stroke-linecap:round;stroke-miterlimit:3.9;stroke-dasharray:none;stroke-opacity:1;marker-start:url(#Triangle)"
       d="M 34.395831,1.984376 V 69.453127"
       id="path1" />
    <path
       style="fill:none;fill-rule:evenodd;stroke:#898989;stroke-width:0.2;stroke-linecap:round;stroke-miterlimit:3.9;stroke-dasharray:none;stroke-opacity:1;marker-start:url(#Triangle-69-8)"
       d="M 53.49834,8.1646677 14.799853,63.431831"
       id="path1-2-8" />
    <path
       style="fill:none;fill-rule:evenodd;stroke:#898989;stroke-width:0.2;stroke-linecap:round;stroke-miterlimit:3.9;stroke-dasharray:none;stroke-opacity:1;marker-start:url(#Triangle-69-8-6)"
       d="M 6.9531343,16.201403 62.220298,54.899891"
       id="path1-2-8-2" />
    <path
       style="fill:none;fill-rule:evenodd;stroke:#414141;stroke-width:0.2;stroke-linecap:round;stroke-miterlimit:3.9;stroke-dasharray:none;stroke-opacity:1;marker-start:url(#Triangle-69-8-1)"
       d="M 61.707708,16.309418 6.4405426,55.007901"
       id="path1-2-8-7" />
    <path
       style="fill:none;fill-rule:evenodd;stroke:#414141;stroke-width:0.2;stroke-linecap:round;stroke-miterlimit:3.9;stroke-dasharray:none;stroke-opacity:1;marker-start:url(#Triangle-69-8-6-4)"
       d="M 15.220796,7.9420809 53.91928,63.209247"
       id="path1-2-8-2-3" />
    <path
       style="fill:none;fill-rule:evenodd;stroke:#000000;stroke-width:0.2;stroke-linecap:round;stroke-miterlimit:3.9;stroke-dasharray:none;stroke-opacity:1;marker-start:url(#Triangle-6)"
       d="M 67.825099,35.413644 H 0.35634729"
       id="path1-9" />
    <g
       inkscape:label=""
       transform="translate(53.96397,8.4887143)"
       id="g7"
       style="fill:#898989;fill-opacity:1">
      <g
         fill="#000000"
         fill-opacity="1"
         id="g5"
         transform="matrix(0.352778,0,0,0.352778,-0.813329,-0.705644)"
         style="fill:#898989;fill-opacity:1">
        <g
           id="g4"
           transform="translate(1.993,8.2189999)"
           style="fill:#898989;fill-opacity:1">
          <path
             d="m 3.484375,-1.078125 c 0,0.15625 0,0.1875 -0.125,0.375 C 3.078125,-0.296875 2.65625,-0.125 2.3125,-0.125 c -0.390625,0 -0.75,-0.21875 -0.984375,-0.59375 -0.234375,-0.390625 -0.25,-0.90625 -0.25,-1.203125 0,-0.421875 0.046875,-0.890625 0.28125,-1.25 0.203125,-0.296875 0.5625,-0.5625 1.046875,-0.5625 0.375,0 0.734375,0.1875 0.96875,0.53125 0.109375,0.140625 0.109375,0.140625 0.109375,0.3125 z M 3.515625,-3.4375 C 3.46875,-3.484375 3.0625,-3.96875 2.375,-3.96875 c -1.109375,0 -2.0625,0.890625 -2.0625,2.046875 0,1.109375 0.890625,2.015625 1.953125,2.015625 0.65625,0 1.0625,-0.375 1.21875,-0.5625 v 0.5625 L 4.84375,0 v -0.28125 c -0.609375,0 -0.6875,-0.0625 -0.6875,-0.5 v -5.4375 L 2.828125,-6.125 v 0.28125 c 0.609375,0 0.6875,0.0625 0.6875,0.5 z m 0,0"
             id="path3"
             style="fill:#898989;fill-opacity:1" />
        </g>
      </g>
    </g>
    <g
       inkscape:label=""
       transform="translate(7.9044249,14.105599)"
       id="g10"
       style="fill:#898989;fill-opacity:1">
      <g
         fill="#000000"
         fill-opacity="1"
         id="g9"
         transform="matrix(0.352778,0,0,0.352778,-0.813329,-0.664722)"
         style="fill:#898989;fill-opacity:1">
        <g
           id="g8"
           transform="translate(1.993,5.8530002)"
           style="fill:#898989;fill-opacity:1">
          <path
             d="m 3.59375,-3.171875 c -0.421875,-0.71875 -0.9375,-0.796875 -1.25,-0.796875 -1.0625,0 -2.03125,0.859375 -2.03125,2.046875 0,1.125 0.90625,2.015625 1.953125,2.015625 0.375,0 0.84375,-0.125 1.21875,-0.625 v 1.578125 c 0,0.421875 -0.09375,0.421875 -0.6875,0.421875 V 1.734375 C 3.21875,1.71875 3.390625,1.71875 3.828125,1.71875 c 0.421875,0 0.546875,0 1.015625,0.015625 V 1.46875 c -0.59375,0 -0.6875,0 -0.6875,-0.421875 V -3.96875 H 3.921875 Z m -0.078125,1.9375 c 0,0.15625 0,0.1875 -0.140625,0.4375 C 3.15625,-0.40625 2.78125,-0.125 2.3125,-0.125 c -0.671875,0 -1.234375,-0.796875 -1.234375,-1.796875 0,-1.046875 0.640625,-1.796875 1.328125,-1.796875 0.703125,0 1.109375,0.75 1.109375,1.25 z m 0,0"
             id="path7"
             style="fill:#898989;fill-opacity:1" />
        </g>
      </g>
    </g>
    <g
       inkscape:label=""
       transform="translate(66.700526,36.07704)"
       id="g16">
      <g
         fill="#000000"
         fill-opacity="1"
         id="g14"
         transform="matrix(0.352778,0,0,0.352778,-0.84089,-0.668205)">
        <g
           id="use2"
           transform="translate(1.993,8.375)">
          <path
             d="m 4.40625,-2.109375 c 0,-1.328125 -0.8125,-1.859375 -1.578125,-1.859375 -1.21875,0 -2.4375,1.25 -2.4375,2.53125 0,0.921875 0.625,1.53125 1.5,1.53125 0.96875,0 1.703125,-0.5625 1.9375,-0.75 0.109375,0.453125 0.40625,0.75 0.84375,0.75 0.484375,0 0.78125,-0.46875 0.78125,-0.625 0,-0.109375 -0.09375,-0.109375 -0.125,-0.109375 -0.09375,0 -0.109375,0.046875 -0.140625,0.125 -0.09375,0.25 -0.328125,0.390625 -0.484375,0.390625 -0.296875,0 -0.296875,-0.796875 -0.296875,-0.984375 0,-0.109375 0,-0.125 0.09375,-0.234375 0.140625,-0.1875 0.390625,-0.5 0.625,-0.953125 0.265625,-0.53125 0.40625,-1.078125 0.40625,-1.125 0,-0.015625 0,-0.109375 -0.109375,-0.109375 -0.109375,0 -0.109375,0.03125 -0.15625,0.171875 -0.09375,0.3125 -0.296875,1 -0.859375,1.75 z m -0.625,1.1875 C 3.546875,-0.71875 2.828125,-0.125 1.90625,-0.125 c -0.5,0 -0.828125,-0.328125 -0.828125,-0.984375 0,-0.375 0.171875,-1.265625 0.53125,-1.84375 0.234375,-0.359375 0.703125,-0.78125 1.21875,-0.78125 0.609375,0 0.796875,0.53125 0.890625,1.078125 0.0625,0.484375 0.015625,1.34375 0.0625,1.734375 z m 0,0"
             id="path4" />
        </g>
      </g>
      <g
         fill="#000000"
         fill-opacity="1"
         id="g15"
         transform="matrix(0.352778,0,0,0.352778,-0.84089,-0.668205)">
        <g
           id="use3"
           transform="translate(7.9050002,4.566)">
          <path
             d="m 2.421875,-2.5 c 0,-0.109375 0,-0.171875 -0.09375,-0.171875 -0.03125,0 -0.046875,0 -0.125,0.078125 C 2.1875,-2.578125 2.171875,-2.578125 2.09375,-2.5 1.859375,-2.65625 1.5625,-2.671875 1.4375,-2.671875 c -0.9375,0 -1.125,0.46875 -1.125,0.75 0,0.578125 0.703125,0.6875 1.171875,0.765625 0.265625,0.046875 0.78125,0.125 0.78125,0.515625 0,0.234375 -0.171875,0.515625 -0.78125,0.515625 -0.578125,0 -0.8125,-0.34375 -0.9375,-0.796875 C 0.53125,-0.96875 0.515625,-1 0.4375,-1 c -0.125,0 -0.125,0.046875 -0.125,0.171875 v 0.71875 c 0,0.109375 0,0.171875 0.09375,0.171875 0.046875,0 0.046875,-0.015625 0.15625,-0.109375 l 0.140625,-0.15625 C 1,0.0625 1.359375,0.0625 1.484375,0.0625 c 0.875,0 1.109375,-0.484375 1.109375,-0.828125 0,-0.25 -0.109375,-0.421875 -0.25,-0.53125 C 2.09375,-1.53125 1.859375,-1.5625 1.5,-1.625 1.046875,-1.703125 0.640625,-1.765625 0.640625,-2.078125 0.640625,-2.25 0.8125,-2.5 1.4375,-2.5 c 0.40625,0 0.734375,0.15625 0.765625,0.578125 0,0.078125 0.015625,0.125 0.109375,0.125 0.109375,0 0.109375,-0.046875 0.109375,-0.15625 z m 0,0"
             id="path5" />
        </g>
      </g>
    </g>
    <g
       inkscape:label=""
       transform="translate(60.760454,16.98969)"
       id="g21"
       style="stroke:none;stroke-opacity:1;fill:#414141;fill-opacity:1">
      <g
         fill="#000000"
         fill-opacity="1"
         id="g18"
         transform="matrix(0.352778,0,0,0.352778,-0.84089,-0.67923)"
         style="stroke:none;stroke-opacity:1;fill:#414141;fill-opacity:1">
        <g
           id="g17"
           transform="translate(1.993,8.375)"
           style="stroke:none;stroke-opacity:1;fill:#414141;fill-opacity:1">
          <path
             d="m 4.40625,-2.109375 c 0,-1.328125 -0.8125,-1.859375 -1.578125,-1.859375 -1.21875,0 -2.4375,1.25 -2.4375,2.53125 0,0.921875 0.625,1.53125 1.5,1.53125 0.96875,0 1.703125,-0.5625 1.9375,-0.75 0.109375,0.453125 0.40625,0.75 0.84375,0.75 0.484375,0 0.78125,-0.46875 0.78125,-0.625 0,-0.109375 -0.09375,-0.109375 -0.125,-0.109375 -0.09375,0 -0.109375,0.046875 -0.140625,0.125 -0.09375,0.25 -0.328125,0.390625 -0.484375,0.390625 -0.296875,0 -0.296875,-0.796875 -0.296875,-0.984375 0,-0.109375 0,-0.125 0.09375,-0.234375 0.140625,-0.1875 0.390625,-0.5 0.625,-0.953125 0.265625,-0.53125 0.40625,-1.078125 0.40625,-1.125 0,-0.015625 0,-0.109375 -0.109375,-0.109375 -0.109375,0 -0.109375,0.03125 -0.15625,0.171875 -0.09375,0.3125 -0.296875,1 -0.859375,1.75 z m -0.625,1.1875 C 3.546875,-0.71875 2.828125,-0.125 1.90625,-0.125 c -0.5,0 -0.828125,-0.328125 -0.828125,-0.984375 0,-0.375 0.171875,-1.265625 0.53125,-1.84375 0.234375,-0.359375 0.703125,-0.78125 1.21875,-0.78125 0.609375,0 0.796875,0.53125 0.890625,1.078125 0.0625,0.484375 0.015625,1.34375 0.0625,1.734375 z m 0,0"
             id="path16"
             style="stroke:none;stroke-opacity:1;fill:#414141;fill-opacity:1" />
        </g>
      </g>
      <g
         fill="#000000"
         fill-opacity="1"
         id="g20"
         transform="matrix(0.352778,0,0,0.352778,-0.84089,-0.67923)"
         style="stroke:none;stroke-opacity:1;fill:#414141;fill-opacity:1">
        <g
           id="g19"
           transform="translate(7.9050002,4.566)"
           style="stroke:none;stroke-opacity:1;fill:#414141;fill-opacity:1">
          <path
             d="m 1.296875,-1.34375 c 0,-0.546875 0.28125,-1.09375 0.8125,-1.109375 -0.046875,0.0625 -0.078125,0.125 -0.078125,0.203125 0,0.171875 0.125,0.28125 0.28125,0.28125 0.171875,0 0.28125,-0.109375 0.28125,-0.28125 0,-0.234375 -0.21875,-0.390625 -0.484375,-0.390625 -0.359375,0 -0.671875,0.21875 -0.859375,0.625 v -0.625 l -0.90625,0.0625 v 0.234375 c 0.421875,0 0.46875,0.046875 0.46875,0.34375 v 1.515625 c 0,0.25 -0.046875,0.25 -0.46875,0.25 V 0 C 0.5,-0.015625 0.9375,-0.03125 1.078125,-0.03125 1.375,-0.03125 1.796875,0 1.875,0 V -0.234375 H 1.75 c -0.453125,0 -0.453125,-0.0625 -0.453125,-0.265625 z m 0,0"
             id="path18"
             style="stroke:none;stroke-opacity:1;fill:#414141;fill-opacity:1" />
        </g>
      </g>
    </g>
    <g
       inkscape:label=""
       transform="translate(17.197915,6.6145837)"
       id="g26"
       style="stroke:none;stroke-opacity:1;fill:#414141;fill-opacity:1">
      <g
         fill="#000000"
         fill-opacity="1"
         id="g23"
         transform="matrix(0.352778,0,0,0.352778,-0.801448,-0.67923)"
         style="stroke:none;stroke-opacity:1;fill:#414141;fill-opacity:1">
        <g
           id="g22"
           transform="translate(1.993,8.375)"
           style="stroke:none;stroke-opacity:1;fill:#414141;fill-opacity:1">
          <path
             d="m 5.25,-5.125 c 0,-0.625 -0.421875,-1.203125 -1.375,-1.203125 -0.21875,0 -0.40625,0.03125 -0.671875,0.171875 C 2.40625,-5.75 1.9375,-4.875 1.6875,-4 L 0.28125,1.640625 c -0.015625,0.046875 0.046875,0.09375 0.109375,0.09375 0.078125,0 0.125,-0.015625 0.125,-0.046875 l 0.625,-2.4375 c 0.21875,0.546875 0.640625,0.84375 1.234375,0.84375 0.6875,0 1.359375,-0.296875 1.84375,-0.765625 C 4.625,-1.0625 4.890625,-1.625 4.890625,-2.21875 c 0,-0.5625 -0.25,-1.109375 -0.65625,-1.375 C 4.671875,-3.8125 5.25,-4.4375 5.25,-5.125 Z M 3.59375,-3.59375 C 3.4375,-3.5625 3.296875,-3.53125 3.140625,-3.53125 3,-3.53125 2.875,-3.53125 2.75,-3.578125 c 0.109375,-0.0625 0.265625,-0.0625 0.390625,-0.0625 0.15625,0 0.296875,0 0.453125,0.046875 z m 1.125,-1.6875 c 0,0.5625 -0.328125,1.296875 -0.796875,1.515625 -0.234375,-0.078125 -0.453125,-0.09375 -0.71875,-0.09375 -0.453125,0 -0.734375,0.0625 -0.734375,0.296875 0,0.1875 0.21875,0.25 0.640625,0.25 0.3125,0 0.515625,-0.046875 0.796875,-0.125 0.28125,0.203125 0.375,0.625 0.375,0.96875 0,0.609375 -0.1875,1.28125 -0.59375,1.71875 -0.34375,0.375 -0.796875,0.609375 -1.296875,0.609375 -0.671875,0 -1.078125,-0.46875 -1.078125,-1.125 0,-0.09375 0,-0.1875 0.03125,-0.28125 L 1.953125,-4 c 0.203125,-0.765625 0.890625,-2.109375 1.9375,-2.109375 0.421875,0 0.828125,0.21875 0.828125,0.828125 z m 0,0"
             id="path21"
             style="stroke:none;stroke-opacity:1;fill:#414141;fill-opacity:1" />
        </g>
      </g>
      <g
         fill="#000000"
         fill-opacity="1"
         id="g25"
         transform="matrix(0.352778,0,0,0.352778,-0.801448,-0.67923)"
         style="stroke:none;stroke-opacity:1;fill:#414141;fill-opacity:1">
        <g
           id="g24"
           transform="translate(7.6539998,4.566)"
           style="stroke:none;stroke-opacity:1;fill:#414141;fill-opacity:1">
          <path
             d="m 1.296875,-1.34375 c 0,-0.546875 0.28125,-1.09375 0.8125,-1.109375 -0.046875,0.0625 -0.078125,0.125 -0.078125,0.203125 0,0.171875 0.125,0.28125 0.28125,0.28125 0.171875,0 0.28125,-0.109375 0.28125,-0.28125 0,-0.234375 -0.21875,-0.390625 -0.484375,-0.390625 -0.359375,0 -0.671875,0.21875 -0.859375,0.625 v -0.625 l -0.90625,0.0625 v 0.234375 c 0.421875,0 0.46875,0.046875 0.46875,0.34375 v 1.515625 c 0,0.25 -0.046875,0.25 -0.46875,0.25 V 0 C 0.5,-0.015625 0.9375,-0.03125 1.078125,-0.03125 1.375,-0.03125 1.796875,0 1.875,0 V -0.234375 H 1.75 c -0.453125,0 -0.453125,-0.0625 -0.453125,-0.265625 z m 0,0"
             id="path23"
             style="stroke:none;stroke-opacity:1;fill:#414141;fill-opacity:1" />
        </g>
      </g>
    </g>
    <g
       inkscape:label=""
       transform="translate(35.502915,0.81151995)"
       id="g31">
      <g
         fill="#000000"
         fill-opacity="1"
         id="g28"
         transform="matrix(0.352778,0,0,0.352778,-0.801448,-0.668205)">
        <g
           id="g27"
           transform="translate(1.993,8.375)">
          <path
             d="m 5.25,-5.125 c 0,-0.625 -0.421875,-1.203125 -1.375,-1.203125 -0.21875,0 -0.40625,0.03125 -0.671875,0.171875 C 2.40625,-5.75 1.9375,-4.875 1.6875,-4 L 0.28125,1.640625 c -0.015625,0.046875 0.046875,0.09375 0.109375,0.09375 0.078125,0 0.125,-0.015625 0.125,-0.046875 l 0.625,-2.4375 c 0.21875,0.546875 0.640625,0.84375 1.234375,0.84375 0.6875,0 1.359375,-0.296875 1.84375,-0.765625 C 4.625,-1.0625 4.890625,-1.625 4.890625,-2.21875 c 0,-0.5625 -0.25,-1.109375 -0.65625,-1.375 C 4.671875,-3.8125 5.25,-4.4375 5.25,-5.125 Z M 3.59375,-3.59375 C 3.4375,-3.5625 3.296875,-3.53125 3.140625,-3.53125 3,-3.53125 2.875,-3.53125 2.75,-3.578125 c 0.109375,-0.0625 0.265625,-0.0625 0.390625,-0.0625 0.15625,0 0.296875,0 0.453125,0.046875 z m 1.125,-1.6875 c 0,0.5625 -0.328125,1.296875 -0.796875,1.515625 -0.234375,-0.078125 -0.453125,-0.09375 -0.71875,-0.09375 -0.453125,0 -0.734375,0.0625 -0.734375,0.296875 0,0.1875 0.21875,0.25 0.640625,0.25 0.3125,0 0.515625,-0.046875 0.796875,-0.125 0.28125,0.203125 0.375,0.625 0.375,0.96875 0,0.609375 -0.1875,1.28125 -0.59375,1.71875 -0.34375,0.375 -0.796875,0.609375 -1.296875,0.609375 -0.671875,0 -1.078125,-0.46875 -1.078125,-1.125 0,-0.09375 0,-0.1875 0.03125,-0.28125 L 1.953125,-4 c 0.203125,-0.765625 0.890625,-2.109375 1.9375,-2.109375 0.421875,0 0.828125,0.21875 0.828125,0.828125 z m 0,0"
             id="path26" />
        </g>
      </g>
      <g
         fill="#000000"
         fill-opacity="1"
         id="g30"
         transform="matrix(0.352778,0,0,0.352778,-0.801448,-0.668205)">
        <g
           id="g29"
           transform="translate(7.6539998,4.566)">
          <path
             d="m 2.421875,-2.5 c 0,-0.109375 0,-0.171875 -0.09375,-0.171875 -0.03125,0 -0.046875,0 -0.125,0.078125 C 2.1875,-2.578125 2.171875,-2.578125 2.09375,-2.5 1.859375,-2.65625 1.5625,-2.671875 1.4375,-2.671875 c -0.9375,0 -1.125,0.46875 -1.125,0.75 0,0.578125 0.703125,0.6875 1.171875,0.765625 0.265625,0.046875 0.78125,0.125 0.78125,0.515625 0,0.234375 -0.171875,0.515625 -0.78125,0.515625 -0.578125,0 -0.8125,-0.34375 -0.9375,-0.796875 C 0.53125,-0.96875 0.515625,-1 0.4375,-1 c -0.125,0 -0.125,0.046875 -0.125,0.171875 v 0.71875 c 0,0.109375 0,0.171875 0.09375,0.171875 0.046875,0 0.046875,-0.015625 0.15625,-0.109375 l 0.140625,-0.15625 C 1,0.0625 1.359375,0.0625 1.484375,0.0625 c 0.875,0 1.109375,-0.484375 1.109375,-0.828125 0,-0.25 -0.109375,-0.421875 -0.25,-0.53125 C 2.09375,-1.53125 1.859375,-1.5625 1.5,-1.625 1.046875,-1.703125 0.640625,-1.765625 0.640625,-2.078125 0.640625,-2.25 0.8125,-2.5 1.4375,-2.5 c 0.40625,0 0.734375,0.15625 0.765625,0.578125 0,0.078125 0.015625,0.125 0.109375,0.125 0.109375,0 0.109375,-0.046875 0.109375,-0.15625 z m 0,0"
             id="path28" />
        </g>
      </g>
    </g>
    <path
       style="fill:none;fill-rule:evenodd;stroke:#414141;stroke-width:0.15;stroke-linecap:round;stroke-miterlimit:3.9;stroke-dasharray:0.450001, 0.450001;marker-start:url(#Triangle);stroke-opacity:1"
       id="path31-0"
       sodipodi:type="arc"
       sodipodi:cx="34.395832"
       sodipodi:cy="35.382122"
       sodipodi:rx="14.92551"
       sodipodi:ry="14.669121"
       sodipodi:start="5.7087178"
       sodipodi:end="6.280892"
       sodipodi:arc-type="arc"
       d="m 46.925526,27.4111 a 14.92551,14.669121 0 0 1 2.395777,7.937381"
       sodipodi:open="true" />
    <path
       style="fill:none;fill-rule:evenodd;stroke:#898989;stroke-width:0.15;stroke-linecap:round;stroke-miterlimit:3.9;stroke-dasharray:0.450001, 0.450001;marker-start:url(#Triangle);stroke-opacity:1"
       id="path32"
       sodipodi:type="arc"
       sodipodi:cx="34.586716"
       sodipodi:cy="35.550648"
       sodipodi:rx="19.92515"
       sodipodi:ry="19.92511"
       sodipodi:start="5.3451047"
       sodipodi:end="6.272287"
       sodipodi:arc-type="arc"
       d="m 46.369193,19.482549 a 19.92515,19.92511 0 0 1 8.141489,15.850953"
       sodipodi:open="true" />
    <path
       style="fill:none;fill-rule:evenodd;stroke:#898989;stroke-width:0.15;stroke-linecap:round;stroke-miterlimit:3.9;stroke-dasharray:0.450001, 0.450001;marker-start:url(#Triangle-4);stroke-opacity:1"
       id="path32-6"
       sodipodi:type="arc"
       sodipodi:cx="34.530636"
       sodipodi:cy="36.534931"
       sodipodi:rx="36.691673"
       sodipodi:ry="36.691635"
       sodipodi:start="5.2348632"
       sodipodi:end="5.4233023"
       sodipodi:arc-type="arc"
       d="m 52.840727,4.7384323 a 36.691673,36.691635 0 0 1 5.632184,3.992817"
       sodipodi:open="true" />
    <path
       style="fill:none;fill-rule:evenodd;stroke:#414141;stroke-width:0.15;stroke-linecap:round;stroke-miterlimit:3.9;stroke-dasharray:0.450001, 0.450001;marker-start:url(#Triangle-4-2);stroke-opacity:1"
       id="path32-6-9"
       sodipodi:type="arc"
       sodipodi:cx="43.993294"
       sodipodi:cy="22.191114"
       sodipodi:rx="36.691673"
       sodipodi:ry="36.691635"
       sodipodi:start="5.2348632"
       sodipodi:end="5.4233023"
       sodipodi:arc-type="arc"
       d="m 62.303385,-9.6053845 a 36.691673,36.691635 0 0 1 5.632184,3.992817"
       sodipodi:open="true"
       transform="rotate(20)" />
    <g
       inkscape:label=""
       transform="translate(43.49529,30.934026)"
       id="g36"
       style="stroke:none;stroke-opacity:1;fill:#414141;fill-opacity:1">
      <g
         fill="#000000"
         fill-opacity="1"
         id="g6"
         transform="matrix(0.352778,0,0,0.352778,-0.791281,-0.631649)"
         style="stroke:none;stroke-opacity:1;fill:#414141;fill-opacity:1">
        <g
           id="use5"
           transform="translate(1.993,5.8530002)"
           style="stroke:none;stroke-opacity:1;fill:#414141;fill-opacity:1">
          <path
             d="m 1.296875,-2.015625 c 0.3125,0.125 0.546875,0.125 0.78125,0.125 0.25,0 0.75,0 0.75,-0.296875 0,-0.203125 -0.234375,-0.265625 -0.671875,-0.265625 -0.1875,0 -0.5,0.015625 -0.859375,0.171875 C 0.953125,-2.453125 0.9375,-2.703125 0.9375,-2.765625 c 0,-0.515625 0.859375,-0.84375 1.703125,-0.84375 0.1875,0 0.5,0 0.859375,0.265625 0.0625,0.03125 0.109375,0.0625 0.171875,0.0625 0.09375,0 0.25,-0.09375 0.25,-0.25 0,-0.171875 -0.265625,-0.296875 -0.4375,-0.375 C 3.359375,-3.96875 3.09375,-4.0625 2.75,-4.0625 c -1.09375,0 -2.0625,0.640625 -2.0625,1.296875 0,0.1875 0.109375,0.4375 0.359375,0.609375 C 0.765625,-1.984375 0.25,-1.546875 0.25,-0.953125 c 0,0.671875 0.625,1.15625 1.5,1.15625 1.21875,0 1.734375,-0.78125 1.734375,-0.953125 0,-0.046875 -0.046875,-0.109375 -0.109375,-0.109375 -0.0625,0 -0.078125,0.03125 -0.140625,0.140625 C 3,-0.34375 2.484375,-0.25 1.84375,-0.25 0.625,-0.25 0.5,-0.765625 0.5,-1 0.5,-1.3125 0.796875,-1.78125 1.296875,-2.015625 Z M 1.625,-2.15625 c 0.203125,-0.046875 0.34375,-0.0625 0.53125,-0.0625 0.171875,0 0.21875,0 0.40625,0.046875 -0.140625,0.046875 -0.15625,0.0625 -0.484375,0.0625 -0.15625,0 -0.296875,0 -0.453125,-0.046875 z m 0,0"
             id="path9"
             style="stroke:none;stroke-opacity:1;fill:#414141;fill-opacity:1" />
        </g>
      </g>
      <g
         fill="#000000"
         fill-opacity="1"
         id="g33"
         transform="matrix(0.352778,0,0,0.352778,-0.791281,-0.631649)"
         style="stroke:none;stroke-opacity:1;fill:#414141;fill-opacity:1">
        <g
           id="use6"
           transform="translate(6.2709999,6.9159999)"
           style="stroke:none;stroke-opacity:1;fill:#414141;fill-opacity:1">
          <path
             d="m 1.296875,-1.34375 c 0,-0.546875 0.28125,-1.09375 0.8125,-1.109375 -0.046875,0.0625 -0.078125,0.125 -0.078125,0.203125 0,0.171875 0.125,0.28125 0.28125,0.28125 0.171875,0 0.28125,-0.109375 0.28125,-0.28125 0,-0.234375 -0.21875,-0.390625 -0.484375,-0.390625 -0.359375,0 -0.671875,0.21875 -0.859375,0.625 v -0.625 l -0.90625,0.0625 v 0.234375 c 0.421875,0 0.46875,0.046875 0.46875,0.34375 v 1.515625 c 0,0.25 -0.046875,0.25 -0.46875,0.25 V 0 C 0.5,-0.015625 0.9375,-0.03125 1.078125,-0.03125 1.375,-0.03125 1.796875,0 1.875,0 V -0.234375 H 1.75 c -0.453125,0 -0.453125,-0.0625 -0.453125,-0.265625 z m 0,0"
             id="path33"
             style="stroke:none;stroke-opacity:1;fill:#414141;fill-opacity:1" />
        </g>
      </g>
      <g
         fill="#000000"
         fill-opacity="1"
         id="g34"
         transform="matrix(0.352778,0,0,0.352778,-0.791281,-0.631649)"
         style="stroke:none;stroke-opacity:1;fill:#414141;fill-opacity:1">
        <g
           id="use7"
           transform="translate(9.1490002,6.9159999)"
           style="stroke:none;stroke-opacity:1;fill:#414141;fill-opacity:1">
          <path
             d="m 1.375,-0.078125 c 0,0.5625 -0.296875,0.890625 -0.453125,1.03125 C 0.875,1 0.84375,1.015625 0.84375,1.046875 c 0,0.0625 0.0625,0.109375 0.109375,0.109375 0.078125,0 0.625,-0.46875 0.625,-1.203125 0,-0.390625 -0.15625,-0.671875 -0.453125,-0.671875 -0.234375,0 -0.359375,0.1875 -0.359375,0.359375 C 0.765625,-0.1875 0.890625,0 1.140625,0 1.234375,0 1.3125,-0.03125 1.375,-0.078125 Z m 0,0"
             id="path11"
             style="stroke:none;stroke-opacity:1;fill:#414141;fill-opacity:1" />
        </g>
      </g>
      <g
         fill="#000000"
         fill-opacity="1"
         id="g35"
         transform="matrix(0.352778,0,0,0.352778,-0.791281,-0.631649)"
         style="stroke:none;stroke-opacity:1;fill:#414141;fill-opacity:1">
        <g
           id="use8"
           transform="translate(11.418,6.9159999)"
           style="stroke:none;stroke-opacity:1;fill:#414141;fill-opacity:1">
          <path
             d="m 2.8125,-1.359375 c 0.125,0 0.171875,0 0.171875,-0.140625 0,-0.453125 -0.25,-1.171875 -1.25,-1.171875 -0.84375,0 -1.453125,0.640625 -1.453125,1.359375 0,0.75 0.6875,1.375 1.53125,1.375 0.875,0 1.171875,-0.65625 1.171875,-0.78125 0,-0.03125 -0.015625,-0.09375 -0.109375,-0.09375 -0.078125,0 -0.09375,0.03125 -0.109375,0.109375 -0.1875,0.4375 -0.640625,0.546875 -0.90625,0.546875 -0.328125,0 -0.609375,-0.140625 -0.78125,-0.359375 -0.21875,-0.28125 -0.21875,-0.671875 -0.21875,-0.84375 z M 0.875,-1.53125 c 0.0625,-0.796875 0.609375,-0.953125 0.859375,-0.953125 0.765625,0 0.8125,0.78125 0.8125,0.953125 z m 0,0"
             id="path12"
             style="stroke:none;stroke-opacity:1;fill:#414141;fill-opacity:1" />
        </g>
        <g
           id="use9"
           transform="translate(14.683563,6.9159999)"
           style="stroke:none;stroke-opacity:1;fill:#414141;fill-opacity:1">
          <path
             d="m 1.328125,-4.15625 -0.9375,0.0625 v 0.234375 c 0.40625,0 0.46875,0.046875 0.46875,0.34375 v 3.03125 c 0,0.25 -0.0625,0.25 -0.46875,0.25 V 0 C 0.5625,-0.015625 1.046875,-0.03125 1.09375,-0.03125 1.328125,-0.03125 1.5625,-0.015625 1.796875,0 v -0.234375 c -0.40625,0 -0.46875,0 -0.46875,-0.25 z m 0,0"
             id="path13"
             style="stroke:none;stroke-opacity:1;fill:#414141;fill-opacity:1" />
        </g>
      </g>
    </g>
    <g
       inkscape:label=""
       transform="translate(53.79424,27.775562)"
       id="g46"
       style="fill:#898989;fill-opacity:1">
      <g
         fill="#000000"
         fill-opacity="1"
         id="g38"
         transform="matrix(0.352778,0,0,0.352778,-0.791281,-0.631649)"
         style="fill:#898989;fill-opacity:1">
        <g
           id="g37"
           transform="translate(1.993,5.8530002)"
           style="fill:#898989;fill-opacity:1">
          <path
             d="m 1.296875,-2.015625 c 0.3125,0.125 0.546875,0.125 0.78125,0.125 0.25,0 0.75,0 0.75,-0.296875 0,-0.203125 -0.234375,-0.265625 -0.671875,-0.265625 -0.1875,0 -0.5,0.015625 -0.859375,0.171875 C 0.953125,-2.453125 0.9375,-2.703125 0.9375,-2.765625 c 0,-0.515625 0.859375,-0.84375 1.703125,-0.84375 0.1875,0 0.5,0 0.859375,0.265625 0.0625,0.03125 0.109375,0.0625 0.171875,0.0625 0.09375,0 0.25,-0.09375 0.25,-0.25 0,-0.171875 -0.265625,-0.296875 -0.4375,-0.375 C 3.359375,-3.96875 3.09375,-4.0625 2.75,-4.0625 c -1.09375,0 -2.0625,0.640625 -2.0625,1.296875 0,0.1875 0.109375,0.4375 0.359375,0.609375 C 0.765625,-1.984375 0.25,-1.546875 0.25,-0.953125 c 0,0.671875 0.625,1.15625 1.5,1.15625 1.21875,0 1.734375,-0.78125 1.734375,-0.953125 0,-0.046875 -0.046875,-0.109375 -0.109375,-0.109375 -0.0625,0 -0.078125,0.03125 -0.140625,0.140625 C 3,-0.34375 2.484375,-0.25 1.84375,-0.25 0.625,-0.25 0.5,-0.765625 0.5,-1 0.5,-1.3125 0.796875,-1.78125 1.296875,-2.015625 Z M 1.625,-2.15625 c 0.203125,-0.046875 0.34375,-0.0625 0.53125,-0.0625 0.171875,0 0.21875,0 0.40625,0.046875 -0.140625,0.046875 -0.15625,0.0625 -0.484375,0.0625 -0.15625,0 -0.296875,0 -0.453125,-0.046875 z m 0,0"
             id="path36"
             style="fill:#898989;fill-opacity:1" />
        </g>
      </g>
      <g
         fill="#000000"
         fill-opacity="1"
         id="g40"
         transform="matrix(0.352778,0,0,0.352778,-0.791281,-0.631649)"
         style="fill:#898989;fill-opacity:1">
        <g
           id="g39"
           transform="translate(6.2709999,6.9159999)"
           style="fill:#898989;fill-opacity:1">
          <path
             d="m 2.078125,-1.609375 c 0.65625,-0.5 0.96875,-0.71875 1.40625,-0.734375 v -0.234375 c -0.078125,0 -0.25,0.015625 -0.4375,0.015625 -0.265625,0 -0.6875,-0.015625 -0.75,-0.015625 V -2.34375 C 2.40625,-2.328125 2.40625,-2.265625 2.40625,-2.25 c 0,0.03125 0,0.125 -0.1875,0.25 L 1.296875,-1.328125 V -4.15625 l -0.953125,0.0625 v 0.234375 c 0.421875,0 0.46875,0.046875 0.46875,0.34375 v 3.03125 c 0,0.25 -0.046875,0.25 -0.46875,0.25 V 0 C 0.515625,-0.015625 0.921875,-0.03125 1.046875,-0.03125 1.140625,-0.03125 1.5625,-0.015625 1.75,0 v -0.234375 c -0.421875,0 -0.46875,0 -0.46875,-0.25 V -1.03125 l 0.453125,-0.328125 c 0.03125,0.03125 0.1875,0.203125 0.671875,0.765625 0.0625,0.078125 0.140625,0.171875 0.140625,0.265625 0,0.078125 -0.09375,0.09375 -0.15625,0.09375 V 0 C 2.515625,-0.015625 2.9375,-0.03125 3.09375,-0.03125 3.328125,-0.03125 3.59375,0 3.640625,0 v -0.234375 c -0.3125,0 -0.390625,-0.046875 -0.609375,-0.28125 z m 0,0"
             id="path38"
             style="fill:#898989;fill-opacity:1" />
        </g>
      </g>
      <g
         fill="#000000"
         fill-opacity="1"
         id="g42"
         transform="matrix(0.352778,0,0,0.352778,-0.791281,-0.631649)"
         style="fill:#898989;fill-opacity:1">
        <g
           id="g41"
           transform="translate(10.117,6.9159999)"
           style="fill:#898989;fill-opacity:1">
          <path
             d="m 1.375,-0.078125 c 0,0.5625 -0.296875,0.890625 -0.453125,1.03125 C 0.875,1 0.84375,1.015625 0.84375,1.046875 c 0,0.0625 0.0625,0.109375 0.109375,0.109375 0.078125,0 0.625,-0.46875 0.625,-1.203125 0,-0.390625 -0.15625,-0.671875 -0.453125,-0.671875 -0.234375,0 -0.359375,0.1875 -0.359375,0.359375 C 0.765625,-0.1875 0.890625,0 1.140625,0 1.234375,0 1.3125,-0.03125 1.375,-0.078125 Z m 0,0"
             id="path40"
             style="fill:#898989;fill-opacity:1" />
        </g>
      </g>
      <g
         fill="#000000"
         fill-opacity="1"
         id="g45"
         transform="matrix(0.352778,0,0,0.352778,-0.791281,-0.631649)"
         style="fill:#898989;fill-opacity:1">
        <g
           id="g43"
           transform="translate(12.386,6.9159999)"
           style="fill:#898989;fill-opacity:1">
          <path
             d="m 2.8125,-1.359375 c 0.125,0 0.171875,0 0.171875,-0.140625 0,-0.453125 -0.25,-1.171875 -1.25,-1.171875 -0.84375,0 -1.453125,0.640625 -1.453125,1.359375 0,0.75 0.6875,1.375 1.53125,1.375 0.875,0 1.171875,-0.65625 1.171875,-0.78125 0,-0.03125 -0.015625,-0.09375 -0.109375,-0.09375 -0.078125,0 -0.09375,0.03125 -0.109375,0.109375 -0.1875,0.4375 -0.640625,0.546875 -0.90625,0.546875 -0.328125,0 -0.609375,-0.140625 -0.78125,-0.359375 -0.21875,-0.28125 -0.21875,-0.671875 -0.21875,-0.84375 z M 0.875,-1.53125 c 0.0625,-0.796875 0.609375,-0.953125 0.859375,-0.953125 0.765625,0 0.8125,0.78125 0.8125,0.953125 z m 0,0"
             id="path42"
             style="fill:#898989;fill-opacity:1" />
        </g>
        <g
           id="g44"
           transform="translate(15.651563,6.9159999)"
           style="fill:#898989;fill-opacity:1">
          <path
             d="m 1.328125,-4.15625 -0.9375,0.0625 v 0.234375 c 0.40625,0 0.46875,0.046875 0.46875,0.34375 v 3.03125 c 0,0.25 -0.0625,0.25 -0.46875,0.25 V 0 C 0.5625,-0.015625 1.046875,-0.03125 1.09375,-0.03125 1.328125,-0.03125 1.5625,-0.015625 1.796875,0 v -0.234375 c -0.40625,0 -0.46875,0 -0.46875,-0.25 z m 0,0"
             id="path43"
             style="fill:#898989;fill-opacity:1" />
        </g>
      </g>
    </g>
    <g
       inkscape:label=""
       transform="translate(54.791695,4.0567676)"
       id="g56"
       style="fill:#898989;fill-opacity:1">
      <g
         fill="#000000"
         fill-opacity="1"
         id="g48"
         transform="matrix(0.352778,0,0,0.352778,-0.747183,-0.664722)"
         style="fill:#898989;fill-opacity:1">
        <g
           id="g47"
           transform="translate(1.993,5.8530002)"
           style="fill:#898989;fill-opacity:1">
          <path
             d="m 5.578125,-3.3125 c 0,-0.265625 -0.09375,-0.65625 -0.40625,-0.65625 -0.234375,0 -0.46875,0.234375 -0.46875,0.453125 0,0.140625 0.046875,0.15625 0.125,0.234375 C 4.9375,-3.171875 5.15625,-2.9375 5.15625,-2.5 c 0,0.546875 -0.578125,1.9375 -1.484375,1.9375 -0.5,0 -0.796875,-0.359375 -0.875,-0.734375 0,-0.125 0.3125,-0.765625 0.3125,-1.09375 0,-0.125 -0.0625,-0.234375 -0.203125,-0.234375 -0.078125,0 -0.15625,0.046875 -0.203125,0.109375 -0.171875,0.203125 -0.25,0.9375 -0.25,1.15625 -0.296875,0.421875 -0.671875,0.78125 -1.21875,0.78125 -0.578125,0 -0.78125,-0.484375 -0.78125,-1 0,-0.6875 0.265625,-1.28125 0.84375,-2.03125 C 1.34375,-3.6875 1.34375,-3.71875 1.34375,-3.765625 c 0,-0.078125 -0.078125,-0.15625 -0.15625,-0.15625 -0.09375,0 -0.171875,0.078125 -0.203125,0.140625 -0.5,0.703125 -0.859375,1.6875 -0.859375,2.546875 0,0.703125 0.25,1.328125 1.03125,1.328125 0.5625,0 1.078125,-0.484375 1.34375,-0.890625 0.125,0.359375 0.328125,0.890625 1.046875,0.890625 0.703125,0 1.15625,-0.5625 1.5,-1.265625 C 5.203125,-1.53125 5.3125,-1.90625 5.40625,-2.28125 5.5,-2.671875 5.578125,-3.046875 5.578125,-3.3125 Z m 0,0"
             id="path46"
             style="fill:#898989;fill-opacity:1" />
        </g>
      </g>
      <g
         fill="#000000"
         fill-opacity="1"
         id="g50"
         transform="matrix(0.352778,0,0,0.352778,-0.747183,-0.664722)"
         style="fill:#898989;fill-opacity:1">
        <g
           id="g49"
           transform="translate(7.7259998,6.9159999)"
           style="fill:#898989;fill-opacity:1">
          <path
             d="m 2.078125,-1.609375 c 0.65625,-0.5 0.96875,-0.71875 1.40625,-0.734375 v -0.234375 c -0.078125,0 -0.25,0.015625 -0.4375,0.015625 -0.265625,0 -0.6875,-0.015625 -0.75,-0.015625 V -2.34375 C 2.40625,-2.328125 2.40625,-2.265625 2.40625,-2.25 c 0,0.03125 0,0.125 -0.1875,0.25 L 1.296875,-1.328125 V -4.15625 l -0.953125,0.0625 v 0.234375 c 0.421875,0 0.46875,0.046875 0.46875,0.34375 v 3.03125 c 0,0.25 -0.046875,0.25 -0.46875,0.25 V 0 C 0.515625,-0.015625 0.921875,-0.03125 1.046875,-0.03125 1.140625,-0.03125 1.5625,-0.015625 1.75,0 v -0.234375 c -0.421875,0 -0.46875,0 -0.46875,-0.25 V -1.03125 l 0.453125,-0.328125 c 0.03125,0.03125 0.1875,0.203125 0.671875,0.765625 0.0625,0.078125 0.140625,0.171875 0.140625,0.265625 0,0.078125 -0.09375,0.09375 -0.15625,0.09375 V 0 C 2.515625,-0.015625 2.9375,-0.03125 3.09375,-0.03125 3.328125,-0.03125 3.59375,0 3.640625,0 v -0.234375 c -0.3125,0 -0.390625,-0.046875 -0.609375,-0.28125 z m 0,0"
             id="path48"
             style="fill:#898989;fill-opacity:1" />
        </g>
      </g>
      <g
         fill="#000000"
         fill-opacity="1"
         id="g52"
         transform="matrix(0.352778,0,0,0.352778,-0.747183,-0.664722)"
         style="fill:#898989;fill-opacity:1">
        <g
           id="g51"
           transform="translate(11.572,6.9159999)"
           style="fill:#898989;fill-opacity:1">
          <path
             d="m 1.375,-0.078125 c 0,0.5625 -0.296875,0.890625 -0.453125,1.03125 C 0.875,1 0.84375,1.015625 0.84375,1.046875 c 0,0.0625 0.0625,0.109375 0.109375,0.109375 0.078125,0 0.625,-0.46875 0.625,-1.203125 0,-0.390625 -0.15625,-0.671875 -0.453125,-0.671875 -0.234375,0 -0.359375,0.1875 -0.359375,0.359375 C 0.765625,-0.1875 0.890625,0 1.140625,0 1.234375,0 1.3125,-0.03125 1.375,-0.078125 Z m 0,0"
             id="path50"
             style="fill:#898989;fill-opacity:1" />
        </g>
      </g>
      <g
         fill="#000000"
         fill-opacity="1"
         id="g55"
         transform="matrix(0.352778,0,0,0.352778,-0.747183,-0.664722)"
         style="fill:#898989;fill-opacity:1">
        <g
           id="g53"
           transform="translate(13.842,6.9159999)"
           style="fill:#898989;fill-opacity:1">
          <path
             d="m 2.8125,-1.359375 c 0.125,0 0.171875,0 0.171875,-0.140625 0,-0.453125 -0.25,-1.171875 -1.25,-1.171875 -0.84375,0 -1.453125,0.640625 -1.453125,1.359375 0,0.75 0.6875,1.375 1.53125,1.375 0.875,0 1.171875,-0.65625 1.171875,-0.78125 0,-0.03125 -0.015625,-0.09375 -0.109375,-0.09375 -0.078125,0 -0.09375,0.03125 -0.109375,0.109375 -0.1875,0.4375 -0.640625,0.546875 -0.90625,0.546875 -0.328125,0 -0.609375,-0.140625 -0.78125,-0.359375 -0.21875,-0.28125 -0.21875,-0.671875 -0.21875,-0.84375 z M 0.875,-1.53125 c 0.0625,-0.796875 0.609375,-0.953125 0.859375,-0.953125 0.765625,0 0.8125,0.78125 0.8125,0.953125 z m 0,0"
             id="path52"
             style="fill:#898989;fill-opacity:1" />
        </g>
        <g
           id="g54"
           transform="translate(17.107563,6.9159999)"
           style="fill:#898989;fill-opacity:1">
          <path
             d="m 1.328125,-4.15625 -0.9375,0.0625 v 0.234375 c 0.40625,0 0.46875,0.046875 0.46875,0.34375 v 3.03125 c 0,0.25 -0.0625,0.25 -0.46875,0.25 V 0 C 0.5625,-0.015625 1.046875,-0.03125 1.09375,-0.03125 1.328125,-0.03125 1.5625,-0.015625 1.796875,0 v -0.234375 c -0.40625,0 -0.46875,0 -0.46875,-0.25 z m 0,0"
             id="path53"
             style="fill:#898989;fill-opacity:1" />
        </g>
      </g>
    </g>
    <g
       inkscape:label=""
       transform="translate(63.423308,12.385631)"
       id="g66"
       style="stroke:none;stroke-opacity:1;fill:#414141;fill-opacity:1">
      <g
         fill="#000000"
         fill-opacity="1"
         id="g58"
         transform="matrix(0.352778,0,0,0.352778,-0.747183,-0.664722)"
         style="stroke:none;stroke-opacity:1;fill:#414141;fill-opacity:1">
        <g
           id="g57"
           transform="translate(1.993,5.8530002)"
           style="stroke:none;stroke-opacity:1;fill:#414141;fill-opacity:1">
          <path
             d="m 5.578125,-3.3125 c 0,-0.265625 -0.09375,-0.65625 -0.40625,-0.65625 -0.234375,0 -0.46875,0.234375 -0.46875,0.453125 0,0.140625 0.046875,0.15625 0.125,0.234375 C 4.9375,-3.171875 5.15625,-2.9375 5.15625,-2.5 c 0,0.546875 -0.578125,1.9375 -1.484375,1.9375 -0.5,0 -0.796875,-0.359375 -0.875,-0.734375 0,-0.125 0.3125,-0.765625 0.3125,-1.09375 0,-0.125 -0.0625,-0.234375 -0.203125,-0.234375 -0.078125,0 -0.15625,0.046875 -0.203125,0.109375 -0.171875,0.203125 -0.25,0.9375 -0.25,1.15625 -0.296875,0.421875 -0.671875,0.78125 -1.21875,0.78125 -0.578125,0 -0.78125,-0.484375 -0.78125,-1 0,-0.6875 0.265625,-1.28125 0.84375,-2.03125 C 1.34375,-3.6875 1.34375,-3.71875 1.34375,-3.765625 c 0,-0.078125 -0.078125,-0.15625 -0.15625,-0.15625 -0.09375,0 -0.171875,0.078125 -0.203125,0.140625 -0.5,0.703125 -0.859375,1.6875 -0.859375,2.546875 0,0.703125 0.25,1.328125 1.03125,1.328125 0.5625,0 1.078125,-0.484375 1.34375,-0.890625 0.125,0.359375 0.328125,0.890625 1.046875,0.890625 0.703125,0 1.15625,-0.5625 1.5,-1.265625 C 5.203125,-1.53125 5.3125,-1.90625 5.40625,-2.28125 5.5,-2.671875 5.578125,-3.046875 5.578125,-3.3125 Z m 0,0"
             id="path56"
             style="stroke:none;stroke-opacity:1;fill:#414141;fill-opacity:1" />
        </g>
      </g>
      <g
         fill="#000000"
         fill-opacity="1"
         id="g60"
         transform="matrix(0.352778,0,0,0.352778,-0.747183,-0.664722)"
         style="stroke:none;stroke-opacity:1;fill:#414141;fill-opacity:1">
        <g
           id="g59"
           transform="translate(7.7259998,6.9159999)"
           style="stroke:none;stroke-opacity:1;fill:#414141;fill-opacity:1">
          <path
             d="m 1.296875,-1.34375 c 0,-0.546875 0.28125,-1.09375 0.8125,-1.109375 -0.046875,0.0625 -0.078125,0.125 -0.078125,0.203125 0,0.171875 0.125,0.28125 0.28125,0.28125 0.171875,0 0.28125,-0.109375 0.28125,-0.28125 0,-0.234375 -0.21875,-0.390625 -0.484375,-0.390625 -0.359375,0 -0.671875,0.21875 -0.859375,0.625 v -0.625 l -0.90625,0.0625 v 0.234375 c 0.421875,0 0.46875,0.046875 0.46875,0.34375 v 1.515625 c 0,0.25 -0.046875,0.25 -0.46875,0.25 V 0 C 0.5,-0.015625 0.9375,-0.03125 1.078125,-0.03125 1.375,-0.03125 1.796875,0 1.875,0 V -0.234375 H 1.75 c -0.453125,0 -0.453125,-0.0625 -0.453125,-0.265625 z m 0,0"
             id="path58"
             style="stroke:none;stroke-opacity:1;fill:#414141;fill-opacity:1" />
        </g>
      </g>
      <g
         fill="#000000"
         fill-opacity="1"
         id="g62"
         transform="matrix(0.352778,0,0,0.352778,-0.747183,-0.664722)"
         style="stroke:none;stroke-opacity:1;fill:#414141;fill-opacity:1">
        <g
           id="g61"
           transform="translate(10.604,6.9159999)"
           style="stroke:none;stroke-opacity:1;fill:#414141;fill-opacity:1">
          <path
             d="m 1.375,-0.078125 c 0,0.5625 -0.296875,0.890625 -0.453125,1.03125 C 0.875,1 0.84375,1.015625 0.84375,1.046875 c 0,0.0625 0.0625,0.109375 0.109375,0.109375 0.078125,0 0.625,-0.46875 0.625,-1.203125 0,-0.390625 -0.15625,-0.671875 -0.453125,-0.671875 -0.234375,0 -0.359375,0.1875 -0.359375,0.359375 C 0.765625,-0.1875 0.890625,0 1.140625,0 1.234375,0 1.3125,-0.03125 1.375,-0.078125 Z m 0,0"
             id="path60"
             style="stroke:none;stroke-opacity:1;fill:#414141;fill-opacity:1" />
        </g>
      </g>
      <g
         fill="#000000"
         fill-opacity="1"
         id="g65"
         transform="matrix(0.352778,0,0,0.352778,-0.747183,-0.664722)"
         style="stroke:none;stroke-opacity:1;fill:#414141;fill-opacity:1">
        <g
           id="g63"
           transform="translate(12.873,6.9159999)"
           style="stroke:none;stroke-opacity:1;fill:#414141;fill-opacity:1">
          <path
             d="m 2.8125,-1.359375 c 0.125,0 0.171875,0 0.171875,-0.140625 0,-0.453125 -0.25,-1.171875 -1.25,-1.171875 -0.84375,0 -1.453125,0.640625 -1.453125,1.359375 0,0.75 0.6875,1.375 1.53125,1.375 0.875,0 1.171875,-0.65625 1.171875,-0.78125 0,-0.03125 -0.015625,-0.09375 -0.109375,-0.09375 -0.078125,0 -0.09375,0.03125 -0.109375,0.109375 -0.1875,0.4375 -0.640625,0.546875 -0.90625,0.546875 -0.328125,0 -0.609375,-0.140625 -0.78125,-0.359375 -0.21875,-0.28125 -0.21875,-0.671875 -0.21875,-0.84375 z M 0.875,-1.53125 c 0.0625,-0.796875 0.609375,-0.953125 0.859375,-0.953125 0.765625,0 0.8125,0.78125 0.8125,0.953125 z m 0,0"
             id="path62"
             style="stroke:none;stroke-opacity:1;fill:#414141;fill-opacity:1" />
        </g>
        <g
           id="g64"
           transform="translate(16.138563,6.9159999)"
           style="stroke:none;stroke-opacity:1;fill:#414141;fill-opacity:1">
          <path
             d="m 1.328125,-4.15625 -0.9375,0.0625 v 0.234375 c 0.40625,0 0.46875,0.046875 0.46875,0.34375 v 3.03125 c 0,0.25 -0.0625,0.25 -0.46875,0.25 V 0 C 0.5625,-0.015625 1.046875,-0.03125 1.09375,-0.03125 1.328125,-0.03125 1.5625,-0.015625 1.796875,0 v -0.234375 c -0.40625,0 -0.46875,0 -0.46875,-0.25 z m 0,0"
             id="path63"
             style="stroke:none;stroke-opacity:1;fill:#414141;fill-opacity:1" />
        </g>
      </g>
    </g>
  </g>
</svg>
