<?xml version="1.0" encoding="UTF-8" standalone="no"?>
<!-- Created with Inkscape (http://www.inkscape.org/) -->

<svg
   width="64.164803mm"
   height="37.586155mm"
   viewBox="0 0 64.164803 37.586155"
   version="1.1"
   id="svg1"
   inkscape:version="1.3.2 (091e20e, 2023-11-25, custom)"
   sodipodi:docname="Kloss_formula_harmonics.svg"
   xmlns:inkscape="http://www.inkscape.org/namespaces/inkscape"
   xmlns:sodipodi="http://sodipodi.sourceforge.net/DTD/sodipodi-0.dtd"
   xmlns="http://www.w3.org/2000/svg"
   xmlns:svg="http://www.w3.org/2000/svg">
  <sodipodi:namedview
     id="namedview1"
     pagecolor="#505050"
     bordercolor="#eeeeee"
     borderopacity="1"
     inkscape:showpageshadow="0"
     inkscape:pageopacity="0"
     inkscape:pagecheckerboard="0"
     inkscape:deskcolor="#505050"
     inkscape:document-units="mm"
     showgrid="true"
     inkscape:zoom="5.6088805"
     inkscape:cx="112.85675"
     inkscape:cy="42.165277"
     inkscape:window-width="2560"
     inkscape:window-height="1351"
     inkscape:window-x="2551"
     inkscape:window-y="-9"
     inkscape:window-maximized="1"
     inkscape:current-layer="layer1">
    <inkscape:grid
       id="grid1"
       units="px"
       originx="-9.7140519"
       originy="-7.4689641"
       spacingx="0.26458333"
       spacingy="0.26458334"
       empcolor="#0099e5"
       empopacity="0.30196078"
       color="#0099e5"
       opacity="0.14901961"
       empspacing="5"
       dotted="false"
       gridanglex="30"
       gridanglez="30"
       visible="true" />
  </sodipodi:namedview>
  <defs
     id="defs1">
    <inkscape:path-effect
       effect="bspline"
       id="path-effect64"
       is_visible="true"
       lpeversion="1.3"
       weight="33.333333"
       steps="2"
       helper_size="0"
       apply_no_weight="true"
       apply_with_weight="true"
       only_selected="false"
       uniform="false" />
    <inkscape:path-effect
       effect="bspline"
       id="path-effect27"
       is_visible="true"
       lpeversion="1.3"
       weight="33.333333"
       steps="2"
       helper_size="0"
       apply_no_weight="true"
       apply_with_weight="true"
       only_selected="false"
       uniform="false" />
    <inkscape:path-effect
       effect="bspline"
       id="path-effect3"
       is_visible="true"
       lpeversion="1.3"
       weight="33.333333"
       steps="2"
       helper_size="0"
       apply_no_weight="true"
       apply_with_weight="true"
       only_selected="false"
       uniform="false" />
    <marker
       style="overflow:visible"
       id="Triangle"
       refX="0"
       refY="0"
       orient="auto-start-reverse"
       inkscape:stockid="Triangle arrow"
       markerWidth="1"
       markerHeight="1"
       viewBox="0 0 1 1"
       inkscape:isstock="true"
       inkscape:collect="always"
       preserveAspectRatio="xMidYMid">
      <path
         transform="scale(0.5)"
         style="fill:context-stroke;fill-rule:evenodd;stroke:context-stroke;stroke-width:1pt"
         d="M 5.77,0 -2.88,5 V -5 Z"
         id="path135" />
    </marker>
    <inkscape:path-effect
       effect="bspline"
       id="path-effect1"
       is_visible="true"
       lpeversion="1.3"
       weight="33.333333"
       steps="2"
       helper_size="0"
       apply_no_weight="true"
       apply_with_weight="true"
       only_selected="false"
       uniform="false" />
    <marker
       style="overflow:visible"
       id="Triangle-9"
       refX="0"
       refY="0"
       orient="auto-start-reverse"
       inkscape:stockid="Triangle arrow"
       markerWidth="1"
       markerHeight="1"
       viewBox="0 0 1 1"
       inkscape:isstock="true"
       inkscape:collect="always"
       preserveAspectRatio="xMidYMid">
      <path
         transform="scale(0.5)"
         style="fill:context-stroke;fill-rule:evenodd;stroke:context-stroke;stroke-width:1pt"
         d="M 5.77,0 -2.88,5 V -5 Z"
         id="path135-3" />
    </marker>
    <inkscape:path-effect
       effect="bspline"
       id="path-effect1-9"
       is_visible="true"
       lpeversion="1.3"
       weight="33.333333"
       steps="2"
       helper_size="0"
       apply_no_weight="true"
       apply_with_weight="true"
       only_selected="false"
       uniform="false" />
    <inkscape:path-effect
       effect="bspline"
       id="path-effect1-3"
       is_visible="true"
       lpeversion="1.3"
       weight="33.333333"
       steps="2"
       helper_size="0"
       apply_no_weight="true"
       apply_with_weight="true"
       only_selected="false"
       uniform="false" />
    <inkscape:path-effect
       effect="bspline"
       id="path-effect1-9-6"
       is_visible="true"
       lpeversion="1.3"
       weight="33.333333"
       steps="2"
       helper_size="0"
       apply_no_weight="true"
       apply_with_weight="true"
       only_selected="false"
       uniform="false" />
    <inkscape:path-effect
       effect="bspline"
       id="path-effect3-3"
       is_visible="true"
       lpeversion="1.3"
       weight="33.333333"
       steps="2"
       helper_size="0"
       apply_no_weight="true"
       apply_with_weight="true"
       only_selected="false"
       uniform="false" />
    <inkscape:path-effect
       effect="bspline"
       id="path-effect3-5"
       is_visible="true"
       lpeversion="1.3"
       weight="33.333333"
       steps="2"
       helper_size="0"
       apply_no_weight="true"
       apply_with_weight="true"
       only_selected="false"
       uniform="false" />
    <inkscape:path-effect
       effect="bspline"
       id="path-effect3-5-8"
       is_visible="true"
       lpeversion="1.3"
       weight="33.333333"
       steps="2"
       helper_size="0"
       apply_no_weight="true"
       apply_with_weight="true"
       only_selected="false"
       uniform="false" />
    <inkscape:path-effect
       effect="bspline"
       id="path-effect3-38"
       is_visible="true"
       lpeversion="1.3"
       weight="33.333333"
       steps="2"
       helper_size="0"
       apply_no_weight="true"
       apply_with_weight="true"
       only_selected="false"
       uniform="false" />
    <inkscape:path-effect
       effect="bspline"
       id="path-effect3-38-9"
       is_visible="true"
       lpeversion="1.3"
       weight="33.333333"
       steps="2"
       helper_size="0"
       apply_no_weight="true"
       apply_with_weight="true"
       only_selected="false"
       uniform="false" />
    <inkscape:path-effect
       effect="bspline"
       id="path-effect27-8"
       is_visible="true"
       lpeversion="1.3"
       weight="33.333333"
       steps="2"
       helper_size="0"
       apply_no_weight="true"
       apply_with_weight="true"
       only_selected="false"
       uniform="false" />
    <inkscape:path-effect
       effect="bspline"
       id="path-effect27-5"
       is_visible="true"
       lpeversion="1.3"
       weight="33.333333"
       steps="2"
       helper_size="0"
       apply_no_weight="true"
       apply_with_weight="true"
       only_selected="false"
       uniform="false" />
    <inkscape:path-effect
       effect="bspline"
       id="path-effect27-5-1"
       is_visible="true"
       lpeversion="1.3"
       weight="33.333333"
       steps="2"
       helper_size="0"
       apply_no_weight="true"
       apply_with_weight="true"
       only_selected="false"
       uniform="false" />
    <inkscape:path-effect
       effect="bspline"
       id="path-effect27-5-1-4"
       is_visible="true"
       lpeversion="1.3"
       weight="33.333333"
       steps="2"
       helper_size="0"
       apply_no_weight="true"
       apply_with_weight="true"
       only_selected="false"
       uniform="false" />
    <inkscape:path-effect
       effect="bspline"
       id="path-effect27-5-1-4-2"
       is_visible="true"
       lpeversion="1.3"
       weight="33.333333"
       steps="2"
       helper_size="0"
       apply_no_weight="true"
       apply_with_weight="true"
       only_selected="false"
       uniform="false" />
    <inkscape:path-effect
       effect="bspline"
       id="path-effect27-5-1-46"
       is_visible="true"
       lpeversion="1.3"
       weight="33.333333"
       steps="2"
       helper_size="0"
       apply_no_weight="true"
       apply_with_weight="true"
       only_selected="false"
       uniform="false" />
    <inkscape:path-effect
       effect="bspline"
       id="path-effect27-5-0"
       is_visible="true"
       lpeversion="1.3"
       weight="33.333333"
       steps="2"
       helper_size="0"
       apply_no_weight="true"
       apply_with_weight="true"
       only_selected="false"
       uniform="false" />
    <inkscape:path-effect
       effect="bspline"
       id="path-effect27-9"
       is_visible="true"
       lpeversion="1.3"
       weight="33.333333"
       steps="2"
       helper_size="0"
       apply_no_weight="true"
       apply_with_weight="true"
       only_selected="false"
       uniform="false" />
    <inkscape:path-effect
       effect="bspline"
       id="path-effect3-5-6"
       is_visible="true"
       lpeversion="1.3"
       weight="33.333333"
       steps="2"
       helper_size="0"
       apply_no_weight="true"
       apply_with_weight="true"
       only_selected="false"
       uniform="false" />
    <inkscape:path-effect
       effect="bspline"
       id="path-effect3-5-8-8"
       is_visible="true"
       lpeversion="1.3"
       weight="33.333333"
       steps="2"
       helper_size="0"
       apply_no_weight="true"
       apply_with_weight="true"
       only_selected="false"
       uniform="false" />
    <inkscape:path-effect
       effect="bspline"
       id="path-effect64-4"
       is_visible="true"
       lpeversion="1.3"
       weight="33.333333"
       steps="2"
       helper_size="0"
       apply_no_weight="true"
       apply_with_weight="true"
       only_selected="false"
       uniform="false" />
    <inkscape:path-effect
       effect="bspline"
       id="path-effect3-7"
       is_visible="true"
       lpeversion="1.3"
       weight="33.333333"
       steps="2"
       helper_size="0"
       apply_no_weight="true"
       apply_with_weight="true"
       only_selected="false"
       uniform="false" />
    <inkscape:path-effect
       effect="bspline"
       id="path-effect64-7"
       is_visible="true"
       lpeversion="1.3"
       weight="33.333333"
       steps="2"
       helper_size="0"
       apply_no_weight="true"
       apply_with_weight="true"
       only_selected="false"
       uniform="false" />
    <inkscape:path-effect
       effect="bspline"
       id="path-effect64-7-6"
       is_visible="true"
       lpeversion="1.3"
       weight="33.333333"
       steps="2"
       helper_size="0"
       apply_no_weight="true"
       apply_with_weight="true"
       only_selected="false"
       uniform="false" />
    <inkscape:path-effect
       effect="bspline"
       id="path-effect3-7-6"
       is_visible="true"
       lpeversion="1.3"
       weight="33.333333"
       steps="2"
       helper_size="0"
       apply_no_weight="true"
       apply_with_weight="true"
       only_selected="false"
       uniform="false" />
  </defs>
  <g
     inkscape:label="Layer 1"
     inkscape:groupmode="layer"
     id="layer1"
     transform="translate(-9.71409, -7.46897)">
    <path
       style="fill:#898989;fill-rule:evenodd;stroke:#000000;stroke-width:0.175063;stroke-linecap:round;stroke-miterlimit:3.9;stroke-dasharray:none;stroke-opacity:1;marker-end:url(#Triangle)"
       d="m 23.812499,7.9375002 c 0,14.1111118 0,28.2222228 0,42.3333348"
       id="path1"
       transform="matrix(0.84615221,0,0,-0.86765563,3.6635006,51.86619)"
       inkscape:original-d="m 23.812499,7.9375002 c 0,14.1111118 0,28.2222228 0,42.3333348"
       inkscape:path-effect="#path-effect1" />
    <path
       style="fill:#898989;fill-rule:evenodd;stroke:#000000;stroke-width:0.100745;stroke-linecap:round;stroke-miterlimit:3.9;stroke-dasharray:none;stroke-opacity:1;marker-end:url(#Triangle-9)"
       d="m 23.812499,7.9375002 c 0,14.1111118 0,28.2222228 0,42.3333348"
       id="path1-9"
       transform="matrix(0,1.478461,1.4994469,0,-2.112237,-7.424601)"
       inkscape:original-d="m 23.812499,7.9375002 c 0,14.1111118 0,28.2222228 0,42.3333348"
       inkscape:path-effect="#path-effect1-9" />
    <g
       fill="#000000"
       fill-opacity="1"
       id="g2"
       transform="matrix(0.352778,0,0,0.352778,19.879291,6.7489912)">
      <g
         id="use1"
         transform="translate(1.993,8.1190004)">
        <path
           d="m 3.9375,-5.46875 c 0.046875,-0.1875 0.078125,-0.28125 0.21875,-0.3125 0.078125,-0.015625 0.359375,-0.015625 0.546875,-0.015625 1.03125,0 1.34375,0.0625 1.34375,0.765625 0,0.109375 0,0.25 -0.078125,0.78125 l -0.015625,0.078125 c 0,0.0625 0.03125,0.125 0.125,0.125 0.109375,0 0.125,-0.09375 0.140625,-0.21875 l 0.234375,-1.5625 c 0.015625,-0.03125 0.015625,-0.09375 0.015625,-0.125 0,-0.125 -0.078125,-0.125 -0.25,-0.125 H 1.109375 c -0.21875,0 -0.21875,0.015625 -0.28125,0.1875 l -0.5625,1.578125 c -0.03125,0.109375 -0.03125,0.140625 -0.03125,0.140625 0,0.046875 0.03125,0.125 0.109375,0.125 0.109375,0 0.125,-0.0625 0.171875,-0.21875 0.5,-1.40625 0.78125,-1.53125 2.078125,-1.53125 H 2.9375 c 0.25,0 0.25,0.03125 0.25,0.109375 0,0.046875 -0.015625,0.109375 -0.03125,0.1875 l -1.203125,4.796875 c -0.078125,0.3125 -0.109375,0.421875 -1.0625,0.421875 -0.28125,0 -0.359375,0 -0.359375,0.171875 C 0.53125,0 0.640625,0 0.6875,0 c 0.234375,0 0.484375,-0.015625 0.734375,-0.015625 0.25,0 0.5,-0.015625 0.75,-0.015625 0.40625,0 0.421875,0 0.75,0.015625 C 3.046875,-0.015625 3.625,0 3.703125,0 c 0.078125,0 0.1875,0 0.1875,-0.15625 0,-0.125 -0.078125,-0.125 -0.296875,-0.125 -0.234375,0 -0.34375,0 -0.578125,-0.015625 -0.203125,-0.03125 -0.3125,-0.03125 -0.3125,-0.1875 0,-0.046875 0.015625,-0.109375 0.03125,-0.171875 z m 0,0"
           id="path4" />
      </g>
    </g>
    <g
       inkscape:label=""
       transform="matrix(0.99999863,0,0,0.99999863,70.985502,28.778951)"
       id="g59"
       style="fill:#000000;fill-opacity:1">
      <g
         fill="#000000"
         fill-opacity="1"
         id="g56"
         transform="matrix(0.352778,0,0,0.352778,-0.747183,-0.664722)">
        <g
           id="g55"
           transform="translate(1.993,5.8530002)">
          <path
             d="m 5.578125,-3.3125 c 0,-0.265625 -0.09375,-0.65625 -0.40625,-0.65625 -0.234375,0 -0.46875,0.234375 -0.46875,0.453125 0,0.140625 0.046875,0.15625 0.125,0.234375 C 4.9375,-3.171875 5.15625,-2.9375 5.15625,-2.5 c 0,0.546875 -0.578125,1.9375 -1.484375,1.9375 -0.5,0 -0.796875,-0.359375 -0.875,-0.734375 0,-0.125 0.3125,-0.765625 0.3125,-1.09375 0,-0.125 -0.0625,-0.234375 -0.203125,-0.234375 -0.078125,0 -0.15625,0.046875 -0.203125,0.109375 -0.171875,0.203125 -0.25,0.9375 -0.25,1.15625 -0.296875,0.421875 -0.671875,0.78125 -1.21875,0.78125 -0.578125,0 -0.78125,-0.484375 -0.78125,-1 0,-0.6875 0.265625,-1.28125 0.84375,-2.03125 C 1.34375,-3.6875 1.34375,-3.71875 1.34375,-3.765625 c 0,-0.078125 -0.078125,-0.15625 -0.15625,-0.15625 -0.09375,0 -0.171875,0.078125 -0.203125,0.140625 -0.5,0.703125 -0.859375,1.6875 -0.859375,2.546875 0,0.703125 0.25,1.328125 1.03125,1.328125 0.5625,0 1.078125,-0.484375 1.34375,-0.890625 0.125,0.359375 0.328125,0.890625 1.046875,0.890625 0.703125,0 1.15625,-0.5625 1.5,-1.265625 C 5.203125,-1.53125 5.3125,-1.90625 5.40625,-2.28125 5.5,-2.671875 5.578125,-3.046875 5.578125,-3.3125 Z m 0,0"
             id="path54" />
        </g>
      </g>
      <g
         fill="#000000"
         fill-opacity="1"
         id="g58"
         transform="matrix(0.352778,0,0,0.352778,-0.747183,-0.664722)">
        <g
           id="g57"
           transform="translate(7.7259998,6.849)">
          <path
             d="m 1.296875,-1.34375 c 0,-0.546875 0.28125,-1.09375 0.8125,-1.109375 -0.046875,0.0625 -0.078125,0.125 -0.078125,0.203125 0,0.171875 0.125,0.28125 0.28125,0.28125 0.171875,0 0.28125,-0.109375 0.28125,-0.28125 0,-0.234375 -0.21875,-0.390625 -0.484375,-0.390625 -0.359375,0 -0.671875,0.21875 -0.859375,0.625 v -0.625 l -0.90625,0.0625 v 0.234375 c 0.421875,0 0.46875,0.046875 0.46875,0.34375 v 1.515625 c 0,0.25 -0.046875,0.25 -0.46875,0.25 V 0 C 0.5,-0.015625 0.9375,-0.03125 1.078125,-0.03125 1.375,-0.03125 1.796875,0 1.875,0 V -0.234375 H 1.75 c -0.453125,0 -0.453125,-0.0625 -0.453125,-0.265625 z m 0,0"
             id="path56" />
        </g>
      </g>
    </g>
    <path
       style="fill:none;fill-rule:evenodd;stroke:#000000;stroke-width:0.15;stroke-linecap:round;stroke-miterlimit:3.9;stroke-dasharray:none;stroke-dashoffset:0"
       d="m 71.961174,34.238015 c -0.71448,0.179348 -1.428963,0.37227 -2.143444,0.582641 -0.714479,0.210371 -1.42896,0.439162 -2.143441,0.690251 -0.71448,0.251088 -1.429088,0.524474 -2.14357,0.825975 -0.71448,0.302469 -1.42896,0.634022 -2.143441,1.001445 -0.714481,0.367423 -1.428961,0.771685 -2.143442,1.221512 -0.714481,0.448856 -1.428963,0.944247 -2.143444,1.48908 -0.71448,0.544833 -1.428959,1.141047 -2.143441,1.763436 -0.714607,0.623359 -1.429088,1.283557 -2.14357,1.843901 -0.714478,0.559375 -1.428959,1.043132 -2.14344,0.952973 -0.714483,-0.09113 -1.428963,-0.794952 -2.143444,-3.091588 -0.71448,-2.296635 -1.428961,-6.482736 -2.143441,-11.452155 -0.714481,-4.969419 -1.428961,-10.203498 -2.143442,-13.503519 -0.714608,-3.30099 -1.42909,-4.824001 -2.143569,-5.384345 -0.714481,-0.560344 -1.428961,-0.267569 -2.143441,0.190983 -0.714485,0.458551 -1.428963,1.108085 -2.143443,1.738229 -0.714481,0.630146 -1.428963,1.254474 -2.143443,1.82742 -0.714481,0.572948 -1.42896,1.099361 -2.14357,1.577302 -0.714479,0.47794 -1.428961,0.908378 -2.143443,1.300037 -0.714479,0.390689 -1.428958,0.742601 -2.143442,1.062521 -0.714479,0.320889 -1.428959,0.610756 -2.143441,0.876386 -0.71448,0.264661 -1.428962,0.506055 -2.143443,0.728059 -0.714479,0.222006 -1.428958,0.42559 -2.143568,0.613665 -0.714479,0.188074 -1.428963,0.360637 -2.143443,0.521566 -0.714478,0.16093 -1.42896,0.309256 -2.143441,0.448857 -0.714865,0.138631 -1.428447,0.267569 -2.143313,0.388751 -0.714867,0.121181 -1.429733,0.234607 -2.143313,0.340278 -0.714868,0.10664 -1.429732,0.206493 -2.143312,0.300531 -0.71487,0.09404 -1.429735,0.183226 -2.143314,0.266599 -0.714868,0.08434 -1.429734,0.162869 -2.1445997,0.238486"
       title="t 1/(t/1+1/t)"
       id="path2" />
    <path
       style="fill:none;fill-rule:evenodd;stroke:#3d3d3d;stroke-width:0.15;stroke-linecap:round;stroke-miterlimit:3.9;stroke-dasharray:none;stroke-dashoffset:0;stroke-opacity:1"
       d="m 9.8646198,26.961567 c 0.2354842,-0.03523 0.4709682,-0.07313 0.7064522,-0.11446 0.235482,-0.04133 0.470967,-0.08627 0.706451,-0.135599 0.235483,-0.04933 0.471008,-0.103032 0.706493,-0.162261 0.235483,-0.05942 0.470967,-0.124553 0.70645,-0.196733 0.235485,-0.07218 0.470968,-0.151597 0.706451,-0.239965 0.235485,-0.08818 0.470968,-0.185496 0.706453,-0.292528 0.235482,-0.107032 0.470967,-0.224157 0.706451,-0.346425 0.235524,-0.122458 0.471008,-0.252153 0.706493,-0.362232 0.235482,-0.109889 0.470966,-0.204922 0.706449,-0.18721 0.235486,0.0179 0.47097,0.156167 0.706453,0.607338 0.235483,0.451172 0.470967,1.273526 0.706451,2.249763 0.235483,0.976237 0.470967,2.004465 0.706452,2.652751 0.235525,0.648475 0.471008,0.947669 0.706492,1.057748 0.235484,0.110079 0.470967,0.05256 0.70645,-0.03752 0.235485,-0.09008 0.470969,-0.217682 0.706452,-0.341473 0.235484,-0.123791 0.470967,-0.24644 0.706452,-0.358995 0.235483,-0.112555 0.470966,-0.215968 0.706493,-0.309859 0.235484,-0.09389 0.470967,-0.17845 0.706451,-0.25539 0.235483,-0.07675 0.470967,-0.145884 0.706451,-0.208731 0.235483,-0.06304 0.470967,-0.119983 0.706451,-0.172166 0.235484,-0.05199 0.470967,-0.09941 0.706452,-0.143026 0.235484,-0.04361 0.470966,-0.08361 0.706492,-0.120554 0.235484,-0.03695 0.470969,-0.07085 0.706452,-0.102461 0.235482,-0.03161 1.873276,-0.238721 2.811197,-0.347361 0.235269,-0.02725 0.470775,-0.05248 0.706409,-0.07637 0.235316,-0.02385 0.47082,-0.04586 0.706408,-0.06685 0.235358,-0.02097 0.470849,-0.04046 0.706408,-0.05904 0.235385,-0.01856 0.47059,-0.04053 0.706409,-0.05237 13.393333,-0.672305 39.981053,-1.043483 40.216664,-1.058333"
       title="t 1/(t/1+1/t)"
       id="path2-3"
       sodipodi:nodetypes="csscscscccsscssssccccccsaaaaac" />
    <path
       style="fill:none;fill-rule:evenodd;stroke:#757575;stroke-width:0.15;stroke-linecap:round;stroke-miterlimit:3.9;stroke-dasharray:none;stroke-dashoffset:0;stroke-opacity:1"
       d="m 71.966702,27.781255 c -0.126543,0.01878 -25.245924,-0.0015 -37.835414,0.79375 -0.703813,0.04446 -2.062456,0.214901 -2.103953,0.222127 -0.168036,0.02926 -0.336079,0.06106 -0.504119,0.09598 -0.16804,0.03492 -0.336109,0.07293 -0.50415,0.114854 -0.168039,0.04206 -0.336079,0.08816 -0.504119,0.139255 -0.168041,0.05109 -0.33608,0.107306 -0.504119,0.169856 -0.168041,0.06242 -0.336081,0.131301 -0.504122,0.207062 -0.168038,0.07576 -0.336079,0.158666 -0.504119,0.245212 -0.168069,0.08668 -0.336109,0.178483 -0.50415,0.2564 -0.168038,0.07778 -0.336079,0.145051 -0.504118,0.132514 -0.168042,-0.01267 -0.336082,-0.11054 -0.504121,-0.429895 -0.16804,-0.319356 -0.33608,-0.901447 -0.50412,-1.592463 -0.168039,-0.691015 -0.336079,-1.418832 -0.50412,-1.877712 -0.16807,-0.459014 -0.336109,-0.670794 -0.504149,-0.748712 -0.16804,-0.07792 -0.33608,-0.0372 -0.504119,0.02656 -0.168041,0.06376 -0.336081,0.154083 -0.50412,0.241707 -0.168041,0.08762 -0.33608,0.174439 -0.504121,0.25411 -0.168039,0.07967 -0.336079,0.15287 -0.504149,0.219329 -0.168041,0.06646 -0.33608,0.126313 -0.50412,0.180774 -0.168039,0.05433 -0.33608,0.103262 -0.50412,0.147747 -0.168039,0.04462 -0.336079,0.08493 -0.504119,0.121866 -0.16804,0.0368 -0.33608,0.07037 -0.504121,0.101238 -0.16804,0.03087 -0.336079,0.05918 -0.504149,0.08533 -0.16804,0.02615 -0.336081,0.05015 -0.50412,0.07253 -0.168039,0.02237 -1.336769,0.168975 -2.006055,0.245875 -0.167889,0.01929 -0.335944,0.03715 -0.50409,0.05406 -0.167922,0.01689 -0.335976,0.03246 -0.504089,0.04732 -0.167951,0.01484 -0.335996,0.02864 -0.504089,0.04179 -0.167971,0.01314 -0.33585,0.02801 -0.50409,0.03707 -2.364457,0.127265 -6.9313673,0.231948 -7.0994983,0.242459"
       title="t 1/(t/1+1/t)"
       id="path2-3-4"
       sodipodi:nodetypes="casscscscccsscssssccccccsaaaaac" />
    <path
       style="fill:none;fill-rule:evenodd;stroke:#c1c1c1;stroke-width:0.15;stroke-linecap:round;stroke-miterlimit:3.9;stroke-dasharray:none;stroke-dashoffset:0;stroke-opacity:1"
       d="m 9.8146397,27.629248 c 0,0 4.1380693,-0.05922 6.1981673,-0.234397 0.586858,-0.0499 1.751588,-0.23231 1.751588,-0.23231 0.108175,-0.0048 0.213456,-0.03815 0.320183,-0.05997 0.106728,-0.02182 0.213474,-0.04557 0.320202,-0.07176 0.106728,-0.02628 0.213455,-0.05508 0.320183,-0.087 0.106728,-0.03192 0.213455,-0.06704 0.320183,-0.106124 0.106728,-0.039 0.213455,-0.08204 0.320184,-0.12937 0.106726,-0.04734 0.213455,-0.09913 0.320182,-0.153206 0.106746,-0.05416 0.213474,-0.111514 0.320202,-0.160196 0.106727,-0.0486 0.213455,-0.09063 0.320182,-0.08279 0.106729,0.0079 0.213457,0.06906 0.320184,0.268594 0.106728,0.199529 0.213455,0.563213 0.320183,0.994952 0.106728,0.431738 0.213455,0.88647 0.320184,1.173172 0.106746,0.286787 0.213473,0.419105 0.320201,0.467787 0.106728,0.04868 0.213455,0.02324 0.320183,-0.01659 0.106728,-0.03984 0.213456,-0.09627 0.320183,-0.151016 0.106728,-0.05475 0.213455,-0.108987 0.320183,-0.158764 0.106728,-0.04978 0.213455,-0.09551 0.320202,-0.137035 0.106728,-0.04152 0.213455,-0.07892 0.320183,-0.112945 0.106728,-0.03394 0.213455,-0.06452 0.320183,-0.09231 0.106728,-0.02788 0.213455,-0.05306 0.320183,-0.07614 0.106728,-0.02299 0.213455,-0.04396 0.320184,-0.06325 0.106727,-0.01929 0.213454,-0.03698 0.320201,-0.05331 0.106728,-0.01634 0.213456,-0.03133 0.320183,-0.04531 0.106727,-0.01398 0.84902,-0.105574 1.274112,-0.15362 0.10663,-0.01205 0.213368,-0.02321 0.320164,-0.03377 0.106651,-0.01055 0.213388,-0.02028 0.320163,-0.02956 0.106671,-0.0093 0.213402,-0.01789 0.320164,-0.02611 0.106683,-0.0082 0.213245,-0.01898 0.320163,-0.02316 5.646314,-0.220593 13.432059,-0.235464 20.916197,-0.26249 12.208323,-0.04408 23.621022,0.0041 23.687223,5e-6"
       title="t 1/(t/1+1/t)"
       id="path2-3-0"
       sodipodi:nodetypes="casscscscccsscssssccccccsaaaassc" />
    <g
       inkscape:label=""
       transform="translate(46.266287,11.648418)"
       id="g60">
      <g
         fill="#000000"
         fill-opacity="1"
         id="g50"
         transform="matrix(0.352778,0,0,0.352778,-0.785768,-0.702248)">
        <g
           id="g49"
           transform="translate(1.993,10.284)">
          <path
             d="m 3.9375,-5.46875 c 0.046875,-0.1875 0.078125,-0.28125 0.21875,-0.3125 0.078125,-0.015625 0.359375,-0.015625 0.546875,-0.015625 1.03125,0 1.34375,0.0625 1.34375,0.765625 0,0.109375 0,0.25 -0.078125,0.78125 l -0.015625,0.078125 c 0,0.0625 0.03125,0.125 0.125,0.125 0.109375,0 0.125,-0.09375 0.140625,-0.21875 l 0.234375,-1.5625 c 0.015625,-0.03125 0.015625,-0.09375 0.015625,-0.125 0,-0.125 -0.078125,-0.125 -0.25,-0.125 H 1.109375 c -0.21875,0 -0.21875,0.015625 -0.28125,0.1875 l -0.5625,1.578125 c -0.03125,0.109375 -0.03125,0.140625 -0.03125,0.140625 0,0.046875 0.03125,0.125 0.109375,0.125 0.109375,0 0.125,-0.0625 0.171875,-0.21875 0.5,-1.40625 0.78125,-1.53125 2.078125,-1.53125 H 2.9375 c 0.25,0 0.25,0.03125 0.25,0.109375 0,0.046875 -0.015625,0.109375 -0.03125,0.1875 l -1.203125,4.796875 c -0.078125,0.3125 -0.109375,0.421875 -1.0625,0.421875 -0.28125,0 -0.359375,0 -0.359375,0.171875 C 0.53125,0 0.640625,0 0.6875,0 c 0.234375,0 0.484375,-0.015625 0.734375,-0.015625 0.25,0 0.5,-0.015625 0.75,-0.015625 0.40625,0 0.421875,0 0.75,0.015625 C 3.046875,-0.015625 3.625,0 3.703125,0 c 0.078125,0 0.1875,0 0.1875,-0.15625 0,-0.125 -0.078125,-0.125 -0.296875,-0.125 -0.234375,0 -0.34375,0 -0.578125,-0.015625 -0.203125,-0.03125 -0.3125,-0.03125 -0.3125,-0.1875 0,-0.046875 0.015625,-0.109375 0.03125,-0.171875 z m 0,0"
             id="path48" />
        </g>
      </g>
      <g
         fill="#000000"
         fill-opacity="1"
         id="g54"
         transform="matrix(0.352778,0,0,0.352778,-0.785768,-0.702248)">
        <g
           id="g51"
           transform="translate(8.6479998,6.4749999)">
          <path
             d="M 2.375,1.359375 C 1.71875,0.84375 1.1875,-0.09375 1.1875,-1.5 c 0,-1.375 0.53125,-2.34375 1.1875,-2.84375 0,0 0.03125,-0.03125 0.03125,-0.0625 0,-0.03125 -0.03125,-0.078125 -0.109375,-0.078125 -0.09375,0 -1.546875,0.9375 -1.546875,2.984375 0,2.046875 1.4375,3 1.546875,3 C 2.375,1.5 2.40625,1.453125 2.40625,1.40625 2.40625,1.375 2.375,1.359375 2.375,1.359375 Z m 0,0"
             id="path50" />
        </g>
        <g
           id="g52"
           transform="translate(11.526214,6.4749999)">
          <path
             d="m 2.140625,-3.796875 c 0,-0.1875 -0.015625,-0.1875 -0.203125,-0.1875 -0.390625,0.390625 -1,0.390625 -1.21875,0.390625 v 0.234375 c 0.15625,0 0.5625,0 0.921875,-0.171875 v 3.015625 c 0,0.203125 0,0.28125 -0.625,0.28125 h -0.25 V 0 c 0.328125,-0.03125 0.796875,-0.03125 1.125,-0.03125 0.328125,0 0.796875,0 1.125,0.03125 v -0.234375 h -0.25 c -0.625,0 -0.625,-0.078125 -0.625,-0.28125 z m 0,0"
             id="path51" />
        </g>
        <g
           id="g53"
           transform="translate(15.179126,6.4749999)">
          <path
             d="m 2.125,-1.5 c 0,-2.046875 -1.4375,-2.984375 -1.5625,-2.984375 -0.0625,0 -0.078125,0.046875 -0.078125,0.078125 0,0.03125 0,0.046875 0.109375,0.140625 C 1.125,-3.8125 1.6875,-2.921875 1.6875,-1.5 1.6875,-0.234375 1.25,0.71875 0.5625,1.296875 0.484375,1.375 0.484375,1.375 0.484375,1.40625 0.484375,1.4375 0.5,1.5 0.5625,1.5 0.671875,1.5 2.125,0.5625 2.125,-1.5 Z m 0,0"
             id="path52" />
        </g>
      </g>
    </g>
    <g
       inkscape:label=""
       transform="translate(15.042701,31.839435)"
       id="g70"
       style="fill:#3d3d3d;fill-opacity:1">
      <g
         fill="#000000"
         fill-opacity="1"
         id="g62"
         transform="matrix(0.352778,0,0,0.352778,-0.785768,-0.702248)"
         style="fill:#3d3d3d;fill-opacity:1">
        <g
           id="g61"
           transform="translate(1.993,10.284)"
           style="fill:#3d3d3d;fill-opacity:1">
          <path
             d="m 3.9375,-5.46875 c 0.046875,-0.1875 0.078125,-0.28125 0.21875,-0.3125 0.078125,-0.015625 0.359375,-0.015625 0.546875,-0.015625 1.03125,0 1.34375,0.0625 1.34375,0.765625 0,0.109375 0,0.25 -0.078125,0.78125 l -0.015625,0.078125 c 0,0.0625 0.03125,0.125 0.125,0.125 0.109375,0 0.125,-0.09375 0.140625,-0.21875 l 0.234375,-1.5625 c 0.015625,-0.03125 0.015625,-0.09375 0.015625,-0.125 0,-0.125 -0.078125,-0.125 -0.25,-0.125 H 1.109375 c -0.21875,0 -0.21875,0.015625 -0.28125,0.1875 l -0.5625,1.578125 c -0.03125,0.109375 -0.03125,0.140625 -0.03125,0.140625 0,0.046875 0.03125,0.125 0.109375,0.125 0.109375,0 0.125,-0.0625 0.171875,-0.21875 0.5,-1.40625 0.78125,-1.53125 2.078125,-1.53125 H 2.9375 c 0.25,0 0.25,0.03125 0.25,0.109375 0,0.046875 -0.015625,0.109375 -0.03125,0.1875 l -1.203125,4.796875 c -0.078125,0.3125 -0.109375,0.421875 -1.0625,0.421875 -0.28125,0 -0.359375,0 -0.359375,0.171875 C 0.53125,0 0.640625,0 0.6875,0 c 0.234375,0 0.484375,-0.015625 0.734375,-0.015625 0.25,0 0.5,-0.015625 0.75,-0.015625 0.40625,0 0.421875,0 0.75,0.015625 C 3.046875,-0.015625 3.625,0 3.703125,0 c 0.078125,0 0.1875,0 0.1875,-0.15625 0,-0.125 -0.078125,-0.125 -0.296875,-0.125 -0.234375,0 -0.34375,0 -0.578125,-0.015625 -0.203125,-0.03125 -0.3125,-0.03125 -0.3125,-0.1875 0,-0.046875 0.015625,-0.109375 0.03125,-0.171875 z m 0,0"
             id="path60"
             style="fill:#3d3d3d;fill-opacity:1" />
        </g>
      </g>
      <g
         fill="#000000"
         fill-opacity="1"
         id="g64"
         transform="matrix(0.352778,0,0,0.352778,-0.785768,-0.702248)"
         style="fill:#3d3d3d;fill-opacity:1">
        <g
           id="g63"
           transform="translate(8.6479998,6.4749999)"
           style="fill:#3d3d3d;fill-opacity:1">
          <path
             d="M 2.375,1.359375 C 1.71875,0.84375 1.1875,-0.09375 1.1875,-1.5 c 0,-1.375 0.53125,-2.34375 1.1875,-2.84375 0,0 0.03125,-0.03125 0.03125,-0.0625 0,-0.03125 -0.03125,-0.078125 -0.109375,-0.078125 -0.09375,0 -1.546875,0.9375 -1.546875,2.984375 0,2.046875 1.4375,3 1.546875,3 C 2.375,1.5 2.40625,1.453125 2.40625,1.40625 2.40625,1.375 2.375,1.359375 2.375,1.359375 Z m 0,0"
             id="path62"
             style="fill:#3d3d3d;fill-opacity:1" />
        </g>
      </g>
      <g
         fill="#000000"
         fill-opacity="1"
         id="g66"
         transform="matrix(0.352778,0,0,0.352778,-0.785768,-0.702248)"
         style="fill:#3d3d3d;fill-opacity:1">
        <g
           id="g65"
           transform="translate(11.526,6.4749999)"
           style="fill:#3d3d3d;fill-opacity:1">
          <path
             d="m 4.765625,-1.34375 c 0.09375,0 0.25,0 0.25,-0.15625 0,-0.15625 -0.15625,-0.15625 -0.25,-0.15625 H 1 c -0.109375,0 -0.25,0 -0.25,0.15625 0,0.15625 0.140625,0.15625 0.25,0.15625 z m 0,0"
             id="path64"
             style="fill:#3d3d3d;fill-opacity:1" />
        </g>
      </g>
      <g
         fill="#000000"
         fill-opacity="1"
         id="g69"
         transform="matrix(0.352778,0,0,0.352778,-0.785768,-0.702248)"
         style="fill:#3d3d3d;fill-opacity:1">
        <g
           id="g67"
           transform="translate(17.283001,6.4749999)"
           style="fill:#3d3d3d;fill-opacity:1">
          <path
             d="M 1.015625,-3.328125 C 1.21875,-3.265625 1.421875,-3.25 1.625,-3.25 c 0.140625,0 0.46875,0 0.84375,-0.203125 0.109375,-0.0625 0.46875,-0.3125 0.46875,-0.4375 0,-0.078125 -0.046875,-0.09375 -0.078125,-0.09375 -0.015625,0 -0.015625,0 -0.09375,0.03125 C 2.5625,-3.875 2.25,-3.78125 1.859375,-3.78125 1.5625,-3.78125 1.25,-3.84375 0.96875,-3.9375 0.921875,-3.96875 0.890625,-3.984375 0.875,-3.984375 c -0.09375,0 -0.09375,0.078125 -0.09375,0.171875 v 1.796875 c 0,0.09375 0,0.171875 0.109375,0.171875 C 0.953125,-1.84375 0.96875,-1.875 1,-1.921875 1.15625,-2.109375 1.421875,-2.3125 1.890625,-2.3125 2.625,-2.3125 2.625,-1.421875 2.625,-1.234375 2.625,-1 2.609375,-0.65625 2.40625,-0.40625 c -0.1875,0.21875 -0.46875,0.3125 -0.71875,0.3125 -0.40625,0 -0.828125,-0.21875 -0.96875,-0.578125 0.296875,0 0.328125,-0.234375 0.328125,-0.296875 0,-0.171875 -0.125,-0.3125 -0.3125,-0.3125 C 0.6875,-1.28125 0.4375,-1.25 0.4375,-0.953125 0.4375,-0.40625 0.953125,0.125 1.703125,0.125 2.53125,0.125 3.21875,-0.453125 3.21875,-1.203125 3.21875,-1.890625 2.671875,-2.5 1.890625,-2.5 c -0.375,0 -0.6875,0.125 -0.875,0.28125 z m 0,0"
             id="path66"
             style="fill:#3d3d3d;fill-opacity:1" />
        </g>
        <g
           id="g68"
           transform="translate(20.935911,6.4749999)"
           style="fill:#3d3d3d;fill-opacity:1">
          <path
             d="m 2.125,-1.5 c 0,-2.046875 -1.4375,-2.984375 -1.5625,-2.984375 -0.0625,0 -0.078125,0.046875 -0.078125,0.078125 0,0.03125 0,0.046875 0.109375,0.140625 C 1.125,-3.8125 1.6875,-2.921875 1.6875,-1.5 1.6875,-0.234375 1.25,0.71875 0.5625,1.296875 0.484375,1.375 0.484375,1.375 0.484375,1.40625 0.484375,1.4375 0.5,1.5 0.5625,1.5 0.671875,1.5 2.125,0.5625 2.125,-1.5 Z m 0,0"
             id="path67"
             style="fill:#3d3d3d;fill-opacity:1" />
        </g>
      </g>
    </g>
    <g
       inkscape:label=""
       transform="translate(25.163012,22.033315)"
       id="g77"
       style="fill:#757575;fill-opacity:1">
      <g
         fill="#000000"
         fill-opacity="1"
         id="g72"
         transform="matrix(0.352778,0,0,0.352778,-0.785768,-0.702248)"
         style="fill:#757575;fill-opacity:1">
        <g
           id="g71"
           transform="translate(1.993,10.284)"
           style="fill:#757575;fill-opacity:1">
          <path
             d="m 3.9375,-5.46875 c 0.046875,-0.1875 0.078125,-0.28125 0.21875,-0.3125 0.078125,-0.015625 0.359375,-0.015625 0.546875,-0.015625 1.03125,0 1.34375,0.0625 1.34375,0.765625 0,0.109375 0,0.25 -0.078125,0.78125 l -0.015625,0.078125 c 0,0.0625 0.03125,0.125 0.125,0.125 0.109375,0 0.125,-0.09375 0.140625,-0.21875 l 0.234375,-1.5625 c 0.015625,-0.03125 0.015625,-0.09375 0.015625,-0.125 0,-0.125 -0.078125,-0.125 -0.25,-0.125 H 1.109375 c -0.21875,0 -0.21875,0.015625 -0.28125,0.1875 l -0.5625,1.578125 c -0.03125,0.109375 -0.03125,0.140625 -0.03125,0.140625 0,0.046875 0.03125,0.125 0.109375,0.125 0.109375,0 0.125,-0.0625 0.171875,-0.21875 0.5,-1.40625 0.78125,-1.53125 2.078125,-1.53125 H 2.9375 c 0.25,0 0.25,0.03125 0.25,0.109375 0,0.046875 -0.015625,0.109375 -0.03125,0.1875 l -1.203125,4.796875 c -0.078125,0.3125 -0.109375,0.421875 -1.0625,0.421875 -0.28125,0 -0.359375,0 -0.359375,0.171875 C 0.53125,0 0.640625,0 0.6875,0 c 0.234375,0 0.484375,-0.015625 0.734375,-0.015625 0.25,0 0.5,-0.015625 0.75,-0.015625 0.40625,0 0.421875,0 0.75,0.015625 C 3.046875,-0.015625 3.625,0 3.703125,0 c 0.078125,0 0.1875,0 0.1875,-0.15625 0,-0.125 -0.078125,-0.125 -0.296875,-0.125 -0.234375,0 -0.34375,0 -0.578125,-0.015625 -0.203125,-0.03125 -0.3125,-0.03125 -0.3125,-0.1875 0,-0.046875 0.015625,-0.109375 0.03125,-0.171875 z m 0,0"
             id="path70"
             style="fill:#757575;fill-opacity:1" />
        </g>
      </g>
      <g
         fill="#000000"
         fill-opacity="1"
         id="g76"
         transform="matrix(0.352778,0,0,0.352778,-0.785768,-0.702248)"
         style="fill:#757575;fill-opacity:1">
        <g
           id="g73"
           transform="translate(8.6479998,6.4749999)"
           style="fill:#757575;fill-opacity:1">
          <path
             d="M 2.375,1.359375 C 1.71875,0.84375 1.1875,-0.09375 1.1875,-1.5 c 0,-1.375 0.53125,-2.34375 1.1875,-2.84375 0,0 0.03125,-0.03125 0.03125,-0.0625 0,-0.03125 -0.03125,-0.078125 -0.109375,-0.078125 -0.09375,0 -1.546875,0.9375 -1.546875,2.984375 0,2.046875 1.4375,3 1.546875,3 C 2.375,1.5 2.40625,1.453125 2.40625,1.40625 2.40625,1.375 2.375,1.359375 2.375,1.359375 Z m 0,0"
             id="path72"
             style="fill:#757575;fill-opacity:1" />
        </g>
        <g
           id="g74"
           transform="translate(11.526214,6.4749999)"
           style="fill:#757575;fill-opacity:1">
          <path
             d="m 3.421875,-3.609375 c 0.046875,-0.0625 0.046875,-0.078125 0.046875,-0.25 H 1.921875 c -0.234375,0 -0.390625,0 -0.625,-0.015625 C 1.015625,-3.890625 0.9375,-3.90625 0.90625,-4.046875 H 0.6875 l -0.21875,1.3125 H 0.6875 c 0.03125,-0.125 0.078125,-0.484375 0.171875,-0.546875 0.046875,-0.03125 0.5625,-0.03125 0.65625,-0.03125 h 1.34375 c -0.0625,0.078125 -0.375,0.46875 -0.53125,0.640625 C 1.75,-1.96875 1.34375,-1.125 1.34375,-0.21875 c 0,0.0625 0,0.34375 0.296875,0.34375 0.28125,0 0.28125,-0.28125 0.28125,-0.359375 v -0.15625 c 0,-1.15625 0.25,-1.734375 0.546875,-2.09375 z m 0,0"
             id="path73"
             style="fill:#757575;fill-opacity:1" />
        </g>
        <g
           id="g75"
           transform="translate(15.179126,6.4749999)"
           style="fill:#757575;fill-opacity:1">
          <path
             d="m 2.125,-1.5 c 0,-2.046875 -1.4375,-2.984375 -1.5625,-2.984375 -0.0625,0 -0.078125,0.046875 -0.078125,0.078125 0,0.03125 0,0.046875 0.109375,0.140625 C 1.125,-3.8125 1.6875,-2.921875 1.6875,-1.5 1.6875,-0.234375 1.25,0.71875 0.5625,1.296875 0.484375,1.375 0.484375,1.375 0.484375,1.40625 0.484375,1.4375 0.5,1.5 0.5625,1.5 0.671875,1.5 2.125,0.5625 2.125,-1.5 Z m 0,0"
             id="path74"
             style="fill:#757575;fill-opacity:1" />
        </g>
      </g>
    </g>
    <g
       inkscape:label=""
       transform="translate(32.508798,24.529086)"
       id="g88"
       style="fill:#c1c1c1;fill-opacity:1">
      <g
         fill="#000000"
         fill-opacity="1"
         id="g79"
         transform="matrix(0.352778,0,0,0.352778,-0.785768,-0.702248)"
         style="fill:#c1c1c1;fill-opacity:1">
        <g
           id="g78"
           transform="translate(1.993,10.284)"
           style="fill:#c1c1c1;fill-opacity:1">
          <path
             d="m 3.9375,-5.46875 c 0.046875,-0.1875 0.078125,-0.28125 0.21875,-0.3125 0.078125,-0.015625 0.359375,-0.015625 0.546875,-0.015625 1.03125,0 1.34375,0.0625 1.34375,0.765625 0,0.109375 0,0.25 -0.078125,0.78125 l -0.015625,0.078125 c 0,0.0625 0.03125,0.125 0.125,0.125 0.109375,0 0.125,-0.09375 0.140625,-0.21875 l 0.234375,-1.5625 c 0.015625,-0.03125 0.015625,-0.09375 0.015625,-0.125 0,-0.125 -0.078125,-0.125 -0.25,-0.125 H 1.109375 c -0.21875,0 -0.21875,0.015625 -0.28125,0.1875 l -0.5625,1.578125 c -0.03125,0.109375 -0.03125,0.140625 -0.03125,0.140625 0,0.046875 0.03125,0.125 0.109375,0.125 0.109375,0 0.125,-0.0625 0.171875,-0.21875 0.5,-1.40625 0.78125,-1.53125 2.078125,-1.53125 H 2.9375 c 0.25,0 0.25,0.03125 0.25,0.109375 0,0.046875 -0.015625,0.109375 -0.03125,0.1875 l -1.203125,4.796875 c -0.078125,0.3125 -0.109375,0.421875 -1.0625,0.421875 -0.28125,0 -0.359375,0 -0.359375,0.171875 C 0.53125,0 0.640625,0 0.6875,0 c 0.234375,0 0.484375,-0.015625 0.734375,-0.015625 0.25,0 0.5,-0.015625 0.75,-0.015625 0.40625,0 0.421875,0 0.75,0.015625 C 3.046875,-0.015625 3.625,0 3.703125,0 c 0.078125,0 0.1875,0 0.1875,-0.15625 0,-0.125 -0.078125,-0.125 -0.296875,-0.125 -0.234375,0 -0.34375,0 -0.578125,-0.015625 -0.203125,-0.03125 -0.3125,-0.03125 -0.3125,-0.1875 0,-0.046875 0.015625,-0.109375 0.03125,-0.171875 z m 0,0"
             id="path77"
             style="fill:#c1c1c1;fill-opacity:1" />
        </g>
      </g>
      <g
         fill="#000000"
         fill-opacity="1"
         id="g81"
         transform="matrix(0.352778,0,0,0.352778,-0.785768,-0.702248)"
         style="fill:#c1c1c1;fill-opacity:1">
        <g
           id="g80"
           transform="translate(8.6479998,6.4749999)"
           style="fill:#c1c1c1;fill-opacity:1">
          <path
             d="M 2.375,1.359375 C 1.71875,0.84375 1.1875,-0.09375 1.1875,-1.5 c 0,-1.375 0.53125,-2.34375 1.1875,-2.84375 0,0 0.03125,-0.03125 0.03125,-0.0625 0,-0.03125 -0.03125,-0.078125 -0.109375,-0.078125 -0.09375,0 -1.546875,0.9375 -1.546875,2.984375 0,2.046875 1.4375,3 1.546875,3 C 2.375,1.5 2.40625,1.453125 2.40625,1.40625 2.40625,1.375 2.375,1.359375 2.375,1.359375 Z m 0,0"
             id="path79"
             style="fill:#c1c1c1;fill-opacity:1" />
        </g>
      </g>
      <g
         fill="#000000"
         fill-opacity="1"
         id="g83"
         transform="matrix(0.352778,0,0,0.352778,-0.785768,-0.702248)"
         style="fill:#c1c1c1;fill-opacity:1">
        <g
           id="g82"
           transform="translate(11.526,6.4749999)"
           style="fill:#c1c1c1;fill-opacity:1">
          <path
             d="m 4.765625,-1.34375 c 0.09375,0 0.25,0 0.25,-0.15625 0,-0.15625 -0.15625,-0.15625 -0.25,-0.15625 H 1 c -0.109375,0 -0.25,0 -0.25,0.15625 0,0.15625 0.140625,0.15625 0.25,0.15625 z m 0,0"
             id="path81"
             style="fill:#c1c1c1;fill-opacity:1" />
        </g>
      </g>
      <g
         fill="#000000"
         fill-opacity="1"
         id="g87"
         transform="matrix(0.352778,0,0,0.352778,-0.785768,-0.702248)"
         style="fill:#c1c1c1;fill-opacity:1">
        <g
           id="g84"
           transform="translate(17.283001,6.4749999)"
           style="fill:#c1c1c1;fill-opacity:1">
          <path
             d="m 2.140625,-3.796875 c 0,-0.1875 -0.015625,-0.1875 -0.203125,-0.1875 -0.390625,0.390625 -1,0.390625 -1.21875,0.390625 v 0.234375 c 0.15625,0 0.5625,0 0.921875,-0.171875 v 3.015625 c 0,0.203125 0,0.28125 -0.625,0.28125 h -0.25 V 0 c 0.328125,-0.03125 0.796875,-0.03125 1.125,-0.03125 0.328125,0 0.796875,0 1.125,0.03125 v -0.234375 h -0.25 c -0.625,0 -0.625,-0.078125 -0.625,-0.28125 z m 0,0"
             id="path83"
             style="fill:#c1c1c1;fill-opacity:1" />
        </g>
        <g
           id="g85"
           transform="translate(20.935911,6.4749999)"
           style="fill:#c1c1c1;fill-opacity:1">
          <path
             d="m 2.140625,-3.796875 c 0,-0.1875 -0.015625,-0.1875 -0.203125,-0.1875 -0.390625,0.390625 -1,0.390625 -1.21875,0.390625 v 0.234375 c 0.15625,0 0.5625,0 0.921875,-0.171875 v 3.015625 c 0,0.203125 0,0.28125 -0.625,0.28125 h -0.25 V 0 c 0.328125,-0.03125 0.796875,-0.03125 1.125,-0.03125 0.328125,0 0.796875,0 1.125,0.03125 v -0.234375 h -0.25 c -0.625,0 -0.625,-0.078125 -0.625,-0.28125 z m 0,0"
             id="path84"
             style="fill:#c1c1c1;fill-opacity:1" />
        </g>
        <g
           id="g86"
           transform="translate(24.588823,6.4749999)"
           style="fill:#c1c1c1;fill-opacity:1">
          <path
             d="m 2.125,-1.5 c 0,-2.046875 -1.4375,-2.984375 -1.5625,-2.984375 -0.0625,0 -0.078125,0.046875 -0.078125,0.078125 0,0.03125 0,0.046875 0.109375,0.140625 C 1.125,-3.8125 1.6875,-2.921875 1.6875,-1.5 1.6875,-0.234375 1.25,0.71875 0.5625,1.296875 0.484375,1.375 0.484375,1.375 0.484375,1.40625 0.484375,1.4375 0.5,1.5 0.5625,1.5 0.671875,1.5 2.125,0.5625 2.125,-1.5 Z m 0,0"
             id="path85"
             style="fill:#c1c1c1;fill-opacity:1" />
        </g>
      </g>
    </g>
  </g>
</svg>
