<?xml version="1.0" encoding="UTF-8" standalone="no"?>
<!-- Created with Inkscape (http://www.inkscape.org/) -->

<svg
   width="53.348427mm"
   height="37.582462mm"
   viewBox="0 0 53.348427 37.582463"
   version="1.1"
   id="svg1"
   inkscape:version="1.3.2 (091e20e, 2023-11-25, custom)"
   sodipodi:docname="Kloss_formula_different_excitation_frequencies_field_weakening.svg"
   xmlns:inkscape="http://www.inkscape.org/namespaces/inkscape"
   xmlns:sodipodi="http://sodipodi.sourceforge.net/DTD/sodipodi-0.dtd"
   xmlns="http://www.w3.org/2000/svg"
   xmlns:svg="http://www.w3.org/2000/svg">
  <sodipodi:namedview
     id="namedview1"
     pagecolor="#505050"
     bordercolor="#eeeeee"
     borderopacity="1"
     inkscape:showpageshadow="0"
     inkscape:pageopacity="0"
     inkscape:pagecheckerboard="0"
     inkscape:deskcolor="#505050"
     inkscape:document-units="mm"
     showgrid="true"
     inkscape:zoom="5.6088806"
     inkscape:cx="108.22124"
     inkscape:cy="81.745367"
     inkscape:window-width="2560"
     inkscape:window-height="1351"
     inkscape:window-x="2551"
     inkscape:window-y="-9"
     inkscape:window-maximized="1"
     inkscape:current-layer="layer1">
    <inkscape:grid
       id="grid1"
       units="px"
       originx="-20.66502"
       originy="-7.4689641"
       spacingx="0.26458333"
       spacingy="0.26458334"
       empcolor="#0099e5"
       empopacity="0.30196078"
       color="#0099e5"
       opacity="0.14901961"
       empspacing="5"
       dotted="false"
       gridanglex="30"
       gridanglez="30"
       visible="true" />
  </sodipodi:namedview>
  <defs
     id="defs1">
    <inkscape:path-effect
       effect="bspline"
       id="path-effect6"
       is_visible="true"
       lpeversion="1.3"
       weight="33.333333"
       steps="2"
       helper_size="0"
       apply_no_weight="true"
       apply_with_weight="true"
       only_selected="false"
       uniform="false" />
    <marker
       style="overflow:visible"
       id="ArrowWideRounded"
       refX="0"
       refY="0"
       orient="auto-start-reverse"
       inkscape:stockid="Wide, rounded arrow"
       markerWidth="1.5"
       markerHeight="1.5"
       viewBox="0 0 1 1"
       inkscape:isstock="true"
       inkscape:collect="always"
       preserveAspectRatio="xMidYMid">
      <path
         style="fill:none;stroke:context-stroke;stroke-width:1;stroke-linecap:round"
         d="M 3,-3 0,0 3,3"
         transform="rotate(180,0.125,0)"
         sodipodi:nodetypes="ccc"
         id="path3" />
    </marker>
    <inkscape:path-effect
       effect="bspline"
       id="path-effect64"
       is_visible="true"
       lpeversion="1.3"
       weight="33.333333"
       steps="2"
       helper_size="0"
       apply_no_weight="true"
       apply_with_weight="true"
       only_selected="false"
       uniform="false" />
    <inkscape:path-effect
       effect="bspline"
       id="path-effect27"
       is_visible="true"
       lpeversion="1.3"
       weight="33.333333"
       steps="2"
       helper_size="0"
       apply_no_weight="true"
       apply_with_weight="true"
       only_selected="false"
       uniform="false" />
    <inkscape:path-effect
       effect="bspline"
       id="path-effect3"
       is_visible="true"
       lpeversion="1.3"
       weight="33.333333"
       steps="2"
       helper_size="0"
       apply_no_weight="true"
       apply_with_weight="true"
       only_selected="false"
       uniform="false" />
    <marker
       style="overflow:visible"
       id="Triangle"
       refX="0"
       refY="0"
       orient="auto-start-reverse"
       inkscape:stockid="Triangle arrow"
       markerWidth="1"
       markerHeight="1"
       viewBox="0 0 1 1"
       inkscape:isstock="true"
       inkscape:collect="always"
       preserveAspectRatio="xMidYMid">
      <path
         transform="scale(0.5)"
         style="fill:context-stroke;fill-rule:evenodd;stroke:context-stroke;stroke-width:1pt"
         d="M 5.77,0 -2.88,5 V -5 Z"
         id="path135" />
    </marker>
    <inkscape:path-effect
       effect="bspline"
       id="path-effect1"
       is_visible="true"
       lpeversion="1.3"
       weight="33.333333"
       steps="2"
       helper_size="0"
       apply_no_weight="true"
       apply_with_weight="true"
       only_selected="false"
       uniform="false" />
    <marker
       style="overflow:visible"
       id="Triangle-9"
       refX="0"
       refY="0"
       orient="auto-start-reverse"
       inkscape:stockid="Triangle arrow"
       markerWidth="1"
       markerHeight="1"
       viewBox="0 0 1 1"
       inkscape:isstock="true"
       inkscape:collect="always"
       preserveAspectRatio="xMidYMid">
      <path
         transform="scale(0.5)"
         style="fill:context-stroke;fill-rule:evenodd;stroke:context-stroke;stroke-width:1pt"
         d="M 5.77,0 -2.88,5 V -5 Z"
         id="path135-3" />
    </marker>
    <inkscape:path-effect
       effect="bspline"
       id="path-effect1-9"
       is_visible="true"
       lpeversion="1.3"
       weight="33.333333"
       steps="2"
       helper_size="0"
       apply_no_weight="true"
       apply_with_weight="true"
       only_selected="false"
       uniform="false" />
    <inkscape:path-effect
       effect="bspline"
       id="path-effect1-3"
       is_visible="true"
       lpeversion="1.3"
       weight="33.333333"
       steps="2"
       helper_size="0"
       apply_no_weight="true"
       apply_with_weight="true"
       only_selected="false"
       uniform="false" />
    <inkscape:path-effect
       effect="bspline"
       id="path-effect1-9-6"
       is_visible="true"
       lpeversion="1.3"
       weight="33.333333"
       steps="2"
       helper_size="0"
       apply_no_weight="true"
       apply_with_weight="true"
       only_selected="false"
       uniform="false" />
    <inkscape:path-effect
       effect="bspline"
       id="path-effect3-3"
       is_visible="true"
       lpeversion="1.3"
       weight="33.333333"
       steps="2"
       helper_size="0"
       apply_no_weight="true"
       apply_with_weight="true"
       only_selected="false"
       uniform="false" />
    <inkscape:path-effect
       effect="bspline"
       id="path-effect3-5"
       is_visible="true"
       lpeversion="1.3"
       weight="33.333333"
       steps="2"
       helper_size="0"
       apply_no_weight="true"
       apply_with_weight="true"
       only_selected="false"
       uniform="false" />
    <inkscape:path-effect
       effect="bspline"
       id="path-effect3-5-8"
       is_visible="true"
       lpeversion="1.3"
       weight="33.333333"
       steps="2"
       helper_size="0"
       apply_no_weight="true"
       apply_with_weight="true"
       only_selected="false"
       uniform="false" />
    <inkscape:path-effect
       effect="bspline"
       id="path-effect3-38"
       is_visible="true"
       lpeversion="1.3"
       weight="33.333333"
       steps="2"
       helper_size="0"
       apply_no_weight="true"
       apply_with_weight="true"
       only_selected="false"
       uniform="false" />
    <inkscape:path-effect
       effect="bspline"
       id="path-effect3-38-9"
       is_visible="true"
       lpeversion="1.3"
       weight="33.333333"
       steps="2"
       helper_size="0"
       apply_no_weight="true"
       apply_with_weight="true"
       only_selected="false"
       uniform="false" />
    <inkscape:path-effect
       effect="bspline"
       id="path-effect27-8"
       is_visible="true"
       lpeversion="1.3"
       weight="33.333333"
       steps="2"
       helper_size="0"
       apply_no_weight="true"
       apply_with_weight="true"
       only_selected="false"
       uniform="false" />
    <inkscape:path-effect
       effect="bspline"
       id="path-effect27-5"
       is_visible="true"
       lpeversion="1.3"
       weight="33.333333"
       steps="2"
       helper_size="0"
       apply_no_weight="true"
       apply_with_weight="true"
       only_selected="false"
       uniform="false" />
    <inkscape:path-effect
       effect="bspline"
       id="path-effect27-5-1"
       is_visible="true"
       lpeversion="1.3"
       weight="33.333333"
       steps="2"
       helper_size="0"
       apply_no_weight="true"
       apply_with_weight="true"
       only_selected="false"
       uniform="false" />
    <inkscape:path-effect
       effect="bspline"
       id="path-effect27-5-1-4"
       is_visible="true"
       lpeversion="1.3"
       weight="33.333333"
       steps="2"
       helper_size="0"
       apply_no_weight="true"
       apply_with_weight="true"
       only_selected="false"
       uniform="false" />
    <inkscape:path-effect
       effect="bspline"
       id="path-effect27-5-1-4-2"
       is_visible="true"
       lpeversion="1.3"
       weight="33.333333"
       steps="2"
       helper_size="0"
       apply_no_weight="true"
       apply_with_weight="true"
       only_selected="false"
       uniform="false" />
    <inkscape:path-effect
       effect="bspline"
       id="path-effect27-5-1-46"
       is_visible="true"
       lpeversion="1.3"
       weight="33.333333"
       steps="2"
       helper_size="0"
       apply_no_weight="true"
       apply_with_weight="true"
       only_selected="false"
       uniform="false" />
    <inkscape:path-effect
       effect="bspline"
       id="path-effect27-5-0"
       is_visible="true"
       lpeversion="1.3"
       weight="33.333333"
       steps="2"
       helper_size="0"
       apply_no_weight="true"
       apply_with_weight="true"
       only_selected="false"
       uniform="false" />
    <inkscape:path-effect
       effect="bspline"
       id="path-effect27-9"
       is_visible="true"
       lpeversion="1.3"
       weight="33.333333"
       steps="2"
       helper_size="0"
       apply_no_weight="true"
       apply_with_weight="true"
       only_selected="false"
       uniform="false" />
    <inkscape:path-effect
       effect="bspline"
       id="path-effect3-5-6"
       is_visible="true"
       lpeversion="1.3"
       weight="33.333333"
       steps="2"
       helper_size="0"
       apply_no_weight="true"
       apply_with_weight="true"
       only_selected="false"
       uniform="false" />
    <inkscape:path-effect
       effect="bspline"
       id="path-effect3-5-8-8"
       is_visible="true"
       lpeversion="1.3"
       weight="33.333333"
       steps="2"
       helper_size="0"
       apply_no_weight="true"
       apply_with_weight="true"
       only_selected="false"
       uniform="false" />
    <inkscape:path-effect
       effect="bspline"
       id="path-effect64-4"
       is_visible="true"
       lpeversion="1.3"
       weight="33.333333"
       steps="2"
       helper_size="0"
       apply_no_weight="true"
       apply_with_weight="true"
       only_selected="false"
       uniform="false" />
    <inkscape:path-effect
       effect="bspline"
       id="path-effect3-7"
       is_visible="true"
       lpeversion="1.3"
       weight="33.333333"
       steps="2"
       helper_size="0"
       apply_no_weight="true"
       apply_with_weight="true"
       only_selected="false"
       uniform="false" />
    <inkscape:path-effect
       effect="bspline"
       id="path-effect64-7"
       is_visible="true"
       lpeversion="1.3"
       weight="33.333333"
       steps="2"
       helper_size="0"
       apply_no_weight="true"
       apply_with_weight="true"
       only_selected="false"
       uniform="false" />
    <inkscape:path-effect
       effect="bspline"
       id="path-effect64-7-6"
       is_visible="true"
       lpeversion="1.3"
       weight="33.333333"
       steps="2"
       helper_size="0"
       apply_no_weight="true"
       apply_with_weight="true"
       only_selected="false"
       uniform="false" />
  </defs>
  <g
     inkscape:label="Layer 1"
     inkscape:groupmode="layer"
     id="layer1"
     transform="translate(-20.66506,-7.4689671)">
    <path
       style="fill:#898989;fill-rule:evenodd;stroke:#000000;stroke-width:0.166784;stroke-linecap:round;stroke-miterlimit:3.9;stroke-dasharray:none;stroke-opacity:1;marker-end:url(#Triangle)"
       d="m 23.812499,7.9375002 c 0,14.1111118 0,28.2222228 0,42.3333348"
       id="path1"
       transform="matrix(0.93349666,0,0,-0.86647832,1.5836109,51.856845)"
       inkscape:original-d="m 23.812499,7.9375002 c 0,14.1111118 0,28.2222228 0,42.3333348"
       inkscape:path-effect="#path-effect1" />
    <path
       style="fill:#898989;fill-rule:evenodd;stroke:#000000;stroke-width:0.128042;stroke-linecap:round;stroke-miterlimit:3.9;stroke-dasharray:none;stroke-opacity:1;marker-end:url(#Triangle-9)"
       d="m 23.812499,7.9375002 c 0,14.1111118 0,28.2222228 0,42.3333348"
       id="path1-9"
       transform="matrix(0,1.1714949,1.1714949,0,14.513758,-0.11497025)"
       inkscape:original-d="m 23.812499,7.9375002 c 0,14.1111118 0,28.2222228 0,42.3333348"
       inkscape:path-effect="#path-effect1-9" />
    <path
       style="fill:none;fill-rule:evenodd;stroke:#000000;stroke-width:0.149999;stroke-linecap:round;stroke-miterlimit:3.9;stroke-dasharray:none;stroke-opacity:1"
       d="m 73.938488,31.086521 c -0.176966,0.02452 -1.926984,0.257202 -2.166585,0.294334 -0.509726,0.079 -1.094563,0.174205 -1.471031,0.233212 -0.553449,0.08674 -1.10688,0.179052 -1.6603,0.278006 -0.55345,0.09895 -1.106869,0.204554 -1.660301,0.318056 -0.55343,0.113501 -1.106874,0.235084 -1.660304,0.366363 -0.553422,0.131103 -1.106846,0.272081 -1.660271,0.424554 -0.553419,0.152472 -1.106882,0.316798 -1.660299,0.494773 -0.553433,0.177974 -1.10688,0.369956 -1.660292,0.577563 -0.55343,0.207427 -1.10686,0.431018 -1.66031,0.670233 -0.55341,0.239215 -1.10687,0.494594 -1.66029,0.759668 -0.55343,0.265076 -1.10688,0.541108 -1.66029,0.802592 -0.55344,0.261664 -1.10688,0.511475 -1.66031,0.674722 -0.55343,0.163429 -1.10684,0.243167 -1.66031,0.06107 -0.55341,-0.181925 -1.10685,-0.639882 -1.66031,-1.622783 -0.55341,-0.98308 -1.10685,-2.542467 -1.66029,-4.516169 -0.55343,-1.973524 -1.10685,-4.310359 -1.6603,-6.284779 -0.55343,-1.974242 -1.10684,-3.532012 -1.6603,-4.515989 -0.55342,-0.983977 -1.10685,-1.440318 -1.66031,-1.622962 -0.5534,-0.182643 -1.10685,-0.102006 -1.66028,0.06107 -0.55344,0.163247 -1.10687,0.413237 -1.66028,0.674721 -0.55346,0.261485 -1.10697,0.537515 -1.66024,0.802592 -0.55346,0.265075 -1.10692,0.520633 -1.66039,0.759848 -0.55348,0.239216 -1.10694,0.462626 -1.66019,0.670233 -0.55348,0.207607 -1.10695,0.39941 -1.66042,0.577563 -0.55346,0.177976 -1.10693,0.342121 -1.6602,0.494594 -0.55346,0.152652 -1.10691,0.293451 -1.66039,0.424733 -0.55348,0.13128 -1.10694,0.252683 -1.6602,0.366365 -0.55347,0.113501 -1.106946,0.219101 -1.660416,0.318054 -0.55346,0.09877 -1.10694,0.191084 -1.66017,0.277828 -0.55349,0.08692 -1.10695,0.168095 -1.66041,0.244603"
       title="t 1/(t+1/t)"
       id="path2-9"
       sodipodi:nodetypes="csscscssccscccccccccccccccscccc" />
    <path
       style="fill:none;fill-rule:evenodd;stroke:#000000;stroke-width:0.149999;stroke-linecap:round;stroke-miterlimit:3.9;stroke-dasharray:none;stroke-opacity:1"
       d="m 73.938488,30.878904 c -0.55344,0.06266 0.129989,-0.01481 -0.423441,0.05606 -0.55345,0.07088 -1.10688,0.146303 -1.6603,0.227157 -0.55345,0.08085 -1.106869,0.167139 -1.660301,0.25988 -0.55343,0.09274 -1.106874,0.192085 -1.660304,0.299354 -0.553422,0.107121 -1.106846,0.222313 -1.660271,0.346897 -0.553419,0.124585 -1.106882,0.258853 -1.660299,0.404274 -0.553433,0.145422 -1.10688,0.302288 -1.660292,0.471923 -0.55343,0.169486 -1.10686,0.352179 -1.66031,0.547642 -0.55341,0.195459 -1.10687,0.404127 -1.66029,0.620716 -0.55343,0.216591 -1.10688,0.442136 -1.66029,0.65579 -0.55344,0.213805 -1.10688,0.417923 -1.66031,0.551309 -0.55343,0.133537 -1.10684,0.198691 -1.66031,0.0499 -0.55341,-0.148648 -1.10685,-0.52284 -1.66031,-1.32596 -0.55341,-0.803267 -1.10685,-2.077427 -1.66029,-3.690121 -0.55343,-1.612547 -1.10685,-3.521954 -1.6603,-5.135235 -0.55343,-1.613135 -1.10684,-2.885977 -1.6603,-3.689975 -0.55342,-0.803997 -1.10685,-1.17687 -1.66031,-1.326107 -0.5534,-0.149236 -1.10685,-0.08334 -1.66028,0.0499 -0.55344,0.133385 -1.10687,0.337652 -1.66028,0.551309 -0.55346,0.213656 -1.10697,0.439199 -1.66024,0.65579 -0.55346,0.216591 -1.10692,0.425404 -1.66039,0.620864 -0.55348,0.19546 -1.10694,0.378007 -1.66019,0.547642 -0.55348,0.169634 -1.10695,0.326355 -1.66042,0.471922 -0.55346,0.145422 -1.10693,0.279543 -1.6602,0.404127 -0.55346,0.124732 -1.10691,0.239778 -1.66039,0.347046 -0.55348,0.107267 -1.10694,0.206464 -1.6602,0.299353 -0.55347,0.09274 -1.106946,0.179026 -1.660416,0.25988 -0.55346,0.0807 -1.10694,0.156135 -1.66017,0.22701 -0.55349,0.07102 -4.321125,0.386188 -4.874585,0.448701"
       title="t 1/(t+1/t)"
       id="path2-9-3"
       sodipodi:nodetypes="cssscssccscccccccccccccccscccc" />
    <path
       style="fill:none;fill-rule:evenodd;stroke:#000000;stroke-width:0.149999;stroke-linecap:round;stroke-miterlimit:3.9;stroke-dasharray:none;stroke-opacity:1"
       d="m 73.938488,30.744386 c -0.55343,0.07224 -0.544782,0.0671 -1.098212,0.150664 -0.553422,0.08345 -1.106846,0.173188 -1.660271,0.270242 -0.553419,0.09705 -1.106882,0.20165 -1.660299,0.314937 -0.553433,0.113286 -1.10688,0.235488 -1.660292,0.367637 -0.55343,0.132033 -1.10686,0.274356 -1.66031,0.426624 -0.55341,0.152267 -1.10687,0.314823 -1.66029,0.483551 -0.55343,0.168729 -1.10688,0.344431 -1.66029,0.510874 -0.55344,0.166558 -1.10688,0.325568 -1.66031,0.42948 -0.55343,0.104027 -1.10684,0.154783 -1.66031,0.03886 -0.55341,-0.115802 -1.10685,-0.407305 -1.66031,-1.032951 -0.55341,-0.625758 -1.10685,-1.618356 -1.66029,-2.874677 -0.55343,-1.256206 -1.10685,-2.743672 -1.6603,-4.00045 -0.55343,-1.256664 -1.10684,-2.248232 -1.6603,-2.874563 -0.55342,-0.62633 -1.10685,-0.916806 -1.66031,-1.033064 -0.5534,-0.116258 -1.10685,-0.06493 -1.66028,0.03887 -0.55344,0.103912 -1.10687,0.26304 -1.66028,0.429482 -0.55346,0.166442 -1.10697,0.342143 -1.66024,0.510872 -0.55346,0.16873 -1.10692,0.3314 -1.66039,0.483667 -0.55348,0.152268 -1.10694,0.294475 -1.66019,0.426623 -0.55348,0.132149 -1.10695,0.254236 -1.66042,0.367636 -0.55346,0.113288 -1.10693,0.21777 -1.6602,0.314824 -0.55346,0.09717 -1.10691,0.186791 -1.66039,0.270356 -0.55348,0.08356 -1.10694,0.16084 -1.6602,0.2332 -0.55347,0.07224 -1.106946,0.139465 -1.660416,0.202453 -0.55346,0.06287 -1.10694,0.121631 -1.66017,0.176846 l -4.279106,0.301114 -4.901613,0.252704"
       title="t 1/(t+1/t)"
       id="path2-9-3-3"
       sodipodi:nodetypes="ccssccscccccccccccscccsccccc" />
    <path
       style="fill:none;fill-rule:evenodd;stroke:#000000;stroke-width:0.149999;stroke-linecap:round;stroke-miterlimit:3.9;stroke-dasharray:none;stroke-opacity:1"
       d="m 73.938488,31.826904 c -0.0038,7.11e-4 -3.853895,0.421408 -3.898274,0.428276 -0.428368,0.06631 -2.550275,0.389715 -2.587185,0.396642 -0.512702,0.09621 -1.025401,0.197687 -1.538098,0.305577 -0.553449,0.116467 -1.10688,0.2404 -1.6603,0.373257 -0.55345,0.132857 -1.106869,0.274637 -1.660301,0.427027 -0.55343,0.15239 -1.106874,0.315628 -1.660304,0.491887 -0.553422,0.176021 -1.106846,0.365301 -1.660271,0.570014 -0.553419,0.204714 -1.106882,0.425339 -1.660299,0.664292 -0.553433,0.23895 -1.10688,0.49671 -1.660292,0.775447 -0.55343,0.278495 -1.10686,0.578693 -1.66031,0.899868 -0.55341,0.321174 -1.10687,0.66405 -1.66029,1.019947 -0.55343,0.355893 -1.10688,0.7265 -1.66029,1.077572 -0.55344,0.351315 -1.10688,0.686716 -1.66031,0.905896 -0.55343,0.21942 -1.10684,0.32648 -1.66031,0.08199 -0.55341,-0.244256 -1.10685,-0.859117 -1.66031,-2.17878 -0.55341,-1.3199 -1.10685,-3.413563 -1.66029,-6.063495 -0.55343,-2.649689 -1.10685,-5.787167 -1.6603,-8.438061 -0.55343,-2.650655 -1.10684,-4.742146 -1.6603,-6.063253 -0.55342,-1.321107 -1.10685,-1.933798 -1.66031,-2.179021 -0.5534,-0.245219 -1.10685,-0.136955 -1.66028,0.082 -0.55344,0.219179 -1.10687,0.554823 -1.66028,0.905896 -0.55346,0.351071 -1.10697,0.721677 -1.66024,1.077574 -0.55346,0.355895 -1.10692,0.699012 -1.66039,1.020185 -0.55348,0.321176 -1.10694,0.621131 -1.66019,0.899868 -0.55348,0.278738 -1.10695,0.536257 -1.66042,0.775449 -0.55346,0.238953 -1.10693,0.459337 -1.6602,0.66405 -0.55346,0.204953 -1.10691,0.393993 -1.66039,0.570254 -0.55348,0.17626 -1.701995,0.488483 -2.255255,0.641114"
       title="t 1/(t+1/t)"
       id="path2-9-3-3-1"
       sodipodi:nodetypes="cssscscscccscccccccccccccccsc" />
    <path
       style="fill:none;fill-rule:evenodd;stroke:#000000;stroke-width:0.149999;stroke-linecap:round;stroke-miterlimit:3.9;stroke-dasharray:none;stroke-opacity:1"
       d="m 73.917223,32.808339 c -0.004,0.001 -6.85302,0.872592 -6.952846,0.890657 -0.73674,0.133324 -3.728683,0.668247 -3.758491,0.675737 -0.519592,0.13057 -1.039176,0.268381 -1.558761,0.415023 -0.553448,0.156199 -1.10688,0.322413 -1.6603,0.500596 -0.55345,0.178181 -1.145196,0.301189 -1.698628,0.505568 -0.55343,0.204378 -1.106874,0.423307 -1.660304,0.659698 -0.553422,0.236071 -1.106846,0.489926 -1.660271,0.764478 -0.553419,0.274552 -1.106882,0.570446 -1.660299,0.890919 -0.553433,0.320471 -1.10688,0.666167 -1.660292,1.039998 -0.55343,0.373506 -1.10686,0.776117 -1.66031,1.206864 -0.55341,0.430745 -1.10687,0.890596 -1.66029,1.367907 -0.55343,0.477312 -1.10688,0.974352 -1.66029,1.445195 -0.55344,0.47117 -1.10688,0.920995 -1.66031,1.214948 -0.55343,0.294279 -1.10684,0.437862 -1.66031,0.109961 -0.55341,-0.327586 -1.10685,-1.152212 -1.66031,-2.922086 -0.55341,-1.770195 -1.10685,-4.578126 -1.66029,-8.1321 -0.55343,-3.55365 -1.10685,-7.761503 -1.6603,-11.316769 -0.55343,-3.554945 -1.10684,-6.359964 -1.6603,-8.131776 -0.55342,-1.771812 -1.10685,-2.593528 -1.66031,-2.922409 -0.5534,-0.328878 -1.10685,-0.183678 -1.66028,0.109961 -0.55344,0.293953 -1.10687,0.744102 -1.66028,1.214948 -0.55346,0.470843 -1.10697,0.967883 -1.66024,1.445196 -0.55346,0.477312 -1.10692,0.937485 -1.66039,1.36823 -0.55348,0.430747 -1.10694,0.833034 -1.66019,1.206864 -0.55348,0.373831 -1.10695,0.719204 -1.66042,1.039998 -0.55346,0.320474 -0.716442,0.37261 -1.269712,0.647162"
       title="t 1/(t+1/t)"
       id="path2-9-3-3-1-7"
       sodipodi:nodetypes="cssscscscccsccccccccccccccc" />
    <path
       style="fill:none;fill-rule:evenodd;stroke:#000000;stroke-width:0.149999;stroke-linecap:round;stroke-miterlimit:3.9;stroke-dasharray:none;stroke-opacity:1"
       d="m 73.938488,30.747576 c -0.553433,0.09383 -1.556913,0.254775 -2.110325,0.364236 -0.55343,0.109367 -1.10686,0.227255 -1.66031,0.353383 -0.55341,0.126127 -1.10687,0.260776 -1.66029,0.400537 -0.55343,0.139762 -1.10688,0.285301 -1.66029,0.423168 -0.55344,0.137964 -1.10688,0.269677 -1.66031,0.35575 -0.55343,0.08617 -1.10684,0.12821 -1.66031,0.0322 -0.55341,-0.09592 -1.10685,-0.33738 -1.66031,-0.855617 -0.55341,-0.518332 -1.10685,-1.340523 -1.66029,-2.381163 -0.55343,-1.040545 -1.10685,-2.272648 -1.6603,-3.313666 -0.55343,-1.040925 -1.10684,-1.862263 -1.6603,-2.381068 -0.55342,-0.518804 -1.10685,-0.759412 -1.66031,-0.855712 -0.5534,-0.0963 -1.10685,-0.05379 -1.66028,0.0322 -0.55344,0.08608 -1.10687,0.21788 -1.66028,0.355749 -0.55346,0.137868 -1.10697,0.283407 -1.66024,0.423169 -0.55346,0.139762 -1.10692,0.274504 -1.66039,0.400631 -0.55348,0.126127 -1.10694,0.243921 -1.66019,0.353382 -0.55348,0.109462 -1.10695,0.210591 -1.66042,0.304522 -0.55346,0.09384 -1.10693,0.180384 -1.6602,0.260776 -0.55346,0.08048 -1.10691,0.154723 -1.66039,0.223942 -0.55348,0.06922 -1.10694,0.133228 -1.6602,0.193167 -0.55347,0.05984 -1.106946,0.115521 -1.660416,0.167695 -0.55346,0.05208 -1.10694,0.100753 -1.66017,0.146485 l -7.439221,0.355181 -5.710207,0.20413"
       title="t 1/(t+1/t)"
       id="path2-9-3-3-1-7-5"
       sodipodi:nodetypes="cccscccccccccccscccsccccc" />
    <g
       fill="#000000"
       fill-opacity="1"
       id="g2"
       transform="matrix(0.352778,0,0,0.352778,19.879291,6.7489912)">
      <g
         id="use1"
         transform="translate(1.993,8.1190004)">
        <path
           d="m 3.9375,-5.46875 c 0.046875,-0.1875 0.078125,-0.28125 0.21875,-0.3125 0.078125,-0.015625 0.359375,-0.015625 0.546875,-0.015625 1.03125,0 1.34375,0.0625 1.34375,0.765625 0,0.109375 0,0.25 -0.078125,0.78125 l -0.015625,0.078125 c 0,0.0625 0.03125,0.125 0.125,0.125 0.109375,0 0.125,-0.09375 0.140625,-0.21875 l 0.234375,-1.5625 c 0.015625,-0.03125 0.015625,-0.09375 0.015625,-0.125 0,-0.125 -0.078125,-0.125 -0.25,-0.125 H 1.109375 c -0.21875,0 -0.21875,0.015625 -0.28125,0.1875 l -0.5625,1.578125 c -0.03125,0.109375 -0.03125,0.140625 -0.03125,0.140625 0,0.046875 0.03125,0.125 0.109375,0.125 0.109375,0 0.125,-0.0625 0.171875,-0.21875 0.5,-1.40625 0.78125,-1.53125 2.078125,-1.53125 H 2.9375 c 0.25,0 0.25,0.03125 0.25,0.109375 0,0.046875 -0.015625,0.109375 -0.03125,0.1875 l -1.203125,4.796875 c -0.078125,0.3125 -0.109375,0.421875 -1.0625,0.421875 -0.28125,0 -0.359375,0 -0.359375,0.171875 C 0.53125,0 0.640625,0 0.6875,0 c 0.234375,0 0.484375,-0.015625 0.734375,-0.015625 0.25,0 0.5,-0.015625 0.75,-0.015625 0.40625,0 0.421875,0 0.75,0.015625 C 3.046875,-0.015625 3.625,0 3.703125,0 c 0.078125,0 0.1875,0 0.1875,-0.15625 0,-0.125 -0.078125,-0.125 -0.296875,-0.125 -0.234375,0 -0.34375,0 -0.578125,-0.015625 -0.203125,-0.03125 -0.3125,-0.03125 -0.3125,-0.1875 0,-0.046875 0.015625,-0.109375 0.03125,-0.171875 z m 0,0"
           id="path4" />
      </g>
    </g>
    <g
       inkscape:label=""
       transform="matrix(0.99999863,0,0,0.99999863,70.985502,28.778951)"
       id="g59"
       style="fill:#000000;fill-opacity:1">
      <g
         fill="#000000"
         fill-opacity="1"
         id="g56"
         transform="matrix(0.352778,0,0,0.352778,-0.747183,-0.664722)">
        <g
           id="g55"
           transform="translate(1.993,5.8530002)">
          <path
             d="m 5.578125,-3.3125 c 0,-0.265625 -0.09375,-0.65625 -0.40625,-0.65625 -0.234375,0 -0.46875,0.234375 -0.46875,0.453125 0,0.140625 0.046875,0.15625 0.125,0.234375 C 4.9375,-3.171875 5.15625,-2.9375 5.15625,-2.5 c 0,0.546875 -0.578125,1.9375 -1.484375,1.9375 -0.5,0 -0.796875,-0.359375 -0.875,-0.734375 0,-0.125 0.3125,-0.765625 0.3125,-1.09375 0,-0.125 -0.0625,-0.234375 -0.203125,-0.234375 -0.078125,0 -0.15625,0.046875 -0.203125,0.109375 -0.171875,0.203125 -0.25,0.9375 -0.25,1.15625 -0.296875,0.421875 -0.671875,0.78125 -1.21875,0.78125 -0.578125,0 -0.78125,-0.484375 -0.78125,-1 0,-0.6875 0.265625,-1.28125 0.84375,-2.03125 C 1.34375,-3.6875 1.34375,-3.71875 1.34375,-3.765625 c 0,-0.078125 -0.078125,-0.15625 -0.15625,-0.15625 -0.09375,0 -0.171875,0.078125 -0.203125,0.140625 -0.5,0.703125 -0.859375,1.6875 -0.859375,2.546875 0,0.703125 0.25,1.328125 1.03125,1.328125 0.5625,0 1.078125,-0.484375 1.34375,-0.890625 0.125,0.359375 0.328125,0.890625 1.046875,0.890625 0.703125,0 1.15625,-0.5625 1.5,-1.265625 C 5.203125,-1.53125 5.3125,-1.90625 5.40625,-2.28125 5.5,-2.671875 5.578125,-3.046875 5.578125,-3.3125 Z m 0,0"
             id="path54" />
        </g>
      </g>
      <g
         fill="#000000"
         fill-opacity="1"
         id="g58"
         transform="matrix(0.352778,0,0,0.352778,-0.747183,-0.664722)">
        <g
           id="g57"
           transform="translate(7.7259998,6.849)">
          <path
             d="m 1.296875,-1.34375 c 0,-0.546875 0.28125,-1.09375 0.8125,-1.109375 -0.046875,0.0625 -0.078125,0.125 -0.078125,0.203125 0,0.171875 0.125,0.28125 0.28125,0.28125 0.171875,0 0.28125,-0.109375 0.28125,-0.28125 0,-0.234375 -0.21875,-0.390625 -0.484375,-0.390625 -0.359375,0 -0.671875,0.21875 -0.859375,0.625 v -0.625 l -0.90625,0.0625 v 0.234375 c 0.421875,0 0.46875,0.046875 0.46875,0.34375 v 1.515625 c 0,0.25 -0.046875,0.25 -0.46875,0.25 V 0 C 0.5,-0.015625 0.9375,-0.03125 1.078125,-0.03125 1.375,-0.03125 1.796875,0 1.875,0 V -0.234375 H 1.75 c -0.453125,0 -0.453125,-0.0625 -0.453125,-0.265625 z m 0,0"
             id="path56" />
        </g>
      </g>
    </g>
    <path
       style="fill:#000000;fill-opacity:1;fill-rule:evenodd;stroke:#000000;stroke-width:0.1;stroke-linecap:round;stroke-miterlimit:3.9;stroke-dasharray:none;stroke-dashoffset:0;stroke-opacity:1;marker-start:url(#ArrowWideRounded)"
       d="m 77.32,23.943522 c -9.348609,0.02467 -18.69723,0.04935 -28.045831,0.07402"
       id="path64"
       inkscape:original-d="m 77.32,23.943522 c -9.348609,0.02467 -18.69723,0.04934 -28.045831,0.07402"
       inkscape:path-effect="#path-effect64"
       transform="translate(-13.819964,7.0127336)"
       sodipodi:nodetypes="cc" />
    <g
       inkscape:label=""
       transform="translate(61.832837,27.53371)"
       id="g7">
      <g
         fill="#000000"
         fill-opacity="1"
         id="g6"
         transform="matrix(0.31819873,0,0,0.30465784,1.5976032,0.09980434)"
         style="stroke-width:1.13304">
        <g
           id="g5"
           transform="translate(1.993,8.2189999)"
           style="stroke-width:1.13304">
          <path
             d="m 2.5,-4.9375 c 0.28125,0.421875 0.609375,0.671875 0.703125,0.765625 0.53125,0.375 1.09375,0.484375 1.140625,0.484375 0.109375,0 0.109375,-0.109375 0.109375,-0.1875 0,-0.109375 0,-0.15625 -0.109375,-0.1875 C 2.765625,-4.5 2.5,-5.703125 2.40625,-6.140625 2.390625,-6.171875 2.34375,-6.21875 2.3125,-6.21875 c -0.09375,0 -0.125,0.078125 -0.125,0.09375 C 2.125,-5.84375 2.015625,-5.28125 1.5,-4.765625 1.28125,-4.53125 0.90625,-4.25 0.328125,-4.078125 0.15625,-4.03125 0.140625,-4.03125 0.140625,-3.875 c 0,0.078125 0,0.1875 0.125,0.1875 0.03125,0 0.59375,-0.09375 1.140625,-0.515625 C 1.8125,-4.5 2.078125,-4.90625 2.109375,-4.9375 v 6.34375 c 0,0.15625 0,0.328125 0.1875,0.328125 C 2.5,1.734375 2.5,1.5625 2.5,1.40625 Z m 0,0"
             id="path2"
             style="stroke-width:1.13304" />
        </g>
      </g>
    </g>
    <g
       inkscape:label=""
       transform="translate(61.376426,28.745202)"
       id="g8">
      <g
         fill="#000000"
         fill-opacity="1"
         id="g3"
         transform="matrix(0.352778,0,0,0.352778,-0.747183,-0.664722)">
        <g
           id="use2"
           transform="translate(1.993,5.8530002)">
          <path
             d="m 5.578125,-3.3125 c 0,-0.265625 -0.09375,-0.65625 -0.40625,-0.65625 -0.234375,0 -0.46875,0.234375 -0.46875,0.453125 0,0.140625 0.046875,0.15625 0.125,0.234375 C 4.9375,-3.171875 5.15625,-2.9375 5.15625,-2.5 c 0,0.546875 -0.578125,1.9375 -1.484375,1.9375 -0.5,0 -0.796875,-0.359375 -0.875,-0.734375 0,-0.125 0.3125,-0.765625 0.3125,-1.09375 0,-0.125 -0.0625,-0.234375 -0.203125,-0.234375 -0.078125,0 -0.15625,0.046875 -0.203125,0.109375 -0.171875,0.203125 -0.25,0.9375 -0.25,1.15625 -0.296875,0.421875 -0.671875,0.78125 -1.21875,0.78125 -0.578125,0 -0.78125,-0.484375 -0.78125,-1 0,-0.6875 0.265625,-1.28125 0.84375,-2.03125 C 1.34375,-3.6875 1.34375,-3.71875 1.34375,-3.765625 c 0,-0.078125 -0.078125,-0.15625 -0.15625,-0.15625 -0.09375,0 -0.171875,0.078125 -0.203125,0.140625 -0.5,0.703125 -0.859375,1.6875 -0.859375,2.546875 0,0.703125 0.25,1.328125 1.03125,1.328125 0.5625,0 1.078125,-0.484375 1.34375,-0.890625 0.125,0.359375 0.328125,0.890625 1.046875,0.890625 0.703125,0 1.15625,-0.5625 1.5,-1.265625 C 5.203125,-1.53125 5.3125,-1.90625 5.40625,-2.28125 5.5,-2.671875 5.578125,-3.046875 5.578125,-3.3125 Z m 0,0"
             id="path7" />
        </g>
      </g>
      <g
         fill="#000000"
         fill-opacity="1"
         id="g4"
         transform="matrix(0.352778,0,0,0.352778,-0.747183,-0.664722)">
        <g
           id="use3"
           transform="translate(7.7259998,6.849)">
          <path
             d="m 2.421875,-2.5 c 0,-0.109375 0,-0.171875 -0.09375,-0.171875 -0.03125,0 -0.046875,0 -0.125,0.078125 C 2.1875,-2.578125 2.171875,-2.578125 2.09375,-2.5 1.859375,-2.65625 1.5625,-2.671875 1.4375,-2.671875 c -0.9375,0 -1.125,0.46875 -1.125,0.75 0,0.578125 0.703125,0.6875 1.171875,0.765625 0.265625,0.046875 0.78125,0.125 0.78125,0.515625 0,0.234375 -0.171875,0.515625 -0.78125,0.515625 -0.578125,0 -0.8125,-0.34375 -0.9375,-0.796875 C 0.53125,-0.96875 0.515625,-1 0.4375,-1 c -0.125,0 -0.125,0.046875 -0.125,0.171875 v 0.71875 c 0,0.109375 0,0.171875 0.09375,0.171875 0.046875,0 0.046875,-0.015625 0.15625,-0.109375 l 0.140625,-0.15625 C 1,0.0625 1.359375,0.0625 1.484375,0.0625 c 0.875,0 1.109375,-0.484375 1.109375,-0.828125 0,-0.25 -0.109375,-0.421875 -0.25,-0.53125 C 2.09375,-1.53125 1.859375,-1.5625 1.5,-1.625 1.046875,-1.703125 0.640625,-1.765625 0.640625,-2.078125 0.640625,-2.25 0.8125,-2.5 1.4375,-2.5 c 0.40625,0 0.734375,0.15625 0.765625,0.578125 0,0.078125 0.015625,0.125 0.109375,0.125 0.109375,0 0.109375,-0.046875 0.109375,-0.15625 z m 0,0"
             id="path5" />
        </g>
      </g>
    </g>
    <path
       style="fill:none;fill-rule:evenodd;stroke:#000000;stroke-width:0.2;stroke-linecap:round;stroke-miterlimit:3.9;stroke-dasharray:0.6, 0.6;stroke-dashoffset:0;stroke-opacity:1"
       d="m 32.279205,7.6729202 c 4.233417,4.9389878 8.393218,9.7920888 15.282379,12.8049138 6.889161,3.012825 16.118316,3.988278 25.347659,4.963751"
       id="path6"
       inkscape:path-effect="#path-effect6"
       inkscape:original-d="m 32.279205,7.6729202 c 4.233417,4.9389878 8.393218,9.7920888 12.699999,14.8166678 9.471541,1.001071 18.700696,1.976524 27.930039,2.951997"
       sodipodi:nodetypes="ccc" />
    <g
       inkscape:label=""
       transform="translate(42.164528,13.577096)"
       id="g27">
      <g
         fill="#000000"
         fill-opacity="1"
         id="g18"
         transform="matrix(0.352778,0,0,0.352778,-0.785768,-0.656387)">
        <g
           id="g17"
           transform="translate(1.993,9.5190001)">
          <path
             d="m 3.9375,-5.46875 c 0.046875,-0.1875 0.078125,-0.28125 0.21875,-0.3125 0.078125,-0.015625 0.359375,-0.015625 0.546875,-0.015625 1.03125,0 1.34375,0.0625 1.34375,0.765625 0,0.109375 0,0.25 -0.078125,0.78125 l -0.015625,0.078125 c 0,0.0625 0.03125,0.125 0.125,0.125 0.109375,0 0.125,-0.09375 0.140625,-0.21875 l 0.234375,-1.5625 c 0.015625,-0.03125 0.015625,-0.09375 0.015625,-0.125 0,-0.125 -0.078125,-0.125 -0.25,-0.125 H 1.109375 c -0.21875,0 -0.21875,0.015625 -0.28125,0.1875 l -0.5625,1.578125 c -0.03125,0.109375 -0.03125,0.140625 -0.03125,0.140625 0,0.046875 0.03125,0.125 0.109375,0.125 0.109375,0 0.125,-0.0625 0.171875,-0.21875 0.5,-1.40625 0.78125,-1.53125 2.078125,-1.53125 H 2.9375 c 0.25,0 0.25,0.03125 0.25,0.109375 0,0.046875 -0.015625,0.109375 -0.03125,0.1875 l -1.203125,4.796875 c -0.078125,0.3125 -0.109375,0.421875 -1.0625,0.421875 -0.28125,0 -0.359375,0 -0.359375,0.171875 C 0.53125,0 0.640625,0 0.6875,0 c 0.234375,0 0.484375,-0.015625 0.734375,-0.015625 0.25,0 0.5,-0.015625 0.75,-0.015625 0.40625,0 0.421875,0 0.75,0.015625 C 3.046875,-0.015625 3.625,0 3.703125,0 c 0.078125,0 0.1875,0 0.1875,-0.15625 0,-0.125 -0.078125,-0.125 -0.296875,-0.125 -0.234375,0 -0.34375,0 -0.578125,-0.015625 -0.203125,-0.03125 -0.3125,-0.03125 -0.3125,-0.1875 0,-0.046875 0.015625,-0.109375 0.03125,-0.171875 z m 0,0"
             id="path17" />
        </g>
      </g>
      <g
         fill="#000000"
         fill-opacity="1"
         id="g12"
         transform="matrix(0.352778,0,0,0.352778,-0.785768,-0.656387)">
        <g
           id="use10"
           transform="translate(7.369,10.515)">
          <path
             d="m 5.21875,-1.8125 c 0,-0.609375 -0.359375,-0.828125 -0.953125,-0.828125 -0.5625,0 -0.890625,0.3125 -1.015625,0.546875 -0.140625,-0.546875 -0.75,-0.546875 -0.921875,-0.546875 -0.53125,0 -0.875,0.296875 -1.015625,0.546875 H 1.296875 V -2.640625 L 0.375,-2.578125 v 0.234375 c 0.421875,0 0.46875,0.046875 0.46875,0.34375 v 1.515625 c 0,0.25 -0.046875,0.25 -0.46875,0.25 V 0 C 0.421875,0 0.828125,-0.03125 1.09375,-0.03125 1.359375,-0.03125 1.765625,0 1.8125,0 v -0.234375 c -0.40625,0 -0.46875,0 -0.46875,-0.25 v -1.0625 c 0,-0.65625 0.578125,-0.90625 0.9375,-0.90625 0.40625,0 0.5,0.265625 0.5,0.640625 v 1.328125 c 0,0.25 -0.0625,0.25 -0.46875,0.25 V 0 C 2.359375,0 2.765625,-0.03125 3.03125,-0.03125 3.296875,-0.03125 3.6875,0 3.75,0 v -0.234375 c -0.40625,0 -0.46875,0 -0.46875,-0.25 v -1.0625 c 0,-0.65625 0.5625,-0.90625 0.9375,-0.90625 0.40625,0 0.5,0.265625 0.5,0.640625 v 1.328125 c 0,0.25 -0.0625,0.25 -0.46875,0.25 V 0 C 4.28125,0 4.6875,-0.03125 4.96875,-0.03125 5.234375,-0.03125 5.625,0 5.6875,0 v -0.234375 c -0.421875,0 -0.46875,0 -0.46875,-0.25 z m 0,0"
             id="path18" />
        </g>
        <g
           id="use11"
           transform="translate(13.3466,10.515)">
          <path
             d="m 2.84375,-1.78125 c 0,-0.5625 -0.5625,-0.890625 -1.234375,-0.890625 -0.296875,0 -1,0.03125 -1,0.53125 0,0.171875 0.109375,0.296875 0.296875,0.296875 0.171875,0 0.28125,-0.125 0.28125,-0.28125 0,-0.109375 -0.046875,-0.21875 -0.15625,-0.265625 0.203125,-0.09375 0.5,-0.09375 0.5625,-0.09375 0.421875,0 0.75,0.265625 0.75,0.71875 v 0.15625 c -0.265625,0 -0.75,0.015625 -1.1875,0.171875 -0.390625,0.140625 -0.765625,0.40625 -0.765625,0.8125 0,0.53125 0.625,0.6875 1.09375,0.6875 0.5,0 0.796875,-0.25 0.9375,-0.484375 0.03125,0.3125 0.234375,0.453125 0.4375,0.453125 0.03125,0 0.671875,0 0.671875,-0.5625 V -0.875 H 3.3125 v 0.328125 c 0,0.0625 0,0.328125 -0.234375,0.328125 -0.234375,0 -0.234375,-0.265625 -0.234375,-0.328125 z m -0.5,0.9375 c 0,0.609375 -0.609375,0.71875 -0.8125,0.71875 -0.3125,0 -0.625,-0.203125 -0.625,-0.5 0,-0.34375 0.328125,-0.78125 1.4375,-0.8125 z m 0,0"
             id="path19" />
        </g>
        <g
           id="use12"
           transform="translate(16.999512,10.515)">
          <path
             d="m 2.125,-1.40625 0.59375,-0.609375 c 0.3125,-0.3125 0.640625,-0.328125 0.796875,-0.328125 v -0.234375 c -0.078125,0 -0.34375,0.015625 -0.53125,0.015625 -0.21875,0 -0.578125,-0.015625 -0.609375,-0.015625 v 0.234375 c 0.0625,0.015625 0.109375,0.0625 0.109375,0.125 0,0.109375 -0.046875,0.15625 -0.21875,0.359375 L 1.96875,-1.5625 1.453125,-2.125 c -0.046875,-0.046875 -0.0625,-0.0625 -0.0625,-0.09375 0,-0.09375 0.09375,-0.125 0.171875,-0.125 V -2.578125 C 1.40625,-2.5625 1,-2.5625 0.859375,-2.5625 c -0.125,0 -0.484375,0 -0.609375,-0.015625 v 0.234375 c 0.34375,0 0.453125,0.015625 0.59375,0.171875 l 0.796875,0.84375 C 1.671875,-1.28125 1.6875,-1.28125 1.6875,-1.265625 1.6875,-1.25 1.140625,-0.6875 1.078125,-0.625 c -0.15625,0.15625 -0.375,0.390625 -0.875,0.390625 V 0 c 0.078125,0 0.34375,-0.03125 0.53125,-0.03125 0.09375,0 0.5,0.015625 0.625,0.03125 v -0.234375 c -0.078125,0 -0.109375,-0.046875 -0.109375,-0.125 0,-0.109375 0.0625,-0.1875 0.09375,-0.21875 0.15625,-0.1875 0.328125,-0.359375 0.5,-0.515625 l 0.53125,0.5625 c 0.109375,0.140625 0.109375,0.140625 0.109375,0.171875 0,0.0625 -0.046875,0.125 -0.15625,0.125 V 0 C 2.53125,-0.015625 2.984375,-0.03125 3.03125,-0.03125 3.25,-0.03125 3.5625,0 3.640625,0 v -0.234375 c -0.296875,0 -0.453125,0 -0.609375,-0.171875 z m 0,0"
             id="path20" />
        </g>
      </g>
      <g
         fill="#000000"
         fill-opacity="1"
         id="g19"
         transform="matrix(0.352778,0,0,0.352778,-0.785768,-0.656387)">
        <g
           id="use13"
           transform="translate(23.903999,9.5190001)">
          <path
             d="m 6.640625,-3.015625 c 0,-0.25 -0.078125,-0.3125 -0.125,-0.3125 -0.125,0 -0.125,0.203125 -0.140625,0.328125 -0.03125,0.671875 -0.53125,1.3125 -1.265625,1.3125 -0.515625,0 -0.9375,-0.296875 -1.46875,-0.78125 -0.53125,-0.5 -0.984375,-0.875 -1.59375,-0.875 -0.984375,0 -1.53125,1.015625 -1.53125,1.875 0,0.234375 0.0625,0.3125 0.125,0.3125 0.109375,0 0.140625,-0.171875 0.140625,-0.21875 0.046875,-1.125 0.828125,-1.421875 1.265625,-1.421875 0.515625,0 0.9375,0.296875 1.46875,0.78125 0.53125,0.5 0.984375,0.875 1.59375,0.875 0.984375,0 1.53125,-1.015625 1.53125,-1.875 z m 0,0"
             id="path21" />
        </g>
      </g>
      <g
         fill="#000000"
         fill-opacity="1"
         id="g20"
         transform="matrix(0.352778,0,0,0.352778,-0.785768,-0.656387)">
        <g
           id="use14"
           transform="translate(37.382,5.8449998)">
          <path
             d="m 2.140625,-3.796875 c 0,-0.1875 -0.015625,-0.1875 -0.203125,-0.1875 -0.390625,0.390625 -1,0.390625 -1.21875,0.390625 v 0.234375 c 0.15625,0 0.5625,0 0.921875,-0.171875 v 3.015625 c 0,0.203125 0,0.28125 -0.625,0.28125 h -0.25 V 0 c 0.328125,-0.03125 0.796875,-0.03125 1.125,-0.03125 0.328125,0 0.796875,0 1.125,0.03125 v -0.234375 h -0.25 c -0.625,0 -0.625,-0.078125 -0.625,-0.28125 z m 0,0"
             id="path22" />
        </g>
      </g>
      <path
         fill="none"
         stroke-width="0.379"
         stroke-linecap="butt"
         stroke-linejoin="miter"
         stroke="#000000"
         stroke-opacity="1"
         stroke-miterlimit="10"
         d="m 32.596844,5.416719 h 8.765625"
         id="path23"
         transform="scale(0.352778)" />
      <g
         fill="#000000"
         fill-opacity="1"
         id="g24"
         transform="matrix(0.352778,0,0,0.352778,-0.785768,-0.656387)">
        <g
           id="use15"
           transform="translate(34.826,12.771)">
          <path
             d="m 4.359375,-2.15625 c 0,-0.1875 -0.078125,-0.484375 -0.3125,-0.484375 -0.171875,0 -0.34375,0.140625 -0.34375,0.328125 0,0.203125 0.328125,0.234375 0.328125,0.65625 0,0.4375 -0.453125,1.21875 -1.0625,1.21875 -0.3125,0 -0.515625,-0.171875 -0.65625,-0.4375 0.09375,-0.171875 0.21875,-0.5 0.21875,-0.6875 0,-0.09375 -0.046875,-0.21875 -0.15625,-0.21875 -0.359375,0 -0.359375,0.640625 -0.359375,0.875 -0.234375,0.25 -0.46875,0.46875 -0.84375,0.46875 -0.390625,0 -0.625,-0.28125 -0.625,-0.671875 0,-0.640625 0.4375,-1.046875 0.578125,-1.28125 0.03125,-0.046875 0.046875,-0.078125 0.046875,-0.125 0,-0.046875 -0.09375,-0.09375 -0.140625,-0.09375 -0.109375,0 -0.234375,0.1875 -0.296875,0.28125 -0.265625,0.40625 -0.4375,0.890625 -0.4375,1.390625 0,0.5625 0.234375,0.984375 0.796875,0.984375 0.4375,0 0.765625,-0.28125 1,-0.5625 0.125,0.34375 0.390625,0.578125 0.796875,0.578125 1.0625,0 1.46875,-1.71875 1.46875,-2.21875 z m 0,0"
             id="path24" />
        </g>
      </g>
      <g
         fill="#000000"
         fill-opacity="1"
         id="g25"
         transform="matrix(0.352778,0,0,0.352778,-0.785768,-0.656387)">
        <g
           id="use16"
           transform="translate(39.702999,11.055)">
          <path
             d="M 2.9375,-0.96875 H 2.71875 c 0,0.09375 -0.0625,0.40625 -0.140625,0.453125 -0.03125,0.03125 -0.453125,0.03125 -0.53125,0.03125 H 1.078125 C 1.40625,-0.71875 1.765625,-1 2.0625,-1.203125 c 0.453125,-0.3125 0.875,-0.59375 0.875,-1.125 0,-0.640625 -0.609375,-0.984375 -1.3125,-0.984375 -0.671875,0 -1.171875,0.375 -1.171875,0.875 0,0.25 0.21875,0.296875 0.296875,0.296875 0.125,0 0.28125,-0.09375 0.28125,-0.296875 0,-0.171875 -0.125,-0.28125 -0.28125,-0.28125 0.140625,-0.234375 0.4375,-0.375 0.765625,-0.375 0.484375,0 0.890625,0.28125 0.890625,0.765625 0,0.421875 -0.296875,0.75 -0.671875,1.0625 l -1.21875,1.03125 C 0.46875,-0.1875 0.453125,-0.1875 0.453125,-0.15625 V 0 h 2.3125 z m 0,0"
             id="path25" />
        </g>
      </g>
      <g
         fill="#000000"
         fill-opacity="1"
         id="g26"
         transform="matrix(0.352778,0,0,0.352778,-0.785768,-0.656387)">
        <g
           id="use17"
           transform="translate(39.487999,14.763)">
          <path
             d="m 2.234375,-2.09375 c 0,-0.078125 0,-0.140625 -0.09375,-0.140625 -0.015625,0 -0.03125,0 -0.078125,0.03125 -0.015625,0.03125 -0.109375,0.109375 -0.125,0.109375 -0.015625,0 -0.015625,0 -0.046875,-0.03125 C 1.78125,-2.1875 1.59375,-2.234375 1.34375,-2.234375 c -0.828125,0 -1,0.375 -1,0.609375 0,0.46875 0.578125,0.5625 1.046875,0.625 0.28125,0.046875 0.75,0.125 0.75,0.453125 0,0.171875 -0.15625,0.4375 -0.75,0.4375 -0.34375,0 -0.671875,-0.125 -0.828125,-0.65625 C 0.546875,-0.859375 0.53125,-0.875 0.453125,-0.875 0.34375,-0.875 0.34375,-0.828125 0.34375,-0.71875 v 0.640625 c 0,0.078125 0,0.140625 0.078125,0.140625 0.046875,0 0.046875,-0.015625 0.140625,-0.109375 l 0.140625,-0.125 c 0.25,0.21875 0.5625,0.234375 0.6875,0.234375 C 2.21875,0.0625 2.375,-0.375 2.375,-0.625 2.375,-0.859375 2.265625,-1.015625 2.0625,-1.140625 1.875,-1.265625 1.71875,-1.28125 1.296875,-1.34375 0.984375,-1.390625 0.59375,-1.453125 0.59375,-1.71875 c 0,-0.171875 0.203125,-0.359375 0.734375,-0.359375 0.421875,0 0.65625,0.15625 0.6875,0.5 C 2.03125,-1.5 2.03125,-1.46875 2.125,-1.46875 c 0.109375,0 0.109375,-0.03125 0.109375,-0.140625 z m 0,0"
             id="path26" />
        </g>
      </g>
    </g>
  </g>
</svg>
