<?xml version="1.0" encoding="UTF-8" standalone="no"?>
<!-- Created with Inkscape (http://www.inkscape.org/) -->

<svg
   width="546.15649"
   height="505.07071"
   id="svg2"
   version="1.1"
   inkscape:version="1.3.2 (091e20e, 2023-11-25, custom)"
   sodipodi:docname="Conductor_loop_induction.svg"
   xmlns:inkscape="http://www.inkscape.org/namespaces/inkscape"
   xmlns:sodipodi="http://sodipodi.sourceforge.net/DTD/sodipodi-0.dtd"
   xmlns="http://www.w3.org/2000/svg"
   xmlns:svg="http://www.w3.org/2000/svg"
   xmlns:rdf="http://www.w3.org/1999/02/22-rdf-syntax-ns#"
   xmlns:cc="http://creativecommons.org/ns#"
   xmlns:dc="http://purl.org/dc/elements/1.1/">
  <sodipodi:namedview
     id="base"
     pagecolor="#ffffff"
     bordercolor="#666666"
     borderopacity="1.0"
     inkscape:pageopacity="0.0"
     inkscape:pageshadow="2"
     inkscape:zoom="2.8"
     inkscape:cx="263.92857"
     inkscape:cy="356.25"
     inkscape:document-units="px"
     inkscape:current-layer="g18"
     showgrid="true"
     inkscape:window-width="2560"
     inkscape:window-height="1351"
     inkscape:window-x="2551"
     inkscape:window-y="-9"
     inkscape:window-maximized="1"
     fit-margin-top="10"
     fit-margin-right="10"
     fit-margin-left="10"
     fit-margin-bottom="10"
     inkscape:showpageshadow="0"
     inkscape:pagecheckerboard="0"
     inkscape:deskcolor="#505050">
    <inkscape:grid
       type="xygrid"
       id="grid2987"
       empspacing="5"
       visible="true"
       enabled="true"
       snapvisiblegridlinesonly="true"
       originx="-8.8435088"
       originy="-10.999898"
       spacingy="1"
       spacingx="1"
       units="px" />
  </sodipodi:namedview>
  <defs
     id="defs4">
    <marker
       inkscape:stockid="Arrow1Lstart"
       orient="auto"
       refY="0"
       refX="0"
       id="Arrow1Lstart"
       style="overflow:visible">
      <path
         id="path3760"
         d="M 0,0 5,-5 -12.5,0 5,5 Z"
         style="fill-rule:evenodd;stroke:#000000;stroke-width:1pt;marker-start:none"
         transform="matrix(0.8,0,0,0.8,10,0)"
         inkscape:connector-curvature="0" />
    </marker>
    <marker
       inkscape:stockid="Arrow1Mend"
       orient="auto"
       refY="0"
       refX="0"
       id="Arrow1Mend"
       style="overflow:visible">
      <path
         id="path3769"
         d="M 0,0 5,-5 -12.5,0 5,5 Z"
         style="fill-rule:evenodd;stroke:#000000;stroke-width:1pt;marker-start:none"
         transform="matrix(-0.4,0,0,-0.4,-4,0)"
         inkscape:connector-curvature="0" />
    </marker>
    <marker
       inkscape:stockid="Arrow1Lend"
       orient="auto"
       refY="0"
       refX="0"
       id="Arrow1Lend"
       style="overflow:visible">
      <path
         id="path3763"
         d="M 0,0 5,-5 -12.5,0 5,5 Z"
         style="fill-rule:evenodd;stroke:#000000;stroke-width:1pt;marker-start:none"
         transform="matrix(-0.8,0,0,-0.8,-10,0)"
         inkscape:connector-curvature="0" />
    </marker>
    <marker
       inkscape:stockid="Arrow1Lend"
       orient="auto"
       refY="0"
       refX="0"
       id="Arrow1Lend-1"
       style="overflow:visible">
      <path
         inkscape:connector-curvature="0"
         id="path3763-7"
         d="M 0,0 5,-5 -12.5,0 5,5 Z"
         style="fill-rule:evenodd;stroke:#000000;stroke-width:1pt;marker-start:none"
         transform="matrix(-0.8,0,0,-0.8,-10,0)" />
    </marker>
    <marker
       inkscape:stockid="Arrow1Lend"
       orient="auto"
       refY="0"
       refX="0"
       id="Arrow1Lend-0"
       style="overflow:visible">
      <path
         inkscape:connector-curvature="0"
         id="path3763-9"
         d="M 0,0 5,-5 -12.5,0 5,5 Z"
         style="fill-rule:evenodd;stroke:#000000;stroke-width:1pt;marker-start:none"
         transform="matrix(-0.8,0,0,-0.8,-10,0)" />
    </marker>
    <marker
       inkscape:stockid="Arrow1Lend"
       orient="auto"
       refY="0"
       refX="0"
       id="Arrow1Lend-8"
       style="overflow:visible">
      <path
         inkscape:connector-curvature="0"
         id="path3763-2"
         d="M 0,0 5,-5 -12.5,0 5,5 Z"
         style="fill-rule:evenodd;stroke:#000000;stroke-width:1pt;marker-start:none"
         transform="matrix(-0.8,0,0,-0.8,-10,0)" />
    </marker>
    <marker
       inkscape:stockid="Arrow1Lend"
       orient="auto"
       refY="0"
       refX="0"
       id="Arrow1Lend-5"
       style="overflow:visible">
      <path
         inkscape:connector-curvature="0"
         id="path3763-1"
         d="M 0,0 5,-5 -12.5,0 5,5 Z"
         style="fill-rule:evenodd;stroke:#000000;stroke-width:1pt;marker-start:none"
         transform="matrix(-0.8,0,0,-0.8,-10,0)" />
    </marker>
    <marker
       inkscape:stockid="Arrow1Lend"
       orient="auto"
       refY="0"
       refX="0"
       id="Arrow1Lend-11"
       style="overflow:visible">
      <path
         inkscape:connector-curvature="0"
         id="path3763-5"
         d="M 0,0 5,-5 -12.5,0 5,5 Z"
         style="fill-rule:evenodd;stroke:#000000;stroke-width:1pt;marker-start:none"
         transform="matrix(-0.8,0,0,-0.8,-10,0)" />
    </marker>
    <marker
       inkscape:stockid="Arrow1Lend"
       orient="auto"
       refY="0"
       refX="0"
       id="Arrow1Lend-7"
       style="overflow:visible">
      <path
         inkscape:connector-curvature="0"
         id="path3763-6"
         d="M 0,0 5,-5 -12.5,0 5,5 Z"
         style="fill-rule:evenodd;stroke:#000000;stroke-width:1pt;marker-start:none"
         transform="matrix(-0.8,0,0,-0.8,-10,0)" />
    </marker>
    <marker
       inkscape:stockid="Arrow1Lend"
       orient="auto"
       refY="0"
       refX="0"
       id="Arrow1Lend-4"
       style="overflow:visible">
      <path
         inkscape:connector-curvature="0"
         id="path3763-23"
         d="M 0,0 5,-5 -12.5,0 5,5 Z"
         style="fill-rule:evenodd;stroke:#000000;stroke-width:1pt;marker-start:none"
         transform="matrix(-0.8,0,0,-0.8,-10,0)" />
    </marker>
    <marker
       inkscape:stockid="Arrow1Lend"
       orient="auto"
       refY="0"
       refX="0"
       id="Arrow1Lend-16"
       style="overflow:visible">
      <path
         inkscape:connector-curvature="0"
         id="path3763-8"
         d="M 0,0 5,-5 -12.5,0 5,5 Z"
         style="fill-rule:evenodd;stroke:#000000;stroke-width:1pt;marker-start:none"
         transform="matrix(-0.8,0,0,-0.8,-10,0)" />
    </marker>
    <marker
       inkscape:stockid="Arrow1Lend"
       orient="auto"
       refY="0"
       refX="0"
       id="Arrow1Lend-3"
       style="overflow:visible">
      <path
         inkscape:connector-curvature="0"
         id="path3763-4"
         d="M 0,0 5,-5 -12.5,0 5,5 Z"
         style="fill-rule:evenodd;stroke:#000000;stroke-width:1pt;marker-start:none"
         transform="matrix(-0.8,0,0,-0.8,-10,0)" />
    </marker>
    <marker
       inkscape:stockid="Arrow1Lend"
       orient="auto"
       refY="0"
       refX="0"
       id="Arrow1Lend-13"
       style="overflow:visible">
      <path
         inkscape:connector-curvature="0"
         id="path3763-87"
         d="M 0,0 5,-5 -12.5,0 5,5 Z"
         style="fill-rule:evenodd;stroke:#000000;stroke-width:1pt;marker-start:none"
         transform="matrix(-0.8,0,0,-0.8,-10,0)" />
    </marker>
    <marker
       inkscape:stockid="Arrow1Lend"
       orient="auto"
       refY="0"
       refX="0"
       id="Arrow1Lend-2"
       style="overflow:visible">
      <path
         inkscape:connector-curvature="0"
         id="path3763-77"
         d="M 0,0 5,-5 -12.5,0 5,5 Z"
         style="fill-rule:evenodd;stroke:#000000;stroke-width:1pt;marker-start:none"
         transform="matrix(-0.8,0,0,-0.8,-10,0)" />
    </marker>
    <marker
       inkscape:stockid="Arrow1Lend"
       orient="auto"
       refY="0"
       refX="0"
       id="Arrow1Lend-2-1"
       style="overflow:visible">
      <path
         inkscape:connector-curvature="0"
         id="path3763-77-9"
         d="M 0,0 5,-5 -12.5,0 5,5 Z"
         style="fill-rule:evenodd;stroke:#000000;stroke-width:1pt;marker-start:none"
         transform="matrix(-0.8,0,0,-0.8,-10,0)" />
    </marker>
    <marker
       inkscape:stockid="Arrow1Lend"
       orient="auto"
       refY="0"
       refX="0"
       id="Arrow1Lend-2-2"
       style="overflow:visible">
      <path
         inkscape:connector-curvature="0"
         id="path3763-77-8"
         d="M 0,0 5,-5 -12.5,0 5,5 Z"
         style="fill-rule:evenodd;stroke:#000000;stroke-width:1pt;marker-start:none"
         transform="matrix(-0.8,0,0,-0.8,-10,0)" />
    </marker>
  </defs>
  <metadata
     id="metadata7">
    <rdf:RDF>
      <cc:Work
         rdf:about="">
        <dc:format>image/svg+xml</dc:format>
        <dc:type
           rdf:resource="http://purl.org/dc/dcmitype/StillImage" />
      </cc:Work>
    </rdf:RDF>
  </metadata>
  <g
     inkscape:label="Ebene 1"
     inkscape:groupmode="layer"
     id="layer1"
     transform="translate(-169.844, -146.648)">
    <path
       style="fill:#00ff00;stroke:#000000;stroke-width:2;stroke-linecap:butt;stroke-linejoin:miter;stroke-miterlimit:4;stroke-dasharray:none;stroke-opacity:1;marker-end:url(#Arrow1Lend)"
       d="M 180,246.6479 V 452.36218"
       id="path2985"
       inkscape:connector-curvature="0" />
    <path
       style="fill:#00ff00;stroke:#000000;stroke-width:2;stroke-linecap:butt;stroke-linejoin:miter;stroke-miterlimit:4;stroke-dasharray:none;stroke-opacity:1;marker-end:url(#Arrow1Lend)"
       d="M 220,212.36218 V 418.07646"
       id="path2985-4"
       inkscape:connector-curvature="0" />
    <path
       style="fill:#00ff00;stroke:#000000;stroke-width:2;stroke-linecap:butt;stroke-linejoin:miter;stroke-miterlimit:4;stroke-dasharray:none;stroke-opacity:1;marker-end:url(#Arrow1Lend)"
       d="M 260,166.6479 V 372.36218"
       id="path2985-48"
       inkscape:connector-curvature="0" />
    <path
       style="fill:#00ff00;stroke:#000000;stroke-width:2;stroke-linecap:butt;stroke-linejoin:miter;stroke-miterlimit:4;stroke-dasharray:none;stroke-opacity:1;marker-end:url(#Arrow1Lend)"
       d="M 280,252.36218 V 458.07646"
       id="path2985-45"
       inkscape:connector-curvature="0" />
    <path
       style="fill:#00ff00;stroke:#000000;stroke-width:2;stroke-linecap:butt;stroke-linejoin:miter;stroke-miterlimit:4;stroke-dasharray:none;stroke-opacity:1;marker-end:url(#Arrow1Lend)"
       d="M 320,206.6479 V 412.36218"
       id="path2985-7"
       inkscape:connector-curvature="0" />
    <path
       style="fill:#00ff00;stroke:#000000;stroke-width:2;stroke-linecap:butt;stroke-linejoin:miter;stroke-miterlimit:4;stroke-dasharray:none;stroke-opacity:1;marker-end:url(#Arrow1Lend)"
       d="M 360,152.36218 V 358.07646"
       id="path2985-2"
       inkscape:connector-curvature="0" />
    <path
       style="fill:#00ff00;stroke:#000000;stroke-width:2;stroke-linecap:butt;stroke-linejoin:miter;stroke-miterlimit:4;stroke-dasharray:none;stroke-opacity:1;marker-end:url(#Arrow1Lend)"
       d="M 380,252.36218 V 458.07646"
       id="path2985-1"
       inkscape:connector-curvature="0" />
    <path
       style="fill:#00ff00;stroke:#000000;stroke-width:2;stroke-linecap:butt;stroke-linejoin:miter;stroke-miterlimit:4;stroke-dasharray:none;stroke-opacity:1;marker-end:url(#Arrow1Lend)"
       d="M 420,212.36218 V 418.07646"
       id="path2985-22"
       inkscape:connector-curvature="0" />
    <path
       style="fill:#00ff00;stroke:#000000;stroke-width:2;stroke-linecap:butt;stroke-linejoin:miter;stroke-miterlimit:4;stroke-dasharray:none;stroke-opacity:1;marker-end:url(#Arrow1Lend)"
       d="M 460,172.36218 V 378.07646"
       id="path2985-5"
       inkscape:connector-curvature="0" />
    <path
       style="fill:#00ff00;stroke:#000000;stroke-width:2;stroke-linecap:butt;stroke-linejoin:miter;stroke-miterlimit:4;stroke-dasharray:none;stroke-opacity:1;marker-end:url(#Arrow1Lend)"
       d="M 480,246.6479 V 452.36218"
       id="path2985-5-1"
       inkscape:connector-curvature="0" />
    <path
       style="fill:#00ff00;stroke:#000000;stroke-width:2;stroke-linecap:butt;stroke-linejoin:miter;stroke-miterlimit:4;stroke-dasharray:none;stroke-opacity:1;marker-end:url(#Arrow1Lend)"
       d="M 520,206.6479 V 412.36218"
       id="path2985-5-4"
       inkscape:connector-curvature="0" />
    <path
       style="fill:#00ff00;stroke:#000000;stroke-width:2;stroke-linecap:butt;stroke-linejoin:miter;stroke-miterlimit:4;stroke-dasharray:none;stroke-opacity:1;marker-end:url(#Arrow1Lend)"
       d="M 560,146.6479 V 352.36218"
       id="path2985-5-9"
       inkscape:connector-curvature="0" />
    <g
       id="g5519"
       transform="translate(61, -398.489)">
      <path
         sodipodi:nodetypes="cccccc"
         inkscape:connector-curvature="0"
         id="path4381"
         d="m 260,882.36218 h 60 l 190,-190 H 330 l -190,190 h 60"
         style="fill:none;stroke:#0000f1;stroke-width:3;stroke-linecap:butt;stroke-linejoin:miter;stroke-miterlimit:4;stroke-dasharray:none;stroke-opacity:1" />
      <path
         sodipodi:nodetypes="cc"
         inkscape:connector-curvature="0"
         id="path4383"
         d="m 200,904.36218 h 50"
         style="fill:none;stroke:#000000;stroke-width:2;stroke-linecap:butt;stroke-linejoin:miter;stroke-miterlimit:4;stroke-dasharray:none;stroke-opacity:1;marker-end:url(#Arrow1Mend)" />
      <path
         inkscape:connector-curvature="0"
         id="path4593"
         d="m 204.34375,877.89343 c -1.9612,0.16134 -3.77443,1.5616 -4.34375,3.46875 -0.7194,2.1234 0.19429,4.64333 2.125,5.78125 1.85179,1.17353 4.45413,0.89921 6.03125,-0.625 1.67815,-1.51813 2.07717,-4.21764 0.90625,-6.15625 l -0.1875,-0.28125 c -0.82625,-1.23282 -2.20943,-2.06566 -3.6875,-2.1875 -0.28264,-0.0297 -0.56358,-0.0231 -0.84375,0 z"
         style="fill:#00ff00;fill-opacity:0;stroke:#0000f1;stroke-width:3;stroke-miterlimit:4;stroke-dasharray:none;stroke-dashoffset:0;stroke-opacity:1" />
      <path
         id="path4593-3"
         d="m 256.28125,877.89343 c -1.9612,0.16134 -3.77443,1.5616 -4.34375,3.46875 -0.7194,2.1234 0.19429,4.64333 2.125,5.78125 1.85179,1.17353 4.45413,0.89921 6.03125,-0.625 1.67815,-1.51813 2.07717,-4.21764 0.90625,-6.15625 l -0.1875,-0.28125 c -0.82625,-1.23282 -2.20943,-2.06566 -3.6875,-2.1875 -0.28264,-0.0297 -0.56358,-0.0231 -0.84375,0 z"
         style="fill:#00ff00;fill-opacity:0;stroke:#0000f1;stroke-width:3;stroke-miterlimit:4;stroke-dasharray:none;stroke-dashoffset:0;stroke-opacity:1"
         inkscape:connector-curvature="0" />
      <path
         sodipodi:nodetypes="cc"
         inkscape:connector-curvature="0"
         id="path5006"
         d="m 230,882.36218 190,-190"
         style="fill:none;stroke:#000000;stroke-width:1;stroke-linecap:butt;stroke-linejoin:miter;stroke-miterlimit:4;stroke-dasharray:4, 4;stroke-dashoffset:0;stroke-opacity:1" />
      <path
         inkscape:connector-curvature="0"
         id="path5008"
         d="m 320,882.36218 v 30"
         style="fill:none;stroke:#000000;stroke-width:1px;stroke-linecap:butt;stroke-linejoin:miter;stroke-opacity:1;marker-end:url(#Arrow1Lend-2)" />
      <path
         sodipodi:nodetypes="cc"
         inkscape:connector-curvature="0"
         id="path5216"
         d="m 140,882.36218 v -30"
         style="fill:none;stroke:#000000;stroke-width:1px;stroke-linecap:butt;stroke-linejoin:miter;stroke-opacity:1;marker-end:url(#Arrow1Lend-2)" />
      <path
         inkscape:connector-curvature="0"
         id="path5008-8"
         d="m 510,692.36218 v 30"
         style="fill:none;stroke:#000000;stroke-width:1px;stroke-linecap:butt;stroke-linejoin:miter;stroke-opacity:1;marker-end:url(#Arrow1Lend-2)" />
      <path
         sodipodi:nodetypes="cc"
         inkscape:connector-curvature="0"
         id="path5216-6"
         d="m 330,692.36218 v -30"
         style="fill:none;stroke:#000000;stroke-width:1px;stroke-linecap:butt;stroke-linejoin:miter;stroke-opacity:1;marker-end:url(#Arrow1Lend-2)" />
      <text
         id="text5483"
         y="933.87341"
         x="290"
         style="font-style:normal;font-weight:normal;line-height:0%;font-family:sans-serif;letter-spacing:0px;word-spacing:0px;fill:#000000;fill-opacity:1;stroke:none"
         xml:space="preserve"><tspan
           style="font-size:25px;line-height:1.25;font-family:sans-serif"
           y="933.87341"
           x="290"
           sodipodi:role="line"
           id="tspan6395">Rotating conductor</tspan><tspan
           style="font-size:25px;line-height:1.25;font-family:sans-serif"
           y="965.12341"
           x="290"
           sodipodi:role="line"
           id="tspan18">loop</tspan></text>
      <g
         inkscape:label=""
         transform="matrix(2.0539004,0,0,2.0539004,200.08764,914.11115)"
         id="g18"
         style="stroke-width:0.486879">
        <g
           fill="#000000"
           fill-opacity="1"
           id="g6"
           transform="matrix(1.33333,0,0,1.33333,1.7739554,-6.5486984)"
           style="stroke-width:0.486879">
          <g
             id="use5"
             transform="translate(1.993,10.959)"
             style="stroke-width:0.486879">
            <path
               d="M 4.078125,-0.6875 C 4.234375,-0.03125 4.8125,0.125 5.09375,0.125 c 0.375,0 0.671875,-0.25 0.859375,-0.65625 0.203125,-0.4375 0.359375,-1.140625 0.359375,-1.171875 0,-0.0625 -0.046875,-0.109375 -0.125,-0.109375 -0.109375,0 -0.109375,0.0625 -0.15625,0.234375 C 5.8125,-0.75 5.59375,-0.125 5.109375,-0.125 4.75,-0.125 4.75,-0.515625 4.75,-0.671875 4.75,-0.9375 4.796875,-1.0625 4.90625,-1.5625 5,-1.890625 5.078125,-2.21875 5.15625,-2.546875 L 5.640625,-4.5 C 5.71875,-4.796875 5.71875,-4.8125 5.71875,-4.859375 c 0,-0.171875 -0.140625,-0.296875 -0.3125,-0.296875 -0.34375,0 -0.4375,0.296875 -0.5,0.609375 -0.125,0.453125 -0.765625,3.03125 -0.859375,3.453125 0,0 -0.46875,0.96875 -1.34375,0.96875 -0.625,0 -0.75,-0.53125 -0.75,-0.96875 0,-0.6875 0.34375,-1.640625 0.65625,-2.4375 C 2.75,-3.921875 2.8125,-4.078125 2.8125,-4.3125 c 0,-0.515625 -0.375,-0.953125 -0.953125,-0.953125 -1.09375,0 -1.53125,1.734375 -1.53125,1.828125 0,0.046875 0.046875,0.109375 0.125,0.109375 0.109375,0 0.125,-0.046875 0.171875,-0.21875 0.28125,-1.03125 0.75,-1.484375 1.203125,-1.484375 0.125,0 0.3125,0.015625 0.3125,0.390625 0,0.3125 -0.125,0.65625 -0.3125,1.109375 C 1.296875,-2.109375 1.25,-1.65625 1.25,-1.296875 1.25,-0.078125 2.15625,0.125 2.65625,0.125 c 0.765625,0 1.1875,-0.53125 1.421875,-0.8125 z m 0,0"
               id="path10"
               style="stroke-width:0.486879" />
          </g>
        </g>
        <g
           fill="#000000"
           fill-opacity="1"
           id="g7"
           transform="matrix(1.33333,0,0,1.33333,1.7739554,-6.5486984)"
           style="stroke-width:0.486879">
          <g
             id="use6"
             transform="translate(8.6549997,12.752)"
             style="stroke-width:0.486879">
            <path
               d="m 1.546875,-4.90625 c 0,-0.234375 -0.171875,-0.453125 -0.4375,-0.453125 -0.234375,0 -0.4375,0.1875 -0.4375,0.4375 0,0.28125 0.234375,0.453125 0.4375,0.453125 0.28125,0 0.4375,-0.234375 0.4375,-0.4375 z m -1.1875,1.484375 v 0.265625 c 0.515625,0 0.578125,0.046875 0.578125,0.4375 V -0.625 c 0,0.359375 -0.09375,0.359375 -0.609375,0.359375 V 0 c 0.3125,-0.03125 0.765625,-0.03125 0.890625,-0.03125 0.09375,0 0.578125,0 0.859375,0.03125 v -0.265625 c -0.53125,0 -0.5625,-0.03125 -0.5625,-0.34375 v -2.90625 z m 0,0"
               id="path11"
               style="stroke-width:0.486879" />
          </g>
        </g>
      </g>
    </g>
    <path
       style="fill:none;stroke:#000000;stroke-width:1px;stroke-linecap:butt;stroke-linejoin:miter;stroke-opacity:1;marker-start:url(#Arrow1Lstart);marker-end:url(#Arrow1Lend-2-2)"
       d="m 42.5,479.73676 h 175"
       id="path5535"
       inkscape:connector-curvature="0"
       transform="translate(161,135.6479)"
       sodipodi:nodetypes="cc" />
    <path
       style="fill:none;stroke:#000000;stroke-width:1px;stroke-linecap:butt;stroke-linejoin:miter;stroke-opacity:1;marker-start:url(#Arrow1Lstart);marker-end:url(#Arrow1Lend-2-2)"
       d="m 513,483.38466 188,-188"
       id="path5967"
       inkscape:connector-curvature="0"
       sodipodi:nodetypes="cc" />
    <path
       style="fill:none;stroke:#000000;stroke-width:1px;stroke-linecap:butt;stroke-linejoin:miter;stroke-opacity:1"
       d="m 220,437.73676 v 55"
       id="path3053"
       inkscape:connector-curvature="0"
       transform="translate(161,135.6479)"
       sodipodi:nodetypes="cc" />
    <path
       style="fill:none;stroke:#000000;stroke-width:1px;stroke-linecap:butt;stroke-linejoin:miter;stroke-opacity:1"
       d="m 201,573.38466 v 55"
       id="path3053-2"
       inkscape:connector-curvature="0"
       sodipodi:nodetypes="cc" />
    <path
       style="fill:none;stroke:#000000;stroke-width:1px;stroke-linecap:butt;stroke-linejoin:miter;stroke-opacity:1"
       d="m 469,484.38466 h 55"
       id="path3053-1"
       inkscape:connector-curvature="0"
       sodipodi:nodetypes="cc" />
    <path
       style="fill:none;stroke:#000000;stroke-width:1px;stroke-linecap:butt;stroke-linejoin:miter;stroke-opacity:1"
       d="m 661,293.38466 h 55"
       id="path3053-8"
       inkscape:connector-curvature="0"
       sodipodi:nodetypes="cc" />
    <g
       inkscape:label=""
       transform="matrix(2.2920626,0,0,2.2920626,572.96394,183.77184)"
       id="g1"
       style="stroke-width:0.436288">
      <g
         fill="#000000"
         fill-opacity="1"
         id="g2"
         transform="matrix(1.33333,0,0,1.33333,-3.34483,-2.65583)"
         style="stroke-width:0.436288">
        <g
           id="use1"
           transform="translate(1.993,10.195)"
           style="stroke-width:0.436288">
          <path
             d="m 1.953125,-0.796875 c -0.046875,0.1875 -0.0625,0.203125 -0.28125,0.21875 -0.203125,0.015625 -0.4375,0.015625 -0.625,0.015625 -0.3125,0 -0.34375,0 -0.390625,0.03125 -0.140625,0.078125 -0.140625,0.265625 -0.140625,0.3125 C 0.515625,0 0.734375,0 0.921875,0 h 5.0625 c 2.5,0 3.625,-1.578125 3.625,-2.640625 0,-1.03125 -0.890625,-1.546875 -2,-1.640625 1.921875,-0.34375 2.59375,-1.453125 2.59375,-2.25 0,-0.984375 -0.859375,-1.671875 -2.546875,-1.671875 H 2.875 c -0.25,0 -0.453125,0 -0.453125,0.34375 0,0.21875 0.15625,0.21875 0.5,0.21875 0.25,0 0.484375,0.015625 0.734375,0.03125 z m 3.203125,-6.625 c 0.046875,-0.1875 0.0625,-0.1875 0.125,-0.203125 0.109375,-0.015625 0.1875,-0.015625 0.328125,-0.015625 h 1.78125 c 0.234375,0 1.203125,0 1.203125,1.046875 0,0.828125 -0.671875,2.109375 -2.296875,2.109375 H 4.40625 Z M 3.734375,-0.5625 c -0.1875,0 -0.203125,0 -0.296875,-0.015625 l 0.859375,-3.46875 h 2.34375 c 0.296875,0 1.3125,0 1.3125,1.21875 0,0.921875 -0.609375,2.265625 -2.3125,2.265625 z m 0,0"
             id="path2"
             style="stroke-width:0.436288" />
        </g>
      </g>
    </g>
    <g
       inkscape:label=""
       transform="matrix(2.2920626,0,0,2.2920626,280.29762,620.88318)"
       id="g5"
       style="stroke-width:0.436288">
      <g
         fill="#000000"
         fill-opacity="1"
         id="g3"
         transform="matrix(1.33333,0,0,1.33333,-3.3865,-2.66283)"
         style="stroke-width:0.436288">
        <g
           id="use2"
           transform="translate(1.993,10.294)"
           style="stroke-width:0.436288">
          <path
             d="m 3.03125,-8 c 0.015625,-0.046875 0.046875,-0.109375 0.046875,-0.171875 0,-0.125 -0.125,-0.125 -0.15625,-0.125 0,0 -0.4375,0.03125 -0.65625,0.0625 -0.203125,0.015625 -0.375,0.03125 -0.59375,0.046875 -0.28125,0.03125 -0.375,0.03125 -0.375,0.25 0,0.125 0.125,0.125 0.25,0.125 0.609375,0 0.609375,0.109375 0.609375,0.21875 0,0.046875 0,0.078125 -0.0625,0.296875 L 0.609375,-1.375 c -0.03125,0.125 -0.0625,0.234375 -0.0625,0.421875 0,0.59375 0.4375,1.078125 1.0625,1.078125 0.390625,0 0.65625,-0.265625 0.84375,-0.640625 0.203125,-0.390625 0.375,-1.140625 0.375,-1.1875 0,-0.0625 -0.0625,-0.109375 -0.125,-0.109375 -0.109375,0 -0.125,0.0625 -0.171875,0.234375 C 2.3125,-0.75 2.109375,-0.125 1.625,-0.125 c -0.359375,0 -0.359375,-0.375 -0.359375,-0.546875 0,-0.046875 0,-0.296875 0.078125,-0.625 z m 0,0"
             id="path4"
             style="stroke-width:0.436288" />
        </g>
      </g>
      <g
         fill="#000000"
         fill-opacity="1"
         id="g4"
         transform="matrix(1.33333,0,0,1.33333,-3.3865,-2.66283)"
         style="stroke-width:0.436288">
        <g
           id="use3"
           transform="translate(5.4790001,12.087)"
           style="stroke-width:0.436288">
          <path
             d="m 2.5,-5.078125 c 0,-0.21875 -0.015625,-0.21875 -0.234375,-0.21875 -0.328125,0.3125 -0.75,0.5 -1.5,0.5 v 0.265625 c 0.21875,0 0.640625,0 1.109375,-0.203125 v 4.078125 c 0,0.296875 -0.03125,0.390625 -0.78125,0.390625 H 0.8125 V 0 c 0.328125,-0.03125 1.015625,-0.03125 1.375,-0.03125 0.359375,0 1.046875,0 1.375,0.03125 V -0.265625 H 3.28125 c -0.75,0 -0.78125,-0.09375 -0.78125,-0.390625 z m 0,0"
             id="path5"
             style="stroke-width:0.436288" />
        </g>
      </g>
    </g>
    <g
       inkscape:label=""
       transform="matrix(2.2920626,0,0,2.2920626,626.26381,386.81813)"
       id="g23"
       style="stroke-width:0.436288">
      <g
         fill="#000000"
         fill-opacity="1"
         id="g20"
         transform="matrix(1.33333,0,0,1.33333,-3.3865,-2.66283)"
         style="stroke-width:0.436288">
        <g
           id="g19"
           transform="translate(1.993,10.294)"
           style="stroke-width:0.436288">
          <path
             d="m 3.03125,-8 c 0.015625,-0.046875 0.046875,-0.109375 0.046875,-0.171875 0,-0.125 -0.125,-0.125 -0.15625,-0.125 0,0 -0.4375,0.03125 -0.65625,0.0625 -0.203125,0.015625 -0.375,0.03125 -0.59375,0.046875 -0.28125,0.03125 -0.375,0.03125 -0.375,0.25 0,0.125 0.125,0.125 0.25,0.125 0.609375,0 0.609375,0.109375 0.609375,0.21875 0,0.046875 0,0.078125 -0.0625,0.296875 L 0.609375,-1.375 c -0.03125,0.125 -0.0625,0.234375 -0.0625,0.421875 0,0.59375 0.4375,1.078125 1.0625,1.078125 0.390625,0 0.65625,-0.265625 0.84375,-0.640625 0.203125,-0.390625 0.375,-1.140625 0.375,-1.1875 0,-0.0625 -0.0625,-0.109375 -0.125,-0.109375 -0.109375,0 -0.125,0.0625 -0.171875,0.234375 C 2.3125,-0.75 2.109375,-0.125 1.625,-0.125 c -0.359375,0 -0.359375,-0.375 -0.359375,-0.546875 0,-0.046875 0,-0.296875 0.078125,-0.625 z m 0,0"
             id="path6"
             style="stroke-width:0.436288" />
        </g>
      </g>
      <g
         fill="#000000"
         fill-opacity="1"
         id="g22"
         transform="matrix(1.33333,0,0,1.33333,-3.3865,-2.66283)"
         style="stroke-width:0.436288">
        <g
           id="g21"
           transform="translate(5.4790001,12.087)"
           style="stroke-width:0.436288">
          <path
             d="m 2.25,-1.625 c 0.125,-0.125 0.453125,-0.390625 0.59375,-0.5 0.484375,-0.453125 0.953125,-0.890625 0.953125,-1.609375 0,-0.953125 -0.796875,-1.5625 -1.78125,-1.5625 -0.96875,0 -1.59375,0.71875 -1.59375,1.4375 0,0.390625 0.3125,0.4375 0.421875,0.4375 0.171875,0 0.421875,-0.109375 0.421875,-0.421875 0,-0.40625 -0.40625,-0.40625 -0.5,-0.40625 C 1,-4.84375 1.53125,-5.03125 1.921875,-5.03125 c 0.734375,0 1.125,0.625 1.125,1.296875 0,0.828125 -0.578125,1.4375 -1.53125,2.390625 l -1,1.046875 C 0.421875,-0.21875 0.421875,-0.203125 0.421875,0 H 3.5625 l 0.234375,-1.421875 h -0.25 C 3.53125,-1.265625 3.46875,-0.875 3.375,-0.71875 c -0.046875,0.0625 -0.65625,0.0625 -0.78125,0.0625 H 1.171875 Z m 0,0"
             id="path7"
             style="stroke-width:0.436288" />
        </g>
      </g>
    </g>
    <g
       inkscape:label=""
       transform="matrix(2.2920626,0,0,2.2920626,388.74183,487.94619)"
       id="g13"
       style="stroke-width:0.436288">
      <g
         fill="#000000"
         fill-opacity="1"
         id="g12"
         transform="matrix(1.33333,0,0,1.33333,-3.15733,-2.51083)"
         style="stroke-width:0.436288">
        <g
           id="g11"
           transform="translate(1.993,7.3049998)"
           style="stroke-width:0.436288">
          <path
             d="m 6.46875,-4.328125 c 0,-1.09375 -0.796875,-1.09375 -0.8125,-1.09375 C 5.171875,-5.421875 4.75,-4.90625 4.75,-4.5 c 0,0.328125 0.25,0.46875 0.359375,0.53125 0.5,0.296875 0.59375,0.515625 0.59375,0.75 0,0.265625 -0.6875,2.890625 -2.09375,2.890625 -0.859375,0 -0.859375,-0.71875 -0.859375,-0.9375 0,-0.6875 0.328125,-1.5625 0.71875,-2.53125 0.09375,-0.234375 0.125,-0.34375 0.125,-0.53125 0,-0.6875 -0.6875,-1.078125 -1.34375,-1.078125 -1.265625,0 -1.875,1.625 -1.875,1.875 0,0.15625 0.1875,0.15625 0.296875,0.15625 0.140625,0 0.21875,0 0.265625,-0.15625 0.390625,-1.28125 1.015625,-1.4375 1.234375,-1.4375 0.09375,0 0.203125,0 0.203125,0.25 0,0.265625 -0.140625,0.625 -0.171875,0.71875 -0.546875,1.375 -0.734375,1.921875 -0.734375,2.5 0,1.265625 1.03125,1.59375 2.0625,1.59375 2.0625,0 2.9375,-3.390625 2.9375,-4.421875 z m 0,0"
             id="path23"
             style="stroke-width:0.436288" />
        </g>
      </g>
    </g>
  </g>
</svg>
