<?xml version="1.0" encoding="UTF-8" standalone="no"?>
<!-- Created with Inkscape (http://www.inkscape.org/) -->

<svg
   width="652.54755"
   height="321.67188"
   id="svg3675"
   sodipodi:version="0.32"
   inkscape:version="1.3.2 (091e20e, 2023-11-25, custom)"
   sodipodi:docname="Hyteresis_curve_PM_temperature.svg"
   inkscape:output_extension="org.inkscape.output.svg.inkscape"
   version="1.0"
   xmlns:inkscape="http://www.inkscape.org/namespaces/inkscape"
   xmlns:sodipodi="http://sodipodi.sourceforge.net/DTD/sodipodi-0.dtd"
   xmlns="http://www.w3.org/2000/svg"
   xmlns:svg="http://www.w3.org/2000/svg"
   xmlns:rdf="http://www.w3.org/1999/02/22-rdf-syntax-ns#"
   xmlns:cc="http://creativecommons.org/ns#"
   xmlns:dc="http://purl.org/dc/elements/1.1/">
  <sodipodi:namedview
     id="base"
     pagecolor="#ffffff"
     bordercolor="#666666"
     borderopacity="1.0"
     inkscape:pageopacity="0.0"
     inkscape:pageshadow="2"
     inkscape:zoom="1.4"
     inkscape:cx="478.21428"
     inkscape:cy="218.21428"
     inkscape:document-units="px"
     inkscape:current-layer="layer1"
     showgrid="true"
     showguides="true"
     inkscape:guide-bbox="true"
     inkscape:window-width="2560"
     inkscape:window-height="1351"
     inkscape:window-x="2551"
     inkscape:window-y="-9"
     inkscape:window-maximized="1"
     inkscape:showpageshadow="0"
     inkscape:pagecheckerboard="0"
     inkscape:deskcolor="#505050">
    <inkscape:grid
       id="grid16"
       units="px"
       originx="-4.99996"
       originy="-17.412134"
       spacingx="1"
       spacingy="1"
       empcolor="#0099e5"
       empopacity="0.30196078"
       color="#0099e5"
       opacity="0.14901961"
       empspacing="5"
       dotted="false"
       gridanglex="30"
       gridanglez="30"
       visible="true" />
  </sodipodi:namedview>
  <defs
     id="defs3677">
    <inkscape:path-effect
       effect="bspline"
       id="path-effect11"
       is_visible="true"
       lpeversion="1.3"
       weight="33.333333"
       steps="2"
       helper_size="0"
       apply_no_weight="true"
       apply_with_weight="true"
       only_selected="false"
       uniform="false" />
    <inkscape:path-effect
       effect="bspline"
       id="path-effect10"
       is_visible="true"
       lpeversion="1.3"
       weight="33.333333"
       steps="2"
       helper_size="0"
       apply_no_weight="true"
       apply_with_weight="true"
       only_selected="false"
       uniform="false" />
    <inkscape:path-effect
       effect="bspline"
       id="path-effect9"
       is_visible="true"
       lpeversion="1.3"
       weight="33.333333"
       steps="2"
       helper_size="0"
       apply_no_weight="true"
       apply_with_weight="true"
       only_selected="false"
       uniform="false" />
    <inkscape:path-effect
       effect="bspline"
       id="path-effect8"
       is_visible="true"
       lpeversion="1.3"
       weight="33.333333"
       steps="2"
       helper_size="0"
       apply_no_weight="true"
       apply_with_weight="true"
       only_selected="false"
       uniform="false" />
    <marker
       inkscape:stockid="Arrow1Mstart"
       orient="auto"
       refY="0"
       refX="0"
       id="Arrow1Mstart"
       style="overflow:visible"
       viewBox="0 0 8.886927 5.078244"
       markerWidth="8.8869267"
       markerHeight="5.0782442"
       preserveAspectRatio="xMidYMid">
      <path
         id="path4207"
         d="M 0,0 5,-5 -12.5,0 5,5 Z"
         style="fill-rule:evenodd;stroke:#000000;stroke-width:1pt;marker-start:none"
         transform="matrix(0.4,0,0,0.4,4,0)" />
    </marker>
    <marker
       inkscape:stockid="Arrow1Mend"
       orient="auto"
       refY="0"
       refX="0"
       id="Arrow1Mend"
       style="overflow:visible"
       viewBox="0 0 8.886927 5.078244"
       markerWidth="8.8869267"
       markerHeight="5.0782442"
       preserveAspectRatio="xMidYMid">
      <path
         id="path4210"
         d="M 0,0 5,-5 -12.5,0 5,5 Z"
         style="fill-rule:evenodd;stroke:#000000;stroke-width:1pt;marker-start:none"
         transform="matrix(-0.4,0,0,-0.4,-4,0)" />
    </marker>
    <marker
       inkscape:stockid="Arrow1Lend"
       orient="auto"
       refY="0"
       refX="0"
       id="Arrow1Lend"
       style="overflow:visible"
       viewBox="0 0 17.773854 10.156488"
       markerWidth="17.773853"
       markerHeight="10.156488"
       preserveAspectRatio="xMidYMid">
      <path
         id="path4204"
         d="M 0,0 5,-5 -12.5,0 5,5 Z"
         style="fill-rule:evenodd;stroke:#000000;stroke-width:1pt;marker-start:none"
         transform="matrix(-0.8,0,0,-0.8,-10,0)" />
    </marker>
    <marker
       inkscape:stockid="Arrow1Lstart"
       orient="auto"
       refY="0"
       refX="0"
       id="Arrow1Lstart"
       style="overflow:visible"
       viewBox="0 0 17.773854 10.156488"
       markerWidth="17.773853"
       markerHeight="10.156487"
       preserveAspectRatio="xMidYMid">
      <path
         id="path4201"
         d="M 0,0 5,-5 -12.5,0 5,5 Z"
         style="fill-rule:evenodd;stroke:#000000;stroke-width:1pt;marker-start:none"
         transform="matrix(0.8,0,0,0.8,10,0)" />
    </marker>
    <inkscape:perspective
       sodipodi:type="inkscape:persp3d"
       inkscape:vp_x="0 : 217.85296 : 1"
       inkscape:vp_y="0 : 1000 : 0"
       inkscape:vp_z="744.09448 : 217.85296 : 1"
       inkscape:persp3d-origin="372.04724 : 42.459264 : 1"
       id="perspective3683" />
    <inkscape:perspective
       id="perspective2903"
       inkscape:persp3d-origin="0.5 : -307.99479 : 1"
       inkscape:vp_z="1 : -307.82813 : 1"
       inkscape:vp_y="0 : 1000 : 0"
       inkscape:vp_x="0 : -307.82813 : 1"
       sodipodi:type="inkscape:persp3d" />
    <inkscape:perspective
       id="perspective3740"
       inkscape:persp3d-origin="0.5 : -307.99479 : 1"
       inkscape:vp_z="1 : -307.82813 : 1"
       inkscape:vp_y="0 : 1000 : 0"
       inkscape:vp_x="0 : -307.82813 : 1"
       sodipodi:type="inkscape:persp3d" />
    <inkscape:perspective
       id="perspective3762"
       inkscape:persp3d-origin="0.5 : -307.99479 : 1"
       inkscape:vp_z="1 : -307.82813 : 1"
       inkscape:vp_y="0 : 1000 : 0"
       inkscape:vp_x="0 : -307.82813 : 1"
       sodipodi:type="inkscape:persp3d" />
    <inkscape:perspective
       id="perspective3784"
       inkscape:persp3d-origin="0.5 : -307.99479 : 1"
       inkscape:vp_z="1 : -307.82813 : 1"
       inkscape:vp_y="0 : 1000 : 0"
       inkscape:vp_x="0 : -307.82813 : 1"
       sodipodi:type="inkscape:persp3d" />
    <marker
       inkscape:stockid="Arrow1Mend"
       orient="auto"
       refY="0"
       refX="0"
       id="Arrow1Mend-9"
       style="overflow:visible">
      <path
         id="path4210-4"
         d="M 0,0 5,-5 -12.5,0 5,5 Z"
         style="fill-rule:evenodd;stroke:#000000;stroke-width:1pt;marker-start:none"
         transform="matrix(-0.4,0,0,-0.4,-4,0)" />
    </marker>
    <marker
       inkscape:stockid="Arrow1Mend"
       orient="auto"
       refY="0"
       refX="0"
       id="marker3790"
       style="overflow:visible">
      <path
         id="path3792"
         d="M 0,0 5,-5 -12.5,0 5,5 Z"
         style="fill-rule:evenodd;stroke:#000000;stroke-width:1pt;marker-start:none"
         transform="matrix(-0.4,0,0,-0.4,-4,0)" />
    </marker>
    <marker
       inkscape:stockid="Arrow1Mend"
       orient="auto"
       refY="0"
       refX="0"
       id="marker3794"
       style="overflow:visible">
      <path
         id="path3796"
         d="M 0,0 5,-5 -12.5,0 5,5 Z"
         style="fill-rule:evenodd;stroke:#000000;stroke-width:1pt;marker-start:none"
         transform="matrix(-0.4,0,0,-0.4,-4,0)" />
    </marker>
    <marker
       inkscape:stockid="Arrow1Mend"
       orient="auto"
       refY="0"
       refX="0"
       id="marker3798"
       style="overflow:visible">
      <path
         id="path3800"
         d="M 0,0 5,-5 -12.5,0 5,5 Z"
         style="fill-rule:evenodd;stroke:#000000;stroke-width:1pt;marker-start:none"
         transform="matrix(-0.4,0,0,-0.4,-4,0)" />
    </marker>
    <inkscape:perspective
       id="perspective3854"
       inkscape:persp3d-origin="0.5 : -307.99479 : 1"
       inkscape:vp_z="1 : -307.82813 : 1"
       inkscape:vp_y="0 : 1000 : 0"
       inkscape:vp_x="0 : -307.82813 : 1"
       sodipodi:type="inkscape:persp3d" />
    <marker
       inkscape:stockid="Arrow1Mend"
       orient="auto"
       refY="0"
       refX="0"
       id="Arrow1Mend-7"
       style="overflow:visible">
      <path
         id="path4210-1"
         d="M 0,0 5,-5 -12.5,0 5,5 Z"
         style="fill-rule:evenodd;stroke:#000000;stroke-width:1pt;marker-start:none"
         transform="matrix(-0.4,0,0,-0.4,-4,0)" />
    </marker>
    <marker
       inkscape:stockid="Arrow1Mend"
       orient="auto"
       refY="0"
       refX="0"
       id="marker3860"
       style="overflow:visible">
      <path
         id="path3862"
         d="M 0,0 5,-5 -12.5,0 5,5 Z"
         style="fill-rule:evenodd;stroke:#000000;stroke-width:1pt;marker-start:none"
         transform="matrix(-0.4,0,0,-0.4,-4,0)" />
    </marker>
    <marker
       inkscape:stockid="Arrow1Mend"
       orient="auto"
       refY="0"
       refX="0"
       id="marker3864"
       style="overflow:visible">
      <path
         id="path3866"
         d="M 0,0 5,-5 -12.5,0 5,5 Z"
         style="fill-rule:evenodd;stroke:#000000;stroke-width:1pt;marker-start:none"
         transform="matrix(-0.4,0,0,-0.4,-4,0)" />
    </marker>
    <marker
       inkscape:stockid="Arrow1Mend"
       orient="auto"
       refY="0"
       refX="0"
       id="marker3868"
       style="overflow:visible">
      <path
         id="path3870"
         d="M 0,0 5,-5 -12.5,0 5,5 Z"
         style="fill-rule:evenodd;stroke:#000000;stroke-width:1pt;marker-start:none"
         transform="matrix(-0.4,0,0,-0.4,-4,0)" />
    </marker>
    <inkscape:perspective
       id="perspective3918"
       inkscape:persp3d-origin="0.5 : -307.99479 : 1"
       inkscape:vp_z="1 : -307.82813 : 1"
       inkscape:vp_y="0 : 1000 : 0"
       inkscape:vp_x="0 : -307.82813 : 1"
       sodipodi:type="inkscape:persp3d" />
    <marker
       inkscape:stockid="Arrow1Mend"
       orient="auto"
       refY="0"
       refX="0"
       id="Arrow1Mend-1"
       style="overflow:visible">
      <path
         id="path4210-42"
         d="M 0,0 5,-5 -12.5,0 5,5 Z"
         style="fill-rule:evenodd;stroke:#000000;stroke-width:1pt;marker-start:none"
         transform="matrix(-0.4,0,0,-0.4,-4,0)" />
    </marker>
    <marker
       inkscape:stockid="Arrow1Mend"
       orient="auto"
       refY="0"
       refX="0"
       id="marker3924"
       style="overflow:visible">
      <path
         id="path3926"
         d="M 0,0 5,-5 -12.5,0 5,5 Z"
         style="fill-rule:evenodd;stroke:#000000;stroke-width:1pt;marker-start:none"
         transform="matrix(-0.4,0,0,-0.4,-4,0)" />
    </marker>
    <marker
       inkscape:stockid="Arrow1Mend"
       orient="auto"
       refY="0"
       refX="0"
       id="marker3928"
       style="overflow:visible">
      <path
         id="path3930"
         d="M 0,0 5,-5 -12.5,0 5,5 Z"
         style="fill-rule:evenodd;stroke:#000000;stroke-width:1pt;marker-start:none"
         transform="matrix(-0.4,0,0,-0.4,-4,0)" />
    </marker>
    <marker
       inkscape:stockid="Arrow1Mend"
       orient="auto"
       refY="0"
       refX="0"
       id="marker3932"
       style="overflow:visible">
      <path
         id="path3934"
         d="M 0,0 5,-5 -12.5,0 5,5 Z"
         style="fill-rule:evenodd;stroke:#000000;stroke-width:1pt;marker-start:none"
         transform="matrix(-0.4,0,0,-0.4,-4,0)" />
    </marker>
    <marker
       inkscape:stockid="Arrow1Lstart"
       orient="auto"
       refY="0"
       refX="0"
       id="Arrow1Lstart-2"
       style="overflow:visible"
       viewBox="0 0 17.773854 10.156488"
       markerWidth="17.773853"
       markerHeight="10.156487"
       preserveAspectRatio="xMidYMid">
      <path
         id="path4201-9"
         d="M 0,0 5,-5 -12.5,0 5,5 Z"
         style="fill-rule:evenodd;stroke:#000000;stroke-width:1pt;marker-start:none"
         transform="matrix(0.8,0,0,0.8,10,0)" />
    </marker>
    <marker
       inkscape:stockid="Arrow1Mend"
       orient="auto"
       refY="0"
       refX="0"
       id="Arrow1Mend-0"
       style="overflow:visible">
      <path
         id="path4210-5"
         d="M 0,0 5,-5 -12.5,0 5,5 Z"
         style="fill-rule:evenodd;stroke:#000000;stroke-width:1pt;marker-start:none"
         transform="matrix(-0.4,0,0,-0.4,-4,0)" />
    </marker>
    <marker
       inkscape:stockid="Arrow1Mend"
       orient="auto"
       refY="0"
       refX="0"
       id="marker1"
       style="overflow:visible">
      <path
         id="path1-1"
         d="M 0,0 5,-5 -12.5,0 5,5 Z"
         style="fill-rule:evenodd;stroke:#000000;stroke-width:1pt;marker-start:none"
         transform="matrix(-0.4,0,0,-0.4,-4,0)" />
    </marker>
    <marker
       inkscape:stockid="Arrow1Mend"
       orient="auto"
       refY="0"
       refX="0"
       id="marker2"
       style="overflow:visible">
      <path
         id="path2-4"
         d="M 0,0 5,-5 -12.5,0 5,5 Z"
         style="fill-rule:evenodd;stroke:#000000;stroke-width:1pt;marker-start:none"
         transform="matrix(-0.4,0,0,-0.4,-4,0)" />
    </marker>
    <marker
       inkscape:stockid="Arrow1Mend"
       orient="auto"
       refY="0"
       refX="0"
       id="marker3"
       style="overflow:visible">
      <path
         id="path3-4"
         d="M 0,0 5,-5 -12.5,0 5,5 Z"
         style="fill-rule:evenodd;stroke:#000000;stroke-width:1pt;marker-start:none"
         transform="matrix(-0.4,0,0,-0.4,-4,0)" />
    </marker>
    <inkscape:path-effect
       effect="bspline"
       id="path-effect10-0"
       is_visible="true"
       lpeversion="1.3"
       weight="33.333333"
       steps="2"
       helper_size="0"
       apply_no_weight="true"
       apply_with_weight="true"
       only_selected="false"
       uniform="false" />
    <inkscape:path-effect
       effect="bspline"
       id="path-effect11-7"
       is_visible="true"
       lpeversion="1.3"
       weight="33.333333"
       steps="2"
       helper_size="0"
       apply_no_weight="true"
       apply_with_weight="true"
       only_selected="false"
       uniform="false" />
    <inkscape:path-effect
       effect="bspline"
       id="path-effect10-8"
       is_visible="true"
       lpeversion="1.3"
       weight="33.333333"
       steps="2"
       helper_size="0"
       apply_no_weight="true"
       apply_with_weight="true"
       only_selected="false"
       uniform="false" />
    <inkscape:path-effect
       effect="bspline"
       id="path-effect10-8-6"
       is_visible="true"
       lpeversion="1.3"
       weight="33.333333"
       steps="2"
       helper_size="0"
       apply_no_weight="true"
       apply_with_weight="true"
       only_selected="false"
       uniform="false" />
    <inkscape:path-effect
       effect="bspline"
       id="path-effect10-8-6-4"
       is_visible="true"
       lpeversion="1.3"
       weight="33.333333"
       steps="2"
       helper_size="0"
       apply_no_weight="true"
       apply_with_weight="true"
       only_selected="false"
       uniform="false" />
    <inkscape:path-effect
       effect="bspline"
       id="path-effect10-8-6-4-8"
       is_visible="true"
       lpeversion="1.3"
       weight="33.333333"
       steps="2"
       helper_size="0"
       apply_no_weight="true"
       apply_with_weight="true"
       only_selected="false"
       uniform="false" />
    <inkscape:path-effect
       effect="bspline"
       id="path-effect10-8-6-4-8-5"
       is_visible="true"
       lpeversion="1.3"
       weight="33.333333"
       steps="2"
       helper_size="0"
       apply_no_weight="true"
       apply_with_weight="true"
       only_selected="false"
       uniform="false" />
  </defs>
  <metadata
     id="metadata3680">
    <rdf:RDF>
      <cc:Work
         rdf:about="">
        <dc:format>image/svg+xml</dc:format>
        <dc:type
           rdf:resource="http://purl.org/dc/dcmitype/StillImage" />
      </cc:Work>
    </rdf:RDF>
  </metadata>
  <g
     inkscape:label="Livello 1"
     inkscape:groupmode="layer"
     id="layer1"
     transform="translate(-49.93936,-115.28673)">
    <path
       d="m 694.31837,406.95355 c 0.44975,-1.67052 0.57825,-2.12027 4.04779,-2.12027 0.8995,0 1.34926,0 1.34926,-0.89951 0,-0.514 -0.44976,-0.514 -0.70676,-0.514 -0.89951,0 -1.92752,0.0642 -2.82703,0.0642 h -5.8468 c -0.89951,0 -1.92752,-0.0642 -2.89128,-0.0642 -0.32126,0 -0.89951,0 -0.89951,0.89951 0,0.514 0.32125,0.514 1.22076,0.514 2.95553,0 2.95553,0.3855 2.95553,0.89951 0,0.1285 0,0.3855 -0.19275,1.15651 l -2.95553,11.88637 h -14.8419 l 2.95553,-11.82212 c 0.3855,-1.67052 0.51401,-2.12027 3.98354,-2.12027 0.89951,0 1.41351,0 1.41351,-0.89951 0,-0.514 -0.44975,-0.514 -0.771,-0.514 -0.89951,0 -1.92752,0.0642 -2.82703,0.0642 h -5.78256 c -0.96376,0 -1.99177,-0.0642 -2.95553,-0.0642 -0.32125,0 -0.89951,0 -0.89951,0.89951 0,0.514 0.32126,0.514 1.28502,0.514 2.95552,0 2.95552,0.3855 2.95552,0.89951 0,0.1285 0,0.3855 -0.19275,1.15651 l -6.68206,26.40701 c -0.44976,1.73477 -0.51401,2.24878 -3.91929,2.24878 -1.09226,0 -1.47777,0 -1.47777,0.8995 0,0.51401 0.57826,0.51401 0.70676,0.51401 0.89951,0 1.92752,-0.1285 2.82703,-0.1285 h 5.84681 c 0.8995,0 1.92751,0.1285 2.89127,0.1285 0.38551,0 0.89951,0 0.89951,-0.96376 0,-0.44975 -0.44975,-0.44975 -1.15651,-0.44975 -3.01978,0 -3.01978,-0.38551 -3.01978,-0.89951 0,-0.0642 0,-0.38551 0.1285,-0.77101 l 3.34104,-13.68539 h 14.90614 c -0.83525,3.27679 -3.34103,13.55689 -3.40528,13.81389 -0.57826,1.47777 -1.34926,1.47777 -4.24054,1.54202 -0.57826,0 -1.02801,0 -1.02801,0.8995 0,0.51401 0.514,0.51401 0.70676,0.51401 0.83525,0 1.86326,-0.1285 2.82702,-0.1285 h 5.78256 c 0.96376,0 1.99177,0.1285 2.89128,0.1285 0.3855,0 0.96376,0 0.96376,-0.96376 0,-0.44975 -0.44976,-0.44975 -1.15651,-0.44975 -3.01978,0 -3.01978,-0.38551 -3.01978,-0.89951 0,-0.0642 0,-0.38551 0.0643,-0.77101 z m 0,0"
       id="path2"
       style="fill:#000000;fill-opacity:1;stroke-width:1.33333" />
    <path
       d="m 651.43518,122.46929 c 0.44975,-1.86327 0.64251,-1.92752 2.57002,-1.92752 h 6.36082 c 5.5898,0 5.5898,4.6903 5.5898,5.14005 0,3.98354 -3.98354,9.05934 -10.47285,9.05934 h -7.06757 z m 8.28833,12.65738 c 5.39706,-0.96376 10.21585,-4.75455 10.21585,-9.2521 0,-3.85503 -3.34103,-6.74632 -8.93084,-6.74632 h -15.7414 c -0.96376,0 -1.41352,0 -1.41352,0.89951 0,0.51401 0.44976,0.51401 1.22077,0.51401 2.95553,0 2.95553,0.3855 2.95553,0.89951 0,0.1285 0,0.3855 -0.19276,1.15651 l -6.61781,26.40701 c -0.44976,1.73477 -0.57826,2.24878 -3.98354,2.24878 -0.96376,0 -1.41352,0 -1.41352,0.8995 0,0.51401 0.25701,0.51401 1.28502,0.51401 h 16.83366 c 7.51733,0 13.29989,-5.71831 13.29989,-10.66561 0,-4.04779 -3.53379,-6.48931 -7.51733,-6.87481 z m -6.93907,16.12691 h -6.68206 c -0.64251,0 -0.77101,0 -1.02801,-0.0642 -0.57826,-0.0643 -0.64251,-0.12851 -0.64251,-0.51401 0,-0.3855 0.1285,-0.64251 0.19275,-1.09226 l 3.46954,-13.87814 h 9.25209 c 5.78256,0 5.78256,5.39705 5.78256,5.78256 0,4.75455 -4.24055,9.7661 -10.34436,9.7661 z m 0,0"
       id="path1"
       style="fill:#000000;fill-opacity:1;stroke-width:1.33333" />
    <path
       style="fill:#000000;fill-rule:evenodd;stroke:#000000;stroke-width:1.333;stroke-opacity:1;marker-start:url(#Arrow1Lstart)"
       d="M 623.93936,117.87457 V 427.8746"
       id="path3" />
    <path
       style="fill:#000000;fill-rule:evenodd;stroke:#000000;stroke-width:1.333;stroke-opacity:1;marker-start:url(#Arrow1Lstart-2)"
       d="M 699.8991,390.37458 H 49.93936"
       id="path3-1" />
    <g
       id="g11"
       transform="translate(-42.617339,44.446712)">
      <path
         style="fill:none;fill-opacity:0.253913;fill-rule:evenodd;stroke:#ff0000;stroke-width:2"
         d="M 135.24246,345.92786 C 312.1803,265.12964 489.11357,184.33351 666.05107,103.53545"
         id="path10"
         inkscape:path-effect="#path-effect10"
         inkscape:original-d="M 135.24246,345.92786 C 312.1803,265.12964 489.11357,184.33351 666.05107,103.53545"
         sodipodi:nodetypes="cc" />
      <path
         style="fill:none;fill-opacity:0.253913;fill-rule:evenodd;stroke:#ff0000;stroke-width:2"
         d="M 171.31389,329.4075 C 336.22781,254.11612 501.13747,178.82669 666.05107,103.53545"
         id="path10-8"
         inkscape:path-effect="#path-effect10-8"
         inkscape:original-d="M 171.31389,329.4075 C 336.22781,254.11612 501.13747,178.82669 666.05107,103.53545"
         sodipodi:nodetypes="cc"
         transform="translate(0,16.520358)" />
      <path
         style="fill:none;fill-opacity:0.253913;fill-rule:evenodd;stroke:#ff0000;stroke-width:2"
         d="M 211.01531,311.03542 C 362.6953,241.86812 514.37137,172.70261 666.05107,103.53545"
         id="path10-8-5"
         inkscape:path-effect="#path-effect10-8-6"
         inkscape:original-d="M 211.01531,311.03542 C 362.6953,241.86812 514.37137,172.70261 666.05107,103.53545"
         sodipodi:nodetypes="cc"
         transform="translate(1.505669,34.892438)" />
      <path
         style="fill:none;fill-opacity:0.253913;fill-rule:evenodd;stroke:#ff0000;stroke-width:2"
         d="m 284.75645,291.18767 c 5.43157,-7.80332 10.86307,-15.60654 74.41228,-46.88196 63.5492,-31.27542 185.21463,-86.02233 306.88234,-140.77026"
         id="path10-8-5-2"
         inkscape:path-effect="#path-effect10-8-6-4"
         inkscape:original-d="m 284.75645,291.18767 c 5.43156,-7.80332 10.86307,-15.60654 16.29462,-23.40983 121.66686,-54.74755 243.33229,-109.49446 365,-164.24239"
         sodipodi:nodetypes="ccc"
         transform="translate(1.505669,55.650052)" />
      <path
         style="fill:none;fill-opacity:0.253913;fill-rule:evenodd;stroke:#ff0000;stroke-width:2"
         d="m 369.35673,268.6552 c 0.56478,-10.83338 1.12956,-21.66663 50.5787,-49.18664 49.44915,-27.52001 147.78146,-71.72614 246.11564,-115.93311"
         id="path10-8-5-2-6"
         inkscape:path-effect="#path-effect10-8-6-4-8"
         inkscape:original-d="m 369.35673,268.6552 c 0.56478,-10.83338 1.12956,-21.66663 1.69434,-32.49998 98.33351,-44.20666 196.66582,-88.4128 295,-132.61977"
         sodipodi:nodetypes="ccc"
         transform="translate(1.505669,77.272664)" />
      <path
         style="fill:none;fill-opacity:0.253913;fill-rule:evenodd;stroke:#ff0000;stroke-width:2"
         d="m 443.3504,247.95558 c 2.5669,-14.25765 5.13377,-28.51512 42.25063,-52.5852 37.11686,-24.07007 108.78276,-57.95217 180.45004,-91.83493"
         id="path10-8-5-2-6-0"
         inkscape:path-effect="#path-effect10-8-6-4-8-5"
         inkscape:original-d="m 443.3504,247.95558 c 2.5669,-14.25765 5.13378,-28.51512 7.70067,-42.77273 71.66682,-33.88254 143.33272,-67.76464 215,-101.6474"
         sodipodi:nodetypes="ccc"
         transform="translate(1.505669,98.245041)" />
      <path
         style="fill:#000000;fill-rule:evenodd;stroke:#000000;stroke-width:2;stroke-dasharray:8, 2;stroke-dashoffset:0;stroke-opacity:1;marker-end:url(#Arrow1Mend)"
         d="m 457.55674,168.42789 105,135"
         id="path4"
         sodipodi:nodetypes="cc" />
      <text
         xml:space="preserve"
         style="font-size:17.3333px;line-height:1;font-family:sans-serif;-inkscape-font-specification:sans-serif;text-align:end;text-anchor:end;fill:#000000;fill-rule:evenodd;stroke:#000000;stroke-width:2;stroke-dasharray:none;stroke-dashoffset:0;stroke-opacity:1"
         x="487.55673"
         y="158.42789"
         id="text4"><tspan
           sodipodi:role="line"
           id="tspan4"
           x="487.55673"
           y="158.42789"
           style="stroke:none">Increasing temperature</tspan></text>
    </g>
    <text
       xml:space="preserve"
       style="font-size:21.3333px;line-height:1;font-family:sans-serif;-inkscape-font-specification:sans-serif;fill:none;fill-opacity:0.253913;fill-rule:evenodd;stroke:#000000;stroke-width:1;stroke-dasharray:none;stroke-dashoffset:0;stroke-opacity:1"
       x="79.9394"
       y="337.8746"
       id="text16-4-5"><tspan
         sodipodi:role="line"
         x="79.9394"
         y="337.8746"
         style="font-size:21.3333px;fill:#000000;fill-opacity:1;stroke:none"
         id="tspan18-9">knee </tspan><tspan
         sodipodi:role="line"
         x="79.9394"
         y="359.20792"
         style="font-size:21.3333px;fill:#000000;fill-opacity:1;stroke:none"
         id="tspan19">points</tspan></text>
  </g>
</svg>
