<?xml version="1.0" encoding="UTF-8" standalone="no"?>
<!-- Created with Inkscape (http://www.inkscape.org/) -->

<svg
   width="331.64282"
   height="328.52454"
   id="svg2"
   sodipodi:version="0.32"
   inkscape:version="1.3.2 (091e20e, 2023-11-25, custom)"
   sodipodi:docname="Leakage_flux.svg"
   inkscape:output_extension="org.inkscape.output.svg.inkscape"
   version="1.0"
   xmlns:inkscape="http://www.inkscape.org/namespaces/inkscape"
   xmlns:sodipodi="http://sodipodi.sourceforge.net/DTD/sodipodi-0.dtd"
   xmlns="http://www.w3.org/2000/svg"
   xmlns:svg="http://www.w3.org/2000/svg"
   xmlns:rdf="http://www.w3.org/1999/02/22-rdf-syntax-ns#"
   xmlns:cc="http://creativecommons.org/ns#"
   xmlns:dc="http://purl.org/dc/elements/1.1/">
  <sodipodi:namedview
     id="base"
     pagecolor="#ffffff"
     bordercolor="#666666"
     borderopacity="1.0"
     inkscape:pageopacity="0.0"
     inkscape:pageshadow="2"
     inkscape:zoom="1.9235294"
     inkscape:cx="160.38226"
     inkscape:cy="146.34557"
     inkscape:document-units="px"
     inkscape:current-layer="g3432"
     showgrid="false"
     inkscape:window-width="2560"
     inkscape:window-height="1351"
     inkscape:window-x="2551"
     inkscape:window-y="-9"
     objecttolerance="21"
     gridtolerance="21"
     guidetolerance="21"
     inkscape:object-paths="true"
     inkscape:showpageshadow="0"
     inkscape:pagecheckerboard="0"
     inkscape:deskcolor="#505050"
     inkscape:window-maximized="1">
    <inkscape:grid
       type="xygrid"
       id="grid2453"
       visible="false"
       enabled="true"
       originx="-6.006694"
       originy="-6.9777544"
       spacingy="1"
       spacingx="1"
       units="px" />
  </sodipodi:namedview>
  <defs
     id="defs4">
    <inkscape:perspective
       sodipodi:type="inkscape:persp3d"
       inkscape:vp_x="0 : 158.52454 : 1"
       inkscape:vp_y="0 : 1000 : 0"
       inkscape:vp_z="360 : 158.52454 : 1"
       inkscape:persp3d-origin="180 : 101.85787 : 1"
       id="perspective2503" />
  </defs>
  <metadata
     id="metadata7">
    <rdf:RDF>
      <cc:Work
         rdf:about="">
        <dc:format>image/svg+xml</dc:format>
        <dc:type
           rdf:resource="http://purl.org/dc/dcmitype/StillImage" />
      </cc:Work>
    </rdf:RDF>
  </metadata>
  <g
     inkscape:label="Ebene 1"
     inkscape:groupmode="layer"
     id="layer1"
     transform="translate(-187.25169,-359.04675)">
    <g
       id="g3432">
      <path
         sodipodi:type="arc"
         style="display:inline;overflow:visible;visibility:visible;fill:none;fill-opacity:1;fill-rule:nonzero;stroke:#a72f14;stroke-width:3.544;stroke-linecap:square;stroke-linejoin:miter;stroke-miterlimit:4;stroke-dasharray:none;stroke-dashoffset:0;stroke-opacity:1;marker:none;marker-start:none;marker-mid:none;marker-end:none;enable-background:accumulate"
         id="path3430"
         sodipodi:cx="362.08942"
         sodipodi:cy="548.39001"
         sodipodi:rx="101.45107"
         sodipodi:ry="30.900139"
         d="m 262.16084,553.72324 a 101.45107,30.900139 0 0 1 42.72745,-30.85337 101.45107,30.900139 0 0 1 109.90182,-0.88369 101.45107,30.900139 0 0 1 48.01255,30.12376"
         transform="rotate(14.218482,140.35117,273.0055)"
         sodipodi:start="2.9681285"
         sodipodi:end="0.12067809"
         sodipodi:open="true"
         sodipodi:arc-type="arc" />
      <path
         sodipodi:type="arc"
         style="display:inline;overflow:visible;visibility:visible;fill:none;fill-opacity:1;fill-rule:nonzero;stroke:#01c587;stroke-width:3.544;stroke-linecap:square;stroke-linejoin:miter;stroke-miterlimit:4;stroke-dasharray:none;stroke-dashoffset:0;stroke-opacity:1;marker:none;marker-start:none;marker-mid:none;marker-end:none;enable-background:accumulate"
         id="path3426"
         sodipodi:cx="194.18588"
         sodipodi:cy="456.13751"
         sodipodi:rx="76.583138"
         sodipodi:ry="18.77533"
         d="m 121.02503,461.68744 a 76.583138,18.77533 0 0 1 25.79237,-20.30295 76.583138,18.77533 0 0 1 86.55537,-1.37817 76.583138,18.77533 0 0 1 36.2875,19.31448"
         sodipodi:start="2.8415125"
         sodipodi:end="0.17036939"
         sodipodi:open="true"
         transform="rotate(-10.299574,481.44444,-220.37983)"
         sodipodi:arc-type="arc" />
      <g
         id="g3279"
         transform="rotate(-165.611,244.86602,620.53265)"
         style="fill:#a72f14;fill-opacity:1;stroke:#a72f14;stroke-width:0.9;stroke-dasharray:none;stroke-opacity:1">
        <path
           style="fill:#a72f14;fill-opacity:1;fill-rule:evenodd;stroke:#a72f14;stroke-width:0.9;stroke-linecap:butt;stroke-linejoin:miter;stroke-miterlimit:4;stroke-dasharray:none;stroke-opacity:1"
           d="M 161.35291,683.72462 190,687.36218"
           id="path3281"
           sodipodi:nodetypes="cc" />
        <path
           style="fill:#a72f14;fill-opacity:1;fill-rule:evenodd;stroke:#a72f14;stroke-width:0.9;stroke-linecap:butt;stroke-linejoin:miter;stroke-dasharray:none;stroke-opacity:1"
           d="m 189.53296,694.07788 1.01456,-15.9678 19.45247,9.2521 z"
           id="path3283"
           sodipodi:nodetypes="cccc" />
        <g
           inkscape:label=""
           transform="matrix(-1.227597,0.3149422,-0.3149422,-1.227597,191.70025,620.71769)"
           id="g1"
           style="fill:#a72f14;fill-opacity:1;stroke:none;stroke-width:0.710142">
          <g
             fill="#000000"
             fill-opacity="1"
             id="g2"
             transform="matrix(1.33333,0,0,1.33333,-3.449,-2.66417)"
             style="fill:#a72f14;fill-opacity:1;stroke:none;stroke-width:0.560335">
            <g
               id="use1"
               transform="translate(1.993,11.795)"
               style="fill:#a72f14;fill-opacity:1;stroke:none;stroke-width:0.710142">
              <path
                 d="m 5.28125,-8.734375 c 0.125,-0.5 0.15625,-0.640625 1.203125,-0.640625 0.3125,0 0.421875,0 0.421875,-0.28125 0,-0.140625 -0.15625,-0.140625 -0.1875,-0.140625 -0.265625,0 -0.578125,0.03125 -0.84375,0.03125 H 4.109375 c -0.28125,0 -0.609375,-0.03125 -0.890625,-0.03125 -0.125,0 -0.28125,0 -0.28125,0.265625 0,0.15625 0.125,0.15625 0.40625,0.15625 0.890625,0 0.890625,0.109375 0.890625,0.265625 0,0.09375 -0.03125,0.1875 -0.0625,0.3125 l -1.9375,7.734375 c -0.125,0.5 -0.15625,0.640625 -1.203125,0.640625 -0.3125,0 -0.4375,0 -0.4375,0.28125 C 0.59375,0 0.734375,0 0.796875,0 1.0625,0 1.375,-0.03125 1.640625,-0.03125 H 3.40625 C 3.6875,-0.03125 4,0 4.28125,0 c 0.125,0 0.296875,0 0.296875,-0.265625 0,-0.15625 -0.09375,-0.15625 -0.40625,-0.15625 -0.890625,0 -0.890625,-0.109375 -0.890625,-0.28125 0,-0.03125 0,-0.09375 0.0625,-0.328125 z m 0,0"
                 id="path2"
                 style="fill:#a72f14;fill-opacity:1;stroke:none;stroke-width:0.710142" />
            </g>
          </g>
        </g>
      </g>
      <text
         xml:space="preserve"
         style="font-style:normal;font-weight:normal;line-height:0%;font-family:'Bitstream Vera Sans';fill:#000000;fill-opacity:1;stroke:none;stroke-width:1px;stroke-linecap:butt;stroke-linejoin:miter;stroke-opacity:1"
         x="397.16208"
         y="627.37799"
         id="text3297"><tspan
           sodipodi:role="line"
           id="tspan3299"
           x="397.16208"
           y="627.37799"
           style="font-style:normal;font-variant:normal;font-weight:normal;font-stretch:normal;font-size:20px;line-height:1.25;font-family:sans-serif;-inkscape-font-specification:sans-serif">Coil #1</tspan></text>
      <text
         id="text3301"
         y="492.36218"
         x="447"
         style="font-style:normal;font-weight:normal;line-height:0%;font-family:'Bitstream Vera Sans';fill:#000000;fill-opacity:1;stroke:none;stroke-width:1px;stroke-linecap:butt;stroke-linejoin:miter;stroke-opacity:1"
         xml:space="preserve"><tspan
           y="492.36218"
           x="447"
           id="tspan3303"
           sodipodi:role="line"
           style="font-size:20px;line-height:1.25">Coil #2</tspan></text>
      <path
         inkscape:transform-center-y="6.3653724"
         sodipodi:nodetypes="cccc"
         id="path3336"
         d="M 465.37689,402.82367 457,397.36218 469.38067,387.5276 Z"
         style="fill:#000000;fill-opacity:1;fill-rule:evenodd;stroke:#000000;stroke-width:1px;stroke-linecap:butt;stroke-linejoin:miter;stroke-opacity:1" />
      <path
         style="fill:none;fill-rule:evenodd;stroke:#000000;stroke-width:1.5;stroke-linecap:butt;stroke-linejoin:miter;stroke-miterlimit:4;stroke-dasharray:none;stroke-opacity:1"
         d="m 322,687.36218 c 45,-155 139,-287 139,-287"
         id="path3338"
         sodipodi:nodetypes="cc" />
      <path
         sodipodi:nodetypes="cc"
         id="path3342"
         d="m 196,645.36218 c 70,-140 28,-270 28,-270"
         style="fill:none;fill-rule:evenodd;stroke:#000000;stroke-width:1.5;stroke-linecap:butt;stroke-linejoin:miter;stroke-miterlimit:4;stroke-dasharray:none;stroke-opacity:1" />
      <path
         style="fill:none;fill-rule:evenodd;stroke:#3931dc;stroke-width:3;stroke-linecap:butt;stroke-linejoin:miter;stroke-miterlimit:4;stroke-dasharray:none;stroke-opacity:1"
         d="m 233,657.36218 c 63,-122 27,-264 27,-264"
         id="path3344"
         sodipodi:nodetypes="cc" />
      <path
         sodipodi:nodetypes="cc"
         id="path3348"
         d="M 255.19466,664.37553 C 306,535.36218 351,392.36219 351,392.36219"
         style="fill:none;fill-rule:evenodd;stroke:#3931dc;stroke-width:3;stroke-linecap:butt;stroke-linejoin:miter;stroke-miterlimit:4;stroke-dasharray:none;stroke-opacity:1" />
      <path
         style="fill:none;fill-rule:evenodd;stroke:#3931dc;stroke-width:3;stroke-linecap:butt;stroke-linejoin:miter;stroke-miterlimit:4;stroke-dasharray:none;stroke-opacity:1"
         d="m 281,674.36218 c 45,-154 136,-285 136,-285"
         id="path3350"
         sodipodi:nodetypes="cc" />
      <path
         inkscape:transform-center-x="-7.168465"
         style="fill:#000000;fill-opacity:1;fill-rule:evenodd;stroke:#000000;stroke-width:1px;stroke-linecap:butt;stroke-linejoin:miter;stroke-opacity:1"
         d="M 228.62772,373.65903 219,376.36218 l 0.75913,-15.79315 z"
         id="path3352"
         sodipodi:nodetypes="cccc"
         inkscape:transform-center-y="2.3947524" />
      <path
         inkscape:transform-center-y="2.3947524"
         sodipodi:nodetypes="cccc"
         id="path3354"
         d="M 264.62772,391.65903 255,394.36218 l 0.75913,-15.79315 z"
         style="fill:#3931dc;fill-opacity:1;fill-rule:evenodd;stroke:#3931dc;stroke-width:1px;stroke-linecap:butt;stroke-linejoin:miter;stroke-opacity:1"
         inkscape:transform-center-x="-7.168465" />
      <path
         inkscape:transform-center-x="-1.24029"
         style="fill:#3931dc;fill-opacity:1;fill-rule:evenodd;stroke:#3931dc;stroke-width:1px;stroke-linecap:butt;stroke-linejoin:miter;stroke-opacity:1"
         d="M 355.57177,393.25719 346,390.36218 l 9.12839,-12.91016 z"
         id="path3356"
         sodipodi:nodetypes="cccc"
         inkscape:transform-center-y="4.9364824" />
      <path
         inkscape:transform-center-y="6.4156274"
         sodipodi:nodetypes="cccc"
         id="path3358"
         d="m 421,392.36218 -8.31012,-5.56253 12.49885,-9.68393 z"
         style="fill:#3931dc;fill-opacity:1;fill-rule:evenodd;stroke:#3931dc;stroke-width:1px;stroke-linecap:butt;stroke-linejoin:miter;stroke-opacity:1"
         inkscape:transform-center-x="0.04402" />
      <path
         id="path3360"
         d="m 401,485.36218 h 35"
         style="fill:none;fill-rule:evenodd;stroke:#000000;stroke-width:1px;stroke-linecap:butt;stroke-linejoin:miter;stroke-opacity:1" />
      <path
         transform="rotate(-10.299574,481.44444,-220.37983)"
         sodipodi:open="true"
         sodipodi:end="3.503313"
         sodipodi:start="0"
         d="m 270.76902,456.13751 a 76.583138,18.77533 0 0 1 -46.547,17.27103 76.583138,18.77533 0 0 1 -83.05874,-3.72353 76.583138,18.77533 0 0 1 -18.60479,-20.19178"
         sodipodi:ry="18.77533"
         sodipodi:rx="76.583138"
         sodipodi:cy="456.13751"
         sodipodi:cx="194.18588"
         id="path3251"
         style="display:inline;overflow:visible;visibility:visible;fill:none;fill-opacity:1;fill-rule:nonzero;stroke:#01c587;stroke-width:3.544;stroke-linecap:square;stroke-linejoin:miter;stroke-miterlimit:4;stroke-dasharray:none;stroke-dashoffset:0;stroke-opacity:1;marker:none;marker-start:none;marker-mid:none;marker-end:none;enable-background:accumulate"
         sodipodi:type="arc"
         sodipodi:arc-type="arc" />
      <path
         sodipodi:open="true"
         sodipodi:end="3.6416734"
         sodipodi:start="0"
         transform="rotate(14.218482,140.35117,273.0055)"
         d="m 463.54049,548.39001 a 101.45107,30.900139 0 0 1 -66.00649,28.9529 101.45107,30.900139 0 0 1 -112.12867,-8.722 101.45107,30.900139 0 0 1 -12.34368,-35.0474"
         sodipodi:ry="30.900139"
         sodipodi:rx="101.45107"
         sodipodi:cy="548.39001"
         sodipodi:cx="362.08942"
         id="path2455"
         style="display:inline;overflow:visible;visibility:visible;fill:none;fill-opacity:1;fill-rule:nonzero;stroke:#a72f14;stroke-width:3.544;stroke-linecap:square;stroke-linejoin:miter;stroke-miterlimit:4;stroke-dasharray:none;stroke-dashoffset:0;stroke-opacity:1;marker:none;marker-start:none;marker-mid:none;marker-end:none;enable-background:accumulate"
         sodipodi:type="arc"
         sodipodi:arc-type="arc" />
      <g
         transform="rotate(14.389027,486.77215,995.42204)"
         id="g3267"
         style="fill:#a72f14;fill-opacity:1;stroke:#a72f14;stroke-width:0.9;stroke-dasharray:none;stroke-opacity:1">
        <path
           sodipodi:nodetypes="cc"
           id="path3269"
           d="M 167.12032,686.32561 190,687.36218"
           style="fill:#a72f14;fill-opacity:1;fill-rule:evenodd;stroke:#a72f14;stroke-width:0.9;stroke-linecap:butt;stroke-linejoin:miter;stroke-miterlimit:4;stroke-dasharray:none;stroke-opacity:1" />
        <path
           sodipodi:nodetypes="cccc"
           id="path3271"
           d="m 190,695.36218 v -16 l 20,8 z"
           style="fill:#a72f14;fill-opacity:1;fill-rule:evenodd;stroke:#a72f14;stroke-width:0.9;stroke-linecap:butt;stroke-linejoin:miter;stroke-dasharray:none;stroke-opacity:1" />
      </g>
      <g
         inkscape:label=""
         transform="matrix(1.3718442,0,0,1.3718442,224.46891,568.71967)"
         id="g5"
         style="stroke-width:0.728946">
        <g
           fill="#000000"
           fill-opacity="1"
           id="g3"
           transform="matrix(1.33333,0,0,1.33333,-3.55317,-2.66917)"
           style="stroke-width:0.728946">
          <g
             id="use2"
             transform="translate(1.993,11.955)"
             style="stroke-width:0.728946">
            <path
               d="m 6.171875,-9.828125 c 0,-0.125 -0.109375,-0.125 -0.140625,-0.125 -0.140625,0 -0.15625,0.03125 -0.203125,0.265625 l -0.78125,3.09375 c -0.046875,0.1875 -0.0625,0.203125 -0.0625,0.203125 -0.015625,0.03125 -0.125,0.046875 -0.15625,0.046875 -2.34375,0.203125 -4.15625,2.140625 -4.15625,3.9375 0,1.546875 1.1875,2.5 2.6875,2.578125 -0.125,0.4375 -0.21875,0.90625 -0.328125,1.34375 C 2.828125,2.28125 2.71875,2.75 2.71875,2.8125 c 0,0.03125 0,0.109375 0.140625,0.109375 0.03125,0 0.09375,0 0.125,-0.046875 C 3.015625,2.84375 3.09375,2.5 3.15625,2.3125 L 3.6875,0.171875 C 6.140625,0.046875 8,-1.96875 8,-3.765625 8,-5.21875 6.90625,-6.25 5.328125,-6.359375 Z M 5.234375,-6.0625 C 6.1875,-6.015625 7.125,-5.484375 7.125,-4.078125 c 0,1.625 -1.125,3.78125 -3.359375,3.953125 z m -1.8125,5.953125 c -0.703125,-0.046875 -1.875,-0.421875 -1.875,-2 0,-1.8125 1.3125,-3.8125 3.375,-3.9375 z m 0,0"
               id="path4"
               style="stroke-width:0.728946" />
          </g>
        </g>
        <g
           fill="#000000"
           fill-opacity="1"
           id="g4"
           transform="matrix(1.33333,0,0,1.33333,-3.55317,-2.66917)"
           style="stroke-width:0.728946">
          <g
             id="use3"
             transform="translate(10.306,14.107)"
             style="stroke-width:0.728946">
            <path
               d="m 2.9375,-6.375 c 0,-0.25 0,-0.265625 -0.234375,-0.265625 C 2.078125,-6 1.203125,-6 0.890625,-6 v 0.3125 c 0.203125,0 0.78125,0 1.296875,-0.265625 v 5.171875 c 0,0.359375 -0.03125,0.46875 -0.921875,0.46875 h -0.3125 V 0 c 0.34375,-0.03125 1.203125,-0.03125 1.609375,-0.03125 0.390625,0 1.265625,0 1.609375,0.03125 v -0.3125 h -0.3125 c -0.90625,0 -0.921875,-0.109375 -0.921875,-0.46875 z m 0,0"
               id="path5"
               style="stroke-width:0.728946" />
          </g>
        </g>
      </g>
    </g>
    <g
       inkscape:label=""
       transform="matrix(1.3718442,0,0,1.3718442,281.02401,489.32942)"
       id="g14"
       style="stroke-width:0.728946">
      <g
         fill="#000000"
         fill-opacity="1"
         id="g11"
         transform="matrix(1.33333,0,0,1.33333,-3.55317,-2.66917)"
         style="stroke-width:0.728946">
        <g
           id="g10"
           transform="translate(1.993,11.955)"
           style="stroke-width:0.728946">
          <path
             d="m 6.171875,-9.828125 c 0,-0.125 -0.109375,-0.125 -0.140625,-0.125 -0.140625,0 -0.15625,0.03125 -0.203125,0.265625 l -0.78125,3.09375 c -0.046875,0.1875 -0.0625,0.203125 -0.0625,0.203125 -0.015625,0.03125 -0.125,0.046875 -0.15625,0.046875 -2.34375,0.203125 -4.15625,2.140625 -4.15625,3.9375 0,1.546875 1.1875,2.5 2.6875,2.578125 -0.125,0.4375 -0.21875,0.90625 -0.328125,1.34375 C 2.828125,2.28125 2.71875,2.75 2.71875,2.8125 c 0,0.03125 0,0.109375 0.140625,0.109375 0.03125,0 0.09375,0 0.125,-0.046875 C 3.015625,2.84375 3.09375,2.5 3.15625,2.3125 L 3.6875,0.171875 C 6.140625,0.046875 8,-1.96875 8,-3.765625 8,-5.21875 6.90625,-6.25 5.328125,-6.359375 Z M 5.234375,-6.0625 C 6.1875,-6.015625 7.125,-5.484375 7.125,-4.078125 c 0,1.625 -1.125,3.78125 -3.359375,3.953125 z m -1.8125,5.953125 c -0.703125,-0.046875 -1.875,-0.421875 -1.875,-2 0,-1.8125 1.3125,-3.8125 3.375,-3.9375 z m 0,0"
             id="path10"
             style="stroke-width:0.728946" />
        </g>
      </g>
      <g
         fill="#000000"
         fill-opacity="1"
         id="g13"
         transform="matrix(1.33333,0,0,1.33333,-3.55317,-2.66917)"
         style="stroke-width:0.728946">
        <g
           id="g12"
           transform="translate(10.306,14.107)"
           style="stroke-width:0.728946">
          <path
             d="m 1.265625,-0.765625 1.0625,-1.03125 c 1.546875,-1.375 2.140625,-1.90625 2.140625,-2.90625 0,-1.140625 -0.890625,-1.9375 -2.109375,-1.9375 -1.125,0 -1.859375,0.921875 -1.859375,1.8125 0,0.546875 0.5,0.546875 0.53125,0.546875 0.171875,0 0.515625,-0.109375 0.515625,-0.53125 0,-0.25 -0.1875,-0.515625 -0.53125,-0.515625 -0.078125,0 -0.09375,0 -0.125,0.015625 0.21875,-0.65625 0.765625,-1.015625 1.34375,-1.015625 0.90625,0 1.328125,0.8125 1.328125,1.625 C 3.5625,-3.90625 3.078125,-3.125 2.515625,-2.5 l -1.90625,2.125 C 0.5,-0.265625 0.5,-0.234375 0.5,0 H 4.203125 L 4.46875,-1.734375 H 4.234375 C 4.171875,-1.4375 4.109375,-1 4,-0.84375 3.9375,-0.765625 3.28125,-0.765625 3.0625,-0.765625 Z m 0,0"
             id="path11"
             style="stroke-width:0.728946" />
        </g>
      </g>
    </g>
  </g>
</svg>
