<?xml version="1.0" encoding="UTF-8" standalone="no"?>
<!-- Created with Serif DrawPlus 11, 0, 3, 23 (Feb 25, 14:12:55) (http://www.serif.com) -->

<svg
   version="1.1"
   width="276.11124"
   height="306.5704"
   id="svg3"
   sodipodi:docname="Lorentz_force_particle.svg"
   inkscape:version="1.3.2 (091e20e, 2023-11-25, custom)"
   xmlns:inkscape="http://www.inkscape.org/namespaces/inkscape"
   xmlns:sodipodi="http://sodipodi.sourceforge.net/DTD/sodipodi-0.dtd"
   xmlns:xlink="http://www.w3.org/1999/xlink"
   xmlns="http://www.w3.org/2000/svg"
   xmlns:svg="http://www.w3.org/2000/svg">
  <sodipodi:namedview
     id="namedview3"
     pagecolor="#505050"
     bordercolor="#eeeeee"
     borderopacity="1"
     inkscape:showpageshadow="0"
     inkscape:pageopacity="0"
     inkscape:pagecheckerboard="0"
     inkscape:deskcolor="#505050"
     inkscape:zoom="2.3286028"
     inkscape:cx="184.44537"
     inkscape:cy="179.7215"
     inkscape:window-width="2560"
     inkscape:window-height="1351"
     inkscape:window-x="-9"
     inkscape:window-y="-9"
     inkscape:window-maximized="1"
     inkscape:current-layer="svg3" />
  <defs
     id="defs3">
    <radialGradient
       gradientTransform="matrix(1.7554055,0,0,1.7554055,117.11702,-266.94332)"
       r="22.5"
       fy="6"
       fx="4.5"
       cy="6"
       cx="4.5"
       gradientUnits="userSpaceOnUse"
       id="f-7"
       xlink:href="#a-7" />
    <radialGradient
       gradientUnits="userSpaceOnUse"
       fy="6"
       fx="4.5"
       id="a-7"
       cx="4.5"
       cy="6"
       r="22.5">
      <stop
         stop-color="#fff"
         offset="0"
         stop-opacity=".7"
         id="stop8-4" />
      <stop
         stop-color="#fff"
         offset=".1"
         stop-opacity=".5"
         id="stop9-8" />
      <stop
         stop-color="#fff"
         offset=".6"
         stop-opacity="0"
         id="stop10-5" />
      <stop
         offset=".6"
         stop-opacity="0"
         id="stop11-6" />
      <stop
         offset=".75"
         stop-opacity=".05"
         id="stop12-2" />
      <stop
         offset=".85"
         stop-opacity=".15"
         id="stop13-3" />
      <stop
         offset="1"
         stop-opacity=".5"
         id="stop14-2" />
    </radialGradient>
  </defs>
  <g
     id="dp_group001"
     transform="translate(-50.910937,-69.763692)">
    <text
       id="dp_text002"
       transform="translate(20.001,224.731)"
       xml:space="preserve"
       fill="#152ad4"
       font-family="Arial"
       font-size="31px"
       font-weight="400"
       x="0"
       y="0">   </text>
    <text
       id="dp_text011"
       transform="translate(175.83,348.407)"
       xml:space="preserve"
       fill="#000000"
       font-family="Arial"
       font-size="24px"
       font-weight="400"
       x="0"
       y="0">   </text>
    <path
       id="dp_path163"
       fill="#f97305"
       fill-rule="evenodd"
       d="m 251.301,370.311 -10.997,-11.572 -1.813,5.584 -55.46,-18.028 -1.072,3.3 55.461,18.025 -1.821,5.588 z" />
    <path
       id="dp_path169"
       fill="#00b925"
       fill-rule="evenodd"
       d="m 304.845,300.74 -19.518,-2.595 1.532,5.67 -100.167,27.098 0.907,3.35 100.166,-27.102 1.534,5.67 z" />
    <path
       id="path1"
       fill="#152ad4"
       fill-rule="evenodd"
       d="m 259.359,234.54 -17.904,8.193 4.314,3.983 -70.373,76.259 2.551,2.352 70.372,-76.259 4.316,3.983 z" />
    <path
       id="dp_path180"
       fill="#00b925"
       fill-rule="evenodd"
       d="m 214.629,282.623 -18.277,7.282 4.887,4.467 -26.144,28.603 2.885,2.637 26.145,-28.601 4.887,4.466 z" />
    <text
       id="dp_text017"
       transform="translate(297.513,259.719)"
       xml:space="preserve"
       fill="#00b050"
       font-family="Arial"
       font-size="31px"
       font-weight="400"
       x="0"
       y="0">  </text>
    <g
       id="dp_group019">
      <path
         id="dp_path021"
         fill="#000000"
         fill-rule="evenodd"
         d="m 223.777,326.373 0.926,-0.96 2.81,-0.994 -6.633,-1.764 2.007,6.564 z" />
      <path
         id="dp_path022"
         fill="#000000"
         fill-rule="evenodd"
         d="m 223.768,326.365 0.008,0.006 0.229,0.258 0.238,0.272 0.23,0.271 0.224,0.271 0.219,0.274 0.215,0.271 0.208,0.275 0.204,0.273 0.197,0.275 0.193,0.274 0.187,0.274 0.183,0.278 0.177,0.274 0.169,0.277 0.167,0.276 0.161,0.277 0.156,0.276 0.15,0.278 0.144,0.277 0.14,0.279 0.134,0.276 0.128,0.278 0.124,0.279 0.119,0.277 0.113,0.28 0.107,0.278 0.103,0.28 0.097,0.28 0.093,0.278 0.087,0.279 0.083,0.28 0.076,0.279 0.07,0.28 0.067,0.28 0.061,0.28 0.056,0.278 0.051,0.279 0.045,0.281 0.042,0.279 0.034,0.279 0.031,0.281 0.025,0.279 0.019,0.28 0.016,0.281 0.011,0.279 0.002,0.28 v 0.282 l -0.004,0.28 -0.01,0.279 -0.016,0.279 -0.022,0.281 -0.025,0.277 -0.032,0.28 -0.036,0.282 -0.041,0.28 -0.046,0.277 -0.052,0.279 -0.057,0.28 -0.061,0.28 -0.067,0.278 -0.071,0.278 -0.078,0.278 -0.083,0.28 -0.087,0.279 -0.093,0.279 -0.097,0.277 -0.103,0.277 -0.108,0.279 -0.113,0.277 -0.119,0.276 -0.123,0.278 -0.129,0.278 -0.133,0.276 -0.139,0.276 -0.145,0.275 -0.151,0.277 -0.153,0.276 -0.16,0.274 -0.166,0.276 -0.169,0.274 -0.176,0.274 -0.181,0.273 -0.187,0.273 -0.191,0.274 -0.196,0.272 -0.202,0.272 -0.207,0.272 -0.212,0.269 -0.217,0.271 -0.223,0.269 -0.229,0.269 -0.234,0.27 -0.237,0.268 -0.244,0.266 -0.249,0.267 -0.255,0.267 -0.259,0.265 -0.265,0.265 -0.271,0.264 -0.274,0.263 -0.282,0.264 -0.285,0.261 -0.292,0.262 -0.295,0.26 -0.302,0.258 -0.308,0.26 -0.312,0.259 -0.319,0.257 -0.32,0.255 -0.328,0.255 -0.335,0.254 -0.337,0.254 -0.344,0.252 -0.349,0.252 -0.355,0.25 -0.363,0.25 0.76,1.096 0.366,-0.255 0.365,-0.259 0.357,-0.257 0.355,-0.26 0.348,-0.261 0.343,-0.26 0.338,-0.263 0.334,-0.265 0.326,-0.266 0.323,-0.266 0.316,-0.266 0.313,-0.269 0.308,-0.271 0.3,-0.269 0.296,-0.272 0.292,-0.272 0.286,-0.273 0.281,-0.275 0.276,-0.276 0.269,-0.276 0.266,-0.277 0.26,-0.278 0.254,-0.28 0.251,-0.281 0.241,-0.28 0.24,-0.28 0.234,-0.285 0.228,-0.282 0.222,-0.285 0.218,-0.285 0.213,-0.286 0.207,-0.288 0.201,-0.286 0.197,-0.29 0.19,-0.289 0.186,-0.289 0.18,-0.291 0.176,-0.289 0.171,-0.295 0.164,-0.292 0.159,-0.293 0.153,-0.294 0.149,-0.297 0.142,-0.295 0.137,-0.294 0.133,-0.296 0.127,-0.298 0.121,-0.298 0.116,-0.298 0.111,-0.298 0.105,-0.299 0.099,-0.3 0.095,-0.3 0.088,-0.299 0.084,-0.302 0.078,-0.302 0.072,-0.302 0.067,-0.302 0.06,-0.301 0.057,-0.303 0.051,-0.304 0.044,-0.304 0.039,-0.3 0.034,-0.304 0.028,-0.304 0.022,-0.302 0.018,-0.306 0.011,-0.305 0.007,-0.304 v -0.301 l -0.006,-0.304 -0.01,-0.306 -0.016,-0.302 -0.022,-0.304 -0.028,-0.306 -0.033,-0.302 -0.037,-0.303 -0.044,-0.305 -0.051,-0.303 -0.053,-0.303 -0.062,-0.305 -0.066,-0.301 -0.072,-0.302 -0.076,-0.301 -0.084,-0.303 -0.088,-0.301 -0.095,-0.303 -0.099,-0.3 -0.105,-0.298 -0.108,-0.299 -0.117,-0.301 -0.122,-0.299 -0.126,-0.299 -0.132,-0.297 -0.139,-0.297 -0.143,-0.298 -0.148,-0.294 -0.154,-0.296 -0.16,-0.296 -0.167,-0.295 -0.169,-0.293 -0.175,-0.292 -0.183,-0.294 -0.188,-0.292 -0.19,-0.289 -0.198,-0.292 -0.204,-0.288 -0.208,-0.291 -0.214,-0.286 -0.219,-0.288 -0.225,-0.287 -0.23,-0.285 -0.237,-0.287 -0.241,-0.284 -0.246,-0.283 -0.261,-0.293 -0.032,-0.035 z" />
    </g>
    <path
       id="path2"
       fill="#152ad4"
       fill-rule="evenodd"
       d="m 167.416,195.793 -7.536,18.191 5.872,-0.021 0.377,103.768 3.47,-0.014 -0.379,-103.766 5.873,-0.022 z" />
    <path
       id="dp_path023"
       fill="none"
       fill-rule="evenodd"
       stroke="#152ad4"
       stroke-width="1.33333"
       d="M 259.568,235.065 259.497,96.1267"
       style="stroke-width:1.333;stroke-dasharray:5.332, 1.333;stroke-dashoffset:0" />
    <path
       id="dp_path024"
       fill="none"
       fill-rule="evenodd"
       stroke="#152ad4"
       stroke-width="1.33333"
       d="m 168.325,195.792 90.88,-99.6653"
       style="stroke-dasharray:5.33332, 1.33333;stroke-dashoffset:0" />
    <path
       id="path3"
       fill="#7401d8"
       fill-rule="evenodd"
       d="m 259.36,96.1267 -13.156,13.7853 5.361,2.045 -81.26,211.018 3.508,1.337 81.259,-211.016 5.365,2.047 z" />
  </g>
  <g
     inkscape:label=""
     transform="translate(209.32374,169.16082)"
     id="g63"
     style="fill:#152ad4;fill-opacity:1;stroke:none;stroke-opacity:1">
    <g
       fill="#000000"
       fill-opacity="1"
       id="g3"
       transform="matrix(1.33333,0,0,1.33333,-3.74067,-2.83083)"
       style="fill:#152ad4;fill-opacity:1;stroke:none;stroke-opacity:1">
      <g
         id="use2"
         transform="translate(1.993,16.17)"
         style="fill:#152ad4;fill-opacity:1;stroke:none;stroke-opacity:1">
        <path
           d="m 9.109375,-8.90625 c 0,-0.09375 -0.078125,-0.1875 -0.1875,-0.1875 -0.15625,0 -0.96875,0.75 -1.359375,1.46875 -0.375,-0.921875 -1.015625,-1.484375 -1.90625,-1.484375 -2.328125,0 -4.84375,3.015625 -4.84375,6.078125 0,2.046875 1.1875,3.234375 2.59375,3.234375 1.09375,0 2,-0.828125 2.4375,-1.296875 l 0.015625,0.015625 -0.78125,3.109375 -0.1875,0.734375 c -0.1875,0.625 -0.484375,0.625 -1.46875,0.640625 C 3.203125,3.40625 3,3.40625 3,3.796875 3,3.953125 3.125,4 3.265625,4 3.546875,4 3.921875,3.96875 4.21875,3.96875 H 6.328125 C 6.625,3.96875 6.984375,4 7.296875,4 7.421875,4 7.65625,4 7.65625,3.609375 7.65625,3.40625 7.5,3.40625 7.1875,3.40625 6.21875,3.40625 6.15625,3.265625 6.15625,3.09375 6.15625,3 6.171875,2.96875 6.234375,2.703125 Z m -2.90625,6.453125 C 6.09375,-2.109375 6.09375,-2.0625 5.796875,-1.671875 5.34375,-1.09375 4.4375,-0.203125 3.46875,-0.203125 c -0.84375,0 -1.328125,-0.765625 -1.328125,-1.984375 0,-1.140625 0.640625,-3.453125 1.046875,-4.3125 0.703125,-1.453125 1.671875,-2.203125 2.46875,-2.203125 1.359375,0 1.640625,1.703125 1.640625,1.859375 0,0.03125 -0.0625,0.296875 -0.09375,0.34375 z m 0,0"
           id="path4"
           style="fill:#152ad4;fill-opacity:1;stroke:none;stroke-opacity:1" />
      </g>
    </g>
    <g
       fill="#000000"
       fill-opacity="1"
       id="g4"
       transform="matrix(1.33333,0,0,1.33333,-3.74067,-2.83083)"
       style="fill:#152ad4;fill-opacity:1;stroke:none;stroke-opacity:1">
      <g
         id="use3"
         transform="translate(11.704,16.17)"
         style="fill:#152ad4;fill-opacity:1;stroke:none;stroke-opacity:1">
        <path
           d="m 16.125,-4.921875 c 0.125,-0.265625 0.125,-0.34375 0.125,-0.359375 0,-0.375 -0.390625,-0.375 -0.484375,-0.375 -0.328125,0 -0.359375,0.03125 -0.609375,0.59375 -1.234375,2.734375 -2.3125,4.09375 -5.796875,4.09375 h -2.6875 c -0.3125,0 -0.34375,0 -0.5,-0.015625 L 7.625,-6.796875 h 1.421875 c 1.21875,0 1.625,0.1875 1.625,0.890625 0,0.328125 -0.140625,0.890625 -0.15625,0.953125 L 10.5,-4.75 c 0,0.3125 0.265625,0.375 0.46875,0.375 0.390625,0 0.40625,-0.125 0.515625,-0.5 l 1.15625,-4.609375 c 0.07813,-0.265625 0.07813,-0.3125 0.07813,-0.328125 0,-0.375 -0.40625,-0.375 -0.484375,-0.375 -0.390625,0 -0.4375,0.15625 -0.546875,0.546875 -0.40625,1.546875 -1.03125,1.875 -2.578125,1.875 H 7.875 l 1.296875,-5.265625 c 0.265625,-0.04687 0.5,-0.04687 0.703125,-0.04687 h 2.703125 c 2.25,0 3.15625,0.5 3.15625,2.453125 0,0.375 -0.07813,0.828125 -0.07813,1.171875 0,0.390625 0.390625,0.390625 0.5,0.390625 0.4375,0 0.453125,-0.21875 0.5,-0.578125 l 0.359375,-3.703125 0.03125,-0.328125 c 0,-0.375 -0.359375,-0.375 -0.6875,-0.375 H 4.92187 c -0.4375,0 -0.453125,0.01563 -0.5625,0.109375 -0.140625,0.09375 -0.1875,0.46875 -0.1875,0.484375 0,0.375 0.296875,0.375 0.84375,0.375 0.4375,0 0.828125,0.01563 1.265625,0.04687 l -2.92187,11.640625 c -0.078125,0.34375 -0.09375,0.359375 -0.46875,0.40625 -0.34375,0.015625 -0.765625,0.015625 -1.09375,0.015625 -0.53125,0 -0.578125,0 -0.65625,0.046875 -0.25,0.140625 -0.25,0.46875 -0.25,0.546875 C 0.890625,0 1.234375,0 1.59375,0 H 13.390625 C 13.875,0 13.96875,0 14.15625,-0.4375 Z m 0,0"
           id="path5"
           style="fill:#152ad4;fill-opacity:1;stroke:none;stroke-opacity:1" />
      </g>
    </g>
  </g>
  <g
     inkscape:label=""
     transform="translate(1.2685e-5,119.64259)"
     id="g64"
     style="fill:#152ad4;fill-opacity:1">
    <g
       fill="#000000"
       fill-opacity="1"
       id="g7"
       transform="matrix(1.33333,0,0,1.33333,-3.74067,-2.671)"
       style="fill:#152ad4;fill-opacity:1">
      <g
         id="use6"
         transform="translate(1.993,17.472)"
         style="fill:#152ad4;fill-opacity:1">
        <path
           d="m 9.109375,-8.90625 c 0,-0.09375 -0.078125,-0.1875 -0.1875,-0.1875 -0.15625,0 -0.96875,0.75 -1.359375,1.46875 -0.375,-0.921875 -1.015625,-1.484375 -1.90625,-1.484375 -2.328125,0 -4.84375,3.015625 -4.84375,6.078125 0,2.046875 1.1875,3.234375 2.59375,3.234375 1.09375,0 2,-0.828125 2.4375,-1.296875 l 0.015625,0.015625 -0.78125,3.109375 -0.1875,0.734375 c -0.1875,0.625 -0.484375,0.625 -1.46875,0.640625 C 3.203125,3.40625 3,3.40625 3,3.796875 3,3.953125 3.125,4 3.265625,4 3.546875,4 3.921875,3.96875 4.21875,3.96875 H 6.328125 C 6.625,3.96875 6.984375,4 7.296875,4 7.421875,4 7.65625,4 7.65625,3.609375 7.65625,3.40625 7.5,3.40625 7.1875,3.40625 6.21875,3.40625 6.15625,3.265625 6.15625,3.09375 6.15625,3 6.171875,2.96875 6.234375,2.703125 Z m -2.90625,6.453125 C 6.09375,-2.109375 6.09375,-2.0625 5.796875,-1.671875 5.34375,-1.09375 4.4375,-0.203125 3.46875,-0.203125 c -0.84375,0 -1.328125,-0.765625 -1.328125,-1.984375 0,-1.140625 0.640625,-3.453125 1.046875,-4.3125 0.703125,-1.453125 1.671875,-2.203125 2.46875,-2.203125 1.359375,0 1.640625,1.703125 1.640625,1.859375 0,0.03125 -0.0625,0.296875 -0.09375,0.34375 z m 0,0"
           id="path12"
           style="fill:#152ad4;fill-opacity:1" />
      </g>
    </g>
    <g
       fill="#000000"
       fill-opacity="1"
       id="g8"
       transform="matrix(1.33333,0,0,1.33333,-3.74067,-2.671)"
       style="fill:#152ad4;fill-opacity:1">
      <g
         id="use7"
         transform="translate(15.148,17.472)"
         style="fill:#152ad4;fill-opacity:1">
        <path
           d="m 6.328125,5.046875 c 0,-0.03125 0,-0.0625 -0.0625,-0.125 -0.953125,-0.96875 -3.5,-3.625 -3.5,-10.0625 0,-6.453125 2.5,-9.078125 3.515625,-10.109375 0,-0.01563 0.046875,-0.0625 0.046875,-0.125 0,-0.0625 -0.0625,-0.09375 -0.15625,-0.09375 -0.21875,0 -1.984375,1.53125 -2.984375,3.796875 -1.046875,2.296875 -1.328125,4.53125 -1.328125,6.5 0,1.5 0.140625,4.015625 1.390625,6.6875 0.984375,2.140625 2.671875,3.65625 2.921875,3.65625 0.109375,0 0.15625,-0.046875 0.15625,-0.125 z m 0,0"
           id="path13"
           style="fill:#152ad4;fill-opacity:1" />
      </g>
    </g>
    <g
       fill="#000000"
       fill-opacity="1"
       id="g9"
       transform="matrix(1.33333,0,0,1.33333,-3.74067,-2.671)"
       style="fill:#152ad4;fill-opacity:1">
      <g
         id="use8"
         transform="translate(22.465,17.472)"
         style="fill:#152ad4;fill-opacity:1">
        <path
           d="m 11.171875,-7.484375 c 0,-1.875 -1.375,-1.875 -1.40625,-1.875 -0.828125,0 -1.5625,0.875 -1.5625,1.578125 0,0.578125 0.4375,0.8125 0.609375,0.921875 0.875,0.515625 1.046875,0.890625 1.046875,1.296875 0,0.453125 -1.203125,4.984375 -3.625,4.984375 C 4.75,-0.578125 4.75,-1.8125 4.75,-2.1875 c 0,-1.203125 0.578125,-2.703125 1.234375,-4.359375 0.171875,-0.421875 0.234375,-0.59375 0.234375,-0.9375 0,-1.1875 -1.203125,-1.859375 -2.328125,-1.859375 -2.203125,0 -3.234375,2.8125 -3.234375,3.234375 0,0.28125 0.3125,0.28125 0.5,0.28125 0.25,0 0.390625,0 0.46875,-0.265625 0.671875,-2.234375 1.765625,-2.5 2.140625,-2.5 0.140625,0 0.34375,0 0.34375,0.4375 0,0.46875 -0.25,1.078125 -0.3125,1.234375 -0.953125,2.390625 -1.25,3.328125 -1.25,4.3125 0,2.203125 1.765625,2.78125 3.5625,2.78125 3.5625,0 5.0625,-5.875 5.0625,-7.65625 z m 0,0"
           id="path14"
           style="fill:#152ad4;fill-opacity:1" />
      </g>
    </g>
    <g
       fill="#000000"
       fill-opacity="1"
       id="g10"
       transform="matrix(1.33333,0,0,1.33333,-3.74067,-2.671)"
       style="fill:#152ad4;fill-opacity:1">
      <g
         id="use9"
         transform="translate(39.530998,17.472)"
         style="fill:#152ad4;fill-opacity:1">
        <path
           d="m 8.03125,-5.75 -4.125,-4.109375 c -0.25,-0.234375 -0.296875,-0.28125 -0.453125,-0.28125 -0.203125,0 -0.421875,0.1875 -0.421875,0.40625 0,0.15625 0.046875,0.1875 0.28125,0.421875 l 4.125,4.140625 -4.125,4.15625 C 3.078125,-0.78125 3.03125,-0.75 3.03125,-0.59375 c 0,0.21875 0.21875,0.40625 0.421875,0.40625 0.15625,0 0.203125,-0.046875 0.453125,-0.28125 l 4.109375,-4.109375 4.28125,4.265625 c 0.03125,0.015625 0.171875,0.125 0.296875,0.125 0.25,0 0.421875,-0.1875 0.421875,-0.40625 0,-0.046875 0,-0.125 -0.0625,-0.234375 -0.01563,-0.046875 -3.3125,-3.28125 -4.34375,-4.34375 L 12.390625,-8.9375 C 12.5,-9.0625 12.8125,-9.34375 12.90625,-9.453125 c 0.03125,-0.046875 0.109375,-0.125 0.109375,-0.28125 0,-0.21875 -0.171875,-0.40625 -0.421875,-0.40625 -0.15625,0 -0.234375,0.07813 -0.46875,0.3125 z m 0,0"
           id="path15"
           style="fill:#152ad4;fill-opacity:1" />
      </g>
    </g>
    <g
       fill="#000000"
       fill-opacity="1"
       id="g11"
       transform="matrix(1.33333,0,0,1.33333,-3.74067,-2.671)"
       style="fill:#152ad4;fill-opacity:1">
      <g
         id="use10"
         transform="translate(60.193001,17.472)"
         style="fill:#152ad4;fill-opacity:1">
        <path
           d="m 3.359375,-1.390625 c -0.078125,0.34375 -0.09375,0.359375 -0.46875,0.40625 -0.34375,0.015625 -0.765625,0.015625 -1.09375,0.015625 -0.53125,0 -0.578125,0 -0.65625,0.046875 -0.25,0.140625 -0.25,0.46875 -0.25,0.546875 C 0.890625,0 1.265625,0 1.59375,0 h 8.75 c 4.328125,0 6.265625,-2.734375 6.265625,-4.5625 0,-1.78125 -1.546875,-2.671875 -3.453125,-2.828125 3.3125,-0.609375 4.484375,-2.53125 4.484375,-3.90625 0,-1.703125 -1.484375,-2.875 -4.40625,-2.875 h -8.28125 c -0.40625,0 -0.765625,0 -0.765625,0.59375 0,0.375 0.28125,0.375 0.875,0.375 0.4375,0 0.828125,0.03125 1.265625,0.04687 z m 5.546875,-11.4375 C 8.984375,-13.140625 9,-13.15625 9.125,-13.171875 c 0.1875,-0.03125 0.328125,-0.03125 0.5625,-0.03125 h 3.078125 c 0.40625,0 2.09375,0 2.09375,1.796875 0,1.453125 -1.171875,3.65625 -3.96875,3.65625 H 7.625 Z M 6.4375,-0.96875 c -0.296875,0 -0.34375,0 -0.484375,-0.015625 L 7.4375,-7 h 4.03125 c 0.53125,0 2.265625,0 2.265625,2.109375 0,1.578125 -1.046875,3.921875 -3.984375,3.921875 z m 0,0"
           id="path16"
           style="fill:#152ad4;fill-opacity:1" />
      </g>
    </g>
    <g
       fill="#000000"
       fill-opacity="1"
       id="g12"
       transform="matrix(1.33333,0,0,1.33333,-3.74067,-2.671)"
       style="fill:#152ad4;fill-opacity:1">
      <g
         id="use11"
         transform="translate(79.095001,17.472)"
         style="fill:#152ad4;fill-opacity:1">
        <path
           d="m 5.4375,-5.140625 c 0,-1.484375 -0.15625,-4.015625 -1.390625,-6.671875 -0.984375,-2.15625 -2.6875,-3.65625 -2.9375,-3.65625 -0.0625,0 -0.140625,0.01563 -0.140625,0.125 0,0.03125 0.015625,0.0625 0.046875,0.09375 C 2,-14.21875 4.53125,-11.59375 4.53125,-5.171875 4.53125,1.28125 2.03125,3.90625 1.015625,4.9375 0.984375,4.984375 0.96875,5 0.96875,5.046875 c 0,0.09375 0.078125,0.125 0.140625,0.125 0.234375,0 1.984375,-1.53125 3,-3.8125 1.03125,-2.28125 1.328125,-4.515625 1.328125,-6.5 z m 0,0"
           id="path17"
           style="fill:#152ad4;fill-opacity:1" />
      </g>
    </g>
  </g>
  <g
     inkscape:label=""
     transform="translate(204.30292)"
     id="g65"
     style="stroke:none">
    <g
       fill="#000000"
       fill-opacity="1"
       id="g2"
       transform="matrix(1.33333,0,0,1.33333,-3.84483,-2.8295)"
       style="stroke:none">
      <g
         id="use1"
         transform="translate(1.993,16.169001)"
         style="stroke:none">
        <path
           d="m 7.5625,-6.546875 h 1.34375 c 1.234375,0 1.59375,0.203125 1.59375,0.890625 0,0.21875 -0.0625,0.609375 -0.125,0.859375 -0.04687,0.15625 -0.0625,0.25 -0.0625,0.296875 0,0.3125 0.265625,0.375 0.46875,0.375 0.390625,0 0.421875,-0.125 0.515625,-0.5 l 1.15625,-4.609375 c 0.07813,-0.265625 0.07813,-0.3125 0.07813,-0.328125 0,-0.375 -0.40625,-0.375 -0.484375,-0.375 -0.390625,0 -0.4375,0.140625 -0.546875,0.53125 -0.40625,1.578125 -1.046875,1.890625 -2.53125,1.890625 H 7.8125 l 1.359375,-5.515625 c 0.265625,-0.04687 0.5,-0.04687 0.703125,-0.04687 h 2.453125 c 2.359375,0 3.078125,0.609375 3.078125,2.421875 0,0.5 -0.07813,1.109375 -0.07813,1.203125 0,0.390625 0.390625,0.390625 0.5,0.390625 0.421875,0 0.453125,-0.21875 0.484375,-0.578125 l 0.375,-3.703125 0.03125,-0.328125 c 0,-0.375 -0.359375,-0.375 -0.6875,-0.375 H 4.921875 c -0.4375,0 -0.453125,0.01563 -0.5625,0.109375 -0.140625,0.09375 -0.1875,0.46875 -0.1875,0.484375 0,0.375 0.296875,0.375 0.84375,0.375 0.4375,0 0.828125,0.01563 1.265625,0.04687 L 3.359375,-1.390625 c -0.078125,0.34375 -0.09375,0.359375 -0.46875,0.40625 -0.34375,0.015625 -0.765625,0.015625 -1.09375,0.015625 -0.53125,0 -0.578125,0 -0.65625,0.046875 -0.25,0.140625 -0.25,0.46875 -0.25,0.546875 0,0.03125 0,0.375 0.453125,0.375 0.515625,0 1.046875,-0.046875 1.5625,-0.046875 0.5625,0 1.125,-0.015625 1.671875,-0.015625 0.625,0 1.25,0.015625 1.859375,0.015625 C 7.046875,-0.046875 7.640625,0 8.21875,0 c 0.25,0 0.625,0 0.625,-0.59375 0,-0.375 -0.359375,-0.375 -0.6875,-0.375 H 7.484375 c -0.796875,0 -1.109375,-0.046875 -1.3125,-0.078125 z m 0,0"
           id="path64"
           style="fill:#7401d8;fill-opacity:1;stroke:none;stroke-opacity:1" />
      </g>
    </g>
  </g>
  <g
     inkscape:label=""
     transform="translate(169.01326,213.43486)"
     id="g68"
     style="fill:#00b925;fill-opacity:1">
    <g
       fill="#000000"
       fill-opacity="1"
       id="g67"
       transform="matrix(1.33333,0,0,1.33333,-3.84483,-2.8295)"
       style="fill:#00b925;fill-opacity:1">
      <g
         id="g66"
         transform="translate(1.993,16.169001)"
         style="fill:#00b925;fill-opacity:1">
        <path
           d="m 16.125,-4.921875 c 0.125,-0.265625 0.125,-0.34375 0.125,-0.359375 0,-0.375 -0.390625,-0.375 -0.484375,-0.375 -0.328125,0 -0.359375,0.03125 -0.609375,0.59375 -1.234375,2.734375 -2.3125,4.09375 -5.796875,4.09375 h -2.6875 c -0.3125,0 -0.34375,0 -0.5,-0.015625 L 7.625,-6.796875 h 1.421875 c 1.21875,0 1.625,0.1875 1.625,0.890625 0,0.328125 -0.140625,0.890625 -0.15625,0.953125 L 10.5,-4.75 c 0,0.3125 0.265625,0.375 0.46875,0.375 0.390625,0 0.40625,-0.125 0.515625,-0.5 l 1.15625,-4.609375 c 0.07813,-0.265625 0.07813,-0.3125 0.07813,-0.328125 0,-0.375 -0.40625,-0.375 -0.484375,-0.375 -0.390625,0 -0.4375,0.15625 -0.546875,0.546875 -0.40625,1.546875 -1.03125,1.875 -2.578125,1.875 H 7.875 l 1.296875,-5.265625 c 0.265625,-0.04687 0.5,-0.04687 0.703125,-0.04687 h 2.703125 c 2.25,0 3.15625,0.5 3.15625,2.453125 0,0.375 -0.07813,0.828125 -0.07813,1.171875 0,0.390625 0.390625,0.390625 0.5,0.390625 0.4375,0 0.453125,-0.21875 0.5,-0.578125 l 0.359375,-3.703125 0.03125,-0.328125 c 0,-0.375 -0.359375,-0.375 -0.6875,-0.375 H 4.92187 c -0.4375,0 -0.453125,0.01563 -0.5625,0.109375 -0.140625,0.09375 -0.1875,0.46875 -0.1875,0.484375 0,0.375 0.296875,0.375 0.84375,0.375 0.4375,0 0.828125,0.01563 1.265625,0.04687 l -2.92187,11.640625 c -0.078125,0.34375 -0.09375,0.359375 -0.46875,0.40625 -0.34375,0.015625 -0.765625,0.015625 -1.09375,0.015625 -0.53125,0 -0.578125,0 -0.65625,0.046875 -0.25,0.140625 -0.25,0.46875 -0.25,0.546875 C 0.890625,0 1.234375,0 1.59375,0 H 13.390625 C 13.875,0 13.96875,0 14.15625,-0.4375 Z m 0,0"
           id="path65"
           style="fill:#00b925;fill-opacity:1" />
      </g>
    </g>
  </g>
  <g
     inkscape:label=""
     transform="translate(253.77796,222.79942)"
     id="g71"
     style="fill:#00b925;fill-opacity:1;stroke:none;stroke-opacity:1">
    <g
       fill="#000000"
       fill-opacity="1"
       id="g70"
       transform="matrix(1.33333,0,0,1.33333,-3.84483,-2.66283)"
       style="fill:#00b925;fill-opacity:1;stroke:none;stroke-opacity:1">
      <g
         id="g69"
         transform="translate(1.993,16.169001)"
         style="fill:#00b925;fill-opacity:1;stroke:none;stroke-opacity:1">
        <path
           d="m 3.359375,-1.390625 c -0.078125,0.34375 -0.09375,0.359375 -0.46875,0.40625 -0.34375,0.015625 -0.765625,0.015625 -1.09375,0.015625 -0.53125,0 -0.578125,0 -0.65625,0.046875 -0.25,0.140625 -0.25,0.46875 -0.25,0.546875 C 0.890625,0 1.265625,0 1.59375,0 h 8.75 c 4.328125,0 6.265625,-2.734375 6.265625,-4.5625 0,-1.78125 -1.546875,-2.671875 -3.453125,-2.828125 3.3125,-0.609375 4.484375,-2.53125 4.484375,-3.90625 0,-1.703125 -1.484375,-2.875 -4.40625,-2.875 h -8.28125 c -0.40625,0 -0.765625,0 -0.765625,0.59375 0,0.375 0.28125,0.375 0.875,0.375 0.4375,0 0.828125,0.03125 1.265625,0.04687 z m 5.546875,-11.4375 C 8.984375,-13.140625 9,-13.15625 9.125,-13.171875 c 0.1875,-0.03125 0.328125,-0.03125 0.5625,-0.03125 h 3.078125 c 0.40625,0 2.09375,0 2.09375,1.796875 0,1.453125 -1.171875,3.65625 -3.96875,3.65625 H 7.625 Z M 6.4375,-0.96875 c -0.296875,0 -0.34375,0 -0.484375,-0.015625 L 7.4375,-7 h 4.03125 c 0.53125,0 2.265625,0 2.265625,2.109375 0,1.578125 -1.046875,3.921875 -3.984375,3.921875 z m 0,0"
           id="path68"
           style="fill:#00b925;fill-opacity:1;stroke:none;stroke-opacity:1" />
      </g>
    </g>
  </g>
  <g
     inkscape:label=""
     transform="translate(202.51567,293.86212)"
     id="g74"
     style="fill:#f97305;fill-opacity:1">
    <g
       fill="#000000"
       fill-opacity="1"
       id="g73"
       transform="matrix(1.33333,0,0,1.33333,-3.53233,-2.42083)"
       style="fill:#f97305;fill-opacity:1">
      <g
         id="g72"
         transform="translate(1.993,11.175)"
         style="fill:#f97305;fill-opacity:1">
        <path
           d="m 11.171875,-7.484375 c 0,-1.875 -1.375,-1.875 -1.40625,-1.875 -0.828125,0 -1.5625,0.875 -1.5625,1.578125 0,0.578125 0.4375,0.8125 0.609375,0.921875 0.875,0.515625 1.046875,0.890625 1.046875,1.296875 0,0.453125 -1.203125,4.984375 -3.625,4.984375 C 4.75,-0.578125 4.75,-1.8125 4.75,-2.1875 c 0,-1.203125 0.578125,-2.703125 1.234375,-4.359375 0.171875,-0.421875 0.234375,-0.59375 0.234375,-0.9375 0,-1.1875 -1.203125,-1.859375 -2.328125,-1.859375 -2.203125,0 -3.234375,2.8125 -3.234375,3.234375 0,0.28125 0.3125,0.28125 0.5,0.28125 0.25,0 0.390625,0 0.46875,-0.265625 0.671875,-2.234375 1.765625,-2.5 2.140625,-2.5 0.140625,0 0.34375,0 0.34375,0.4375 0,0.46875 -0.25,1.078125 -0.3125,1.234375 -0.953125,2.390625 -1.25,3.328125 -1.25,4.3125 0,2.203125 1.765625,2.78125 3.5625,2.78125 3.5625,0 5.0625,-5.875 5.0625,-7.65625 z m 0,0"
           id="path71"
           style="fill:#f97305;fill-opacity:1" />
      </g>
    </g>
  </g>
  <g
     inkscape:label=""
     transform="translate(183.75343,258.9767)"
     id="g77">
    <g
       fill="#000000"
       fill-opacity="1"
       id="g76"
       transform="matrix(1.33333,0,0,1.33333,-3.7615,-2.39217)">
      <g
         id="g75"
         transform="translate(1.993,16.341)">
        <path
           d="m 9.15625,-10.390625 c 0,-2.109375 -0.671875,-4.15625 -2.359375,-4.15625 -2.890625,0 -5.96875,6.0625 -5.96875,10.59375 0,0.953125 0.203125,4.15625 2.375,4.15625 2.8125,0 5.953125,-5.90625 5.953125,-10.59375 z m -6.265625,2.90625 c 0.3125,-1.21875 0.75,-2.953125 1.578125,-4.40625 0.671875,-1.25 1.390625,-2.234375 2.3125,-2.234375 0.671875,0 1.125,0.578125 1.125,2.5625 0,0.734375 -0.0625,1.765625 -0.65625,4.078125 z m 4.21875,0.625 c -0.515625,2.03125 -0.953125,3.328125 -1.703125,4.625 -0.59375,1.0625 -1.3125,2.03125 -2.1875,2.03125 -0.640625,0 -1.15625,-0.5 -1.15625,-2.546875 0,-1.34375 0.328125,-2.75 0.671875,-4.109375 z m 0,0"
           id="path74" />
      </g>
    </g>
  </g>
  <circle
     transform="scale(1,-1)"
     r="24.575676"
     cy="-266.94333"
     cx="117.11878"
     fill="#ff0000"
     id="circle34-2"
     style="stroke-width:1.50001" />
  <circle
     transform="scale(1,-1)"
     r="24.575676"
     cy="-266.94333"
     cx="117.11878"
     fill="url(#f)"
     stroke="#000000"
     stroke-width="3"
     id="circle35-8"
     style="fill:url(#f-7)" />
  <g
     inkscape:label=""
     transform="translate(102.64743,258.77302)"
     id="g87">
    <g
       fill="#000000"
       fill-opacity="1"
       id="g84"
       transform="matrix(1.33333,0,0,1.33333,-3.699,-2.37283)">
      <g
         id="g83"
         transform="translate(1.993,13.989)">
        <path
           d="M 5.71875,-3.3125 H 9.6875 c 0.203125,0 0.453125,0 0.453125,-0.265625 0,-0.265625 -0.25,-0.265625 -0.453125,-0.265625 H 5.71875 v -3.953125 c 0,-0.203125 0,-0.46875 -0.25,-0.46875 -0.28125,0 -0.28125,0.25 -0.28125,0.46875 V -3.84375 H 1.234375 c -0.203125,0 -0.453125,0 -0.453125,0.265625 0,0.265625 0.234375,0.265625 0.453125,0.265625 H 5.1875 v 3.953125 c 0,0.203125 0,0.46875 0.265625,0.46875 0.265625,0 0.265625,-0.25 0.265625,-0.46875 z m 0,0"
           id="path82" />
      </g>
    </g>
    <g
       fill="#000000"
       fill-opacity="1"
       id="g86"
       transform="matrix(1.33333,0,0,1.33333,-3.699,-2.37283)">
      <g
         id="g85"
         transform="translate(13.416,10.889)">
        <path
           d="m 9.109375,-8.90625 c 0,-0.09375 -0.078125,-0.1875 -0.1875,-0.1875 -0.15625,0 -0.96875,0.75 -1.359375,1.46875 -0.375,-0.921875 -1.015625,-1.484375 -1.90625,-1.484375 -2.328125,0 -4.84375,3.015625 -4.84375,6.078125 0,2.046875 1.1875,3.234375 2.59375,3.234375 1.09375,0 2,-0.828125 2.4375,-1.296875 l 0.015625,0.015625 -0.78125,3.109375 -0.1875,0.734375 c -0.1875,0.625 -0.484375,0.625 -1.46875,0.640625 C 3.203125,3.40625 3,3.40625 3,3.796875 3,3.953125 3.125,4 3.265625,4 3.546875,4 3.921875,3.96875 4.21875,3.96875 H 6.328125 C 6.625,3.96875 6.984375,4 7.296875,4 7.421875,4 7.65625,4 7.65625,3.609375 7.65625,3.40625 7.5,3.40625 7.1875,3.40625 6.21875,3.40625 6.15625,3.265625 6.15625,3.09375 6.15625,3 6.171875,2.96875 6.234375,2.703125 Z m -2.90625,6.453125 C 6.09375,-2.109375 6.09375,-2.0625 5.796875,-1.671875 5.34375,-1.09375 4.4375,-0.203125 3.46875,-0.203125 c -0.84375,0 -1.328125,-0.765625 -1.328125,-1.984375 0,-1.140625 0.640625,-3.453125 1.046875,-4.3125 0.703125,-1.453125 1.671875,-2.203125 2.46875,-2.203125 1.359375,0 1.640625,1.703125 1.640625,1.859375 0,0.03125 -0.0625,0.296875 -0.09375,0.34375 z m 0,0"
           id="path84" />
      </g>
    </g>
  </g>
</svg>
