<?xml version="1.0" encoding="UTF-8" standalone="no"?>
<!-- Created with Inkscape (http://www.inkscape.org/) -->

<svg
   width="25.199249mm"
   height="47.824303mm"
   viewBox="0 0 25.199249 47.824303"
   version="1.1"
   id="svg1"
   xml:space="preserve"
   inkscape:version="1.3.2 (091e20e, 2023-11-25, custom)"
   sodipodi:docname="Magnetic_field_strength_simple_conductor.svg"
   xmlns:inkscape="http://www.inkscape.org/namespaces/inkscape"
   xmlns:sodipodi="http://sodipodi.sourceforge.net/DTD/sodipodi-0.dtd"
   xmlns="http://www.w3.org/2000/svg"
   xmlns:svg="http://www.w3.org/2000/svg"><sodipodi:namedview
     id="namedview1"
     pagecolor="#505050"
     bordercolor="#eeeeee"
     borderopacity="1"
     inkscape:showpageshadow="0"
     inkscape:pageopacity="0"
     inkscape:pagecheckerboard="0"
     inkscape:deskcolor="#505050"
     inkscape:document-units="mm"
     inkscape:zoom="5.7298268"
     inkscape:cx="113.44147"
     inkscape:cy="91.364018"
     inkscape:window-width="2560"
     inkscape:window-height="1351"
     inkscape:window-x="2551"
     inkscape:window-y="-9"
     inkscape:window-maximized="1"
     inkscape:current-layer="layer1" /><defs
     id="defs1"><inkscape:path-effect
       effect="bspline"
       id="path-effect18"
       is_visible="true"
       lpeversion="1.3"
       weight="33.333333"
       steps="2"
       helper_size="0"
       apply_no_weight="true"
       apply_with_weight="true"
       only_selected="false"
       uniform="false" /><inkscape:path-effect
       effect="bspline"
       id="path-effect17"
       is_visible="true"
       lpeversion="1.3"
       weight="33.333333"
       steps="2"
       helper_size="0"
       apply_no_weight="true"
       apply_with_weight="true"
       only_selected="false"
       uniform="false" /><marker
       style="overflow:visible"
       id="Triangle"
       refX="0"
       refY="0"
       orient="auto-start-reverse"
       inkscape:stockid="Triangle arrow"
       markerWidth="1"
       markerHeight="1"
       viewBox="0 0 1 1"
       inkscape:isstock="true"
       inkscape:collect="always"
       preserveAspectRatio="xMidYMid"><path
         transform="scale(0.5)"
         style="fill:context-stroke;fill-rule:evenodd;stroke:context-stroke;stroke-width:1pt"
         d="M 5.77,0 -2.88,5 V -5 Z"
         id="path135" /></marker></defs><g
     inkscape:label="Ebene 1"
     inkscape:groupmode="layer"
     id="layer1"
     transform="translate(-29.5882, -38.1113)"><rect
       style="fill:#64727f;fill-opacity:1;fill-rule:evenodd;stroke:none;stroke-width:0.2;stroke-dasharray:none;stroke-opacity:1"
       id="rect1"
       width="2.5397468"
       height="42.975479"
       x="38.603554"
       y="42.441406"
       rx="0.016749647" /><path
       style="fill:none;fill-opacity:1;fill-rule:evenodd;stroke:#000000;stroke-width:0.2;stroke-dasharray:none;stroke-opacity:1;marker-start:url(#Triangle)"
       id="path1"
       sodipodi:type="arc"
       sodipodi:cx="39.873417"
       sodipodi:cy="62.30344"
       sodipodi:rx="10.187335"
       sodipodi:ry="3.1382291"
       sodipodi:start="0.62618718"
       sodipodi:end="0.5969198"
       sodipodi:arc-type="arc"
       d="m 48.127888,64.142629 a 10.187335,3.1382291 0 0 1 -14.164301,0.717006 10.187335,3.1382291 0 0 1 -2.431123,-4.357978 10.187335,3.1382291 0 0 1 14.128725,-0.780779 10.187335,3.1382291 0 0 1 2.637876,4.346553"
       sodipodi:open="true" /><rect
       style="fill:#64727f;fill-opacity:1;fill-rule:evenodd;stroke:none;stroke-width:0.2;stroke-dasharray:none;stroke-opacity:1"
       id="rect1-9"
       width="2.5397468"
       height="1.3214035"
       x="38.603554"
       y="58.528984"
       rx="0.016749647" /><ellipse
       style="fill:#64727f;fill-opacity:1;fill-rule:evenodd;stroke:#000000;stroke-width:0.0999995;stroke-dasharray:none;stroke-opacity:1"
       id="path2"
       cx="39.873428"
       cy="42.457817"
       rx="1.2198738"
       ry="0.51943135" /><ellipse
       style="fill:#64727f;fill-opacity:1;fill-rule:evenodd;stroke:#64727f;stroke-width:0.1;stroke-dasharray:none;stroke-opacity:1"
       id="path2-3"
       cx="39.873207"
       cy="85.366135"
       rx="1.2200922"
       ry="0.51943135" /><path
       style="fill:#64727f;fill-opacity:1;fill-rule:evenodd;stroke:#000000;stroke-width:0.2;stroke-dasharray:none;stroke-opacity:1;marker-end:url(#Triangle)"
       d="m 39.873425,42.618986 2e-6,-3.204309"
       id="path6" /><g
       inkscape:label=""
       transform="translate(51.670005,58.528984)"
       id="g12"><g
   fill="#000000"
   fill-opacity="1"
   id="g2"
   transform="matrix(0.352778,0,0,0.352778,-0.862939,-0.702469)">
    <g
   id="use1"
   transform="translate(1.993,7.46)">
      <path
   d="m 7.609375,-4.90625 c 0.03125,-0.109375 0.03125,-0.125 0.171875,-0.140625 0.125,0 0.265625,0 0.375,0 0.21875,0 0.359375,0 0.359375,-0.25 0,-0.09375 -0.0625,-0.171875 -0.171875,-0.171875 -0.28125,0 -0.578125,0.03125 -0.875,0.03125 H 7.140625 c -0.859375,0 -1.1875,-0.03125 -1.21875,-0.03125 -0.0625,0 -0.234375,0 -0.234375,0.25 0,0.15625 0.109375,0.15625 0.3125,0.171875 0.0625,0 0.40625,0 0.453125,0.015625 l -0.5,1.984375 h -2.78125 l 0.46875,-1.859375 c 0.03125,-0.109375 0.03125,-0.125 0.171875,-0.140625 0.125,0 0.265625,0 0.375,0 0.21875,0 0.359375,0 0.359375,-0.25 0,-0.09375 -0.0625,-0.171875 -0.171875,-0.171875 -0.28125,0 -0.578125,0.03125 -0.875,0.03125 H 3.171875 c -0.859375,0 -1.1875,-0.03125 -1.21875,-0.03125 -0.0625,0 -0.234375,0 -0.234375,0.25 0,0.15625 0.109375,0.15625 0.3125,0.171875 0.0625,0 0.40625,0 0.453125,0.015625 L 1.375,-0.578125 c -0.03125,0.125 -0.046875,0.140625 -0.1875,0.15625 -0.125,0 -0.25,0 -0.375,0 -0.21875,0 -0.359375,0 -0.359375,0.25 C 0.453125,-0.140625 0.484375,0 0.625,0 0.921875,0 1.21875,-0.03125 1.5,-0.03125 H 2.109375 C 2.3125,-0.03125 2.84375,0 3.046875,0 c 0.0625,0 0.25,0 0.25,-0.25 0,-0.03125 -0.03125,-0.09375 -0.078125,-0.140625 -0.09375,-0.046875 -0.1875,0 -0.703125,-0.046875 L 3.0625,-2.640625 h 2.796875 l -0.515625,2.0625 c -0.03125,0.125 -0.046875,0.140625 -0.1875,0.15625 -0.125,0 -0.25,0 -0.375,0 -0.21875,0 -0.359375,0 -0.359375,0.25 C 4.421875,-0.140625 4.453125,0 4.59375,0 4.890625,0 5.171875,-0.03125 5.46875,-0.03125 H 6.078125 C 6.28125,-0.03125 6.8125,0 7.015625,0 c 0.0625,0 0.25,0 0.25,-0.25 0,-0.03125 -0.03125,-0.09375 -0.078125,-0.140625 C 7.09375,-0.4375 7,-0.390625 6.484375,-0.4375 Z m 0,0"
   id="path11" />
    </g>
  </g>
</g><path
       style="fill:#64727f;fill-opacity:1;fill-rule:evenodd;stroke:#000000;stroke-width:0.2;stroke-dasharray:0.6, 0.6;stroke-dashoffset:0;stroke-opacity:0.996078;marker-end:url(#Triangle)"
       d="M 48.299065,64.06743 54.14901,61.215931"
       id="path12"
       sodipodi:nodetypes="cc" /><g
       inkscape:label=""
       transform="translate(41.343174,38.111262)"
       id="g17"><g
   fill="#000000"
   fill-opacity="1"
   id="g3"
   transform="matrix(0.352778,0,0,0.352778,-0.829866,-0.706085)">
    <g
   id="use2"
   transform="translate(1.993,7.4390001)">
      <path
   d="m 3.09375,-4.828125 c 0.0625,-0.265625 0.078125,-0.34375 0.6875,-0.34375 0.171875,0 0.28125,0 0.28125,-0.15625 0,-0.015625 -0.015625,-0.109375 -0.140625,-0.109375 -0.125,0 -0.375,0.015625 -0.5,0.015625 h -1.09375 c -0.109375,0 -0.40625,-0.015625 -0.515625,-0.015625 -0.03125,0 -0.15625,0 -0.15625,0.140625 0,0.125 0.09375,0.125 0.25,0.125 0.515625,0 0.515625,0.046875 0.515625,0.140625 0,0.015625 0,0.046875 -0.046875,0.171875 L 1.328125,-0.625 c -0.078125,0.28125 -0.09375,0.359375 -0.6875,0.359375 -0.1875,0 -0.28125,0 -0.28125,0.15625 0,0.03125 0.03125,0.109375 0.125,0.109375 0.109375,0 0.375,-0.015625 0.5,-0.03125 H 2.09375 C 2.203125,-0.015625 2.484375,0 2.59375,0 2.640625,0 2.75,0 2.75,-0.15625 c 0,-0.109375 -0.09375,-0.109375 -0.25,-0.109375 -0.125,0 -0.171875,0 -0.3125,-0.015625 C 2.0625,-0.296875 1.984375,-0.296875 1.984375,-0.390625 1.984375,-0.4375 2,-0.4375 2.03125,-0.546875 Z m 0,0"
   id="path4" />
    </g>
  </g>
  <g
   fill="#000000"
   fill-opacity="1"
   id="g4"
   transform="matrix(0.352778,0,0,0.352778,-0.829866,-0.706085)">
    <g
   id="use3"
   transform="translate(5.664,8.8439999)">
      <path
   d="M 1.328125,-2.34375 H 2.125 V -2.578125 H 1.3125 v -0.65625 c 0,-0.546875 0.34375,-0.78125 0.59375,-0.78125 C 1.984375,-4.015625 2.046875,-4 2.078125,-4 2.03125,-3.96875 1.96875,-3.921875 1.96875,-3.765625 c 0,0.15625 0.109375,0.28125 0.28125,0.28125 0.171875,0 0.28125,-0.125 0.28125,-0.28125 0,-0.265625 -0.265625,-0.453125 -0.625,-0.453125 -0.484375,0 -1.046875,0.34375 -1.046875,0.984375 v 0.65625 H 0.3125 v 0.234375 h 0.546875 v 1.859375 c 0,0.25 -0.0625,0.25 -0.46875,0.25 V 0 C 0.53125,-0.015625 0.984375,-0.03125 1.109375,-0.03125 1.421875,-0.03125 1.84375,0 1.921875,0 v -0.234375 h -0.125 c -0.453125,0 -0.46875,-0.0625 -0.46875,-0.265625 z m 0,0"
   id="path5" />
    </g>
  </g>
</g><g
       inkscape:label=""
       transform="matrix(0.3184481,0,0,0.3184481,43.999246,61.880669)"
       id="g13"
       style="stroke-width:3.14023"><g
   fill="#000000"
   fill-opacity="1"
   id="g9"
   transform="matrix(0.352778,0,0,0.352778,-1.03382,-0.524316)"
   style="stroke-width:3.14023">
    <g
   id="g8"
   transform="translate(1.993,19.205)"
   style="stroke-width:3.14023">
      <path
   d="m 11.25,-8.28125 c -0.140625,-1.390625 -1.015625,-3.046875 -3.25,-3.046875 -3.484375,0 -7.0625,3.546875 -7.0625,7.484375 0,1.515625 1.046875,4.359375 4.421875,4.359375 5.84375,0 8.34375,-8.515625 8.34375,-11.921875 0,-3.5625 -2,-6.3125 -5.171875,-6.3125 -3.59375,0 -4.671875,3.140625 -4.671875,3.8125 0,0.234375 0.15625,0.765625 0.84375,0.765625 0.875,0 1.25,-0.78125 1.25,-1.203125 0,-0.765625 -0.78125,-0.765625 -1.09375,-0.765625 C 5.875,-16.953125 7.75,-17.125 8.421875,-17.125 c 2.1875,0 3.578125,1.734375 3.578125,4.515625 0,1.578125 -0.484375,3.421875 -0.71875,4.328125 z m -5.828125,8.125 c -2.328125,0 -2.71875,-1.828125 -2.71875,-2.859375 0,-1.09375 0.6875,-3.65625 1.0625,-4.5625 0.328125,-0.75 1.734375,-3.25 4.3125,-3.25 2.25,0 2.78125,1.953125 2.78125,3.296875 0,1.828125 -1.609375,7.375 -5.4375,7.375 z m 0,0"
   id="path7"
   style="stroke-width:3.14023" />
    </g>
  </g>
  <g
   fill="#000000"
   fill-opacity="1"
   id="g11"
   transform="matrix(0.352778,0,0,0.352778,-1.03382,-0.524316)"
   style="stroke-width:3.14023">
    <g
   id="g10"
   transform="translate(16.143955,19.205)"
   style="stroke-width:3.14023">
      <path
   d="m 15.734375,-17.21875 c 0,-0.234375 -0.171875,-0.234375 -0.21875,-0.234375 -0.109375,0 -0.125,0.03125 -0.421875,0.40625 -0.15625,0.171875 -1.171875,1.453125 -1.1875,1.484375 -0.828125,-1.609375 -2.453125,-1.890625 -3.5,-1.890625 -3.140625,0 -6,2.875 -6,5.6875 0,1.859375 1.125,2.9375 2.328125,3.359375 0.28125,0.109375 1.734375,0.5 2.484375,0.671875 1.265625,0.34375 1.578125,0.453125 2.109375,1 0.09375,0.125 0.59375,0.6875 0.59375,1.859375 0,2.296875 -2.140625,4.671875 -4.609375,4.671875 -2.03125,0 -4.296875,-0.859375 -4.296875,-3.640625 0,-0.46875 0.109375,-1.0625 0.1875,-1.3125 0,-0.078125 0.015625,-0.203125 0.015625,-0.25 0,-0.09375 -0.046875,-0.21875 -0.25,-0.21875 -0.21875,0 -0.25,0.046875 -0.34375,0.46875 l -1.265625,5.078125 c 0,0.03125 -0.09375,0.34375 -0.09375,0.375 0,0.21875 0.203125,0.21875 0.25,0.21875 0.09375,0 0.125,-0.015625 0.421875,-0.390625 l 1.140625,-1.484375 c 0.59375,0.890625 1.875,1.875 4.1875,1.875 3.1875,0 6.109375,-3.09375 6.109375,-6.1875 0,-1.046875 -0.234375,-1.953125 -1.1875,-2.875 C 11.671875,-9.0625 11.21875,-9.1875 8.953125,-9.78125 7.28125,-10.234375 7.0625,-10.3125 6.609375,-10.703125 6.1875,-11.125 5.875,-11.71875 5.875,-12.5625 c 0,-2.078125 2.109375,-4.21875 4.453125,-4.21875 2.4375,0 3.578125,1.484375 3.578125,3.84375 0,0.640625 -0.125,1.3125 -0.125,1.421875 0,0.21875 0.203125,0.21875 0.265625,0.21875 0.234375,0 0.25,-0.07813 0.34375,-0.46875 z m 0,0"
   id="path9"
   style="stroke-width:3.14023" />
    </g>
  </g>
</g></g></svg>
