<?xml version="1.0" encoding="UTF-8" standalone="no"?>
<!-- Created with Inkscape (http://www.inkscape.org/) -->

<svg
   width="25.723204mm"
   height="25.995497mm"
   viewBox="0 0 25.723204 25.995497"
   version="1.1"
   id="svg1"
   inkscape:version="1.3.2 (091e20e, 2023-11-25, custom)"
   sodipodi:docname="Magnetic_field_strength_multiple_conductors.svg"
   xmlns:inkscape="http://www.inkscape.org/namespaces/inkscape"
   xmlns:sodipodi="http://sodipodi.sourceforge.net/DTD/sodipodi-0.dtd"
   xmlns="http://www.w3.org/2000/svg"
   xmlns:svg="http://www.w3.org/2000/svg">
  <sodipodi:namedview
     id="namedview1"
     pagecolor="#505050"
     bordercolor="#eeeeee"
     borderopacity="1"
     inkscape:showpageshadow="0"
     inkscape:pageopacity="0"
     inkscape:pagecheckerboard="0"
     inkscape:deskcolor="#505050"
     inkscape:document-units="mm"
     inkscape:zoom="16.206397"
     inkscape:cx="86.879274"
     inkscape:cy="77.284298"
     inkscape:window-width="2560"
     inkscape:window-height="1351"
     inkscape:window-x="2551"
     inkscape:window-y="-9"
     inkscape:window-maximized="1"
     inkscape:current-layer="layer1" />
  <defs
     id="defs1">
    <marker
       style="overflow:visible"
       id="Triangle-6"
       refX="0"
       refY="0"
       orient="auto-start-reverse"
       inkscape:stockid="Triangle arrow"
       markerWidth="1"
       markerHeight="1"
       viewBox="0 0 1 1"
       inkscape:isstock="true"
       inkscape:collect="always"
       preserveAspectRatio="xMidYMid">
      <path
         transform="scale(0.5)"
         style="fill:context-stroke;fill-rule:evenodd;stroke:context-stroke;stroke-width:1pt"
         d="M 5.77,0 -2.88,5 V -5 Z"
         id="path135-6" />
    </marker>
    <inkscape:path-effect
       effect="bspline"
       id="path-effect18"
       is_visible="true"
       lpeversion="1.3"
       weight="33.333333"
       steps="2"
       helper_size="0"
       apply_no_weight="true"
       apply_with_weight="true"
       only_selected="false"
       uniform="false" />
    <marker
       style="overflow:visible"
       id="Triangle-2"
       refX="0"
       refY="0"
       orient="auto-start-reverse"
       inkscape:stockid="Triangle arrow"
       markerWidth="1"
       markerHeight="1"
       viewBox="0 0 1 1"
       inkscape:isstock="true"
       inkscape:collect="always"
       preserveAspectRatio="xMidYMid">
      <path
         transform="scale(0.5)"
         style="fill:context-stroke;fill-rule:evenodd;stroke:context-stroke;stroke-width:1pt"
         d="M 5.77,0 -2.88,5 V -5 Z"
         id="path135-4" />
    </marker>
    <marker
       style="overflow:visible"
       id="marker13"
       refX="0"
       refY="0"
       orient="auto-start-reverse"
       inkscape:stockid="Triangle arrow"
       markerWidth="0.60000002"
       markerHeight="0.60000002"
       viewBox="0 0 1 1"
       inkscape:isstock="true"
       inkscape:collect="always"
       preserveAspectRatio="xMidYMid">
      <path
         transform="scale(0.5)"
         style="fill:context-stroke;fill-rule:evenodd;stroke:context-stroke;stroke-width:1pt"
         d="M 5.77,0 -2.88,5 V -5 Z"
         id="path13" />
    </marker>
    <marker
       style="overflow:visible"
       id="marker13-0"
       refX="0"
       refY="0"
       orient="auto-start-reverse"
       inkscape:stockid="Triangle arrow"
       markerWidth="0.60000002"
       markerHeight="0.60000002"
       viewBox="0 0 1 1"
       inkscape:isstock="true"
       inkscape:collect="always"
       preserveAspectRatio="xMidYMid">
      <path
         transform="scale(0.5)"
         style="fill:context-stroke;fill-rule:evenodd;stroke:context-stroke;stroke-width:1pt"
         d="M 5.77,0 -2.88,5 V -5 Z"
         id="path13-1" />
    </marker>
    <marker
       style="overflow:visible"
       id="Triangle"
       refX="0"
       refY="0"
       orient="auto-start-reverse"
       inkscape:stockid="Triangle arrow"
       markerWidth="1"
       markerHeight="1"
       viewBox="0 0 1 1"
       inkscape:isstock="true"
       inkscape:collect="always"
       preserveAspectRatio="xMidYMid">
      <path
         transform="scale(0.5)"
         style="fill:context-stroke;fill-rule:evenodd;stroke:context-stroke;stroke-width:1pt"
         d="M 5.77,0 -2.88,5 V -5 Z"
         id="path135" />
    </marker>
  </defs>
  <g
     inkscape:label="Ebene 1"
     inkscape:groupmode="layer"
     id="layer1"
     transform="translate(-76.8085, -105.833)">
    <rect
       style="fill:#64727f;fill-opacity:1;fill-rule:evenodd;stroke:none;stroke-width:0.200003;stroke-dasharray:none;stroke-opacity:1"
       id="rect1-5"
       width="1.4528486"
       height="24.809225"
       x="42.447399"
       y="131.75432"
       rx="0.0095815463"
       transform="matrix(0.93453991,-0.35585834,0.34837383,0.93735568,0,0)" />
    <ellipse
       style="fill:#64727f;fill-opacity:1;fill-rule:evenodd;stroke:#000000;stroke-width:0.100001;stroke-dasharray:none;stroke-opacity:1"
       id="path2-1"
       cx="43.173824"
       cy="131.76379"
       rx="0.69782227"
       ry="0.29986146"
       transform="matrix(0.93453991,-0.35585834,0.34837383,0.93735568,0,0)" />
    <ellipse
       style="fill:#64727f;fill-opacity:1;fill-rule:evenodd;stroke:#64727f;stroke-width:0.100095;stroke-dasharray:none;stroke-opacity:1"
       id="path2-1-9"
       transform="matrix(0.92418642,-0.38194169,0.3239701,0.94606732,0,0)"
       ry="0.33590749"
       rx="0.67422837"
       cy="157.95262"
       cx="47.298111" />
    <path
       style="fill:#64727f;fill-opacity:1;fill-rule:evenodd;stroke:#000000;stroke-width:0.2;stroke-dasharray:none;stroke-opacity:1;marker-end:url(#Triangle-6)"
       d="m 86.283132,108.23299 -0.644426,-1.73393"
       id="path6-0" />
    <path
       style="fill:none;fill-opacity:1;fill-rule:evenodd;stroke:#64727f;stroke-width:0.2;stroke-dasharray:none;stroke-dashoffset:0;stroke-opacity:1"
       d="m 90.314644,67.931892 c 0.44624,-1.365929 0.89248,-2.73186 1.284304,-3.379452 0.391824,-0.647592 0.729217,-0.576848 0.843498,0.04355 0.11428,0.620394 0.0054,1.790392 -0.05441,2.375402 -0.05985,0.58501 -0.07076,0.58501 0.0925,0.620383 0.163269,0.03537 0.500662,0.106117 0.835346,-0.421764 0.334683,-0.52788 0.666635,-1.654341 1.009482,-2.193094 0.342847,-0.538753 0.696565,-0.489777 0.911523,-0.378215 0.214958,0.111561 0.291145,0.285702 0.293865,0.544198 0.0027,0.258495 -0.06802,0.601331 -0.223121,1.099277 -0.155098,0.497945 -0.39454,1.150966 -0.353722,1.523741 0.04082,0.372774 0.361888,0.465286 0.557803,0.514264 0.195914,0.04898 0.26665,0.05442 0.359164,-0.08979 0.09251,-0.144213 0.206794,-0.438073 0.315634,-0.862551 0.10884,-0.424477 0.212235,-0.979546 0.318353,-1.463883 0.106119,-0.484337 0.214956,-0.897918 0.451686,-1.069339 0.23673,-0.171421 0.601332,-0.100677 0.838058,0.07619 0.236725,0.176867 0.345562,0.459841 0.363129,0.782657 0.01757,0.322816 -0.05614,0.685448 -0.194906,1.188835 -0.138772,0.503387 -0.342604,1.147496 -0.243166,1.521255 0.09944,0.37376 0.502134,0.477154 0.828654,0.324776 0.32652,-0.152379 0.576845,-0.560518 0.808129,-1.262539 0.231284,-0.702022 0.443515,-1.69788 0.72106,-2.176771 0.27754,-0.478892 0.62038,-0.440798 0.86799,-0.399983 0.24761,0.04082 0.39998,0.08435 0.36189,0.848958 -0.0381,0.764609 -0.26666,2.250234 -0.49522,3.735885"
       id="path18"
       inkscape:path-effect="#path-effect18"
       inkscape:original-d="m 90.314644,67.931892 c 0.446238,-1.36593 0.892479,-2.73186 1.33872,-4.09779 0.337407,0.07075 0.674801,0.141491 1.012203,0.212235 -0.108841,1.170043 -0.217678,2.340041 -0.326517,3.510061 -0.01087,0 -0.02178,0 -0.03265,0 0.337407,0.07075 0.674801,0.141491 1.012203,0.212235 0.331965,-1.126506 0.663917,-2.252967 0.995876,-3.379451 0.353735,0.04898 0.707454,0.09795 1.06118,0.146931 0.07619,0.174146 0.152377,0.348287 0.228563,0.522428 -0.07075,0.342849 -0.141491,0.685686 -0.212235,1.02853 -0.239451,0.653047 -0.478893,1.306068 -0.718339,1.959102 0.321083,0.09251 0.642152,0.185026 0.963227,0.27754 0.07075,0.0055 0.141491,0.01087 0.212235,0.01633 0.114284,-0.29387 0.228563,-0.58773 0.342844,-0.881594 0.1034,-0.555091 0.206794,-1.11016 0.31019,-1.665238 0.108842,-0.413596 0.217678,-0.827177 0.326517,-1.240766 0.36462,0.07075 0.729223,0.141491 1.093833,0.212236 0.108841,0.282988 0.217678,0.565962 0.326517,0.848944 -0.07371,0.362649 -0.147405,0.725282 -0.22111,1.087922 -0.20384,0.644134 -0.407673,1.288243 -0.611508,1.932363 0.402712,0.1034 0.805408,0.206793 1.208114,0.31019 0.250333,-0.408154 0.500658,-0.816293 0.750988,-1.224439 0.212241,-0.995897 0.424474,-1.991754 0.636705,-2.987632 0.34285,0.03809 0.68569,0.07619 1.02853,0.114281 0.15238,0.04354 0.30475,0.08707 0.45713,0.130606 -0.22857,1.485683 -0.45713,2.971308 -0.68569,4.456959"
       transform="translate(-11.756701,60.455806)" />
    <path
       style="fill:none;fill-opacity:1;fill-rule:evenodd;stroke:#000000;stroke-width:0.2;stroke-dasharray:none;stroke-opacity:1;marker-end:url(#Triangle-2)"
       id="path1-5"
       sodipodi:type="arc"
       sodipodi:cx="47.037167"
       sodipodi:cy="141.45833"
       sodipodi:rx="13.126675"
       sodipodi:ry="7.5118122"
       sodipodi:start="0.62618718"
       sodipodi:end="0.5969198"
       sodipodi:arc-type="arc"
       d="m 57.67329,145.8607 a 13.126675,7.5118122 0 0 1 -18.251109,1.71626 13.126675,7.5118122 0 0 1 -3.132572,-10.43146 13.126675,7.5118122 0 0 1 18.205268,-1.86891 13.126675,7.5118122 0 0 1 3.39898,10.40411"
       sodipodi:open="true"
       transform="rotate(-18.630314)" />
    <path
       style="fill:none;fill-opacity:1;fill-rule:evenodd;stroke:#64727f;stroke-width:0.2;stroke-dasharray:none;stroke-dashoffset:0;stroke-opacity:1"
       d="m 84.631738,126.87261 0.116427,-0.55285"
       id="path21" />
    <path
       style="fill:none;fill-opacity:1;fill-rule:evenodd;stroke:#64727f;stroke-width:0.2;stroke-dasharray:none;stroke-dashoffset:0;stroke-opacity:1;marker-end:url(#marker13)"
       d="m 78.873962,127.42768 0.235531,-0.68886"
       id="path23"
       sodipodi:nodetypes="cc" />
    <path
       style="fill:none;fill-opacity:1;fill-rule:evenodd;stroke:#64727f;stroke-width:0.2;stroke-dasharray:none;stroke-dashoffset:0;stroke-opacity:1;marker-end:url(#marker13-0)"
       d="m 89.343018,127.97552 -0.14038,0.95224"
       id="path23-2"
       sodipodi:nodetypes="cc" />
    <path
       style="fill:none;fill-opacity:1;fill-rule:evenodd;stroke:#64727f;stroke-width:0.2;stroke-dasharray:none;stroke-dashoffset:0;stroke-opacity:1"
       d="m 79.353499,126.07361 0.245004,-0.59072"
       id="path24" />
    <path
       style="fill:none;fill-opacity:1;fill-rule:evenodd;stroke:#64727f;stroke-width:0.2;stroke-dasharray:none;stroke-dashoffset:0;stroke-opacity:1"
       d="m 81.827157,127.09705 0.198646,-0.47699"
       id="path25" />
    <path
       style="fill:none;fill-opacity:1;fill-rule:evenodd;stroke:#64727f;stroke-width:0.2;stroke-dasharray:none;stroke-dashoffset:0;stroke-opacity:1"
       d="m 84.48637,127.55042 0.125802,-0.58282"
       id="path26" />
    <path
       style="fill:none;fill-opacity:1;fill-rule:evenodd;stroke:#64727f;stroke-width:0.2;stroke-dasharray:none;stroke-dashoffset:0;stroke-opacity:1"
       d="m 87.740848,127.41793 0.137303,-0.48412"
       id="path27" />
    <g
       inkscape:label=""
       transform="translate(76.808532,128.32439)"
       id="g1">
      <g
         fill="#000000"
         fill-opacity="1"
         id="g3"
         transform="matrix(0.352778,0,0,0.352778,-0.829866,-0.706085)">
        <g
           id="use2"
           transform="translate(1.993,7.4390001)">
          <path
             d="m 3.09375,-4.828125 c 0.0625,-0.265625 0.078125,-0.34375 0.6875,-0.34375 0.171875,0 0.28125,0 0.28125,-0.15625 0,-0.015625 -0.015625,-0.109375 -0.140625,-0.109375 -0.125,0 -0.375,0.015625 -0.5,0.015625 h -1.09375 c -0.109375,0 -0.40625,-0.015625 -0.515625,-0.015625 -0.03125,0 -0.15625,0 -0.15625,0.140625 0,0.125 0.09375,0.125 0.25,0.125 0.515625,0 0.515625,0.046875 0.515625,0.140625 0,0.015625 0,0.046875 -0.046875,0.171875 L 1.328125,-0.625 c -0.078125,0.28125 -0.09375,0.359375 -0.6875,0.359375 -0.1875,0 -0.28125,0 -0.28125,0.15625 0,0.03125 0.03125,0.109375 0.125,0.109375 0.109375,0 0.375,-0.015625 0.5,-0.03125 H 2.09375 C 2.203125,-0.015625 2.484375,0 2.59375,0 2.640625,0 2.75,0 2.75,-0.15625 c 0,-0.109375 -0.09375,-0.109375 -0.25,-0.109375 -0.125,0 -0.171875,0 -0.3125,-0.015625 C 2.0625,-0.296875 1.984375,-0.296875 1.984375,-0.390625 1.984375,-0.4375 2,-0.4375 2.03125,-0.546875 Z m 0,0"
             id="path4" />
        </g>
      </g>
      <g
         fill="#000000"
         fill-opacity="1"
         id="g4"
         transform="matrix(0.352778,0,0,0.352778,-0.829866,-0.706085)">
        <g
           id="use3"
           transform="translate(5.664,8.5450001)">
          <path
             d="m 2.140625,-3.796875 c 0,-0.1875 -0.015625,-0.1875 -0.203125,-0.1875 -0.390625,0.390625 -1,0.390625 -1.21875,0.390625 v 0.234375 c 0.15625,0 0.5625,0 0.921875,-0.171875 v 3.015625 c 0,0.203125 0,0.28125 -0.625,0.28125 h -0.25 V 0 c 0.328125,-0.03125 0.796875,-0.03125 1.125,-0.03125 0.328125,0 0.796875,0 1.125,0.03125 v -0.234375 h -0.25 c -0.625,0 -0.625,-0.078125 -0.625,-0.28125 z m 0,0"
             id="path5" />
        </g>
      </g>
    </g>
    <g
       inkscape:label=""
       transform="translate(82.705705,106.56636)"
       id="g8">
      <g
         fill="#000000"
         fill-opacity="1"
         id="g5"
         transform="matrix(0.352778,0,0,0.352778,-0.829866,-0.706085)">
        <g
           id="g2"
           transform="translate(1.993,7.4390001)">
          <path
             d="m 3.09375,-4.828125 c 0.0625,-0.265625 0.078125,-0.34375 0.6875,-0.34375 0.171875,0 0.28125,0 0.28125,-0.15625 0,-0.015625 -0.015625,-0.109375 -0.140625,-0.109375 -0.125,0 -0.375,0.015625 -0.5,0.015625 h -1.09375 c -0.109375,0 -0.40625,-0.015625 -0.515625,-0.015625 -0.03125,0 -0.15625,0 -0.15625,0.140625 0,0.125 0.09375,0.125 0.25,0.125 0.515625,0 0.515625,0.046875 0.515625,0.140625 0,0.015625 0,0.046875 -0.046875,0.171875 L 1.328125,-0.625 c -0.078125,0.28125 -0.09375,0.359375 -0.6875,0.359375 -0.1875,0 -0.28125,0 -0.28125,0.15625 0,0.03125 0.03125,0.109375 0.125,0.109375 0.109375,0 0.375,-0.015625 0.5,-0.03125 H 2.09375 C 2.203125,-0.015625 2.484375,0 2.59375,0 2.640625,0 2.75,0 2.75,-0.15625 c 0,-0.109375 -0.09375,-0.109375 -0.25,-0.109375 -0.125,0 -0.171875,0 -0.3125,-0.015625 C 2.0625,-0.296875 1.984375,-0.296875 1.984375,-0.390625 1.984375,-0.4375 2,-0.4375 2.03125,-0.546875 Z m 0,0"
             id="path1" />
        </g>
      </g>
      <g
         fill="#000000"
         fill-opacity="1"
         id="g7"
         transform="matrix(0.352778,0,0,0.352778,-0.829866,-0.706085)">
        <g
           id="g6"
           transform="translate(5.664,8.5450001)">
          <path
             d="M 3.21875,-1.125 H 3 C 2.984375,-1.03125 2.921875,-0.640625 2.84375,-0.578125 2.796875,-0.53125 2.3125,-0.53125 2.21875,-0.53125 H 1.109375 L 1.875,-1.15625 C 2.078125,-1.328125 2.609375,-1.703125 2.796875,-1.890625 2.96875,-2.0625 3.21875,-2.375 3.21875,-2.796875 c 0,-0.75 -0.671875,-1.1875 -1.484375,-1.1875 -0.765625,0 -1.296875,0.515625 -1.296875,1.078125 0,0.296875 0.25,0.34375 0.3125,0.34375 0.15625,0 0.328125,-0.109375 0.328125,-0.328125 C 1.078125,-3.015625 1,-3.21875 0.734375,-3.21875 0.875,-3.515625 1.234375,-3.75 1.65625,-3.75 c 0.625,0 0.953125,0.46875 0.953125,0.953125 0,0.421875 -0.28125,0.859375 -0.6875,1.25 L 0.5,-0.25 C 0.4375,-0.1875 0.4375,-0.1875 0.4375,0 h 2.59375 z m 0,0"
             id="path6" />
        </g>
      </g>
    </g>
    <g
       inkscape:label=""
       transform="translate(79.407048,131.18733)"
       id="g10">
      <g
         fill="#000000"
         fill-opacity="1"
         id="g9"
         transform="matrix(0.352778,0,0,0.352778,-0.84089,-0.705732)">
        <g
           id="use1"
           transform="translate(1.993,7.4380002)">
          <path
             d="m 3.3862469,-32.622588 c 0.09375,-0.390625 0.265625,-0.578125 0.84375,-0.59375 0.078125,0 0.140625,-0.0625 0.140625,-0.15625 0,-0.04687 -0.03125,-0.109375 -0.109375,-0.109375 -0.0625,0 -0.21875,0.01563 -0.796875,0.01563 -0.640625,0 -0.75,-0.01563 -0.828125,-0.01563 -0.125,0 -0.140625,0.07813 -0.140625,0.140625 0,0.109375 0.09375,0.125 0.171875,0.125 0.484375,0.01563 0.484375,0.21875 0.484375,0.328125 0,0.04687 0,0.09375 -0.03125,0.21875 l -0.875,3.484375 -1.92187502,-4.15625 c -0.0625,-0.140625 -0.078125,-0.140625 -0.265625,-0.140625 h -1.046875 c -0.14062498,0 -0.23437498,0 -0.23437498,0.140625 0,0.125 0.09375,0.125 0.24999998,0.125 0.078125,0 0.3125,0 0.5,0.04687 l -1.07812498,4.265625 c -0.09375,0.40625 -0.296875,0.578125 -0.828125,0.59375 -0.046875,0 -0.15625,0.01563 -0.15625,0.15625 0,0.04687 0.046875,0.109375 0.125,0.109375 0.03125,0 0.21875,-0.03125 0.796875,-0.03125 0.62499998,0 0.74999998,0.03125 0.81249998,0.03125 0.03125,0 0.15625,0 0.15625,-0.15625 0,-0.09375 -0.09375,-0.109375 -0.140625,-0.109375 -0.29687498,0 -0.53124998,-0.04687 -0.53124998,-0.328125 0,-0.04687 0.03125,-0.15625 0.03125,-0.15625 l 1.03124998,-4.171875 h 0.015625 l 2.21875002,4.78125 c 0.046875,0.125 0.0625,0.140625 0.140625,0.140625 0.109375,0 0.125,-0.03125 0.15625,-0.171875 z m 0,0"
             id="path2" />
        </g>
      </g>
    </g>
    <g
       inkscape:label=""
       transform="translate(98.1481,125.30492)"
       id="g16">
      <g
         fill="#000000"
         fill-opacity="1"
         id="g15"
         transform="matrix(0.352778,0,0,0.352778,-0.862939,-0.702469)">
        <g
           id="g14"
           transform="translate(1.993,7.46)">
          <path
             d="m 7.609375,-4.90625 c 0.03125,-0.109375 0.03125,-0.125 0.171875,-0.140625 0.125,0 0.265625,0 0.375,0 0.21875,0 0.359375,0 0.359375,-0.25 0,-0.09375 -0.0625,-0.171875 -0.171875,-0.171875 -0.28125,0 -0.578125,0.03125 -0.875,0.03125 H 7.140625 c -0.859375,0 -1.1875,-0.03125 -1.21875,-0.03125 -0.0625,0 -0.234375,0 -0.234375,0.25 0,0.15625 0.109375,0.15625 0.3125,0.171875 0.0625,0 0.40625,0 0.453125,0.015625 l -0.5,1.984375 h -2.78125 l 0.46875,-1.859375 c 0.03125,-0.109375 0.03125,-0.125 0.171875,-0.140625 0.125,0 0.265625,0 0.375,0 0.21875,0 0.359375,0 0.359375,-0.25 0,-0.09375 -0.0625,-0.171875 -0.171875,-0.171875 -0.28125,0 -0.578125,0.03125 -0.875,0.03125 H 3.171875 c -0.859375,0 -1.1875,-0.03125 -1.21875,-0.03125 -0.0625,0 -0.234375,0 -0.234375,0.25 0,0.15625 0.109375,0.15625 0.3125,0.171875 0.0625,0 0.40625,0 0.453125,0.015625 L 1.375,-0.578125 c -0.03125,0.125 -0.046875,0.140625 -0.1875,0.15625 -0.125,0 -0.25,0 -0.375,0 -0.21875,0 -0.359375,0 -0.359375,0.25 C 0.453125,-0.140625 0.484375,0 0.625,0 0.921875,0 1.21875,-0.03125 1.5,-0.03125 H 2.109375 C 2.3125,-0.03125 2.84375,0 3.046875,0 c 0.0625,0 0.25,0 0.25,-0.25 0,-0.03125 -0.03125,-0.09375 -0.078125,-0.140625 -0.09375,-0.046875 -0.1875,0 -0.703125,-0.046875 L 3.0625,-2.640625 h 2.796875 l -0.515625,2.0625 c -0.03125,0.125 -0.046875,0.140625 -0.1875,0.15625 -0.125,0 -0.25,0 -0.375,0 -0.21875,0 -0.359375,0 -0.359375,0.25 C 4.421875,-0.140625 4.453125,0 4.59375,0 4.890625,0 5.171875,-0.03125 5.46875,-0.03125 H 6.078125 C 6.28125,-0.03125 6.8125,0 7.015625,0 c 0.0625,0 0.25,0 0.25,-0.25 0,-0.03125 -0.03125,-0.09375 -0.078125,-0.140625 C 7.09375,-0.4375 7,-0.390625 6.484375,-0.4375 Z m 0,0"
             id="path14" />
        </g>
      </g>
    </g>
    <path
       style="fill:#64727f;fill-opacity:1;fill-rule:evenodd;stroke:#000000;stroke-width:0.2;stroke-dasharray:0.6, 0.6;stroke-dashoffset:0;stroke-opacity:0.996078;marker-end:url(#Triangle)"
       d="m 101.39945,119.55215 -4.445841,6.14208"
       id="path12"
       sodipodi:nodetypes="cc" />
    <text
       xml:space="preserve"
       style="font-size:2.82223px;line-height:1;font-family:sans-serif;-inkscape-font-specification:sans-serif;text-align:center;text-anchor:middle;fill:none;fill-rule:evenodd;stroke:#64727f;stroke-width:0.2"
       x="84.861176"
       y="123.22243"
       id="text16"><tspan
         sodipodi:role="line"
         id="tspan16"
         style="fill:#000000;stroke:none;stroke-width:0.2"
         x="84.861176"
         y="123.22243">turns</tspan></text>
    <path
       style="fill:#000000;fill-rule:evenodd;stroke:#000000;stroke-width:0.1;stroke-dasharray:none;stroke-opacity:1"
       d="M 84.360125,125.30186 83.75983,123.92811"
       id="path16" />
    <g
       inkscape:label=""
       transform="matrix(0.33309179,0,0,0.33309179,97.109185,117.75941)"
       id="g21"
       style="stroke-width:3.00219">
      <g
         fill="#000000"
         fill-opacity="1"
         id="g18"
         transform="matrix(0.352778,0,0,0.352778,-1.03382,-0.524316)"
         style="stroke-width:3.00219">
        <g
           id="g17"
           transform="translate(1.993,19.205)"
           style="stroke-width:3.00219">
          <path
             d="m 11.25,-8.28125 c -0.140625,-1.390625 -1.015625,-3.046875 -3.25,-3.046875 -3.484375,0 -7.0625,3.546875 -7.0625,7.484375 0,1.515625 1.046875,4.359375 4.421875,4.359375 5.84375,0 8.34375,-8.515625 8.34375,-11.921875 0,-3.5625 -2,-6.3125 -5.171875,-6.3125 -3.59375,0 -4.671875,3.140625 -4.671875,3.8125 0,0.234375 0.15625,0.765625 0.84375,0.765625 0.875,0 1.25,-0.78125 1.25,-1.203125 0,-0.765625 -0.78125,-0.765625 -1.09375,-0.765625 C 5.875,-16.953125 7.75,-17.125 8.421875,-17.125 c 2.1875,0 3.578125,1.734375 3.578125,4.515625 0,1.578125 -0.484375,3.421875 -0.71875,4.328125 z m -5.828125,8.125 c -2.328125,0 -2.71875,-1.828125 -2.71875,-2.859375 0,-1.09375 0.6875,-3.65625 1.0625,-4.5625 0.328125,-0.75 1.734375,-3.25 4.3125,-3.25 2.25,0 2.78125,1.953125 2.78125,3.296875 0,1.828125 -1.609375,7.375 -5.4375,7.375 z m 0,0"
             id="path3"
             style="stroke-width:3.00219" />
        </g>
      </g>
      <g
         fill="#000000"
         fill-opacity="1"
         id="g20"
         transform="matrix(0.352778,0,0,0.352778,-1.03382,-0.524316)"
         style="stroke-width:3.00219">
        <g
           id="g19"
           transform="translate(16.143955,19.205)"
           style="stroke-width:3.00219">
          <path
             d="m 15.734375,-17.21875 c 0,-0.234375 -0.171875,-0.234375 -0.21875,-0.234375 -0.109375,0 -0.125,0.03125 -0.421875,0.40625 -0.15625,0.171875 -1.171875,1.453125 -1.1875,1.484375 -0.828125,-1.609375 -2.453125,-1.890625 -3.5,-1.890625 -3.140625,0 -6,2.875 -6,5.6875 0,1.859375 1.125,2.9375 2.328125,3.359375 0.28125,0.109375 1.734375,0.5 2.484375,0.671875 1.265625,0.34375 1.578125,0.453125 2.109375,1 0.09375,0.125 0.59375,0.6875 0.59375,1.859375 0,2.296875 -2.140625,4.671875 -4.609375,4.671875 -2.03125,0 -4.296875,-0.859375 -4.296875,-3.640625 0,-0.46875 0.109375,-1.0625 0.1875,-1.3125 0,-0.078125 0.015625,-0.203125 0.015625,-0.25 0,-0.09375 -0.046875,-0.21875 -0.25,-0.21875 -0.21875,0 -0.25,0.046875 -0.34375,0.46875 l -1.265625,5.078125 c 0,0.03125 -0.09375,0.34375 -0.09375,0.375 0,0.21875 0.203125,0.21875 0.25,0.21875 0.09375,0 0.125,-0.015625 0.421875,-0.390625 l 1.140625,-1.484375 c 0.59375,0.890625 1.875,1.875 4.1875,1.875 3.1875,0 6.109375,-3.09375 6.109375,-6.1875 0,-1.046875 -0.234375,-1.953125 -1.1875,-2.875 C 11.671875,-9.0625 11.21875,-9.1875 8.953125,-9.78125 7.28125,-10.234375 7.0625,-10.3125 6.609375,-10.703125 6.1875,-11.125 5.875,-11.71875 5.875,-12.5625 c 0,-2.078125 2.109375,-4.21875 4.453125,-4.21875 2.4375,0 3.578125,1.484375 3.578125,3.84375 0,0.640625 -0.125,1.3125 -0.125,1.421875 0,0.21875 0.203125,0.21875 0.265625,0.21875 0.234375,0 0.25,-0.07813 0.34375,-0.46875 z m 0,0"
             id="path19"
             style="stroke-width:3.00219" />
        </g>
      </g>
    </g>
  </g>
</svg>
