<?xml version="1.0" encoding="UTF-8" standalone="no"?>
<!-- Created with Inkscape (http://www.inkscape.org/) -->

<svg
   width="304.92734"
   height="243.06262"
   id="svg2"
   sodipodi:version="0.32"
   inkscape:version="1.3.2 (091e20e, 2023-11-25, custom)"
   version="1.0"
   sodipodi:docname="Permeability_of_ferromagnet.svg"
   inkscape:output_extension="org.inkscape.output.svg.inkscape"
   xmlns:inkscape="http://www.inkscape.org/namespaces/inkscape"
   xmlns:sodipodi="http://sodipodi.sourceforge.net/DTD/sodipodi-0.dtd"
   xmlns="http://www.w3.org/2000/svg"
   xmlns:svg="http://www.w3.org/2000/svg"
   xmlns:rdf="http://www.w3.org/1999/02/22-rdf-syntax-ns#"
   xmlns:cc="http://creativecommons.org/ns#"
   xmlns:dc="http://purl.org/dc/elements/1.1/">
  <sodipodi:namedview
     id="base"
     pagecolor="#ffffff"
     bordercolor="#666666"
     borderopacity="1.0"
     gridtolerance="10000"
     guidetolerance="10"
     objecttolerance="10"
     inkscape:pageopacity="0.0"
     inkscape:pageshadow="2"
     inkscape:zoom="2.9750863"
     inkscape:cx="109.40859"
     inkscape:cy="135.62632"
     inkscape:document-units="px"
     inkscape:current-layer="layer1"
     showgrid="false"
     inkscape:window-width="2560"
     inkscape:window-height="1351"
     inkscape:window-x="-9"
     inkscape:window-y="-9"
     showguides="true"
     inkscape:guide-bbox="true"
     inkscape:showpageshadow="0"
     inkscape:pagecheckerboard="0"
     inkscape:deskcolor="#505050"
     inkscape:window-maximized="1" />
  <defs
     id="defs4">
    <marker
       style="overflow:visible"
       id="TriangleOutM"
       refX="0"
       refY="0"
       orient="auto"
       inkscape:stockid="TriangleOutM">
      <path
         transform="scale(0.4)"
         style="fill-rule:evenodd;stroke:#000000;stroke-width:1pt;marker-start:none"
         d="M 5.77,0 -2.88,5 V -5 Z"
         id="path3369" />
    </marker>
    <marker
       style="overflow:visible"
       id="TriangleInM"
       refX="0"
       refY="0"
       orient="auto"
       inkscape:stockid="TriangleInM">
      <path
         transform="scale(-0.4)"
         style="fill-rule:evenodd;stroke:#000000;stroke-width:1pt;marker-start:none"
         d="M 5.77,0 -2.88,5 V -5 Z"
         id="path3360" />
    </marker>
    <marker
       style="overflow:visible"
       id="Arrow2Sstart"
       refX="0"
       refY="0"
       orient="auto"
       inkscape:stockid="Arrow2Sstart">
      <path
         transform="matrix(0.3,0,0,0.3,-0.69,0)"
         d="M 8.7185878,4.0337352 -2.2072895,0.01601326 8.7185884,-4.0017078 c -1.7454984,2.3720609 -1.7354408,5.6174519 -6e-7,8.035443 z"
         style="font-size:12px;fill-rule:evenodd;stroke-width:0.625;stroke-linejoin:round"
         id="path3253" />
    </marker>
    <marker
       style="overflow:visible"
       id="Arrow2Mstart"
       refX="0"
       refY="0"
       orient="auto"
       inkscape:stockid="Arrow2Mstart">
      <path
         transform="scale(0.6)"
         d="M 8.7185878,4.0337352 -2.2072895,0.01601326 8.7185884,-4.0017078 c -1.7454984,2.3720609 -1.7354408,5.6174519 -6e-7,8.035443 z"
         style="font-size:12px;fill-rule:evenodd;stroke-width:0.625;stroke-linejoin:round"
         id="path3247" />
    </marker>
    <marker
       style="overflow:visible"
       id="Arrow1Lstart"
       refX="0"
       refY="0"
       orient="auto"
       inkscape:stockid="Arrow1Lstart">
      <path
         transform="matrix(0.8,0,0,0.8,10,0)"
         style="fill-rule:evenodd;stroke:#000000;stroke-width:1pt;marker-start:none"
         d="M 0,0 5,-5 -12.5,0 5,5 Z"
         id="path3223" />
    </marker>
    <inkscape:perspective
       id="perspective10"
       inkscape:persp3d-origin="372.04724 : 323.85001 : 1"
       inkscape:vp_z="744.09448 : 499.24371 : 1"
       inkscape:vp_y="0 : 1000 : 0"
       inkscape:vp_x="0 : 499.24371 : 1"
       sodipodi:type="inkscape:persp3d" />
    <inkscape:perspective
       sodipodi:type="inkscape:persp3d"
       inkscape:vp_x="0 : 499.24371 : 1"
       inkscape:vp_y="0 : 1000 : 0"
       inkscape:vp_z="744.09448 : 499.24371 : 1"
       inkscape:persp3d-origin="372.04724 : 323.85001 : 1"
       id="perspective2390" />
    <marker
       style="overflow:visible"
       id="TriangleInMD"
       refX="0"
       refY="0"
       orient="auto"
       inkscape:stockid="TriangleInMD">
      <path
         transform="scale(-0.4)"
         style="fill:#ff0000;fill-rule:evenodd;stroke:#ff0000;stroke-width:1pt;marker-start:none"
         d="M 5.77,0 -2.88,5 V -5 Z"
         id="path7056" />
    </marker>
    <marker
       style="overflow:visible"
       id="TriangleOutMu"
       refX="0"
       refY="0"
       orient="auto"
       inkscape:stockid="TriangleOutMu">
      <path
         transform="scale(0.4)"
         style="fill:#ff0000;fill-rule:evenodd;stroke:#ff0000;stroke-width:1pt;marker-start:none"
         d="M 5.77,0 -2.88,5 V -5 Z"
         id="path7059" />
    </marker>
    <marker
       style="overflow:visible"
       id="TriangleInMF"
       refX="0"
       refY="0"
       orient="auto"
       inkscape:stockid="TriangleInMF">
      <path
         transform="scale(-0.4)"
         style="fill:#0000ff;fill-rule:evenodd;stroke:#0000ff;stroke-width:1pt;marker-start:none"
         d="M 5.77,0 -2.88,5 V -5 Z"
         id="path8780" />
    </marker>
    <marker
       style="overflow:visible"
       id="TriangleOutMuh"
       refX="0"
       refY="0"
       orient="auto"
       inkscape:stockid="TriangleOutMuh">
      <path
         transform="scale(0.4)"
         style="fill:#0000ff;fill-rule:evenodd;stroke:#0000ff;stroke-width:1pt;marker-start:none"
         d="M 5.77,0 -2.88,5 V -5 Z"
         id="path8783" />
    </marker>
    <marker
       style="overflow:visible"
       id="TriangleInMDe"
       refX="0"
       refY="0"
       orient="auto"
       inkscape:stockid="TriangleInMDe">
      <path
         transform="scale(-0.4)"
         style="fill:#00ff00;fill-rule:evenodd;stroke:#00ff00;stroke-width:1pt;marker-start:none"
         d="M 5.77,0 -2.88,5 V -5 Z"
         id="path8912" />
    </marker>
    <marker
       style="overflow:visible"
       id="TriangleOutMuG"
       refX="0"
       refY="0"
       orient="auto"
       inkscape:stockid="TriangleOutMuG">
      <path
         transform="scale(0.4)"
         style="fill:#00ff00;fill-rule:evenodd;stroke:#00ff00;stroke-width:1pt;marker-start:none"
         d="M 5.77,0 -2.88,5 V -5 Z"
         id="path8915" />
    </marker>
    <marker
       style="overflow:visible"
       id="TriangleInMDeA"
       refX="0"
       refY="0"
       orient="auto"
       inkscape:stockid="TriangleInMDeA">
      <path
         transform="scale(-0.4)"
         style="fill:#00c800;fill-rule:evenodd;stroke:#00c800;stroke-width:1pt;marker-start:none"
         d="M 5.77,0 -2.88,5 V -5 Z"
         id="path9042" />
    </marker>
    <marker
       style="overflow:visible"
       id="TriangleOutMuGb"
       refX="0"
       refY="0"
       orient="auto"
       inkscape:stockid="TriangleOutMuGb">
      <path
         transform="scale(0.4)"
         style="fill:#00c800;fill-rule:evenodd;stroke:#00c800;stroke-width:1pt;marker-start:none"
         d="M 5.77,0 -2.88,5 V -5 Z"
         id="path9045" />
    </marker>
    <marker
       style="overflow:visible"
       id="TriangleInMDeAG"
       refX="0"
       refY="0"
       orient="auto"
       inkscape:stockid="TriangleInMDeAG">
      <path
         transform="scale(-0.4)"
         style="fill:#009600;fill-rule:evenodd;stroke:#009600;stroke-width:1pt;marker-start:none"
         d="M 5.77,0 -2.88,5 V -5 Z"
         id="path9180" />
    </marker>
    <marker
       style="overflow:visible"
       id="TriangleOutMuGbn"
       refX="0"
       refY="0"
       orient="auto"
       inkscape:stockid="TriangleOutMuGbn">
      <path
         transform="scale(0.4)"
         style="fill:#009600;fill-rule:evenodd;stroke:#009600;stroke-width:1pt;marker-start:none"
         d="M 5.77,0 -2.88,5 V -5 Z"
         id="path9183" />
    </marker>
    <inkscape:perspective
       id="perspective3976"
       inkscape:persp3d-origin="372.04724 : 323.85001 : 1"
       inkscape:vp_z="744.09448 : 499.24371 : 1"
       inkscape:vp_y="0 : 1000 : 0"
       inkscape:vp_x="0 : 499.24371 : 1"
       sodipodi:type="inkscape:persp3d" />
  </defs>
  <metadata
     id="metadata7">
    <rdf:RDF>
      <cc:Work
         rdf:about="">
        <dc:format>image/svg+xml</dc:format>
        <dc:type
           rdf:resource="http://purl.org/dc/dcmitype/StillImage" />
      </cc:Work>
    </rdf:RDF>
  </metadata>
  <g
     transform="translate(-51.038002,-34.387351)"
     id="layer1"
     inkscape:groupmode="layer"
     inkscape:label="Layer 1">
    <path
       style="display:inline;overflow:visible;visibility:visible;opacity:1;fill:none;fill-opacity:1;fill-rule:nonzero;stroke:#64727f;stroke-width:2.6;stroke-linecap:square;stroke-linejoin:miter;stroke-miterlimit:0;stroke-dasharray:none;stroke-dashoffset:0;stroke-opacity:1;marker:none;marker-start:none;marker-mid:none;marker-end:none;enable-background:accumulate"
       d="m 70.902417,248.46729 c 0,0 16.293097,-22.4465 29.261403,-56.88874 12.96832,-34.44223 17.99961,-69.82873 57.30115,-107.13949 37.5229,-33.006119 116.81891,-24.954178 188.66632,-28.014003"
       id="path4000"
       sodipodi:nodetypes="cscc" />
    <circle
       id="path2466"
       style="fill:#009600;stroke:none"
       cx="7.6750903"
       cy="238.43594"
       r="0" />
    <circle
       id="path2470"
       style="fill:#009600;stroke:none"
       cx="16.351353"
       cy="237.41522"
       r="0" />
    <circle
       id="path2472"
       style="fill:#009600;stroke:none"
       cx="-15.291484"
       cy="234.35301"
       r="0" />
    <circle
       id="path2474"
       style="fill:#009600;stroke:none"
       cx="-15.291484"
       cy="234.35301"
       r="0" />
    <path
       style="display:inline;overflow:visible;visibility:visible;opacity:1;fill:none;fill-opacity:1;fill-rule:nonzero;stroke:#000000;stroke-width:2;stroke-linecap:square;stroke-linejoin:miter;stroke-miterlimit:0;stroke-dasharray:none;stroke-dashoffset:0;stroke-opacity:1;marker:none;marker-start:none;marker-mid:none;marker-end:url(#TriangleOutM);enable-background:accumulate"
       d="m 52.038002,251.70553 c 294.992888,0 294.992888,0 294.992888,0"
       id="path2476" />
    <path
       style="display:inline;overflow:visible;visibility:visible;opacity:1;fill:none;fill-opacity:1;fill-rule:nonzero;stroke:#000000;stroke-width:2;stroke-linecap:square;stroke-linejoin:miter;stroke-miterlimit:0;stroke-dasharray:none;stroke-dashoffset:0;stroke-opacity:1;marker:none;marker-start:none;marker-mid:none;marker-end:url(#TriangleOutM);enable-background:accumulate"
       d="m 69.390528,272.64716 c 0,-232.578089 0,-232.578089 0,-232.578089"
       id="path3937" />
    <path
       style="display:inline;overflow:visible;visibility:visible;opacity:1;fill:none;fill-opacity:1;fill-rule:nonzero;stroke:#0000ff;stroke-width:2.6;stroke-linecap:square;stroke-linejoin:miter;stroke-miterlimit:0;stroke-dasharray:none;stroke-dashoffset:0;stroke-opacity:1;marker:none;marker-start:none;marker-mid:none;marker-end:none;enable-background:accumulate"
       d="m 69.476357,143.99361 c 0,0 14.351195,-8.79305 23.767607,-21.57946 9.181956,-12.46806 11.194716,-37.761317 27.095066,-37.942971 15.91287,-0.181797 37.81952,41.327251 54.6655,61.886261 16.84598,20.55901 33.94894,48.41264 64.17253,65.12125 30.22359,16.7086 109.33099,26.53087 109.33099,26.53087"
       id="path3317"
       sodipodi:nodetypes="czzzzz" />
    <ellipse
       style="display:inline;overflow:visible;visibility:visible;opacity:1;fill:#0000ff;fill-opacity:1;fill-rule:nonzero;stroke:none;stroke-width:1;stroke-linecap:square;stroke-linejoin:miter;stroke-miterlimit:0;stroke-dasharray:none;stroke-dashoffset:0;stroke-opacity:1;marker:none;marker-start:none;marker-mid:none;marker-end:none;enable-background:accumulate"
       id="path3337"
       transform="translate(29.071428,24.576468)"
       cx="91.02993"
       cy="60.132042"
       rx="2.6144366"
       ry="3.0897887" />
    <g
       inkscape:label=""
       transform="matrix(1.6104774,0,0,1.6104774,326.83461,61.799991)"
       id="g1"
       style="stroke-width:0.620934">
      <g
         fill="#000000"
         fill-opacity="1"
         id="g2"
         transform="matrix(1.33333,0,0,1.33333,-3.42817,-2.673)"
         style="stroke-width:0.620934">
        <g
           id="use1"
           transform="translate(1.993,10.161)"
           style="stroke-width:0.620934">
          <path
             d="M 4.375,-7.34375 C 4.484375,-7.796875 4.53125,-7.8125 5,-7.8125 h 1.546875 c 1.359375,0 1.359375,1.140625 1.359375,1.25 0,0.96875 -0.96875,2.203125 -2.546875,2.203125 h -1.71875 z m 2.015625,3.078125 C 7.703125,-4.5 8.875,-5.421875 8.875,-6.515625 8.875,-7.453125 8.0625,-8.15625 6.703125,-8.15625 H 2.875 c -0.234375,0 -0.34375,0 -0.34375,0.21875 0,0.125 0.109375,0.125 0.296875,0.125 0.71875,0 0.71875,0.09375 0.71875,0.21875 0,0.03125 0,0.09375 -0.046875,0.28125 L 1.890625,-0.890625 C 1.78125,-0.46875 1.75,-0.34375 0.921875,-0.34375 c -0.234375,0 -0.34375,0 -0.34375,0.21875 0,0.125 0.0625,0.125 0.3125,0.125 h 4.09375 C 6.8125,0 8.21875,-1.390625 8.21875,-2.59375 c 0,-0.984375 -0.859375,-1.578125 -1.828125,-1.671875 z m -1.6875,3.921875 h -1.625 c -0.15625,0 -0.1875,0 -0.25,-0.015625 -0.140625,-0.015625 -0.15625,-0.03125 -0.15625,-0.125 0,-0.09375 0.03125,-0.15625 0.046875,-0.265625 L 3.5625,-4.125 h 2.25 c 1.40625,0 1.40625,1.3125 1.40625,1.40625 0,1.15625 -1.03125,2.375 -2.515625,2.375 z m 0,0"
             id="path2"
             style="stroke-width:0.620934" />
        </g>
      </g>
    </g>
    <g
       inkscape:label=""
       transform="matrix(1.6104774,0,0,1.6104774,334.23272,259.93609)"
       id="g5"
       style="stroke-width:0.620934">
      <g
         fill="#000000"
         fill-opacity="1"
         id="g4"
         transform="matrix(1.33333,0,0,1.33333,-3.3865,-2.673)"
         style="stroke-width:0.620934">
        <g
           id="g3"
           transform="translate(1.993,10.161)"
           style="stroke-width:0.620934">
          <path
             d="M 8.9375,-7.296875 C 9.046875,-7.703125 9.078125,-7.8125 9.921875,-7.8125 c 0.21875,0 0.328125,0 0.328125,-0.21875 0,-0.125 -0.109375,-0.125 -0.171875,-0.125 -0.21875,0 -0.46875,0.015625 -0.6875,0.015625 H 7.96875 C 7.75,-8.140625 7.5,-8.15625 7.265625,-8.15625 c -0.078125,0 -0.21875,0 -0.21875,0.21875 0,0.125 0.078125,0.125 0.296875,0.125 0.71875,0 0.71875,0.09375 0.71875,0.21875 0,0.03125 0,0.09375 -0.046875,0.28125 l -0.71875,2.890625 H 3.6875 l 0.71875,-2.875 C 4.5,-7.703125 4.53125,-7.8125 5.375,-7.8125 c 0.21875,0 0.34375,0 0.34375,-0.21875 0,-0.125 -0.109375,-0.125 -0.1875,-0.125 -0.21875,0 -0.46875,0.015625 -0.6875,0.015625 H 3.4375 c -0.234375,0 -0.484375,-0.015625 -0.71875,-0.015625 -0.078125,0 -0.21875,0 -0.21875,0.21875 0,0.125 0.078125,0.125 0.3125,0.125 0.71875,0 0.71875,0.09375 0.71875,0.21875 0,0.03125 0,0.09375 -0.046875,0.28125 l -1.625,6.421875 C 1.75,-0.46875 1.734375,-0.34375 0.90625,-0.34375 c -0.265625,0 -0.359375,0 -0.359375,0.21875 C 0.546875,0 0.6875,0 0.71875,0 0.9375,0 1.1875,-0.03125 1.40625,-0.03125 H 2.828125 C 3.046875,-0.03125 3.296875,0 3.53125,0 3.625,0 3.75,0 3.75,-0.234375 3.75,-0.34375 3.640625,-0.34375 3.46875,-0.34375 c -0.734375,0 -0.734375,-0.09375 -0.734375,-0.21875 0,-0.015625 0,-0.09375 0.03125,-0.1875 l 0.8125,-3.328125 h 3.625 C 7,-3.28125 6.390625,-0.78125 6.375,-0.71875 c -0.140625,0.359375 -0.328125,0.359375 -1.03125,0.375 -0.140625,0 -0.25,0 -0.25,0.21875 C 5.09375,0 5.21875,0 5.265625,0 5.46875,0 5.71875,-0.03125 5.953125,-0.03125 h 1.40625 C 7.59375,-0.03125 7.84375,0 8.0625,0 c 0.09375,0 0.234375,0 0.234375,-0.234375 0,-0.109375 -0.109375,-0.109375 -0.28125,-0.109375 -0.734375,0 -0.734375,-0.09375 -0.734375,-0.21875 0,-0.015625 0,-0.09375 0.015625,-0.1875 z m 0,0"
             id="path1"
             style="stroke-width:0.620934" />
        </g>
      </g>
    </g>
    <g
       inkscape:label=""
       transform="matrix(1.4521836,0,0,1.4521836,296.43991,201.41924)"
       id="g25"
       style="stroke-width:0.688618">
      <g
         fill="#000000"
         fill-opacity="1"
         id="g12"
         transform="matrix(1.33333,0,0,1.33333,-3.09483,-2.65367)"
         style="stroke-width:0.688618">
        <g
           id="use5"
           transform="translate(1.993,10.959)"
           style="stroke-width:0.688618">
          <path
             d="M 1.71875,-0.265625 C 2.015625,0.015625 2.46875,0.125 2.875,0.125 3.640625,0.125 4.15625,-0.390625 4.4375,-0.765625 4.546875,-0.125 5.0625,0.125 5.46875,0.125 5.828125,0.125 6.125,-0.09375 6.328125,-0.53125 6.53125,-0.9375 6.6875,-1.65625 6.6875,-1.703125 c 0,-0.0625 -0.046875,-0.109375 -0.109375,-0.109375 -0.109375,0 -0.125,0.0625 -0.171875,0.234375 C 6.234375,-0.875 6,-0.125 5.515625,-0.125 c -0.359375,0 -0.375,-0.3125 -0.375,-0.546875 0,-0.265625 0.109375,-0.703125 0.1875,-1.0625 L 5.671875,-3.03125 C 5.71875,-3.25 5.84375,-3.796875 5.90625,-4 c 0.0625,-0.296875 0.203125,-0.8125 0.203125,-0.859375 0,-0.171875 -0.140625,-0.296875 -0.328125,-0.296875 -0.109375,0 -0.359375,0.046875 -0.453125,0.40625 L 4.5,-1.421875 C 4.4375,-1.1875 4.4375,-1.15625 4.28125,-0.96875 4.140625,-0.765625 3.671875,-0.125 2.921875,-0.125 2.25,-0.125 2.03125,-0.609375 2.03125,-1.171875 c 0,-0.34375 0.109375,-0.765625 0.15625,-0.96875 l 0.53125,-2.15625 C 2.78125,-4.515625 2.875,-4.90625 2.875,-4.96875 c 0,-0.1875 -0.15625,-0.296875 -0.3125,-0.296875 -0.09375,0 -0.359375,0.03125 -0.453125,0.40625 L 0.375,2.0625 C 0.359375,2.125 0.328125,2.203125 0.328125,2.265625 c 0,0.1875 0.15625,0.296875 0.328125,0.296875 0.34375,0 0.421875,-0.265625 0.5,-0.609375 z m 0,0"
             id="path10"
             style="stroke-width:0.688618" />
        </g>
      </g>
      <g
         fill="#000000"
         fill-opacity="1"
         id="g18"
         transform="matrix(1.33333,0,0,1.33333,-3.09483,-2.65367)"
         style="stroke-width:0.688618">
        <g
           id="g17"
           transform="translate(9.0349998,12.752)"
           style="stroke-width:0.688618">
          <path
             d="m 1.46875,-1.8125 c 0,-0.609375 0.25,-1.46875 1.015625,-1.484375 -0.046875,0.03125 -0.140625,0.09375 -0.140625,0.28125 0,0.25 0.203125,0.359375 0.359375,0.359375 0.1875,0 0.359375,-0.125 0.359375,-0.359375 0,-0.28125 -0.25,-0.5 -0.609375,-0.5 -0.515625,0 -0.875,0.390625 -1.03125,0.84375 H 1.40625 v -0.84375 l -1.125,0.09375 v 0.265625 c 0.546875,0 0.609375,0.046875 0.609375,0.4375 V -0.625 c 0,0.359375 -0.109375,0.359375 -0.609375,0.359375 V 0 c 0.3125,-0.03125 0.75,-0.03125 0.9375,-0.03125 0.46875,0 0.484375,0 1,0.03125 V -0.265625 H 2.0625 c -0.578125,0 -0.59375,-0.078125 -0.59375,-0.375 z m 0,0"
             id="path17"
             style="stroke-width:0.688618" />
        </g>
      </g>
      <g
         fill="#000000"
         fill-opacity="1"
         id="g20"
         transform="matrix(1.33333,0,0,1.33333,-3.09483,-2.65367)"
         style="stroke-width:0.688618">
        <g
           id="g19"
           transform="translate(12.834,10.959)"
           style="stroke-width:0.688618">
          <path
             d="m 3.890625,2.90625 c 0,-0.03125 0,-0.0625 -0.203125,-0.265625 C 2.484375,1.4375 1.8125,-0.53125 1.8125,-2.96875 c 0,-2.328125 0.5625,-4.328125 1.953125,-5.734375 0.125,-0.109375 0.125,-0.125 0.125,-0.171875 0,-0.0625 -0.0625,-0.09375 -0.109375,-0.09375 -0.15625,0 -1.140625,0.859375 -1.71875,2.03125 -0.609375,1.21875 -0.890625,2.484375 -0.890625,3.96875 0,1.0625 0.171875,2.484375 0.78125,3.75 C 2.671875,2.21875 3.640625,3 3.78125,3 3.828125,3 3.890625,2.96875 3.890625,2.90625 Z m 0,0"
             id="path18"
             style="stroke-width:0.688618" />
        </g>
      </g>
      <g
         fill="#000000"
         fill-opacity="1"
         id="g22"
         transform="matrix(1.33333,0,0,1.33333,-3.09483,-2.65367)"
         style="stroke-width:0.688618">
        <g
           id="g21"
           transform="translate(17.386,10.959)"
           style="stroke-width:0.688618">
          <path
             d="M 8.9375,-7.296875 C 9.046875,-7.703125 9.078125,-7.8125 9.921875,-7.8125 c 0.21875,0 0.328125,0 0.328125,-0.21875 0,-0.125 -0.109375,-0.125 -0.171875,-0.125 -0.21875,0 -0.46875,0.015625 -0.6875,0.015625 H 7.96875 C 7.75,-8.140625 7.5,-8.15625 7.265625,-8.15625 c -0.078125,0 -0.21875,0 -0.21875,0.21875 0,0.125 0.078125,0.125 0.296875,0.125 0.71875,0 0.71875,0.09375 0.71875,0.21875 0,0.03125 0,0.09375 -0.046875,0.28125 l -0.71875,2.890625 H 3.6875 l 0.71875,-2.875 C 4.5,-7.703125 4.53125,-7.8125 5.375,-7.8125 c 0.21875,0 0.34375,0 0.34375,-0.21875 0,-0.125 -0.109375,-0.125 -0.1875,-0.125 -0.21875,0 -0.46875,0.015625 -0.6875,0.015625 H 3.4375 c -0.234375,0 -0.484375,-0.015625 -0.71875,-0.015625 -0.078125,0 -0.21875,0 -0.21875,0.21875 0,0.125 0.078125,0.125 0.3125,0.125 0.71875,0 0.71875,0.09375 0.71875,0.21875 0,0.03125 0,0.09375 -0.046875,0.28125 l -1.625,6.421875 C 1.75,-0.46875 1.734375,-0.34375 0.90625,-0.34375 c -0.265625,0 -0.359375,0 -0.359375,0.21875 C 0.546875,0 0.6875,0 0.71875,0 0.9375,0 1.1875,-0.03125 1.40625,-0.03125 H 2.828125 C 3.046875,-0.03125 3.296875,0 3.53125,0 3.625,0 3.75,0 3.75,-0.234375 3.75,-0.34375 3.640625,-0.34375 3.46875,-0.34375 c -0.734375,0 -0.734375,-0.09375 -0.734375,-0.21875 0,-0.015625 0,-0.09375 0.03125,-0.1875 l 0.8125,-3.328125 h 3.625 C 7,-3.28125 6.390625,-0.78125 6.375,-0.71875 c -0.140625,0.359375 -0.328125,0.359375 -1.03125,0.375 -0.140625,0 -0.25,0 -0.25,0.21875 C 5.09375,0 5.21875,0 5.265625,0 5.46875,0 5.71875,-0.03125 5.953125,-0.03125 h 1.40625 C 7.59375,-0.03125 7.84375,0 8.0625,0 c 0.09375,0 0.234375,0 0.234375,-0.234375 0,-0.109375 -0.109375,-0.109375 -0.28125,-0.109375 -0.734375,0 -0.734375,-0.09375 -0.734375,-0.21875 0,-0.015625 0,-0.09375 0.015625,-0.1875 z m 0,0"
             id="path20"
             style="stroke-width:0.688618" />
        </g>
      </g>
      <g
         fill="#000000"
         fill-opacity="1"
         id="g24"
         transform="matrix(1.33333,0,0,1.33333,-3.09483,-2.65367)"
         style="stroke-width:0.688618">
        <g
           id="g23"
           transform="translate(28.009001,10.959)"
           style="stroke-width:0.688618">
          <path
             d="M 3.375,-2.96875 C 3.375,-3.890625 3.25,-5.359375 2.578125,-6.75 1.875,-8.1875 0.890625,-8.96875 0.765625,-8.96875 c -0.046875,0 -0.109375,0.03125 -0.109375,0.09375 0,0.046875 0,0.0625 0.203125,0.265625 1.203125,1.203125 1.859375,3.1875 1.859375,5.625 0,2.3125 -0.5625,4.3125 -1.9375,5.71875 C 0.65625,2.84375 0.65625,2.875 0.65625,2.90625 0.65625,2.96875 0.71875,3 0.765625,3 0.921875,3 1.90625,2.140625 2.484375,0.96875 3.09375,-0.25 3.375,-1.546875 3.375,-2.96875 Z m 0,0"
             id="path22"
             style="stroke-width:0.688618" />
        </g>
      </g>
    </g>
    <g
       inkscape:label=""
       transform="matrix(1.4521836,0,0,1.4521836,82.422735,37.402763)"
       id="g33"
       style="stroke-width:0.688618">
      <g
         fill="#000000"
         fill-opacity="1"
         id="g29"
         transform="matrix(1.33333,0,0,1.33333,-3.15733,-2.65367)"
         style="stroke-width:0.688618">
        <g
           id="g26"
           transform="translate(1.993,10.959)"
           style="stroke-width:0.688618">
          <path
             d="m 8.578125,-2.90625 c 0,-1.109375 0,-1.4375 -0.28125,-1.828125 -0.34375,-0.46875 -0.90625,-0.53125 -1.3125,-0.53125 -1,0 -1.5,0.71875 -1.6875,1.171875 -0.171875,-0.921875 -0.8125,-1.171875 -1.5625,-1.171875 -1.171875,0 -1.625,0.984375 -1.71875,1.21875 v -1.21875 l -1.640625,0.125 v 0.34375 c 0.8125,0 0.921875,0.09375 0.921875,0.671875 v 3.234375 c 0,0.546875 -0.140625,0.546875 -0.921875,0.546875 V 0 c 0.3125,-0.03125 0.96875,-0.03125 1.296875,-0.03125 0.34375,0 1,0 1.296875,0.03125 v -0.34375 c -0.75,0 -0.90625,0 -0.90625,-0.546875 v -2.21875 c 0,-1.25 0.828125,-1.921875 1.578125,-1.921875 0.734375,0 0.90625,0.609375 0.90625,1.34375 v 2.796875 c 0,0.546875 -0.140625,0.546875 -0.90625,0.546875 V 0 c 0.296875,-0.03125 0.953125,-0.03125 1.28125,-0.03125 0.34375,0 1,0 1.3125,0.03125 v -0.34375 c -0.765625,0 -0.921875,0 -0.921875,-0.546875 v -2.21875 c 0,-1.25 0.828125,-1.921875 1.578125,-1.921875 0.734375,0 0.90625,0.609375 0.90625,1.34375 v 2.796875 c 0,0.546875 -0.140625,0.546875 -0.90625,0.546875 V 0 c 0.3125,-0.03125 0.953125,-0.03125 1.28125,-0.03125 0.34375,0 1,0 1.3125,0.03125 v -0.34375 c -0.609375,0 -0.90625,0 -0.90625,-0.359375 z m 0,0"
             id="path25"
             style="stroke-width:0.688618" />
        </g>
        <g
           id="g27"
           transform="translate(11.748443,10.959)"
           style="stroke-width:0.688618">
          <path
             d="m 4.609375,-3.1875 c 0,-0.65625 0,-1.125 -0.515625,-1.59375 C 3.671875,-5.15625 3.125,-5.328125 2.609375,-5.328125 1.625,-5.328125 0.875,-4.6875 0.875,-3.90625 c 0,0.34375 0.21875,0.515625 0.5,0.515625 0.28125,0 0.484375,-0.203125 0.484375,-0.5 C 1.859375,-4.375 1.4375,-4.375 1.25,-4.375 c 0.28125,-0.5 0.859375,-0.71875 1.328125,-0.71875 0.546875,0 1.265625,0.453125 1.265625,1.53125 v 0.484375 c -2.40625,0.03125 -3.3125,1.03125 -3.3125,1.953125 0,0.953125 1.09375,1.25 1.828125,1.25 0.78125,0 1.328125,-0.484375 1.546875,-1.0625 0.046875,0.5625 0.421875,1 0.9375,1 0.25,0 0.9375,-0.171875 0.9375,-1.125 V -1.734375 H 5.515625 V -1.0625 c 0,0.6875 -0.28125,0.78125 -0.453125,0.78125 -0.453125,0 -0.453125,-0.640625 -0.453125,-0.8125 z m -0.765625,1.5 c 0,1.171875 -0.875,1.5625 -1.390625,1.5625 -0.59375,0 -1.078125,-0.421875 -1.078125,-1 0,-1.578125 2.03125,-1.71875 2.46875,-1.75 z m 0,0"
             id="path26"
             style="stroke-width:0.688618" />
        </g>
        <g
           id="g28"
           transform="translate(17.601709,10.959)"
           style="stroke-width:0.688618">
          <path
             d="M 3.34375,-2.828125 C 3.6875,-3.28125 4.203125,-3.921875 4.421875,-4.171875 4.90625,-4.71875 5.46875,-4.8125 5.859375,-4.8125 V -5.15625 C 5.34375,-5.125 5.3125,-5.125 4.859375,-5.125 4.40625,-5.125 4.375,-5.125 3.78125,-5.15625 V -4.8125 C 3.9375,-4.78125 4.125,-4.703125 4.125,-4.4375 4.125,-4.234375 4.015625,-4.09375 3.9375,-4 L 3.171875,-3.03125 2.25,-4.265625 C 2.21875,-4.3125 2.140625,-4.421875 2.140625,-4.5 c 0,-0.078125 0.0625,-0.296875 0.421875,-0.3125 V -5.15625 C 2.265625,-5.125 1.65625,-5.125 1.328125,-5.125 c -0.390625,0 -0.421875,0 -1.15625,-0.03125 v 0.34375 c 0.609375,0 0.84375,0.03125 1.09375,0.359375 L 2.671875,-2.625 c 0.015625,0.015625 0.0625,0.09375 0.0625,0.125 0,0.03125 -0.921875,1.203125 -1.046875,1.359375 -0.53125,0.65625 -1.046875,0.78125 -1.5625,0.796875 V 0 c 0.453125,-0.03125 0.46875,-0.03125 0.984375,-0.03125 0.453125,0 0.484375,0 1.078125,0.03125 V -0.34375 C 1.90625,-0.375 1.859375,-0.5625 1.859375,-0.734375 c 0,-0.1875 0.078125,-0.28125 0.203125,-0.4375 0.171875,-0.25 0.5625,-0.734375 0.859375,-1.109375 L 3.890625,-1 c 0.203125,0.265625 0.203125,0.28125 0.203125,0.359375 0,0.09375 -0.09375,0.28125 -0.40625,0.296875 V 0 C 4,-0.03125 4.578125,-0.03125 4.90625,-0.03125 c 0.40625,0 0.421875,0 1.140625,0.03125 v -0.34375 c -0.625,0 -0.84375,-0.03125 -1.140625,-0.40625 z m 0,0"
             id="path27"
             style="stroke-width:0.688618" />
        </g>
      </g>
      <g
         fill="#000000"
         fill-opacity="1"
         id="g31"
         transform="matrix(1.33333,0,0,1.33333,-3.15733,-2.65367)"
         style="stroke-width:0.688618">
        <g
           id="g30"
           transform="translate(25.771,10.959)"
           style="stroke-width:0.688618">
          <path
             d="M 1.71875,-0.265625 C 2.015625,0.015625 2.46875,0.125 2.875,0.125 3.640625,0.125 4.15625,-0.390625 4.4375,-0.765625 4.546875,-0.125 5.0625,0.125 5.46875,0.125 5.828125,0.125 6.125,-0.09375 6.328125,-0.53125 6.53125,-0.9375 6.6875,-1.65625 6.6875,-1.703125 c 0,-0.0625 -0.046875,-0.109375 -0.109375,-0.109375 -0.109375,0 -0.125,0.0625 -0.171875,0.234375 C 6.234375,-0.875 6,-0.125 5.515625,-0.125 c -0.359375,0 -0.375,-0.3125 -0.375,-0.546875 0,-0.265625 0.109375,-0.703125 0.1875,-1.0625 L 5.671875,-3.03125 C 5.71875,-3.25 5.84375,-3.796875 5.90625,-4 c 0.0625,-0.296875 0.203125,-0.8125 0.203125,-0.859375 0,-0.171875 -0.140625,-0.296875 -0.328125,-0.296875 -0.109375,0 -0.359375,0.046875 -0.453125,0.40625 L 4.5,-1.421875 C 4.4375,-1.1875 4.4375,-1.15625 4.28125,-0.96875 4.140625,-0.765625 3.671875,-0.125 2.921875,-0.125 2.25,-0.125 2.03125,-0.609375 2.03125,-1.171875 c 0,-0.34375 0.109375,-0.765625 0.15625,-0.96875 l 0.53125,-2.15625 C 2.78125,-4.515625 2.875,-4.90625 2.875,-4.96875 c 0,-0.1875 -0.15625,-0.296875 -0.3125,-0.296875 -0.09375,0 -0.359375,0.03125 -0.453125,0.40625 L 0.375,2.0625 C 0.359375,2.125 0.328125,2.203125 0.328125,2.265625 c 0,0.1875 0.15625,0.296875 0.328125,0.296875 0.34375,0 0.421875,-0.265625 0.5,-0.609375 z m 0,0"
             id="path29"
             style="stroke-width:0.688618" />
        </g>
      </g>
      <g
         fill="#000000"
         fill-opacity="1"
         id="g32"
         transform="matrix(1.33333,0,0,1.33333,-3.15733,-2.65367)"
         style="stroke-width:0.688618">
        <g
           id="use12"
           transform="translate(32.813999,12.752)"
           style="stroke-width:0.688618">
          <path
             d="m 1.46875,-1.8125 c 0,-0.609375 0.25,-1.46875 1.015625,-1.484375 -0.046875,0.03125 -0.140625,0.09375 -0.140625,0.28125 0,0.25 0.203125,0.359375 0.359375,0.359375 0.1875,0 0.359375,-0.125 0.359375,-0.359375 0,-0.28125 -0.25,-0.5 -0.609375,-0.5 -0.515625,0 -0.875,0.390625 -1.03125,0.84375 H 1.40625 v -0.84375 l -1.125,0.09375 v 0.265625 c 0.546875,0 0.609375,0.046875 0.609375,0.4375 V -0.625 c 0,0.359375 -0.109375,0.359375 -0.609375,0.359375 V 0 c 0.3125,-0.03125 0.75,-0.03125 0.9375,-0.03125 0.46875,0 0.484375,0 1,0.03125 V -0.265625 H 2.0625 c -0.578125,0 -0.59375,-0.078125 -0.59375,-0.375 z m 0,0"
             id="path19"
             style="stroke-width:0.688618" />
        </g>
      </g>
      <g
         fill="#000000"
         fill-opacity="1"
         id="g13"
         transform="matrix(1.33333,0,0,1.33333,-3.15733,-2.65367)"
         style="stroke-width:0.688618">
        <g
           id="use13"
           transform="translate(36.612,10.959)"
           style="stroke-width:0.688618">
          <path
             d="m 3.890625,2.90625 c 0,-0.03125 0,-0.0625 -0.203125,-0.265625 C 2.484375,1.4375 1.8125,-0.53125 1.8125,-2.96875 c 0,-2.328125 0.5625,-4.328125 1.953125,-5.734375 0.125,-0.109375 0.125,-0.125 0.125,-0.171875 0,-0.0625 -0.0625,-0.09375 -0.109375,-0.09375 -0.15625,0 -1.140625,0.859375 -1.71875,2.03125 -0.609375,1.21875 -0.890625,2.484375 -0.890625,3.96875 0,1.0625 0.171875,2.484375 0.78125,3.75 C 2.671875,2.21875 3.640625,3 3.78125,3 3.828125,3 3.890625,2.96875 3.890625,2.90625 Z m 0,0"
             id="path32"
             style="stroke-width:0.688618" />
        </g>
      </g>
      <g
         fill="#000000"
         fill-opacity="1"
         id="g14"
         transform="matrix(1.33333,0,0,1.33333,-3.15733,-2.65367)"
         style="stroke-width:0.688618">
        <g
           id="use14"
           transform="translate(41.165001,10.959)"
           style="stroke-width:0.688618">
          <path
             d="M 8.9375,-7.296875 C 9.046875,-7.703125 9.078125,-7.8125 9.921875,-7.8125 c 0.21875,0 0.328125,0 0.328125,-0.21875 0,-0.125 -0.109375,-0.125 -0.171875,-0.125 -0.21875,0 -0.46875,0.015625 -0.6875,0.015625 H 7.96875 C 7.75,-8.140625 7.5,-8.15625 7.265625,-8.15625 c -0.078125,0 -0.21875,0 -0.21875,0.21875 0,0.125 0.078125,0.125 0.296875,0.125 0.71875,0 0.71875,0.09375 0.71875,0.21875 0,0.03125 0,0.09375 -0.046875,0.28125 l -0.71875,2.890625 H 3.6875 l 0.71875,-2.875 C 4.5,-7.703125 4.53125,-7.8125 5.375,-7.8125 c 0.21875,0 0.34375,0 0.34375,-0.21875 0,-0.125 -0.109375,-0.125 -0.1875,-0.125 -0.21875,0 -0.46875,0.015625 -0.6875,0.015625 H 3.4375 c -0.234375,0 -0.484375,-0.015625 -0.71875,-0.015625 -0.078125,0 -0.21875,0 -0.21875,0.21875 0,0.125 0.078125,0.125 0.3125,0.125 0.71875,0 0.71875,0.09375 0.71875,0.21875 0,0.03125 0,0.09375 -0.046875,0.28125 l -1.625,6.421875 C 1.75,-0.46875 1.734375,-0.34375 0.90625,-0.34375 c -0.265625,0 -0.359375,0 -0.359375,0.21875 C 0.546875,0 0.6875,0 0.71875,0 0.9375,0 1.1875,-0.03125 1.40625,-0.03125 H 2.828125 C 3.046875,-0.03125 3.296875,0 3.53125,0 3.625,0 3.75,0 3.75,-0.234375 3.75,-0.34375 3.640625,-0.34375 3.46875,-0.34375 c -0.734375,0 -0.734375,-0.09375 -0.734375,-0.21875 0,-0.015625 0,-0.09375 0.03125,-0.1875 l 0.8125,-3.328125 h 3.625 C 7,-3.28125 6.390625,-0.78125 6.375,-0.71875 c -0.140625,0.359375 -0.328125,0.359375 -1.03125,0.375 -0.140625,0 -0.25,0 -0.25,0.21875 C 5.09375,0 5.21875,0 5.265625,0 5.46875,0 5.71875,-0.03125 5.953125,-0.03125 h 1.40625 C 7.59375,-0.03125 7.84375,0 8.0625,0 c 0.09375,0 0.234375,0 0.234375,-0.234375 0,-0.109375 -0.109375,-0.109375 -0.28125,-0.109375 -0.734375,0 -0.734375,-0.09375 -0.734375,-0.21875 0,-0.015625 0,-0.09375 0.015625,-0.1875 z m 0,0"
             id="path21"
             style="stroke-width:0.688618" />
        </g>
      </g>
      <g
         fill="#000000"
         fill-opacity="1"
         id="g15"
         transform="matrix(1.33333,0,0,1.33333,-3.15733,-2.65367)"
         style="stroke-width:0.688618">
        <g
           id="use15"
           transform="translate(51.786999,10.959)"
           style="stroke-width:0.688618">
          <path
             d="M 3.375,-2.96875 C 3.375,-3.890625 3.25,-5.359375 2.578125,-6.75 1.875,-8.1875 0.890625,-8.96875 0.765625,-8.96875 c -0.046875,0 -0.109375,0.03125 -0.109375,0.09375 0,0.046875 0,0.0625 0.203125,0.265625 1.203125,1.203125 1.859375,3.1875 1.859375,5.625 0,2.3125 -0.5625,4.3125 -1.9375,5.71875 C 0.65625,2.84375 0.65625,2.875 0.65625,2.90625 0.65625,2.96875 0.71875,3 0.765625,3 0.921875,3 1.90625,2.140625 2.484375,0.96875 3.09375,-0.25 3.375,-1.546875 3.375,-2.96875 Z m 0,0"
             id="path33"
             style="stroke-width:0.688618" />
        </g>
      </g>
    </g>
    <path
       style="fill:#000000;fill-opacity:0.996078;fill-rule:evenodd;stroke:#000000;stroke-width:1.212;stroke-dasharray:none;stroke-opacity:0.995695"
       d="M 133.88654,62.953882 122.71579,80.311536"
       id="path34"
       sodipodi:nodetypes="cc" />
    <path
       style="fill:#000000;fill-opacity:0.996078;fill-rule:evenodd;stroke:#000000;stroke-width:1.212;stroke-dasharray:none;stroke-opacity:0.995695"
       d="m 144.67983,212.07703 2.13909,17.0377"
       id="path34-1"
       sodipodi:nodetypes="cc" />
    <path
       style="fill:#000000;fill-opacity:0.996078;fill-rule:evenodd;stroke:#000000;stroke-width:1.212;stroke-dasharray:none;stroke-opacity:0.995695"
       d="m 268.64035,145.26758 10.99822,7.95155 m 3.42199,-91.41915 -18.74882,12.297192"
       id="path34-7"
       sodipodi:nodetypes="cccc" />
    <path
       style="fill:#000000;fill-opacity:0.996078;fill-rule:evenodd;stroke:#64727f;stroke-width:2.6;stroke-dasharray:7.8, 7.8;stroke-dashoffset:0;stroke-opacity:0.996078"
       d="M 70.902417,248.46729 347.48543,96.116993"
       id="path35"
       sodipodi:nodetypes="cc" />
    <text
       xml:space="preserve"
       style="line-height:0%;font-family:sans-serif;-inkscape-font-specification:sans-serif;text-align:center;text-anchor:middle;fill:#000000;fill-opacity:0.996078;fill-rule:evenodd;stroke:none;stroke-width:2.6;stroke-dasharray:7.8, 7.8;stroke-dashoffset:0;stroke-opacity:1"
       x="271.26331"
       y="128.91629"
       id="text35"><tspan
         sodipodi:role="line"
         id="tspan35"
         x="275.48206"
         y="128.91629"
         style="font-size:24px;line-height:1"> </tspan></text>
    <text
       xml:space="preserve"
       style="line-height:0%;font-family:sans-serif;-inkscape-font-specification:sans-serif;text-align:start;text-anchor:start;fill:#000000;fill-opacity:0.996078;fill-rule:evenodd;stroke:none;stroke-width:2.6;stroke-dasharray:7.8, 7.8;stroke-dashoffset:0;stroke-opacity:1"
       x="280.59766"
       y="160.17427"
       id="text36"><tspan
         sodipodi:role="line"
         id="tspan36"
         x="280.59766"
         y="160.17427"
         style="font-size:17.3333px;line-height:1">Linear </tspan><tspan
         sodipodi:role="line"
         x="280.59766"
         y="177.50757"
         id="tspan37"
         style="font-size:17.3333px;line-height:1">behavior</tspan></text>
    <text
       xml:space="preserve"
       style="line-height:0%;font-family:sans-serif;-inkscape-font-specification:sans-serif;text-align:start;text-anchor:start;fill:#000000;fill-opacity:0.996078;fill-rule:evenodd;stroke:none;stroke-width:2.6;stroke-dasharray:7.8, 7.8;stroke-dashoffset:0;stroke-opacity:1"
       x="188.26389"
       y="85.585083"
       id="text36-2"><tspan
         sodipodi:role="line"
         id="tspan36-3"
         x="188.26389"
         y="85.585083"
         style="font-size:17.3333px;line-height:1">Nonlinear </tspan><tspan
         sodipodi:role="line"
         x="188.26389"
         y="102.91838"
         id="tspan37-1"
         style="font-size:17.3333px;line-height:1">behavior</tspan></text>
    <g
       inkscape:label=""
       transform="matrix(1.4544937,0,0,1.4544937,109.03368,227.56985)"
       id="g45"
       style="stroke-width:0.687524">
      <g
         fill="#000000"
         fill-opacity="1"
         id="g10"
         transform="matrix(1.33333,0,0,1.33333,-3.09483,-2.66967)"
         style="stroke-width:0.687524">
        <g
           id="use9"
           transform="translate(1.993,9.3459997)"
           style="stroke-width:0.687524">
          <path
             d="M 1.71875,-0.265625 C 2.015625,0.015625 2.46875,0.125 2.875,0.125 3.640625,0.125 4.15625,-0.390625 4.4375,-0.765625 4.546875,-0.125 5.0625,0.125 5.46875,0.125 5.828125,0.125 6.125,-0.09375 6.328125,-0.53125 6.53125,-0.9375 6.6875,-1.65625 6.6875,-1.703125 c 0,-0.0625 -0.046875,-0.109375 -0.109375,-0.109375 -0.109375,0 -0.125,0.0625 -0.171875,0.234375 C 6.234375,-0.875 6,-0.125 5.515625,-0.125 c -0.359375,0 -0.375,-0.3125 -0.375,-0.546875 0,-0.265625 0.109375,-0.703125 0.1875,-1.0625 L 5.671875,-3.03125 C 5.71875,-3.25 5.84375,-3.796875 5.90625,-4 c 0.0625,-0.296875 0.203125,-0.8125 0.203125,-0.859375 0,-0.171875 -0.140625,-0.296875 -0.328125,-0.296875 -0.109375,0 -0.359375,0.046875 -0.453125,0.40625 L 4.5,-1.421875 C 4.4375,-1.1875 4.4375,-1.15625 4.28125,-0.96875 4.140625,-0.765625 3.671875,-0.125 2.921875,-0.125 2.25,-0.125 2.03125,-0.609375 2.03125,-1.171875 c 0,-0.34375 0.109375,-0.765625 0.15625,-0.96875 l 0.53125,-2.15625 C 2.78125,-4.515625 2.875,-4.90625 2.875,-4.96875 c 0,-0.1875 -0.15625,-0.296875 -0.3125,-0.296875 -0.09375,0 -0.359375,0.03125 -0.453125,0.40625 L 0.375,2.0625 C 0.359375,2.125 0.328125,2.203125 0.328125,2.265625 c 0,0.1875 0.15625,0.296875 0.328125,0.296875 0.34375,0 0.421875,-0.265625 0.5,-0.609375 z m 0,0"
             id="path37"
             style="stroke-width:0.687524" />
        </g>
      </g>
      <g
         fill="#000000"
         fill-opacity="1"
         id="g11"
         transform="matrix(1.33333,0,0,1.33333,-3.09483,-2.66967)"
         style="stroke-width:0.687524">
        <g
           id="use10"
           transform="translate(9.0349998,11.139)"
           style="stroke-width:0.687524">
          <path
             d="m 1.46875,-1.8125 c 0,-0.609375 0.25,-1.46875 1.015625,-1.484375 -0.046875,0.03125 -0.140625,0.09375 -0.140625,0.28125 0,0.25 0.203125,0.359375 0.359375,0.359375 0.1875,0 0.359375,-0.125 0.359375,-0.359375 0,-0.28125 -0.25,-0.5 -0.609375,-0.5 -0.515625,0 -0.875,0.390625 -1.03125,0.84375 H 1.40625 v -0.84375 l -1.125,0.09375 v 0.265625 c 0.546875,0 0.609375,0.046875 0.609375,0.4375 V -0.625 c 0,0.359375 -0.109375,0.359375 -0.609375,0.359375 V 0 c 0.3125,-0.03125 0.75,-0.03125 0.9375,-0.03125 0.46875,0 0.484375,0 1,0.03125 V -0.265625 H 2.0625 c -0.578125,0 -0.59375,-0.078125 -0.59375,-0.375 z m 0,0"
             id="path38"
             style="stroke-width:0.687524" />
        </g>
      </g>
      <g
         fill="#000000"
         fill-opacity="1"
         id="g39"
         transform="matrix(1.33333,0,0,1.33333,-3.09483,-2.66967)"
         style="stroke-width:0.687524">
        <g
           id="use11"
           transform="translate(16.155001,9.3459997)"
           style="stroke-width:0.687524">
          <path
             d="m 8.0625,-3.875 c 0.171875,0 0.390625,0 0.390625,-0.21875 C 8.453125,-4.3125 8.25,-4.3125 8.0625,-4.3125 H 1.03125 c -0.171875,0 -0.390625,0 -0.390625,0.21875 0,0.21875 0.203125,0.21875 0.390625,0.21875 z m 0,2.21875 c 0.171875,0 0.390625,0 0.390625,-0.203125 C 8.453125,-2.09375 8.25,-2.09375 8.0625,-2.09375 H 1.03125 c -0.171875,0 -0.390625,0 -0.390625,0.21875 0,0.21875 0.203125,0.21875 0.390625,0.21875 z m 0,0"
             id="path39"
             style="stroke-width:0.687524" />
        </g>
      </g>
      <g
         fill="#000000"
         fill-opacity="1"
         id="g44"
         transform="matrix(1.33333,0,0,1.33333,-3.09483,-2.66967)"
         style="stroke-width:0.687524">
        <g
           id="g40"
           transform="translate(28.583626,9.3459997)"
           style="stroke-width:0.687524">
          <path
             d="m 4.328125,-4.421875 c -0.140625,0 -0.59375,0 -0.59375,0.484375 0,0.296875 0.203125,0.5 0.5,0.5 0.265625,0 0.5,-0.171875 0.5,-0.515625 0,-0.796875 -0.84375,-1.375 -1.8125,-1.375 -1.390625,0 -2.5,1.234375 -2.5,2.75 0,1.53125 1.140625,2.703125 2.5,2.703125 1.578125,0 1.9375,-1.4375 1.9375,-1.546875 0,-0.109375 -0.09375,-0.109375 -0.125,-0.109375 -0.109375,0 -0.125,0.03125 -0.15625,0.1875 C 4.3125,-0.5 3.671875,-0.140625 3.03125,-0.140625 c -0.734375,0 -1.703125,-0.640625 -1.703125,-2.453125 0,-1.984375 1.015625,-2.46875 1.609375,-2.46875 0.453125,0 1.109375,0.171875 1.390625,0.640625 z m 0,0"
             id="path40"
             style="stroke-width:0.687524" />
        </g>
        <g
           id="g41"
           transform="translate(33.78653,9.3459997)"
           style="stroke-width:0.687524">
          <path
             d="m 5.484375,-2.5625 c 0,-1.53125 -1.171875,-2.765625 -2.5625,-2.765625 -1.421875,0 -2.5625,1.265625 -2.5625,2.765625 0,1.53125 1.1875,2.6875 2.5625,2.6875 1.40625,0 2.5625,-1.171875 2.5625,-2.6875 z m -2.5625,2.421875 c -0.4375,0 -0.96875,-0.1875 -1.3125,-0.78125 -0.328125,-0.53125 -0.34375,-1.234375 -0.34375,-1.75 0,-0.453125 0,-1.171875 0.375,-1.71875 C 1.96875,-4.90625 2.5,-5.09375 2.921875,-5.09375 c 0.453125,0 0.96875,0.21875 1.28125,0.6875 0.375,0.546875 0.375,1.296875 0.375,1.734375 0,0.421875 0,1.171875 -0.3125,1.734375 C 3.9375,-0.375 3.375,-0.140625 2.921875,-0.140625 Z m 0,0"
             id="path41"
             style="stroke-width:0.687524" />
        </g>
        <g
           id="g42"
           transform="translate(39.639793,9.3459997)"
           style="stroke-width:0.687524">
          <path
             d="m 5.3125,-2.90625 c 0,-1.109375 0,-1.4375 -0.265625,-1.828125 -0.34375,-0.46875 -0.90625,-0.53125 -1.3125,-0.53125 -1.171875,0 -1.625,0.984375 -1.71875,1.21875 v -1.21875 l -1.640625,0.125 v 0.34375 c 0.8125,0 0.921875,0.09375 0.921875,0.671875 v 3.234375 c 0,0.546875 -0.140625,0.546875 -0.921875,0.546875 V 0 c 0.3125,-0.03125 0.96875,-0.03125 1.296875,-0.03125 0.34375,0 1,0 1.296875,0.03125 v -0.34375 c -0.75,0 -0.90625,0 -0.90625,-0.546875 v -2.21875 c 0,-1.25 0.828125,-1.921875 1.578125,-1.921875 0.734375,0 0.90625,0.609375 0.90625,1.34375 v 2.796875 c 0,0.546875 -0.140625,0.546875 -0.90625,0.546875 V 0 c 0.296875,-0.03125 0.953125,-0.03125 1.28125,-0.03125 0.34375,0 1,0 1.3125,0.03125 v -0.34375 c -0.609375,0 -0.90625,0 -0.921875,-0.359375 z m 0,0"
             id="path42"
             style="stroke-width:0.687524" />
        </g>
        <g
           id="g43"
           transform="translate(46.143425,9.3459997)"
           style="stroke-width:0.687524">
          <path
             d="m 3.921875,-5.0625 c 0,-0.203125 0,-0.265625 -0.125,-0.265625 -0.09375,0 -0.3125,0.265625 -0.40625,0.375 -0.359375,-0.3125 -0.734375,-0.375 -1.125,-0.375 -1.4375,0 -1.875,0.78125 -1.875,1.4375 0,0.140625 0,0.5625 0.453125,0.96875 0.390625,0.34375 0.796875,0.421875 1.34375,0.53125 0.65625,0.125 0.8125,0.171875 1.109375,0.40625 0.21875,0.171875 0.375,0.4375 0.375,0.78125 C 3.671875,-0.6875 3.375,-0.125 2.3125,-0.125 1.53125,-0.125 0.953125,-0.578125 0.6875,-1.765625 0.640625,-1.984375 0.640625,-2 0.640625,-2.015625 0.609375,-2.0625 0.5625,-2.0625 0.53125,-2.0625 0.390625,-2.0625 0.390625,-2 0.390625,-1.78125 v 1.625 c 0,0.21875 0,0.28125 0.125,0.28125 0.0625,0 0.0625,-0.015625 0.265625,-0.265625 C 0.84375,-0.234375 0.84375,-0.25 1.03125,-0.4375 1.484375,0.125 2.125,0.125 2.328125,0.125 c 1.25,0 1.875,-0.703125 1.875,-1.640625 0,-0.640625 -0.390625,-1.03125 -0.5,-1.140625 -0.421875,-0.375 -0.75,-0.4375 -1.546875,-0.578125 -0.34375,-0.078125 -1.21875,-0.25 -1.21875,-0.96875 0,-0.359375 0.25,-0.90625 1.328125,-0.90625 1.296875,0 1.375,1.109375 1.390625,1.46875 0.015625,0.109375 0.09375,0.109375 0.140625,0.109375 0.125,0 0.125,-0.0625 0.125,-0.28125 z m 0,0"
             id="path23"
             style="stroke-width:0.687524" />
        </g>
        <g
           id="use16"
           transform="translate(50.760521,9.3459997)"
           style="stroke-width:0.687524">
          <path
             d="M 2.015625,-4.8125 H 3.6875 V -5.15625 H 2.015625 v -2.1875 H 1.75 C 1.734375,-6.234375 1.296875,-5.078125 0.21875,-5.046875 V -4.8125 h 1.015625 v 3.328125 c 0,1.328125 0.875,1.609375 1.515625,1.609375 0.75,0 1.140625,-0.75 1.140625,-1.609375 V -2.15625 h -0.25 V -1.5 c 0,0.859375 -0.359375,1.359375 -0.8125,1.359375 -0.8125,0 -0.8125,-1.109375 -0.8125,-1.3125 z m 0,0"
             id="path24"
             style="stroke-width:0.687524" />
        </g>
        <g
           id="use17"
           transform="translate(55.313061,9.3459997)"
           style="stroke-width:0.687524">
          <path
             d="m 2.203125,-0.578125 c 0,-0.328125 -0.28125,-0.578125 -0.578125,-0.578125 -0.34375,0 -0.578125,0.265625 -0.578125,0.578125 C 1.046875,-0.234375 1.34375,0 1.609375,0 1.9375,0 2.203125,-0.25 2.203125,-0.578125 Z m 0,0"
             id="path43"
             style="stroke-width:0.687524" />
        </g>
      </g>
    </g>
  </g>
</svg>
