<?xml version="1.0" encoding="UTF-8" standalone="no"?>
<svg
   viewBox="0 0 645.60928 432.45784"
   height="432.45453"
   width="645.60815"
   version="1.1"
   id="svg95"
   sodipodi:docname="PM_energy_product.svg"
   inkscape:version="1.3.2 (091e20e, 2023-11-25, custom)"
   xmlns:inkscape="http://www.inkscape.org/namespaces/inkscape"
   xmlns:sodipodi="http://sodipodi.sourceforge.net/DTD/sodipodi-0.dtd"
   xmlns="http://www.w3.org/2000/svg"
   xmlns:svg="http://www.w3.org/2000/svg">
  <sodipodi:namedview
     id="namedview95"
     pagecolor="#505050"
     bordercolor="#eeeeee"
     borderopacity="1"
     inkscape:showpageshadow="0"
     inkscape:pageopacity="0"
     inkscape:pagecheckerboard="0"
     inkscape:deskcolor="#505050"
     inkscape:zoom="1.6478363"
     inkscape:cx="445.12917"
     inkscape:cy="281.8848"
     inkscape:window-width="2560"
     inkscape:window-height="1351"
     inkscape:window-x="2551"
     inkscape:window-y="-9"
     inkscape:window-maximized="1"
     inkscape:current-layer="g95" />
  <defs
     id="defs95" />
  <g
     transform="matrix(1.75762,0,0,1.75762,-312.75159,-850.06852)"
     id="g95">
    <g
       transform="matrix(0.94131,0,0,1.06234,3.414,0)"
       id="g54">
      <text
         xml:space="preserve"
         style="font-size:9.86192px;line-height:1;font-family:sans-serif;-inkscape-font-specification:sans-serif;text-align:end;text-anchor:end;fill:#000000;fill-rule:evenodd;stroke-width:0.568958"
         x="451.95453"
         y="517.34247"
         id="text106"
         transform="scale(1.0623446,0.94131413)"><tspan
           sodipodi:role="line"
           id="tspan106"
           style="stroke-width:0.568958"
           x="451.95453"
           y="517.34247">NdFeB</tspan></text>
    </g>
    <path
       d="m 217.75,516.88 h 4.208"
       fill="none"
       fill-rule="evenodd"
       stroke="#000000"
       stroke-width="1.219"
       id="path55" />
    <g
       font-family="Sans"
       word-spacing="0"
       line-height="125%"
       letter-spacing="0"
       font-size="65.01px"
       id="g60">
      <text
         y="517.96002"
         x="198.21001"
         id="text55"><tspan
           y="517.96002"
           x="198.21001"
           font-family="'DejaVu Sans'"
           font-size="8.126px"
           id="tspan55">400</tspan></text>
      <text
         y="560.73999"
         x="197.97"
         id="text56"><tspan
           y="560.73999"
           x="197.97"
           font-family="'DejaVu Sans'"
           font-size="8.126px"
           id="tspan56">320</tspan></text>
      <text
         y="601.22998"
         x="198.03"
         id="text57"><tspan
           y="601.22998"
           x="198.03"
           font-family="'DejaVu Sans'"
           font-size="8.126px"
           id="tspan57">240</tspan></text>
      <text
         y="641.35999"
         x="198.28999"
         id="text58"><tspan
           y="641.35999"
           x="198.28999"
           font-family="'DejaVu Sans'"
           font-size="8.126px"
           id="tspan58">160</tspan></text>
      <text
         y="684.32001"
         x="202.83"
         id="text59"><tspan
           y="684.32001"
           x="202.83"
           font-family="'DejaVu Sans'"
           font-size="8.126px"
           id="tspan59">80</tspan></text>
      <text
         y="719.15997"
         x="208.32001"
         id="text60"><tspan
           y="719.15997"
           x="208.32001"
           font-family="'DejaVu Sans'"
           font-size="8.126px"
           id="tspan60">0</tspan></text>
    </g>
    <g
       fill="none"
       fill-rule="evenodd"
       stroke="#000000"
       stroke-width="1.219"
       id="g77">
      <path
         d="m 217.73,557.74 h 4.208"
         id="path60" />
      <path
         d="m 218.3,598.88 h 4.208"
         id="path61" />
      <path
         d="m 218.37,640.47 h 4.208"
         id="path62" />
      <path
         d="m 218.2,681.51 h 4.208"
         id="path63" />
      <path
         d="m 249.77,715.56 v 3.089"
         id="path64" />
      <path
         d="m 282.99,715.61 v 3.089"
         id="path65" />
      <path
         d="m 315.19,715.46 v 3.089"
         id="path66" />
      <path
         d="m 348.19,715.54 v 3.089"
         id="path67" />
      <path
         d="m 380.92,715.39 v 3.089"
         id="path68" />
      <path
         d="m 413.77,715.45 v 3.089"
         id="path69" />
      <path
         d="m 446.21,715.61 v 3.089"
         id="path70" />
      <path
         d="m 479.32,715.42 v 3.089"
         id="path71" />
      <path
         d="m 511.78,715.59 v 3.089"
         id="path72" />
    </g>
    <g
       fill="none"
       fill-rule="evenodd"
       stroke="#000000"
       stroke-width="1.625"
       id="g86">
      <path
         d="m 221.69,484.46 0.639,231.56 h 322.12 V 484.46 Z"
         id="path81" />
      <path
         d="m 243.37,709.89 h 36.76 v -5.65 h 39.02 v -8.135 h 37.966 v -10.998 h 24.482 v -10.09 h 111.33"
         id="path82" />
      <path
         d="m 287.96,710.5 h 68.45 v -11.505 h 109.26"
         id="path83" />
      <path
         d="m 401.11,693.17 h 10.847 v -58.794 h 6.365 v -20.2 h 28.582"
         id="path84" />
      <path
         d="m 512.14,588.46 h -77.29 v 15.216 h -5.65 v 71.41 h -1.544 v 33.87 h -17.363"
         id="path85" />
      <path
         d="m 539.1,490.41 h -7.617 v 6.871 h -41.455 v 10.464 h -29.07 v 15.209 h -1.119 v 16.832 h -2.184 v 32.628 h -1.866 v 80.35"
         id="path86" />
    </g>
    <g
       font-family="Sans"
       word-spacing="0"
       line-height="125%"
       letter-spacing="0"
       font-size="65.01px"
       id="g94">
      <text
         y="729.56"
         x="239.22"
         id="text86"><tspan
           y="729.56"
           x="239.22"
           font-family="'DejaVu Sans'"
           font-size="8.126px"
           id="tspan86">1920</tspan></text>
      <text
         y="729.56"
         x="272.31"
         id="text87"><tspan
           y="729.56"
           x="272.31"
           font-family="'DejaVu Sans'"
           font-size="8.126px"
           id="tspan87">1930</tspan></text>
      <text
         y="729.56"
         x="304.60001"
         id="text88"><tspan
           y="729.56"
           x="304.60001"
           font-family="'DejaVu Sans'"
           font-size="8.126px"
           id="tspan88">1940</tspan></text>
      <text
         y="729.56"
         x="337.89001"
         id="text89"><tspan
           y="729.56"
           x="337.89001"
           font-family="'DejaVu Sans'"
           font-size="8.126px"
           id="tspan89">1950</tspan></text>
      <text
         y="729.56"
         x="370.20999"
         id="text90"><tspan
           y="729.56"
           x="370.20999"
           font-family="'DejaVu Sans'"
           font-size="8.126px"
           id="tspan90">1960</tspan></text>
      <text
         y="729.56"
         x="403.47"
         id="text91"><tspan
           y="729.56"
           x="403.47"
           font-family="'DejaVu Sans'"
           font-size="8.126px"
           id="tspan91">1970</tspan></text>
      <text
         y="729.56"
         x="436.45001"
         id="text92"><tspan
           y="729.56"
           x="436.45001"
           font-family="'DejaVu Sans'"
           font-size="8.126px"
           id="tspan92">1980</tspan></text>
      <text
         y="729.56"
         x="468.84"
         id="text93"><tspan
           y="729.56"
           x="468.84"
           font-family="'DejaVu Sans'"
           font-size="8.126px"
           id="tspan93">1990</tspan></text>
      <text
         y="729.56"
         x="502.39001"
         id="text94"><tspan
           y="729.56"
           x="502.39001"
           font-family="'DejaVu Sans'"
           font-size="8.126px"
           id="tspan94">2000</tspan></text>
    </g>
    <text
       xml:space="preserve"
       style="font-size:10.6205px;line-height:1;font-family:sans-serif;-inkscape-font-specification:sans-serif;text-align:end;text-anchor:end;fill:#000000;fill-rule:evenodd;stroke-width:0.568956"
       x="-541.39404"
       y="190.06976"
       id="text100"
       transform="rotate(-90)"><tspan
         sodipodi:role="line"
         id="tspan100"
         style="font-size:10.6205px;stroke-width:0.568956"
         x="-541.39404"
         y="190.06976">in kJ/m<tspan
   style="font-size:10.6205px;baseline-shift:super;stroke-width:0.568956"
   id="tspan101">3</tspan></tspan></text>
    <text
       xml:space="preserve"
       style="font-size:9.8619px;line-height:1;font-family:sans-serif;-inkscape-font-specification:sans-serif;text-align:end;text-anchor:end;fill:#000000;fill-rule:evenodd;stroke-width:0.568956"
       x="273.22516"
       y="706.52649"
       id="text102"><tspan
         sodipodi:role="line"
         id="tspan102"
         style="font-size:9.8619px;stroke-width:0.568956"
         x="273.22516"
         y="706.52649">KS steel</tspan></text>
    <text
       xml:space="preserve"
       style="font-size:9.8619px;line-height:1;font-family:sans-serif;-inkscape-font-specification:sans-serif;text-align:end;text-anchor:end;fill:#000000;fill-rule:evenodd;stroke-width:0.568956"
       x="317.11505"
       y="701.86383"
       id="text102-4"><tspan
         sodipodi:role="line"
         id="tspan102-4"
         style="font-size:9.8619px;stroke-width:0.568956"
         x="317.11505"
         y="701.86383">MK steel</tspan></text>
    <text
       xml:space="preserve"
       style="font-size:9.8619px;line-height:1;font-family:sans-serif;-inkscape-font-specification:sans-serif;text-align:end;text-anchor:end;fill:#000000;fill-rule:evenodd;stroke-width:0.568956"
       x="357.116"
       y="685.10699"
       id="text102-4-0"><tspan
         sodipodi:role="line"
         id="tspan102-4-2"
         style="font-size:9.8619px;stroke-width:0.568956"
         x="357.116"
         y="685.10699">Alnico</tspan></text>
    <text
       xml:space="preserve"
       style="font-size:9.8619px;line-height:1;font-family:sans-serif;-inkscape-font-specification:sans-serif;text-align:end;text-anchor:end;fill:#000000;fill-rule:evenodd;stroke-width:0.568956"
       x="505.0332"
       y="701.72662"
       id="text102-4-0-4"><tspan
         sodipodi:role="line"
         id="tspan102-4-2-7"
         style="font-size:9.8619px;stroke-width:0.568956"
         x="505.0332"
         y="701.72662">Ferrites</tspan></text>
    <text
       xml:space="preserve"
       style="font-size:9.86188px;line-height:1;font-family:sans-serif;-inkscape-font-specification:sans-serif;text-align:end;text-anchor:end;fill:#000000;fill-rule:evenodd;stroke-width:0.568956"
       x="413.93442"
       y="625.02344"
       id="text103"><tspan
         sodipodi:role="line"
         id="tspan103"
         style="stroke-width:0.568956"
         x="413.93442"
         y="625.02344">SmCo<tspan
   style="font-size:65%;baseline-shift:sub"
   id="tspan104">5</tspan></tspan></text>
    <text
       xml:space="preserve"
       style="font-size:9.86188px;line-height:1;font-family:sans-serif;-inkscape-font-specification:sans-serif;text-align:end;text-anchor:end;fill:#000000;fill-rule:evenodd;stroke-width:0.568956"
       x="433.10803"
       y="586.85364"
       id="text103-6"><tspan
         sodipodi:role="line"
         id="tspan103-1"
         style="stroke-width:0.568956"
         x="433.10803"
         y="586.85364">Sm<tspan
   style="font-size:65%;baseline-shift:sub"
   id="tspan107">2</tspan>(CoFeCuZr)<tspan
   style="font-size:65%;baseline-shift:sub"
   id="tspan108">17</tspan></tspan></text>
  </g>
  <g
     inkscape:label=""
     transform="matrix(0,-1.6840291,1.6840291,0,1.0624057,289.89106)"
     id="g99"
     style="stroke-width:0.593814">
    <g
       fill="#000000"
       fill-opacity="1"
       id="g8"
       transform="matrix(1.33334,0,0,1.33334,-4.21984,-2.65367)"
       style="stroke-width:0.593814">
      <g
         id="use7"
         transform="translate(1.993,10.959)"
         style="stroke-width:0.593814">
        <path
           d="m 3.890625,2.90625 c 0,-0.03125 0,-0.0625 -0.203125,-0.265625 C 2.484375,1.4375 1.8125,-0.53125 1.8125,-2.96875 c 0,-2.328125 0.5625,-4.328125 1.953125,-5.734375 0.125,-0.109375 0.125,-0.125 0.125,-0.171875 0,-0.0625 -0.0625,-0.09375 -0.109375,-0.09375 -0.15625,0 -1.140625,0.859375 -1.71875,2.03125 -0.609375,1.21875 -0.890625,2.484375 -0.890625,3.96875 0,1.0625 0.171875,2.484375 0.78125,3.75 C 2.671875,2.21875 3.640625,3 3.78125,3 3.828125,3 3.890625,2.96875 3.890625,2.90625 Z m 0,0"
           id="path95"
           style="stroke-width:0.593814" />
      </g>
    </g>
    <g
       fill="#000000"
       fill-opacity="1"
       id="g9"
       transform="matrix(1.33334,0,0,1.33334,-4.21984,-2.65367)"
       style="stroke-width:0.593814">
      <g
         id="use8"
         transform="translate(6.5450001,10.959)"
         style="stroke-width:0.593814">
        <path
           d="M 4.375,-7.34375 C 4.484375,-7.796875 4.53125,-7.8125 5,-7.8125 h 1.546875 c 1.359375,0 1.359375,1.140625 1.359375,1.25 0,0.96875 -0.96875,2.203125 -2.546875,2.203125 h -1.71875 z m 2.015625,3.078125 C 7.703125,-4.5 8.875,-5.421875 8.875,-6.515625 8.875,-7.453125 8.0625,-8.15625 6.703125,-8.15625 H 2.875 c -0.234375,0 -0.34375,0 -0.34375,0.21875 0,0.125 0.109375,0.125 0.296875,0.125 0.71875,0 0.71875,0.09375 0.71875,0.21875 0,0.03125 0,0.09375 -0.046875,0.28125 L 1.890625,-0.890625 C 1.78125,-0.46875 1.75,-0.34375 0.921875,-0.34375 c -0.234375,0 -0.34375,0 -0.34375,0.21875 0,0.125 0.0625,0.125 0.3125,0.125 h 4.09375 C 6.8125,0 8.21875,-1.390625 8.21875,-2.59375 c 0,-0.984375 -0.859375,-1.578125 -1.828125,-1.671875 z m -1.6875,3.921875 h -1.625 c -0.15625,0 -0.1875,0 -0.25,-0.015625 -0.140625,-0.015625 -0.15625,-0.03125 -0.15625,-0.125 0,-0.09375 0.03125,-0.15625 0.046875,-0.265625 L 3.5625,-4.125 h 2.25 c 1.40625,0 1.40625,1.3125 1.40625,1.40625 0,1.15625 -1.03125,2.375 -2.515625,2.375 z m 0,0"
           id="path96"
           style="stroke-width:0.593814" />
      </g>
    </g>
    <g
       fill="#000000"
       fill-opacity="1"
       id="g10"
       transform="matrix(1.33334,0,0,1.33334,-4.21984,-2.65367)"
       style="stroke-width:0.593814">
      <g
         id="use9"
         transform="translate(16.036234,10.959)"
         style="stroke-width:0.593814">
        <path
           d="M 8.9375,-7.296875 C 9.046875,-7.703125 9.078125,-7.8125 9.921875,-7.8125 c 0.21875,0 0.328125,0 0.328125,-0.21875 0,-0.125 -0.109375,-0.125 -0.171875,-0.125 -0.21875,0 -0.46875,0.015625 -0.6875,0.015625 H 7.96875 C 7.75,-8.140625 7.5,-8.15625 7.265625,-8.15625 c -0.078125,0 -0.21875,0 -0.21875,0.21875 0,0.125 0.078125,0.125 0.296875,0.125 0.71875,0 0.71875,0.09375 0.71875,0.21875 0,0.03125 0,0.09375 -0.046875,0.28125 l -0.71875,2.890625 H 3.6875 l 0.71875,-2.875 C 4.5,-7.703125 4.53125,-7.8125 5.375,-7.8125 c 0.21875,0 0.34375,0 0.34375,-0.21875 0,-0.125 -0.109375,-0.125 -0.1875,-0.125 -0.21875,0 -0.46875,0.015625 -0.6875,0.015625 H 3.4375 c -0.234375,0 -0.484375,-0.015625 -0.71875,-0.015625 -0.078125,0 -0.21875,0 -0.21875,0.21875 0,0.125 0.078125,0.125 0.3125,0.125 0.71875,0 0.71875,0.09375 0.71875,0.21875 0,0.03125 0,0.09375 -0.046875,0.28125 l -1.625,6.421875 C 1.75,-0.46875 1.734375,-0.34375 0.90625,-0.34375 c -0.265625,0 -0.359375,0 -0.359375,0.21875 C 0.546875,0 0.6875,0 0.71875,0 0.9375,0 1.1875,-0.03125 1.40625,-0.03125 H 2.828125 C 3.046875,-0.03125 3.296875,0 3.53125,0 3.625,0 3.75,0 3.75,-0.234375 3.75,-0.34375 3.640625,-0.34375 3.46875,-0.34375 c -0.734375,0 -0.734375,-0.09375 -0.734375,-0.21875 0,-0.015625 0,-0.09375 0.03125,-0.1875 l 0.8125,-3.328125 h 3.625 C 7,-3.28125 6.390625,-0.78125 6.375,-0.71875 c -0.140625,0.359375 -0.328125,0.359375 -1.03125,0.375 -0.140625,0 -0.25,0 -0.25,0.21875 C 5.09375,0 5.21875,0 5.265625,0 5.46875,0 5.71875,-0.03125 5.953125,-0.03125 h 1.40625 C 7.59375,-0.03125 7.84375,0 8.0625,0 c 0.09375,0 0.234375,0 0.234375,-0.234375 0,-0.109375 -0.109375,-0.109375 -0.28125,-0.109375 -0.734375,0 -0.734375,-0.09375 -0.734375,-0.21875 0,-0.015625 0,-0.09375 0.015625,-0.1875 z m 0,0"
           id="path97"
           style="stroke-width:0.593814" />
      </g>
    </g>
    <g
       fill="#000000"
       fill-opacity="1"
       id="g98"
       transform="matrix(1.33334,0,0,1.33334,-4.21984,-2.65367)"
       style="stroke-width:0.593814">
      <g
         id="use10"
         transform="translate(26.664,10.959)"
         style="stroke-width:0.593814">
        <path
           d="M 3.375,-2.96875 C 3.375,-3.890625 3.25,-5.359375 2.578125,-6.75 1.875,-8.1875 0.890625,-8.96875 0.765625,-8.96875 c -0.046875,0 -0.109375,0.03125 -0.109375,0.09375 0,0.046875 0,0.0625 0.203125,0.265625 1.203125,1.203125 1.859375,3.1875 1.859375,5.625 0,2.3125 -0.5625,4.3125 -1.9375,5.71875 C 0.65625,2.84375 0.65625,2.875 0.65625,2.90625 0.65625,2.96875 0.71875,3 0.765625,3 0.921875,3 1.90625,2.140625 2.484375,0.96875 3.09375,-0.25 3.375,-1.546875 3.375,-2.96875 Z m 0,0"
           id="path98"
           style="stroke-width:0.593814" />
      </g>
    </g>
    <g
       fill="#000000"
       fill-opacity="1"
       id="g13"
       transform="matrix(1.33334,0,0,1.33334,-4.21984,-2.65367)"
       style="stroke-width:0.593814">
      <g
         id="use11"
         transform="translate(31.216,12.752)"
         style="stroke-width:0.593814">
        <path
           d="m 6.21875,-2.421875 c 0,-0.640625 -0.28125,-1.09375 -1.140625,-1.09375 -0.734375,0 -1.109375,0.5 -1.234375,0.734375 C 3.703125,-3.359375 3.25,-3.515625 2.734375,-3.515625 c -0.78125,0 -1.140625,0.546875 -1.25,0.765625 v -0.765625 l -1.15625,0.09375 v 0.265625 c 0.546875,0 0.609375,0.046875 0.609375,0.4375 V -0.625 c 0,0.359375 -0.09375,0.359375 -0.609375,0.359375 V 0 c 0.34375,-0.03125 0.6875,-0.03125 0.90625,-0.03125 0.234375,0 0.5625,0 0.90625,0.03125 v -0.265625 c -0.5,0 -0.609375,0 -0.609375,-0.359375 v -1.4375 c 0,-0.84375 0.640625,-1.234375 1.140625,-1.234375 0.515625,0 0.609375,0.40625 0.609375,0.84375 V -0.625 c 0,0.359375 -0.109375,0.359375 -0.609375,0.359375 V 0 c 0.34375,-0.03125 0.6875,-0.03125 0.90625,-0.03125 0.234375,0 0.5625,0 0.90625,0.03125 v -0.265625 c -0.515625,0 -0.609375,0 -0.609375,-0.359375 v -1.4375 c 0,-0.84375 0.640625,-1.234375 1.140625,-1.234375 0.515625,0 0.609375,0.40625 0.609375,0.84375 V -0.625 c 0,0.359375 -0.109375,0.359375 -0.609375,0.359375 V 0 c 0.34375,-0.03125 0.6875,-0.03125 0.90625,-0.03125 0.234375,0 0.5625,0 0.90625,0.03125 v -0.265625 c -0.515625,0 -0.609375,0 -0.609375,-0.359375 z m 0,0"
           id="path99"
           style="stroke-width:0.593814" />
      </g>
      <g
         id="use12"
         transform="translate(38.272728,12.752)"
         style="stroke-width:0.593814">
        <path
           d="m 3.34375,-2.375 c 0,-0.78125 -0.75,-1.171875 -1.484375,-1.171875 -0.65625,0 -1.25,0.25 -1.25,0.78125 0,0.234375 0.171875,0.375 0.375,0.375 0.234375,0 0.375,-0.15625 0.375,-0.375 0,-0.1875 -0.109375,-0.328125 -0.296875,-0.359375 0.296875,-0.203125 0.734375,-0.203125 0.78125,-0.203125 0.453125,0 0.890625,0.3125 0.890625,0.96875 V -2.125 C 2.28125,-2.09375 1.75,-2.078125 1.1875,-1.84375 c -0.703125,0.3125 -0.84375,0.765625 -0.84375,1.03125 0,0.6875 0.8125,0.890625 1.359375,0.890625 0.578125,0 0.9375,-0.328125 1.125,-0.640625 0.03125,0.296875 0.234375,0.609375 0.59375,0.609375 0.078125,0 0.75,-0.03125 0.75,-0.765625 v -0.4375 h -0.25 v 0.4375 c 0,0.328125 -0.109375,0.453125 -0.28125,0.453125 -0.296875,0 -0.296875,-0.359375 -0.296875,-0.453125 z m -0.609375,1.25 c 0,0.78125 -0.640625,0.984375 -0.96875,0.984375 C 1.359375,-0.140625 1,-0.421875 1,-0.8125 1,-1.328125 1.5,-1.875 2.734375,-1.90625 Z m 0,0"
           id="path18"
           style="stroke-width:0.593814" />
      </g>
      <g
         id="use13"
         transform="translate(42.50724,12.752)"
         style="stroke-width:0.593814">
        <path
           d="m 2.453125,-1.859375 c 0.21875,-0.28125 0.453125,-0.5625 0.6875,-0.8125 0.265625,-0.28125 0.546875,-0.484375 1.046875,-0.5 V -3.4375 C 3.875,-3.40625 3.859375,-3.40625 3.5,-3.40625 c -0.03125,0 -0.5,0 -0.75,-0.03125 v 0.265625 c 0.15625,0.015625 0.1875,0.109375 0.1875,0.21875 0,0.09375 -0.046875,0.203125 -0.140625,0.3125 l -0.5,0.578125 -0.625,-0.75 C 1.5625,-2.921875 1.5625,-2.96875 1.5625,-2.984375 c 0,-0.0625 0.0625,-0.171875 0.25,-0.1875 V -3.4375 C 1.5,-3.40625 1.046875,-3.40625 0.96875,-3.40625 c -0.140625,0 -0.546875,0 -0.796875,-0.03125 v 0.265625 c 0.546875,0 0.546875,0.015625 0.96875,0.5 l 0.8125,0.984375 -0.71875,0.859375 c -0.203125,0.21875 -0.5,0.546875 -1.09375,0.5625 V 0 c 0.296875,-0.03125 0.34375,-0.03125 0.6875,-0.03125 0.015625,0 0.5,0 0.75,0.03125 v -0.265625 c -0.109375,-0.015625 -0.1875,-0.0625 -0.1875,-0.21875 0,-0.140625 0.09375,-0.25 0.109375,-0.28125 0.203125,-0.25 0.421875,-0.484375 0.625,-0.71875 l 0.65625,0.78125 c 0.15625,0.1875 0.15625,0.203125 0.15625,0.25 0,0.078125 -0.046875,0.1875 -0.25,0.1875 V 0 c 0.34375,-0.03125 0.703125,-0.03125 0.859375,-0.03125 0.140625,0 0.546875,0 0.78125,0.03125 v -0.265625 c -0.484375,0 -0.5625,-0.03125 -0.78125,-0.28125 z m 0,0"
           id="path19"
           style="stroke-width:0.593814" />
      </g>
    </g>
  </g>
</svg>
