<?xml version="1.0" encoding="UTF-8" standalone="no"?>
<!-- Created with Inkscape (http://www.inkscape.org/) -->

<svg
   width="710.73376"
   height="500.323"
   id="svg2"
   sodipodi:version="0.32"
   inkscape:version="1.3.2 (091e20e, 2023-11-25, custom)"
   sodipodi:docname="Transformer3d_col3.svg"
   inkscape:export-filename="C:\Program Files\Inkscape\transformer3d.png"
   inkscape:export-xdpi="90.000000"
   inkscape:export-ydpi="90.000000"
   version="1.0"
   inkscape:output_extension="org.inkscape.output.svg.inkscape"
   xmlns:inkscape="http://www.inkscape.org/namespaces/inkscape"
   xmlns:sodipodi="http://sodipodi.sourceforge.net/DTD/sodipodi-0.dtd"
   xmlns="http://www.w3.org/2000/svg"
   xmlns:svg="http://www.w3.org/2000/svg"
   xmlns:rdf="http://www.w3.org/1999/02/22-rdf-syntax-ns#"
   xmlns:cc="http://creativecommons.org/ns#"
   xmlns:dc="http://purl.org/dc/elements/1.1/">
  <sodipodi:namedview
     id="base"
     pagecolor="#ffffff"
     bordercolor="#666666"
     borderopacity="1.0"
     inkscape:pageopacity="1"
     inkscape:pageshadow="2"
     inkscape:zoom="1.7644436"
     inkscape:cx="250.50391"
     inkscape:cy="350.53544"
     inkscape:document-units="px"
     inkscape:current-layer="layer1"
     inkscape:window-width="2560"
     inkscape:window-height="1351"
     inkscape:window-x="-9"
     inkscape:window-y="-9"
     showguides="true"
     inkscape:guide-bbox="true"
     inkscape:showpageshadow="true"
     inkscape:pagecheckerboard="0"
     inkscape:deskcolor="#505050"
     inkscape:window-maximized="1" />
  <defs
     id="defs4">
    <marker
       style="overflow:visible"
       id="Triangle"
       refX="0"
       refY="0"
       orient="auto-start-reverse"
       inkscape:stockid="Triangle arrow"
       markerWidth="1"
       markerHeight="1"
       viewBox="0 0 1 1"
       inkscape:isstock="true"
       inkscape:collect="always"
       preserveAspectRatio="xMidYMid">
      <path
         transform="scale(0.5)"
         style="fill:context-stroke;fill-rule:evenodd;stroke:context-stroke;stroke-width:1pt"
         d="M 5.77,0 -2.88,5 V -5 Z"
         id="path135" />
    </marker>
    <inkscape:perspective
       sodipodi:type="inkscape:persp3d"
       inkscape:vp_x="-13.059873 : 229.2578 : 1"
       inkscape:vp_y="0 : 1000 : 0"
       inkscape:vp_z="749.76069 : 229.2578 : 1"
       inkscape:persp3d-origin="368.35041 : 133.82653 : 1"
       id="perspective38" />
    <marker
       inkscape:stockid="Arrow2Lstart"
       orient="auto"
       refY="0"
       refX="0"
       id="Arrow2Lstart"
       style="overflow:visible">
      <path
         id="path12689"
         style="font-size:12px;fill-rule:evenodd;stroke-width:0.625;stroke-linejoin:round"
         d="M 8.7185878,4.0337352 -2.2072895,0.01601326 8.7185884,-4.0017078 c -1.7454984,2.3720609 -1.7354408,5.6174519 -6e-7,8.035443 z"
         transform="matrix(1.1,0,0,1.1,-5.5,0)" />
    </marker>
    <marker
       inkscape:stockid="Arrow1Lend"
       orient="auto"
       refY="0"
       refX="0"
       id="Arrow1Lend"
       style="overflow:visible">
      <path
         id="path12704"
         d="M 0,0 5,-5 -12.5,0 5,5 Z"
         style="fill-rule:evenodd;stroke:#000000;stroke-width:1pt;marker-start:none"
         transform="scale(-0.8)" />
    </marker>
    <marker
       inkscape:stockid="Arrow2Send"
       orient="auto"
       refY="0"
       refX="0"
       id="Arrow2Send"
       style="overflow:visible">
      <path
         sodipodi:nodetypes="cccc"
         id="path13294"
         style="font-size:12px;fill-rule:evenodd;stroke-width:0.625;stroke-linejoin:round"
         d="M 8.7185878,4.0337352 -2.2072895,0.01601326 8.7185884,-4.0017078 c -1.7454984,2.3720609 -1.7354408,5.6174519 -6e-7,8.035443 z"
         transform="matrix(-0.3,0,0,-0.3,1.5,0)" />
    </marker>
    <marker
       inkscape:stockid="Arrow2Mend"
       orient="auto"
       refY="0"
       refX="0"
       id="Arrow2Mend"
       style="overflow:visible">
      <path
         sodipodi:nodetypes="cccc"
         id="path13297"
         style="font-size:12px;fill-rule:evenodd;stroke-width:0.625;stroke-linejoin:round"
         d="M 8.7185878,4.0337352 -2.2072895,0.01601326 8.7185884,-4.0017078 c -1.7454984,2.3720609 -1.7354408,5.6174519 -6e-7,8.035443 z"
         transform="matrix(-0.6,0,0,-0.6,3,0)" />
    </marker>
    <marker
       inkscape:stockid="Arrow2Lend"
       orient="auto"
       refY="0"
       refX="0"
       id="Arrow2Lend"
       style="overflow:visible">
      <path
         sodipodi:nodetypes="cccc"
         id="path13300"
         style="font-size:12px;fill-rule:evenodd;stroke-width:0.625;stroke-linejoin:round"
         d="M 8.7185878,4.0337352 -2.2072895,0.01601326 8.7185884,-4.0017078 c -1.7454984,2.3720609 -1.7354408,5.6174519 -6e-7,8.035443 z"
         transform="matrix(-1.1,0,0,-1.1,5.5,0)" />
    </marker>
    <marker
       style="overflow:visible"
       id="Triangle-2"
       refX="0"
       refY="0"
       orient="auto-start-reverse"
       inkscape:stockid="Triangle arrow"
       markerWidth="1"
       markerHeight="1"
       viewBox="0 0 1 1"
       inkscape:isstock="true"
       inkscape:collect="always"
       preserveAspectRatio="xMidYMid">
      <path
         transform="scale(0.5)"
         style="fill:context-stroke;fill-rule:evenodd;stroke:context-stroke;stroke-width:1pt"
         d="M 5.77,0 -2.88,5 V -5 Z"
         id="path135-0" />
    </marker>
    <marker
       style="overflow:visible"
       id="Triangle-2-6"
       refX="0"
       refY="0"
       orient="auto-start-reverse"
       inkscape:stockid="Triangle arrow"
       markerWidth="1"
       markerHeight="1"
       viewBox="0 0 1 1"
       inkscape:isstock="true"
       inkscape:collect="always"
       preserveAspectRatio="xMidYMid">
      <path
         transform="scale(0.5)"
         style="fill:context-stroke;fill-rule:evenodd;stroke:context-stroke;stroke-width:1pt"
         d="M 5.77,0 -2.88,5 V -5 Z"
         id="path135-0-5" />
    </marker>
    <marker
       style="overflow:visible"
       id="Triangle-2-6-0"
       refX="0"
       refY="0"
       orient="auto-start-reverse"
       inkscape:stockid="Triangle arrow"
       markerWidth="1"
       markerHeight="1"
       viewBox="0 0 1 1"
       inkscape:isstock="true"
       inkscape:collect="always"
       preserveAspectRatio="xMidYMid">
      <path
         transform="scale(0.5)"
         style="fill:context-stroke;fill-rule:evenodd;stroke:context-stroke;stroke-width:1pt"
         d="M 5.77,0 -2.88,5 V -5 Z"
         id="path135-0-5-0" />
    </marker>
    <marker
       style="overflow:visible"
       id="Triangle-2-6-2"
       refX="0"
       refY="0"
       orient="auto-start-reverse"
       inkscape:stockid="Triangle arrow"
       markerWidth="1"
       markerHeight="1"
       viewBox="0 0 1 1"
       inkscape:isstock="true"
       inkscape:collect="always"
       preserveAspectRatio="xMidYMid">
      <path
         transform="scale(0.5)"
         style="fill:context-stroke;fill-rule:evenodd;stroke:context-stroke;stroke-width:1pt"
         d="M 5.77,0 -2.88,5 V -5 Z"
         id="path135-0-5-2" />
    </marker>
    <marker
       style="overflow:visible"
       id="Triangle-2-6-0-1"
       refX="0"
       refY="0"
       orient="auto-start-reverse"
       inkscape:stockid="Triangle arrow"
       markerWidth="1"
       markerHeight="1"
       viewBox="0 0 1 1"
       inkscape:isstock="true"
       inkscape:collect="always"
       preserveAspectRatio="xMidYMid">
      <path
         transform="scale(0.5)"
         style="fill:context-stroke;fill-rule:evenodd;stroke:context-stroke;stroke-width:1pt"
         d="M 5.77,0 -2.88,5 V -5 Z"
         id="path135-0-5-0-1" />
    </marker>
    <marker
       style="overflow:visible"
       id="Triangle-1"
       refX="0"
       refY="0"
       orient="auto-start-reverse"
       inkscape:stockid="Triangle arrow"
       markerWidth="1"
       markerHeight="1"
       viewBox="0 0 1 1"
       inkscape:isstock="true"
       inkscape:collect="always"
       preserveAspectRatio="xMidYMid">
      <path
         transform="scale(0.5)"
         style="fill:context-stroke;fill-rule:evenodd;stroke:context-stroke;stroke-width:1pt"
         d="M 5.77,0 -2.88,5 V -5 Z"
         id="path135-4" />
    </marker>
    <marker
       style="overflow:visible"
       id="Triangle-1-3"
       refX="0"
       refY="0"
       orient="auto-start-reverse"
       inkscape:stockid="Triangle arrow"
       markerWidth="1"
       markerHeight="1"
       viewBox="0 0 1 1"
       inkscape:isstock="true"
       inkscape:collect="always"
       preserveAspectRatio="xMidYMid">
      <path
         transform="scale(0.5)"
         style="fill:context-stroke;fill-rule:evenodd;stroke:context-stroke;stroke-width:1pt"
         d="M 5.77,0 -2.88,5 V -5 Z"
         id="path135-4-2" />
    </marker>
  </defs>
  <metadata
     id="metadata7">
    <rdf:RDF>
      <cc:Work
         rdf:about="">
        <dc:format>image/svg+xml</dc:format>
        <dc:type
           rdf:resource="http://purl.org/dc/dcmitype/StillImage" />
      </cc:Work>
    </rdf:RDF>
  </metadata>
  <g
     inkscape:label="Layer 1"
     inkscape:groupmode="layer"
     id="layer1"
     transform="translate(-22,-20)">
    <g
       id="g4919"
       transform="translate(-0.097591,-14.75081)"
       style="fill:#ff3232;fill-opacity:1;stroke:#ff3232;stroke-opacity:1">
      <path
         sodipodi:nodetypes="cc"
         d="m 48.618098,175.04535 48.868922,5.21844"
         style="fill:#ff3232;fill-opacity:1;fill-rule:evenodd;stroke:#ff3232;stroke-width:1.8;stroke-linecap:butt;stroke-linejoin:miter;stroke-miterlimit:4;stroke-dasharray:none;stroke-opacity:1;marker-start:none;marker-end:none"
         id="path9913" />
      <path
         style="fill:#ff3232;fill-opacity:1;fill-rule:evenodd;stroke:#ff3232;stroke-width:1px;stroke-linecap:butt;stroke-linejoin:miter;stroke-opacity:1"
         d="m 107.40279,181.17478 -10.37224,-4.67732 -0.79574,6.85371 z"
         id="path4036" />
    </g>
    <path
       style="fill:#8a98a2;fill-opacity:1;stroke:#141414;stroke-width:2;stroke-linecap:butt;stroke-linejoin:round;stroke-miterlimit:4;stroke-dashoffset:0;stroke-opacity:1"
       d="m 203.19932,36.435243 -9.6875,8.788753 V 421.00524 c 0,5.36719 4.3203,10.08831 9.6875,10.58624 l 374.90625,34.78148 c 5.36719,0.49793 9.68753,-3.42158 9.6875,-8.78876 V 79.80296 c 0,-5.367187 -4.3203,-10.088308 -9.6875,-10.586243 L 210.59122,35.121018 c -4.29789,-0.609879 -5.7139,0.09018 -7.3919,1.314225 z m 78.28125,70.824947 218.34375,20.25657 c 5.36718,0.49793 9.6875,5.21906 9.6875,10.58625 v 246.65625 c 2e-5,5.36718 -4.32031,9.28668 -9.6875,8.78875 L 281.48057,373.29143 c -5.3672,-0.49791 -9.6875,-5.21905 -9.6875,-10.58624 V 116.04894 c 0,-5.36719 4.32031,-9.28668 9.6875,-8.78875 z"
       id="path2408"
       sodipodi:nodetypes="ccccccccccccccccccc" />
    <path
       style="fill:#acb6be;fill-opacity:1;stroke:#000000;stroke-width:1.8;stroke-linecap:square;stroke-linejoin:round;stroke-miterlimit:4;stroke-dashoffset:0;stroke-opacity:1"
       d="m 578.94282,70.410556 -44.05744,42.719604 -382.59,-31.51145 44.89563,-39.764328 c 1.26969,-1.01461 6.65422,-5.961798 7.62116,-6.268478"
       id="rect6041"
       sodipodi:nodetypes="ccccc" />
    <rect
       style="opacity:1;fill:#8a98a2;fill-opacity:1;stroke:#000000;stroke-width:2.12654;stroke-linecap:butt;stroke-linejoin:miter;stroke-miterlimit:4;stroke-dasharray:none;stroke-dashoffset:0;stroke-opacity:1"
       id="rect3408"
       width="61.302853"
       height="385.09048"
       x="759.30463"
       y="649.86658"
       rx="0.59899068"
       ry="30.6513"
       transform="matrix(0.7164739,-0.6976139,0,1,0,0)" />
    <path
       style="opacity:1;fill:#acb6be;fill-opacity:1;stroke:#141414;stroke-width:2;stroke-linecap:butt;stroke-linejoin:round;stroke-miterlimit:4;stroke-dasharray:none;stroke-dashoffset:0;stroke-opacity:1"
       d="m 160.125,78.34363 c -5.36719,-0.497932 -9.6875,3.42156 -9.6875,8.78876 v 377.78125 c 0,5.36719 4.3203,10.08831 9.6875,10.58624 l 374.90625,34.78148 c 5.36719,0.49793 9.68753,-3.42158 9.6875,-8.78876 V 123.71135 c 0,-5.36719 -4.3203,-10.08831 -9.6875,-10.58624 z m 78.28125,72.82495 218.34375,20.25658 c 5.36718,0.49793 9.6875,5.21905 9.6875,10.58624 v 246.65625 c 2e-5,5.36719 -4.32031,9.28669 -9.6875,8.78876 L 238.40625,417.19983 c -5.3672,-0.49791 -9.6875,-5.21906 -9.6875,-10.58625 V 159.95733 c 0,-5.3672 4.32031,-9.28668 9.6875,-8.78875 z"
       id="rect1306"
       sodipodi:nodetypes="cccccccccccccccccc" />
    <g
       id="g21612"
       transform="translate(2,-2)" />
    <path
       style="fill:none;fill-opacity:0.75;fill-rule:evenodd;stroke:#000000;stroke-width:1px;stroke-linecap:butt;stroke-linejoin:miter;stroke-opacity:1"
       d="m 656.48235,225.95772 -0.0908,180.91239"
       id="path24729"
       sodipodi:nodetypes="cc" />
    <text
       xml:space="preserve"
       style="font-style:normal;font-variant:normal;font-weight:bold;font-stretch:normal;font-size:24px;line-height:0%;font-family:'Bitstream Vera Sans';text-align:center;writing-mode:lr-tb;text-anchor:middle;fill:#ff3232;fill-opacity:1;stroke:none;stroke-width:1px;stroke-linecap:butt;stroke-linejoin:miter;stroke-opacity:1"
       x="84.687202"
       y="62.321373"
       id="text6325"><tspan
         sodipodi:role="line"
         id="tspan6327"
         x="84.687202"
         y="62.321373"
         style="font-style:normal;font-variant:normal;font-weight:normal;font-stretch:normal;font-size:24px;line-height:1.05;font-family:sans-serif;-inkscape-font-specification:sans-serif">Primary</tspan><tspan
         sodipodi:role="line"
         x="84.687202"
         y="87.52137"
         id="tspan6329"
         style="font-style:normal;font-variant:normal;font-weight:normal;font-stretch:normal;font-size:24px;line-height:1.05;font-family:sans-serif;-inkscape-font-specification:sans-serif">winding</tspan></text>
    <text
       id="text3305"
       y="116.20665"
       x="65.986839"
       style="font-style:normal;font-variant:normal;font-weight:normal;font-stretch:normal;line-height:0%;font-family:'Bitstream Vera Sans';text-align:start;writing-mode:lr-tb;text-anchor:start;fill:#000000;fill-opacity:1;stroke:none;stroke-width:1px;stroke-linecap:butt;stroke-linejoin:miter;stroke-opacity:1"
       xml:space="preserve"><tspan
         id="tspan3307"
         y="116.20665"
         x="65.986839"
         sodipodi:role="line"
         style="font-style:normal;font-variant:normal;font-weight:normal;font-stretch:normal;font-size:24px;line-height:1.25;font-family:sans-serif;-inkscape-font-specification:sans-serif">turns</tspan><tspan
         y="138.908"
         x="65.986839"
         sodipodi:role="line"
         id="tspan3309"
         style="font-style:normal;font-variant:normal;font-weight:normal;font-stretch:normal;font-size:16px;line-height:1.25;font-family:sans-serif;-inkscape-font-specification:sans-serif"> </tspan><tspan
         style="font-style:normal;font-variant:normal;font-weight:normal;font-stretch:normal;font-size:16px;line-height:125%;font-family:sans-serif;-inkscape-font-specification:sans-serif;text-align:start;writing-mode:lr-tb;text-anchor:start"
         id="tspan3311"
         y="158.908"
         x="65.986839"
         sodipodi:role="line"> </tspan></text>
    <g
       id="g1501"
       transform="translate(9.385547,68.363552)">
      <text
         xml:space="preserve"
         style="font-style:normal;font-variant:normal;font-weight:normal;font-stretch:normal;line-height:0%;font-family:'Bitstream Vera Sans';text-align:start;writing-mode:lr-tb;text-anchor:start;fill:#000000;fill-opacity:1;stroke:none;stroke-width:1px;stroke-linecap:butt;stroke-linejoin:miter;stroke-opacity:1"
         x="643.77759"
         y="82.699783"
         id="text3315"><tspan
           sodipodi:role="line"
           x="643.77759"
           y="82.699783"
           id="tspan3317"
           style="font-style:normal;font-variant:normal;font-weight:normal;font-stretch:normal;font-size:24px;line-height:1.25;font-family:sans-serif;-inkscape-font-specification:sans-serif">turns</tspan><tspan
           sodipodi:role="line"
           x="643.77759"
           y="105.40114"
           id="tspan3319"
           style="font-style:normal;font-variant:normal;font-weight:normal;font-stretch:normal;font-size:16px;line-height:1.25;font-family:sans-serif;-inkscape-font-specification:sans-serif"> </tspan><tspan
           sodipodi:role="line"
           x="643.77759"
           y="125.40114"
           id="tspan3321"
           style="font-style:normal;font-variant:normal;font-weight:normal;font-stretch:normal;font-size:16px;line-height:125%;font-family:sans-serif;-inkscape-font-specification:sans-serif;text-align:start;writing-mode:lr-tb;text-anchor:start"> </tspan></text>
    </g>
    <flowRoot
       xml:space="preserve"
       id="flowRoot1527"
       transform="translate(22,-2)"
       style="line-height:0.01%"><flowRegion
         id="flowRegion1529" /><flowPara
         id="flowPara1533"
         style="font-size:12px;line-height:1.25"> </flowPara></flowRoot>
    <text
       xml:space="preserve"
       style="font-style:italic;font-variant:normal;font-weight:bold;font-stretch:normal;line-height:0%;font-family:'Times New Roman';text-align:start;writing-mode:lr-tb;text-anchor:start;fill:#00a000;fill-opacity:1;stroke:none;stroke-width:1px;stroke-linecap:butt;stroke-linejoin:miter;stroke-opacity:1"
       x="375.32993"
       y="109.82202"
       id="text1523"
       transform="skewY(5.7285755)"><tspan
         sodipodi:role="line"
         id="tspan1525"
         x="375.32993"
         y="109.82202"
         style="font-size:23.5904px;line-height:1.25"> </tspan></text>
    <path
       style="fill:none;fill-opacity:0.75;fill-rule:evenodd;stroke:#3232ff;stroke-width:5;stroke-linecap:butt;stroke-linejoin:round;stroke-miterlimit:4;stroke-opacity:1"
       d="M 690.59556,424.6195 587.68201,415.12489"
       id="path2570" />
    <text
       id="text35645"
       y="92.90152"
       x="670.06189"
       style="font-style:normal;font-variant:normal;font-weight:bold;font-stretch:normal;font-size:24px;line-height:0%;font-family:'Bitstream Vera Sans';text-align:center;writing-mode:lr-tb;text-anchor:middle;fill:#3232ff;fill-opacity:1;stroke:none;stroke-width:1px;stroke-linecap:butt;stroke-linejoin:miter;stroke-opacity:1"
       xml:space="preserve"><tspan
         sodipodi:role="line"
         id="tspan35651"
         x="670.06189"
         y="92.90152"
         style="font-style:normal;font-variant:normal;font-weight:normal;font-stretch:normal;font-size:24px;line-height:1.25;font-family:sans-serif;-inkscape-font-specification:sans-serif">Secondary</tspan><tspan
         sodipodi:role="line"
         id="tspan35653"
         x="670.06189"
         y="120.50152"
         style="font-style:normal;font-variant:normal;font-weight:normal;font-stretch:normal;font-size:24px;line-height:1.05;font-family:sans-serif;-inkscape-font-specification:sans-serif">winding</tspan></text>
    <g
       id="g4923"
       transform="matrix(1.1105457,-0.02980523,0.018828,1.7580234,540.66591,-99.879071)"
       style="fill:#3232ff;fill-opacity:1;stroke:#3232ff;stroke-width:0.715578;stroke-dasharray:none;stroke-opacity:1">
      <path
         id="path4925"
         style="fill:#3232ff;fill-opacity:1;fill-rule:evenodd;stroke:#3232ff;stroke-width:0.715578;stroke-linecap:butt;stroke-linejoin:miter;stroke-miterlimit:4;stroke-dasharray:none;stroke-opacity:1;marker-start:none;marker-end:none"
         d="m 48.618098,175.04535 48.868922,5.21844"
         sodipodi:nodetypes="cc" />
      <path
         id="path4927"
         d="m 109.01612,180.90389 -11.43208,-4.47764 -1.34923,6.92492 z"
         style="fill:#3232ff;fill-opacity:1;fill-rule:evenodd;stroke:#3232ff;stroke-width:0.715578;stroke-linecap:butt;stroke-linejoin:miter;stroke-dasharray:none;stroke-opacity:1"
         sodipodi:nodetypes="cccc" />
    </g>
    <g
       id="g1973"
       transform="rotate(180,73.1415,274.71125)">
      <path
         sodipodi:nodetypes="cc"
         id="path1975"
         d="M 73.328032,376.77506 73.08975,199.92483"
         style="fill:none;fill-opacity:0.75;fill-rule:evenodd;stroke:#000000;stroke-width:1px;stroke-linecap:butt;stroke-linejoin:miter;stroke-opacity:1;marker-end:none" />
      <path
         style="fill:#000000;fill-opacity:1;fill-rule:evenodd;stroke:none;stroke-width:1px;stroke-linecap:butt;stroke-linejoin:miter;stroke-opacity:1"
         d="m 73.186635,192.37769 -3.449875,10.84246 h 6.89975 z"
         id="path1977" />
    </g>
    <path
       style="fill:#000000;fill-opacity:1;fill-rule:evenodd;stroke:none;stroke-width:1px;stroke-linecap:butt;stroke-linejoin:miter;stroke-opacity:1"
       d="m 656.48236,416.322 3.44987,-10.84246 h -6.89975 z"
       id="path1985" />
    <path
       style="fill:none;fill-opacity:1;fill-rule:evenodd;stroke:#ff3232;stroke-width:2.1;stroke-dasharray:6.3, 6.3;stroke-dashoffset:0;stroke-opacity:1"
       d="m 210.26719,133.71532 75.92705,6.88863 -0.89608,296.43774 -75.03097,-6.75469 z"
       id="path44"
       sodipodi:nodetypes="ccccc" />
    <path
       style="fill:none;fill-opacity:1;fill-rule:evenodd;stroke:#7deda2;stroke-width:2.1;stroke-dasharray:6.3, 6.3;stroke-dashoffset:0;stroke-opacity:1"
       d="m 192.51182,119.72397 305.20537,26.53218 -0.48284,326.04333 -300.53914,-28.33445 z"
       id="path44-9"
       sodipodi:nodetypes="ccccc" />
    <path
       style="fill:none;fill-opacity:1;fill-rule:evenodd;stroke:#19c753;stroke-width:2.1;stroke-dasharray:6.3, 6.3;stroke-dashoffset:0;stroke-opacity:1"
       d="m 170.45984,99.69098 349.32503,29.54748 -0.55264,363.09728 -343.98426,-31.55458 z"
       id="path44-9-2"
       sodipodi:nodetypes="ccccc" />
    <path
       style="fill:none;fill-opacity:1;fill-rule:evenodd;stroke:#3232ff;stroke-width:2.1;stroke-dasharray:6.3, 6.3;stroke-dashoffset:0;stroke-opacity:1"
       d="m 433.59238,155.58338 49.04185,4.36892 -0.57642,292.54981 -48.87383,-4.33599 z"
       id="path44-0"
       sodipodi:nodetypes="ccccc" />
    <path
       id="path6163"
       style="fill:none;fill-opacity:0.75;fill-rule:evenodd;stroke:#ff3232;stroke-width:2;stroke-linecap:butt;stroke-linejoin:round;stroke-miterlimit:4;stroke-opacity:1;marker-end:none"
       d="m 269.06406,154.09094 c -5.50027,5.55211 -13.67469,13.19859 -19.65894,18.8369 -10.46257,9.85774 -20.21907,21.13008 -23.03848,20.84224 l -68.42529,-6.83829 -9.50286,-0.93358 c -1.8482,-1.19591 -1.19315,-7.89449 1.56472,-8.01438 m 121.16837,-16.53904 c 1.87614,0.26649 3.70946,0.6195 3.70946,0.6195 2.14397,0.20963 -15.01336,16.20582 -25.47592,26.06356 -10.46257,9.85774 -20.21907,21.13008 -23.03848,20.84224 l -68.42529,-6.83829 -9.50286,-0.93358 c -1.8482,-1.19591 -1.19315,-7.89449 1.56472,-8.01438 m 121.16837,-16.53903 c 1.87614,0.26649 3.70946,0.6195 3.70946,0.6195 2.14397,0.20963 -15.01336,16.20582 -25.47592,26.06356 -10.46257,9.85774 -20.21907,21.13008 -23.03848,20.84224 l -68.42529,-6.83829 -9.50286,-0.93358 c -1.8482,-1.19591 -1.19315,-7.89449 1.56472,-8.01438 m 121.16837,-16.53904 c 1.87614,0.26649 3.70946,0.6195 3.70946,0.6195 2.14397,0.20963 -15.01336,16.20582 -25.47592,26.06356 -10.46257,9.85774 -20.21907,21.13008 -23.03848,20.84224 l -68.42529,-6.83829 -9.50286,-0.93358 c -1.8482,-1.19591 -1.19315,-7.89449 1.56472,-8.01438 m 121.16837,-16.53904 c 1.87614,0.26649 3.70946,0.6195 3.70946,0.6195 2.14397,0.20963 -15.01336,16.20582 -25.47592,26.06356 -10.46257,9.85774 -20.21907,21.13008 -23.03848,20.84224 l -68.42529,-6.83829 -9.50286,-0.93358 c -1.8482,-1.19591 -1.19315,-7.89449 1.56472,-8.01438 m 121.16837,-16.53905 c 1.87614,0.26649 3.70946,0.6195 3.70946,0.6195 2.14397,0.20963 -15.01336,16.20582 -25.47592,26.06356 -10.46257,9.85774 -20.21907,21.13008 -23.03848,20.84224 l -68.42529,-6.83829 -9.50286,-0.93358 c -1.8482,-1.19591 -1.19315,-7.89449 1.56472,-8.01438 m 121.16837,-16.53907 c 1.87614,0.26649 3.70946,0.6195 3.70946,0.6195 2.14397,0.20963 -15.01336,16.20582 -25.47592,26.06356 -10.46257,9.85774 -20.21907,21.13008 -23.03848,20.84224 l -68.42529,-6.83829 -9.50286,-0.93358 c -1.8482,-1.19591 -1.19315,-7.89449 1.56472,-8.01438 m 121.16837,-16.53907 c 1.87614,0.26649 3.70946,0.6195 3.70946,0.6195 2.14397,0.20963 -15.01336,16.20582 -25.47592,26.06356 -10.46257,9.85774 -20.21907,21.13008 -23.03848,20.84224 l -68.42529,-6.83829 -9.50286,-0.93358 c -1.8482,-1.19591 -1.19315,-7.89449 1.56472,-8.01438 m 121.16837,-16.53905 c 1.87614,0.26649 3.70946,0.6195 3.70946,0.6195 2.14397,0.20963 -15.01336,16.20582 -25.47592,26.06356 -10.46257,9.85774 -20.21907,21.13008 -23.03848,20.84224 l -68.42529,-6.83829 -9.50286,-0.93358 c -1.8482,-1.19591 -1.19315,-7.89449 1.56472,-8.01438 m 121.16837,-16.53906 c 1.87614,0.26649 3.70946,0.6195 3.70946,0.6195 2.14397,0.20963 -15.01336,16.20582 -25.47592,26.06356 -10.46257,9.85774 -20.21907,21.13008 -23.03848,20.84224 l -68.42529,-6.83829 -9.50286,-0.93358 c -1.8482,-1.19591 -1.19315,-7.89449 1.56472,-8.01438 m 121.16837,-16.53905 c 1.87614,0.26649 3.70946,0.6195 3.70946,0.6195 2.14397,0.20963 -15.01336,16.20582 -25.47592,26.06356 -10.46257,9.85774 -20.21907,21.13008 -23.03848,20.84224 l -68.42529,-6.83829 -9.50286,-0.93358 c -1.8482,-1.19591 -1.19315,-7.89449 1.56472,-8.01438 m 121.16837,-16.53905 c 1.87614,0.26649 3.70946,0.6195 3.70946,0.6195 2.14397,0.20963 -15.01336,16.20582 -25.47592,26.06356 -10.46257,9.85774 -20.21907,21.13008 -23.03848,20.84224 l -68.42529,-6.83829 -9.50286,-0.93358 c -1.8482,-1.19591 -1.19315,-7.89449 1.56472,-8.01438 m 121.16837,-16.53905 c 1.87614,0.26649 3.70946,0.6195 3.70946,0.6195 2.14397,0.20963 -15.01336,16.20582 -25.47592,26.06356 -10.46257,9.85774 -20.21907,21.13008 -23.03848,20.84224 l -68.42529,-6.83829 -9.50286,-0.93358 c -1.8482,-1.19591 -1.19315,-7.89449 1.56472,-8.01438 m 121.16837,-16.53906 c 1.87614,0.26649 3.70946,0.6195 3.70946,0.6195 2.14397,0.20963 -15.01336,16.20582 -25.47592,26.06356 -10.46257,9.85774 -20.21907,21.13008 -23.03848,20.84224 l -68.42529,-6.83829 -9.50286,-0.93358 c -1.8482,-1.19591 -1.19315,-7.89449 1.56472,-8.01438 m 121.16837,-16.53905 c 1.87614,0.26649 3.70946,0.6195 3.70946,0.6195 2.14397,0.20963 -15.01336,16.20582 -25.47592,26.06356 -10.46257,9.85774 -20.21907,21.13008 -23.03848,20.84224 l -68.42529,-6.83829 -9.50286,-0.93358 c -1.8482,-1.19591 -1.19315,-7.89449 1.56472,-8.01438 M 254.62359,152.8137 c -1.83505,1.73032 -3.60624,3.3951 -5.21847,4.91413 -10.46257,9.85774 -20.21907,21.13008 -23.03848,20.84224 L 157.94135,171.73178 48.520507,160.29454 M 150.32859,372.93605 48.52051,362.29454" />
    <path
       style="fill:none;fill-opacity:0.75;fill-rule:evenodd;stroke:#3232ff;stroke-width:5;stroke-linecap:butt;stroke-linejoin:round;stroke-miterlimit:4;stroke-opacity:1"
       d="m 587.80084,264.04011 7.05757,0.8425 c 2.14397,0.20963 -47.7063,49.6406 -50.52571,49.35276 l -70.41398,-7.28525 -10.18373,-1.23619 c -2.60472,-0.13678 -1.49576,-8.04579 2.24559,-7.71177"
       id="path2568" />
    <path
       style="fill:none;fill-opacity:0.75;fill-rule:evenodd;stroke:#3232ff;stroke-width:5;stroke-linecap:butt;stroke-linejoin:round;stroke-miterlimit:4;stroke-opacity:1"
       d="m 587.80084,299.6401 7.05757,0.8425 c 2.14397,0.20963 -47.7063,49.6406 -50.52571,49.35276 l -70.41398,-7.28525 -10.18373,-1.23619 c -2.60472,-0.13678 -1.49576,-8.04579 2.24559,-7.71177"
       id="path2566" />
    <path
       style="fill:none;fill-opacity:0.75;fill-rule:evenodd;stroke:#3232ff;stroke-width:5;stroke-linecap:butt;stroke-linejoin:round;stroke-miterlimit:4;stroke-opacity:1"
       d="m 587.80084,335.24009 7.05757,0.8425 c 2.14397,0.20963 -47.7063,49.6406 -50.52571,49.35276 l -70.41398,-7.28525 -10.18373,-1.23619 c -2.60472,-0.13678 -1.49576,-8.04579 2.24559,-7.71177"
       id="path2564" />
    <path
       style="fill:none;fill-opacity:0.75;fill-rule:evenodd;stroke:#3232ff;stroke-width:5;stroke-linecap:butt;stroke-linejoin:round;stroke-miterlimit:4;stroke-opacity:1"
       d="m 587.80084,370.84008 7.05757,0.8425 c 2.14397,0.20963 -47.7063,49.6406 -50.52571,49.35276 l -70.41398,-7.28525 -10.18373,-1.23619 c -2.60472,-0.13678 -1.49576,-8.04579 2.24559,-7.71177"
       id="path2562" />
    <path
       style="fill:none;fill-opacity:0.75;fill-rule:evenodd;stroke:#3232ff;stroke-width:5;stroke-linecap:butt;stroke-linejoin:round;stroke-miterlimit:4;stroke-opacity:1"
       d="m 681.80946,216.54284 -137.47676,-13.50751 -70.41398,-7.28525 -10.18373,-1.23619 c -2.60472,-0.13678 -1.49576,-8.04579 2.24559,-7.71177"
       id="path2560" />
    <path
       style="fill:none;fill-opacity:0.75;fill-rule:evenodd;stroke:#3232ff;stroke-width:5;stroke-linecap:butt;stroke-linejoin:round;stroke-miterlimit:4;stroke-opacity:1"
       d="m 587.80084,228.4401 7.05757,0.8425 c 2.14397,0.20963 -47.7063,49.6406 -50.52571,49.35276 l -70.41398,-7.28525 -10.18373,-1.23619 c -2.60472,-0.13678 -1.49576,-8.04579 2.24559,-7.71177"
       id="path2558" />
    <path
       style="fill:none;fill-opacity:0.75;fill-rule:evenodd;stroke:#3232ff;stroke-width:5;stroke-linecap:butt;stroke-linejoin:round;stroke-miterlimit:4;stroke-opacity:1"
       d="m 587.80084,192.8401 7.05757,0.8425 c 2.14397,0.20963 -47.7063,49.6406 -50.52571,49.35276 l -70.41398,-7.28525 -10.18373,-1.23619 c -2.60472,-0.13678 -1.49576,-8.04579 2.24559,-7.71177"
       id="path6142" />
    <path
       style="fill:none;fill-opacity:1;fill-rule:evenodd;stroke:#ff3232;stroke-width:2.1;stroke-dasharray:6.3, 6.3;stroke-dashoffset:0;stroke-opacity:1;marker-end:url(#Triangle)"
       d="m 239.44365,136.36241 12.1863,1.10563"
       id="path45" />
    <path
       style="fill:none;fill-opacity:1;fill-rule:evenodd;stroke:#3232ff;stroke-width:2.1;stroke-dasharray:6.3, 6.3;stroke-dashoffset:0;stroke-opacity:1;marker-end:url(#Triangle-1)"
       d="m 464.20645,158.32066 -12.1863,-1.10563"
       id="path45-7" />
    <path
       style="fill:none;fill-opacity:1;fill-rule:evenodd;stroke:#3232ff;stroke-width:2.1;stroke-dasharray:6.3, 6.3;stroke-dashoffset:0;stroke-opacity:1;marker-end:url(#Triangle-1-3)"
       d="m 439.6424,448.71461 12.1863,1.10563"
       id="path45-7-6" />
    <path
       style="fill:none;fill-opacity:1;fill-rule:evenodd;stroke:#ff3232;stroke-width:2.1;stroke-dasharray:6.3, 6.3;stroke-dashoffset:0;stroke-opacity:1;marker-end:url(#Triangle-2)"
       d="m 254.79415,434.29556 -13.17316,-1.18592"
       id="path45-8"
       sodipodi:nodetypes="cc" />
    <path
       style="fill:none;fill-opacity:1;fill-rule:evenodd;stroke:#7deda2;stroke-width:2.1;stroke-dasharray:6.3, 6.3;stroke-dashoffset:0;stroke-opacity:1;marker-end:url(#Triangle-2-6)"
       d="m 343.20684,132.82422 15.34873,1.3343"
       id="path45-8-9"
       sodipodi:nodetypes="cc" />
    <path
       style="fill:none;fill-opacity:1;fill-rule:evenodd;stroke:#19c753;stroke-width:2.1;stroke-dasharray:6.3, 6.3;stroke-dashoffset:0;stroke-opacity:1;marker-end:url(#Triangle-2-6-2)"
       d="m 377.66171,117.25308 -15.34873,-1.3343"
       id="path45-8-9-7"
       sodipodi:nodetypes="cc" />
    <path
       style="fill:none;fill-opacity:1;fill-rule:evenodd;stroke:#7deda2;stroke-width:2.1;stroke-dasharray:6.3, 6.3;stroke-dashoffset:0;stroke-opacity:1;marker-end:url(#Triangle-2-6-0)"
       d="m 361.47,459.49979 -14.50522,-1.36754"
       id="path45-8-9-8"
       sodipodi:nodetypes="cc" />
    <path
       style="fill:none;fill-opacity:1;fill-rule:evenodd;stroke:#19c753;stroke-width:2.1;stroke-dasharray:6.3, 6.3;stroke-dashoffset:0;stroke-opacity:1;marker-end:url(#Triangle-2-6-0-1)"
       d="m 332.73488,475.19091 14.50522,1.36754"
       id="path45-8-9-8-4"
       sodipodi:nodetypes="cc" />
    <g
       inkscape:label=""
       transform="translate(92.539888,141.85183)"
       id="g55">
      <g
         fill="#000000"
         fill-opacity="1"
         id="g52"
         transform="matrix(1.33333,0,0,1.33333,-3.28233,-2.622)">
        <g
           id="g51"
           transform="translate(1.993,13.279)">
          <path
             d="m 4.875,-2.46875 c 0,-0.078125 -0.078125,-0.15625 -0.171875,-0.15625 -0.15625,0 -0.171875,0.0625 -0.265625,0.359375 -0.4375,1.5625 -1.15625,2.09375 -1.71875,2.09375 -0.203125,0 -0.453125,-0.046875 -0.453125,-0.5625 0,-0.46875 0.21875,-0.984375 0.40625,-1.5 L 3.875,-5.4375 c 0.046875,-0.140625 0.171875,-0.453125 0.171875,-0.78125 0,-0.71875 -0.515625,-1.375 -1.359375,-1.375 -1.578125,0 -2.21875,2.5 -2.21875,2.640625 0,0.0625 0.0625,0.15625 0.1875,0.15625 0.15625,0 0.171875,-0.078125 0.234375,-0.3125 C 1.3125,-6.5625 1.96875,-7.25 2.640625,-7.25 c 0.15625,0 0.4375,0.015625 0.4375,0.5625 0,0.453125 -0.21875,1.015625 -0.359375,1.40625 L 1.515625,-2.078125 C 1.40625,-1.8125 1.3125,-1.53125 1.3125,-1.21875 c 0,0.765625 0.53125,1.390625 1.359375,1.390625 C 4.25,0.171875 4.875,-2.34375 4.875,-2.46875 Z M 4.734375,-10.75 c 0,-0.25 -0.203125,-0.5625 -0.578125,-0.5625 -0.40625,0 -0.84375,0.375 -0.84375,0.828125 0,0.421875 0.359375,0.5625 0.5625,0.5625 0.46875,0 0.859375,-0.4375 0.859375,-0.828125 z m 0,0"
             id="path50" />
        </g>
      </g>
      <g
         fill="#000000"
         fill-opacity="1"
         id="g54"
         transform="matrix(1.33333,0,0,1.33333,-3.28233,-2.622)">
        <g
           id="g53"
           transform="translate(7.743,15.861)">
          <path
             d="m 3.4375,-7.65625 c 0,-0.28125 0,-0.296875 -0.234375,-0.296875 C 2.921875,-7.625 2.3125,-7.1875 1.09375,-7.1875 v 0.34375 c 0.265625,0 0.859375,0 1.53125,-0.296875 v 6.21875 c 0,0.4375 -0.046875,0.578125 -1.09375,0.578125 h -0.375 V 0 c 0.328125,-0.03125 1.484375,-0.03125 1.875,-0.03125 0.40625,0 1.546875,0 1.875,0.03125 v -0.34375 h -0.375 c -1.046875,0 -1.09375,-0.140625 -1.09375,-0.578125 z m 0,0"
             id="path52" />
        </g>
      </g>
    </g>
    <g
       inkscape:label=""
       transform="translate(79.186245,257.56844)"
       id="g60">
      <g
         fill="#000000"
         fill-opacity="1"
         id="g57"
         transform="matrix(1.33333,0,0,1.33333,-3.28233,-2.415)">
        <g
           id="g56"
           transform="translate(1.993,9.4049997)">
          <path
             d="m 5.875,-1 c 0.21875,0.96875 1.046875,1.171875 1.453125,1.171875 0.5625,0 0.96875,-0.359375 1.25,-0.953125 0.296875,-0.609375 0.515625,-1.625 0.515625,-1.6875 0,-0.078125 -0.078125,-0.15625 -0.171875,-0.15625 -0.15625,0 -0.171875,0.09375 -0.25,0.359375 -0.296875,1.1875 -0.609375,2.09375 -1.296875,2.09375 -0.515625,0 -0.515625,-0.5625 -0.515625,-0.796875 0,-0.390625 0.046875,-0.5625 0.21875,-1.28125 0.125,-0.46875 0.234375,-0.9375 0.34375,-1.421875 L 8.125,-6.46875 C 8.25,-6.90625 8.25,-6.9375 8.25,-6.984375 c 0,-0.265625 -0.203125,-0.4375 -0.46875,-0.4375 -0.5,0 -0.625,0.4375 -0.71875,0.859375 -0.171875,0.671875 -1.109375,4.375 -1.21875,4.984375 -0.03125,0 -0.703125,1.40625 -1.953125,1.40625 -0.890625,0 -1.0625,-0.78125 -1.0625,-1.40625 0,-0.984375 0.484375,-2.359375 0.921875,-3.515625 0.203125,-0.546875 0.296875,-0.78125 0.296875,-1.125 0,-0.734375 -0.53125,-1.375 -1.359375,-1.375 -1.578125,0 -2.21875,2.5 -2.21875,2.640625 0,0.0625 0.0625,0.15625 0.1875,0.15625 0.15625,0 0.171875,-0.078125 0.234375,-0.3125 C 1.3125,-6.59375 1.984375,-7.25 2.640625,-7.25 c 0.171875,0 0.4375,0.015625 0.4375,0.5625 0,0.453125 -0.1875,0.953125 -0.4375,1.609375 -0.765625,2.046875 -0.84375,2.703125 -0.84375,3.21875 0,1.75 1.3125,2.03125 2.03125,2.03125 1.09375,0 1.703125,-0.75 2.046875,-1.171875 z m 0,0"
             id="path55" />
        </g>
      </g>
      <g
         fill="#000000"
         fill-opacity="1"
         id="g59"
         transform="matrix(1.33333,0,0,1.33333,-3.28233,-2.415)">
        <g
           id="g58"
           transform="translate(11.586,11.987)">
          <path
             d="m 3.4375,-7.65625 c 0,-0.28125 0,-0.296875 -0.234375,-0.296875 C 2.921875,-7.625 2.3125,-7.1875 1.09375,-7.1875 v 0.34375 c 0.265625,0 0.859375,0 1.53125,-0.296875 v 6.21875 c 0,0.4375 -0.046875,0.578125 -1.09375,0.578125 h -0.375 V 0 c 0.328125,-0.03125 1.484375,-0.03125 1.875,-0.03125 0.40625,0 1.546875,0 1.875,0.03125 v -0.34375 h -0.375 c -1.046875,0 -1.09375,-0.140625 -1.09375,-0.578125 z m 0,0"
             id="path57" />
        </g>
      </g>
    </g>
    <g
       inkscape:label=""
       transform="translate(631.31087,306.82039)"
       id="g65">
      <g
         fill="#000000"
         fill-opacity="1"
         id="g62"
         transform="matrix(1.33333,0,0,1.33333,-3.28233,-2.415)">
        <g
           id="g61"
           transform="translate(1.993,9.4049997)">
          <path
             d="m 5.875,-1 c 0.21875,0.96875 1.046875,1.171875 1.453125,1.171875 0.5625,0 0.96875,-0.359375 1.25,-0.953125 0.296875,-0.609375 0.515625,-1.625 0.515625,-1.6875 0,-0.078125 -0.078125,-0.15625 -0.171875,-0.15625 -0.15625,0 -0.171875,0.09375 -0.25,0.359375 -0.296875,1.1875 -0.609375,2.09375 -1.296875,2.09375 -0.515625,0 -0.515625,-0.5625 -0.515625,-0.796875 0,-0.390625 0.046875,-0.5625 0.21875,-1.28125 0.125,-0.46875 0.234375,-0.9375 0.34375,-1.421875 L 8.125,-6.46875 C 8.25,-6.90625 8.25,-6.9375 8.25,-6.984375 c 0,-0.265625 -0.203125,-0.4375 -0.46875,-0.4375 -0.5,0 -0.625,0.4375 -0.71875,0.859375 -0.171875,0.671875 -1.109375,4.375 -1.21875,4.984375 -0.03125,0 -0.703125,1.40625 -1.953125,1.40625 -0.890625,0 -1.0625,-0.78125 -1.0625,-1.40625 0,-0.984375 0.484375,-2.359375 0.921875,-3.515625 0.203125,-0.546875 0.296875,-0.78125 0.296875,-1.125 0,-0.734375 -0.53125,-1.375 -1.359375,-1.375 -1.578125,0 -2.21875,2.5 -2.21875,2.640625 0,0.0625 0.0625,0.15625 0.1875,0.15625 0.15625,0 0.171875,-0.078125 0.234375,-0.3125 C 1.3125,-6.59375 1.984375,-7.25 2.640625,-7.25 c 0.171875,0 0.4375,0.015625 0.4375,0.5625 0,0.453125 -0.1875,0.953125 -0.4375,1.609375 -0.765625,2.046875 -0.84375,2.703125 -0.84375,3.21875 0,1.75 1.3125,2.03125 2.03125,2.03125 1.09375,0 1.703125,-0.75 2.046875,-1.171875 z m 0,0"
             id="path60" />
        </g>
      </g>
      <g
         fill="#000000"
         fill-opacity="1"
         id="g64"
         transform="matrix(1.33333,0,0,1.33333,-3.28233,-2.415)">
        <g
           id="g63"
           transform="translate(11.586,11.987)">
          <path
             d="M 5.265625,-2.015625 H 5 c -0.046875,0.203125 -0.140625,0.875 -0.25,1.0625 C 4.65625,-0.84375 3.984375,-0.84375 3.625,-0.84375 H 1.40625 c 0.328125,-0.28125 1.0625,-1.046875 1.359375,-1.328125 1.828125,-1.671875 2.5,-2.296875 2.5,-3.484375 0,-1.375 -1.09375,-2.296875 -2.484375,-2.296875 -1.375,0 -2.203125,1.1875 -2.203125,2.21875 0,0.609375 0.53125,0.609375 0.5625,0.609375 0.265625,0 0.5625,-0.1875 0.5625,-0.5625 0,-0.34375 -0.21875,-0.5625 -0.5625,-0.5625 -0.09375,0 -0.125,0 -0.15625,0.015625 0.21875,-0.8125 0.875,-1.375 1.640625,-1.375 1.015625,0 1.640625,0.859375 1.640625,1.953125 C 4.265625,-4.640625 3.6875,-3.75 3,-2.984375 L 0.578125,-0.28125 V 0 h 4.375 z m 0,0"
             id="path62" />
        </g>
      </g>
    </g>
    <g
       inkscape:label=""
       transform="translate(652.50465,187.99513)"
       id="g70">
      <g
         fill="#000000"
         fill-opacity="1"
         id="g67"
         transform="matrix(1.33333,0,0,1.33333,-3.28233,-2.622)">
        <g
           id="g66"
           transform="translate(1.993,13.279)">
          <path
             d="m 4.875,-2.46875 c 0,-0.078125 -0.078125,-0.15625 -0.171875,-0.15625 -0.15625,0 -0.171875,0.0625 -0.265625,0.359375 -0.4375,1.5625 -1.15625,2.09375 -1.71875,2.09375 -0.203125,0 -0.453125,-0.046875 -0.453125,-0.5625 0,-0.46875 0.21875,-0.984375 0.40625,-1.5 L 3.875,-5.4375 c 0.046875,-0.140625 0.171875,-0.453125 0.171875,-0.78125 0,-0.71875 -0.515625,-1.375 -1.359375,-1.375 -1.578125,0 -2.21875,2.5 -2.21875,2.640625 0,0.0625 0.0625,0.15625 0.1875,0.15625 0.15625,0 0.171875,-0.078125 0.234375,-0.3125 C 1.3125,-6.5625 1.96875,-7.25 2.640625,-7.25 c 0.15625,0 0.4375,0.015625 0.4375,0.5625 0,0.453125 -0.21875,1.015625 -0.359375,1.40625 L 1.515625,-2.078125 C 1.40625,-1.8125 1.3125,-1.53125 1.3125,-1.21875 c 0,0.765625 0.53125,1.390625 1.359375,1.390625 C 4.25,0.171875 4.875,-2.34375 4.875,-2.46875 Z M 4.734375,-10.75 c 0,-0.25 -0.203125,-0.5625 -0.578125,-0.5625 -0.40625,0 -0.84375,0.375 -0.84375,0.828125 0,0.421875 0.359375,0.5625 0.5625,0.5625 0.46875,0 0.859375,-0.4375 0.859375,-0.828125 z m 0,0"
             id="path65" />
        </g>
      </g>
      <g
         fill="#000000"
         fill-opacity="1"
         id="g69"
         transform="matrix(1.33333,0,0,1.33333,-3.28233,-2.622)">
        <g
           id="g68"
           transform="translate(7.743,15.861)">
          <path
             d="M 5.265625,-2.015625 H 5 c -0.046875,0.203125 -0.140625,0.875 -0.25,1.0625 C 4.65625,-0.84375 3.984375,-0.84375 3.625,-0.84375 H 1.40625 c 0.328125,-0.28125 1.0625,-1.046875 1.359375,-1.328125 1.828125,-1.671875 2.5,-2.296875 2.5,-3.484375 0,-1.375 -1.09375,-2.296875 -2.484375,-2.296875 -1.375,0 -2.203125,1.1875 -2.203125,2.21875 0,0.609375 0.53125,0.609375 0.5625,0.609375 0.265625,0 0.5625,-0.1875 0.5625,-0.5625 0,-0.34375 -0.21875,-0.5625 -0.5625,-0.5625 -0.09375,0 -0.125,0 -0.15625,0.015625 0.21875,-0.8125 0.875,-1.375 1.640625,-1.375 1.015625,0 1.640625,0.859375 1.640625,1.953125 C 4.265625,-4.640625 3.6875,-3.75 3,-2.984375 L 0.578125,-0.28125 V 0 h 4.375 z m 0,0"
             id="path67" />
        </g>
      </g>
    </g>
    <g
       inkscape:label=""
       transform="translate(294.04046,294.58522)"
       id="g75"
       style="fill:#ff3232;fill-opacity:1">
      <g
         fill="#000000"
         fill-opacity="1"
         id="g72"
         transform="matrix(1.33333,0,0,1.33333,-3.74067,-2.65983)"
         style="fill:#ff3232;fill-opacity:1">
        <g
           id="g71"
           transform="translate(1.993,13.948)"
           style="fill:#ff3232;fill-opacity:1">
          <path
             d="m 7.40625,-11.796875 c 0,-0.15625 -0.125,-0.15625 -0.171875,-0.15625 -0.15625,0 -0.171875,0.03125 -0.25,0.328125 L 6.0625,-7.921875 c -0.046875,0.21875 -0.078125,0.25 -0.09375,0.265625 -0.015625,0.03125 -0.125,0.046875 -0.171875,0.046875 -2.8125,0.234375 -4.984375,2.5625 -4.984375,4.71875 0,1.859375 1.421875,3 3.21875,3.09375 -0.140625,0.53125 -0.265625,1.09375 -0.390625,1.625 C 3.390625,2.734375 3.25,3.3125 3.25,3.375 c 0,0.03125 0,0.140625 0.171875,0.140625 0.0625,0 0.125,0 0.15625,-0.078125 C 3.609375,3.40625 3.71875,3 3.78125,2.765625 l 0.640625,-2.5625 c 2.953125,-0.15625 5.1875,-2.5625 5.1875,-4.734375 0,-1.734375 -1.3125,-2.96875 -3.21875,-3.09375 z m -1.125,4.515625 c 1.140625,0.0625 2.28125,0.703125 2.28125,2.390625 0,1.953125 -1.359375,4.53125 -4.046875,4.734375 z m -2.171875,7.140625 c -0.84375,-0.046875 -2.25,-0.5 -2.25,-2.390625 0,-2.171875 1.5625,-4.578125 4.046875,-4.734375 z m 0,0"
             id="path70"
             style="fill:#ff3232;fill-opacity:1" />
        </g>
      </g>
      <g
         fill="#000000"
         fill-opacity="1"
         id="g74"
         transform="matrix(1.33333,0,0,1.33333,-3.74067,-2.65983)"
         style="fill:#ff3232;fill-opacity:1">
        <g
           id="g73"
           transform="translate(11.969,16.530001)"
           style="fill:#ff3232;fill-opacity:1">
          <path
             d="m 3.4375,-7.65625 c 0,-0.28125 0,-0.296875 -0.234375,-0.296875 C 2.921875,-7.625 2.3125,-7.1875 1.09375,-7.1875 v 0.34375 c 0.265625,0 0.859375,0 1.53125,-0.296875 v 6.21875 c 0,0.4375 -0.046875,0.578125 -1.09375,0.578125 h -0.375 V 0 c 0.328125,-0.03125 1.484375,-0.03125 1.875,-0.03125 0.40625,0 1.546875,0 1.875,0.03125 v -0.34375 h -0.375 c -1.046875,0 -1.09375,-0.140625 -1.09375,-0.578125 z m 0,0"
             id="path72"
             style="fill:#ff3232;fill-opacity:1" />
        </g>
        <g
           id="use4"
           transform="translate(17.822266,16.530001)"
           style="fill:#ff3232;fill-opacity:1">
          <path
             d="m 3.4375,-7.65625 c 0,-0.28125 0,-0.296875 -0.234375,-0.296875 C 2.921875,-7.625 2.3125,-7.1875 1.09375,-7.1875 v 0.34375 c 0.265625,0 0.859375,0 1.53125,-0.296875 v 6.21875 c 0,0.4375 -0.046875,0.578125 -1.09375,0.578125 h -0.375 V 0 c 0.328125,-0.03125 1.484375,-0.03125 1.875,-0.03125 0.40625,0 1.546875,0 1.875,0.03125 v -0.34375 h -0.375 c -1.046875,0 -1.09375,-0.140625 -1.09375,-0.578125 z m 0,0"
             id="path73"
             style="fill:#ff3232;fill-opacity:1" />
        </g>
      </g>
    </g>
    <g
       inkscape:label=""
       transform="translate(347.57814,67.648923)"
       id="g80"
       style="fill:#19c753;fill-opacity:1">
      <g
         fill="#000000"
         fill-opacity="1"
         id="g77"
         transform="matrix(1.33333,0,0,1.33333,-3.74067,-2.65983)"
         style="fill:#19c753;fill-opacity:1">
        <g
           id="g76"
           transform="translate(1.993,13.948)"
           style="fill:#19c753;fill-opacity:1">
          <path
             d="m 7.40625,-11.796875 c 0,-0.15625 -0.125,-0.15625 -0.171875,-0.15625 -0.15625,0 -0.171875,0.03125 -0.25,0.328125 L 6.0625,-7.921875 c -0.046875,0.21875 -0.078125,0.25 -0.09375,0.265625 -0.015625,0.03125 -0.125,0.046875 -0.171875,0.046875 -2.8125,0.234375 -4.984375,2.5625 -4.984375,4.71875 0,1.859375 1.421875,3 3.21875,3.09375 -0.140625,0.53125 -0.265625,1.09375 -0.390625,1.625 C 3.390625,2.734375 3.25,3.3125 3.25,3.375 c 0,0.03125 0,0.140625 0.171875,0.140625 0.0625,0 0.125,0 0.15625,-0.078125 C 3.609375,3.40625 3.71875,3 3.78125,2.765625 l 0.640625,-2.5625 c 2.953125,-0.15625 5.1875,-2.5625 5.1875,-4.734375 0,-1.734375 -1.3125,-2.96875 -3.21875,-3.09375 z m -1.125,4.515625 c 1.140625,0.0625 2.28125,0.703125 2.28125,2.390625 0,1.953125 -1.359375,4.53125 -4.046875,4.734375 z m -2.171875,7.140625 c -0.84375,-0.046875 -2.25,-0.5 -2.25,-2.390625 0,-2.171875 1.5625,-4.578125 4.046875,-4.734375 z m 0,0"
             id="path75"
             style="fill:#19c753;fill-opacity:1" />
        </g>
      </g>
      <g
         fill="#000000"
         fill-opacity="1"
         id="g79"
         transform="matrix(1.33333,0,0,1.33333,-3.74067,-2.65983)"
         style="fill:#19c753;fill-opacity:1">
        <g
           id="g78"
           transform="translate(11.969,16.530001)"
           style="fill:#19c753;fill-opacity:1">
          <path
             d="m 3.4375,-7.65625 c 0,-0.28125 0,-0.296875 -0.234375,-0.296875 C 2.921875,-7.625 2.3125,-7.1875 1.09375,-7.1875 v 0.34375 c 0.265625,0 0.859375,0 1.53125,-0.296875 v 6.21875 c 0,0.4375 -0.046875,0.578125 -1.09375,0.578125 h -0.375 V 0 c 0.328125,-0.03125 1.484375,-0.03125 1.875,-0.03125 0.40625,0 1.546875,0 1.875,0.03125 v -0.34375 h -0.375 c -1.046875,0 -1.09375,-0.140625 -1.09375,-0.578125 z m 0,0"
             id="path77"
             style="fill:#19c753;fill-opacity:1" />
        </g>
        <g
           id="use5"
           transform="translate(17.822266,16.530001)"
           style="fill:#19c753;fill-opacity:1">
          <path
             d="M 5.265625,-2.015625 H 5 c -0.046875,0.203125 -0.140625,0.875 -0.25,1.0625 C 4.65625,-0.84375 3.984375,-0.84375 3.625,-0.84375 H 1.40625 c 0.328125,-0.28125 1.0625,-1.046875 1.359375,-1.328125 1.828125,-1.671875 2.5,-2.296875 2.5,-3.484375 0,-1.375 -1.09375,-2.296875 -2.484375,-2.296875 -1.375,0 -2.203125,1.1875 -2.203125,2.21875 0,0.609375 0.53125,0.609375 0.5625,0.609375 0.265625,0 0.5625,-0.1875 0.5625,-0.5625 0,-0.34375 -0.21875,-0.5625 -0.5625,-0.5625 -0.09375,0 -0.125,0 -0.15625,0.015625 0.21875,-0.8125 0.875,-1.375 1.640625,-1.375 1.015625,0 1.640625,0.859375 1.640625,1.953125 C 4.265625,-4.640625 3.6875,-3.75 3,-2.984375 L 0.578125,-0.28125 V 0 h 4.375 z m 0,0"
             id="path7"
             style="fill:#19c753;fill-opacity:1" />
        </g>
      </g>
    </g>
    <g
       inkscape:label=""
       transform="translate(359.40364,138.69802)"
       id="g86"
       style="fill:#7deda2;fill-opacity:1">
      <g
         fill="#000000"
         fill-opacity="1"
         id="g82"
         transform="matrix(1.33333,0,0,1.33333,-3.74067,-2.65983)"
         style="fill:#7deda2;fill-opacity:1">
        <g
           id="g81"
           transform="translate(1.993,13.948)"
           style="fill:#7deda2;fill-opacity:1">
          <path
             d="m 7.40625,-11.796875 c 0,-0.15625 -0.125,-0.15625 -0.171875,-0.15625 -0.15625,0 -0.171875,0.03125 -0.25,0.328125 L 6.0625,-7.921875 c -0.046875,0.21875 -0.078125,0.25 -0.09375,0.265625 -0.015625,0.03125 -0.125,0.046875 -0.171875,0.046875 -2.8125,0.234375 -4.984375,2.5625 -4.984375,4.71875 0,1.859375 1.421875,3 3.21875,3.09375 -0.140625,0.53125 -0.265625,1.09375 -0.390625,1.625 C 3.390625,2.734375 3.25,3.3125 3.25,3.375 c 0,0.03125 0,0.140625 0.171875,0.140625 0.0625,0 0.125,0 0.15625,-0.078125 C 3.609375,3.40625 3.71875,3 3.78125,2.765625 l 0.640625,-2.5625 c 2.953125,-0.15625 5.1875,-2.5625 5.1875,-4.734375 0,-1.734375 -1.3125,-2.96875 -3.21875,-3.09375 z m -1.125,4.515625 c 1.140625,0.0625 2.28125,0.703125 2.28125,2.390625 0,1.953125 -1.359375,4.53125 -4.046875,4.734375 z m -2.171875,7.140625 c -0.84375,-0.046875 -2.25,-0.5 -2.25,-2.390625 0,-2.171875 1.5625,-4.578125 4.046875,-4.734375 z m 0,0"
             id="path80"
             style="fill:#7deda2;fill-opacity:1" />
        </g>
      </g>
      <g
         fill="#000000"
         fill-opacity="1"
         id="g85"
         transform="matrix(1.33333,0,0,1.33333,-3.74067,-2.65983)"
         style="fill:#7deda2;fill-opacity:1">
        <g
           id="g83"
           transform="translate(11.969,16.530001)"
           style="fill:#7deda2;fill-opacity:1">
          <path
             d="M 5.265625,-2.015625 H 5 c -0.046875,0.203125 -0.140625,0.875 -0.25,1.0625 C 4.65625,-0.84375 3.984375,-0.84375 3.625,-0.84375 H 1.40625 c 0.328125,-0.28125 1.0625,-1.046875 1.359375,-1.328125 1.828125,-1.671875 2.5,-2.296875 2.5,-3.484375 0,-1.375 -1.09375,-2.296875 -2.484375,-2.296875 -1.375,0 -2.203125,1.1875 -2.203125,2.21875 0,0.609375 0.53125,0.609375 0.5625,0.609375 0.265625,0 0.5625,-0.1875 0.5625,-0.5625 0,-0.34375 -0.21875,-0.5625 -0.5625,-0.5625 -0.09375,0 -0.125,0 -0.15625,0.015625 0.21875,-0.8125 0.875,-1.375 1.640625,-1.375 1.015625,0 1.640625,0.859375 1.640625,1.953125 C 4.265625,-4.640625 3.6875,-3.75 3,-2.984375 L 0.578125,-0.28125 V 0 h 4.375 z m 0,0"
             id="path82"
             style="fill:#7deda2;fill-opacity:1" />
        </g>
        <g
           id="g84"
           transform="translate(17.822266,16.530001)"
           style="fill:#7deda2;fill-opacity:1">
          <path
             d="m 3.4375,-7.65625 c 0,-0.28125 0,-0.296875 -0.234375,-0.296875 C 2.921875,-7.625 2.3125,-7.1875 1.09375,-7.1875 v 0.34375 c 0.265625,0 0.859375,0 1.53125,-0.296875 v 6.21875 c 0,0.4375 -0.046875,0.578125 -1.09375,0.578125 h -0.375 V 0 c 0.328125,-0.03125 1.484375,-0.03125 1.875,-0.03125 0.40625,0 1.546875,0 1.875,0.03125 v -0.34375 h -0.375 c -1.046875,0 -1.09375,-0.140625 -1.09375,-0.578125 z m 0,0"
             id="path83"
             style="fill:#7deda2;fill-opacity:1" />
        </g>
      </g>
    </g>
    <g
       inkscape:label=""
       transform="translate(401.84312,296.12171)"
       id="g92"
       style="fill:#3232ff;fill-opacity:1">
      <g
         fill="#000000"
         fill-opacity="1"
         id="g88"
         transform="matrix(1.33333,0,0,1.33333,-3.74067,-2.65983)"
         style="fill:#3232ff;fill-opacity:1">
        <g
           id="g87"
           transform="translate(1.993,13.948)"
           style="fill:#3232ff;fill-opacity:1">
          <path
             d="m 7.40625,-11.796875 c 0,-0.15625 -0.125,-0.15625 -0.171875,-0.15625 -0.15625,0 -0.171875,0.03125 -0.25,0.328125 L 6.0625,-7.921875 c -0.046875,0.21875 -0.078125,0.25 -0.09375,0.265625 -0.015625,0.03125 -0.125,0.046875 -0.171875,0.046875 -2.8125,0.234375 -4.984375,2.5625 -4.984375,4.71875 0,1.859375 1.421875,3 3.21875,3.09375 -0.140625,0.53125 -0.265625,1.09375 -0.390625,1.625 C 3.390625,2.734375 3.25,3.3125 3.25,3.375 c 0,0.03125 0,0.140625 0.171875,0.140625 0.0625,0 0.125,0 0.15625,-0.078125 C 3.609375,3.40625 3.71875,3 3.78125,2.765625 l 0.640625,-2.5625 c 2.953125,-0.15625 5.1875,-2.5625 5.1875,-4.734375 0,-1.734375 -1.3125,-2.96875 -3.21875,-3.09375 z m -1.125,4.515625 c 1.140625,0.0625 2.28125,0.703125 2.28125,2.390625 0,1.953125 -1.359375,4.53125 -4.046875,4.734375 z m -2.171875,7.140625 c -0.84375,-0.046875 -2.25,-0.5 -2.25,-2.390625 0,-2.171875 1.5625,-4.578125 4.046875,-4.734375 z m 0,0"
             id="path86"
             style="fill:#3232ff;fill-opacity:1" />
        </g>
      </g>
      <g
         fill="#000000"
         fill-opacity="1"
         id="g91"
         transform="matrix(1.33333,0,0,1.33333,-3.74067,-2.65983)"
         style="fill:#3232ff;fill-opacity:1">
        <g
           id="g89"
           transform="translate(11.969,16.530001)"
           style="fill:#3232ff;fill-opacity:1">
          <path
             d="M 5.265625,-2.015625 H 5 c -0.046875,0.203125 -0.140625,0.875 -0.25,1.0625 C 4.65625,-0.84375 3.984375,-0.84375 3.625,-0.84375 H 1.40625 c 0.328125,-0.28125 1.0625,-1.046875 1.359375,-1.328125 1.828125,-1.671875 2.5,-2.296875 2.5,-3.484375 0,-1.375 -1.09375,-2.296875 -2.484375,-2.296875 -1.375,0 -2.203125,1.1875 -2.203125,2.21875 0,0.609375 0.53125,0.609375 0.5625,0.609375 0.265625,0 0.5625,-0.1875 0.5625,-0.5625 0,-0.34375 -0.21875,-0.5625 -0.5625,-0.5625 -0.09375,0 -0.125,0 -0.15625,0.015625 0.21875,-0.8125 0.875,-1.375 1.640625,-1.375 1.015625,0 1.640625,0.859375 1.640625,1.953125 C 4.265625,-4.640625 3.6875,-3.75 3,-2.984375 L 0.578125,-0.28125 V 0 h 4.375 z m 0,0"
             id="path88"
             style="fill:#3232ff;fill-opacity:1" />
        </g>
        <g
           id="g90"
           transform="translate(17.822266,16.530001)"
           style="fill:#3232ff;fill-opacity:1">
          <path
             d="M 5.265625,-2.015625 H 5 c -0.046875,0.203125 -0.140625,0.875 -0.25,1.0625 C 4.65625,-0.84375 3.984375,-0.84375 3.625,-0.84375 H 1.40625 c 0.328125,-0.28125 1.0625,-1.046875 1.359375,-1.328125 1.828125,-1.671875 2.5,-2.296875 2.5,-3.484375 0,-1.375 -1.09375,-2.296875 -2.484375,-2.296875 -1.375,0 -2.203125,1.1875 -2.203125,2.21875 0,0.609375 0.53125,0.609375 0.5625,0.609375 0.265625,0 0.5625,-0.1875 0.5625,-0.5625 0,-0.34375 -0.21875,-0.5625 -0.5625,-0.5625 -0.09375,0 -0.125,0 -0.15625,0.015625 0.21875,-0.8125 0.875,-1.375 1.640625,-1.375 1.015625,0 1.640625,0.859375 1.640625,1.953125 C 4.265625,-4.640625 3.6875,-3.75 3,-2.984375 L 0.578125,-0.28125 V 0 h 4.375 z m 0,0"
             id="path89"
             style="fill:#3232ff;fill-opacity:1" />
        </g>
      </g>
    </g>
    <path
       style="fill:#19c753;fill-opacity:1;fill-rule:evenodd;stroke:#000000;stroke-width:1;stroke-dasharray:none;stroke-dashoffset:0;stroke-opacity:1"
       d="M 361.25443,109.80243 358.22419,89.79265"
       id="path92"
       sodipodi:nodetypes="cc" />
    <g
       inkscape:label=""
       transform="translate(37.216753,101.11286)"
       id="g97">
      <g
         fill="#000000"
         fill-opacity="1"
         id="g94"
         transform="matrix(1.33333,0,0,1.33333,-3.71983,-2.65383)">
        <g
           id="g93"
           transform="translate(1.993,13.756)">
          <path
             d="m 12.734375,-9.953125 c 0.203125,-0.734375 0.46875,-1.25 1.78125,-1.3125 0.04687,0 0.265625,-0.01563 0.265625,-0.3125 0,-0.1875 -0.15625,-0.1875 -0.234375,-0.1875 -0.34375,0 -1.21875,0.04687 -1.5625,0.04687 H 12.15625 c -0.234375,0 -0.546875,-0.04687 -0.796875,-0.04687 -0.09375,0 -0.3125,0 -0.3125,0.328125 0,0.171875 0.140625,0.171875 0.265625,0.171875 1.03125,0.03125 1.109375,0.4375 1.109375,0.75 0,0.15625 -0.03125,0.203125 -0.07813,0.4375 l -1.9375,7.765625 -3.6875,-9.15625 C 6.59375,-11.75 6.578125,-11.765625 6.203125,-11.765625 H 4.09375 c -0.34375,0 -0.5,0 -0.5,0.328125 0,0.171875 0.125,0.171875 0.453125,0.171875 0.078125,0 1.09375,0 1.09375,0.15625 0,0.03125 -0.03125,0.171875 -0.046875,0.234375 L 2.8125,-1.75 c -0.21875,0.84375 -0.625,1.203125 -1.765625,1.25 -0.078125,0 -0.25,0.015625 -0.25,0.328125 C 0.796875,0 0.96875,0 1.015625,0 c 0.34375,0 1.21875,-0.03125 1.5625,-0.03125 H 3.40625 C 3.65625,-0.03125 3.9375,0 4.1875,0 4.3125,0 4.5,0 4.5,-0.328125 4.5,-0.484375 4.328125,-0.5 4.25,-0.5 3.6875,-0.515625 3.140625,-0.625 3.140625,-1.234375 c 0,-0.140625 0.03125,-0.296875 0.0625,-0.4375 L 5.53125,-10.875 c 0.09375,0.171875 0.09375,0.203125 0.171875,0.359375 L 9.796875,-0.3125 C 9.890625,-0.109375 9.921875,0 10.078125,0 c 0.171875,0 0.1875,-0.046875 0.25,-0.34375 z m 0,0"
             id="path93" />
        </g>
      </g>
      <g
         fill="#000000"
         fill-opacity="1"
         id="g96"
         transform="matrix(1.33333,0,0,1.33333,-3.71983,-2.65383)">
        <g
           id="g95"
           transform="translate(15.491,16.337999)">
          <path
             d="m 3.4375,-7.65625 c 0,-0.28125 0,-0.296875 -0.234375,-0.296875 C 2.921875,-7.625 2.3125,-7.1875 1.09375,-7.1875 v 0.34375 c 0.265625,0 0.859375,0 1.53125,-0.296875 v 6.21875 c 0,0.4375 -0.046875,0.578125 -1.09375,0.578125 h -0.375 V 0 c 0.328125,-0.03125 1.484375,-0.03125 1.875,-0.03125 0.40625,0 1.546875,0 1.875,0.03125 v -0.34375 h -0.375 c -1.046875,0 -1.09375,-0.140625 -1.09375,-0.578125 z m 0,0"
             id="path94" />
        </g>
      </g>
    </g>
    <g
       inkscape:label=""
       transform="translate(624.31529,135.40741)"
       id="g102">
      <g
         fill="#000000"
         fill-opacity="1"
         id="g99"
         transform="matrix(1.33333,0,0,1.33333,-3.71983,-2.65383)">
        <g
           id="g98"
           transform="translate(1.993,13.756)">
          <path
             d="m 12.734375,-9.953125 c 0.203125,-0.734375 0.46875,-1.25 1.78125,-1.3125 0.04687,0 0.265625,-0.01563 0.265625,-0.3125 0,-0.1875 -0.15625,-0.1875 -0.234375,-0.1875 -0.34375,0 -1.21875,0.04687 -1.5625,0.04687 H 12.15625 c -0.234375,0 -0.546875,-0.04687 -0.796875,-0.04687 -0.09375,0 -0.3125,0 -0.3125,0.328125 0,0.171875 0.140625,0.171875 0.265625,0.171875 1.03125,0.03125 1.109375,0.4375 1.109375,0.75 0,0.15625 -0.03125,0.203125 -0.07813,0.4375 l -1.9375,7.765625 -3.6875,-9.15625 C 6.59375,-11.75 6.578125,-11.765625 6.203125,-11.765625 H 4.09375 c -0.34375,0 -0.5,0 -0.5,0.328125 0,0.171875 0.125,0.171875 0.453125,0.171875 0.078125,0 1.09375,0 1.09375,0.15625 0,0.03125 -0.03125,0.171875 -0.046875,0.234375 L 2.8125,-1.75 c -0.21875,0.84375 -0.625,1.203125 -1.765625,1.25 -0.078125,0 -0.25,0.015625 -0.25,0.328125 C 0.796875,0 0.96875,0 1.015625,0 c 0.34375,0 1.21875,-0.03125 1.5625,-0.03125 H 3.40625 C 3.65625,-0.03125 3.9375,0 4.1875,0 4.3125,0 4.5,0 4.5,-0.328125 4.5,-0.484375 4.328125,-0.5 4.25,-0.5 3.6875,-0.515625 3.140625,-0.625 3.140625,-1.234375 c 0,-0.140625 0.03125,-0.296875 0.0625,-0.4375 L 5.53125,-10.875 c 0.09375,0.171875 0.09375,0.203125 0.171875,0.359375 L 9.796875,-0.3125 C 9.890625,-0.109375 9.921875,0 10.078125,0 c 0.171875,0 0.1875,-0.046875 0.25,-0.34375 z m 0,0"
             id="path97" />
        </g>
      </g>
      <g
         fill="#000000"
         fill-opacity="1"
         id="g101"
         transform="matrix(1.33333,0,0,1.33333,-3.71983,-2.65383)">
        <g
           id="g100"
           transform="translate(15.491,16.337999)">
          <path
             d="M 5.265625,-2.015625 H 5 c -0.046875,0.203125 -0.140625,0.875 -0.25,1.0625 C 4.65625,-0.84375 3.984375,-0.84375 3.625,-0.84375 H 1.40625 c 0.328125,-0.28125 1.0625,-1.046875 1.359375,-1.328125 1.828125,-1.671875 2.5,-2.296875 2.5,-3.484375 0,-1.375 -1.09375,-2.296875 -2.484375,-2.296875 -1.375,0 -2.203125,1.1875 -2.203125,2.21875 0,0.609375 0.53125,0.609375 0.5625,0.609375 0.265625,0 0.5625,-0.1875 0.5625,-0.5625 0,-0.34375 -0.21875,-0.5625 -0.5625,-0.5625 -0.09375,0 -0.125,0 -0.15625,0.015625 0.21875,-0.8125 0.875,-1.375 1.640625,-1.375 1.015625,0 1.640625,0.859375 1.640625,1.953125 C 4.265625,-4.640625 3.6875,-3.75 3,-2.984375 L 0.578125,-0.28125 V 0 h 4.375 z m 0,0"
             id="path99" />
        </g>
      </g>
    </g>
  </g>
</svg>
