<?xml version="1.0" encoding="UTF-8" standalone="no"?>
<!-- Created with Inkscape (http://www.inkscape.org/) -->

<svg
   width="26.057362mm"
   height="20.311668mm"
   viewBox="0 0 26.057362 20.311668"
   version="1.1"
   id="svg1"
   inkscape:version="1.3.2 (091e20e, 2023-11-25, custom)"
   sodipodi:docname="Autotransformer_symbol.svg"
   xmlns:inkscape="http://www.inkscape.org/namespaces/inkscape"
   xmlns:sodipodi="http://sodipodi.sourceforge.net/DTD/sodipodi-0.dtd"
   xmlns="http://www.w3.org/2000/svg"
   xmlns:svg="http://www.w3.org/2000/svg">
  <sodipodi:namedview
     id="namedview1"
     pagecolor="#505050"
     bordercolor="#eeeeee"
     borderopacity="1"
     inkscape:showpageshadow="0"
     inkscape:pageopacity="0"
     inkscape:pagecheckerboard="0"
     inkscape:deskcolor="#505050"
     inkscape:document-units="mm"
     inkscape:zoom="5.6088805"
     inkscape:cx="50.099124"
     inkscape:cy="40.917256"
     inkscape:window-width="2560"
     inkscape:window-height="1351"
     inkscape:window-x="-9"
     inkscape:window-y="-9"
     inkscape:window-maximized="1"
     inkscape:current-layer="layer1" />
  <defs
     id="defs1">
    <marker
       style="overflow:visible"
       id="Triangle"
       refX="0"
       refY="0"
       orient="auto-start-reverse"
       inkscape:stockid="Triangle arrow"
       markerWidth="1"
       markerHeight="1"
       viewBox="0 0 1 1"
       inkscape:isstock="true"
       inkscape:collect="always"
       preserveAspectRatio="xMidYMid">
      <path
         transform="scale(0.5)"
         style="fill:context-stroke;fill-rule:evenodd;stroke:context-stroke;stroke-width:1pt"
         d="M 5.77,0 -2.88,5 V -5 Z"
         id="path135" />
    </marker>
    <marker
       inkscape:collect="always"
       inkscape:isstock="true"
       style="overflow:visible"
       id="TriangleInM-7"
       refX="0"
       refY="0"
       orient="auto"
       inkscape:stockid="TriangleInM">
      <path
         transform="scale(-0.4)"
         style="fill:context-stroke;fill-rule:evenodd;stroke:context-stroke;stroke-width:1pt"
         d="M 5.77,0 -2.88,5 V -5 Z"
         id="path5871-1" />
    </marker>
    <marker
       inkscape:collect="always"
       inkscape:isstock="true"
       style="overflow:visible"
       id="TriangleInM-7-2"
       refX="0"
       refY="0"
       orient="auto"
       inkscape:stockid="TriangleInM">
      <path
         transform="scale(-0.4)"
         style="fill:context-stroke;fill-rule:evenodd;stroke:context-stroke;stroke-width:1pt"
         d="M 5.77,0 -2.88,5 V -5 Z"
         id="path5871-1-6" />
    </marker>
  </defs>
  <g
     inkscape:label="Layer 1"
     inkscape:groupmode="layer"
     id="layer1"
     transform="translate(-25.183588,-133.80619)">
    <g
       id="use41951-7-0-2-2"
       transform="rotate(180,57.480832,103.58705)">
      <title
         id="title1-6-9-6-6">Inductor</title>
      <path
         sodipodi:arc-type="arc"
         style="opacity:1;fill:none;fill-opacity:1;stroke:#000000;stroke-width:0.265;stroke-linecap:round;stroke-linejoin:round;stroke-miterlimit:4;stroke-dasharray:none;stroke-dashoffset:0;stroke-opacity:1;paint-order:normal"
         id="path1-5-7-7-5"
         inkscape:transform-center-x="-0.85988921"
         inkscape:transform-center-y="-0.64492188"
         sodipodi:type="arc"
         sodipodi:cx="76.729156"
         sodipodi:cy="62.049992"
         sodipodi:rx="1.0583333"
         sodipodi:ry="1.0583333"
         sodipodi:start="4.712389"
         sodipodi:end="1.5707963"
         sodipodi:open="true"
         d="m 76.729156,60.991658 a 1.0583333,1.0583333 0 0 1 1.058334,1.058334 1.0583333,1.0583333 0 0 1 -1.058334,1.058333" />
      <path
         sodipodi:arc-type="arc"
         style="opacity:1;fill:none;fill-opacity:1;stroke:#000000;stroke-width:0.265;stroke-linecap:round;stroke-linejoin:round;stroke-miterlimit:4;stroke-dasharray:none;stroke-dashoffset:0;stroke-opacity:1;paint-order:normal"
         id="path2-1-2-4-8"
         inkscape:transform-center-x="-0.85988921"
         inkscape:transform-center-y="-0.64492188"
         sodipodi:type="arc"
         sodipodi:cx="76.729164"
         sodipodi:cy="59.933323"
         sodipodi:rx="1.0583333"
         sodipodi:ry="1.0583333"
         sodipodi:start="4.712389"
         sodipodi:end="1.5707963"
         sodipodi:open="true"
         d="m 76.729164,58.87499 a 1.0583333,1.0583333 0 0 1 1.058333,1.058333 1.0583333,1.0583333 0 0 1 -1.058333,1.058333" />
      <path
         sodipodi:arc-type="arc"
         style="opacity:1;fill:none;fill-opacity:1;stroke:#000000;stroke-width:0.265;stroke-linecap:round;stroke-linejoin:round;stroke-miterlimit:4;stroke-dasharray:none;stroke-dashoffset:0;stroke-opacity:1;paint-order:normal"
         id="path3-2-6-2-0"
         inkscape:transform-center-x="-0.85988921"
         inkscape:transform-center-y="-0.64492188"
         sodipodi:type="arc"
         sodipodi:cx="76.729164"
         sodipodi:cy="57.816658"
         sodipodi:rx="1.0583333"
         sodipodi:ry="1.0583333"
         sodipodi:start="4.712389"
         sodipodi:end="1.5707963"
         d="m 76.729164,56.758325 a 1.0583333,1.0583333 0 0 1 1.058333,1.058333 1.0583333,1.0583333 0 0 1 -1.058333,1.058333"
         sodipodi:open="true" />
      <path
         sodipodi:arc-type="arc"
         style="opacity:1;fill:none;fill-opacity:1;stroke:#000000;stroke-width:0.265;stroke-linecap:round;stroke-linejoin:round;stroke-miterlimit:4;stroke-dasharray:none;stroke-dashoffset:0;stroke-opacity:1;paint-order:normal"
         id="path4-7-5-9-1"
         inkscape:transform-center-x="-0.85988921"
         inkscape:transform-center-y="-0.64492188"
         sodipodi:type="arc"
         sodipodi:cx="76.729164"
         sodipodi:cy="55.699989"
         sodipodi:rx="1.0583333"
         sodipodi:ry="1.0583333"
         sodipodi:start="4.712389"
         sodipodi:end="1.5707963"
         sodipodi:open="true"
         d="m 76.729164,54.641656 a 1.0583333,1.0583333 0 0 1 1.058333,1.058333 1.0583333,1.0583333 0 0 1 -1.058333,1.058334" />
      <path
         sodipodi:arc-type="arc"
         style="fill:none;fill-opacity:1;stroke:#000000;stroke-width:0.265;stroke-linecap:round;stroke-linejoin:round;stroke-miterlimit:4;stroke-dasharray:none;stroke-dashoffset:0;stroke-opacity:1;paint-order:normal"
         id="path1-5-7-7-5-2"
         inkscape:transform-center-x="-0.85988921"
         inkscape:transform-center-y="-0.64492188"
         sodipodi:type="arc"
         sodipodi:cx="76.729149"
         sodipodi:cy="70.539833"
         sodipodi:rx="1.0583333"
         sodipodi:ry="1.0583333"
         sodipodi:start="4.712389"
         sodipodi:end="1.5707963"
         sodipodi:open="true"
         d="m 76.729149,69.4815 a 1.0583333,1.0583333 0 0 1 1.058333,1.058333 1.0583333,1.0583333 0 0 1 -1.058333,1.058333" />
      <path
         sodipodi:arc-type="arc"
         style="fill:none;fill-opacity:1;stroke:#000000;stroke-width:0.265;stroke-linecap:round;stroke-linejoin:round;stroke-miterlimit:4;stroke-dasharray:none;stroke-dashoffset:0;stroke-opacity:1;paint-order:normal"
         id="path2-1-2-4-8-7"
         inkscape:transform-center-x="-0.85988921"
         inkscape:transform-center-y="-0.64492188"
         sodipodi:type="arc"
         sodipodi:cx="76.729156"
         sodipodi:cy="68.423164"
         sodipodi:rx="1.0583333"
         sodipodi:ry="1.0583333"
         sodipodi:start="4.712389"
         sodipodi:end="1.5707963"
         sodipodi:open="true"
         d="m 76.729156,67.364831 a 1.0583333,1.0583333 0 0 1 1.058334,1.058333 1.0583333,1.0583333 0 0 1 -1.058334,1.058334" />
      <path
         sodipodi:arc-type="arc"
         style="fill:none;fill-opacity:1;stroke:#000000;stroke-width:0.265;stroke-linecap:round;stroke-linejoin:round;stroke-miterlimit:4;stroke-dasharray:none;stroke-dashoffset:0;stroke-opacity:1;paint-order:normal"
         id="path3-2-6-2-0-7"
         inkscape:transform-center-x="-0.85988921"
         inkscape:transform-center-y="-0.64492188"
         sodipodi:type="arc"
         sodipodi:cx="76.729156"
         sodipodi:cy="66.306503"
         sodipodi:rx="1.0583333"
         sodipodi:ry="1.0583333"
         sodipodi:start="4.712389"
         sodipodi:end="1.5707963"
         d="m 76.729156,65.24817 a 1.0583333,1.0583333 0 0 1 1.058334,1.058333 1.0583333,1.0583333 0 0 1 -1.058334,1.058334"
         sodipodi:open="true" />
      <path
         sodipodi:arc-type="arc"
         style="fill:none;fill-opacity:1;stroke:#000000;stroke-width:0.265;stroke-linecap:round;stroke-linejoin:round;stroke-miterlimit:4;stroke-dasharray:none;stroke-dashoffset:0;stroke-opacity:1;paint-order:normal"
         id="path4-7-5-9-1-6"
         inkscape:transform-center-x="-0.85988921"
         inkscape:transform-center-y="-0.64492188"
         sodipodi:type="arc"
         sodipodi:cx="76.729156"
         sodipodi:cy="64.189827"
         sodipodi:rx="1.0583333"
         sodipodi:ry="1.0583333"
         sodipodi:start="4.712389"
         sodipodi:end="1.5707963"
         sodipodi:open="true"
         d="m 76.729156,63.131494 a 1.0583333,1.0583333 0 0 1 1.058334,1.058333 1.0583333,1.0583333 0 0 1 -1.058334,1.058333" />
      <path
         style="fill:none;stroke:#000000;stroke-width:0.264583px;stroke-linecap:round;stroke-linejoin:miter;stroke-opacity:1"
         d="M 76.729166,72.70861 V 71.650277"
         id="path5-3-3-2-6"
         inkscape:connector-curvature="0" />
      <path
         style="fill:none;stroke:#000000;stroke-width:0.264583px;stroke-linecap:round;stroke-linejoin:miter;stroke-opacity:1"
         d="m 76.729166,53.58332 v 1.058333"
         id="path6-8-1-8-3"
         inkscape:connector-curvature="0" />
      <title
         id="title6-5-0-0-8">Inductor</title>
    </g>
    <path
       inkscape:connector-curvature="0"
       id="path5718-3-0-8"
       d="M 42.839057,134.3332 H 38.2325"
       style="fill:none;stroke:#000000;stroke-width:0.265;stroke-linecap:round;stroke-linejoin:round;stroke-miterlimit:4;stroke-dasharray:none;stroke-opacity:1" />
    <path
       inkscape:connector-curvature="0"
       id="path5718-3-0-8-4"
       d="M 42.839063,139.80926 H 38.232506"
       style="fill:none;stroke:#000000;stroke-width:0.265;stroke-linecap:round;stroke-linejoin:round;stroke-miterlimit:4;stroke-dasharray:none;stroke-opacity:1" />
    <path
       inkscape:connector-curvature="0"
       id="path5718-3-0-8-4-0"
       d="M 42.839063,144.04259 H 38.232506"
       style="fill:none;stroke:#000000;stroke-width:0.265;stroke-linecap:round;stroke-linejoin:round;stroke-miterlimit:4;stroke-dasharray:none;stroke-opacity:1" />
    <path
       inkscape:connector-curvature="0"
       id="path5718-3-0-8-4-0-9"
       d="M 42.839057,148.29911 H 38.2325"
       style="fill:none;stroke:#000000;stroke-width:0.265;stroke-linecap:round;stroke-linejoin:round;stroke-miterlimit:4;stroke-dasharray:none;stroke-opacity:1" />
    <path
       inkscape:connector-curvature="0"
       id="path5718-3-0-8-5"
       d="M 38.11996,139.80927 H 26.165146"
       style="fill:none;stroke:#000000;stroke-width:0.265001;stroke-linecap:round;stroke-linejoin:round;stroke-miterlimit:4;stroke-dasharray:none;stroke-opacity:1" />
    <path
       inkscape:connector-curvature="0"
       id="path5718-3-0-8-5-4"
       d="M 38.2325,153.59083 H 26.277686"
       style="fill:none;stroke:#000000;stroke-width:0.265001;stroke-linecap:round;stroke-linejoin:round;stroke-miterlimit:4;stroke-dasharray:none;stroke-opacity:1" />
    <ellipse
       ry="0.39901915"
       rx="0.40116644"
       cy="153.59084"
       cx="25.87652"
       id="path5953"
       style="fill:none;fill-opacity:1;stroke:#000000;stroke-width:0.256;stroke-linecap:round;stroke-linejoin:round;stroke-miterlimit:4;stroke-dasharray:none;stroke-dashoffset:0;stroke-opacity:1;paint-order:normal" />
    <path
       inkscape:connector-curvature="0"
       id="path5718-3-0-8-5-4-3"
       d="M 38.232498,153.59078 H 50.187312"
       style="fill:none;stroke:#000000;stroke-width:0.265001;stroke-linecap:round;stroke-linejoin:round;stroke-miterlimit:4;stroke-dasharray:none;stroke-opacity:1" />
    <ellipse
       ry="0.39901915"
       rx="0.40116644"
       cy="153.59079"
       cx="-50.588478"
       id="path5953-0"
       style="fill:none;fill-opacity:1;stroke:#000000;stroke-width:0.256;stroke-linecap:round;stroke-linejoin:round;stroke-miterlimit:4;stroke-dasharray:none;stroke-dashoffset:0;stroke-opacity:1;paint-order:normal"
       transform="scale(-1,1)" />
    <ellipse
       ry="0.39901915"
       rx="0.40116644"
       cy="139.80927"
       cx="25.763979"
       id="path5953-7"
       style="fill:none;fill-opacity:1;stroke:#000000;stroke-width:0.256;stroke-linecap:round;stroke-linejoin:round;stroke-miterlimit:4;stroke-dasharray:none;stroke-dashoffset:0;stroke-opacity:1;paint-order:normal" />
    <ellipse
       ry="0.39901915"
       rx="0.40116644"
       cy="142.32047"
       cx="50.588478"
       id="path5953-7-3"
       style="fill:none;fill-opacity:1;stroke:#000000;stroke-width:0.256;stroke-linecap:round;stroke-linejoin:round;stroke-miterlimit:4;stroke-dasharray:none;stroke-dashoffset:0;stroke-opacity:1;paint-order:normal" />
    <ellipse
       ry="0.39901915"
       rx="0.40116644"
       cy="148.2991"
       cx="43.400005"
       id="path5953-7-3-4"
       style="fill:none;fill-opacity:1;stroke:#000000;stroke-width:0.256;stroke-linecap:round;stroke-linejoin:round;stroke-miterlimit:4;stroke-dasharray:none;stroke-dashoffset:0;stroke-opacity:1;paint-order:normal" />
    <ellipse
       ry="0.39901915"
       rx="0.40116644"
       cy="144.04259"
       cx="43.329361"
       id="path5953-7-3-4-6"
       style="fill:none;fill-opacity:1;stroke:#000000;stroke-width:0.256;stroke-linecap:round;stroke-linejoin:round;stroke-miterlimit:4;stroke-dasharray:none;stroke-dashoffset:0;stroke-opacity:1;paint-order:normal" />
    <ellipse
       ry="0.39901915"
       rx="0.40116644"
       cy="134.33321"
       cx="43.329361"
       id="path5953-7-3-4-6-1"
       style="fill:none;fill-opacity:1;stroke:#000000;stroke-width:0.256;stroke-linecap:round;stroke-linejoin:round;stroke-miterlimit:4;stroke-dasharray:none;stroke-dashoffset:0;stroke-opacity:1;paint-order:normal" />
    <ellipse
       ry="0.39901915"
       rx="0.40116644"
       cy="139.80927"
       cx="43.329361"
       id="path5953-7-3-4-6-1-6"
       style="fill:none;fill-opacity:1;stroke:#000000;stroke-width:0.256;stroke-linecap:round;stroke-linejoin:round;stroke-miterlimit:4;stroke-dasharray:none;stroke-dashoffset:0;stroke-opacity:1;paint-order:normal" />
    <path
       style="fill:none;fill-rule:evenodd;stroke:#000000;stroke-width:0.265;stroke-linecap:square;stroke-miterlimit:3.9;stroke-dasharray:none;stroke-opacity:1;marker-end:url(#Triangle)"
       d="M 50.187312,142.32046 H 48.54611 l -1.672777,-2.5112 h -1.902466"
       id="path1"
       sodipodi:nodetypes="cccc" />
    <path
       inkscape:connector-curvature="0"
       id="path5718-7-5-72"
       d="m 25.836057,151.48991 -2.5e-5,-10.33829"
       style="fill:none;stroke:#000000;stroke-width:0.264999;stroke-linecap:round;stroke-linejoin:round;stroke-miterlimit:4;stroke-dasharray:none;stroke-opacity:1;marker-start:url(#TriangleInM-7)"
       sodipodi:nodetypes="cc" />
    <path
       inkscape:connector-curvature="0"
       id="path5718-7-5-72-0"
       d="m 50.58847,151.69486 2.3e-4,-8.0986"
       style="fill:none;stroke:#000000;stroke-width:0.264999;stroke-linecap:round;stroke-linejoin:round;stroke-miterlimit:4;stroke-dasharray:none;stroke-opacity:1;marker-start:url(#TriangleInM-7-2)"
       sodipodi:nodetypes="cc" />
    <g
       inkscape:label=""
       transform="translate(26.405686,145.55192)"
       id="g24">
      <g
         fill="#000000"
         fill-opacity="1"
         id="g3"
         transform="matrix(0.352778,0,0,0.352778,-0.796793,-0.664722)">
        <g
           id="use2"
           transform="translate(1.993,5.8530002)">
          <path
             d="m 4.375,-2.921875 c 0.046875,-0.234375 0.15625,-0.640625 0.15625,-0.6875 0,-0.109375 -0.078125,-0.25 -0.28125,-0.25 -0.125,0 -0.265625,0.078125 -0.328125,0.1875 C 3.890625,-3.59375 3.28125,-1.15625 3.21875,-0.859375 3.03125,-0.53125 2.671875,-0.125 2.171875,-0.125 1.625,-0.125 1.625,-0.6875 1.625,-0.859375 c 0,-0.40625 0.109375,-0.84375 0.5,-1.84375 0.078125,-0.21875 0.125,-0.34375 0.125,-0.5 0,-0.453125 -0.328125,-0.765625 -0.765625,-0.765625 -0.859375,0 -1.21875,1.28125 -1.21875,1.390625 0,0.078125 0.0625,0.109375 0.125,0.109375 0.09375,0 0.109375,-0.0625 0.140625,-0.171875 0.1875,-0.65625 0.53125,-1.09375 0.921875,-1.09375 0.1875,0 0.21875,0.125 0.21875,0.296875 0,0.140625 -0.046875,0.3125 -0.125,0.515625 -0.421875,1.125 -0.53125,1.5 -0.53125,1.921875 0,1 0.8125,1.09375 1.140625,1.09375 0.5,0 0.875,-0.3125 1.09375,-0.59375 0.171875,0.59375 0.765625,0.59375 0.8125,0.59375 0.265625,0 0.484375,-0.125 0.671875,-0.46875 0.15625,-0.296875 0.296875,-0.875 0.296875,-0.90625 0,-0.046875 -0.03125,-0.109375 -0.109375,-0.109375 -0.109375,0 -0.125,0.046875 -0.15625,0.21875 C 4.578125,-0.46875 4.390625,-0.125 4.09375,-0.125 3.875,-0.125 3.8125,-0.3125 3.8125,-0.53125 c 0,-0.171875 0.046875,-0.359375 0.125,-0.671875 L 4.15625,-2.125 Z m 0,0"
             id="path23" />
        </g>
      </g>
      <g
         fill="#000000"
         fill-opacity="1"
         id="g4"
         transform="matrix(0.352778,0,0,0.352778,-0.796793,-0.664722)">
        <g
           id="use3"
           transform="translate(7.296,6.849)">
          <path
             d="m 2.140625,-3.796875 c 0,-0.1875 -0.015625,-0.1875 -0.203125,-0.1875 -0.390625,0.390625 -1,0.390625 -1.21875,0.390625 v 0.234375 c 0.15625,0 0.5625,0 0.921875,-0.171875 v 3.015625 c 0,0.203125 0,0.28125 -0.625,0.28125 h -0.25 V 0 c 0.328125,-0.03125 0.796875,-0.03125 1.125,-0.03125 0.328125,0 0.796875,0 1.125,0.03125 v -0.234375 h -0.25 c -0.625,0 -0.625,-0.078125 -0.625,-0.28125 z m 0,0"
             id="path24" />
        </g>
      </g>
    </g>
    <g
       inkscape:label=""
       transform="translate(47.174822,146.20427)"
       id="g29">
      <g
         fill="#000000"
         fill-opacity="1"
         id="g26"
         transform="matrix(0.352778,0,0,0.352778,-0.796793,-0.664722)">
        <g
           id="g25"
           transform="translate(1.993,5.8530002)">
          <path
             d="m 4.375,-2.921875 c 0.046875,-0.234375 0.15625,-0.640625 0.15625,-0.6875 0,-0.109375 -0.078125,-0.25 -0.28125,-0.25 -0.125,0 -0.265625,0.078125 -0.328125,0.1875 C 3.890625,-3.59375 3.28125,-1.15625 3.21875,-0.859375 3.03125,-0.53125 2.671875,-0.125 2.171875,-0.125 1.625,-0.125 1.625,-0.6875 1.625,-0.859375 c 0,-0.40625 0.109375,-0.84375 0.5,-1.84375 0.078125,-0.21875 0.125,-0.34375 0.125,-0.5 0,-0.453125 -0.328125,-0.765625 -0.765625,-0.765625 -0.859375,0 -1.21875,1.28125 -1.21875,1.390625 0,0.078125 0.0625,0.109375 0.125,0.109375 0.09375,0 0.109375,-0.0625 0.140625,-0.171875 0.1875,-0.65625 0.53125,-1.09375 0.921875,-1.09375 0.1875,0 0.21875,0.125 0.21875,0.296875 0,0.140625 -0.046875,0.3125 -0.125,0.515625 -0.421875,1.125 -0.53125,1.5 -0.53125,1.921875 0,1 0.8125,1.09375 1.140625,1.09375 0.5,0 0.875,-0.3125 1.09375,-0.59375 0.171875,0.59375 0.765625,0.59375 0.8125,0.59375 0.265625,0 0.484375,-0.125 0.671875,-0.46875 0.15625,-0.296875 0.296875,-0.875 0.296875,-0.90625 0,-0.046875 -0.03125,-0.109375 -0.109375,-0.109375 -0.109375,0 -0.125,0.046875 -0.15625,0.21875 C 4.578125,-0.46875 4.390625,-0.125 4.09375,-0.125 3.875,-0.125 3.8125,-0.3125 3.8125,-0.53125 c 0,-0.171875 0.046875,-0.359375 0.125,-0.671875 L 4.15625,-2.125 Z m 0,0"
             id="path25" />
        </g>
      </g>
      <g
         fill="#000000"
         fill-opacity="1"
         id="g28"
         transform="matrix(0.352778,0,0,0.352778,-0.796793,-0.664722)">
        <g
           id="g27"
           transform="translate(7.296,6.849)">
          <path
             d="M 3.21875,-1.125 H 3 C 2.984375,-1.03125 2.921875,-0.640625 2.84375,-0.578125 2.796875,-0.53125 2.3125,-0.53125 2.21875,-0.53125 H 1.109375 L 1.875,-1.15625 C 2.078125,-1.328125 2.609375,-1.703125 2.796875,-1.890625 2.96875,-2.0625 3.21875,-2.375 3.21875,-2.796875 c 0,-0.75 -0.671875,-1.1875 -1.484375,-1.1875 -0.765625,0 -1.296875,0.515625 -1.296875,1.078125 0,0.296875 0.25,0.34375 0.3125,0.34375 0.15625,0 0.328125,-0.109375 0.328125,-0.328125 C 1.078125,-3.015625 1,-3.21875 0.734375,-3.21875 0.875,-3.515625 1.234375,-3.75 1.65625,-3.75 c 0.625,0 0.953125,0.46875 0.953125,0.953125 0,0.421875 -0.28125,0.859375 -0.6875,1.25 L 0.5,-0.25 C 0.4375,-0.1875 0.4375,-0.1875 0.4375,0 h 2.59375 z m 0,0"
             id="path26" />
        </g>
      </g>
    </g>
    <ellipse
       ry="0.39901915"
       rx="0.40116644"
       cy="153.59084"
       cx="38.232498"
       id="path5953-3"
       style="fill:#000000;fill-opacity:1;stroke:#000000;stroke-width:0.256;stroke-linecap:round;stroke-linejoin:round;stroke-miterlimit:4;stroke-dasharray:none;stroke-dashoffset:0;stroke-opacity:1;paint-order:normal" />
  </g>
</svg>
