<?xml version="1.0" encoding="UTF-8" standalone="no"?>
<!-- Created with Inkscape (http://www.inkscape.org/) -->

<svg
   width="43.93808mm"
   height="15.708532mm"
   viewBox="0 0 43.93808 15.708532"
   version="1.1"
   id="svg1"
   inkscape:version="1.3.2 (091e20e, 2023-11-25, custom)"
   sodipodi:docname="General_transformer_ECD.svg"
   xmlns:inkscape="http://www.inkscape.org/namespaces/inkscape"
   xmlns:sodipodi="http://sodipodi.sourceforge.net/DTD/sodipodi-0.dtd"
   xmlns="http://www.w3.org/2000/svg"
   xmlns:svg="http://www.w3.org/2000/svg">
  <sodipodi:namedview
     id="namedview1"
     pagecolor="#505050"
     bordercolor="#eeeeee"
     borderopacity="1"
     inkscape:showpageshadow="0"
     inkscape:pageopacity="0"
     inkscape:pagecheckerboard="0"
     inkscape:deskcolor="#505050"
     inkscape:document-units="mm"
     showgrid="true"
     inkscape:zoom="8.2314815"
     inkscape:cx="78.965129"
     inkscape:cy="40.758155"
     inkscape:window-width="2560"
     inkscape:window-height="1351"
     inkscape:window-x="2551"
     inkscape:window-y="-9"
     inkscape:window-maximized="1"
     inkscape:current-layer="use13911">
    <inkscape:grid
       id="grid1"
       units="mm"
       originx="-41.347507"
       originy="-60.401804"
       spacingx="0.99999998"
       spacingy="1"
       empcolor="#0099e5"
       empopacity="0.30196078"
       color="#0099e5"
       opacity="0.14901961"
       empspacing="5"
       dotted="false"
       gridanglex="30"
       gridanglez="30"
       visible="true" />
  </sodipodi:namedview>
  <defs
     id="defs1">
    <marker
       inkscape:isstock="true"
       style="overflow:visible"
       id="TriangleInS"
       refX="0"
       refY="0"
       orient="auto"
       inkscape:stockid="TriangleInS">
      <path
         transform="scale(-0.2)"
         style="fill:context-stroke;fill-rule:evenodd;stroke:context-stroke;stroke-width:1pt"
         d="M 5.77,0 -2.88,5 V -5 Z"
         id="path6096" />
    </marker>
    <marker
       inkscape:isstock="true"
       style="overflow:visible"
       id="TriangleOutS"
       refX="0"
       refY="0"
       orient="auto"
       inkscape:stockid="TriangleOutS">
      <path
         transform="scale(0.2)"
         style="fill:context-stroke;fill-rule:evenodd;stroke:context-stroke;stroke-width:1pt"
         d="M 5.77,0 -2.88,5 V -5 Z"
         id="path6105" />
    </marker>
    <marker
       inkscape:isstock="true"
       style="overflow:visible"
       id="marker1"
       refX="0"
       refY="0"
       orient="auto"
       inkscape:stockid="TriangleInS">
      <path
         transform="scale(-0.2)"
         style="fill:context-stroke;fill-rule:evenodd;stroke:context-stroke;stroke-width:1pt"
         d="M 5.77,0 -2.88,5 V -5 Z"
         id="path1" />
    </marker>
    <marker
       inkscape:isstock="true"
       style="overflow:visible"
       id="marker2"
       refX="0"
       refY="0"
       orient="auto"
       inkscape:stockid="TriangleOutS">
      <path
         transform="scale(0.2)"
         style="fill:context-stroke;fill-rule:evenodd;stroke:context-stroke;stroke-width:1pt"
         d="M 5.77,0 -2.88,5 V -5 Z"
         id="path2" />
    </marker>
    <marker
       inkscape:collect="always"
       inkscape:isstock="true"
       style="overflow:visible"
       id="TriangleInM-7"
       refX="0"
       refY="0"
       orient="auto"
       inkscape:stockid="TriangleInM">
      <path
         transform="scale(-0.4)"
         style="fill:context-stroke;fill-rule:evenodd;stroke:context-stroke;stroke-width:1pt"
         d="M 5.77,0 -2.88,5 V -5 Z"
         id="path5871-1" />
    </marker>
    <marker
       inkscape:collect="always"
       inkscape:isstock="true"
       style="overflow:visible"
       id="TriangleInM-7-2"
       refX="0"
       refY="0"
       orient="auto"
       inkscape:stockid="TriangleInM">
      <path
         transform="scale(-0.4)"
         style="fill:context-stroke;fill-rule:evenodd;stroke:context-stroke;stroke-width:1pt"
         d="M 5.77,0 -2.88,5 V -5 Z"
         id="path5871-1-6" />
    </marker>
    <marker
       inkscape:collect="always"
       inkscape:isstock="true"
       style="overflow:visible"
       id="TriangleInM-7-4"
       refX="0"
       refY="0"
       orient="auto"
       inkscape:stockid="TriangleInM">
      <path
         transform="scale(-0.4)"
         style="fill:context-stroke;fill-rule:evenodd;stroke:context-stroke;stroke-width:1pt"
         d="M 5.77,0 -2.88,5 V -5 Z"
         id="path5871-1-0" />
    </marker>
    <marker
       inkscape:collect="always"
       inkscape:isstock="true"
       style="overflow:visible"
       id="TriangleInM-7-4-1"
       refX="0"
       refY="0"
       orient="auto"
       inkscape:stockid="TriangleInM">
      <path
         transform="scale(-0.4)"
         style="fill:context-stroke;fill-rule:evenodd;stroke:context-stroke;stroke-width:1pt"
         d="M 5.77,0 -2.88,5 V -5 Z"
         id="path5871-1-0-9" />
    </marker>
  </defs>
  <g
     inkscape:label="Ebene 1"
     inkscape:groupmode="layer"
     id="layer1"
     transform="translate(-41.347508,-60.401804)">
    <g
       id="use46228"
       transform="translate(5.9152064,50.13268)">
      <title
         id="title1">Transformer</title>
      <path
         inkscape:connector-curvature="0"
         id="path3"
         d="M 56.72884,25.450645 V 14.867311"
         style="fill:none;stroke:#000000;stroke-width:0.264583px;stroke-linecap:round;stroke-linejoin:miter;stroke-opacity:1" />
      <path
         inkscape:connector-curvature="0"
         id="path4"
         d="M 58.053546,14.867317 V 25.450645"
         style="fill:none;stroke:#000000;stroke-width:0.264583px;stroke-linecap:round;stroke-linejoin:miter;stroke-opacity:1" />
      <path
         sodipodi:arc-type="arc"
         d="m -55.47984,-14.059782 a 2.1166632,1.5875012 0 0 1 -2.04454,1.176626 2.1166632,1.5875012 0 0 1 -2.044539,-1.176626"
         sodipodi:open="true"
         sodipodi:end="2.8797933"
         sodipodi:start="0.26179939"
         sodipodi:ry="1.5875012"
         sodipodi:rx="2.1166632"
         sodipodi:cy="-14.470657"
         sodipodi:cx="-57.52438"
         sodipodi:type="arc"
         transform="scale(-1)"
         id="path5"
         style="opacity:0.94;fill:none;fill-opacity:1;stroke:#000000;stroke-width:0.265;stroke-linecap:round;stroke-linejoin:round;stroke-miterlimit:4;stroke-dasharray:none;stroke-dashoffset:0;stroke-opacity:1;marker-start:url(#TriangleInS);marker-end:url(#TriangleOutS);paint-order:normal" />
      <g
         transform="translate(-22.644371,-38.716002)"
         id="g12">
        <path
           sodipodi:arc-type="arc"
           style="opacity:1;fill:none;fill-opacity:1;stroke:#000000;stroke-width:0.265;stroke-linecap:round;stroke-linejoin:round;stroke-miterlimit:4;stroke-dasharray:none;stroke-dashoffset:0;stroke-opacity:1;paint-order:normal"
           id="path7"
           inkscape:transform-center-x="-0.85988921"
           inkscape:transform-center-y="-0.64492188"
           sodipodi:type="arc"
           sodipodi:cx="76.729156"
           sodipodi:cy="62.049992"
           sodipodi:rx="1.0583333"
           sodipodi:ry="1.0583333"
           sodipodi:start="4.712389"
           sodipodi:end="1.5707963"
           sodipodi:open="true"
           d="m 76.729156,60.991658 a 1.0583333,1.0583333 0 0 1 1.058334,1.058334 1.0583333,1.0583333 0 0 1 -1.058334,1.058333" />
        <path
           sodipodi:arc-type="arc"
           style="opacity:1;fill:none;fill-opacity:1;stroke:#000000;stroke-width:0.265;stroke-linecap:round;stroke-linejoin:round;stroke-miterlimit:4;stroke-dasharray:none;stroke-dashoffset:0;stroke-opacity:1;paint-order:normal"
           id="path8"
           inkscape:transform-center-x="-0.85988921"
           inkscape:transform-center-y="-0.64492188"
           sodipodi:type="arc"
           sodipodi:cx="76.729164"
           sodipodi:cy="59.933323"
           sodipodi:rx="1.0583333"
           sodipodi:ry="1.0583333"
           sodipodi:start="4.712389"
           sodipodi:end="1.5707963"
           sodipodi:open="true"
           d="m 76.729164,58.87499 a 1.0583333,1.0583333 0 0 1 1.058333,1.058333 1.0583333,1.0583333 0 0 1 -1.058333,1.058333" />
        <path
           sodipodi:arc-type="arc"
           style="opacity:1;fill:none;fill-opacity:1;stroke:#000000;stroke-width:0.265;stroke-linecap:round;stroke-linejoin:round;stroke-miterlimit:4;stroke-dasharray:none;stroke-dashoffset:0;stroke-opacity:1;paint-order:normal"
           id="path9"
           inkscape:transform-center-x="-0.85988921"
           inkscape:transform-center-y="-0.64492188"
           sodipodi:type="arc"
           sodipodi:cx="76.729164"
           sodipodi:cy="57.816658"
           sodipodi:rx="1.0583333"
           sodipodi:ry="1.0583333"
           sodipodi:start="4.712389"
           sodipodi:end="1.5707963"
           d="m 76.729164,56.758325 a 1.0583333,1.0583333 0 0 1 1.058333,1.058333 1.0583333,1.0583333 0 0 1 -1.058333,1.058333"
           sodipodi:open="true" />
        <path
           sodipodi:arc-type="arc"
           style="opacity:1;fill:none;fill-opacity:1;stroke:#000000;stroke-width:0.265;stroke-linecap:round;stroke-linejoin:round;stroke-miterlimit:4;stroke-dasharray:none;stroke-dashoffset:0;stroke-opacity:1;paint-order:normal"
           id="path10"
           inkscape:transform-center-x="-0.85988921"
           inkscape:transform-center-y="-0.64492188"
           sodipodi:type="arc"
           sodipodi:cx="76.729164"
           sodipodi:cy="55.699989"
           sodipodi:rx="1.0583333"
           sodipodi:ry="1.0583333"
           sodipodi:start="4.712389"
           sodipodi:end="1.5707963"
           sodipodi:open="true"
           d="m 76.729164,54.641656 a 1.0583333,1.0583333 0 0 1 1.058333,1.058333 1.0583333,1.0583333 0 0 1 -1.058333,1.058334" />
        <path
           style="fill:none;stroke:#000000;stroke-width:0.264583px;stroke-linecap:round;stroke-linejoin:miter;stroke-opacity:1"
           d="M 76.729166,64.166653 V 63.10832"
           id="path11"
           inkscape:connector-curvature="0" />
        <path
           style="fill:none;stroke:#000000;stroke-width:0.264583px;stroke-linecap:round;stroke-linejoin:miter;stroke-opacity:1"
           d="m 76.729166,53.58332 v 1.058333"
           id="path12"
           inkscape:connector-curvature="0" />
      </g>
      <g
         transform="translate(-26.613121,-33.424342)"
         id="g19">
        <g
           transform="rotate(180,82.020833,56.229153)"
           id="g18">
          <path
             sodipodi:arc-type="arc"
             d="m 76.729156,60.991658 a 1.0583333,1.0583333 0 0 1 1.058334,1.058334 1.0583333,1.0583333 0 0 1 -1.058334,1.058333"
             sodipodi:open="true"
             sodipodi:end="1.5707963"
             sodipodi:start="4.712389"
             sodipodi:ry="1.0583333"
             sodipodi:rx="1.0583333"
             sodipodi:cy="62.049992"
             sodipodi:cx="76.729156"
             sodipodi:type="arc"
             inkscape:transform-center-y="-0.64492188"
             inkscape:transform-center-x="-0.85988921"
             id="path13"
             style="opacity:1;fill:none;fill-opacity:1;stroke:#000000;stroke-width:0.265;stroke-linecap:round;stroke-linejoin:round;stroke-miterlimit:4;stroke-dasharray:none;stroke-dashoffset:0;stroke-opacity:1;paint-order:normal" />
          <path
             sodipodi:arc-type="arc"
             d="m 76.729164,58.87499 a 1.0583333,1.0583333 0 0 1 1.058333,1.058333 1.0583333,1.0583333 0 0 1 -1.058333,1.058333"
             sodipodi:open="true"
             sodipodi:end="1.5707963"
             sodipodi:start="4.712389"
             sodipodi:ry="1.0583333"
             sodipodi:rx="1.0583333"
             sodipodi:cy="59.933323"
             sodipodi:cx="76.729164"
             sodipodi:type="arc"
             inkscape:transform-center-y="-0.64492188"
             inkscape:transform-center-x="-0.85988921"
             id="path14"
             style="opacity:1;fill:none;fill-opacity:1;stroke:#000000;stroke-width:0.265;stroke-linecap:round;stroke-linejoin:round;stroke-miterlimit:4;stroke-dasharray:none;stroke-dashoffset:0;stroke-opacity:1;paint-order:normal" />
          <path
             sodipodi:arc-type="arc"
             sodipodi:open="true"
             d="m 76.729164,56.758325 a 1.0583333,1.0583333 0 0 1 1.058333,1.058333 1.0583333,1.0583333 0 0 1 -1.058333,1.058333"
             sodipodi:end="1.5707963"
             sodipodi:start="4.712389"
             sodipodi:ry="1.0583333"
             sodipodi:rx="1.0583333"
             sodipodi:cy="57.816658"
             sodipodi:cx="76.729164"
             sodipodi:type="arc"
             inkscape:transform-center-y="-0.64492188"
             inkscape:transform-center-x="-0.85988921"
             id="path15"
             style="opacity:1;fill:none;fill-opacity:1;stroke:#000000;stroke-width:0.265;stroke-linecap:round;stroke-linejoin:round;stroke-miterlimit:4;stroke-dasharray:none;stroke-dashoffset:0;stroke-opacity:1;paint-order:normal" />
          <path
             sodipodi:arc-type="arc"
             d="m 76.729164,54.641656 a 1.0583333,1.0583333 0 0 1 1.058333,1.058333 1.0583333,1.0583333 0 0 1 -1.058333,1.058334"
             sodipodi:open="true"
             sodipodi:end="1.5707963"
             sodipodi:start="4.712389"
             sodipodi:ry="1.0583333"
             sodipodi:rx="1.0583333"
             sodipodi:cy="55.699989"
             sodipodi:cx="76.729164"
             sodipodi:type="arc"
             inkscape:transform-center-y="-0.64492188"
             inkscape:transform-center-x="-0.85988921"
             id="path16"
             style="opacity:1;fill:none;fill-opacity:1;stroke:#000000;stroke-width:0.265;stroke-linecap:round;stroke-linejoin:round;stroke-miterlimit:4;stroke-dasharray:none;stroke-dashoffset:0;stroke-opacity:1;paint-order:normal" />
          <path
             inkscape:connector-curvature="0"
             id="path17"
             d="M 76.729166,64.166653 V 63.10832"
             style="fill:none;stroke:#000000;stroke-width:0.264583px;stroke-linecap:round;stroke-linejoin:miter;stroke-opacity:1" />
          <path
             inkscape:connector-curvature="0"
             id="path18"
             d="m 76.729166,53.58332 v 1.058333"
             style="fill:none;stroke:#000000;stroke-width:0.264583px;stroke-linecap:round;stroke-linejoin:miter;stroke-opacity:1" />
        </g>
      </g>
      <title
         id="title19">Transformer</title>
    </g>
    <g
       id="use13911"
       transform="rotate(90,-40.8698,-6.2969)">
      <title
         id="title20">Resistor</title>
      <path
         style="fill:none;stroke:#000000;stroke-width:0.264583px;stroke-linecap:round;stroke-linejoin:miter;stroke-opacity:1"
         d="m 30.427082,-107.16668 v 5.82781"
         id="path20"
         inkscape:connector-curvature="0"
         sodipodi:nodetypes="cc" />
      <path
         style="fill:none;stroke:#000000;stroke-width:0.264583px;stroke-linecap:round;stroke-linejoin:miter;stroke-opacity:1"
         d="m 30.427082,-96.047194 -3e-6,6.49791"
         id="path21"
         inkscape:connector-curvature="0"
         sodipodi:nodetypes="cc" />
      <path
         style="fill:none;stroke:#000000;stroke-width:0.264583px;stroke-linecap:round;stroke-linejoin:miter;stroke-opacity:1"
         d="m 41.010418,-107.16668 v 17.617396"
         id="path21-8"
         inkscape:connector-curvature="0"
         sodipodi:nodetypes="cc" />
      <path
         style="fill:none;stroke:#000000;stroke-width:0.264583px;stroke-linecap:round;stroke-linejoin:round;stroke-opacity:1"
         d="m 31.749999,-98.693034 v 2.64584 h -2.645834 v -5.291676 h 2.645834 v 2.645836"
         id="path22"
         inkscape:connector-curvature="0" />
      <path
         style="fill:none;stroke:#000000;stroke-width:0.264583px;stroke-linecap:round;stroke-linejoin:miter;stroke-opacity:1"
         d="m 30.427081,-131.39865 v 5.8278"
         id="path20-6"
         inkscape:connector-curvature="0"
         sodipodi:nodetypes="cc" />
      <path
         style="fill:none;stroke:#000000;stroke-width:0.264583px;stroke-linecap:round;stroke-linejoin:miter;stroke-opacity:1"
         d="m 30.427081,-120.27917 -3e-6,6.49791"
         id="path21-2"
         inkscape:connector-curvature="0"
         sodipodi:nodetypes="cc" />
      <path
         style="fill:none;stroke:#000000;stroke-width:0.264583px;stroke-linecap:round;stroke-linejoin:round;stroke-opacity:1"
         d="m 31.749998,-122.92501 v 2.64584 h -2.645834 v -5.29167 h 2.645834 v 2.64583"
         id="path22-7"
         inkscape:connector-curvature="0" />
      <title
         id="title22">Resistor</title>
      <title
         id="title23">Resistor</title>
      <ellipse
         ry="0.39901915"
         rx="0.40116644"
         cy="30.427078"
         cx="89.148117"
         id="path5953-31"
         style="fill:none;fill-opacity:1;stroke:#000000;stroke-width:0.256;stroke-linecap:round;stroke-linejoin:round;stroke-miterlimit:4;stroke-dasharray:none;stroke-dashoffset:0;stroke-opacity:1;paint-order:normal"
         transform="rotate(-90)" />
      <ellipse
         ry="0.39901915"
         rx="0.40116644"
         cy="41.010418"
         cx="89.148117"
         id="path5953-31-2"
         style="fill:none;fill-opacity:1;stroke:#000000;stroke-width:0.256;stroke-linecap:round;stroke-linejoin:round;stroke-miterlimit:4;stroke-dasharray:none;stroke-dashoffset:0;stroke-opacity:1;paint-order:normal"
         transform="rotate(-90)" />
      <path
         style="fill:none;stroke:#000000;stroke-width:0.265;stroke-linecap:round;stroke-linejoin:miter;stroke-opacity:1;stroke-dasharray:none"
         d="m 41.010411,-113.78126 v -17.6174"
         id="path21-8-5"
         inkscape:connector-curvature="0"
         sodipodi:nodetypes="cc" />
      <ellipse
         ry="0.39901915"
         rx="0.40116644"
         cy="-41.010414"
         cx="-131.79984"
         id="path5953-31-2-0"
         style="fill:none;fill-opacity:1;stroke:#000000;stroke-width:0.256;stroke-linecap:round;stroke-linejoin:round;stroke-miterlimit:4;stroke-dasharray:none;stroke-dashoffset:0;stroke-opacity:1;paint-order:normal"
         transform="rotate(90)" />
      <ellipse
         ry="0.39901915"
         rx="0.40116644"
         cy="30.42708"
         cx="131.79982"
         id="path5953-31-5"
         style="fill:none;fill-opacity:1;stroke:#000000;stroke-width:0.256;stroke-linecap:round;stroke-linejoin:round;stroke-miterlimit:4;stroke-dasharray:none;stroke-dashoffset:0;stroke-opacity:1;paint-order:normal"
         transform="rotate(-90)" />
      <path
         inkscape:connector-curvature="0"
         id="path5718-7-5-72"
         d="M 39.242161,-89.166676 H 31.427085"
         style="fill:none;stroke:#000000;stroke-width:0.264999;stroke-linecap:round;stroke-linejoin:round;stroke-miterlimit:4;stroke-dasharray:none;stroke-opacity:1;marker-start:url(#TriangleInM-7)"
         sodipodi:nodetypes="cc" />
      <path
         inkscape:connector-curvature="0"
         id="path5718-7-5-72-8"
         d="m 30.42708,-92.479628 5e-6,0.682828"
         style="fill:none;stroke:#000000;stroke-width:0.264999;stroke-linecap:round;stroke-linejoin:round;stroke-miterlimit:4;stroke-dasharray:none;stroke-opacity:1;marker-start:url(#TriangleInM-7-4)"
         sodipodi:nodetypes="cc" />
      <path
         inkscape:connector-curvature="0"
         id="path5718-7-5-72-8-8"
         d="m 30.427078,-128.76367 5e-6,-0.68282"
         style="fill:none;stroke:#000000;stroke-width:0.264999;stroke-linecap:round;stroke-linejoin:round;stroke-miterlimit:4;stroke-dasharray:none;stroke-opacity:1;marker-start:url(#TriangleInM-7-4-1)"
         sodipodi:nodetypes="cc" />
      <path
         inkscape:connector-curvature="0"
         id="path5718-7-5-72-0"
         d="M 39.251836,-131.79982 H 31.43676"
         style="fill:none;stroke:#000000;stroke-width:0.264999;stroke-linecap:round;stroke-linejoin:round;stroke-miterlimit:4;stroke-dasharray:none;stroke-opacity:1;marker-start:url(#TriangleInM-7-2)"
         sodipodi:nodetypes="cc" />
      <g
         inkscape:label=""
         transform="rotate(-90,-27.483636,-62.252694)"
         id="g24">
        <g
           fill="#000000"
           fill-opacity="1"
           id="g3"
           transform="matrix(0.352778,0,0,0.352778,-0.796793,-0.664722)">
          <g
             id="use2"
             transform="translate(1.993,5.8530002)">
            <path
               d="m 4.375,-2.921875 c 0.046875,-0.234375 0.15625,-0.640625 0.15625,-0.6875 0,-0.109375 -0.078125,-0.25 -0.28125,-0.25 -0.125,0 -0.265625,0.078125 -0.328125,0.1875 C 3.890625,-3.59375 3.28125,-1.15625 3.21875,-0.859375 3.03125,-0.53125 2.671875,-0.125 2.171875,-0.125 1.625,-0.125 1.625,-0.6875 1.625,-0.859375 c 0,-0.40625 0.109375,-0.84375 0.5,-1.84375 0.078125,-0.21875 0.125,-0.34375 0.125,-0.5 0,-0.453125 -0.328125,-0.765625 -0.765625,-0.765625 -0.859375,0 -1.21875,1.28125 -1.21875,1.390625 0,0.078125 0.0625,0.109375 0.125,0.109375 0.09375,0 0.109375,-0.0625 0.140625,-0.171875 0.1875,-0.65625 0.53125,-1.09375 0.921875,-1.09375 0.1875,0 0.21875,0.125 0.21875,0.296875 0,0.140625 -0.046875,0.3125 -0.125,0.515625 -0.421875,1.125 -0.53125,1.5 -0.53125,1.921875 0,1 0.8125,1.09375 1.140625,1.09375 0.5,0 0.875,-0.3125 1.09375,-0.59375 0.171875,0.59375 0.765625,0.59375 0.8125,0.59375 0.265625,0 0.484375,-0.125 0.671875,-0.46875 0.15625,-0.296875 0.296875,-0.875 0.296875,-0.90625 0,-0.046875 -0.03125,-0.109375 -0.109375,-0.109375 -0.109375,0 -0.125,0.046875 -0.15625,0.21875 C 4.578125,-0.46875 4.390625,-0.125 4.09375,-0.125 3.875,-0.125 3.8125,-0.3125 3.8125,-0.53125 c 0,-0.171875 0.046875,-0.359375 0.125,-0.671875 L 4.15625,-2.125 Z m 0,0"
               id="path23" />
          </g>
        </g>
        <g
           fill="#000000"
           fill-opacity="1"
           id="g4"
           transform="matrix(0.352778,0,0,0.352778,-0.796793,-0.664722)">
          <g
             id="use3"
             transform="translate(7.296,6.849)">
            <path
               d="m 2.140625,-3.796875 c 0,-0.1875 -0.015625,-0.1875 -0.203125,-0.1875 -0.390625,0.390625 -1,0.390625 -1.21875,0.390625 v 0.234375 c 0.15625,0 0.5625,0 0.921875,-0.171875 v 3.015625 c 0,0.203125 0,0.28125 -0.625,0.28125 h -0.25 V 0 c 0.328125,-0.03125 0.796875,-0.03125 1.125,-0.03125 0.328125,0 0.796875,0 1.125,0.03125 v -0.234375 h -0.25 c -0.625,0 -0.625,-0.078125 -0.625,-0.28125 z m 0,0"
               id="path24" />
          </g>
        </g>
      </g>
      <g
         inkscape:label=""
         transform="rotate(-90,-46.677923,-81.446981)"
         id="g29">
        <g
           fill="#000000"
           fill-opacity="1"
           id="g26"
           transform="matrix(0.352778,0,0,0.352778,-0.796793,-0.664722)">
          <g
             id="g25"
             transform="translate(1.993,5.8530002)">
            <path
               d="m 4.375,-2.921875 c 0.046875,-0.234375 0.15625,-0.640625 0.15625,-0.6875 0,-0.109375 -0.078125,-0.25 -0.28125,-0.25 -0.125,0 -0.265625,0.078125 -0.328125,0.1875 C 3.890625,-3.59375 3.28125,-1.15625 3.21875,-0.859375 3.03125,-0.53125 2.671875,-0.125 2.171875,-0.125 1.625,-0.125 1.625,-0.6875 1.625,-0.859375 c 0,-0.40625 0.109375,-0.84375 0.5,-1.84375 0.078125,-0.21875 0.125,-0.34375 0.125,-0.5 0,-0.453125 -0.328125,-0.765625 -0.765625,-0.765625 -0.859375,0 -1.21875,1.28125 -1.21875,1.390625 0,0.078125 0.0625,0.109375 0.125,0.109375 0.09375,0 0.109375,-0.0625 0.140625,-0.171875 0.1875,-0.65625 0.53125,-1.09375 0.921875,-1.09375 0.1875,0 0.21875,0.125 0.21875,0.296875 0,0.140625 -0.046875,0.3125 -0.125,0.515625 -0.421875,1.125 -0.53125,1.5 -0.53125,1.921875 0,1 0.8125,1.09375 1.140625,1.09375 0.5,0 0.875,-0.3125 1.09375,-0.59375 0.171875,0.59375 0.765625,0.59375 0.8125,0.59375 0.265625,0 0.484375,-0.125 0.671875,-0.46875 0.15625,-0.296875 0.296875,-0.875 0.296875,-0.90625 0,-0.046875 -0.03125,-0.109375 -0.109375,-0.109375 -0.109375,0 -0.125,0.046875 -0.15625,0.21875 C 4.578125,-0.46875 4.390625,-0.125 4.09375,-0.125 3.875,-0.125 3.8125,-0.3125 3.8125,-0.53125 c 0,-0.171875 0.046875,-0.359375 0.125,-0.671875 L 4.15625,-2.125 Z m 0,0"
               id="path25" />
          </g>
        </g>
        <g
           fill="#000000"
           fill-opacity="1"
           id="g28"
           transform="matrix(0.352778,0,0,0.352778,-0.796793,-0.664722)">
          <g
             id="g27"
             transform="translate(7.296,6.849)">
            <path
               d="M 3.21875,-1.125 H 3 C 2.984375,-1.03125 2.921875,-0.640625 2.84375,-0.578125 2.796875,-0.53125 2.3125,-0.53125 2.21875,-0.53125 H 1.109375 L 1.875,-1.15625 C 2.078125,-1.328125 2.609375,-1.703125 2.796875,-1.890625 2.96875,-2.0625 3.21875,-2.375 3.21875,-2.796875 c 0,-0.75 -0.671875,-1.1875 -1.484375,-1.1875 -0.765625,0 -1.296875,0.515625 -1.296875,1.078125 0,0.296875 0.25,0.34375 0.3125,0.34375 0.15625,0 0.328125,-0.109375 0.328125,-0.328125 C 1.078125,-3.015625 1,-3.21875 0.734375,-3.21875 0.875,-3.515625 1.234375,-3.75 1.65625,-3.75 c 0.625,0 0.953125,0.46875 0.953125,0.953125 0,0.421875 -0.28125,0.859375 -0.6875,1.25 L 0.5,-0.25 C 0.4375,-0.1875 0.4375,-0.1875 0.4375,0 h 2.59375 z m 0,0"
               id="path26" />
          </g>
        </g>
      </g>
      <g
         inkscape:label=""
         transform="rotate(-90,-50.417821,-77.778465)"
         id="g34">
        <g
           fill="#000000"
           fill-opacity="1"
           id="g31"
           transform="matrix(0.352778,0,0,0.352778,-0.796793,-0.701014)">
          <g
             id="g30"
             transform="translate(1.993,7.9089999)">
            <path
               d="m 2.59375,-5.59375 c 0,-0.203125 -0.140625,-0.328125 -0.328125,-0.328125 -0.25,0 -0.484375,0.234375 -0.484375,0.46875 0,0.171875 0.125,0.328125 0.328125,0.328125 0.25,0 0.484375,-0.21875 0.484375,-0.46875 z m 0.125,4.3125 c 0,-0.046875 -0.015625,-0.109375 -0.109375,-0.109375 -0.09375,0 -0.109375,0.046875 -0.140625,0.15625 C 2.25,-0.5 1.890625,-0.125 1.546875,-0.125 1.40625,-0.125 1.328125,-0.203125 1.328125,-0.421875 1.328125,-0.640625 1.40625,-0.828125 1.46875,-1 1.625,-1.4375 1.625,-1.453125 1.75,-1.734375 1.890625,-2.109375 2.09375,-2.625 2.171875,-2.875 2.25,-3.046875 2.25,-3.125 2.25,-3.203125 2.25,-3.71875 1.84375,-3.96875 1.484375,-3.96875 c -0.875,0 -1.21875,1.28125 -1.21875,1.390625 0,0.078125 0.0625,0.109375 0.125,0.109375 0.09375,0 0.109375,-0.0625 0.140625,-0.171875 0.1875,-0.640625 0.53125,-1.09375 0.921875,-1.09375 0.09375,0 0.21875,0.015625 0.21875,0.28125 0,0.21875 -0.09375,0.453125 -0.171875,0.65625 L 0.859375,-1.125 C 0.796875,-0.953125 0.75,-0.8125 0.75,-0.65625 c 0,0.421875 0.3125,0.75 0.765625,0.75 0.875,0 1.203125,-1.28125 1.203125,-1.375 z m 0,0"
               id="path29" />
          </g>
        </g>
        <g
           fill="#000000"
           fill-opacity="1"
           id="g33"
           transform="matrix(0.352778,0,0,0.352778,-0.796793,-0.701014)">
          <g
             id="g32"
             transform="translate(5.1459999,8.9049997)">
            <path
               d="M 3.21875,-1.125 H 3 C 2.984375,-1.03125 2.921875,-0.640625 2.84375,-0.578125 2.796875,-0.53125 2.3125,-0.53125 2.21875,-0.53125 H 1.109375 L 1.875,-1.15625 C 2.078125,-1.328125 2.609375,-1.703125 2.796875,-1.890625 2.96875,-2.0625 3.21875,-2.375 3.21875,-2.796875 c 0,-0.75 -0.671875,-1.1875 -1.484375,-1.1875 -0.765625,0 -1.296875,0.515625 -1.296875,1.078125 0,0.296875 0.25,0.34375 0.3125,0.34375 0.15625,0 0.328125,-0.109375 0.328125,-0.328125 C 1.078125,-3.015625 1,-3.21875 0.734375,-3.21875 0.875,-3.515625 1.234375,-3.75 1.65625,-3.75 c 0.625,0 0.953125,0.46875 0.953125,0.953125 0,0.421875 -0.28125,0.859375 -0.6875,1.25 L 0.5,-0.25 C 0.4375,-0.1875 0.4375,-0.1875 0.4375,0 h 2.59375 z m 0,0"
               id="path31" />
          </g>
        </g>
      </g>
      <g
         inkscape:label=""
         transform="rotate(-90,-32.270358,-59.604499)"
         id="g39">
        <g
           fill="#000000"
           fill-opacity="1"
           id="g36"
           transform="matrix(0.352778,0,0,0.352778,-0.796793,-0.701014)">
          <g
             id="g35"
             transform="translate(1.993,7.9089999)">
            <path
               d="m 2.59375,-5.59375 c 0,-0.203125 -0.140625,-0.328125 -0.328125,-0.328125 -0.25,0 -0.484375,0.234375 -0.484375,0.46875 0,0.171875 0.125,0.328125 0.328125,0.328125 0.25,0 0.484375,-0.21875 0.484375,-0.46875 z m 0.125,4.3125 c 0,-0.046875 -0.015625,-0.109375 -0.109375,-0.109375 -0.09375,0 -0.109375,0.046875 -0.140625,0.15625 C 2.25,-0.5 1.890625,-0.125 1.546875,-0.125 1.40625,-0.125 1.328125,-0.203125 1.328125,-0.421875 1.328125,-0.640625 1.40625,-0.828125 1.46875,-1 1.625,-1.4375 1.625,-1.453125 1.75,-1.734375 1.890625,-2.109375 2.09375,-2.625 2.171875,-2.875 2.25,-3.046875 2.25,-3.125 2.25,-3.203125 2.25,-3.71875 1.84375,-3.96875 1.484375,-3.96875 c -0.875,0 -1.21875,1.28125 -1.21875,1.390625 0,0.078125 0.0625,0.109375 0.125,0.109375 0.09375,0 0.109375,-0.0625 0.140625,-0.171875 0.1875,-0.640625 0.53125,-1.09375 0.921875,-1.09375 0.09375,0 0.21875,0.015625 0.21875,0.28125 0,0.21875 -0.09375,0.453125 -0.171875,0.65625 L 0.859375,-1.125 C 0.796875,-0.953125 0.75,-0.8125 0.75,-0.65625 c 0,0.421875 0.3125,0.75 0.765625,0.75 0.875,0 1.203125,-1.28125 1.203125,-1.375 z m 0,0"
               id="path34" />
          </g>
        </g>
        <g
           fill="#000000"
           fill-opacity="1"
           id="g38"
           transform="matrix(0.352778,0,0,0.352778,-0.796793,-0.701014)">
          <g
             id="g37"
             transform="translate(5.1459999,8.9049997)">
            <path
               d="m 2.140625,-3.796875 c 0,-0.1875 -0.015625,-0.1875 -0.203125,-0.1875 -0.390625,0.390625 -1,0.390625 -1.21875,0.390625 v 0.234375 c 0.15625,0 0.5625,0 0.921875,-0.171875 v 3.015625 c 0,0.203125 0,0.28125 -0.625,0.28125 h -0.25 V 0 c 0.328125,-0.03125 0.796875,-0.03125 1.125,-0.03125 0.328125,0 0.796875,0 1.125,0.03125 v -0.234375 h -0.25 c -0.625,0 -0.625,-0.078125 -0.625,-0.28125 z m 0,0"
               id="path36" />
          </g>
        </g>
      </g>
      <g
         inkscape:label=""
         transform="rotate(-90,-34.550553,-68.888543)"
         id="g44">
        <g
           fill="#000000"
           fill-opacity="1"
           id="g41"
           transform="matrix(0.352778,0,0,0.352778,-0.84089,-0.703439)">
          <g
             id="g40"
             transform="translate(1.993,8.1190004)">
            <path
               d="M 3.421875,-5.421875 C 3.5,-5.765625 3.53125,-5.84375 4.359375,-5.84375 c 0.25,0 0.328125,0 0.328125,-0.171875 C 4.6875,-6.125 4.578125,-6.125 4.546875,-6.125 c -0.203125,0 -0.4375,0.015625 -0.65625,0.015625 -0.21875,0 -0.421875,0.015625 -0.640625,0.015625 -0.203125,0 -0.421875,0 -0.625,-0.015625 -0.15625,0 -0.4375,-0.015625 -0.59375,-0.015625 -0.046875,0 -0.171875,0 -0.171875,0.15625 0,0.125 0.078125,0.125 0.265625,0.125 0.03125,0 0.203125,0 0.34375,0.015625 0.15625,0.015625 0.21875,0.03125 0.21875,0.140625 0,0.03125 -0.015625,0.078125 -0.046875,0.171875 L 1.4375,-0.6875 c -0.078125,0.328125 -0.09375,0.40625 -0.78125,0.40625 -0.15625,0 -0.265625,0 -0.265625,0.171875 C 0.390625,0 0.484375,0 0.640625,0 H 4.875 c 0.21875,0 0.234375,-0.015625 0.296875,-0.203125 0.09375,-0.21875 0.734375,-1.921875 0.734375,-2 0,-0.0625 -0.0625,-0.109375 -0.125,-0.109375 -0.09375,0 -0.09375,0.03125 -0.171875,0.21875 -0.296875,0.796875 -0.6875,1.8125 -2.265625,1.8125 H 2.453125 c -0.125,0 -0.140625,0 -0.171875,0 -0.09375,-0.015625 -0.125,-0.03125 -0.125,-0.09375 0,-0.015625 0,-0.03125 0.046875,-0.203125 z m 0,0"
               id="path39" />
          </g>
        </g>
        <g
           fill="#000000"
           fill-opacity="1"
           id="g43"
           transform="matrix(0.352778,0,0,0.352778,-0.84089,-0.703439)">
          <g
             id="g42"
             transform="translate(8.2629995,9.1149998)">
            <path
               d="m 2.140625,-3.796875 c 0,-0.1875 -0.015625,-0.1875 -0.203125,-0.1875 -0.390625,0.390625 -1,0.390625 -1.21875,0.390625 v 0.234375 c 0.15625,0 0.5625,0 0.921875,-0.171875 v 3.015625 c 0,0.203125 0,0.28125 -0.625,0.28125 h -0.25 V 0 c 0.328125,-0.03125 0.796875,-0.03125 1.125,-0.03125 0.328125,0 0.796875,0 1.125,0.03125 v -0.234375 h -0.25 c -0.625,0 -0.625,-0.078125 -0.625,-0.28125 z m 0,0"
               id="path41" />
          </g>
        </g>
      </g>
      <g
         inkscape:label=""
         transform="rotate(-90,-39.900119,-74.224785)"
         id="g49">
        <g
           fill="#000000"
           fill-opacity="1"
           id="g46"
           transform="matrix(0.352778,0,0,0.352778,-0.84089,-0.703439)">
          <g
             id="g45"
             transform="translate(1.993,8.1190004)">
            <path
               d="M 3.421875,-5.421875 C 3.5,-5.765625 3.53125,-5.84375 4.359375,-5.84375 c 0.25,0 0.328125,0 0.328125,-0.171875 C 4.6875,-6.125 4.578125,-6.125 4.546875,-6.125 c -0.203125,0 -0.4375,0.015625 -0.65625,0.015625 -0.21875,0 -0.421875,0.015625 -0.640625,0.015625 -0.203125,0 -0.421875,0 -0.625,-0.015625 -0.15625,0 -0.4375,-0.015625 -0.59375,-0.015625 -0.046875,0 -0.171875,0 -0.171875,0.15625 0,0.125 0.078125,0.125 0.265625,0.125 0.03125,0 0.203125,0 0.34375,0.015625 0.15625,0.015625 0.21875,0.03125 0.21875,0.140625 0,0.03125 -0.015625,0.078125 -0.046875,0.171875 L 1.4375,-0.6875 c -0.078125,0.328125 -0.09375,0.40625 -0.78125,0.40625 -0.15625,0 -0.265625,0 -0.265625,0.171875 C 0.390625,0 0.484375,0 0.640625,0 H 4.875 c 0.21875,0 0.234375,-0.015625 0.296875,-0.203125 0.09375,-0.21875 0.734375,-1.921875 0.734375,-2 0,-0.0625 -0.0625,-0.109375 -0.125,-0.109375 -0.09375,0 -0.09375,0.03125 -0.171875,0.21875 -0.296875,0.796875 -0.6875,1.8125 -2.265625,1.8125 H 2.453125 c -0.125,0 -0.140625,0 -0.171875,0 -0.09375,-0.015625 -0.125,-0.03125 -0.125,-0.09375 0,-0.015625 0,-0.03125 0.046875,-0.203125 z m 0,0"
               id="path44" />
          </g>
        </g>
        <g
           fill="#000000"
           fill-opacity="1"
           id="g48"
           transform="matrix(0.352778,0,0,0.352778,-0.84089,-0.703439)">
          <g
             id="g47"
             transform="translate(8.2629995,9.1149998)">
            <path
               d="M 3.21875,-1.125 H 3 C 2.984375,-1.03125 2.921875,-0.640625 2.84375,-0.578125 2.796875,-0.53125 2.3125,-0.53125 2.21875,-0.53125 H 1.109375 L 1.875,-1.15625 C 2.078125,-1.328125 2.609375,-1.703125 2.796875,-1.890625 2.96875,-2.0625 3.21875,-2.375 3.21875,-2.796875 c 0,-0.75 -0.671875,-1.1875 -1.484375,-1.1875 -0.765625,0 -1.296875,0.515625 -1.296875,1.078125 0,0.296875 0.25,0.34375 0.3125,0.34375 0.15625,0 0.328125,-0.109375 0.328125,-0.328125 C 1.078125,-3.015625 1,-3.21875 0.734375,-3.21875 0.875,-3.515625 1.234375,-3.75 1.65625,-3.75 c 0.625,0 0.953125,0.46875 0.953125,0.953125 0,0.421875 -0.28125,0.859375 -0.6875,1.25 L 0.5,-0.25 C 0.4375,-0.1875 0.4375,-0.1875 0.4375,0 h 2.59375 z m 0,0"
               id="path46" />
          </g>
        </g>
      </g>
      <g
         inkscape:label=""
         transform="rotate(-90,-41.585294,-67.414198)"
         id="g50">
        <g
           fill="#000000"
           fill-opacity="1"
           id="g2"
           transform="matrix(0.352778,0,0,0.352778,-0.857426,-0.703439)">
          <g
             id="use1"
             transform="translate(1.993,8.1190004)">
            <path
               d="m 8.5,-5.4375 c 0.078125,-0.328125 0.09375,-0.40625 0.796875,-0.40625 0.140625,0 0.25,0 0.25,-0.171875 C 9.546875,-6.125 9.453125,-6.125 9.28125,-6.125 H 8.109375 c -0.21875,0 -0.265625,0 -0.375,0.171875 L 4.4375,-0.84375 3.6875,-5.890625 C 3.65625,-6.125 3.640625,-6.125 3.390625,-6.125 H 2.15625 c -0.15625,0 -0.265625,0 -0.265625,0.15625 0,0.125 0.09375,0.125 0.265625,0.125 0.046875,0 0.203125,0 0.34375,0.015625 0.171875,0.015625 0.21875,0.046875 0.21875,0.140625 0,0.03125 -0.015625,0.078125 -0.03125,0.171875 l -1.140625,4.5625 c -0.125,0.46875 -0.375,0.640625 -0.96875,0.671875 C 0.5625,-0.28125 0.4375,-0.265625 0.4375,-0.109375 0.4375,-0.09375 0.4375,0 0.5625,0 0.65625,0 0.890625,-0.015625 1,-0.015625 1.140625,-0.03125 1.171875,-0.03125 1.453125,-0.03125 c 0.21875,0 0.234375,0 0.453125,0.015625 C 2.046875,-0.015625 2.25,0 2.375,0 c 0.046875,0 0.15625,0 0.15625,-0.15625 0,-0.109375 -0.09375,-0.125 -0.171875,-0.125 -0.421875,0 -0.578125,-0.140625 -0.578125,-0.375 0,-0.0625 0,-0.078125 0.03125,-0.203125 l 1.203125,-4.875 H 3.03125 l 0.8125,5.5 C 3.859375,-0.09375 3.890625,0 4,0 4.109375,0 4.15625,-0.09375 4.21875,-0.171875 l 3.640625,-5.625 H 7.875 L 6.59375,-0.6875 C 6.515625,-0.359375 6.5,-0.28125 5.828125,-0.28125 c -0.171875,0 -0.28125,0 -0.28125,0.171875 C 5.546875,-0.03125 5.609375,0 5.6875,0 5.796875,0 6.140625,-0.015625 6.25,-0.015625 6.390625,-0.03125 6.609375,-0.03125 6.796875,-0.03125 c 0.015625,0 0.375,0.015625 0.5625,0.015625 0.1875,0 0.375,0.015625 0.546875,0.015625 0.0625,0 0.171875,0 0.171875,-0.15625 0,-0.125 -0.09375,-0.125 -0.28125,-0.125 -0.03125,0 -0.1875,0 -0.328125,-0.015625 C 7.265625,-0.328125 7.25,-0.359375 7.25,-0.4375 c 0,-0.078125 0.03125,-0.15625 0.046875,-0.21875 z m 0,0"
               id="path49" />
          </g>
        </g>
      </g>
      <g
         inkscape:label=""
         transform="rotate(-90,-35.532212,-61.60096)"
         id="g55">
        <g
           fill="#000000"
           fill-opacity="1"
           id="g52"
           transform="matrix(0.352778,0,0,0.352778,-0.846402,-0.703439)">
          <g
             id="g51"
             transform="translate(1.993,8.1190004)">
            <path
               d="M 3.421875,-5.5 C 3.46875,-5.71875 3.5,-5.8125 3.65625,-5.84375 c 0.078125,0 0.375,0 0.5625,0 0.71875,0 1.703125,0 1.703125,0.90625 0,0.328125 -0.140625,1 -0.640625,1.390625 -0.21875,0.140625 -0.671875,0.375 -1.390625,0.375 h -1.0625 z M 4.8125,-3.046875 c 1.21875,-0.3125 1.96875,-0.984375 1.96875,-1.71875 0,-0.78125 -0.859375,-1.359375 -2.046875,-1.359375 h -2.59375 c -0.171875,0 -0.28125,0 -0.28125,0.15625 0,0.125 0.09375,0.125 0.28125,0.125 0.03125,0 0.1875,0 0.328125,0.015625 0.15625,0.015625 0.21875,0.03125 0.21875,0.140625 0,0.03125 0,0.078125 -0.03125,0.171875 L 1.4375,-0.6875 c -0.078125,0.328125 -0.09375,0.40625 -0.765625,0.40625 -0.171875,0 -0.265625,0 -0.265625,0.171875 C 0.40625,-0.015625 0.46875,0 0.53125,0 0.6875,0 0.953125,-0.015625 1.109375,-0.015625 1.296875,-0.03125 1.3125,-0.03125 1.65625,-0.03125 c 0.296875,0 0.3125,0 0.578125,0.015625 C 2.40625,-0.015625 2.640625,0 2.8125,0 2.875,0 2.984375,0 2.984375,-0.15625 c 0,-0.125 -0.09375,-0.125 -0.28125,-0.125 -0.03125,0 -0.1875,0 -0.328125,-0.015625 -0.203125,-0.03125 -0.21875,-0.0625 -0.21875,-0.140625 0,-0.03125 0,-0.046875 0.046875,-0.203125 l 0.578125,-2.3125 h 1.109375 c 0.796875,0 1,0.46875 1,0.8125 0,0.0625 0,0.125 -0.046875,0.3125 C 4.625,-1 4.625,-0.921875 4.625,-0.78125 c 0,0.8125 0.765625,0.984375 1.21875,0.984375 0.78125,0 1.109375,-0.90625 1.109375,-1.0625 0,-0.0625 -0.0625,-0.09375 -0.125,-0.09375 -0.09375,0 -0.09375,0.03125 -0.140625,0.140625 -0.15625,0.46875 -0.484375,0.78125 -0.8125,0.78125 -0.34375,0 -0.359375,-0.265625 -0.359375,-0.53125 0,-0.21875 0.0625,-0.734375 0.078125,-0.796875 C 5.609375,-1.5 5.65625,-1.859375 5.65625,-2 c 0,-0.515625 -0.328125,-0.859375 -0.84375,-1.046875 z m 0,0"
               id="path50" />
          </g>
        </g>
        <g
           fill="#000000"
           fill-opacity="1"
           id="g54"
           transform="matrix(0.352778,0,0,0.352778,-0.846402,-0.703439)">
          <g
             id="g53"
             transform="translate(8.9650002,9.1149998)">
            <path
               d="m 2.140625,-3.796875 c 0,-0.1875 -0.015625,-0.1875 -0.203125,-0.1875 -0.390625,0.390625 -1,0.390625 -1.21875,0.390625 v 0.234375 c 0.15625,0 0.5625,0 0.921875,-0.171875 v 3.015625 c 0,0.203125 0,0.28125 -0.625,0.28125 h -0.25 V 0 c 0.328125,-0.03125 0.796875,-0.03125 1.125,-0.03125 0.328125,0 0.796875,0 1.125,0.03125 v -0.234375 h -0.25 c -0.625,0 -0.625,-0.078125 -0.625,-0.28125 z m 0,0"
               id="path52" />
          </g>
        </g>
      </g>
      <g
         inkscape:label=""
         transform="rotate(-90,-47.565189,-73.633937)"
         id="g60">
        <g
           fill="#000000"
           fill-opacity="1"
           id="g57"
           transform="matrix(0.352778,0,0,0.352778,-0.846402,-0.703439)">
          <g
             id="g56"
             transform="translate(1.993,8.1190004)">
            <path
               d="M 3.421875,-5.5 C 3.46875,-5.71875 3.5,-5.8125 3.65625,-5.84375 c 0.078125,0 0.375,0 0.5625,0 0.71875,0 1.703125,0 1.703125,0.90625 0,0.328125 -0.140625,1 -0.640625,1.390625 -0.21875,0.140625 -0.671875,0.375 -1.390625,0.375 h -1.0625 z M 4.8125,-3.046875 c 1.21875,-0.3125 1.96875,-0.984375 1.96875,-1.71875 0,-0.78125 -0.859375,-1.359375 -2.046875,-1.359375 h -2.59375 c -0.171875,0 -0.28125,0 -0.28125,0.15625 0,0.125 0.09375,0.125 0.28125,0.125 0.03125,0 0.1875,0 0.328125,0.015625 0.15625,0.015625 0.21875,0.03125 0.21875,0.140625 0,0.03125 0,0.078125 -0.03125,0.171875 L 1.4375,-0.6875 c -0.078125,0.328125 -0.09375,0.40625 -0.765625,0.40625 -0.171875,0 -0.265625,0 -0.265625,0.171875 C 0.40625,-0.015625 0.46875,0 0.53125,0 0.6875,0 0.953125,-0.015625 1.109375,-0.015625 1.296875,-0.03125 1.3125,-0.03125 1.65625,-0.03125 c 0.296875,0 0.3125,0 0.578125,0.015625 C 2.40625,-0.015625 2.640625,0 2.8125,0 2.875,0 2.984375,0 2.984375,-0.15625 c 0,-0.125 -0.09375,-0.125 -0.28125,-0.125 -0.03125,0 -0.1875,0 -0.328125,-0.015625 -0.203125,-0.03125 -0.21875,-0.0625 -0.21875,-0.140625 0,-0.03125 0,-0.046875 0.046875,-0.203125 l 0.578125,-2.3125 h 1.109375 c 0.796875,0 1,0.46875 1,0.8125 0,0.0625 0,0.125 -0.046875,0.3125 C 4.625,-1 4.625,-0.921875 4.625,-0.78125 c 0,0.8125 0.765625,0.984375 1.21875,0.984375 0.78125,0 1.109375,-0.90625 1.109375,-1.0625 0,-0.0625 -0.0625,-0.09375 -0.125,-0.09375 -0.09375,0 -0.09375,0.03125 -0.140625,0.140625 -0.15625,0.46875 -0.484375,0.78125 -0.8125,0.78125 -0.34375,0 -0.359375,-0.265625 -0.359375,-0.53125 0,-0.21875 0.0625,-0.734375 0.078125,-0.796875 C 5.609375,-1.5 5.65625,-1.859375 5.65625,-2 c 0,-0.515625 -0.328125,-0.859375 -0.84375,-1.046875 z m 0,0"
               id="path55" />
          </g>
        </g>
        <g
           fill="#000000"
           fill-opacity="1"
           id="g59"
           transform="matrix(0.352778,0,0,0.352778,-0.846402,-0.703439)">
          <g
             id="g58"
             transform="translate(8.9650002,9.1149998)">
            <path
               d="M 3.21875,-1.125 H 3 C 2.984375,-1.03125 2.921875,-0.640625 2.84375,-0.578125 2.796875,-0.53125 2.3125,-0.53125 2.21875,-0.53125 H 1.109375 L 1.875,-1.15625 C 2.078125,-1.328125 2.609375,-1.703125 2.796875,-1.890625 2.96875,-2.0625 3.21875,-2.375 3.21875,-2.796875 c 0,-0.75 -0.671875,-1.1875 -1.484375,-1.1875 -0.765625,0 -1.296875,0.515625 -1.296875,1.078125 0,0.296875 0.25,0.34375 0.3125,0.34375 0.15625,0 0.328125,-0.109375 0.328125,-0.328125 C 1.078125,-3.015625 1,-3.21875 0.734375,-3.21875 0.875,-3.515625 1.234375,-3.75 1.65625,-3.75 c 0.625,0 0.953125,0.46875 0.953125,0.953125 0,0.421875 -0.28125,0.859375 -0.6875,1.25 L 0.5,-0.25 C 0.4375,-0.1875 0.4375,-0.1875 0.4375,0 h 2.59375 z m 0,0"
               id="path57" />
          </g>
        </g>
      </g>
      <g
         inkscape:label=""
         transform="rotate(-90,-43.061121,-70.606274)"
         id="g65">
        <g
           fill="#000000"
           fill-opacity="1"
           id="g62"
           transform="matrix(0.352778,0,0,0.352778,-0.84089,-0.703439)">
          <g
             id="g61"
             transform="translate(1.993,8.1190004)">
            <path
               d="m 6.921875,-5.15625 c 0.09375,-0.375 0.265625,-0.671875 0.96875,-0.6875 0.046875,0 0.15625,-0.015625 0.15625,-0.171875 0,-0.0625 -0.0625,-0.109375 -0.125,-0.109375 -0.203125,0 -0.703125,0.03125 -0.90625,0.03125 -0.21875,0 -0.234375,0 -0.453125,-0.015625 -0.140625,0 -0.328125,-0.015625 -0.46875,-0.015625 -0.03125,0 -0.15625,0 -0.15625,0.15625 0,0.125 0.109375,0.125 0.15625,0.125 0.34375,0 0.609375,0.078125 0.609375,0.375 0,0.046875 -0.03125,0.171875 -0.03125,0.1875 l -1,3.984375 -2.0625,-4.65625 C 3.53125,-6.109375 3.53125,-6.125 3.3125,-6.125 H 2.125 c -0.171875,0 -0.265625,0 -0.265625,0.15625 0,0.125 0.09375,0.125 0.265625,0.125 0.046875,0 0.375,0 0.59375,0.046875 L 1.5,-0.953125 c -0.09375,0.4375 -0.328125,0.640625 -0.953125,0.671875 -0.03125,0 -0.15625,0.015625 -0.15625,0.171875 0,0.015625 0,0.109375 0.125,0.109375 C 0.625,0 0.859375,-0.015625 0.96875,-0.015625 1.109375,-0.03125 1.125,-0.03125 1.421875,-0.03125 c 0.21875,0 0.234375,0 0.453125,0.015625 C 2.015625,-0.015625 2.203125,0 2.34375,0 2.390625,0 2.5,0 2.5,-0.15625 c 0,-0.109375 -0.09375,-0.125 -0.171875,-0.125 -0.421875,0 -0.59375,-0.140625 -0.59375,-0.375 0,-0.0625 0.015625,-0.078125 0.046875,-0.203125 l 1.171875,-4.734375 2.40625,5.4375 C 5.421875,-0.015625 5.421875,0 5.515625,0 5.625,0 5.640625,-0.03125 5.671875,-0.1875 Z m 0,0"
               id="path60" />
          </g>
        </g>
        <g
           fill="#000000"
           fill-opacity="1"
           id="g64"
           transform="matrix(0.352778,0,0,0.352778,-0.84089,-0.703439)">
          <g
             id="g63"
             transform="translate(9.3590002,9.1149998)">
            <path
               d="M 3.21875,-1.125 H 3 C 2.984375,-1.03125 2.921875,-0.640625 2.84375,-0.578125 2.796875,-0.53125 2.3125,-0.53125 2.21875,-0.53125 H 1.109375 L 1.875,-1.15625 C 2.078125,-1.328125 2.609375,-1.703125 2.796875,-1.890625 2.96875,-2.0625 3.21875,-2.375 3.21875,-2.796875 c 0,-0.75 -0.671875,-1.1875 -1.484375,-1.1875 -0.765625,0 -1.296875,0.515625 -1.296875,1.078125 0,0.296875 0.25,0.34375 0.3125,0.34375 0.15625,0 0.328125,-0.109375 0.328125,-0.328125 C 1.078125,-3.015625 1,-3.21875 0.734375,-3.21875 0.875,-3.515625 1.234375,-3.75 1.65625,-3.75 c 0.625,0 0.953125,0.46875 0.953125,0.953125 0,0.421875 -0.28125,0.859375 -0.6875,1.25 L 0.5,-0.25 C 0.4375,-0.1875 0.4375,-0.1875 0.4375,0 h 2.59375 z m 0,0"
               id="path62" />
          </g>
        </g>
      </g>
      <g
         inkscape:label=""
         transform="rotate(-90,-38.070568,-65.552016)"
         id="g70">
        <g
           fill="#000000"
           fill-opacity="1"
           id="g67"
           transform="matrix(0.352778,0,0,0.352778,-0.84089,-0.703439)">
          <g
             id="g66"
             transform="translate(1.993,8.1190004)">
            <path
               d="m 6.921875,-5.15625 c 0.09375,-0.375 0.265625,-0.671875 0.96875,-0.6875 0.046875,0 0.15625,-0.015625 0.15625,-0.171875 0,-0.0625 -0.0625,-0.109375 -0.125,-0.109375 -0.203125,0 -0.703125,0.03125 -0.90625,0.03125 -0.21875,0 -0.234375,0 -0.453125,-0.015625 -0.140625,0 -0.328125,-0.015625 -0.46875,-0.015625 -0.03125,0 -0.15625,0 -0.15625,0.15625 0,0.125 0.109375,0.125 0.15625,0.125 0.34375,0 0.609375,0.078125 0.609375,0.375 0,0.046875 -0.03125,0.171875 -0.03125,0.1875 l -1,3.984375 -2.0625,-4.65625 C 3.53125,-6.109375 3.53125,-6.125 3.3125,-6.125 H 2.125 c -0.171875,0 -0.265625,0 -0.265625,0.15625 0,0.125 0.09375,0.125 0.265625,0.125 0.046875,0 0.375,0 0.59375,0.046875 L 1.5,-0.953125 c -0.09375,0.4375 -0.328125,0.640625 -0.953125,0.671875 -0.03125,0 -0.15625,0.015625 -0.15625,0.171875 0,0.015625 0,0.109375 0.125,0.109375 C 0.625,0 0.859375,-0.015625 0.96875,-0.015625 1.109375,-0.03125 1.125,-0.03125 1.421875,-0.03125 c 0.21875,0 0.234375,0 0.453125,0.015625 C 2.015625,-0.015625 2.203125,0 2.34375,0 2.390625,0 2.5,0 2.5,-0.15625 c 0,-0.109375 -0.09375,-0.125 -0.171875,-0.125 -0.421875,0 -0.59375,-0.140625 -0.59375,-0.375 0,-0.0625 0.015625,-0.078125 0.046875,-0.203125 l 1.171875,-4.734375 2.40625,5.4375 C 5.421875,-0.015625 5.421875,0 5.515625,0 5.625,0 5.640625,-0.03125 5.671875,-0.1875 Z m 0,0"
               id="path65" />
          </g>
        </g>
        <g
           fill="#000000"
           fill-opacity="1"
           id="g69"
           transform="matrix(0.352778,0,0,0.352778,-0.84089,-0.703439)">
          <g
             id="g68"
             transform="translate(9.3590002,9.1149998)">
            <path
               d="m 2.140625,-3.796875 c 0,-0.1875 -0.015625,-0.1875 -0.203125,-0.1875 -0.390625,0.390625 -1,0.390625 -1.21875,0.390625 v 0.234375 c 0.15625,0 0.5625,0 0.921875,-0.171875 v 3.015625 c 0,0.203125 0,0.28125 -0.625,0.28125 h -0.25 V 0 c 0.328125,-0.03125 0.796875,-0.03125 1.125,-0.03125 0.328125,0 0.796875,0 1.125,0.03125 v -0.234375 h -0.25 c -0.625,0 -0.625,-0.078125 -0.625,-0.28125 z m 0,0"
               id="path67" />
          </g>
        </g>
      </g>
    </g>
  </g>
</svg>
