<?xml version="1.0" encoding="UTF-8" standalone="no"?>
<!-- Created with Inkscape (http://www.inkscape.org/) -->

<svg
   width="69.130196mm"
   height="19.039352mm"
   viewBox="0 0 69.130196 19.039352"
   version="1.1"
   id="svg1"
   inkscape:version="1.3.2 (091e20e, 2023-11-25, custom)"
   sodipodi:docname="Transformer_T_ECD_turn_transf.svg"
   xmlns:inkscape="http://www.inkscape.org/namespaces/inkscape"
   xmlns:sodipodi="http://sodipodi.sourceforge.net/DTD/sodipodi-0.dtd"
   xmlns="http://www.w3.org/2000/svg"
   xmlns:svg="http://www.w3.org/2000/svg">
  <sodipodi:namedview
     id="namedview1"
     pagecolor="#505050"
     bordercolor="#eeeeee"
     borderopacity="1"
     inkscape:showpageshadow="0"
     inkscape:pageopacity="0"
     inkscape:pagecheckerboard="0"
     inkscape:deskcolor="#505050"
     inkscape:document-units="mm"
     showgrid="true"
     inkscape:zoom="4.1157408"
     inkscape:cx="180.7694"
     inkscape:cy="50.902137"
     inkscape:window-width="2560"
     inkscape:window-height="1351"
     inkscape:window-x="2551"
     inkscape:window-y="-9"
     inkscape:window-maximized="1"
     inkscape:current-layer="g22">
    <inkscape:grid
       id="grid1"
       units="mm"
       originx="-41.347568"
       originy="-60.093197"
       spacingx="0.99999998"
       spacingy="1"
       empcolor="#0099e5"
       empopacity="0.30196078"
       color="#0099e5"
       opacity="0.14901961"
       empspacing="5"
       dotted="false"
       gridanglex="30"
       gridanglez="30"
       visible="true" />
  </sodipodi:namedview>
  <defs
     id="defs1">
    <marker
       inkscape:isstock="true"
       style="overflow:visible"
       id="TriangleInS"
       refX="0"
       refY="0"
       orient="auto"
       inkscape:stockid="TriangleInS">
      <path
         transform="scale(-0.2)"
         style="fill:context-stroke;fill-rule:evenodd;stroke:context-stroke;stroke-width:1pt"
         d="M 5.77,0 -2.88,5 V -5 Z"
         id="path6096" />
    </marker>
    <marker
       inkscape:isstock="true"
       style="overflow:visible"
       id="TriangleOutS"
       refX="0"
       refY="0"
       orient="auto"
       inkscape:stockid="TriangleOutS">
      <path
         transform="scale(0.2)"
         style="fill:context-stroke;fill-rule:evenodd;stroke:context-stroke;stroke-width:1pt"
         d="M 5.77,0 -2.88,5 V -5 Z"
         id="path6105" />
    </marker>
    <marker
       inkscape:isstock="true"
       style="overflow:visible"
       id="marker1"
       refX="0"
       refY="0"
       orient="auto"
       inkscape:stockid="TriangleInS">
      <path
         transform="scale(-0.2)"
         style="fill:context-stroke;fill-rule:evenodd;stroke:context-stroke;stroke-width:1pt"
         d="M 5.77,0 -2.88,5 V -5 Z"
         id="path1" />
    </marker>
    <marker
       inkscape:isstock="true"
       style="overflow:visible"
       id="marker2"
       refX="0"
       refY="0"
       orient="auto"
       inkscape:stockid="TriangleOutS">
      <path
         transform="scale(0.2)"
         style="fill:context-stroke;fill-rule:evenodd;stroke:context-stroke;stroke-width:1pt"
         d="M 5.77,0 -2.88,5 V -5 Z"
         id="path2" />
    </marker>
    <marker
       inkscape:collect="always"
       inkscape:isstock="true"
       style="overflow:visible"
       id="TriangleInM-7"
       refX="0"
       refY="0"
       orient="auto"
       inkscape:stockid="TriangleInM">
      <path
         transform="scale(-0.4)"
         style="fill:context-stroke;fill-rule:evenodd;stroke:context-stroke;stroke-width:1pt"
         d="M 5.77,0 -2.88,5 V -5 Z"
         id="path5871-1" />
    </marker>
    <marker
       inkscape:collect="always"
       inkscape:isstock="true"
       style="overflow:visible"
       id="TriangleInM-7-2"
       refX="0"
       refY="0"
       orient="auto"
       inkscape:stockid="TriangleInM">
      <path
         transform="scale(-0.4)"
         style="fill:context-stroke;fill-rule:evenodd;stroke:context-stroke;stroke-width:1pt"
         d="M 5.77,0 -2.88,5 V -5 Z"
         id="path5871-1-6" />
    </marker>
    <marker
       inkscape:collect="always"
       inkscape:isstock="true"
       style="overflow:visible"
       id="TriangleInM-7-4"
       refX="0"
       refY="0"
       orient="auto"
       inkscape:stockid="TriangleInM">
      <path
         transform="scale(-0.4)"
         style="fill:context-stroke;fill-rule:evenodd;stroke:context-stroke;stroke-width:1pt"
         d="M 5.77,0 -2.88,5 V -5 Z"
         id="path5871-1-0" />
    </marker>
    <marker
       inkscape:collect="always"
       inkscape:isstock="true"
       style="overflow:visible"
       id="TriangleInM-7-4-1"
       refX="0"
       refY="0"
       orient="auto"
       inkscape:stockid="TriangleInM">
      <path
         transform="scale(-0.4)"
         style="fill:context-stroke;fill-rule:evenodd;stroke:context-stroke;stroke-width:1pt"
         d="M 5.77,0 -2.88,5 V -5 Z"
         id="path5871-1-0-9" />
    </marker>
    <marker
       inkscape:collect="always"
       inkscape:isstock="true"
       style="overflow:visible"
       id="TriangleInM-7-4-1-2"
       refX="0"
       refY="0"
       orient="auto"
       inkscape:stockid="TriangleInM">
      <path
         transform="scale(-0.4)"
         style="fill:context-stroke;fill-rule:evenodd;stroke:context-stroke;stroke-width:1pt"
         d="M 5.77,0 -2.88,5 V -5 Z"
         id="path5871-1-0-9-1" />
    </marker>
    <marker
       inkscape:collect="always"
       inkscape:isstock="true"
       style="overflow:visible"
       id="TriangleInM-7-2-9"
       refX="0"
       refY="0"
       orient="auto"
       inkscape:stockid="TriangleInM">
      <path
         transform="scale(-0.4)"
         style="fill:context-stroke;fill-rule:evenodd;stroke:context-stroke;stroke-width:1pt"
         d="M 5.77,0 -2.88,5 V -5 Z"
         id="path5871-1-6-3" />
    </marker>
  </defs>
  <g
     inkscape:label="Ebene 1"
     inkscape:groupmode="layer"
     id="layer1"
     transform="translate(-41.3475, -60.0931)">
    <g
       id="use13911"
       transform="matrix(6.12303e-17 1 -1 6.12303e-17 -47.1667 34.5729)">
      <title
         id="title20">Resistor</title>
      <path
         style="fill:none;stroke:#000000;stroke-width:0.264583px;stroke-linecap:round;stroke-linejoin:miter;stroke-opacity:1"
         d="m 30.427082,-103.99168 v 2.65281"
         id="path20"
         inkscape:connector-curvature="0"
         sodipodi:nodetypes="cc" />
      <path
         style="fill:none;stroke:#000000;stroke-width:0.264583px;stroke-linecap:round;stroke-linejoin:miter;stroke-opacity:1"
         d="m 30.427082,-96.047194 -3e-6,6.49791"
         id="path21"
         inkscape:connector-curvature="0"
         sodipodi:nodetypes="cc" />
      <path
         style="fill:none;stroke:#000000;stroke-width:0.264583px;stroke-linecap:round;stroke-linejoin:miter;stroke-opacity:1"
         d="m 43.656253,-107.16668 v 17.617396"
         id="path21-8"
         inkscape:connector-curvature="0"
         sodipodi:nodetypes="cc" />
      <path
         style="fill:none;stroke:#000000;stroke-width:0.264583px;stroke-linecap:round;stroke-linejoin:round;stroke-opacity:1"
         d="m 31.749999,-98.693034 v 2.64584 h -2.645834 v -5.291676 h 2.645834 v 2.645836"
         id="path22"
         inkscape:connector-curvature="0" />
      <path
         style="fill:none;stroke:#000000;stroke-width:0.265;stroke-linecap:round;stroke-linejoin:miter;stroke-dasharray:none;stroke-opacity:1"
         d="m 30.427081,-143.56956 v 5.8278"
         id="path20-6"
         inkscape:connector-curvature="0"
         sodipodi:nodetypes="cc" />
      <path
         style="fill:none;stroke:#000000;stroke-width:0.265;stroke-linecap:round;stroke-linejoin:miter;stroke-dasharray:none;stroke-opacity:1"
         d="m 30.42708,-156.59058 1.3e-5,4.33779"
         id="path20-6-4"
         inkscape:connector-curvature="0"
         sodipodi:nodetypes="cc" />
      <path
         style="fill:none;stroke:#000000;stroke-width:0.265;stroke-linecap:round;stroke-linejoin:miter;stroke-dasharray:none;stroke-opacity:1"
         d="m 43.65625,-156.59059 v 4.3378"
         id="path20-6-4-5"
         inkscape:connector-curvature="0"
         sodipodi:nodetypes="cc" />
      <path
         style="fill:none;stroke:#000000;stroke-width:0.264583px;stroke-linecap:round;stroke-linejoin:miter;stroke-opacity:1"
         d="m 30.427081,-132.45008 1.7e-5,3.55607"
         id="path21-2"
         inkscape:connector-curvature="0"
         sodipodi:nodetypes="cc" />
      <path
         style="fill:none;stroke:#000000;stroke-width:0.264583px;stroke-linecap:round;stroke-linejoin:round;stroke-opacity:1"
         d="m 31.749998,-135.09592 v 2.64584 h -2.645834 v -5.29167 h 2.645834 v 2.64583"
         id="path22-7"
         inkscape:connector-curvature="0" />
      <title
         id="title22">Resistor</title>
      <title
         id="title23">Resistor</title>
      <ellipse
         ry="0.39901915"
         rx="0.40116644"
         cy="30.427078"
         cx="89.148117"
         id="path5953-31"
         style="fill:none;fill-opacity:1;stroke:#000000;stroke-width:0.256;stroke-linecap:round;stroke-linejoin:round;stroke-miterlimit:4;stroke-dasharray:none;stroke-dashoffset:0;stroke-opacity:1;paint-order:normal"
         transform="rotate(-90)" />
      <ellipse
         ry="0.39901915"
         rx="0.40116644"
         cy="43.656254"
         cx="89.148117"
         id="path5953-31-2"
         style="fill:none;fill-opacity:1;stroke:#000000;stroke-width:0.256;stroke-linecap:round;stroke-linejoin:round;stroke-miterlimit:4;stroke-dasharray:none;stroke-dashoffset:0;stroke-opacity:1;paint-order:normal"
         transform="rotate(-90)" />
      <path
         style="fill:none;stroke:#000000;stroke-width:0.264583px;stroke-linecap:round;stroke-linejoin:miter;stroke-opacity:1"
         d="m 43.656253,-107.16668 -7e-6,-36.40289"
         id="path21-8-5"
         inkscape:connector-curvature="0"
         sodipodi:nodetypes="cc" />
      <ellipse
         ry="0.39901915"
         rx="0.40116644"
         cy="-43.65625"
         cx="-156.99176"
         id="path5953-31-2-0"
         style="fill:none;fill-opacity:1;stroke:#000000;stroke-width:0.256;stroke-linecap:round;stroke-linejoin:round;stroke-miterlimit:4;stroke-dasharray:none;stroke-dashoffset:0;stroke-opacity:1;paint-order:normal"
         transform="rotate(90)" />
      <ellipse
         ry="0.39901915"
         rx="0.40116644"
         cy="30.42708"
         cx="156.99174"
         id="path5953-31-5"
         style="fill:none;fill-opacity:1;stroke:#000000;stroke-width:0.256;stroke-linecap:round;stroke-linejoin:round;stroke-miterlimit:4;stroke-dasharray:none;stroke-dashoffset:0;stroke-opacity:1;paint-order:normal"
         transform="rotate(-90)" />
      <path
         inkscape:connector-curvature="0"
         id="path5718-7-5-72"
         d="m 41.765375,-89.166701 -10.33829,2.5e-5"
         style="fill:none;stroke:#000000;stroke-width:0.264999;stroke-linecap:round;stroke-linejoin:round;stroke-miterlimit:4;stroke-dasharray:none;stroke-opacity:1;marker-start:url(#TriangleInM-7)"
         sodipodi:nodetypes="cc" />
      <path
         inkscape:connector-curvature="0"
         id="path5718-7-5-72-8"
         d="m 30.42708,-92.479628 5e-6,0.682828"
         style="fill:none;stroke:#000000;stroke-width:0.264999;stroke-linecap:round;stroke-linejoin:round;stroke-miterlimit:4;stroke-dasharray:none;stroke-opacity:1;marker-start:url(#TriangleInM-7-4)"
         sodipodi:nodetypes="cc" />
      <path
         inkscape:connector-curvature="0"
         id="path5718-7-5-72-8-8"
         d="m 30.427078,-140.93458 5e-6,-0.68282"
         style="fill:none;stroke:#000000;stroke-width:0.264999;stroke-linecap:round;stroke-linejoin:round;stroke-miterlimit:4;stroke-dasharray:none;stroke-opacity:1;marker-start:url(#TriangleInM-7-4-1)"
         sodipodi:nodetypes="cc" />
      <path
         inkscape:connector-curvature="0"
         id="path5718-7-5-72-8-8-1"
         d="m 30.42709,-154.77182 5e-6,-0.68282"
         style="fill:none;stroke:#000000;stroke-width:0.264999;stroke-linecap:round;stroke-linejoin:round;stroke-miterlimit:4;stroke-dasharray:none;stroke-opacity:1;marker-start:url(#TriangleInM-7-4-1-2)"
         sodipodi:nodetypes="cc" />
      <path
         inkscape:connector-curvature="0"
         id="path5718-7-5-72-0"
         d="m 41.903622,-156.99195 -10.466862,-2.3e-4"
         style="fill:none;stroke:#000000;stroke-width:0.264999;stroke-linecap:round;stroke-linejoin:round;stroke-miterlimit:4;stroke-dasharray:none;stroke-opacity:1;marker-start:url(#TriangleInM-7-2)"
         sodipodi:nodetypes="cc" />
      <path
         inkscape:connector-curvature="0"
         id="path5718-7-5-72-0-5"
         d="m 41.971806,-142.72183 -10.466862,-2.3e-4"
         style="fill:none;stroke:#000000;stroke-width:0.264999;stroke-linecap:round;stroke-linejoin:round;stroke-miterlimit:4;stroke-dasharray:none;stroke-opacity:1;marker-start:url(#TriangleInM-7-2-9)"
         sodipodi:nodetypes="cc" />
      <g
         inkscape:label=""
         transform="rotate(-90,-26.95447,-62.78186)"
         id="g24">
        <g
           fill="#000000"
           fill-opacity="1"
           id="g3"
           transform="matrix(0.352778,0,0,0.352778,-0.796793,-0.664722)">
          <g
             id="use2"
             transform="translate(1.993,5.8530002)">
            <path
               d="m 4.375,-2.921875 c 0.046875,-0.234375 0.15625,-0.640625 0.15625,-0.6875 0,-0.109375 -0.078125,-0.25 -0.28125,-0.25 -0.125,0 -0.265625,0.078125 -0.328125,0.1875 C 3.890625,-3.59375 3.28125,-1.15625 3.21875,-0.859375 3.03125,-0.53125 2.671875,-0.125 2.171875,-0.125 1.625,-0.125 1.625,-0.6875 1.625,-0.859375 c 0,-0.40625 0.109375,-0.84375 0.5,-1.84375 0.078125,-0.21875 0.125,-0.34375 0.125,-0.5 0,-0.453125 -0.328125,-0.765625 -0.765625,-0.765625 -0.859375,0 -1.21875,1.28125 -1.21875,1.390625 0,0.078125 0.0625,0.109375 0.125,0.109375 0.09375,0 0.109375,-0.0625 0.140625,-0.171875 0.1875,-0.65625 0.53125,-1.09375 0.921875,-1.09375 0.1875,0 0.21875,0.125 0.21875,0.296875 0,0.140625 -0.046875,0.3125 -0.125,0.515625 -0.421875,1.125 -0.53125,1.5 -0.53125,1.921875 0,1 0.8125,1.09375 1.140625,1.09375 0.5,0 0.875,-0.3125 1.09375,-0.59375 0.171875,0.59375 0.765625,0.59375 0.8125,0.59375 0.265625,0 0.484375,-0.125 0.671875,-0.46875 0.15625,-0.296875 0.296875,-0.875 0.296875,-0.90625 0,-0.046875 -0.03125,-0.109375 -0.109375,-0.109375 -0.109375,0 -0.125,0.046875 -0.15625,0.21875 C 4.578125,-0.46875 4.390625,-0.125 4.09375,-0.125 3.875,-0.125 3.8125,-0.3125 3.8125,-0.53125 c 0,-0.171875 0.046875,-0.359375 0.125,-0.671875 L 4.15625,-2.125 Z m 0,0"
               id="path23" />
          </g>
        </g>
        <g
           fill="#000000"
           fill-opacity="1"
           id="g4"
           transform="matrix(0.352778,0,0,0.352778,-0.796793,-0.664722)">
          <g
             id="use3"
             transform="translate(7.296,6.849)">
            <path
               d="m 2.140625,-3.796875 c 0,-0.1875 -0.015625,-0.1875 -0.203125,-0.1875 -0.390625,0.390625 -1,0.390625 -1.21875,0.390625 v 0.234375 c 0.15625,0 0.5625,0 0.921875,-0.171875 v 3.015625 c 0,0.203125 0,0.28125 -0.625,0.28125 h -0.25 V 0 c 0.328125,-0.03125 0.796875,-0.03125 1.125,-0.03125 0.328125,0 0.796875,0 1.125,0.03125 v -0.234375 h -0.25 c -0.625,0 -0.625,-0.078125 -0.625,-0.28125 z m 0,0"
               id="path24" />
          </g>
        </g>
      </g>
      <g
         inkscape:label=""
         transform="rotate(-90,-58.861981,-94.689371)"
         id="g29">
        <g
           fill="#000000"
           fill-opacity="1"
           id="g26"
           transform="matrix(0.352778,0,0,0.352778,-0.796793,-0.664722)">
          <g
             id="g25"
             transform="translate(1.993,5.8530002)">
            <path
               d="m 4.375,-2.921875 c 0.046875,-0.234375 0.15625,-0.640625 0.15625,-0.6875 0,-0.109375 -0.078125,-0.25 -0.28125,-0.25 -0.125,0 -0.265625,0.078125 -0.328125,0.1875 C 3.890625,-3.59375 3.28125,-1.15625 3.21875,-0.859375 3.03125,-0.53125 2.671875,-0.125 2.171875,-0.125 1.625,-0.125 1.625,-0.6875 1.625,-0.859375 c 0,-0.40625 0.109375,-0.84375 0.5,-1.84375 0.078125,-0.21875 0.125,-0.34375 0.125,-0.5 0,-0.453125 -0.328125,-0.765625 -0.765625,-0.765625 -0.859375,0 -1.21875,1.28125 -1.21875,1.390625 0,0.078125 0.0625,0.109375 0.125,0.109375 0.09375,0 0.109375,-0.0625 0.140625,-0.171875 0.1875,-0.65625 0.53125,-1.09375 0.921875,-1.09375 0.1875,0 0.21875,0.125 0.21875,0.296875 0,0.140625 -0.046875,0.3125 -0.125,0.515625 -0.421875,1.125 -0.53125,1.5 -0.53125,1.921875 0,1 0.8125,1.09375 1.140625,1.09375 0.5,0 0.875,-0.3125 1.09375,-0.59375 0.171875,0.59375 0.765625,0.59375 0.8125,0.59375 0.265625,0 0.484375,-0.125 0.671875,-0.46875 0.15625,-0.296875 0.296875,-0.875 0.296875,-0.90625 0,-0.046875 -0.03125,-0.109375 -0.109375,-0.109375 -0.109375,0 -0.125,0.046875 -0.15625,0.21875 C 4.578125,-0.46875 4.390625,-0.125 4.09375,-0.125 3.875,-0.125 3.8125,-0.3125 3.8125,-0.53125 c 0,-0.171875 0.046875,-0.359375 0.125,-0.671875 L 4.15625,-2.125 Z m 0,0"
               id="path25" />
          </g>
        </g>
        <g
           fill="#000000"
           fill-opacity="1"
           id="g28"
           transform="matrix(0.352778,0,0,0.352778,-0.796793,-0.664722)">
          <g
             id="g27"
             transform="translate(7.296,6.849)">
            <path
               d="M 3.21875,-1.125 H 3 C 2.984375,-1.03125 2.921875,-0.640625 2.84375,-0.578125 2.796875,-0.53125 2.3125,-0.53125 2.21875,-0.53125 H 1.109375 L 1.875,-1.15625 C 2.078125,-1.328125 2.609375,-1.703125 2.796875,-1.890625 2.96875,-2.0625 3.21875,-2.375 3.21875,-2.796875 c 0,-0.75 -0.671875,-1.1875 -1.484375,-1.1875 -0.765625,0 -1.296875,0.515625 -1.296875,1.078125 0,0.296875 0.25,0.34375 0.3125,0.34375 0.15625,0 0.328125,-0.109375 0.328125,-0.328125 C 1.078125,-3.015625 1,-3.21875 0.734375,-3.21875 0.875,-3.515625 1.234375,-3.75 1.65625,-3.75 c 0.625,0 0.953125,0.46875 0.953125,0.953125 0,0.421875 -0.28125,0.859375 -0.6875,1.25 L 0.5,-0.25 C 0.4375,-0.1875 0.4375,-0.1875 0.4375,0 h 2.59375 z m 0,0"
               id="path26" />
          </g>
        </g>
      </g>
      <g
         inkscape:label=""
         transform="rotate(-90,-63.43897,-90.799614)"
         id="g34">
        <g
           fill="#000000"
           fill-opacity="1"
           id="g31"
           transform="matrix(0.352778,0,0,0.352778,-0.796793,-0.701014)">
          <g
             id="g30"
             transform="translate(1.993,7.9089999)">
            <path
               d="m 2.59375,-5.59375 c 0,-0.203125 -0.140625,-0.328125 -0.328125,-0.328125 -0.25,0 -0.484375,0.234375 -0.484375,0.46875 0,0.171875 0.125,0.328125 0.328125,0.328125 0.25,0 0.484375,-0.21875 0.484375,-0.46875 z m 0.125,4.3125 c 0,-0.046875 -0.015625,-0.109375 -0.109375,-0.109375 -0.09375,0 -0.109375,0.046875 -0.140625,0.15625 C 2.25,-0.5 1.890625,-0.125 1.546875,-0.125 1.40625,-0.125 1.328125,-0.203125 1.328125,-0.421875 1.328125,-0.640625 1.40625,-0.828125 1.46875,-1 1.625,-1.4375 1.625,-1.453125 1.75,-1.734375 1.890625,-2.109375 2.09375,-2.625 2.171875,-2.875 2.25,-3.046875 2.25,-3.125 2.25,-3.203125 2.25,-3.71875 1.84375,-3.96875 1.484375,-3.96875 c -0.875,0 -1.21875,1.28125 -1.21875,1.390625 0,0.078125 0.0625,0.109375 0.125,0.109375 0.09375,0 0.109375,-0.0625 0.140625,-0.171875 0.1875,-0.640625 0.53125,-1.09375 0.921875,-1.09375 0.09375,0 0.21875,0.015625 0.21875,0.28125 0,0.21875 -0.09375,0.453125 -0.171875,0.65625 L 0.859375,-1.125 C 0.796875,-0.953125 0.75,-0.8125 0.75,-0.65625 c 0,0.421875 0.3125,0.75 0.765625,0.75 0.875,0 1.203125,-1.28125 1.203125,-1.375 z m 0,0"
               id="path29" />
          </g>
        </g>
        <g
           fill="#000000"
           fill-opacity="1"
           id="g33"
           transform="matrix(0.352778,0,0,0.352778,-0.796793,-0.701014)">
          <g
             id="g32"
             transform="translate(5.1459999,8.9049997)">
            <path
               d="M 3.21875,-1.125 H 3 C 2.984375,-1.03125 2.921875,-0.640625 2.84375,-0.578125 2.796875,-0.53125 2.3125,-0.53125 2.21875,-0.53125 H 1.109375 L 1.875,-1.15625 C 2.078125,-1.328125 2.609375,-1.703125 2.796875,-1.890625 2.96875,-2.0625 3.21875,-2.375 3.21875,-2.796875 c 0,-0.75 -0.671875,-1.1875 -1.484375,-1.1875 -0.765625,0 -1.296875,0.515625 -1.296875,1.078125 0,0.296875 0.25,0.34375 0.3125,0.34375 0.15625,0 0.328125,-0.109375 0.328125,-0.328125 C 1.078125,-3.015625 1,-3.21875 0.734375,-3.21875 0.875,-3.515625 1.234375,-3.75 1.65625,-3.75 c 0.625,0 0.953125,0.46875 0.953125,0.953125 0,0.421875 -0.28125,0.859375 -0.6875,1.25 L 0.5,-0.25 C 0.4375,-0.1875 0.4375,-0.1875 0.4375,0 h 2.59375 z m 0,0"
               id="path31" />
          </g>
        </g>
      </g>
      <g
         inkscape:label=""
         transform="rotate(-90,-32.270358,-59.604499)"
         id="g39">
        <g
           fill="#000000"
           fill-opacity="1"
           id="g36"
           transform="matrix(0.352778,0,0,0.352778,-0.796793,-0.701014)">
          <g
             id="g35"
             transform="translate(1.993,7.9089999)">
            <path
               d="m 2.59375,-5.59375 c 0,-0.203125 -0.140625,-0.328125 -0.328125,-0.328125 -0.25,0 -0.484375,0.234375 -0.484375,0.46875 0,0.171875 0.125,0.328125 0.328125,0.328125 0.25,0 0.484375,-0.21875 0.484375,-0.46875 z m 0.125,4.3125 c 0,-0.046875 -0.015625,-0.109375 -0.109375,-0.109375 -0.09375,0 -0.109375,0.046875 -0.140625,0.15625 C 2.25,-0.5 1.890625,-0.125 1.546875,-0.125 1.40625,-0.125 1.328125,-0.203125 1.328125,-0.421875 1.328125,-0.640625 1.40625,-0.828125 1.46875,-1 1.625,-1.4375 1.625,-1.453125 1.75,-1.734375 1.890625,-2.109375 2.09375,-2.625 2.171875,-2.875 2.25,-3.046875 2.25,-3.125 2.25,-3.203125 2.25,-3.71875 1.84375,-3.96875 1.484375,-3.96875 c -0.875,0 -1.21875,1.28125 -1.21875,1.390625 0,0.078125 0.0625,0.109375 0.125,0.109375 0.09375,0 0.109375,-0.0625 0.140625,-0.171875 0.1875,-0.640625 0.53125,-1.09375 0.921875,-1.09375 0.09375,0 0.21875,0.015625 0.21875,0.28125 0,0.21875 -0.09375,0.453125 -0.171875,0.65625 L 0.859375,-1.125 C 0.796875,-0.953125 0.75,-0.8125 0.75,-0.65625 c 0,0.421875 0.3125,0.75 0.765625,0.75 0.875,0 1.203125,-1.28125 1.203125,-1.375 z m 0,0"
               id="path34" />
          </g>
        </g>
        <g
           fill="#000000"
           fill-opacity="1"
           id="g38"
           transform="matrix(0.352778,0,0,0.352778,-0.796793,-0.701014)">
          <g
             id="g37"
             transform="translate(5.1459999,8.9049997)">
            <path
               d="m 2.140625,-3.796875 c 0,-0.1875 -0.015625,-0.1875 -0.203125,-0.1875 -0.390625,0.390625 -1,0.390625 -1.21875,0.390625 v 0.234375 c 0.15625,0 0.5625,0 0.921875,-0.171875 v 3.015625 c 0,0.203125 0,0.28125 -0.625,0.28125 h -0.25 V 0 c 0.328125,-0.03125 0.796875,-0.03125 1.125,-0.03125 0.328125,0 0.796875,0 1.125,0.03125 v -0.234375 h -0.25 c -0.625,0 -0.625,-0.078125 -0.625,-0.28125 z m 0,0"
               id="path36" />
          </g>
        </g>
      </g>
      <g
         inkscape:label=""
         transform="rotate(-90,-35.532212,-61.60096)"
         id="g55">
        <g
           fill="#000000"
           fill-opacity="1"
           id="g52"
           transform="matrix(0.352778,0,0,0.352778,-0.846402,-0.703439)">
          <g
             id="g51"
             transform="translate(1.993,8.1190004)">
            <path
               d="M 3.421875,-5.5 C 3.46875,-5.71875 3.5,-5.8125 3.65625,-5.84375 c 0.078125,0 0.375,0 0.5625,0 0.71875,0 1.703125,0 1.703125,0.90625 0,0.328125 -0.140625,1 -0.640625,1.390625 -0.21875,0.140625 -0.671875,0.375 -1.390625,0.375 h -1.0625 z M 4.8125,-3.046875 c 1.21875,-0.3125 1.96875,-0.984375 1.96875,-1.71875 0,-0.78125 -0.859375,-1.359375 -2.046875,-1.359375 h -2.59375 c -0.171875,0 -0.28125,0 -0.28125,0.15625 0,0.125 0.09375,0.125 0.28125,0.125 0.03125,0 0.1875,0 0.328125,0.015625 0.15625,0.015625 0.21875,0.03125 0.21875,0.140625 0,0.03125 0,0.078125 -0.03125,0.171875 L 1.4375,-0.6875 c -0.078125,0.328125 -0.09375,0.40625 -0.765625,0.40625 -0.171875,0 -0.265625,0 -0.265625,0.171875 C 0.40625,-0.015625 0.46875,0 0.53125,0 0.6875,0 0.953125,-0.015625 1.109375,-0.015625 1.296875,-0.03125 1.3125,-0.03125 1.65625,-0.03125 c 0.296875,0 0.3125,0 0.578125,0.015625 C 2.40625,-0.015625 2.640625,0 2.8125,0 2.875,0 2.984375,0 2.984375,-0.15625 c 0,-0.125 -0.09375,-0.125 -0.28125,-0.125 -0.03125,0 -0.1875,0 -0.328125,-0.015625 -0.203125,-0.03125 -0.21875,-0.0625 -0.21875,-0.140625 0,-0.03125 0,-0.046875 0.046875,-0.203125 l 0.578125,-2.3125 h 1.109375 c 0.796875,0 1,0.46875 1,0.8125 0,0.0625 0,0.125 -0.046875,0.3125 C 4.625,-1 4.625,-0.921875 4.625,-0.78125 c 0,0.8125 0.765625,0.984375 1.21875,0.984375 0.78125,0 1.109375,-0.90625 1.109375,-1.0625 0,-0.0625 -0.0625,-0.09375 -0.125,-0.09375 -0.09375,0 -0.09375,0.03125 -0.140625,0.140625 -0.15625,0.46875 -0.484375,0.78125 -0.8125,0.78125 -0.34375,0 -0.359375,-0.265625 -0.359375,-0.53125 0,-0.21875 0.0625,-0.734375 0.078125,-0.796875 C 5.609375,-1.5 5.65625,-1.859375 5.65625,-2 c 0,-0.515625 -0.328125,-0.859375 -0.84375,-1.046875 z m 0,0"
               id="path50" />
          </g>
        </g>
        <g
           fill="#000000"
           fill-opacity="1"
           id="g54"
           transform="matrix(0.352778,0,0,0.352778,-0.846402,-0.703439)">
          <g
             id="g53"
             transform="translate(8.9650002,9.1149998)">
            <path
               d="m 2.140625,-3.796875 c 0,-0.1875 -0.015625,-0.1875 -0.203125,-0.1875 -0.390625,0.390625 -1,0.390625 -1.21875,0.390625 v 0.234375 c 0.15625,0 0.5625,0 0.921875,-0.171875 v 3.015625 c 0,0.203125 0,0.28125 -0.625,0.28125 h -0.25 V 0 c 0.328125,-0.03125 0.796875,-0.03125 1.125,-0.03125 0.328125,0 0.796875,0 1.125,0.03125 v -0.234375 h -0.25 c -0.625,0 -0.625,-0.078125 -0.625,-0.28125 z m 0,0"
               id="path52" />
          </g>
        </g>
      </g>
      <g
         id="use41951"
         transform="rotate(180,53.578124,-25.204182)">
        <title
           id="title2">Inductor</title>
        <path
           sodipodi:arc-type="arc"
           style="opacity:1;fill:none;fill-opacity:1;stroke:#000000;stroke-width:0.265;stroke-linecap:round;stroke-linejoin:round;stroke-miterlimit:4;stroke-dasharray:none;stroke-dashoffset:0;stroke-opacity:1;paint-order:normal"
           id="path6"
           inkscape:transform-center-x="-0.85988921"
           inkscape:transform-center-y="-0.64492188"
           sodipodi:type="arc"
           sodipodi:cx="76.729156"
           sodipodi:cy="62.049992"
           sodipodi:rx="1.0583333"
           sodipodi:ry="1.0583333"
           sodipodi:start="4.712389"
           sodipodi:end="1.5707963"
           sodipodi:open="true"
           d="m 76.729156,60.991658 a 1.0583333,1.0583333 0 0 1 1.058334,1.058334 1.0583333,1.0583333 0 0 1 -1.058334,1.058333" />
        <path
           sodipodi:arc-type="arc"
           style="opacity:1;fill:none;fill-opacity:1;stroke:#000000;stroke-width:0.265;stroke-linecap:round;stroke-linejoin:round;stroke-miterlimit:4;stroke-dasharray:none;stroke-dashoffset:0;stroke-opacity:1;paint-order:normal"
           id="path19"
           inkscape:transform-center-x="-0.85988921"
           inkscape:transform-center-y="-0.64492188"
           sodipodi:type="arc"
           sodipodi:cx="76.729164"
           sodipodi:cy="59.933323"
           sodipodi:rx="1.0583333"
           sodipodi:ry="1.0583333"
           sodipodi:start="4.712389"
           sodipodi:end="1.5707963"
           sodipodi:open="true"
           d="m 76.729164,58.87499 a 1.0583333,1.0583333 0 0 1 1.058333,1.058333 1.0583333,1.0583333 0 0 1 -1.058333,1.058333" />
        <path
           sodipodi:arc-type="arc"
           style="opacity:1;fill:none;fill-opacity:1;stroke:#000000;stroke-width:0.265;stroke-linecap:round;stroke-linejoin:round;stroke-miterlimit:4;stroke-dasharray:none;stroke-dashoffset:0;stroke-opacity:1;paint-order:normal"
           id="path27"
           inkscape:transform-center-x="-0.85988921"
           inkscape:transform-center-y="-0.64492188"
           sodipodi:type="arc"
           sodipodi:cx="76.729164"
           sodipodi:cy="57.816658"
           sodipodi:rx="1.0583333"
           sodipodi:ry="1.0583333"
           sodipodi:start="4.712389"
           sodipodi:end="1.5707963"
           d="m 76.729164,56.758325 a 1.0583333,1.0583333 0 0 1 1.058333,1.058333 1.0583333,1.0583333 0 0 1 -1.058333,1.058333"
           sodipodi:open="true" />
        <path
           sodipodi:arc-type="arc"
           style="opacity:1;fill:none;fill-opacity:1;stroke:#000000;stroke-width:0.265;stroke-linecap:round;stroke-linejoin:round;stroke-miterlimit:4;stroke-dasharray:none;stroke-dashoffset:0;stroke-opacity:1;paint-order:normal"
           id="path28"
           inkscape:transform-center-x="-0.85988921"
           inkscape:transform-center-y="-0.64492188"
           sodipodi:type="arc"
           sodipodi:cx="76.729164"
           sodipodi:cy="55.699989"
           sodipodi:rx="1.0583333"
           sodipodi:ry="1.0583333"
           sodipodi:start="4.712389"
           sodipodi:end="1.5707963"
           sodipodi:open="true"
           d="m 76.729164,54.641656 a 1.0583333,1.0583333 0 0 1 1.058333,1.058333 1.0583333,1.0583333 0 0 1 -1.058333,1.058334" />
        <path
           style="fill:none;stroke:#000000;stroke-width:0.264583px;stroke-linecap:round;stroke-linejoin:miter;stroke-opacity:1"
           d="M 76.729166,64.166653 V 63.10832"
           id="path30"
           inkscape:connector-curvature="0" />
        <path
           style="fill:none;stroke:#000000;stroke-width:0.264583px;stroke-linecap:round;stroke-linejoin:miter;stroke-opacity:1"
           d="m 76.729166,53.58332 v 1.058333"
           id="path32"
           inkscape:connector-curvature="0" />
        <title
           id="title32">Inductor</title>
      </g>
      <g
         id="use41951-43"
         transform="rotate(-90,-30.737069,-8.8990794)">
        <title
           id="title2-9">Inductor</title>
        <path
           sodipodi:arc-type="arc"
           style="opacity:1;fill:none;fill-opacity:1;stroke:#000000;stroke-width:0.265;stroke-linecap:round;stroke-linejoin:round;stroke-miterlimit:4;stroke-dasharray:none;stroke-dashoffset:0;stroke-opacity:1;paint-order:normal"
           id="path6-8"
           inkscape:transform-center-x="-0.85988921"
           inkscape:transform-center-y="-0.64492188"
           sodipodi:type="arc"
           sodipodi:cx="76.729156"
           sodipodi:cy="62.049992"
           sodipodi:rx="1.0583333"
           sodipodi:ry="1.0583333"
           sodipodi:start="4.712389"
           sodipodi:end="1.5707963"
           sodipodi:open="true"
           d="m 76.729156,60.991658 a 1.0583333,1.0583333 0 0 1 1.058334,1.058334 1.0583333,1.0583333 0 0 1 -1.058334,1.058333" />
        <path
           sodipodi:arc-type="arc"
           style="opacity:1;fill:none;fill-opacity:1;stroke:#000000;stroke-width:0.265;stroke-linecap:round;stroke-linejoin:round;stroke-miterlimit:4;stroke-dasharray:none;stroke-dashoffset:0;stroke-opacity:1;paint-order:normal"
           id="path19-75"
           inkscape:transform-center-x="-0.85988921"
           inkscape:transform-center-y="-0.64492188"
           sodipodi:type="arc"
           sodipodi:cx="76.729164"
           sodipodi:cy="59.933323"
           sodipodi:rx="1.0583333"
           sodipodi:ry="1.0583333"
           sodipodi:start="4.712389"
           sodipodi:end="1.5707963"
           sodipodi:open="true"
           d="m 76.729164,58.87499 a 1.0583333,1.0583333 0 0 1 1.058333,1.058333 1.0583333,1.0583333 0 0 1 -1.058333,1.058333" />
        <path
           sodipodi:arc-type="arc"
           style="opacity:1;fill:none;fill-opacity:1;stroke:#000000;stroke-width:0.265;stroke-linecap:round;stroke-linejoin:round;stroke-miterlimit:4;stroke-dasharray:none;stroke-dashoffset:0;stroke-opacity:1;paint-order:normal"
           id="path27-7"
           inkscape:transform-center-x="-0.85988921"
           inkscape:transform-center-y="-0.64492188"
           sodipodi:type="arc"
           sodipodi:cx="76.729164"
           sodipodi:cy="57.816658"
           sodipodi:rx="1.0583333"
           sodipodi:ry="1.0583333"
           sodipodi:start="4.712389"
           sodipodi:end="1.5707963"
           d="m 76.729164,56.758325 a 1.0583333,1.0583333 0 0 1 1.058333,1.058333 1.0583333,1.0583333 0 0 1 -1.058333,1.058333"
           sodipodi:open="true" />
        <path
           sodipodi:arc-type="arc"
           style="opacity:1;fill:none;fill-opacity:1;stroke:#000000;stroke-width:0.265;stroke-linecap:round;stroke-linejoin:round;stroke-miterlimit:4;stroke-dasharray:none;stroke-dashoffset:0;stroke-opacity:1;paint-order:normal"
           id="path28-9"
           inkscape:transform-center-x="-0.85988921"
           inkscape:transform-center-y="-0.64492188"
           sodipodi:type="arc"
           sodipodi:cx="76.729164"
           sodipodi:cy="55.699989"
           sodipodi:rx="1.0583333"
           sodipodi:ry="1.0583333"
           sodipodi:start="4.712389"
           sodipodi:end="1.5707963"
           sodipodi:open="true"
           d="m 76.729164,54.641656 a 1.0583333,1.0583333 0 0 1 1.058333,1.058333 1.0583333,1.0583333 0 0 1 -1.058333,1.058334" />
        <path
           style="fill:none;stroke:#000000;stroke-width:0.264583px;stroke-linecap:round;stroke-linejoin:miter;stroke-opacity:1"
           d="m 76.737202,65.494241 -0.008,-2.385921"
           id="path30-2"
           inkscape:connector-curvature="0"
           sodipodi:nodetypes="cc" />
        <path
           style="fill:none;stroke:#000000;stroke-width:0.264583px;stroke-linecap:round;stroke-linejoin:miter;stroke-opacity:1"
           d="m 76.72113,52.26508 0.008,2.376573"
           id="path32-2"
           inkscape:connector-curvature="0"
           sodipodi:nodetypes="cc" />
        <title
           id="title32-2">Inductor</title>
      </g>
      <g
         id="use41951-4"
         transform="rotate(180,53.578132,-32.363679)">
        <title
           id="title2-8">Inductor</title>
        <path
           sodipodi:arc-type="arc"
           style="opacity:1;fill:none;fill-opacity:1;stroke:#000000;stroke-width:0.265;stroke-linecap:round;stroke-linejoin:round;stroke-miterlimit:4;stroke-dasharray:none;stroke-dashoffset:0;stroke-opacity:1;paint-order:normal"
           id="path6-1"
           inkscape:transform-center-x="-0.85988921"
           inkscape:transform-center-y="-0.64492188"
           sodipodi:type="arc"
           sodipodi:cx="76.729156"
           sodipodi:cy="62.049992"
           sodipodi:rx="1.0583333"
           sodipodi:ry="1.0583333"
           sodipodi:start="4.712389"
           sodipodi:end="1.5707963"
           sodipodi:open="true"
           d="m 76.729156,60.991658 a 1.0583333,1.0583333 0 0 1 1.058334,1.058334 1.0583333,1.0583333 0 0 1 -1.058334,1.058333" />
        <path
           sodipodi:arc-type="arc"
           style="opacity:1;fill:none;fill-opacity:1;stroke:#000000;stroke-width:0.265;stroke-linecap:round;stroke-linejoin:round;stroke-miterlimit:4;stroke-dasharray:none;stroke-dashoffset:0;stroke-opacity:1;paint-order:normal"
           id="path19-7"
           inkscape:transform-center-x="-0.85988921"
           inkscape:transform-center-y="-0.64492188"
           sodipodi:type="arc"
           sodipodi:cx="76.729164"
           sodipodi:cy="59.933323"
           sodipodi:rx="1.0583333"
           sodipodi:ry="1.0583333"
           sodipodi:start="4.712389"
           sodipodi:end="1.5707963"
           sodipodi:open="true"
           d="m 76.729164,58.87499 a 1.0583333,1.0583333 0 0 1 1.058333,1.058333 1.0583333,1.0583333 0 0 1 -1.058333,1.058333" />
        <path
           sodipodi:arc-type="arc"
           style="opacity:1;fill:none;fill-opacity:1;stroke:#000000;stroke-width:0.265;stroke-linecap:round;stroke-linejoin:round;stroke-miterlimit:4;stroke-dasharray:none;stroke-dashoffset:0;stroke-opacity:1;paint-order:normal"
           id="path27-9"
           inkscape:transform-center-x="-0.85988921"
           inkscape:transform-center-y="-0.64492188"
           sodipodi:type="arc"
           sodipodi:cx="76.729164"
           sodipodi:cy="57.816658"
           sodipodi:rx="1.0583333"
           sodipodi:ry="1.0583333"
           sodipodi:start="4.712389"
           sodipodi:end="1.5707963"
           d="m 76.729164,56.758325 a 1.0583333,1.0583333 0 0 1 1.058333,1.058333 1.0583333,1.0583333 0 0 1 -1.058333,1.058333"
           sodipodi:open="true" />
        <path
           sodipodi:arc-type="arc"
           style="opacity:1;fill:none;fill-opacity:1;stroke:#000000;stroke-width:0.265;stroke-linecap:round;stroke-linejoin:round;stroke-miterlimit:4;stroke-dasharray:none;stroke-dashoffset:0;stroke-opacity:1;paint-order:normal"
           id="path28-0"
           inkscape:transform-center-x="-0.85988921"
           inkscape:transform-center-y="-0.64492188"
           sodipodi:type="arc"
           sodipodi:cx="76.729164"
           sodipodi:cy="55.699989"
           sodipodi:rx="1.0583333"
           sodipodi:ry="1.0583333"
           sodipodi:start="4.712389"
           sodipodi:end="1.5707963"
           sodipodi:open="true"
           d="m 76.729164,54.641656 a 1.0583333,1.0583333 0 0 1 1.058333,1.058333 1.0583333,1.0583333 0 0 1 -1.058333,1.058334" />
        <path
           style="fill:none;stroke:#000000;stroke-width:0.264583px;stroke-linecap:round;stroke-linejoin:miter;stroke-opacity:1"
           d="M 76.729166,64.166653 V 63.10832"
           id="path30-9"
           inkscape:connector-curvature="0" />
        <path
           style="fill:none;stroke:#000000;stroke-width:0.264583px;stroke-linecap:round;stroke-linejoin:miter;stroke-opacity:1"
           d="m 76.729182,49.847659 -1.6e-5,4.793994"
           id="path32-5"
           inkscape:connector-curvature="0"
           sodipodi:nodetypes="cc" />
        <title
           id="title32-5">Inductor</title>
      </g>
      <ellipse
         ry="0.39901915"
         rx="0.40116644"
         cy="30.462955"
         cx="116.36531"
         id="path5953-3"
         style="fill:#000000;fill-opacity:1;stroke:#000000;stroke-width:0.256;stroke-linecap:round;stroke-linejoin:round;stroke-miterlimit:4;stroke-dasharray:none;stroke-dashoffset:0;stroke-opacity:1;paint-order:normal"
         transform="rotate(-90)" />
      <ellipse
         ry="0.39901915"
         rx="0.40116644"
         cy="43.65625"
         cx="116.36935"
         id="path5953-3-9"
         style="fill:#000000;fill-opacity:1;stroke:#000000;stroke-width:0.256;stroke-linecap:round;stroke-linejoin:round;stroke-miterlimit:4;stroke-dasharray:none;stroke-dashoffset:0;stroke-opacity:1;paint-order:normal"
         transform="rotate(-90)" />
      <rect
         style="fill:none;fill-rule:evenodd;stroke:#000000;stroke-width:0.265;stroke-linecap:round;stroke-miterlimit:3.9;stroke-dasharray:none"
         id="rect1"
         width="8.4648399"
         height="14.8675"
         x="143.70186"
         y="29.559593"
         transform="rotate(-90)" />
      <g
         inkscape:label=""
         transform="rotate(-90,-56.783879,-83.710297)"
         id="g42">
        <g
           fill="#000000"
           fill-opacity="1"
           id="g17"
           transform="matrix(0.352778,0,0,0.352778,-0.796793,-0.694708)">
          <g
             id="g16"
             transform="translate(1.993,9.1219997)">
            <path
               d="m 2.59375,-5.59375 c 0,-0.203125 -0.140625,-0.328125 -0.328125,-0.328125 -0.25,0 -0.484375,0.234375 -0.484375,0.46875 0,0.171875 0.125,0.328125 0.328125,0.328125 0.25,0 0.484375,-0.21875 0.484375,-0.46875 z m 0.125,4.3125 c 0,-0.046875 -0.015625,-0.109375 -0.109375,-0.109375 -0.09375,0 -0.109375,0.046875 -0.140625,0.15625 C 2.25,-0.5 1.890625,-0.125 1.546875,-0.125 1.40625,-0.125 1.328125,-0.203125 1.328125,-0.421875 1.328125,-0.640625 1.40625,-0.828125 1.46875,-1 1.625,-1.4375 1.625,-1.453125 1.75,-1.734375 1.890625,-2.109375 2.09375,-2.625 2.171875,-2.875 2.25,-3.046875 2.25,-3.125 2.25,-3.203125 2.25,-3.71875 1.84375,-3.96875 1.484375,-3.96875 c -0.875,0 -1.21875,1.28125 -1.21875,1.390625 0,0.078125 0.0625,0.109375 0.125,0.109375 0.09375,0 0.109375,-0.0625 0.140625,-0.171875 0.1875,-0.640625 0.53125,-1.09375 0.921875,-1.09375 0.09375,0 0.21875,0.015625 0.21875,0.28125 0,0.21875 -0.09375,0.453125 -0.171875,0.65625 L 0.859375,-1.125 C 0.796875,-0.953125 0.75,-0.8125 0.75,-0.65625 c 0,0.421875 0.3125,0.75 0.765625,0.75 0.875,0 1.203125,-1.28125 1.203125,-1.375 z m 0,0"
               id="path15" />
          </g>
        </g>
        <g
           fill="#000000"
           fill-opacity="1"
           id="g19"
           transform="matrix(0.352778,0,0,0.352778,-0.796793,-0.694708)">
          <g
             id="g18"
             transform="translate(5.1459999,5.3130002)">
            <path
               d="M 1.875,-2.8125 C 1.921875,-2.90625 1.9375,-2.96875 1.9375,-3 c 0,-0.1875 -0.171875,-0.34375 -0.375,-0.34375 -0.234375,0 -0.3125,0.203125 -0.328125,0.296875 l -0.84375,2.5625 c 0,0.03125 -0.03125,0.078125 -0.03125,0.09375 0,0.109375 0.25,0.15625 0.25,0.15625 0.0625,0 0.078125,-0.046875 0.109375,-0.09375 z m 0,0"
               id="path17" />
          </g>
        </g>
        <g
           fill="#000000"
           fill-opacity="1"
           id="g41"
           transform="matrix(0.352778,0,0,0.352778,-0.796793,-0.694708)">
          <g
             id="g40"
             transform="translate(5.1459999,10.699)">
            <path
               d="M 3.21875,-1.125 H 3 C 2.984375,-1.03125 2.921875,-0.640625 2.84375,-0.578125 2.796875,-0.53125 2.3125,-0.53125 2.21875,-0.53125 H 1.109375 L 1.875,-1.15625 C 2.078125,-1.328125 2.609375,-1.703125 2.796875,-1.890625 2.96875,-2.0625 3.21875,-2.375 3.21875,-2.796875 c 0,-0.75 -0.671875,-1.1875 -1.484375,-1.1875 -0.765625,0 -1.296875,0.515625 -1.296875,1.078125 0,0.296875 0.25,0.34375 0.3125,0.34375 0.15625,0 0.328125,-0.109375 0.328125,-0.328125 C 1.078125,-3.015625 1,-3.21875 0.734375,-3.21875 0.875,-3.515625 1.234375,-3.75 1.65625,-3.75 c 0.625,0 0.953125,0.46875 0.953125,0.953125 0,0.421875 -0.28125,0.859375 -0.6875,1.25 L 0.5,-0.25 C 0.4375,-0.1875 0.4375,-0.1875 0.4375,0 h 2.59375 z m 0,0"
               id="path33" />
          </g>
        </g>
      </g>
      <g
         inkscape:label=""
         transform="rotate(-90,-51.991479,-86.695623)"
         id="g49">
        <g
           fill="#000000"
           fill-opacity="1"
           id="g44"
           transform="matrix(0.352778,0,0,0.352778,-0.796793,-0.694708)">
          <g
             id="g43"
             transform="translate(1.993,9.1219997)">
            <path
               d="m 4.375,-2.921875 c 0.046875,-0.234375 0.15625,-0.640625 0.15625,-0.6875 0,-0.109375 -0.078125,-0.25 -0.28125,-0.25 -0.125,0 -0.265625,0.078125 -0.328125,0.1875 C 3.890625,-3.59375 3.28125,-1.15625 3.21875,-0.859375 3.03125,-0.53125 2.671875,-0.125 2.171875,-0.125 1.625,-0.125 1.625,-0.6875 1.625,-0.859375 c 0,-0.40625 0.109375,-0.84375 0.5,-1.84375 0.078125,-0.21875 0.125,-0.34375 0.125,-0.5 0,-0.453125 -0.328125,-0.765625 -0.765625,-0.765625 -0.859375,0 -1.21875,1.28125 -1.21875,1.390625 0,0.078125 0.0625,0.109375 0.125,0.109375 0.09375,0 0.109375,-0.0625 0.140625,-0.171875 0.1875,-0.65625 0.53125,-1.09375 0.921875,-1.09375 0.1875,0 0.21875,0.125 0.21875,0.296875 0,0.140625 -0.046875,0.3125 -0.125,0.515625 -0.421875,1.125 -0.53125,1.5 -0.53125,1.921875 0,1 0.8125,1.09375 1.140625,1.09375 0.5,0 0.875,-0.3125 1.09375,-0.59375 0.171875,0.59375 0.765625,0.59375 0.8125,0.59375 0.265625,0 0.484375,-0.125 0.671875,-0.46875 0.15625,-0.296875 0.296875,-0.875 0.296875,-0.90625 0,-0.046875 -0.03125,-0.109375 -0.109375,-0.109375 -0.109375,0 -0.125,0.046875 -0.15625,0.21875 C 4.578125,-0.46875 4.390625,-0.125 4.09375,-0.125 3.875,-0.125 3.8125,-0.3125 3.8125,-0.53125 c 0,-0.171875 0.046875,-0.359375 0.125,-0.671875 L 4.15625,-2.125 Z m 0,0"
               id="path42" />
          </g>
        </g>
        <g
           fill="#000000"
           fill-opacity="1"
           id="g46"
           transform="matrix(0.352778,0,0,0.352778,-0.796793,-0.694708)">
          <g
             id="g45"
             transform="translate(7.296,5.3130002)">
            <path
               d="M 1.875,-2.8125 C 1.921875,-2.90625 1.9375,-2.96875 1.9375,-3 c 0,-0.1875 -0.171875,-0.34375 -0.375,-0.34375 -0.234375,0 -0.3125,0.203125 -0.328125,0.296875 l -0.84375,2.5625 c 0,0.03125 -0.03125,0.078125 -0.03125,0.09375 0,0.109375 0.25,0.15625 0.25,0.15625 0.0625,0 0.078125,-0.046875 0.109375,-0.09375 z m 0,0"
               id="path44" />
          </g>
        </g>
        <g
           fill="#000000"
           fill-opacity="1"
           id="g48"
           transform="matrix(0.352778,0,0,0.352778,-0.796793,-0.694708)">
          <g
             id="g47"
             transform="translate(7.296,10.699)">
            <path
               d="M 3.21875,-1.125 H 3 C 2.984375,-1.03125 2.921875,-0.640625 2.84375,-0.578125 2.796875,-0.53125 2.3125,-0.53125 2.21875,-0.53125 H 1.109375 L 1.875,-1.15625 C 2.078125,-1.328125 2.609375,-1.703125 2.796875,-1.890625 2.96875,-2.0625 3.21875,-2.375 3.21875,-2.796875 c 0,-0.75 -0.671875,-1.1875 -1.484375,-1.1875 -0.765625,0 -1.296875,0.515625 -1.296875,1.078125 0,0.296875 0.25,0.34375 0.3125,0.34375 0.15625,0 0.328125,-0.109375 0.328125,-0.328125 C 1.078125,-3.015625 1,-3.21875 0.734375,-3.21875 0.875,-3.515625 1.234375,-3.75 1.65625,-3.75 c 0.625,0 0.953125,0.46875 0.953125,0.953125 0,0.421875 -0.28125,0.859375 -0.6875,1.25 L 0.5,-0.25 C 0.4375,-0.1875 0.4375,-0.1875 0.4375,0 h 2.59375 z m 0,0"
               id="path46" />
          </g>
        </g>
      </g>
      <g
         inkscape:label=""
         transform="rotate(-90,-41.2591,-77.4689)"
         id="g66">
        <g
           fill="#000000"
           fill-opacity="1"
           id="g61"
           transform="matrix(0.352778,0,0,0.352778,13.856385,-11.366898)">
          <g
             id="g50"
             transform="translate(1.993,9.1219997)">
            <path
               d="M 3.421875,-5.5 C 3.46875,-5.71875 3.5,-5.8125 3.65625,-5.84375 c 0.078125,0 0.375,0 0.5625,0 0.71875,0 1.703125,0 1.703125,0.90625 0,0.328125 -0.140625,1 -0.640625,1.390625 -0.21875,0.140625 -0.671875,0.375 -1.390625,0.375 h -1.0625 z M 4.8125,-3.046875 c 1.21875,-0.3125 1.96875,-0.984375 1.96875,-1.71875 0,-0.78125 -0.859375,-1.359375 -2.046875,-1.359375 h -2.59375 c -0.171875,0 -0.28125,0 -0.28125,0.15625 0,0.125 0.09375,0.125 0.28125,0.125 0.03125,0 0.1875,0 0.328125,0.015625 0.15625,0.015625 0.21875,0.03125 0.21875,0.140625 0,0.03125 0,0.078125 -0.03125,0.171875 L 1.4375,-0.6875 c -0.078125,0.328125 -0.09375,0.40625 -0.765625,0.40625 -0.171875,0 -0.265625,0 -0.265625,0.171875 C 0.40625,-0.015625 0.46875,0 0.53125,0 0.6875,0 0.953125,-0.015625 1.109375,-0.015625 1.296875,-0.03125 1.3125,-0.03125 1.65625,-0.03125 c 0.296875,0 0.3125,0 0.578125,0.015625 C 2.40625,-0.015625 2.640625,0 2.8125,0 2.875,0 2.984375,0 2.984375,-0.15625 c 0,-0.125 -0.09375,-0.125 -0.28125,-0.125 -0.03125,0 -0.1875,0 -0.328125,-0.015625 -0.203125,-0.03125 -0.21875,-0.0625 -0.21875,-0.140625 0,-0.03125 0,-0.046875 0.046875,-0.203125 l 0.578125,-2.3125 h 1.109375 c 0.796875,0 1,0.46875 1,0.8125 0,0.0625 0,0.125 -0.046875,0.3125 C 4.625,-1 4.625,-0.921875 4.625,-0.78125 c 0,0.8125 0.765625,0.984375 1.21875,0.984375 0.78125,0 1.109375,-0.90625 1.109375,-1.0625 0,-0.0625 -0.0625,-0.09375 -0.125,-0.09375 -0.09375,0 -0.09375,0.03125 -0.140625,0.140625 -0.15625,0.46875 -0.484375,0.78125 -0.8125,0.78125 -0.34375,0 -0.359375,-0.265625 -0.359375,-0.53125 0,-0.21875 0.0625,-0.734375 0.078125,-0.796875 C 5.609375,-1.5 5.65625,-1.859375 5.65625,-2 c 0,-0.515625 -0.328125,-0.859375 -0.84375,-1.046875 z m 0,0"
               id="path49" />
          </g>
        </g>
        <g
           fill="#000000"
           fill-opacity="1"
           id="g63"
           transform="matrix(0.352778,0,0,0.352778,13.963999,-11.384268)"
           inkscape:transform-center-x="13.821429"
           inkscape:transform-center-y="9.5785715">
          <g
             id="g62"
             transform="translate(9.0279999,5.3130002)">
            <path
               d="M 1.875,-2.8125 C 1.921875,-2.90625 1.9375,-2.96875 1.9375,-3 c 0,-0.1875 -0.171875,-0.34375 -0.375,-0.34375 -0.234375,0 -0.3125,0.203125 -0.328125,0.296875 l -0.84375,2.5625 c 0,0.03125 -0.03125,0.078125 -0.03125,0.09375 0,0.109375 0.25,0.15625 0.25,0.15625 0.0625,0 0.078125,-0.046875 0.109375,-0.09375 z m 0,0"
               id="path61" />
          </g>
        </g>
        <g
           fill="#000000"
           fill-opacity="1"
           id="g65"
           transform="matrix(0.352778,0,0,0.352778,13.856385,-11.366898)">
          <g
             id="g64"
             transform="translate(8.9650002,10.699)">
            <path
               d="M 3.21875,-1.125 H 3 C 2.984375,-1.03125 2.921875,-0.640625 2.84375,-0.578125 2.796875,-0.53125 2.3125,-0.53125 2.21875,-0.53125 H 1.109375 L 1.875,-1.15625 C 2.078125,-1.328125 2.609375,-1.703125 2.796875,-1.890625 2.96875,-2.0625 3.21875,-2.375 3.21875,-2.796875 c 0,-0.75 -0.671875,-1.1875 -1.484375,-1.1875 -0.765625,0 -1.296875,0.515625 -1.296875,1.078125 0,0.296875 0.25,0.34375 0.3125,0.34375 0.15625,0 0.328125,-0.109375 0.328125,-0.328125 C 1.078125,-3.015625 1,-3.21875 0.734375,-3.21875 0.875,-3.515625 1.234375,-3.75 1.65625,-3.75 c 0.625,0 0.953125,0.46875 0.953125,0.953125 0,0.421875 -0.28125,0.859375 -0.6875,1.25 L 0.5,-0.25 C 0.4375,-0.1875 0.4375,-0.1875 0.4375,0 h 2.59375 z m 0,0"
               id="path63" />
          </g>
        </g>
      </g>
      <g
         inkscape:label=""
         transform="matrix(6.12303e-17 -1 1 6.12303e-17 35.4372 -142.716)"
         id="g22">
        <g
           fill="#000000"
           fill-opacity="1"
           id="g5"
           transform="matrix(0.352778,0,0,0.352778,0.44244336,-0.703439)">
          <g
             id="use4"
             transform="translate(1.993,8.1190004)">
            <path
               d="m 6.921875,-5.15625 c 0.09375,-0.375 0.265625,-0.671875 0.96875,-0.6875 0.046875,0 0.15625,-0.015625 0.15625,-0.171875 0,-0.0625 -0.0625,-0.109375 -0.125,-0.109375 -0.203125,0 -0.703125,0.03125 -0.90625,0.03125 -0.21875,0 -0.234375,0 -0.453125,-0.015625 -0.140625,0 -0.328125,-0.015625 -0.46875,-0.015625 -0.03125,0 -0.15625,0 -0.15625,0.15625 0,0.125 0.109375,0.125 0.15625,0.125 0.34375,0 0.609375,0.078125 0.609375,0.375 0,0.046875 -0.03125,0.171875 -0.03125,0.1875 l -1,3.984375 -2.0625,-4.65625 C 3.53125,-6.109375 3.53125,-6.125 3.3125,-6.125 H 2.125 c -0.171875,0 -0.265625,0 -0.265625,0.15625 0,0.125 0.09375,0.125 0.265625,0.125 0.046875,0 0.375,0 0.59375,0.046875 L 1.5,-0.953125 c -0.09375,0.4375 -0.328125,0.640625 -0.953125,0.671875 -0.03125,0 -0.15625,0.015625 -0.15625,0.171875 0,0.015625 0,0.109375 0.125,0.109375 C 0.625,0 0.859375,-0.015625 0.96875,-0.015625 1.109375,-0.03125 1.125,-0.03125 1.421875,-0.03125 c 0.21875,0 0.234375,0 0.453125,0.015625 C 2.015625,-0.015625 2.203125,0 2.34375,0 2.390625,0 2.5,0 2.5,-0.15625 c 0,-0.109375 -0.09375,-0.125 -0.171875,-0.125 -0.421875,0 -0.59375,-0.140625 -0.59375,-0.375 0,-0.0625 0.015625,-0.078125 0.046875,-0.203125 l 1.171875,-4.734375 2.40625,5.4375 C 5.421875,-0.015625 5.421875,0 5.515625,0 5.625,0 5.640625,-0.03125 5.671875,-0.1875 Z m 0,0"
               id="path9" />
          </g>
        </g>
        <g
           fill="#000000"
           fill-opacity="1"
           id="g6"
           transform="matrix(0.352778,0,0,0.352778,0.44244336,-0.703439)">
          <g
             id="use5"
             transform="translate(9.3590002,9.1149998)">
            <path
               d="m 2.140625,-3.796875 c 0,-0.1875 -0.015625,-0.1875 -0.203125,-0.1875 -0.390625,0.390625 -1,0.390625 -1.21875,0.390625 v 0.234375 c 0.15625,0 0.5625,0 0.921875,-0.171875 v 3.015625 c 0,0.203125 0,0.28125 -0.625,0.28125 h -0.25 V 0 c 0.328125,-0.03125 0.796875,-0.03125 1.125,-0.03125 0.328125,0 0.796875,0 1.125,0.03125 v -0.234375 h -0.25 c -0.625,0 -0.625,-0.078125 -0.625,-0.28125 z m 0,0"
               id="path10" />
          </g>
        </g>
        <g
           fill="#000000"
           fill-opacity="1"
           id="g7"
           transform="matrix(0.352778,0,0,0.352778,-0.92124715,-0.703439)">
          <g
             id="use6"
             transform="translate(16.07,8.1190004)">
            <path
               d="m 1.765625,-3.375 c 0,-0.28125 -0.21875,-0.484375 -0.484375,-0.484375 -0.28125,0 -0.484375,0.203125 -0.484375,0.484375 0,0.25 0.203125,0.484375 0.484375,0.484375 0.265625,0 0.484375,-0.234375 0.484375,-0.484375 z m 0,2.890625 C 1.765625,-0.75 1.546875,-0.96875 1.28125,-0.96875 1,-0.96875 0.796875,-0.75 0.796875,-0.484375 0.796875,-0.21875 1,0 1.28125,0 1.546875,0 1.765625,-0.21875 1.765625,-0.484375 Z m 0,0"
               id="path11" />
          </g>
        </g>
        <g
           fill="#000000"
           fill-opacity="1"
           id="g8"
           transform="matrix(0.352778,0,0,0.352778,-2.0587479,-0.703439)">
          <g
             id="use7"
             transform="translate(21.190001,8.1190004)">
            <path
               d="m 6.921875,-5.15625 c 0.09375,-0.375 0.265625,-0.671875 0.96875,-0.6875 0.046875,0 0.15625,-0.015625 0.15625,-0.171875 0,-0.0625 -0.0625,-0.109375 -0.125,-0.109375 -0.203125,0 -0.703125,0.03125 -0.90625,0.03125 -0.21875,0 -0.234375,0 -0.453125,-0.015625 -0.140625,0 -0.328125,-0.015625 -0.46875,-0.015625 -0.03125,0 -0.15625,0 -0.15625,0.15625 0,0.125 0.109375,0.125 0.15625,0.125 0.34375,0 0.609375,0.078125 0.609375,0.375 0,0.046875 -0.03125,0.171875 -0.03125,0.1875 l -1,3.984375 -2.0625,-4.65625 C 3.53125,-6.109375 3.53125,-6.125 3.3125,-6.125 H 2.125 c -0.171875,0 -0.265625,0 -0.265625,0.15625 0,0.125 0.09375,0.125 0.265625,0.125 0.046875,0 0.375,0 0.59375,0.046875 L 1.5,-0.953125 c -0.09375,0.4375 -0.328125,0.640625 -0.953125,0.671875 -0.03125,0 -0.15625,0.015625 -0.15625,0.171875 0,0.015625 0,0.109375 0.125,0.109375 C 0.625,0 0.859375,-0.015625 0.96875,-0.015625 1.109375,-0.03125 1.125,-0.03125 1.421875,-0.03125 c 0.21875,0 0.234375,0 0.453125,0.015625 C 2.015625,-0.015625 2.203125,0 2.34375,0 2.390625,0 2.5,0 2.5,-0.15625 c 0,-0.109375 -0.09375,-0.125 -0.171875,-0.125 -0.421875,0 -0.59375,-0.140625 -0.59375,-0.375 0,-0.0625 0.015625,-0.078125 0.046875,-0.203125 l 1.171875,-4.734375 2.40625,5.4375 C 5.421875,-0.015625 5.421875,0 5.515625,0 5.625,0 5.640625,-0.03125 5.671875,-0.1875 Z m 0,0"
               id="path8" />
          </g>
        </g>
        <g
           fill="#000000"
           fill-opacity="1"
           id="g21"
           transform="matrix(0.352778,0,0,0.352778,-2.0587479,-0.703439)">
          <g
             id="g20"
             transform="translate(28.556999,9.1149998)">
            <path
               d="M 3.21875,-1.125 H 3 C 2.984375,-1.03125 2.921875,-0.640625 2.84375,-0.578125 2.796875,-0.53125 2.3125,-0.53125 2.21875,-0.53125 H 1.109375 L 1.875,-1.15625 C 2.078125,-1.328125 2.609375,-1.703125 2.796875,-1.890625 2.96875,-2.0625 3.21875,-2.375 3.21875,-2.796875 c 0,-0.75 -0.671875,-1.1875 -1.484375,-1.1875 -0.765625,0 -1.296875,0.515625 -1.296875,1.078125 0,0.296875 0.25,0.34375 0.3125,0.34375 0.15625,0 0.328125,-0.109375 0.328125,-0.328125 C 1.078125,-3.015625 1,-3.21875 0.734375,-3.21875 0.875,-3.515625 1.234375,-3.75 1.65625,-3.75 c 0.625,0 0.953125,0.46875 0.953125,0.953125 0,0.421875 -0.28125,0.859375 -0.6875,1.25 L 0.5,-0.25 C 0.4375,-0.1875 0.4375,-0.1875 0.4375,0 h 2.59375 z m 0,0"
               id="path18" />
          </g>
        </g>
        <g
           inkscape:label=""
           transform="translate(-36.249792,-9.3536597)"
           id="g116">
          <g
             fill="#000000"
             fill-opacity="1"
             id="g110"
             transform="matrix(0.352778,0,0,0.352778,-0.84089,-0.703792)">
            <g
               id="g109"
               transform="translate(1.993,8.1199999)">
              <path
                 d="M 3.421875,-5.421875 C 3.5,-5.765625 3.53125,-5.84375 4.359375,-5.84375 c 0.25,0 0.328125,0 0.328125,-0.171875 C 4.6875,-6.125 4.578125,-6.125 4.546875,-6.125 c -0.203125,0 -0.4375,0.015625 -0.65625,0.015625 -0.21875,0 -0.421875,0.015625 -0.640625,0.015625 -0.203125,0 -0.421875,0 -0.625,-0.015625 -0.15625,0 -0.4375,-0.015625 -0.59375,-0.015625 -0.046875,0 -0.171875,0 -0.171875,0.15625 0,0.125 0.078125,0.125 0.265625,0.125 0.03125,0 0.203125,0 0.34375,0.015625 0.15625,0.015625 0.21875,0.03125 0.21875,0.140625 0,0.03125 -0.015625,0.078125 -0.046875,0.171875 L 1.4375,-0.6875 c -0.078125,0.328125 -0.09375,0.40625 -0.78125,0.40625 -0.15625,0 -0.265625,0 -0.265625,0.171875 C 0.390625,0 0.484375,0 0.640625,0 H 4.875 c 0.21875,0 0.234375,-0.015625 0.296875,-0.203125 0.09375,-0.21875 0.734375,-1.921875 0.734375,-2 0,-0.0625 -0.0625,-0.109375 -0.125,-0.109375 -0.09375,0 -0.09375,0.03125 -0.171875,0.21875 -0.296875,0.796875 -0.6875,1.8125 -2.265625,1.8125 H 2.453125 c -0.125,0 -0.140625,0 -0.171875,0 -0.09375,-0.015625 -0.125,-0.03125 -0.125,-0.09375 0,-0.015625 0,-0.03125 0.046875,-0.203125 z m 0,0"
                 id="path7" />
            </g>
          </g>
          <g
             fill="#000000"
             fill-opacity="1"
             id="g112"
             transform="matrix(0.352778,0,0,0.352778,-0.84089,-0.703792)">
            <g
               id="g111"
               transform="translate(8.2629995,9.1160002)">
              <path
                 d="m 2.140625,-3.796875 c 0,-0.1875 -0.015625,-0.1875 -0.203125,-0.1875 -0.390625,0.390625 -1,0.390625 -1.21875,0.390625 v 0.234375 c 0.15625,0 0.5625,0 0.921875,-0.171875 v 3.015625 c 0,0.203125 0,0.28125 -0.625,0.28125 h -0.25 V 0 c 0.328125,-0.03125 0.796875,-0.03125 1.125,-0.03125 0.328125,0 0.796875,0 1.125,0.03125 v -0.234375 h -0.25 c -0.625,0 -0.625,-0.078125 -0.625,-0.28125 z m 0,0"
                 id="path110" />
            </g>
          </g>
          <g
             fill="#000000"
             fill-opacity="1"
             id="g115"
             transform="matrix(0.352778,0,0,0.352778,-0.84089,-0.703792)">
            <g
               id="g113"
               transform="translate(11.916,9.1160002)">
              <path
                 d="m 1.375,-0.078125 c 0,0.5625 -0.296875,0.890625 -0.453125,1.03125 C 0.875,1 0.84375,1.015625 0.84375,1.046875 c 0,0.0625 0.0625,0.109375 0.109375,0.109375 0.078125,0 0.625,-0.46875 0.625,-1.203125 0,-0.390625 -0.15625,-0.671875 -0.453125,-0.671875 -0.234375,0 -0.359375,0.1875 -0.359375,0.359375 C 0.765625,-0.1875 0.890625,0 1.140625,0 1.234375,0 1.3125,-0.03125 1.375,-0.078125 Z m 0,0"
                 id="path112" />
            </g>
            <g
               id="g114"
               transform="translate(14.185097,9.1160002)">
              <path
                 d="m 3.734375,-2.15625 c 0.0625,0 0.328125,0 0.328125,-0.25 0,-0.171875 -0.171875,-0.171875 -0.28125,-0.171875 H 2.171875 c -0.984375,0 -1.734375,0.90625 -1.734375,1.640625 0,0.609375 0.484375,1 1.078125,1 0.828125,0 1.6875,-0.703125 1.6875,-1.578125 C 3.203125,-1.796875 3.125,-2 3.015625,-2.15625 Z M 1.53125,-0.140625 c -0.203125,0 -0.640625,-0.078125 -0.640625,-0.65625 0,-0.375 0.203125,-1.359375 1.1875,-1.359375 0.34375,0 0.65625,0.125 0.65625,0.578125 0,0.171875 -0.078125,0.703125 -0.390625,1.046875 -0.234375,0.25 -0.546875,0.390625 -0.8125,0.390625 z m 0,0"
                 id="path113" />
            </g>
          </g>
        </g>
      </g>
      <g
         inkscape:label=""
         transform="rotate(-90,-41.342745,-76.985579)"
         id="g77">
        <g
           fill="#000000"
           fill-opacity="1"
           id="g57"
           transform="matrix(0.352778,0,0,0.352778,-0.857426,-0.69506)">
          <g
             id="g56"
             transform="translate(1.993,9.1230001)">
            <path
               d="m 8.5,-5.4375 c 0.078125,-0.328125 0.09375,-0.40625 0.796875,-0.40625 0.140625,0 0.25,0 0.25,-0.171875 C 9.546875,-6.125 9.453125,-6.125 9.28125,-6.125 H 8.109375 c -0.21875,0 -0.265625,0 -0.375,0.171875 L 4.4375,-0.84375 3.6875,-5.890625 C 3.65625,-6.125 3.640625,-6.125 3.390625,-6.125 H 2.15625 c -0.15625,0 -0.265625,0 -0.265625,0.15625 0,0.125 0.09375,0.125 0.265625,0.125 0.046875,0 0.203125,0 0.34375,0.015625 0.171875,0.015625 0.21875,0.046875 0.21875,0.140625 0,0.03125 -0.015625,0.078125 -0.03125,0.171875 l -1.140625,4.5625 c -0.125,0.46875 -0.375,0.640625 -0.96875,0.671875 C 0.5625,-0.28125 0.4375,-0.265625 0.4375,-0.109375 0.4375,-0.09375 0.4375,0 0.5625,0 0.65625,0 0.890625,-0.015625 1,-0.015625 1.140625,-0.03125 1.171875,-0.03125 1.453125,-0.03125 c 0.21875,0 0.234375,0 0.453125,0.015625 C 2.046875,-0.015625 2.25,0 2.375,0 c 0.046875,0 0.15625,0 0.15625,-0.15625 0,-0.109375 -0.09375,-0.125 -0.171875,-0.125 -0.421875,0 -0.578125,-0.140625 -0.578125,-0.375 0,-0.0625 0,-0.078125 0.03125,-0.203125 l 1.203125,-4.875 H 3.03125 l 0.8125,5.5 C 3.859375,-0.09375 3.890625,0 4,0 4.109375,0 4.15625,-0.09375 4.21875,-0.171875 l 3.640625,-5.625 H 7.875 L 6.59375,-0.6875 C 6.515625,-0.359375 6.5,-0.28125 5.828125,-0.28125 c -0.171875,0 -0.28125,0 -0.28125,0.171875 C 5.546875,-0.03125 5.609375,0 5.6875,0 5.796875,0 6.140625,-0.015625 6.25,-0.015625 6.390625,-0.03125 6.609375,-0.03125 6.796875,-0.03125 c 0.015625,0 0.375,0.015625 0.5625,0.015625 0.1875,0 0.375,0.015625 0.546875,0.015625 0.0625,0 0.171875,0 0.171875,-0.15625 0,-0.125 -0.09375,-0.125 -0.28125,-0.125 -0.03125,0 -0.1875,0 -0.328125,-0.015625 C 7.265625,-0.328125 7.25,-0.359375 7.25,-0.4375 c 0,-0.078125 0.03125,-0.15625 0.046875,-0.21875 z m 0,0"
               id="path35" />
          </g>
        </g>
        <g
           fill="#000000"
           fill-opacity="1"
           id="g59"
           transform="matrix(0.352778,0,0,0.352778,-0.857426,-0.69506)">
          <g
             id="g58"
             transform="translate(11.864,5.3140001)">
            <path
               d="M 1.875,-2.8125 C 1.921875,-2.90625 1.9375,-2.96875 1.9375,-3 c 0,-0.1875 -0.171875,-0.34375 -0.375,-0.34375 -0.234375,0 -0.3125,0.203125 -0.328125,0.296875 l -0.84375,2.5625 c 0,0.03125 -0.03125,0.078125 -0.03125,0.09375 0,0.109375 0.25,0.15625 0.25,0.15625 0.0625,0 0.078125,-0.046875 0.109375,-0.09375 z m 0,0"
               id="path57" />
          </g>
        </g>
        <g
           fill="#000000"
           fill-opacity="1"
           id="g71"
           transform="matrix(0.352778,0,0,0.352778,-0.857426,-0.69506)">
          <g
             id="g60"
             transform="translate(17.108,9.1230001)">
            <path
               d="m 6.34375,-2.96875 c 0.125,0 0.296875,0 0.296875,-0.1875 0,-0.203125 -0.1875,-0.203125 -0.328125,-0.203125 H 0.84375 c -0.140625,0 -0.328125,0 -0.328125,0.203125 0,0.1875 0.171875,0.1875 0.296875,0.1875 z M 6.3125,-1.140625 c 0.140625,0 0.328125,0 0.328125,-0.203125 0,-0.1875 -0.171875,-0.1875 -0.296875,-0.1875 H 0.8125 c -0.125,0 -0.296875,0 -0.296875,0.1875 0,0.203125 0.1875,0.203125 0.328125,0.203125 z m 0,0"
               id="path59" />
          </g>
        </g>
        <g
           fill="#000000"
           fill-opacity="1"
           id="g73"
           transform="matrix(0.352778,0,0,0.352778,-0.857426,-0.69506)">
          <g
             id="g72"
             transform="translate(26.834999,9.1230001)">
            <path
               d="M 3.421875,-5.421875 C 3.5,-5.765625 3.53125,-5.84375 4.359375,-5.84375 c 0.25,0 0.328125,0 0.328125,-0.171875 C 4.6875,-6.125 4.578125,-6.125 4.546875,-6.125 c -0.203125,0 -0.4375,0.015625 -0.65625,0.015625 -0.21875,0 -0.421875,0.015625 -0.640625,0.015625 -0.203125,0 -0.421875,0 -0.625,-0.015625 -0.15625,0 -0.4375,-0.015625 -0.59375,-0.015625 -0.046875,0 -0.171875,0 -0.171875,0.15625 0,0.125 0.078125,0.125 0.265625,0.125 0.03125,0 0.203125,0 0.34375,0.015625 0.15625,0.015625 0.21875,0.03125 0.21875,0.140625 0,0.03125 -0.015625,0.078125 -0.046875,0.171875 L 1.4375,-0.6875 c -0.078125,0.328125 -0.09375,0.40625 -0.78125,0.40625 -0.15625,0 -0.265625,0 -0.265625,0.171875 C 0.390625,0 0.484375,0 0.640625,0 H 4.875 c 0.21875,0 0.234375,-0.015625 0.296875,-0.203125 0.09375,-0.21875 0.734375,-1.921875 0.734375,-2 0,-0.0625 -0.0625,-0.109375 -0.125,-0.109375 -0.09375,0 -0.09375,0.03125 -0.171875,0.21875 -0.296875,0.796875 -0.6875,1.8125 -2.265625,1.8125 H 2.453125 c -0.125,0 -0.140625,0 -0.171875,0 -0.09375,-0.015625 -0.125,-0.03125 -0.125,-0.09375 0,-0.015625 0,-0.03125 0.046875,-0.203125 z m 0,0"
               id="path71" />
          </g>
        </g>
        <g
           fill="#000000"
           fill-opacity="1"
           id="g74"
           transform="matrix(0.352778,0,0,0.352778,-0.857426,-0.69506)">
          <g
             id="use11"
             transform="translate(33.105999,10.119)">
            <path
               d="m 2.140625,-3.796875 c 0,-0.1875 -0.015625,-0.1875 -0.203125,-0.1875 -0.390625,0.390625 -1,0.390625 -1.21875,0.390625 v 0.234375 c 0.15625,0 0.5625,0 0.921875,-0.171875 v 3.015625 c 0,0.203125 0,0.28125 -0.625,0.28125 h -0.25 V 0 c 0.328125,-0.03125 0.796875,-0.03125 1.125,-0.03125 0.328125,0 0.796875,0 1.125,0.03125 v -0.234375 h -0.25 c -0.625,0 -0.625,-0.078125 -0.625,-0.28125 z m 0,0"
               id="path73" />
          </g>
        </g>
        <g
           fill="#000000"
           fill-opacity="1"
           id="g75"
           transform="matrix(0.352778,0,0,0.352778,-0.857426,-0.69506)">
          <g
             id="use12"
             transform="translate(36.758999,10.119)">
            <path
               d="m 1.375,-0.078125 c 0,0.5625 -0.296875,0.890625 -0.453125,1.03125 C 0.875,1 0.84375,1.015625 0.84375,1.046875 c 0,0.0625 0.0625,0.109375 0.109375,0.109375 0.078125,0 0.625,-0.46875 0.625,-1.203125 0,-0.390625 -0.15625,-0.671875 -0.453125,-0.671875 -0.234375,0 -0.359375,0.1875 -0.359375,0.359375 C 0.765625,-0.1875 0.890625,0 1.140625,0 1.234375,0 1.3125,-0.03125 1.375,-0.078125 Z m 0,0"
               id="path74" />
          </g>
        </g>
        <g
           fill="#000000"
           fill-opacity="1"
           id="g76"
           transform="matrix(0.352778,0,0,0.352778,-0.857426,-0.69506)">
          <g
             id="use13"
             transform="translate(39.028,10.119)">
            <path
               d="m 5.21875,-1.8125 c 0,-0.609375 -0.359375,-0.828125 -0.953125,-0.828125 -0.5625,0 -0.890625,0.3125 -1.015625,0.546875 -0.140625,-0.546875 -0.75,-0.546875 -0.921875,-0.546875 -0.53125,0 -0.875,0.296875 -1.015625,0.546875 H 1.296875 V -2.640625 L 0.375,-2.578125 v 0.234375 c 0.421875,0 0.46875,0.046875 0.46875,0.34375 v 1.515625 c 0,0.25 -0.046875,0.25 -0.46875,0.25 V 0 C 0.421875,0 0.828125,-0.03125 1.09375,-0.03125 1.359375,-0.03125 1.765625,0 1.8125,0 v -0.234375 c -0.40625,0 -0.46875,0 -0.46875,-0.25 v -1.0625 c 0,-0.65625 0.578125,-0.90625 0.9375,-0.90625 0.40625,0 0.5,0.265625 0.5,0.640625 v 1.328125 c 0,0.25 -0.0625,0.25 -0.46875,0.25 V 0 C 2.359375,0 2.765625,-0.03125 3.03125,-0.03125 3.296875,-0.03125 3.6875,0 3.75,0 v -0.234375 c -0.40625,0 -0.46875,0 -0.46875,-0.25 v -1.0625 c 0,-0.65625 0.5625,-0.90625 0.9375,-0.90625 0.40625,0 0.5,0.265625 0.5,0.640625 v 1.328125 c 0,0.25 -0.0625,0.25 -0.46875,0.25 V 0 C 4.28125,0 4.6875,-0.03125 4.96875,-0.03125 5.234375,-0.03125 5.625,0 5.6875,0 v -0.234375 c -0.421875,0 -0.46875,0 -0.46875,-0.25 z m 0,0"
               id="path75" />
          </g>
        </g>
      </g>
      <g
         inkscape:label=""
         transform="rotate(-90,-47.56735,-73.184069)"
         id="g117">
        <g
           fill="#000000"
           fill-opacity="1"
           id="g79"
           transform="matrix(0.352778,0,0,0.352778,-0.84089,-0.69506)">
          <g
             id="g78"
             transform="translate(1.993,9.1230001)">
            <path
               d="M 3.421875,-5.421875 C 3.5,-5.765625 3.53125,-5.84375 4.359375,-5.84375 c 0.25,0 0.328125,0 0.328125,-0.171875 C 4.6875,-6.125 4.578125,-6.125 4.546875,-6.125 c -0.203125,0 -0.4375,0.015625 -0.65625,0.015625 -0.21875,0 -0.421875,0.015625 -0.640625,0.015625 -0.203125,0 -0.421875,0 -0.625,-0.015625 -0.15625,0 -0.4375,-0.015625 -0.59375,-0.015625 -0.046875,0 -0.171875,0 -0.171875,0.15625 0,0.125 0.078125,0.125 0.265625,0.125 0.03125,0 0.203125,0 0.34375,0.015625 0.15625,0.015625 0.21875,0.03125 0.21875,0.140625 0,0.03125 -0.015625,0.078125 -0.046875,0.171875 L 1.4375,-0.6875 c -0.078125,0.328125 -0.09375,0.40625 -0.78125,0.40625 -0.15625,0 -0.265625,0 -0.265625,0.171875 C 0.390625,0 0.484375,0 0.640625,0 H 4.875 c 0.21875,0 0.234375,-0.015625 0.296875,-0.203125 0.09375,-0.21875 0.734375,-1.921875 0.734375,-2 0,-0.0625 -0.0625,-0.109375 -0.125,-0.109375 -0.09375,0 -0.09375,0.03125 -0.171875,0.21875 -0.296875,0.796875 -0.6875,1.8125 -2.265625,1.8125 H 2.453125 c -0.125,0 -0.140625,0 -0.171875,0 -0.09375,-0.015625 -0.125,-0.03125 -0.125,-0.09375 0,-0.015625 0,-0.03125 0.046875,-0.203125 z m 0,0"
               id="path77" />
          </g>
        </g>
        <g
           fill="#000000"
           fill-opacity="1"
           id="g81"
           transform="matrix(0.352778,0,0,0.352778,-0.84089,-0.69506)">
          <g
             id="g80"
             transform="translate(8.2629995,5.3140001)">
            <path
               d="M 1.875,-2.8125 C 1.921875,-2.90625 1.9375,-2.96875 1.9375,-3 c 0,-0.1875 -0.171875,-0.34375 -0.375,-0.34375 -0.234375,0 -0.3125,0.203125 -0.328125,0.296875 l -0.84375,2.5625 c 0,0.03125 -0.03125,0.078125 -0.03125,0.09375 0,0.109375 0.25,0.15625 0.25,0.15625 0.0625,0 0.078125,-0.046875 0.109375,-0.09375 z m 0,0"
               id="path79" />
          </g>
        </g>
        <g
           fill="#000000"
           fill-opacity="1"
           id="g105"
           transform="matrix(0.352778,0,0,0.352778,-0.84089,-0.69506)">
          <g
             id="g104"
             transform="translate(8.2629995,10.7)">
            <path
               d="M 3.21875,-1.125 H 3 C 2.984375,-1.03125 2.921875,-0.640625 2.84375,-0.578125 2.796875,-0.53125 2.3125,-0.53125 2.21875,-0.53125 H 1.109375 L 1.875,-1.15625 C 2.078125,-1.328125 2.609375,-1.703125 2.796875,-1.890625 2.96875,-2.0625 3.21875,-2.375 3.21875,-2.796875 c 0,-0.75 -0.671875,-1.1875 -1.484375,-1.1875 -0.765625,0 -1.296875,0.515625 -1.296875,1.078125 0,0.296875 0.25,0.34375 0.3125,0.34375 0.15625,0 0.328125,-0.109375 0.328125,-0.328125 C 1.078125,-3.015625 1,-3.21875 0.734375,-3.21875 0.875,-3.515625 1.234375,-3.75 1.65625,-3.75 c 0.625,0 0.953125,0.46875 0.953125,0.953125 0,0.421875 -0.28125,0.859375 -0.6875,1.25 L 0.5,-0.25 C 0.4375,-0.1875 0.4375,-0.1875 0.4375,0 h 2.59375 z m 0,0"
               id="path81" />
          </g>
        </g>
        <g
           fill="#000000"
           fill-opacity="1"
           id="g108"
           transform="matrix(0.352778,0,0,0.352778,-0.84089,-0.69506)">
          <g
             id="g106"
             transform="translate(11.916,10.7)">
            <path
               d="m 1.375,-0.078125 c 0,0.5625 -0.296875,0.890625 -0.453125,1.03125 C 0.875,1 0.84375,1.015625 0.84375,1.046875 c 0,0.0625 0.0625,0.109375 0.109375,0.109375 0.078125,0 0.625,-0.46875 0.625,-1.203125 0,-0.390625 -0.15625,-0.671875 -0.453125,-0.671875 -0.234375,0 -0.359375,0.1875 -0.359375,0.359375 C 0.765625,-0.1875 0.890625,0 1.140625,0 1.234375,0 1.3125,-0.03125 1.375,-0.078125 Z m 0,0"
               id="path105" />
          </g>
          <g
             id="g107"
             transform="translate(14.185097,10.7)">
            <path
               d="m 3.734375,-2.15625 c 0.0625,0 0.328125,0 0.328125,-0.25 0,-0.171875 -0.171875,-0.171875 -0.28125,-0.171875 H 2.171875 c -0.984375,0 -1.734375,0.90625 -1.734375,1.640625 0,0.609375 0.484375,1 1.078125,1 0.828125,0 1.6875,-0.703125 1.6875,-1.578125 C 3.203125,-1.796875 3.125,-2 3.015625,-2.15625 Z M 1.53125,-0.140625 c -0.203125,0 -0.640625,-0.078125 -0.640625,-0.65625 0,-0.375 0.203125,-1.359375 1.1875,-1.359375 0.34375,0 0.65625,0.125 0.65625,0.578125 0,0.171875 -0.078125,0.703125 -0.390625,1.046875 -0.234375,0.25 -0.546875,0.390625 -0.8125,0.390625 z m 0,0"
               id="path106" />
          </g>
        </g>
      </g>
    </g>
  </g>
</svg>
