<?xml version="1.0" encoding="UTF-8" standalone="no"?>
<!-- Created with Inkscape (http://www.inkscape.org/) -->

<svg
   width="102.58751mm"
   height="85.171791mm"
   viewBox="0 0 102.58751 85.171791"
   version="1.1"
   id="svg1"
   inkscape:version="1.3.2 (091e20e, 2023-11-25, custom)"
   sodipodi:docname="Phasor_diagram_reactive_active.svg"
   xmlns:inkscape="http://www.inkscape.org/namespaces/inkscape"
   xmlns:sodipodi="http://sodipodi.sourceforge.net/DTD/sodipodi-0.dtd"
   xmlns="http://www.w3.org/2000/svg"
   xmlns:svg="http://www.w3.org/2000/svg">
  <sodipodi:namedview
     id="namedview1"
     pagecolor="#ffffff"
     bordercolor="#000000"
     borderopacity="0.25"
     inkscape:showpageshadow="2"
     inkscape:pageopacity="0.0"
     inkscape:pagecheckerboard="0"
     inkscape:deskcolor="#d1d1d1"
     inkscape:document-units="mm"
     showgrid="true"
     inkscape:zoom="1.4778116"
     inkscape:cx="165.109"
     inkscape:cy="206.72459"
     inkscape:window-width="1630"
     inkscape:window-height="1041"
     inkscape:window-x="274"
     inkscape:window-y="0"
     inkscape:window-maximized="0"
     inkscape:current-layer="layer1">
    <inkscape:grid
       id="grid1"
       units="mm"
       originx="-29.999996"
       originy="-4.8282105"
       spacingx="1"
       spacingy="0.99999999"
       empcolor="#0099e5"
       empopacity="0.30196078"
       color="#0099e5"
       opacity="0.14901961"
       empspacing="5"
       dotted="false"
       gridanglex="30"
       gridanglez="30"
       visible="true" />
  </sodipodi:namedview>
  <defs
     id="defs1">
    <marker
       style="overflow:visible"
       id="Triangle"
       refX="0"
       refY="0"
       orient="auto-start-reverse"
       inkscape:stockid="Triangle arrow"
       markerWidth="1"
       markerHeight="1"
       viewBox="0 0 1 1"
       inkscape:isstock="true"
       inkscape:collect="always"
       preserveAspectRatio="xMidYMid">
      <path
         transform="scale(0.5)"
         style="fill:context-stroke;fill-rule:evenodd;stroke:context-stroke;stroke-width:1pt"
         d="M 5.77,0 -2.88,5 V -5 Z"
         id="path135" />
    </marker>
    <marker
       style="overflow:visible"
       id="Triangle-2"
       refX="0"
       refY="0"
       orient="auto-start-reverse"
       inkscape:stockid="Triangle arrow"
       markerWidth="1"
       markerHeight="1"
       viewBox="0 0 1 1"
       inkscape:isstock="true"
       inkscape:collect="always"
       preserveAspectRatio="xMidYMid">
      <path
         transform="scale(0.5)"
         style="fill:context-stroke;fill-rule:evenodd;stroke:context-stroke;stroke-width:1pt"
         d="M 5.77,0 -2.88,5 V -5 Z"
         id="path135-2" />
    </marker>
    <marker
       style="overflow:visible"
       id="Triangle-8"
       refX="0"
       refY="0"
       orient="auto-start-reverse"
       inkscape:stockid="Triangle arrow"
       markerWidth="1"
       markerHeight="1"
       viewBox="0 0 1 1"
       inkscape:isstock="true"
       inkscape:collect="always"
       preserveAspectRatio="xMidYMid">
      <path
         transform="scale(0.5)"
         style="fill:context-stroke;fill-rule:evenodd;stroke:context-stroke;stroke-width:1pt"
         d="M 5.77,0 -2.88,5 V -5 Z"
         id="path135-22" />
    </marker>
    <marker
       style="overflow:visible"
       id="Triangle-9"
       refX="0"
       refY="0"
       orient="auto-start-reverse"
       inkscape:stockid="Triangle arrow"
       markerWidth="1"
       markerHeight="1"
       viewBox="0 0 1 1"
       inkscape:isstock="true"
       inkscape:collect="always"
       preserveAspectRatio="xMidYMid">
      <path
         transform="scale(0.5)"
         style="fill:context-stroke;fill-rule:evenodd;stroke:context-stroke;stroke-width:1pt"
         d="M 5.77,0 -2.88,5 V -5 Z"
         id="path135-6" />
    </marker>
    <marker
       style="overflow:visible"
       id="Triangle-8-0"
       refX="0"
       refY="0"
       orient="auto-start-reverse"
       inkscape:stockid="Triangle arrow"
       markerWidth="1"
       markerHeight="1"
       viewBox="0 0 1 1"
       inkscape:isstock="true"
       inkscape:collect="always"
       preserveAspectRatio="xMidYMid">
      <path
         transform="scale(0.5)"
         style="fill:context-stroke;fill-rule:evenodd;stroke:context-stroke;stroke-width:1pt"
         d="M 5.77,0 -2.88,5 V -5 Z"
         id="path135-22-4" />
    </marker>
  </defs>
  <g
     inkscape:label="Ebene 1"
     inkscape:groupmode="layer"
     id="layer1"
     transform="translate(-29.999997,-4.8282103)">
    <path
       style="opacity:1;fill:#000000;fill-opacity:1;stroke:#000000;stroke-width:0.25;stroke-opacity:1;marker-start:url(#Triangle)"
       d="M 65.000001,5.8972773 V 90.000003"
       id="path1" />
    <path
       style="fill:#000000;fill-opacity:1;stroke:#000000;stroke-width:0.25;stroke-opacity:1;marker-start:url(#Triangle-2)"
       d="M 131.44039,50.000002 H 29.999997"
       id="path1-5" />
    <g
       inkscape:label=""
       transform="translate(128.01046,52.048697)"
       id="g2">
      <g
         fill="#000000"
         fill-opacity="1"
         id="g3"
         transform="matrix(0.352778,0,0,0.352778,-0.879475,-0.707231)">
        <g
           id="use2"
           transform="translate(1.993,10.161)">
          <path
             d="m 5.046875,-4.0625 c 1.1875,-0.28125 2.09375,-1.03125 2.09375,-1.953125 0,-1.15625 -1.34375,-2.140625 -3.0625,-2.140625 H 0.5 v 0.34375 h 0.234375 c 0.875,0 0.90625,0.109375 0.90625,0.5625 v 6.34375 c 0,0.4375 -0.03125,0.5625 -0.90625,0.5625 H 0.5 V 0 c 0.28125,-0.03125 1.25,-0.03125 1.609375,-0.03125 0.34375,0 1.328125,0 1.609375,0.03125 V -0.34375 H 3.484375 c -0.859375,0 -0.90625,-0.125 -0.90625,-0.5625 v -3.0625 H 3.96875 c 0.46875,0 0.90625,0.125 1.234375,0.46875 0.40625,0.453125 0.40625,0.703125 0.40625,1.53125 0,0.9375 0,1.25 0.515625,1.765625 C 6.3125,-0.03125 6.8125,0.25 7.484375,0.25 c 0.9375,0 1.09375,-1.03125 1.09375,-1.296875 0,-0.0625 0,-0.171875 -0.140625,-0.171875 -0.125,0 -0.125,0.078125 -0.125,0.1875 C 8.25,-0.3125 7.90625,0.015625 7.515625,0.015625 6.96875,0.015625 6.84375,-0.546875 6.75,-1.1875 6.734375,-1.265625 6.671875,-1.78125 6.640625,-2.078125 6.546875,-2.671875 6.5,-3.0625 6.140625,-3.4375 c -0.125,-0.125 -0.4375,-0.453125 -1.09375,-0.625 z m -1.125,-0.140625 H 2.578125 V -7.34375 c 0,-0.265625 0,-0.40625 0.25,-0.46875 0.109375,0 0.46875,0 0.703125,0 0.96875,0 2.5,0 2.5,1.796875 0,1.046875 -0.5625,1.8125 -2.109375,1.8125 z m 0,0"
             id="path3" />
        </g>
        <g
           id="use3"
           transform="translate(10.607917,10.161)">
          <path
             d="m 4.578125,-2.765625 c 0.265625,0 0.28125,0 0.28125,-0.234375 0,-1.203125 -0.640625,-2.328125 -2.09375,-2.328125 -1.359375,0 -2.40625,1.234375 -2.40625,2.703125 0,1.578125 1.21875,2.75 2.546875,2.75 1.421875,0 1.953125,-1.296875 1.953125,-1.546875 0,-0.078125 -0.046875,-0.125 -0.125,-0.125 -0.09375,0 -0.125,0.0625 -0.140625,0.125 -0.3125,1 -1.109375,1.28125 -1.625,1.28125 -0.5,0 -1.703125,-0.34375 -1.703125,-2.40625 v -0.21875 z M 1.28125,-3 c 0.09375,-1.875 1.140625,-2.09375 1.484375,-2.09375 1.28125,0 1.34375,1.6875 1.359375,2.09375 z m 0,0"
             id="path4" />
        </g>
      </g>
    </g>
    <g
       inkscape:label=""
       transform="translate(66.937103,4.8282096)"
       id="g7">
      <g
         fill="#000000"
         fill-opacity="1"
         id="g6"
         transform="matrix(0.352778,0,0,0.352778,-0.857426,-0.707231)">
        <g
           id="g4"
           transform="translate(1.993,10.161)">
          <path
             d="m 2.59375,-7.25 c 0,-0.453125 0.03125,-0.5625 0.9375,-0.5625 H 3.796875 V -8.15625 C 3.5,-8.140625 2.46875,-8.140625 2.109375,-8.140625 c -0.359375,0 -1.390625,0 -1.671875,-0.015625 v 0.34375 h 0.25 c 0.90625,0 0.9375,0.109375 0.9375,0.5625 v 6.34375 c 0,0.4375 -0.03125,0.5625 -0.9375,0.5625 h -0.25 V 0 c 0.28125,-0.03125 1.3125,-0.03125 1.671875,-0.03125 0.359375,0 1.390625,0 1.6875,0.03125 V -0.34375 H 3.53125 c -0.90625,0 -0.9375,-0.125 -0.9375,-0.5625 z m 0,0"
             id="path2" />
        </g>
        <g
           id="g5"
           transform="translate(6.2155771,10.161)">
          <path
             d="m 8.578125,-2.90625 c 0,-1.109375 0,-1.4375 -0.28125,-1.828125 -0.34375,-0.46875 -0.90625,-0.53125 -1.3125,-0.53125 -1,0 -1.5,0.71875 -1.6875,1.171875 -0.171875,-0.921875 -0.8125,-1.171875 -1.5625,-1.171875 -1.171875,0 -1.625,0.984375 -1.71875,1.21875 v -1.21875 l -1.640625,0.125 v 0.34375 c 0.8125,0 0.921875,0.09375 0.921875,0.671875 v 3.234375 c 0,0.546875 -0.140625,0.546875 -0.921875,0.546875 V 0 c 0.3125,-0.03125 0.96875,-0.03125 1.296875,-0.03125 0.34375,0 1,0 1.296875,0.03125 v -0.34375 c -0.75,0 -0.90625,0 -0.90625,-0.546875 v -2.21875 c 0,-1.25 0.828125,-1.921875 1.578125,-1.921875 0.734375,0 0.90625,0.609375 0.90625,1.34375 v 2.796875 c 0,0.546875 -0.140625,0.546875 -0.90625,0.546875 V 0 c 0.296875,-0.03125 0.953125,-0.03125 1.28125,-0.03125 0.34375,0 1,0 1.3125,0.03125 v -0.34375 c -0.765625,0 -0.921875,0 -0.921875,-0.546875 v -2.21875 c 0,-1.25 0.828125,-1.921875 1.578125,-1.921875 0.734375,0 0.90625,0.609375 0.90625,1.34375 v 2.796875 c 0,0.546875 -0.140625,0.546875 -0.90625,0.546875 V 0 c 0.3125,-0.03125 0.953125,-0.03125 1.28125,-0.03125 0.34375,0 1,0 1.3125,0.03125 v -0.34375 c -0.609375,0 -0.90625,0 -0.90625,-0.359375 z m 0,0"
             id="path5" />
        </g>
      </g>
    </g>
    <g
       inkscape:label=""
       transform="translate(67.47239,19.186957)"
       id="g12">
      <g
         fill="#000000"
         fill-opacity="1"
         id="g9"
         transform="matrix(0.352778,0,0,0.352778,-0.702799,-0.707231)">
        <g
           id="g8"
           transform="translate(1.993,10.161)">
          <path
             d="M 6.046875,-2.75 C 5.625,-1.078125 4.25,-0.09375 3.125,-0.09375 c -0.859375,0 -1.453125,-0.578125 -1.453125,-1.5625 0,-0.046875 0,-0.40625 0.140625,-0.9375 L 2.96875,-7.296875 C 3.078125,-7.703125 3.109375,-7.8125 3.953125,-7.8125 c 0.21875,0 0.34375,0 0.34375,-0.21875 0,-0.125 -0.109375,-0.125 -0.1875,-0.125 -0.21875,0 -0.46875,0.015625 -0.6875,0.015625 h -1.40625 c -0.234375,0 -0.484375,-0.015625 -0.71875,-0.015625 -0.078125,0 -0.21875,0 -0.21875,0.21875 0,0.125 0.078125,0.125 0.3125,0.125 0.71875,0 0.71875,0.09375 0.71875,0.21875 0,0.078125 -0.09375,0.421875 -0.15625,0.625 l -1.03125,4.1875 C 0.890625,-2.65625 0.8125,-2.328125 0.8125,-2.015625 0.8125,-0.6875 1.75,0.25 3.0625,0.25 c 1.203125,0 2.546875,-0.953125 3.15625,-2.46875 0.078125,-0.203125 0.1875,-0.625 0.265625,-0.953125 C 6.59375,-3.59375 6.84375,-4.65625 6.9375,-4.953125 L 7.390625,-6.75 c 0.15625,-0.625 0.25,-1.015625 1.296875,-1.0625 0.09375,-0.015625 0.140625,-0.109375 0.140625,-0.21875 0,-0.125 -0.109375,-0.125 -0.15625,-0.125 -0.15625,0 -0.375,0.015625 -0.546875,0.015625 H 7.5625 c -0.734375,0 -1.125,-0.015625 -1.125,-0.015625 -0.078125,0 -0.21875,0 -0.21875,0.21875 0,0.125 0.09375,0.125 0.171875,0.125 0.71875,0.015625 0.765625,0.296875 0.765625,0.515625 0,0.09375 0,0.140625 -0.046875,0.296875 z m 0,0"
             id="path8" />
        </g>
      </g>
      <path
         fill="none"
         stroke-width="0.478"
         stroke-linecap="butt"
         stroke-linejoin="miter"
         stroke="#000000"
         stroke-opacity="1"
         stroke-miterlimit="10"
         d="M 0,9.8311872 H 9.1992185"
         id="path9"
         transform="scale(0.352778)" />
      <g
         fill="#000000"
         fill-opacity="1"
         id="g11"
         transform="matrix(0.352778,0,0,0.352778,-0.702799,-0.707231)">
        <g
           id="g10"
           transform="translate(11.192,13.05)">
          <path
             d="m 1.546875,-4.90625 c 0,-0.234375 -0.171875,-0.453125 -0.4375,-0.453125 -0.234375,0 -0.4375,0.1875 -0.4375,0.4375 0,0.28125 0.234375,0.453125 0.4375,0.453125 0.28125,0 0.4375,-0.234375 0.4375,-0.4375 z m -1.1875,1.484375 v 0.265625 c 0.515625,0 0.578125,0.046875 0.578125,0.4375 V -0.625 c 0,0.359375 -0.09375,0.359375 -0.609375,0.359375 V 0 c 0.3125,-0.03125 0.765625,-0.03125 0.890625,-0.03125 0.09375,0 0.578125,0 0.859375,0.03125 v -0.265625 c -0.53125,0 -0.5625,-0.03125 -0.5625,-0.34375 v -2.90625 z m 0,0"
             id="path10" />
        </g>
      </g>
    </g>
    <path
       style="opacity:1;fill:#0000ff;fill-opacity:1;stroke:#08008e;stroke-width:0.249999;stroke-opacity:1;marker-start:url(#Triangle)"
       d="M 65.000002,14.888514 V 49.999998"
       id="path7" />
    <g
       inkscape:label=""
       transform="translate(111.32869,42.474255)"
       id="g17">
      <g
         fill="#000000"
         fill-opacity="1"
         id="g14"
         transform="matrix(0.352778,0,0,0.352778,-0.702799,-0.707231)">
        <g
           id="g13"
           transform="translate(1.993,10.161)">
          <path
             d="M 6.046875,-2.75 C 5.625,-1.078125 4.25,-0.09375 3.125,-0.09375 c -0.859375,0 -1.453125,-0.578125 -1.453125,-1.5625 0,-0.046875 0,-0.40625 0.140625,-0.9375 L 2.96875,-7.296875 C 3.078125,-7.703125 3.109375,-7.8125 3.953125,-7.8125 c 0.21875,0 0.34375,0 0.34375,-0.21875 0,-0.125 -0.109375,-0.125 -0.1875,-0.125 -0.21875,0 -0.46875,0.015625 -0.6875,0.015625 h -1.40625 c -0.234375,0 -0.484375,-0.015625 -0.71875,-0.015625 -0.078125,0 -0.21875,0 -0.21875,0.21875 0,0.125 0.078125,0.125 0.3125,0.125 0.71875,0 0.71875,0.09375 0.71875,0.21875 0,0.078125 -0.09375,0.421875 -0.15625,0.625 l -1.03125,4.1875 C 0.890625,-2.65625 0.8125,-2.328125 0.8125,-2.015625 0.8125,-0.6875 1.75,0.25 3.0625,0.25 c 1.203125,0 2.546875,-0.953125 3.15625,-2.46875 0.078125,-0.203125 0.1875,-0.625 0.265625,-0.953125 C 6.59375,-3.59375 6.84375,-4.65625 6.9375,-4.953125 L 7.390625,-6.75 c 0.15625,-0.625 0.25,-1.015625 1.296875,-1.0625 0.09375,-0.015625 0.140625,-0.109375 0.140625,-0.21875 0,-0.125 -0.109375,-0.125 -0.15625,-0.125 -0.15625,0 -0.375,0.015625 -0.546875,0.015625 H 7.5625 c -0.734375,0 -1.125,-0.015625 -1.125,-0.015625 -0.078125,0 -0.21875,0 -0.21875,0.21875 0,0.125 0.09375,0.125 0.171875,0.125 0.71875,0.015625 0.765625,0.296875 0.765625,0.515625 0,0.09375 0,0.140625 -0.046875,0.296875 z m 0,0"
             id="path12" />
        </g>
      </g>
      <path
         fill="none"
         stroke-width="0.478"
         stroke-linecap="butt"
         stroke-linejoin="miter"
         stroke="#000000"
         stroke-opacity="1"
         stroke-miterlimit="10"
         d="M 0,9.8311872 H 9.1992185"
         id="path14"
         transform="scale(0.352778)" />
      <g
         fill="#000000"
         fill-opacity="1"
         id="g16"
         transform="matrix(0.352778,0,0,0.352778,-0.702799,-0.707231)">
        <g
           id="g15"
           transform="translate(11.192,13.05)">
          <path
             d="m 2.84375,-3.34375 c 0,-0.125 0,-0.203125 -0.109375,-0.203125 -0.046875,0 -0.0625,0 -0.1875,0.125 -0.015625,0 -0.09375,0.078125 -0.109375,0.078125 -0.015625,0 -0.03125,0 -0.078125,-0.03125 C 2.234375,-3.46875 2,-3.546875 1.640625,-3.546875 c -1.109375,0 -1.359375,0.59375 -1.359375,0.984375 0,0.390625 0.296875,0.625 0.3125,0.65625 0.328125,0.234375 0.5,0.265625 1.046875,0.359375 0.375,0.078125 0.984375,0.1875 0.984375,0.71875 0,0.3125 -0.203125,0.6875 -0.9375,0.6875 -0.8125,0 -1.046875,-0.625 -1.140625,-1.046875 C 0.515625,-1.296875 0.5,-1.328125 0.40625,-1.328125 c -0.125,0 -0.125,0.0625 -0.125,0.21875 V -0.125 c 0,0.125 0,0.203125 0.09375,0.203125 0.0625,0 0.0625,0 0.203125,-0.15625 C 0.625,-0.125 0.703125,-0.21875 0.75,-0.265625 c 0.359375,0.328125 0.734375,0.34375 0.9375,0.34375 1.015625,0 1.359375,-0.578125 1.359375,-1.109375 0,-0.375 -0.21875,-0.9375 -1.171875,-1.109375 -0.0625,-0.015625 -0.515625,-0.09375 -0.546875,-0.09375 -0.25,-0.0625 -0.625,-0.234375 -0.625,-0.546875 0,-0.234375 0.1875,-0.578125 0.9375,-0.578125 0.890625,0 0.9375,0.65625 0.953125,0.875 0,0.0625 0.0625,0.09375 0.109375,0.09375 0.140625,0 0.140625,-0.0625 0.140625,-0.203125 z m 0,0"
             id="path15" />
        </g>
      </g>
    </g>
    <g
       inkscape:label=""
       transform="translate(49.464252,71.376222)"
       id="g22">
      <g
         fill="#000000"
         fill-opacity="1"
         id="g19"
         transform="matrix(0.352778,0,0,0.352778,-0.702799,-0.707231)">
        <g
           id="g18"
           transform="translate(1.993,10.161)">
          <path
             d="m 4.40625,-7.28125 c 0.09375,-0.421875 0.125,-0.53125 1,-0.53125 0.265625,0 0.359375,0 0.359375,-0.234375 0,-0.109375 -0.140625,-0.109375 -0.171875,-0.109375 -0.21875,0 -0.484375,0.015625 -0.6875,0.015625 H 3.4375 c -0.25,0 -0.515625,-0.015625 -0.765625,-0.015625 -0.09375,0 -0.21875,0 -0.21875,0.21875 0,0.125 0.09375,0.125 0.328125,0.125 0.75,0 0.75,0.09375 0.75,0.21875 0,0.09375 -0.03125,0.15625 -0.046875,0.265625 l -1.625,6.4375 c -0.109375,0.421875 -0.125,0.546875 -1,0.546875 -0.265625,0 -0.375,0 -0.375,0.21875 0,0.125 0.125,0.125 0.1875,0.125 0.21875,0 0.46875,-0.03125 0.6875,-0.03125 h 1.46875 c 0.25,0 0.5,0.03125 0.75,0.03125 0.09375,0 0.234375,0 0.234375,-0.21875 0,-0.125 -0.078125,-0.125 -0.328125,-0.125 -0.75,0 -0.75,-0.09375 -0.75,-0.234375 0,-0.03125 0,-0.09375 0.046875,-0.28125 z m 0,0"
             id="path18" />
        </g>
      </g>
      <path
         fill="none"
         stroke-width="0.478"
         stroke-linecap="butt"
         stroke-linejoin="miter"
         stroke="#000000"
         stroke-opacity="1"
         stroke-miterlimit="10"
         d="M 0,9.8311872 H 6.1054685"
         id="path19"
         transform="scale(0.352778)" />
      <g
         fill="#000000"
         fill-opacity="1"
         id="g21"
         transform="matrix(0.352778,0,0,0.352778,-0.702799,-0.707231)">
        <g
           id="g20"
           transform="translate(8.0950003,13.05)">
          <path
             d="m 2.84375,-3.34375 c 0,-0.125 0,-0.203125 -0.109375,-0.203125 -0.046875,0 -0.0625,0 -0.1875,0.125 -0.015625,0 -0.09375,0.078125 -0.109375,0.078125 -0.015625,0 -0.03125,0 -0.078125,-0.03125 C 2.234375,-3.46875 2,-3.546875 1.640625,-3.546875 c -1.109375,0 -1.359375,0.59375 -1.359375,0.984375 0,0.390625 0.296875,0.625 0.3125,0.65625 0.328125,0.234375 0.5,0.265625 1.046875,0.359375 0.375,0.078125 0.984375,0.1875 0.984375,0.71875 0,0.3125 -0.203125,0.6875 -0.9375,0.6875 -0.8125,0 -1.046875,-0.625 -1.140625,-1.046875 C 0.515625,-1.296875 0.5,-1.328125 0.40625,-1.328125 c -0.125,0 -0.125,0.0625 -0.125,0.21875 V -0.125 c 0,0.125 0,0.203125 0.09375,0.203125 0.0625,0 0.0625,0 0.203125,-0.15625 C 0.625,-0.125 0.703125,-0.21875 0.75,-0.265625 c 0.359375,0.328125 0.734375,0.34375 0.9375,0.34375 1.015625,0 1.359375,-0.578125 1.359375,-1.109375 0,-0.375 -0.21875,-0.9375 -1.171875,-1.109375 -0.0625,-0.015625 -0.515625,-0.09375 -0.546875,-0.09375 -0.25,-0.0625 -0.625,-0.234375 -0.625,-0.546875 0,-0.234375 0.1875,-0.578125 0.9375,-0.578125 0.890625,0 0.9375,0.65625 0.953125,0.875 0,0.0625 0.0625,0.09375 0.109375,0.09375 0.140625,0 0.140625,-0.0625 0.140625,-0.203125 z m 0,0"
             id="path20" />
        </g>
      </g>
    </g>
    <g
       inkscape:label=""
       transform="translate(67.581077,44.555815)"
       id="g24">
      <g
         fill="#000000"
         fill-opacity="1"
         id="g23"
         transform="matrix(0.352778,0,0,0.352778,-0.873963,-0.660444)">
        <g
           id="use1"
           transform="translate(1.993,10.294)">
          <path
             d="m 5.296875,-6.015625 c 0,-1.21875 -0.390625,-2.40625 -1.359375,-2.40625 -1.671875,0 -3.453125,3.515625 -3.453125,6.140625 0,0.546875 0.109375,2.40625 1.375,2.40625 1.625,0 3.4375,-3.421875 3.4375,-6.140625 z m -3.625,1.6875 c 0.1875,-0.703125 0.4375,-1.703125 0.90625,-2.5625 0.390625,-0.71875 0.8125,-1.28125 1.34375,-1.28125 0.390625,0 0.65625,0.328125 0.65625,1.484375 0,0.421875 -0.03125,1.015625 -0.375,2.359375 z m 2.4375,0.359375 C 3.8125,-2.796875 3.5625,-2.046875 3.125,-1.296875 2.78125,-0.6875 2.359375,-0.125 1.859375,-0.125 1.5,-0.125 1.1875,-0.40625 1.1875,-1.59375 c 0,-0.765625 0.203125,-1.578125 0.390625,-2.375 z m 0,0"
             id="path6" />
        </g>
      </g>
    </g>
    <g
       inkscape:label=""
       transform="translate(69.21176,55.351865)"
       id="g27">
      <g
         fill="#000000"
         fill-opacity="1"
         id="g26"
         transform="matrix(0.352778,0,0,0.352778,-0.907036,-0.661238)">
        <g
           id="g25"
           transform="translate(1.993,7.1399999)">
          <path
             d="m 3.59375,-0.53125 c -0.203125,0 -0.375,0 -0.375,-0.046875 0,-0.03125 0.203125,-1.15625 0.265625,-1.421875 0.390625,-1.53125 1.296875,-2.625 2.34375,-2.625 0.765625,0 1.125,0.578125 1.125,1.25 0,1.359375 -1.53125,2.84375 -3.359375,2.84375 z m -0.515625,0.625 C 3.15625,0.109375 3.28125,0.125 3.484375,0.125 5.453125,0.125 7.25,-1.765625 7.25,-3.65625 c 0,-0.734375 -0.3125,-1.609375 -1.328125,-1.609375 -1.71875,0 -2.4375,2.421875 -3.109375,4.671875 -1.375,-0.265625 -1.953125,-1 -1.953125,-1.796875 0,-0.328125 0.25,-1.609375 0.953125,-2.46875 0.125,-0.15625 0.125,-0.171875 0.125,-0.203125 0,-0.09375 -0.09375,-0.09375 -0.125,-0.09375 -0.3125,0 -1.234375,1.75 -1.234375,2.890625 0,1.328125 1.0625,2.0625 2.03125,2.28125 l -0.625,2.015625 c -0.0625,0.1875 -0.0625,0.203125 -0.0625,0.25 0,0.28125 0.296875,0.296875 0.3125,0.296875 0.125,0 0.328125,-0.046875 0.4375,-0.28125 C 2.703125,2.1875 3.03125,0.328125 3.078125,0.09375 Z m 0,0"
             id="path24" />
        </g>
      </g>
    </g>
    <path
       style="fill:none;fill-rule:evenodd;stroke:#000000;stroke-width:0.204;stroke-linecap:round;stroke-miterlimit:3.9;stroke-dasharray:0.612, 0.612;stroke-dashoffset:0;stroke-opacity:1;marker-end:url(#Triangle-8)"
       id="path63-8"
       sodipodi:type="arc"
       sodipodi:cx="42.253288"
       sodipodi:cy="-70.451363"
       sodipodi:rx="9.4296246"
       sodipodi:ry="8.4841709"
       sodipodi:start="3.0320928"
       sodipodi:end="4.290317"
       sodipodi:open="true"
       sodipodi:arc-type="arc"
       d="m 32.880139,-69.524203 a 9.4296246,8.4841709 0 0 1 5.51029,-8.666778"
       transform="rotate(97)" />
    <path
       style="fill:#0000ff;fill-opacity:1;stroke:#08008e;stroke-width:0.249998;stroke-opacity:1;marker-start:url(#Triangle-9)"
       d="M 120.18165,39.872275 65.000001,50"
       id="path7-1" />
    <path
       style="fill:#0000ff;fill-rule:evenodd;stroke:#08008e;stroke-width:0.25;stroke-opacity:1;marker-end:url(#Triangle-2)"
       d="M 65.000001,14.217282 120.27952,39.343298"
       id="path32"
       sodipodi:nodetypes="cc" />
    <g
       inkscape:label=""
       transform="translate(97.235733,24.823611)"
       id="g42">
      <g
         fill="#000000"
         fill-opacity="1"
         id="g39"
         transform="matrix(0.352778,0,0,0.352778,-0.896011,-0.575292)">
        <g
           id="g38"
           transform="translate(1.993,10.162)">
          <path
             d="M 5.15625,-8.3125 C 5.0625,-8.484375 5.046875,-8.53125 4.875,-8.53125 c -0.171875,0 -0.203125,0.046875 -0.28125,0.21875 l -4,8.078125 C 0.578125,-0.203125 0.546875,-0.125 0.546875,-0.078125 0.546875,-0.015625 0.5625,0 0.796875,0 H 8.9375 c 0.25,0 0.25,-0.015625 0.25,-0.078125 0,-0.046875 -0.015625,-0.125 -0.046875,-0.15625 z M 4.5,-7.4375 7.765625,-0.828125 H 1.25 Z m 0,0"
             id="path37" />
        </g>
      </g>
      <g
         fill="#000000"
         fill-opacity="1"
         id="g41"
         transform="matrix(0.352778,0,0,0.352778,-0.896011,-0.575292)">
        <g
           id="g40"
           transform="translate(11.748,10.162)">
          <path
             d="M 6.046875,-2.75 C 5.625,-1.078125 4.25,-0.09375 3.125,-0.09375 c -0.859375,0 -1.453125,-0.578125 -1.453125,-1.5625 0,-0.046875 0,-0.40625 0.140625,-0.9375 L 2.96875,-7.296875 C 3.078125,-7.703125 3.109375,-7.8125 3.953125,-7.8125 c 0.21875,0 0.34375,0 0.34375,-0.21875 0,-0.125 -0.109375,-0.125 -0.1875,-0.125 -0.21875,0 -0.46875,0.015625 -0.6875,0.015625 h -1.40625 c -0.234375,0 -0.484375,-0.015625 -0.71875,-0.015625 -0.078125,0 -0.21875,0 -0.21875,0.21875 0,0.125 0.078125,0.125 0.3125,0.125 0.71875,0 0.71875,0.09375 0.71875,0.21875 0,0.078125 -0.09375,0.421875 -0.15625,0.625 l -1.03125,4.1875 C 0.890625,-2.65625 0.8125,-2.328125 0.8125,-2.015625 0.8125,-0.6875 1.75,0.25 3.0625,0.25 c 1.203125,0 2.546875,-0.953125 3.15625,-2.46875 0.078125,-0.203125 0.1875,-0.625 0.265625,-0.953125 C 6.59375,-3.59375 6.84375,-4.65625 6.9375,-4.953125 L 7.390625,-6.75 c 0.15625,-0.625 0.25,-1.015625 1.296875,-1.0625 0.09375,-0.015625 0.140625,-0.109375 0.140625,-0.21875 0,-0.125 -0.109375,-0.125 -0.15625,-0.125 -0.15625,0 -0.375,0.015625 -0.546875,0.015625 H 7.5625 c -0.734375,0 -1.125,-0.015625 -1.125,-0.015625 -0.078125,0 -0.21875,0 -0.21875,0.21875 0,0.125 0.09375,0.125 0.171875,0.125 0.71875,0.015625 0.765625,0.296875 0.765625,0.515625 0,0.09375 0,0.140625 -0.046875,0.296875 z m 0,0"
             id="path39" />
        </g>
      </g>
      <path
         fill="none"
         stroke-width="0.478"
         stroke-linecap="butt"
         stroke-linejoin="miter"
         stroke="#000000"
         stroke-opacity="1"
         stroke-miterlimit="10"
         d="M 9.2062187,10.205188 H 18.405438"
         id="path41"
         transform="scale(0.352778)" />
    </g>
    <path
       style="fill:none;fill-rule:evenodd;stroke:#000000;stroke-width:0.204;stroke-linecap:round;stroke-miterlimit:3.9;stroke-dasharray:0.612, 0.612;stroke-dashoffset:0;stroke-opacity:1;marker-end:url(#Triangle-8-0)"
       id="path63-8-2"
       sodipodi:type="arc"
       sodipodi:cx="-57.548817"
       sodipodi:cy="-58.422031"
       sodipodi:rx="12.032421"
       sodipodi:ry="12.154293"
       sodipodi:start="2.6413975"
       sodipodi:end="4.6995506"
       sodipodi:arc-type="arc"
       d="m -68.107134,-52.592871 a 12.032421,12.154293 0 0 1 0.169862,-11.961826 12.032421,12.154293 0 0 1 10.233983,-6.020626"
       transform="matrix(-0.12186934,-0.99254615,-0.99254615,0.12186934,0,0)"
       sodipodi:open="true" />
    <path
       style="fill:#0000ff;fill-rule:evenodd;stroke:#8e000c;stroke-width:0.25;stroke-opacity:1;marker-end:url(#Triangle)"
       d="M 65.000002,49.999998 48.845472,87.402525"
       id="path11" />
  </g>
</svg>
