<?xml version="1.0" encoding="UTF-8" standalone="no"?>
<!-- Created with Inkscape (http://www.inkscape.org/) -->

<svg
   width="56.77932mm"
   height="45.842255mm"
   viewBox="0 0 56.779319 45.842255"
   version="1.1"
   id="svg1"
   inkscape:version="1.3.2 (091e20e, 2023-11-25, custom)"
   sodipodi:docname="B_single_phase_full_current.svg"
   xmlns:inkscape="http://www.inkscape.org/namespaces/inkscape"
   xmlns:sodipodi="http://sodipodi.sourceforge.net/DTD/sodipodi-0.dtd"
   xmlns="http://www.w3.org/2000/svg"
   xmlns:svg="http://www.w3.org/2000/svg">
  <sodipodi:namedview
     id="namedview1"
     pagecolor="#505050"
     bordercolor="#eeeeee"
     borderopacity="1"
     inkscape:showpageshadow="0"
     inkscape:pageopacity="0"
     inkscape:pagecheckerboard="0"
     inkscape:deskcolor="#505050"
     inkscape:document-units="mm"
     showgrid="true"
     inkscape:zoom="2.8044403"
     inkscape:cx="137.63887"
     inkscape:cy="103.94231"
     inkscape:window-width="2560"
     inkscape:window-height="1351"
     inkscape:window-x="-9"
     inkscape:window-y="-9"
     inkscape:window-maximized="1"
     inkscape:current-layer="layer1">
    <inkscape:grid
       id="grid1"
       units="px"
       originx="-4.7514738"
       originy="-0.63389646"
       spacingx="0.26458332"
       spacingy="0.26458334"
       empcolor="#0099e5"
       empopacity="0.30196078"
       color="#0099e5"
       opacity="0.14901961"
       empspacing="5"
       dotted="false"
       gridanglex="30"
       gridanglez="30"
       visible="true" />
  </sodipodi:namedview>
  <defs
     id="defs1">
    <marker
       style="overflow:visible"
       id="marker7"
       refX="0"
       refY="0"
       orient="auto-start-reverse"
       inkscape:stockid="Triangle arrow"
       markerWidth="1"
       markerHeight="1"
       viewBox="0 0 1 1"
       inkscape:isstock="true"
       inkscape:collect="always"
       preserveAspectRatio="xMidYMid">
      <path
         transform="scale(0.5)"
         style="fill:context-stroke;fill-rule:evenodd;stroke:context-stroke;stroke-width:1pt"
         d="M 5.77,0 -2.88,5 V -5 Z"
         id="path7" />
    </marker>
    <marker
       style="overflow:visible"
       id="marker7-2"
       refX="0"
       refY="0"
       orient="auto-start-reverse"
       inkscape:stockid="Triangle arrow"
       markerWidth="1"
       markerHeight="1"
       viewBox="0 0 1 1"
       inkscape:isstock="true"
       inkscape:collect="always"
       preserveAspectRatio="xMidYMid">
      <path
         transform="scale(0.5)"
         style="fill:context-stroke;fill-rule:evenodd;stroke:context-stroke;stroke-width:1pt"
         d="M 5.77,0 -2.88,5 V -5 Z"
         id="path7-7" />
    </marker>
  </defs>
  <g
     inkscape:label="Layer 1"
     inkscape:groupmode="layer"
     id="layer1"
     transform="translate(-20.891074,-85.035996)">
    <path
       style="fill:#0000ff;fill-rule:evenodd;stroke:#000000;stroke-width:0.15;stroke-linecap:round;stroke-miterlimit:3.9;stroke-dasharray:none;stroke-dashoffset:0;stroke-opacity:1;marker-end:url(#marker7)"
       d="M 25.245577,130.80325 V 87.14701"
       id="path6"
       sodipodi:nodetypes="cc" />
    <path
       style="fill:#0000ff;fill-rule:evenodd;stroke:#000000;stroke-width:0.15;stroke-linecap:round;stroke-miterlimit:3.9;stroke-dasharray:none;stroke-dashoffset:0;stroke-opacity:1;marker-end:url(#marker7-2)"
       d="M 23.667592,108.68312 H 74.651587"
       id="path6-9"
       sodipodi:nodetypes="cc" />
    <g
       inkscape:label=""
       transform="translate(75.934066,108.94829)"
       id="g10">
      <g
         fill="#000000"
         fill-opacity="1"
         id="g9"
         transform="matrix(0.352778,0,0,0.352778,-0.796793,-0.667059)">
        <g
           id="g8"
           transform="translate(1.993,8.2189999)">
          <path
             d="M 2,-2.640625 C 2.03125,-2.8125 2.09375,-3 2.09375,-3.125 c 0,-0.515625 -0.40625,-0.84375 -0.859375,-0.84375 -0.375,0 -0.578125,0.28125 -0.703125,0.53125 -0.140625,0.3125 -0.265625,0.8125 -0.265625,0.859375 0,0.078125 0.0625,0.109375 0.125,0.109375 0.09375,0 0.109375,-0.046875 0.15625,-0.234375 0.171875,-0.703125 0.359375,-1.03125 0.65625,-1.03125 0.28125,0 0.28125,0.28125 0.28125,0.421875 0,0.1875 -0.03125,0.296875 -0.09375,0.546875 L 1.25,-2.25 C 1.21875,-2.09375 1.109375,-1.65625 1.078125,-1.5625 1,-1.1875 1,-0.96875 1,-0.9375 c 0,0.890625 0.734375,1.03125 1.25,1.03125 1.09375,0 2.046875,-1.640625 2.40625,-3.078125 0.28125,0.0625 0.40625,0.078125 0.421875,0.078125 0.09375,0 0.109375,-0.09375 0.109375,-0.125 0,-0.078125 -0.0625,-0.09375 -0.203125,-0.109375 -0.09375,-0.03125 -0.15625,-0.046875 -0.25,-0.0625 0.15625,-0.71875 0.15625,-1.140625 0.15625,-1.296875 0,-0.796875 -0.234375,-1.828125 -1.046875,-1.828125 -0.75,0 -1.359375,0.921875 -1.359375,1.640625 0,0.90625 0.890625,1.328125 1.53125,1.515625 -0.15625,0.625 -0.34375,1.328125 -0.65625,1.9375 C 3,-0.53125 2.671875,-0.125 2.28125,-0.125 c -0.546875,0 -0.671875,-0.34375 -0.671875,-0.703125 0,-0.25 0.15625,-0.859375 0.265625,-1.296875 z M 4.0625,-3.375 c -0.625,-0.21875 -1.328125,-0.578125 -1.328125,-1.3125 0,-0.609375 0.515625,-1.40625 1.09375,-1.40625 0.125,0 0.3125,0.015625 0.421875,0.390625 0.03125,0.140625 0.0625,0.40625 0.0625,0.6875 0,0.484375 -0.109375,1.046875 -0.25,1.640625 z m 0,0"
             id="path8" />
        </g>
      </g>
    </g>
    <path
       style="fill:#000000;fill-opacity:1;fill-rule:evenodd;stroke:#000000;stroke-width:0.15;stroke-linecap:round;stroke-miterlimit:3.9;stroke-dasharray:none;stroke-dashoffset:0;stroke-opacity:1"
       d="m 49.058078,107.3602 v 2.64583"
       id="path23-7" />
    <path
       style="fill:#000000;fill-opacity:1;fill-rule:evenodd;stroke:#000000;stroke-width:0.15;stroke-linecap:round;stroke-miterlimit:3.9;stroke-dasharray:none;stroke-dashoffset:0;stroke-opacity:1"
       d="m 23.922662,123.56043 h 2.64583"
       id="path23-7-3" />
    <path
       style="fill:#000000;fill-opacity:1;fill-rule:evenodd;stroke:#000000;stroke-width:0.15;stroke-linecap:round;stroke-miterlimit:3.9;stroke-dasharray:0.45, 0.45;stroke-dashoffset:0;stroke-opacity:1"
       d="m 22.599745,93.662517 h 2.64583"
       id="path23-7-3-8" />
    <path
       style="fill:#000000;fill-opacity:1;fill-rule:evenodd;stroke:#000000;stroke-width:0.15;stroke-linecap:round;stroke-miterlimit:3.9;stroke-dasharray:0.45, 0.45;stroke-dashoffset:0;stroke-opacity:1"
       d="m 73.220405,93.662517 h 2.64583"
       id="path23-7-3-8-1" />
    <path
       style="fill:#000000;fill-opacity:1;fill-rule:evenodd;stroke:#000000;stroke-width:0.15;stroke-linecap:round;stroke-miterlimit:3.9;stroke-dasharray:none;stroke-dashoffset:0;stroke-opacity:1"
       d="m 72.891746,107.36021 v 2.64583"
       id="path23-7-1" />
    <path
       style="fill:none;fill-opacity:1;fill-rule:evenodd;stroke:#000000;stroke-width:0.15;stroke-linecap:round;stroke-miterlimit:3.9;stroke-dasharray:none;stroke-dashoffset:0;stroke-opacity:1"
       d="m 25.245577,93.662517 h 11.906249 l 0.075,29.878033 23.737501,-0.0649 V 93.662517 h 11.906252"
       id="path24" />
    <g
       inkscape:label=""
       transform="translate(61.313114,109.42921)"
       id="g35">
      <g
         fill="#000000"
         fill-opacity="1"
         id="g31"
         transform="matrix(0.352778,0,0,0.352778,-1.12448,-0.656034)">
        <g
           id="g30"
           transform="translate(3.188,5.8439999)">
          <path
             d="m 1.765625,-1.984375 c 0.5,0 0.84375,0.34375 0.84375,0.953125 0,0.65625 -0.390625,0.9375 -0.828125,0.9375 C 1.609375,-0.09375 1,-0.125 0.734375,-0.46875 0.96875,-0.5 1.0625,-0.65625 1.0625,-0.8125 c 0,-0.203125 -0.140625,-0.34375 -0.34375,-0.34375 -0.15625,0 -0.34375,0.109375 -0.34375,0.359375 0,0.59375 0.65625,0.921875 1.421875,0.921875 0.890625,0 1.46875,-0.5625 1.46875,-1.15625 0,-0.4375 -0.328125,-0.90625 -1.046875,-1.078125 0.484375,-0.15625 0.859375,-0.546875 0.859375,-1.03125 0,-0.484375 -0.5625,-0.84375 -1.28125,-0.84375 -0.703125,0 -1.234375,0.328125 -1.234375,0.8125 0,0.265625 0.203125,0.328125 0.328125,0.328125 0.15625,0 0.3125,-0.09375 0.3125,-0.3125 0,-0.1875 -0.125,-0.296875 -0.296875,-0.3125 0.28125,-0.3125 0.828125,-0.3125 0.890625,-0.3125 0.296875,0 0.6875,0.140625 0.6875,0.640625 0,0.328125 -0.1875,0.90625 -0.796875,0.9375 -0.109375,0 -0.265625,0.015625 -0.3125,0.015625 -0.0625,0.015625 -0.125,0.015625 -0.125,0.109375 0,0.09375 0.0625,0.09375 0.15625,0.09375 z m 0,0"
             id="path29" />
        </g>
      </g>
      <path
         fill="none"
         stroke-width="0.379"
         stroke-linecap="butt"
         stroke-linejoin="miter"
         stroke="#000000"
         stroke-opacity="1"
         stroke-miterlimit="10"
         d="M 0,5.4177189 H 3.652344"
         id="path31"
         transform="scale(0.352778)" />
      <g
         fill="#000000"
         fill-opacity="1"
         id="g33"
         transform="matrix(0.352778,0,0,0.352778,-1.12448,-0.656034)">
        <g
           id="g32"
           transform="translate(3.188,12.56)">
          <path
             d="M 3.21875,-1.125 H 3 C 2.984375,-1.03125 2.921875,-0.640625 2.84375,-0.578125 2.796875,-0.53125 2.3125,-0.53125 2.21875,-0.53125 H 1.109375 L 1.875,-1.15625 C 2.078125,-1.328125 2.609375,-1.703125 2.796875,-1.890625 2.96875,-2.0625 3.21875,-2.375 3.21875,-2.796875 c 0,-0.75 -0.671875,-1.1875 -1.484375,-1.1875 -0.765625,0 -1.296875,0.515625 -1.296875,1.078125 0,0.296875 0.25,0.34375 0.3125,0.34375 0.15625,0 0.328125,-0.109375 0.328125,-0.328125 C 1.078125,-3.015625 1,-3.21875 0.734375,-3.21875 0.875,-3.515625 1.234375,-3.75 1.65625,-3.75 c 0.625,0 0.953125,0.46875 0.953125,0.953125 0,0.421875 -0.28125,0.859375 -0.6875,1.25 L 0.5,-0.25 C 0.4375,-0.1875 0.4375,-0.1875 0.4375,0 h 2.59375 z m 0,0"
             id="path32" />
        </g>
      </g>
      <g
         fill="#000000"
         fill-opacity="1"
         id="g6"
         transform="matrix(0.352778,0,0,0.352778,-1.12448,-0.656034)">
        <g
           id="g34"
           transform="translate(8.0360003,9.5179996)">
          <path
             d="M 2.453125,-3.3125 H 3.46875 c -0.125,0.5625 -0.359375,1.5 -0.359375,2.25 0,0.0625 0,0.390625 0.078125,0.71875 0.09375,0.328125 0.171875,0.4375 0.34375,0.4375 0.1875,0 0.390625,-0.15625 0.390625,-0.359375 0,-0.0625 -0.015625,-0.09375 -0.0625,-0.203125 -0.28125,-0.640625 -0.28125,-1.296875 -0.28125,-1.5 0,-0.234375 0,-0.625 0.15625,-1.34375 H 4.78125 c 0.109375,0 0.453125,0 0.453125,-0.3125 0,-0.234375 -0.203125,-0.234375 -0.375,-0.234375 h -3.09375 c -0.21875,0 -0.53125,0 -0.953125,0.421875 -0.25,0.234375 -0.578125,0.734375 -0.578125,0.796875 0,0.109375 0.109375,0.109375 0.140625,0.109375 0.0625,0 0.078125,-0.03125 0.140625,-0.109375 C 0.953125,-3.3125 1.5,-3.3125 1.671875,-3.3125 H 2.1875 c -0.390625,1.359375 -1,2.625 -1.0625,2.765625 -0.0625,0.125 -0.15625,0.3125 -0.15625,0.390625 0,0.109375 0.078125,0.25 0.28125,0.25 0.3125,0 0.40625,-0.3125 0.59375,-1.046875 z m 0,0"
             id="path33" />
        </g>
      </g>
    </g>
    <g
       inkscape:label=""
       transform="translate(33.267308,109.42921)"
       id="g43">
      <g
         fill="#000000"
         fill-opacity="1"
         id="g37"
         transform="matrix(0.352778,0,0,0.352778,-1.12448,-0.656034)">
        <g
           id="g36"
           transform="translate(3.188,5.8439999)">
          <path
             d="m 2.140625,-3.796875 c 0,-0.1875 -0.015625,-0.1875 -0.203125,-0.1875 -0.390625,0.390625 -1,0.390625 -1.21875,0.390625 v 0.234375 c 0.15625,0 0.5625,0 0.921875,-0.171875 v 3.015625 c 0,0.203125 0,0.28125 -0.625,0.28125 h -0.25 V 0 c 0.328125,-0.03125 0.796875,-0.03125 1.125,-0.03125 0.328125,0 0.796875,0 1.125,0.03125 v -0.234375 h -0.25 c -0.625,0 -0.625,-0.078125 -0.625,-0.28125 z m 0,0"
             id="path35" />
        </g>
      </g>
      <path
         fill="none"
         stroke-width="0.379"
         stroke-linecap="butt"
         stroke-linejoin="miter"
         stroke="#000000"
         stroke-opacity="1"
         stroke-miterlimit="10"
         d="M 0,5.4177189 H 3.652344"
         id="path37"
         transform="scale(0.352778)" />
      <g
         fill="#000000"
         fill-opacity="1"
         id="g40"
         transform="matrix(0.352778,0,0,0.352778,-1.12448,-0.656034)">
        <g
           id="g39"
           transform="translate(3.188,12.56)">
          <path
             d="M 3.21875,-1.125 H 3 C 2.984375,-1.03125 2.921875,-0.640625 2.84375,-0.578125 2.796875,-0.53125 2.3125,-0.53125 2.21875,-0.53125 H 1.109375 L 1.875,-1.15625 C 2.078125,-1.328125 2.609375,-1.703125 2.796875,-1.890625 2.96875,-2.0625 3.21875,-2.375 3.21875,-2.796875 c 0,-0.75 -0.671875,-1.1875 -1.484375,-1.1875 -0.765625,0 -1.296875,0.515625 -1.296875,1.078125 0,0.296875 0.25,0.34375 0.3125,0.34375 0.15625,0 0.328125,-0.109375 0.328125,-0.328125 C 1.078125,-3.015625 1,-3.21875 0.734375,-3.21875 0.875,-3.515625 1.234375,-3.75 1.65625,-3.75 c 0.625,0 0.953125,0.46875 0.953125,0.953125 0,0.421875 -0.28125,0.859375 -0.6875,1.25 L 0.5,-0.25 C 0.4375,-0.1875 0.4375,-0.1875 0.4375,0 h 2.59375 z m 0,0"
             id="path39" />
        </g>
      </g>
      <g
         fill="#000000"
         fill-opacity="1"
         id="g42"
         transform="matrix(0.352778,0,0,0.352778,-1.12448,-0.656034)">
        <g
           id="g41"
           transform="translate(8.0360003,9.5179996)">
          <path
             d="M 2.453125,-3.3125 H 3.46875 c -0.125,0.5625 -0.359375,1.5 -0.359375,2.25 0,0.0625 0,0.390625 0.078125,0.71875 0.09375,0.328125 0.171875,0.4375 0.34375,0.4375 0.1875,0 0.390625,-0.15625 0.390625,-0.359375 0,-0.0625 -0.015625,-0.09375 -0.0625,-0.203125 -0.28125,-0.640625 -0.28125,-1.296875 -0.28125,-1.5 0,-0.234375 0,-0.625 0.15625,-1.34375 H 4.78125 c 0.109375,0 0.453125,0 0.453125,-0.3125 0,-0.234375 -0.203125,-0.234375 -0.375,-0.234375 h -3.09375 c -0.21875,0 -0.53125,0 -0.953125,0.421875 -0.25,0.234375 -0.578125,0.734375 -0.578125,0.796875 0,0.109375 0.109375,0.109375 0.140625,0.109375 0.0625,0 0.078125,-0.03125 0.140625,-0.109375 C 0.953125,-3.3125 1.5,-3.3125 1.671875,-3.3125 H 2.1875 c -0.390625,1.359375 -1,2.625 -1.0625,2.765625 -0.0625,0.125 -0.15625,0.3125 -0.15625,0.390625 0,0.109375 0.078125,0.25 0.28125,0.25 0.3125,0 0.40625,-0.3125 0.59375,-1.046875 z m 0,0"
             id="path40" />
        </g>
      </g>
    </g>
    <g
       inkscape:label=""
       transform="translate(48.150372,110.70991)"
       id="g48">
      <g
         fill="#000000"
         fill-opacity="1"
         id="g47"
         transform="matrix(0.352778,0,0,0.352778,-0.785768,-0.703307)">
        <g
           id="g46"
           transform="translate(1.993,5.8530002)">
          <path
             d="M 2.453125,-3.3125 H 3.46875 c -0.125,0.5625 -0.359375,1.5 -0.359375,2.25 0,0.0625 0,0.390625 0.078125,0.71875 0.09375,0.328125 0.171875,0.4375 0.34375,0.4375 0.1875,0 0.390625,-0.15625 0.390625,-0.359375 0,-0.0625 -0.015625,-0.09375 -0.0625,-0.203125 -0.28125,-0.640625 -0.28125,-1.296875 -0.28125,-1.5 0,-0.234375 0,-0.625 0.15625,-1.34375 H 4.78125 c 0.109375,0 0.453125,0 0.453125,-0.3125 0,-0.234375 -0.203125,-0.234375 -0.375,-0.234375 h -3.09375 c -0.21875,0 -0.53125,0 -0.953125,0.421875 -0.25,0.234375 -0.578125,0.734375 -0.578125,0.796875 0,0.109375 0.109375,0.109375 0.140625,0.109375 0.0625,0 0.078125,-0.03125 0.140625,-0.109375 C 0.953125,-3.3125 1.5,-3.3125 1.671875,-3.3125 H 2.1875 c -0.390625,1.359375 -1,2.625 -1.0625,2.765625 -0.0625,0.125 -0.15625,0.3125 -0.15625,0.390625 0,0.109375 0.078125,0.25 0.28125,0.25 0.3125,0 0.40625,-0.3125 0.59375,-1.046875 z m 0,0"
             id="path46" />
        </g>
      </g>
    </g>
    <g
       inkscape:label=""
       transform="translate(71.218619,109.90228)"
       id="g53">
      <g
         fill="#000000"
         fill-opacity="1"
         id="g50"
         transform="matrix(0.352778,0,0,0.352778,-0.862939,-0.635441)">
        <g
           id="g49"
           transform="translate(1.993,7.77)">
          <path
             d="m 4.140625,-1.59375 h -0.25 C 3.875,-1.46875 3.796875,-0.9375 3.6875,-0.796875 3.625,-0.71875 3.015625,-0.71875 2.828125,-0.71875 H 1.234375 L 2.125,-1.5625 c 1.46875,-1.265625 2.015625,-1.75 2.015625,-2.65625 0,-1.03125 -0.84375,-1.75 -1.953125,-1.75 -1.03125,0 -1.734375,0.8125 -1.734375,1.625 0,0.453125 0.390625,0.5 0.46875,0.5 0.203125,0 0.46875,-0.140625 0.46875,-0.46875 0,-0.265625 -0.1875,-0.46875 -0.46875,-0.46875 -0.046875,0 -0.0625,0 -0.109375,0.015625 C 1.03125,-5.40625 1.609375,-5.6875 2.09375,-5.6875 c 0.90625,0 1.21875,0.84375 1.21875,1.46875 0,0.90625 -0.6875,1.65625 -1.109375,2.125 L 0.5625,-0.328125 C 0.453125,-0.21875 0.453125,-0.203125 0.453125,0 h 3.4375 z m 0,0"
             id="path49" />
        </g>
      </g>
      <g
         fill="#000000"
         fill-opacity="1"
         id="g52"
         transform="matrix(0.352778,0,0,0.352778,-0.862939,-0.635441)">
        <g
           id="g51"
           transform="translate(6.5999999,7.77)">
          <path
             d="M 2.453125,-3.3125 H 3.46875 c -0.125,0.5625 -0.359375,1.5 -0.359375,2.25 0,0.0625 0,0.390625 0.078125,0.71875 0.09375,0.328125 0.171875,0.4375 0.34375,0.4375 0.1875,0 0.390625,-0.15625 0.390625,-0.359375 0,-0.0625 -0.015625,-0.09375 -0.0625,-0.203125 -0.28125,-0.640625 -0.28125,-1.296875 -0.28125,-1.5 0,-0.234375 0,-0.625 0.15625,-1.34375 H 4.78125 c 0.109375,0 0.453125,0 0.453125,-0.3125 0,-0.234375 -0.203125,-0.234375 -0.375,-0.234375 h -3.09375 c -0.21875,0 -0.53125,0 -0.953125,0.421875 -0.25,0.234375 -0.578125,0.734375 -0.578125,0.796875 0,0.109375 0.109375,0.109375 0.140625,0.109375 0.0625,0 0.078125,-0.03125 0.140625,-0.109375 C 0.953125,-3.3125 1.5,-3.3125 1.671875,-3.3125 H 2.1875 c -0.390625,1.359375 -1,2.625 -1.0625,2.765625 -0.0625,0.125 -0.15625,0.3125 -0.15625,0.390625 0,0.109375 0.078125,0.25 0.28125,0.25 0.3125,0 0.40625,-0.3125 0.59375,-1.046875 z m 0,0"
             id="path50" />
        </g>
      </g>
    </g>
    <g
       inkscape:label=""
       transform="translate(20.891073,85.035996)"
       id="g1">
      <g
         fill="#000000"
         fill-opacity="1"
         id="g3"
         transform="matrix(0.352778,0,0,0.352778,-0.851914,-0.703439)">
        <g
           id="use2"
           transform="translate(1.993,8.1190004)">
          <path
             d="M 1.46875,-0.6875 C 1.375,-0.359375 1.359375,-0.28125 0.6875,-0.28125 c -0.171875,0 -0.265625,0 -0.265625,0.171875 C 0.421875,0 0.515625,0 0.671875,0 H 3.9375 c 1.453125,0 2.515625,-1.0625 2.515625,-1.921875 0,-0.640625 -0.53125,-1.1875 -1.40625,-1.28125 C 6.0625,-3.40625 6.9375,-4.078125 6.9375,-4.875 c 0,-0.703125 -0.65625,-1.25 -1.71875,-1.25 h -3.0625 c -0.171875,0 -0.265625,0 -0.265625,0.15625 0,0.125 0.078125,0.125 0.265625,0.125 0.03125,0 0.1875,0 0.34375,0.015625 0.140625,0.015625 0.203125,0.03125 0.203125,0.140625 0,0.03125 0,0.078125 -0.03125,0.171875 z M 2.859375,-3.296875 3.40625,-5.5 C 3.484375,-5.828125 3.5,-5.84375 3.890625,-5.84375 H 5.09375 c 0.9375,0 1.015625,0.703125 1.015625,0.921875 0,0.8125 -0.828125,1.625 -1.84375,1.625 z M 2.4375,-0.28125 c -0.125,0 -0.15625,0 -0.1875,0 C 2.15625,-0.296875 2.140625,-0.3125 2.140625,-0.375 c 0,-0.015625 0,-0.03125 0.03125,-0.203125 l 0.625,-2.5 h 1.6875 c 0.5625,0 1.125,0.25 1.125,1.0625 0,0.890625 -0.8125,1.734375 -1.890625,1.734375 z m 0,0"
             id="path4" />
        </g>
      </g>
      <g
         fill="#000000"
         fill-opacity="1"
         id="g4"
         transform="matrix(0.352778,0,0,0.352778,-0.851914,-0.703439)">
        <g
           id="use3"
           transform="translate(8.9659996,9.1149998)">
          <path
             d="m 2.84375,-1.78125 c 0,-0.5625 -0.5625,-0.890625 -1.234375,-0.890625 -0.296875,0 -1,0.03125 -1,0.53125 0,0.171875 0.109375,0.296875 0.296875,0.296875 0.171875,0 0.28125,-0.125 0.28125,-0.28125 0,-0.109375 -0.046875,-0.21875 -0.15625,-0.265625 0.203125,-0.09375 0.5,-0.09375 0.5625,-0.09375 0.421875,0 0.75,0.265625 0.75,0.71875 v 0.15625 c -0.265625,0 -0.75,0.015625 -1.1875,0.171875 -0.390625,0.140625 -0.765625,0.40625 -0.765625,0.8125 0,0.53125 0.625,0.6875 1.09375,0.6875 0.5,0 0.796875,-0.25 0.9375,-0.484375 0.03125,0.3125 0.234375,0.453125 0.4375,0.453125 0.03125,0 0.671875,0 0.671875,-0.5625 V -0.875 H 3.3125 v 0.328125 c 0,0.0625 0,0.328125 -0.234375,0.328125 -0.234375,0 -0.234375,-0.265625 -0.234375,-0.328125 z m -0.5,0.9375 c 0,0.609375 -0.609375,0.71875 -0.8125,0.71875 -0.3125,0 -0.625,-0.203125 -0.625,-0.5 0,-0.34375 0.328125,-0.78125 1.4375,-0.8125 z m 0,0"
             id="path5" />
        </g>
      </g>
    </g>
    <path
       style="fill:none;fill-rule:evenodd;stroke:#000000;stroke-width:0.15;stroke-linecap:round;stroke-miterlimit:3.9;stroke-dasharray:none"
       d="m 37.254299,108.69366 c 0.546445,1.5838 1.093023,3.16706 1.639467,4.71329 0.546578,1.54626 1.093022,3.05549 1.639601,4.4929 0.546443,1.43685 1.092888,2.80136 1.639467,4.06199 0.546443,1.26064 1.093022,2.41687 1.639466,3.44217 0.546444,1.02531 1.093023,1.91858 1.639467,2.66049 0.546578,0.74191 1.093022,1.33079 1.639467,1.7545 0.546578,0.42371 1.093022,0.68115 1.6396,0.76732 0.546444,0.0856 1.093023,-5.5e-4 1.639467,-0.25687 0.546444,-0.25578 1.093023,-0.68225 1.639466,-1.26838 0.546579,-0.58557 1.093022,-1.3319 1.639334,-2.22075 0.547247,-0.8883 1.093155,-1.91968 1.639065,-3.06873 0.547246,-1.1496 1.093156,-2.41797 1.640403,-3.77418 0.545909,-1.35677 1.093156,-2.80245 1.639065,-4.30284 0.547247,-1.50042 1.093157,-3.05603 1.639066,-4.63045 0.547247,-1.57386 1.093156,-3.16652 1.640403,-4.74037 0.545909,-1.57445 1.093156,-3.12949 1.639066,-4.63044 0.547247,-1.5004 1.093156,-2.945545 1.639065,-4.302855 0.547247,-1.35675 1.093157,-2.62405 1.640403,-3.77416 0.54591,-1.1496 1.093157,-2.18044 1.639066,-3.06876 0.547247,-0.88884 1.093156,-1.63461 1.639065,-2.22074 0.547248,-0.58449 1.093156,-1.00985 1.640404,-1.26949 0.545908,-0.25411 1.093156,-0.3425 1.639064,-0.25411 0.54591,0.0827 1.093157,0.3425 1.639066,0.76789"
       title="t sin(t)"
       id="path2"
       sodipodi:nodetypes="ccccsccccccccccccccccccc" />
    <path
       style="fill:none;fill-rule:evenodd;stroke:#000000;stroke-width:0.15;stroke-linecap:round;stroke-miterlimit:3.9;stroke-dasharray:none"
       d="m 37.254299,108.69366 c -0.546445,-1.5838 -1.093023,-3.16706 -1.639467,-4.71329 -0.546578,-1.54626 -1.093022,-3.05549 -1.639601,-4.4929 -0.546443,-1.43685 -1.092888,-2.80136 -1.639467,-4.06199 -0.546443,-1.26064 -1.093022,-2.41687 -1.639466,-3.44217 -0.546444,-1.02531 -1.093023,-1.91858 -1.639467,-2.66049 -0.546578,-0.74191 -1.093022,-1.33079 -1.639467,-1.7545 -0.546578,-0.42371 -1.526647,-0.867801 -2.073225,-0.953971"
       title="t sin(t)"
       id="path2-7"
       sodipodi:nodetypes="ccccsccc" />
    <g
       inkscape:label=""
       transform="translate(57.547636,85.436663)"
       id="g21">
      <g
         fill="#000000"
         fill-opacity="1"
         id="g14"
         transform="matrix(0.352778,0,0,0.352778,-0.851914,-0.702601)">
        <g
           id="g13"
           transform="translate(1.993,11.059)">
          <path
             d="M 1.46875,-0.6875 C 1.375,-0.359375 1.359375,-0.28125 0.6875,-0.28125 c -0.171875,0 -0.265625,0 -0.265625,0.171875 C 0.421875,0 0.515625,0 0.671875,0 H 3.9375 c 1.453125,0 2.515625,-1.0625 2.515625,-1.921875 0,-0.640625 -0.53125,-1.1875 -1.40625,-1.28125 C 6.0625,-3.40625 6.9375,-4.078125 6.9375,-4.875 c 0,-0.703125 -0.65625,-1.25 -1.71875,-1.25 h -3.0625 c -0.171875,0 -0.265625,0 -0.265625,0.15625 0,0.125 0.078125,0.125 0.265625,0.125 0.03125,0 0.1875,0 0.34375,0.015625 0.140625,0.015625 0.203125,0.03125 0.203125,0.140625 0,0.03125 0,0.078125 -0.03125,0.171875 z M 2.859375,-3.296875 3.40625,-5.5 C 3.484375,-5.828125 3.5,-5.84375 3.890625,-5.84375 H 5.09375 c 0.9375,0 1.015625,0.703125 1.015625,0.921875 0,0.8125 -0.828125,1.625 -1.84375,1.625 z M 2.4375,-0.28125 c -0.125,0 -0.15625,0 -0.1875,0 C 2.15625,-0.296875 2.140625,-0.3125 2.140625,-0.375 c 0,-0.015625 0,-0.03125 0.03125,-0.203125 l 0.625,-2.5 h 1.6875 c 0.5625,0 1.125,0.25 1.125,1.0625 0,0.890625 -0.8125,1.734375 -1.890625,1.734375 z m 0,0"
             id="path15" />
        </g>
      </g>
      <g
         fill="#000000"
         fill-opacity="1"
         id="g16"
         transform="matrix(0.352778,0,0,0.352778,-0.851914,-0.702601)">
        <g
           id="g15"
           transform="translate(9.4119997,6.4759998)">
          <path
             d="M 2.375,1.359375 C 1.71875,0.84375 1.1875,-0.09375 1.1875,-1.5 c 0,-1.375 0.53125,-2.34375 1.1875,-2.84375 0,0 0.03125,-0.03125 0.03125,-0.0625 0,-0.03125 -0.03125,-0.078125 -0.109375,-0.078125 -0.09375,0 -1.546875,0.9375 -1.546875,2.984375 0,2.046875 1.4375,3 1.546875,3 C 2.375,1.5 2.40625,1.453125 2.40625,1.40625 2.40625,1.375 2.375,1.359375 2.375,1.359375 Z m 0,0"
             id="path16" />
        </g>
        <g
           id="use10"
           transform="translate(12.290214,6.4759998)">
          <path
             d="m 2.140625,-3.796875 c 0,-0.1875 -0.015625,-0.1875 -0.203125,-0.1875 -0.390625,0.390625 -1,0.390625 -1.21875,0.390625 v 0.234375 c 0.15625,0 0.5625,0 0.921875,-0.171875 v 3.015625 c 0,0.203125 0,0.28125 -0.625,0.28125 h -0.25 V 0 c 0.328125,-0.03125 0.796875,-0.03125 1.125,-0.03125 0.328125,0 0.796875,0 1.125,0.03125 v -0.234375 h -0.25 c -0.625,0 -0.625,-0.078125 -0.625,-0.28125 z m 0,0"
             id="path17" />
        </g>
        <g
           id="use11"
           transform="translate(15.943126,6.4759998)">
          <path
             d="m 2.125,-1.5 c 0,-2.046875 -1.4375,-2.984375 -1.5625,-2.984375 -0.0625,0 -0.078125,0.046875 -0.078125,0.078125 0,0.03125 0,0.046875 0.109375,0.140625 C 1.125,-3.8125 1.6875,-2.921875 1.6875,-1.5 1.6875,-0.234375 1.25,0.71875 0.5625,1.296875 0.484375,1.375 0.484375,1.375 0.484375,1.40625 0.484375,1.4375 0.5,1.5 0.5625,1.5 0.671875,1.5 2.125,0.5625 2.125,-1.5 Z m 0,0"
             id="path18" />
        </g>
      </g>
      <g
         fill="#000000"
         fill-opacity="1"
         id="g17"
         transform="matrix(0.352778,0,0,0.352778,-0.851914,-0.702601)">
        <g
           id="use12"
           transform="translate(8.9659996,12.058)">
          <path
             d="m 2.84375,-1.78125 c 0,-0.5625 -0.5625,-0.890625 -1.234375,-0.890625 -0.296875,0 -1,0.03125 -1,0.53125 0,0.171875 0.109375,0.296875 0.296875,0.296875 0.171875,0 0.28125,-0.125 0.28125,-0.28125 0,-0.109375 -0.046875,-0.21875 -0.15625,-0.265625 0.203125,-0.09375 0.5,-0.09375 0.5625,-0.09375 0.421875,0 0.75,0.265625 0.75,0.71875 v 0.15625 c -0.265625,0 -0.75,0.015625 -1.1875,0.171875 -0.390625,0.140625 -0.765625,0.40625 -0.765625,0.8125 0,0.53125 0.625,0.6875 1.09375,0.6875 0.5,0 0.796875,-0.25 0.9375,-0.484375 0.03125,0.3125 0.234375,0.453125 0.4375,0.453125 0.03125,0 0.671875,0 0.671875,-0.5625 V -0.875 H 3.3125 v 0.328125 c 0,0.0625 0,0.328125 -0.234375,0.328125 -0.234375,0 -0.234375,-0.265625 -0.234375,-0.328125 z m -0.5,0.9375 c 0,0.609375 -0.609375,0.71875 -0.8125,0.71875 -0.3125,0 -0.625,-0.203125 -0.625,-0.5 0,-0.34375 0.328125,-0.78125 1.4375,-0.8125 z m 0,0"
             id="path19" />
        </g>
      </g>
      <g
         fill="#000000"
         fill-opacity="1"
         id="g18"
         transform="matrix(0.352778,0,0,0.352778,-0.851914,-0.702601)">
        <g
           id="use13"
           transform="translate(19.319,11.059)">
          <path
             d="M 3.0625,2.140625 C 3.0625,2.09375 3.03125,2.0625 2.984375,2 1.828125,0.9375 1.46875,-0.671875 1.46875,-2.25 1.46875,-3.625 1.734375,-5.3125 3,-6.515625 3.046875,-6.5625 3.0625,-6.578125 3.0625,-6.625 c 0,-0.0625 -0.046875,-0.109375 -0.109375,-0.109375 -0.109375,0 -0.921875,0.65625 -1.40625,1.625 C 1.125,-4.25 0.90625,-3.3125 0.90625,-2.25 c 0,0.640625 0.078125,1.671875 0.578125,2.71875 0.53125,1.109375 1.359375,1.765625 1.46875,1.765625 0.0625,0 0.109375,-0.03125 0.109375,-0.09375 z m 0,0"
             id="path20" />
        </g>
      </g>
      <g
         fill="#000000"
         fill-opacity="1"
         id="g19"
         transform="matrix(0.352778,0,0,0.352778,-0.851914,-0.702601)">
        <g
           id="use14"
           transform="translate(22.903,11.059)">
          <path
             d="M 2,-2.640625 C 2.03125,-2.8125 2.09375,-3 2.09375,-3.125 c 0,-0.515625 -0.40625,-0.84375 -0.859375,-0.84375 -0.375,0 -0.578125,0.28125 -0.703125,0.53125 -0.140625,0.3125 -0.265625,0.8125 -0.265625,0.859375 0,0.078125 0.0625,0.109375 0.125,0.109375 0.09375,0 0.109375,-0.046875 0.15625,-0.234375 0.171875,-0.703125 0.359375,-1.03125 0.65625,-1.03125 0.28125,0 0.28125,0.28125 0.28125,0.421875 0,0.1875 -0.03125,0.296875 -0.09375,0.546875 L 1.25,-2.25 C 1.21875,-2.09375 1.109375,-1.65625 1.078125,-1.5625 1,-1.1875 1,-0.96875 1,-0.9375 c 0,0.890625 0.734375,1.03125 1.25,1.03125 1.09375,0 2.046875,-1.640625 2.40625,-3.078125 0.28125,0.0625 0.40625,0.078125 0.421875,0.078125 0.09375,0 0.109375,-0.09375 0.109375,-0.125 0,-0.078125 -0.0625,-0.09375 -0.203125,-0.109375 -0.09375,-0.03125 -0.15625,-0.046875 -0.25,-0.0625 0.15625,-0.71875 0.15625,-1.140625 0.15625,-1.296875 0,-0.796875 -0.234375,-1.828125 -1.046875,-1.828125 -0.75,0 -1.359375,0.921875 -1.359375,1.640625 0,0.90625 0.890625,1.328125 1.53125,1.515625 -0.15625,0.625 -0.34375,1.328125 -0.65625,1.9375 C 3,-0.53125 2.671875,-0.125 2.28125,-0.125 c -0.546875,0 -0.671875,-0.34375 -0.671875,-0.703125 0,-0.25 0.15625,-0.859375 0.265625,-1.296875 z M 4.0625,-3.375 c -0.625,-0.21875 -1.328125,-0.578125 -1.328125,-1.3125 0,-0.609375 0.515625,-1.40625 1.09375,-1.40625 0.125,0 0.3125,0.015625 0.421875,0.390625 0.03125,0.140625 0.0625,0.40625 0.0625,0.6875 0,0.484375 -0.109375,1.046875 -0.25,1.640625 z m 0,0"
             id="path21" />
        </g>
      </g>
      <g
         fill="#000000"
         fill-opacity="1"
         id="g20"
         transform="matrix(0.352778,0,0,0.352778,-0.851914,-0.702601)">
        <g
           id="use15"
           transform="translate(28.368,11.059)">
          <path
             d="M 2.671875,-2.25 C 2.671875,-2.984375 2.5625,-3.96875 2.09375,-4.96875 1.5625,-6.078125 0.734375,-6.734375 0.625,-6.734375 c -0.09375,0 -0.109375,0.078125 -0.109375,0.109375 0,0.046875 0.015625,0.0625 0.078125,0.125 0.53125,0.46875 1.515625,1.6875 1.515625,4.25 0,1.28125 -0.234375,3.0625 -1.53125,4.28125 -0.015625,0.015625 -0.0625,0.0625 -0.0625,0.109375 0,0.015625 0.015625,0.09375 0.109375,0.09375 0.109375,0 0.921875,-0.640625 1.40625,-1.625 C 2.453125,-0.25 2.671875,-1.171875 2.671875,-2.25 Z m 0,0"
             id="path22" />
        </g>
      </g>
    </g>
    <g
       inkscape:label=""
       transform="translate(39.138396,95.019636)"
       id="g54">
      <g
         fill="#000000"
         fill-opacity="1"
         id="g24"
         transform="matrix(0.352778,0,0,0.352778,-0.851914,-0.699426)">
        <g
           id="g23"
           transform="translate(1.993,8.717)">
          <path
             d="M 1.46875,-0.6875 C 1.375,-0.359375 1.359375,-0.28125 0.6875,-0.28125 c -0.171875,0 -0.265625,0 -0.265625,0.171875 C 0.421875,0 0.515625,0 0.671875,0 H 3.9375 c 1.453125,0 2.515625,-1.0625 2.515625,-1.921875 0,-0.640625 -0.53125,-1.1875 -1.40625,-1.28125 C 6.0625,-3.40625 6.9375,-4.078125 6.9375,-4.875 c 0,-0.703125 -0.65625,-1.25 -1.71875,-1.25 h -3.0625 c -0.171875,0 -0.265625,0 -0.265625,0.15625 0,0.125 0.078125,0.125 0.265625,0.125 0.03125,0 0.1875,0 0.34375,0.015625 0.140625,0.015625 0.203125,0.03125 0.203125,0.140625 0,0.03125 0,0.078125 -0.03125,0.171875 z M 2.859375,-3.296875 3.40625,-5.5 C 3.484375,-5.828125 3.5,-5.84375 3.890625,-5.84375 H 5.09375 c 0.9375,0 1.015625,0.703125 1.015625,0.921875 0,0.8125 -0.828125,1.625 -1.84375,1.625 z M 2.4375,-0.28125 c -0.125,0 -0.15625,0 -0.1875,0 C 2.15625,-0.296875 2.140625,-0.3125 2.140625,-0.375 c 0,-0.015625 0,-0.03125 0.03125,-0.203125 l 0.625,-2.5 h 1.6875 c 0.5625,0 1.125,0.25 1.125,1.0625 0,0.890625 -0.8125,1.734375 -1.890625,1.734375 z m 0,0"
             id="path23" />
        </g>
      </g>
      <g
         fill="#000000"
         fill-opacity="1"
         id="g26"
         transform="matrix(0.352778,0,0,0.352778,-0.851914,-0.699426)">
        <g
           id="g25"
           transform="translate(8.9659996,9.7130003)">
          <path
             d="m 2.84375,-1.78125 c 0,-0.5625 -0.5625,-0.890625 -1.234375,-0.890625 -0.296875,0 -1,0.03125 -1,0.53125 0,0.171875 0.109375,0.296875 0.296875,0.296875 0.171875,0 0.28125,-0.125 0.28125,-0.28125 0,-0.109375 -0.046875,-0.21875 -0.15625,-0.265625 0.203125,-0.09375 0.5,-0.09375 0.5625,-0.09375 0.421875,0 0.75,0.265625 0.75,0.71875 v 0.15625 c -0.265625,0 -0.75,0.015625 -1.1875,0.171875 -0.390625,0.140625 -0.765625,0.40625 -0.765625,0.8125 0,0.53125 0.625,0.6875 1.09375,0.6875 0.5,0 0.796875,-0.25 0.9375,-0.484375 0.03125,0.3125 0.234375,0.453125 0.4375,0.453125 0.03125,0 0.671875,0 0.671875,-0.5625 V -0.875 H 3.3125 v 0.328125 c 0,0.0625 0,0.328125 -0.234375,0.328125 -0.234375,0 -0.234375,-0.265625 -0.234375,-0.328125 z m -0.5,0.9375 c 0,0.609375 -0.609375,0.71875 -0.8125,0.71875 -0.3125,0 -0.625,-0.203125 -0.625,-0.5 0,-0.34375 0.328125,-0.78125 1.4375,-0.8125 z m 0,0"
             id="path25" />
        </g>
      </g>
      <g
         fill="#000000"
         fill-opacity="1"
         id="g28"
         transform="matrix(0.352778,0,0,0.352778,-0.851914,-0.699426)">
        <g
           id="g27"
           transform="translate(13.117,8.717)">
          <path
             d="M 3.0625,2.140625 C 3.0625,2.09375 3.03125,2.0625 2.984375,2 1.828125,0.9375 1.46875,-0.671875 1.46875,-2.25 1.46875,-3.625 1.734375,-5.3125 3,-6.515625 3.046875,-6.5625 3.0625,-6.578125 3.0625,-6.625 c 0,-0.0625 -0.046875,-0.109375 -0.109375,-0.109375 -0.109375,0 -0.921875,0.65625 -1.40625,1.625 C 1.125,-4.25 0.90625,-3.3125 0.90625,-2.25 c 0,0.640625 0.078125,1.671875 0.578125,2.71875 0.53125,1.109375 1.359375,1.765625 1.46875,1.765625 0.0625,0 0.109375,-0.03125 0.109375,-0.09375 z m 0,0"
             id="path26" />
        </g>
      </g>
      <g
         fill="#000000"
         fill-opacity="1"
         id="g38"
         transform="matrix(0.352778,0,0,0.352778,-0.851914,-0.699426)">
        <g
           id="g29"
           transform="translate(16.701,8.717)">
          <path
             d="M 2,-2.640625 C 2.03125,-2.8125 2.09375,-3 2.09375,-3.125 c 0,-0.515625 -0.40625,-0.84375 -0.859375,-0.84375 -0.375,0 -0.578125,0.28125 -0.703125,0.53125 -0.140625,0.3125 -0.265625,0.8125 -0.265625,0.859375 0,0.078125 0.0625,0.109375 0.125,0.109375 0.09375,0 0.109375,-0.046875 0.15625,-0.234375 0.171875,-0.703125 0.359375,-1.03125 0.65625,-1.03125 0.28125,0 0.28125,0.28125 0.28125,0.421875 0,0.1875 -0.03125,0.296875 -0.09375,0.546875 L 1.25,-2.25 C 1.21875,-2.09375 1.109375,-1.65625 1.078125,-1.5625 1,-1.1875 1,-0.96875 1,-0.9375 c 0,0.890625 0.734375,1.03125 1.25,1.03125 1.09375,0 2.046875,-1.640625 2.40625,-3.078125 0.28125,0.0625 0.40625,0.078125 0.421875,0.078125 0.09375,0 0.109375,-0.09375 0.109375,-0.125 0,-0.078125 -0.0625,-0.09375 -0.203125,-0.109375 -0.09375,-0.03125 -0.15625,-0.046875 -0.25,-0.0625 0.15625,-0.71875 0.15625,-1.140625 0.15625,-1.296875 0,-0.796875 -0.234375,-1.828125 -1.046875,-1.828125 -0.75,0 -1.359375,0.921875 -1.359375,1.640625 0,0.90625 0.890625,1.328125 1.53125,1.515625 -0.15625,0.625 -0.34375,1.328125 -0.65625,1.9375 C 3,-0.53125 2.671875,-0.125 2.28125,-0.125 c -0.546875,0 -0.671875,-0.34375 -0.671875,-0.703125 0,-0.25 0.15625,-0.859375 0.265625,-1.296875 z M 4.0625,-3.375 c -0.625,-0.21875 -1.328125,-0.578125 -1.328125,-1.3125 0,-0.609375 0.515625,-1.40625 1.09375,-1.40625 0.125,0 0.3125,0.015625 0.421875,0.390625 0.03125,0.140625 0.0625,0.40625 0.0625,0.6875 0,0.484375 -0.109375,1.046875 -0.25,1.640625 z m 0,0"
             id="path28" />
        </g>
      </g>
      <g
         fill="#000000"
         fill-opacity="1"
         id="g45"
         transform="matrix(0.352778,0,0,0.352778,-0.851914,-0.699426)">
        <g
           id="g44"
           transform="translate(22.166,8.717)">
          <path
             d="M 2.671875,-2.25 C 2.671875,-2.984375 2.5625,-3.96875 2.09375,-4.96875 1.5625,-6.078125 0.734375,-6.734375 0.625,-6.734375 c -0.09375,0 -0.109375,0.078125 -0.109375,0.109375 0,0.046875 0.015625,0.0625 0.078125,0.125 0.53125,0.46875 1.515625,1.6875 1.515625,4.25 0,1.28125 -0.234375,3.0625 -1.53125,4.28125 -0.015625,0.015625 -0.0625,0.0625 -0.0625,0.109375 0,0.015625 0.015625,0.09375 0.109375,0.09375 0.109375,0 0.921875,-0.640625 1.40625,-1.625 C 2.453125,-0.25 2.671875,-1.171875 2.671875,-2.25 Z m 0,0"
             id="path14" />
        </g>
      </g>
    </g>
    <path
       style="fill:none;fill-rule:evenodd;stroke:#000000;stroke-width:0.1;stroke-linecap:round;stroke-miterlimit:3.9;stroke-dasharray:none"
       d="M 39.15835,96.30835 37.652559,95.151188"
       id="path54"
       sodipodi:nodetypes="cc" />
    <path
       style="fill:none;fill-rule:evenodd;stroke:#000000;stroke-width:0.1;stroke-linecap:round;stroke-miterlimit:3.9;stroke-dasharray:none"
       d="M 69.695485,87.841683 68.262516,87.5771"
       id="path54-0"
       sodipodi:nodetypes="cc" />
  </g>
</svg>
