<?xml version="1.0" encoding="UTF-8" standalone="no"?>
<!-- Created with Inkscape (http://www.inkscape.org/) -->

<svg
   width="136.49409mm"
   height="65.406761mm"
   viewBox="0 0 136.49409 65.406762"
   version="1.1"
   id="svg1"
   inkscape:version="1.3.2 (091e20e, 2023-11-25, custom)"
   sodipodi:docname="Distributed_winding_MMF.svg"
   xmlns:inkscape="http://www.inkscape.org/namespaces/inkscape"
   xmlns:sodipodi="http://sodipodi.sourceforge.net/DTD/sodipodi-0.dtd"
   xmlns="http://www.w3.org/2000/svg"
   xmlns:svg="http://www.w3.org/2000/svg">
  <sodipodi:namedview
     id="namedview1"
     pagecolor="#505050"
     bordercolor="#eeeeee"
     borderopacity="1"
     inkscape:showpageshadow="0"
     inkscape:pageopacity="0"
     inkscape:pagecheckerboard="0"
     inkscape:deskcolor="#505050"
     inkscape:document-units="mm"
     inkscape:zoom="16"
     inkscape:cx="165.4375"
     inkscape:cy="29.78125"
     inkscape:window-width="2560"
     inkscape:window-height="1351"
     inkscape:window-x="2551"
     inkscape:window-y="-9"
     inkscape:window-maximized="1"
     inkscape:current-layer="g33" />
  <defs
     id="defs1">
    <clipPath
       clipPathUnits="userSpaceOnUse"
       id="clipPath172">
      <path
         d="M 0,0 H 595.32 V 841.92 H 0 Z"
         transform="translate(-244.02501,-639.52002)"
         id="path172" />
    </clipPath>
    <clipPath
       clipPathUnits="userSpaceOnUse"
       id="clipPath170">
      <path
         d="M 0,0 H 595.32 V 841.92 H 0 Z"
         transform="translate(-244.02501,-642.37002)"
         id="path170" />
    </clipPath>
    <clipPath
       clipPathUnits="userSpaceOnUse"
       id="clipPath168">
      <path
         d="M 0,0 H 595.32 V 841.92 H 0 Z"
         transform="translate(-221.025,-639.52002)"
         id="path168" />
    </clipPath>
    <clipPath
       clipPathUnits="userSpaceOnUse"
       id="clipPath166">
      <path
         d="M 0,0 H 595.32 V 841.92 H 0 Z"
         transform="translate(-221.025,-642.37002)"
         id="path166" />
    </clipPath>
    <clipPath
       clipPathUnits="userSpaceOnUse"
       id="clipPath145">
      <path
         d="M 0,0 H 595.32 V 841.92 H 0 Z"
         transform="translate(-449.07501,-642.42002)"
         id="path145" />
    </clipPath>
    <clipPath
       clipPathUnits="userSpaceOnUse"
       id="clipPath137">
      <path
         d="M 0,0 H 595.32 V 841.92 H 0 Z"
         transform="translate(-426.27501,-642.42002)"
         id="path137" />
    </clipPath>
    <clipPath
       clipPathUnits="userSpaceOnUse"
       id="clipPath129">
      <path
         d="M 0,0 H 595.32 V 841.92 H 0 Z"
         transform="translate(-403.47501,-642.37002)"
         id="path129" />
    </clipPath>
    <clipPath
       clipPathUnits="userSpaceOnUse"
       id="clipPath81">
      <path
         d="M 0,0 H 595.32 V 841.92 H 0 Z"
         transform="translate(-198.32501,-639.52002)"
         id="path81" />
    </clipPath>
    <clipPath
       clipPathUnits="userSpaceOnUse"
       id="clipPath79">
      <path
         d="M 0,0 H 595.32 V 841.92 H 0 Z"
         transform="translate(-198.32501,-642.37002)"
         id="path79" />
    </clipPath>
    <inkscape:path-effect
       effect="bspline"
       id="path-effect1"
       is_visible="true"
       lpeversion="1.3"
       weight="33.333333"
       steps="2"
       helper_size="0"
       apply_no_weight="true"
       apply_with_weight="true"
       only_selected="false"
       uniform="false" />
    <marker
       style="overflow:visible"
       id="marker7"
       refX="0"
       refY="0"
       orient="auto-start-reverse"
       inkscape:stockid="Triangle arrow"
       markerWidth="1"
       markerHeight="1"
       viewBox="0 0 1 1"
       inkscape:isstock="true"
       inkscape:collect="always"
       preserveAspectRatio="xMidYMid">
      <path
         transform="scale(0.5)"
         style="fill:context-stroke;fill-rule:evenodd;stroke:context-stroke;stroke-width:1pt"
         d="M 5.77,0 -2.88,5 V -5 Z"
         id="path7-1" />
    </marker>
    <marker
       style="overflow:visible"
       id="marker7-2"
       refX="0"
       refY="0"
       orient="auto-start-reverse"
       inkscape:stockid="Triangle arrow"
       markerWidth="2"
       markerHeight="2"
       viewBox="0 0 1 1"
       inkscape:isstock="true"
       inkscape:collect="always"
       preserveAspectRatio="xMidYMid">
      <path
         transform="scale(0.5)"
         style="fill:context-stroke;fill-rule:evenodd;stroke:context-stroke;stroke-width:1pt"
         d="M 5.77,0 -2.88,5 V -5 Z"
         id="path7-7" />
    </marker>
  </defs>
  <g
     inkscape:label="Layer 1"
     inkscape:groupmode="layer"
     id="layer1"
     transform="translate(-23.3097, -107.359)">
    <path
       id="path52"
       d="M 47.230019,167.57106 H 147.48935 V 150.479 H 47.230019 Z"
       style="fill:#e1e1e1;fill-opacity:1;fill-rule:evenodd;stroke:none;stroke-width:0.352778" />
    <path
       id="path56"
       d="m 47.080089,172.59813 h 4.02166 v -5.02707 h -4.02166 z"
       style="fill:#e1e1e1;fill-opacity:1;fill-rule:evenodd;stroke:none;stroke-width:0.352777" />
    <path
       id="path57"
       d="m 55.123409,172.59813 h 4.02166 v -5.02707 h -4.02166 z"
       style="fill:#e1e1e1;fill-opacity:1;fill-rule:evenodd;stroke:none;stroke-width:0.352777" />
    <path
       id="path58"
       d="m 63.166729,172.59813 h 4.02167 v -5.02707 h -4.02167 z"
       style="fill:#e1e1e1;fill-opacity:1;fill-rule:evenodd;stroke:none;stroke-width:0.352777" />
    <path
       id="path59"
       d="m 71.210059,172.59813 h 4.02166 v -5.02707 h -4.02166 z"
       style="fill:#e1e1e1;fill-opacity:1;fill-rule:evenodd;stroke:none;stroke-width:0.352777" />
    <path
       id="path60"
       d="m 79.253379,172.59813 h 4.02166 v -5.02707 h -4.02166 z"
       style="fill:#e1e1e1;fill-opacity:1;fill-rule:evenodd;stroke:none;stroke-width:0.352777" />
    <path
       id="path61"
       d="m 87.296699,172.59813 h 4.02166 v -5.02707 h -4.02166 z"
       style="fill:#e1e1e1;fill-opacity:1;fill-rule:evenodd;stroke:none;stroke-width:0.352777" />
    <path
       id="path62"
       d="m 95.340019,172.59813 h 4.02166 v -5.02707 h -4.02166 z"
       style="fill:#e1e1e1;fill-opacity:1;fill-rule:evenodd;stroke:none;stroke-width:0.352777" />
    <path
       id="path63"
       d="m 103.38334,172.59813 h 4.02167 v -5.02707 h -4.02167 z"
       style="fill:#e1e1e1;fill-opacity:1;fill-rule:evenodd;stroke:none;stroke-width:0.352777" />
    <path
       id="path64"
       d="m 111.42667,172.59813 h 4.02166 v -5.02707 h -4.02166 z"
       style="fill:#e1e1e1;fill-opacity:1;fill-rule:evenodd;stroke:none;stroke-width:0.352777" />
    <path
       id="path65"
       d="m 119.46999,172.59813 h 4.02166 v -5.02707 h -4.02166 z"
       style="fill:#e1e1e1;fill-opacity:1;fill-rule:evenodd;stroke:none;stroke-width:0.352777" />
    <path
       id="path66"
       d="m 127.51331,172.59813 h 4.02166 v -5.02707 h -4.02166 z"
       style="fill:#e1e1e1;fill-opacity:1;fill-rule:evenodd;stroke:none;stroke-width:0.352777" />
    <path
       id="path67"
       d="m 135.55664,172.59813 h 4.02166 v -5.02707 h -4.02166 z"
       style="fill:#e1e1e1;fill-opacity:1;fill-rule:evenodd;stroke:none;stroke-width:0.352777" />
    <path
       id="path68"
       d="m 143.59997,172.59813 h 4.02165 v -5.02707 h -4.02165 z"
       style="fill:#e1e1e1;fill-opacity:1;fill-rule:evenodd;stroke:none;stroke-width:0.352777" />
    <path
       id="path75"
       d="m 47.230339,150.47898 100.258741,0.0176"
       style="fill:none;stroke:#000000;stroke-width:0.264583;stroke-linecap:butt;stroke-linejoin:round;stroke-miterlimit:8;stroke-dasharray:none;stroke-opacity:1" />
    <path
       id="path78"
       d="m 0,0 c -2.361,0 -4.275,-1.914 -4.275,-4.275 0,-2.361 1.914,-4.275 4.275,-4.275 2.361,0 4.275,1.914 4.275,4.275 C 4.275,-1.914 2.361,0 0,0"
       style="fill:#ffffff;fill-opacity:1;fill-rule:evenodd;stroke:#ff0000;stroke-width:0.56693;stroke-linecap:round;stroke-linejoin:round;stroke-miterlimit:8;stroke-dasharray:none;stroke-opacity:1"
       transform="matrix(0.35277732,0,0,-0.35277732,53.121409,168.57646)"
       clip-path="url(#clipPath79)" />
    <path
       id="path80"
       d="m 0,0 c -0.787,0 -1.425,-0.638 -1.425,-1.425 0,-0.787 0.638,-1.425 1.425,-1.425 0.787,0 1.425,0.638 1.425,1.425 C 1.425,-0.638 0.787,0 0,0"
       style="fill:#ff0000;fill-opacity:1;fill-rule:evenodd;stroke:#ff0000;stroke-width:0.75;stroke-linecap:round;stroke-linejoin:round;stroke-miterlimit:8;stroke-dasharray:none;stroke-opacity:1"
       transform="matrix(0.35277732,0,0,-0.35277732,53.121409,169.58188)"
       clip-path="url(#clipPath81)" />
    <path
       id="path89"
       d="m 47.080089,167.55341 0.0176,5.02708"
       style="fill:none;stroke:#000000;stroke-width:0.264583;stroke-linecap:butt;stroke-linejoin:round;stroke-miterlimit:8;stroke-dasharray:none;stroke-opacity:1" />
    <path
       id="path91"
       d="m 47.080089,172.58048 4.02166,0.0176"
       style="fill:none;stroke:#000000;stroke-width:0.264583;stroke-linecap:butt;stroke-linejoin:round;stroke-miterlimit:8;stroke-dasharray:none;stroke-opacity:1" />
    <path
       id="path92"
       d="m 51.101749,167.5358 4.02166,0.0176"
       style="fill:none;stroke:#000000;stroke-width:0.264583;stroke-linecap:butt;stroke-linejoin:round;stroke-miterlimit:8;stroke-dasharray:none;stroke-opacity:1" />
    <path
       id="path93"
       d="m 55.123409,167.5358 0.0176,5.02708"
       style="fill:none;stroke:#000000;stroke-width:0.264583;stroke-linecap:butt;stroke-linejoin:round;stroke-miterlimit:8;stroke-dasharray:none;stroke-opacity:1" />
    <path
       id="path94"
       d="m 51.101749,167.5358 0.0176,5.02708"
       style="fill:none;stroke:#000000;stroke-width:0.264583;stroke-linecap:butt;stroke-linejoin:round;stroke-miterlimit:8;stroke-dasharray:none;stroke-opacity:1" />
    <path
       id="path95"
       d="m 55.123409,172.56288 4.02166,0.0176"
       style="fill:none;stroke:#000000;stroke-width:0.264583;stroke-linecap:butt;stroke-linejoin:round;stroke-miterlimit:8;stroke-dasharray:none;stroke-opacity:1" />
    <path
       id="path96"
       d="m 59.145079,167.58869 4.02166,0.0176"
       style="fill:none;stroke:#000000;stroke-width:0.264583;stroke-linecap:butt;stroke-linejoin:round;stroke-miterlimit:8;stroke-dasharray:none;stroke-opacity:1" />
    <path
       id="path97"
       d="m 63.166739,167.58869 0.0176,5.02708"
       style="fill:none;stroke:#000000;stroke-width:0.264583;stroke-linecap:butt;stroke-linejoin:round;stroke-miterlimit:8;stroke-dasharray:none;stroke-opacity:1" />
    <path
       id="path98"
       d="m 59.145079,167.58869 0.0176,5.02708"
       style="fill:none;stroke:#000000;stroke-width:0.264583;stroke-linecap:butt;stroke-linejoin:round;stroke-miterlimit:8;stroke-dasharray:none;stroke-opacity:1" />
    <path
       id="path99"
       d="m 63.166739,172.61576 4.02166,0.0176"
       style="fill:none;stroke:#000000;stroke-width:0.264583;stroke-linecap:butt;stroke-linejoin:round;stroke-miterlimit:8;stroke-dasharray:none;stroke-opacity:1" />
    <path
       id="path100"
       d="m 67.188399,167.57105 4.02166,0.0176"
       style="fill:none;stroke:#000000;stroke-width:0.264583;stroke-linecap:butt;stroke-linejoin:round;stroke-miterlimit:8;stroke-dasharray:none;stroke-opacity:1" />
    <path
       id="path101"
       d="m 71.210059,167.57105 0.0176,5.02708"
       style="fill:none;stroke:#000000;stroke-width:0.264583;stroke-linecap:butt;stroke-linejoin:round;stroke-miterlimit:8;stroke-dasharray:none;stroke-opacity:1" />
    <path
       id="path102"
       d="m 67.188399,167.57105 0.0176,5.02708"
       style="fill:none;stroke:#000000;stroke-width:0.264583;stroke-linecap:butt;stroke-linejoin:round;stroke-miterlimit:8;stroke-dasharray:none;stroke-opacity:1" />
    <path
       id="path103"
       d="m 71.210059,172.59812 4.02166,0.0176"
       style="fill:none;stroke:#000000;stroke-width:0.264583;stroke-linecap:butt;stroke-linejoin:round;stroke-miterlimit:8;stroke-dasharray:none;stroke-opacity:1" />
    <path
       id="path104"
       d="m 75.231719,167.58869 4.02166,0.0176"
       style="fill:none;stroke:#000000;stroke-width:0.264583;stroke-linecap:butt;stroke-linejoin:round;stroke-miterlimit:8;stroke-dasharray:none;stroke-opacity:1" />
    <path
       id="path105"
       d="m 79.253379,167.58869 0.0176,5.02708"
       style="fill:none;stroke:#000000;stroke-width:0.264583;stroke-linecap:butt;stroke-linejoin:round;stroke-miterlimit:8;stroke-dasharray:none;stroke-opacity:1" />
    <path
       id="path106"
       d="m 75.231719,167.58869 0.0176,5.02708"
       style="fill:none;stroke:#000000;stroke-width:0.264583;stroke-linecap:butt;stroke-linejoin:round;stroke-miterlimit:8;stroke-dasharray:none;stroke-opacity:1" />
    <path
       id="path107"
       d="m 79.253379,172.61576 4.02166,0.0176"
       style="fill:none;stroke:#000000;stroke-width:0.264583;stroke-linecap:butt;stroke-linejoin:round;stroke-miterlimit:8;stroke-dasharray:none;stroke-opacity:1" />
    <path
       id="path108"
       d="m 83.275039,167.57105 4.02167,0.0176"
       style="fill:none;stroke:#000000;stroke-width:0.264583;stroke-linecap:butt;stroke-linejoin:round;stroke-miterlimit:8;stroke-dasharray:none;stroke-opacity:1" />
    <path
       id="path109"
       d="m 87.296709,167.57105 0.0176,5.02708"
       style="fill:none;stroke:#000000;stroke-width:0.264583;stroke-linecap:butt;stroke-linejoin:round;stroke-miterlimit:8;stroke-dasharray:none;stroke-opacity:1" />
    <path
       id="path110"
       d="m 83.275039,167.57105 0.0176,5.02708"
       style="fill:none;stroke:#000000;stroke-width:0.264583;stroke-linecap:butt;stroke-linejoin:round;stroke-miterlimit:8;stroke-dasharray:none;stroke-opacity:1" />
    <path
       id="path111"
       d="m 87.296709,172.59812 4.02166,0.0176"
       style="fill:none;stroke:#000000;stroke-width:0.264583;stroke-linecap:butt;stroke-linejoin:round;stroke-miterlimit:8;stroke-dasharray:none;stroke-opacity:1" />
    <path
       id="path112"
       d="m 91.318369,167.58869 4.02166,0.0176"
       style="fill:none;stroke:#000000;stroke-width:0.264583;stroke-linecap:butt;stroke-linejoin:round;stroke-miterlimit:8;stroke-dasharray:none;stroke-opacity:1" />
    <path
       id="path113"
       d="m 95.340029,167.58869 0.0176,5.02708"
       style="fill:none;stroke:#000000;stroke-width:0.264583;stroke-linecap:butt;stroke-linejoin:round;stroke-miterlimit:8;stroke-dasharray:none;stroke-opacity:1" />
    <path
       id="path114"
       d="m 91.318369,167.58869 0.0176,5.02708"
       style="fill:none;stroke:#000000;stroke-width:0.264583;stroke-linecap:butt;stroke-linejoin:round;stroke-miterlimit:8;stroke-dasharray:none;stroke-opacity:1" />
    <path
       id="path115"
       d="m 95.340029,172.61576 4.02166,0.0176"
       style="fill:none;stroke:#000000;stroke-width:0.264583;stroke-linecap:butt;stroke-linejoin:round;stroke-miterlimit:8;stroke-dasharray:none;stroke-opacity:1" />
    <path
       id="path116"
       d="m 99.361689,167.57105 4.021661,0.0176"
       style="fill:none;stroke:#000000;stroke-width:0.264583;stroke-linecap:butt;stroke-linejoin:round;stroke-miterlimit:8;stroke-dasharray:none;stroke-opacity:1" />
    <path
       id="path117"
       d="m 103.38335,167.57105 0.0176,5.02708"
       style="fill:none;stroke:#000000;stroke-width:0.264583;stroke-linecap:butt;stroke-linejoin:round;stroke-miterlimit:8;stroke-dasharray:none;stroke-opacity:1" />
    <path
       id="path118"
       d="m 99.361689,167.57105 0.0176,5.02708"
       style="fill:none;stroke:#000000;stroke-width:0.264583;stroke-linecap:butt;stroke-linejoin:round;stroke-miterlimit:8;stroke-dasharray:none;stroke-opacity:1" />
    <path
       id="path119"
       d="m 103.38335,172.59812 4.02166,0.0176"
       style="fill:none;stroke:#000000;stroke-width:0.264583;stroke-linecap:butt;stroke-linejoin:round;stroke-miterlimit:8;stroke-dasharray:none;stroke-opacity:1" />
    <path
       id="path120"
       d="m 107.40501,167.58869 4.02166,0.0176"
       style="fill:none;stroke:#000000;stroke-width:0.264583;stroke-linecap:butt;stroke-linejoin:round;stroke-miterlimit:8;stroke-dasharray:none;stroke-opacity:1" />
    <path
       id="path121"
       d="m 111.42667,167.58869 0.0176,5.02708"
       style="fill:none;stroke:#000000;stroke-width:0.264583;stroke-linecap:butt;stroke-linejoin:round;stroke-miterlimit:8;stroke-dasharray:none;stroke-opacity:1" />
    <path
       id="path122"
       d="m 107.40501,167.58869 0.0176,5.02708"
       style="fill:none;stroke:#000000;stroke-width:0.264583;stroke-linecap:butt;stroke-linejoin:round;stroke-miterlimit:8;stroke-dasharray:none;stroke-opacity:1" />
    <path
       id="path123"
       d="m 111.42667,172.61576 4.02166,0.0176"
       style="fill:none;stroke:#000000;stroke-width:0.264583;stroke-linecap:butt;stroke-linejoin:round;stroke-miterlimit:8;stroke-dasharray:none;stroke-opacity:1" />
    <path
       id="path124"
       d="m 115.44833,167.57105 4.02166,0.0176"
       style="fill:none;stroke:#000000;stroke-width:0.264583;stroke-linecap:butt;stroke-linejoin:round;stroke-miterlimit:8;stroke-dasharray:none;stroke-opacity:1" />
    <path
       id="path125"
       d="m 119.46999,167.57105 0.0176,5.02708"
       style="fill:none;stroke:#000000;stroke-width:0.264583;stroke-linecap:butt;stroke-linejoin:round;stroke-miterlimit:8;stroke-dasharray:none;stroke-opacity:1" />
    <path
       id="path126"
       d="m 115.44833,167.57105 0.0176,5.02708"
       style="fill:none;stroke:#000000;stroke-width:0.264583;stroke-linecap:butt;stroke-linejoin:round;stroke-miterlimit:8;stroke-dasharray:none;stroke-opacity:1" />
    <path
       id="path127"
       d="m 119.46999,172.59812 4.02166,0.0176"
       style="fill:none;stroke:#000000;stroke-width:0.264583;stroke-linecap:butt;stroke-linejoin:round;stroke-miterlimit:8;stroke-dasharray:none;stroke-opacity:1" />
    <path
       id="path128"
       d="m 0,0 c -2.361,0 -4.275,-1.914 -4.275,-4.275 0,-2.361 1.914,-4.275 4.275,-4.275 2.361,0 4.275,1.914 4.275,4.275 C 4.275,-1.914 2.361,0 0,0"
       style="fill:#ffffff;fill-opacity:1;fill-rule:evenodd;stroke:#ff0000;stroke-width:0.56693;stroke-linecap:round;stroke-linejoin:round;stroke-miterlimit:8;stroke-dasharray:none;stroke-opacity:1"
       transform="matrix(0.35277732,0,0,-0.35277732,125.49368,168.57646)"
       clip-path="url(#clipPath129)" />
    <path
       id="path130"
       d="m 124.44417,171.09882 2.08139,-2.04611"
       style="fill:none;stroke:#ff0000;stroke-width:0.264583;stroke-linecap:butt;stroke-linejoin:round;stroke-miterlimit:8;stroke-dasharray:none;stroke-opacity:1" />
    <path
       id="path131"
       d="m 126.52171,171.07145 -2.0599,-1.96582"
       style="fill:none;stroke:#ff0000;stroke-width:0.264583;stroke-linecap:butt;stroke-linejoin:round;stroke-miterlimit:8;stroke-dasharray:none;stroke-opacity:1"
       sodipodi:nodetypes="cc" />
    <path
       id="path132"
       d="m 123.49166,167.57105 4.02166,0.0176"
       style="fill:none;stroke:#000000;stroke-width:0.264583;stroke-linecap:butt;stroke-linejoin:round;stroke-miterlimit:8;stroke-dasharray:none;stroke-opacity:1" />
    <path
       id="path133"
       d="m 127.51332,167.57105 0.0176,5.02708"
       style="fill:none;stroke:#000000;stroke-width:0.264583;stroke-linecap:butt;stroke-linejoin:round;stroke-miterlimit:8;stroke-dasharray:none;stroke-opacity:1" />
    <path
       id="path134"
       d="m 123.49166,167.57105 0.0176,5.02708"
       style="fill:none;stroke:#000000;stroke-width:0.264583;stroke-linecap:butt;stroke-linejoin:round;stroke-miterlimit:8;stroke-dasharray:none;stroke-opacity:1" />
    <path
       id="path135"
       d="m 127.51332,172.59812 4.02166,0.0176"
       style="fill:none;stroke:#000000;stroke-width:0.264583;stroke-linecap:butt;stroke-linejoin:round;stroke-miterlimit:8;stroke-dasharray:none;stroke-opacity:1" />
    <path
       id="path136"
       d="m 0,0 c -2.361,0 -4.275,-1.914 -4.275,-4.275 0,-2.361 1.914,-4.275 4.275,-4.275 2.361,0 4.275,1.914 4.275,4.275 C 4.275,-1.914 2.361,0 0,0"
       style="fill:#ffffff;fill-opacity:1;fill-rule:evenodd;stroke:#ff0000;stroke-width:0.56693;stroke-linecap:round;stroke-linejoin:round;stroke-miterlimit:8;stroke-dasharray:none;stroke-opacity:1"
       transform="matrix(0.35277732,0,0,-0.35277732,133.53699,168.55882)"
       clip-path="url(#clipPath137)" />
    <path
       id="path138"
       d="m 132.48748,171.08118 2.08139,-2.04611"
       style="fill:none;stroke:#ff0000;stroke-width:0.264583;stroke-linecap:butt;stroke-linejoin:round;stroke-miterlimit:8;stroke-dasharray:none;stroke-opacity:1" />
    <path
       id="path139"
       d="m 134.66161,171.09213 -2.15649,-2.00411"
       style="fill:none;stroke:#ff0000;stroke-width:0.264583;stroke-linecap:butt;stroke-linejoin:round;stroke-miterlimit:8;stroke-dasharray:none;stroke-opacity:1"
       sodipodi:nodetypes="cc" />
    <path
       id="path140"
       d="m 131.53498,167.55341 4.02166,0.0176"
       style="fill:none;stroke:#000000;stroke-width:0.264583;stroke-linecap:butt;stroke-linejoin:round;stroke-miterlimit:8;stroke-dasharray:none;stroke-opacity:1" />
    <path
       id="path141"
       d="m 135.55664,167.55341 0.0176,5.02708"
       style="fill:none;stroke:#000000;stroke-width:0.264583;stroke-linecap:butt;stroke-linejoin:round;stroke-miterlimit:8;stroke-dasharray:none;stroke-opacity:1" />
    <path
       id="path142"
       d="m 131.53498,167.55341 0.0176,5.02708"
       style="fill:none;stroke:#000000;stroke-width:0.264583;stroke-linecap:butt;stroke-linejoin:round;stroke-miterlimit:8;stroke-dasharray:none;stroke-opacity:1" />
    <path
       id="path143"
       d="m 135.55664,172.58048 4.02166,0.0176"
       style="fill:none;stroke:#000000;stroke-width:0.264583;stroke-linecap:butt;stroke-linejoin:round;stroke-miterlimit:8;stroke-dasharray:none;stroke-opacity:1" />
    <path
       id="path144"
       d="m 0,0 c -2.361,0 -4.275,-1.914 -4.275,-4.275 0,-2.361 1.914,-4.275 4.275,-4.275 2.361,0 4.275,1.914 4.275,4.275 C 4.275,-1.914 2.361,0 0,0"
       style="fill:#ffffff;fill-opacity:1;fill-rule:evenodd;stroke:#ff0000;stroke-width:0.56693;stroke-linecap:round;stroke-linejoin:round;stroke-miterlimit:8;stroke-dasharray:none;stroke-opacity:1"
       transform="matrix(0.35277732,0,0,-0.35277732,141.58031,168.55882)"
       clip-path="url(#clipPath145)" />
    <path
       id="path146"
       d="m 140.5308,171.08118 2.08139,-2.04611"
       style="fill:none;stroke:#ff0000;stroke-width:0.264583;stroke-linecap:butt;stroke-linejoin:round;stroke-miterlimit:8;stroke-dasharray:none;stroke-opacity:1" />
    <path
       id="path147"
       d="m 142.67425,171.10508 -2.12581,-2.01706"
       style="fill:none;stroke:#ff0000;stroke-width:0.264583;stroke-linecap:butt;stroke-linejoin:round;stroke-miterlimit:8;stroke-dasharray:none;stroke-opacity:1"
       sodipodi:nodetypes="cc" />
    <path
       id="path148"
       d="m 139.57831,167.55341 4.02166,0.0176"
       style="fill:none;stroke:#000000;stroke-width:0.264583;stroke-linecap:butt;stroke-linejoin:round;stroke-miterlimit:8;stroke-dasharray:none;stroke-opacity:1" />
    <path
       id="path149"
       d="m 143.59997,167.55341 0.0176,5.02708"
       style="fill:none;stroke:#000000;stroke-width:0.264583;stroke-linecap:butt;stroke-linejoin:round;stroke-miterlimit:8;stroke-dasharray:none;stroke-opacity:1" />
    <path
       id="path150"
       d="m 139.57831,167.55341 0.0176,5.02708"
       style="fill:none;stroke:#000000;stroke-width:0.264583;stroke-linecap:butt;stroke-linejoin:round;stroke-miterlimit:8;stroke-dasharray:none;stroke-opacity:1" />
    <path
       id="path151"
       d="m 143.59997,172.58048 4.02165,0.0176"
       style="fill:none;stroke:#000000;stroke-width:0.264583;stroke-linecap:butt;stroke-linejoin:round;stroke-miterlimit:8;stroke-dasharray:none;stroke-opacity:1" />
    <path
       id="path154"
       d="m 147.62164,167.5358 0.0176,5.02708"
       style="fill:none;stroke:#000000;stroke-width:0.264583;stroke-linecap:butt;stroke-linejoin:round;stroke-miterlimit:8;stroke-dasharray:none;stroke-opacity:1" />
    <path
       id="path165"
       d="m 0,0 c -2.361,0 -4.275,-1.914 -4.275,-4.275 0,-2.361 1.914,-4.275 4.275,-4.275 2.361,0 4.275,1.914 4.275,4.275 C 4.275,-1.914 2.361,0 0,0"
       style="fill:#ffffff;fill-opacity:1;fill-rule:evenodd;stroke:#ff0000;stroke-width:0.56693;stroke-linecap:round;stroke-linejoin:round;stroke-miterlimit:8;stroke-dasharray:none;stroke-opacity:1"
       transform="matrix(0.35277732,0,0,-0.35277732,61.129449,168.57646)"
       clip-path="url(#clipPath166)" />
    <path
       id="path167"
       d="m 0,0 c -0.787,0 -1.425,-0.638 -1.425,-1.425 0,-0.787 0.638,-1.425 1.425,-1.425 0.787,0 1.425,0.638 1.425,1.425 C 1.425,-0.638 0.787,0 0,0"
       style="fill:#ff0000;fill-opacity:1;fill-rule:evenodd;stroke:#ff0000;stroke-width:0.75;stroke-linecap:round;stroke-linejoin:round;stroke-miterlimit:8;stroke-dasharray:none;stroke-opacity:1"
       transform="matrix(0.35277732,0,0,-0.35277732,61.129449,169.58188)"
       clip-path="url(#clipPath168)" />
    <path
       id="path169"
       d="m 0,0 c -2.361,0 -4.275,-1.914 -4.275,-4.275 0,-2.361 1.914,-4.275 4.275,-4.275 2.361,0 4.275,1.914 4.275,4.275 C 4.275,-1.914 2.361,0 0,0"
       style="fill:#ffffff;fill-opacity:1;fill-rule:evenodd;stroke:#ff0000;stroke-width:0.56693;stroke-linecap:round;stroke-linejoin:round;stroke-miterlimit:8;stroke-dasharray:none;stroke-opacity:1"
       transform="matrix(0.35277732,0,0,-0.35277732,69.243329,168.57646)"
       clip-path="url(#clipPath170)" />
    <path
       id="path171"
       d="m 0,0 c -0.787,0 -1.425,-0.638 -1.425,-1.425 0,-0.787 0.638,-1.425 1.425,-1.425 0.787,0 1.425,0.638 1.425,1.425 C 1.425,-0.638 0.787,0 0,0"
       style="fill:#ff0000;fill-opacity:1;fill-rule:evenodd;stroke:#ff0000;stroke-width:0.75;stroke-linecap:round;stroke-linejoin:round;stroke-miterlimit:8;stroke-dasharray:none;stroke-opacity:1"
       transform="matrix(0.35277732,0,0,-0.35277732,69.243329,169.58188)"
       clip-path="url(#clipPath172)" />
    <path
       id="path177-6"
       d="m 49.309316,113.74277 -0.0169,8.08957"
       style="fill:none;stroke:#000000;stroke-width:0.25;stroke-linecap:butt;stroke-linejoin:round;stroke-miterlimit:8;stroke-dasharray:none;stroke-opacity:1" />
    <path
       id="path179-7"
       d="m 48.595311,114.40235 0.70591,-2.11667 0.7052,2.11702 z"
       style="fill:#000000;fill-opacity:1;fill-rule:evenodd;stroke:none;stroke-width:0.352777" />
    <path
       id="path179-7-0"
       d="m 50.006421,121.23728 -0.70591,2.11667 -0.7052,-2.11702 z"
       style="fill:#000000;fill-opacity:1;fill-rule:evenodd;stroke:none;stroke-width:0.352777" />
    <path
       id="path177-6-0"
       d="m 59.790734,112.24203 -5.014509,0.0169"
       style="fill:none;stroke:#000000;stroke-width:0.25;stroke-linecap:butt;stroke-linejoin:round;stroke-miterlimit:8;stroke-dasharray:none;stroke-opacity:1" />
    <path
       id="path179-7-6"
       d="m 58.924343,112.95604 2.11667,-0.70591 -2.11702,-0.7052 z"
       style="fill:#000000;fill-opacity:1;fill-rule:evenodd;stroke:none;stroke-width:0.352777" />
    <path
       id="path179-7-0-6"
       d="m 55.371659,111.54493 -2.11667,0.70591 2.11702,0.7052 z"
       style="fill:#000000;fill-opacity:1;fill-rule:evenodd;stroke:none;stroke-width:0.352777" />
    <g
       inkscape:label=""
       transform="translate(90.0527, 179.091)"
       id="g34">
      <g
         id="g21-0-7-8"
         transform="matrix(-1 1.22461e-16 -1.22461e-16 -1 50.3458 77.557)">
        <path
           style="fill:#0000ff;fill-rule:evenodd;stroke:#000000;stroke-width:0.15;stroke-linecap:round;stroke-miterlimit:3.9;stroke-dasharray:none;stroke-dashoffset:0;stroke-opacity:1;marker-end:url(#marker7)"
           d="m 105.51892,105.79516 v 42.96129"
           id="path6-4"
           sodipodi:nodetypes="cc" />
        <path
           style="fill:#0000ff;fill-rule:evenodd;stroke:#000000;stroke-width:0.15;stroke-linecap:round;stroke-miterlimit:3.9;stroke-dasharray:none;stroke-dashoffset:0;stroke-opacity:1;marker-end:url(#marker7-2)"
           d="m 107.38817,127.53014 -125.728105,0.0331"
           id="path6-9"
           sodipodi:nodetypes="cc" />
        <path
           style="fill:#000000;fill-opacity:1;fill-rule:evenodd;stroke:#000000;stroke-width:0.15;stroke-linecap:round;stroke-miterlimit:3.9;stroke-dasharray:none;stroke-dashoffset:0;stroke-opacity:1"
           d="m 43.219408,128.86508 v -2.60373"
           id="path23-7" />
        <path
           style="fill:#000000;fill-opacity:1;fill-rule:evenodd;stroke:#000000;stroke-width:0.15;stroke-linecap:round;stroke-miterlimit:3.9;stroke-dasharray:none;stroke-dashoffset:0;stroke-opacity:1"
           d="m 107.19321,110.56522 h -3.34858"
           id="path23-7-3" />
        <path
           style="fill:#000000;fill-opacity:1;fill-rule:evenodd;stroke:#000000;stroke-width:0.25;stroke-linecap:round;stroke-miterlimit:3.9;stroke-dasharray:0.75, 0.75;stroke-dashoffset:0;stroke-opacity:1"
           d="m 107.67081,144.4619 -1.82428,-0.0331"
           id="path23-7-3-8"
           sodipodi:nodetypes="cc" />
        <path
           style="fill:#000000;fill-opacity:1;fill-rule:evenodd;stroke:#000000;stroke-width:0.25;stroke-linecap:round;stroke-miterlimit:3.9;stroke-dasharray:0.75, 0.75;stroke-dashoffset:0;stroke-opacity:1"
           d="m -10.665141,144.49608 h -8.063341"
           id="path23-7-3-8-1" />
        <path
           style="fill:#e1e1e1;fill-rule:evenodd;stroke:#000000;stroke-width:0.25;stroke-linecap:square;stroke-miterlimit:3.9;stroke-dasharray:none;stroke-opacity:1"
           d="m 87.307174,144.40595 -1.07e-4,-0.74909 -0.0015,-10.49129"
           id="path1"
           sodipodi:nodetypes="ccc" />
        <path
           style="fill:#e1e1e1;fill-rule:evenodd;stroke:#000000;stroke-width:0.25;stroke-linecap:square;stroke-miterlimit:3.9;stroke-dasharray:none;stroke-opacity:1"
           d="m 79.334534,133.16864 -0.0016,-11.24045"
           id="path1-6"
           sodipodi:nodetypes="cc" />
        <path
           style="fill:#e1e1e1;fill-rule:evenodd;stroke:#000000;stroke-width:0.25;stroke-linecap:square;stroke-miterlimit:3.9;stroke-dasharray:none;stroke-opacity:1"
           d="m 71.200041,121.86824 -0.0016,-11.24051"
           id="path1-6-0"
           sodipodi:nodetypes="cc" />
        <path
           style="fill:#e1e1e1;fill-rule:evenodd;stroke:#000000;stroke-width:0.25;stroke-linecap:square;stroke-miterlimit:3.9;stroke-dasharray:none;stroke-opacity:1"
           d="m 87.306374,133.16702 -7.97184,0.002"
           id="path3"
           sodipodi:nodetypes="cc" />
        <path
           style="fill:#e1e1e1;fill-rule:evenodd;stroke:#000000;stroke-width:0.25;stroke-linecap:square;stroke-miterlimit:3.9;stroke-dasharray:none;stroke-opacity:1"
           d="m 79.334524,121.86624 -8.134485,0.002"
           id="path3-5"
           sodipodi:nodetypes="cc" />
        <path
           style="fill:#e1e1e1;fill-rule:evenodd;stroke:#000000;stroke-width:0.25;stroke-linecap:square;stroke-miterlimit:3.9;stroke-dasharray:none;stroke-opacity:1"
           d="m -1.0337227,144.41482 1.07e-4,-0.74909 0.0015,-10.49129"
           id="path1-1"
           sodipodi:nodetypes="ccc" />
        <path
           style="fill:#e1e1e1;fill-rule:evenodd;stroke:#000000;stroke-width:0.25;stroke-linecap:square;stroke-miterlimit:3.9;stroke-dasharray:none;stroke-opacity:1"
           d="m 6.938917,133.17751 0.0016,-11.24045"
           id="path1-6-6"
           sodipodi:nodetypes="cc" />
        <path
           style="fill:#e1e1e1;fill-rule:evenodd;stroke:#000000;stroke-width:0.25;stroke-linecap:square;stroke-miterlimit:3.9;stroke-dasharray:none;stroke-opacity:1"
           d="m 15.073415,121.87711 0.0016,-11.24051"
           id="path1-6-0-0"
           sodipodi:nodetypes="cc" />
        <path
           style="fill:#e1e1e1;fill-rule:evenodd;stroke:#000000;stroke-width:0.25;stroke-linecap:square;stroke-miterlimit:3.9;stroke-dasharray:none;stroke-opacity:1"
           d="m -1.0329226,133.17589 7.9718396,0.002"
           id="path3-1"
           sodipodi:nodetypes="cc" />
        <path
           style="fill:#e1e1e1;fill-rule:evenodd;stroke:#000000;stroke-width:0.25;stroke-linecap:square;stroke-miterlimit:3.9;stroke-dasharray:none;stroke-opacity:1"
           d="m 6.938927,121.87511 8.13449,0.002"
           id="path3-5-3"
           sodipodi:nodetypes="cc" />
        <path
           style="fill:#e1e1e1;fill-rule:evenodd;stroke:#000000;stroke-width:0.25;stroke-linecap:square;stroke-miterlimit:3.9;stroke-dasharray:none;stroke-opacity:1"
           d="m -1.0329226,144.50784 -8.9371377,-0.0116"
           id="path13-7"
           sodipodi:nodetypes="cc" />
        <path
           style="fill:#000000;fill-opacity:1;fill-rule:evenodd;stroke:#000000;stroke-width:0.25;stroke-linecap:round;stroke-miterlimit:3.9;stroke-dasharray:0.75, 0.75;stroke-dashoffset:0;stroke-opacity:1"
           d="m 96.939394,144.41771 h 8.063346"
           id="path23-7-3-8-1-2" />
        <path
           style="fill:#e1e1e1;fill-rule:evenodd;stroke:#000000;stroke-width:0.25;stroke-linecap:square;stroke-miterlimit:3.9;stroke-dasharray:none;stroke-opacity:1"
           d="m 87.307174,144.40595 8.93714,0.0116"
           id="path13-7-7"
           sodipodi:nodetypes="cc" />
        <path
           style="fill:#e1e1e1;fill-rule:evenodd;stroke:#000000;stroke-width:0.25;stroke-linecap:square;stroke-miterlimit:3.9;stroke-dasharray:none;stroke-opacity:1"
           d="m 15.075015,110.6366 56.124226,-0.062"
           id="path14" />
        <g
           inkscape:label=""
           transform="rotate(180,56.715288,73.486169)"
           id="g19">
          <g
             fill="#000000"
             fill-opacity="1"
             id="g5"
             transform="matrix(0.352778,0,0,0.352778,-1.12448,-0.706085)">
            <g
               id="g15"
               transform="translate(3.188,7.4390001)">
              <path
                 d="m 6.3125,-4.578125 c 0.09375,-0.390625 0.265625,-0.578125 0.84375,-0.59375 0.078125,0 0.140625,-0.0625 0.140625,-0.15625 0,-0.046875 -0.03125,-0.109375 -0.109375,-0.109375 -0.0625,0 -0.21875,0.015625 -0.796875,0.015625 -0.640625,0 -0.75,-0.015625 -0.828125,-0.015625 -0.125,0 -0.140625,0.078125 -0.140625,0.140625 0,0.109375 0.09375,0.125 0.171875,0.125 0.484375,0.015625 0.484375,0.21875 0.484375,0.328125 0,0.046875 0,0.09375 -0.03125,0.21875 l -0.875,3.484375 L 3.25,-5.296875 C 3.1875,-5.4375 3.171875,-5.4375 2.984375,-5.4375 H 1.9375 c -0.140625,0 -0.234375,0 -0.234375,0.140625 0,0.125 0.09375,0.125 0.25,0.125 0.078125,0 0.3125,0 0.5,0.046875 L 1.375,-0.859375 C 1.28125,-0.453125 1.078125,-0.28125 0.546875,-0.265625 0.5,-0.265625 0.390625,-0.25 0.390625,-0.109375 0.390625,-0.0625 0.4375,0 0.515625,0 0.546875,0 0.734375,-0.03125 1.3125,-0.03125 1.9375,-0.03125 2.0625,0 2.125,0 c 0.03125,0 0.15625,0 0.15625,-0.15625 0,-0.09375 -0.09375,-0.109375 -0.140625,-0.109375 -0.296875,0 -0.53125,-0.046875 -0.53125,-0.328125 0,-0.046875 0.03125,-0.15625 0.03125,-0.15625 l 1.03125,-4.171875 H 2.6875 l 2.21875,4.78125 C 4.953125,-0.015625 4.96875,0 5.046875,0 c 0.109375,0 0.125,-0.03125 0.15625,-0.171875 z m 0,0"
                 id="path15" />
            </g>
          </g>
          <g
             fill="#000000"
             fill-opacity="1"
             id="g6"
             transform="matrix(0.352778,0,0,0.352778,-1.12448,-0.706085)">
            <g
               id="g16"
               transform="translate(10.761986,7.4390001)">
              <path
                 d="m 2.375,-4.96875 c 0,-0.171875 -0.125,-0.3125 -0.3125,-0.3125 -0.203125,0 -0.4375,0.203125 -0.4375,0.4375 0,0.171875 0.125,0.296875 0.3125,0.296875 0.203125,0 0.4375,-0.1875 0.4375,-0.421875 z m -1.15625,2.921875 -0.4375,1.09375 c -0.046875,0.125 -0.078125,0.21875 -0.078125,0.359375 0,0.390625 0.296875,0.671875 0.71875,0.671875 0.78125,0 1.109375,-1.109375 1.109375,-1.21875 0,-0.078125 -0.0625,-0.109375 -0.125,-0.109375 -0.09375,0 -0.109375,0.0625 -0.140625,0.140625 -0.171875,0.640625 -0.5,0.96875 -0.828125,0.96875 -0.09375,0 -0.1875,-0.046875 -0.1875,-0.25 0,-0.203125 0.0625,-0.34375 0.15625,-0.59375 C 1.484375,-1.1875 1.5625,-1.40625 1.65625,-1.625 l 0.25,-0.640625 c 0.0625,-0.1875 0.171875,-0.4375 0.171875,-0.578125 0,-0.390625 -0.328125,-0.671875 -0.734375,-0.671875 -0.765625,0 -1.109375,1.109375 -1.109375,1.21875 0,0.078125 0.0625,0.109375 0.125,0.109375 0.109375,0 0.109375,-0.046875 0.140625,-0.125 0.21875,-0.765625 0.578125,-0.984375 0.828125,-0.984375 0.109375,0 0.1875,0.046875 0.1875,0.265625 0,0.078125 -0.015625,0.1875 -0.09375,0.4375 z m 0,0"
                 id="path16" />
            </g>
          </g>
          <g
             fill="#000000"
             fill-opacity="1"
             id="g7"
             transform="matrix(0.352778,0,0,0.352778,-1.12448,-0.706085)">
            <g
               id="g17"
               transform="translate(13.641,8.4350004)">
              <path
                 d="m 2.84375,-1.78125 c 0,-0.5625 -0.5625,-0.890625 -1.234375,-0.890625 -0.296875,0 -1,0.03125 -1,0.53125 0,0.171875 0.109375,0.296875 0.296875,0.296875 0.171875,0 0.28125,-0.125 0.28125,-0.28125 0,-0.109375 -0.046875,-0.21875 -0.15625,-0.265625 0.203125,-0.09375 0.5,-0.09375 0.5625,-0.09375 0.421875,0 0.75,0.265625 0.75,0.71875 v 0.15625 c -0.265625,0 -0.75,0.015625 -1.1875,0.171875 -0.390625,0.140625 -0.765625,0.40625 -0.765625,0.8125 0,0.53125 0.625,0.6875 1.09375,0.6875 0.5,0 0.796875,-0.25 0.9375,-0.484375 0.03125,0.3125 0.234375,0.453125 0.4375,0.453125 0.03125,0 0.671875,0 0.671875,-0.5625 V -0.875 H 3.3125 v 0.328125 c 0,0.0625 0,0.328125 -0.234375,0.328125 -0.234375,0 -0.234375,-0.265625 -0.234375,-0.328125 z m -0.5,0.9375 c 0,0.609375 -0.609375,0.71875 -0.8125,0.71875 -0.3125,0 -0.625,-0.203125 -0.625,-0.5 0,-0.34375 0.328125,-0.78125 1.4375,-0.8125 z m 0,0"
                 id="path10" />
            </g>
          </g>
          <path
             fill="none"
             stroke-width="0.478"
             stroke-linecap="butt"
             stroke-linejoin="miter"
             stroke="#000000"
             stroke-opacity="1"
             stroke-miterlimit="10"
             d="M 0,7.1547499 H 14.605469"
             id="path7"
             transform="scale(0.352778)" />
          <g
             fill="#000000"
             fill-opacity="1"
             id="g8"
             transform="matrix(0.352778,0,0,0.352778,-1.12448,-0.706085)">
            <g
               id="g18"
               transform="translate(8.3590002,16.268999)">
              <path
                 d="m 0.421875,0.96875 c -0.078125,0.25 -0.09375,0.3125 -0.40625,0.3125 -0.109375,0 -0.203125,0 -0.203125,0.15625 0,0.0625 0.0625,0.109375 0.109375,0.109375 0.078125,0 0.109375,-0.03125 0.703125,-0.03125 0.5625,0 0.734375,0.03125 0.796875,0.03125 0.03125,0 0.140625,0 0.140625,-0.15625 0,-0.109375 -0.109375,-0.109375 -0.203125,-0.109375 -0.375,0 -0.375,-0.046875 -0.375,-0.125 0,-0.046875 0.140625,-0.609375 0.375,-1.546875 0.109375,0.1875 0.359375,0.46875 0.78125,0.46875 0.984375,0 2,-1.125 2,-2.28125 0,-0.796875 -0.5,-1.3125 -1.140625,-1.3125 -0.484375,0 -0.859375,0.328125 -1.09375,0.5625 -0.171875,-0.5625 -0.703125,-0.5625 -0.78125,-0.5625 -0.28125,0 -0.484375,0.1875 -0.609375,0.4375 -0.1875,0.359375 -0.28125,0.765625 -0.28125,0.78125 0,0.078125 0.0625,0.109375 0.125,0.109375 0.109375,0 0.109375,-0.03125 0.171875,-0.25 0.09375,-0.40625 0.234375,-0.859375 0.5625,-0.859375 0.203125,0 0.265625,0.1875 0.265625,0.375 0,0.078125 -0.03125,0.28125 -0.046875,0.34375 z M 1.875,-2.453125 C 1.921875,-2.59375 1.921875,-2.609375 2.046875,-2.75 2.34375,-3.109375 2.6875,-3.296875 2.96875,-3.296875 c 0.40625,0 0.546875,0.390625 0.546875,0.75 0,0.296875 -0.171875,1.15625 -0.40625,1.625 -0.203125,0.421875 -0.59375,0.78125 -0.96875,0.78125 -0.53125,0 -0.671875,-0.625 -0.671875,-0.6875 0,-0.015625 0.015625,-0.09375 0.03125,-0.125 z m 0,0"
                 id="path17" />
            </g>
          </g>
        </g>
        <g
           inkscape:label=""
           transform="rotate(180,58.544417,60.140178)"
           id="g38">
          <g
             fill="#000000"
             fill-opacity="1"
             id="g25"
             transform="matrix(0.352778,0,0,0.352778,-1.05035,6.5100628)">
            <g
               id="g24"
               transform="translate(1.993,12.146)">
              <path
                 d="m 7.875,-2.75 c 0.203125,0 0.421875,0 0.421875,-0.234375 0,-0.25 -0.21875,-0.25 -0.421875,-0.25 H 1.40625 c -0.203125,0 -0.421875,0 -0.421875,0.25 0,0.234375 0.21875,0.234375 0.421875,0.234375 z m 0,0"
                 id="path24" />
            </g>
          </g>
          <g
             fill="#000000"
             fill-opacity="1"
             id="g27"
             transform="matrix(0.352778,0,0,0.352778,-1.05035,6.5100628)">
            <g
               id="g26"
               transform="translate(12.487,7.4390001)">
              <path
                 d="m 6.3125,-4.578125 c 0.09375,-0.390625 0.265625,-0.578125 0.84375,-0.59375 0.078125,0 0.140625,-0.0625 0.140625,-0.15625 0,-0.046875 -0.03125,-0.109375 -0.109375,-0.109375 -0.0625,0 -0.21875,0.015625 -0.796875,0.015625 -0.640625,0 -0.75,-0.015625 -0.828125,-0.015625 -0.125,0 -0.140625,0.078125 -0.140625,0.140625 0,0.109375 0.09375,0.125 0.171875,0.125 0.484375,0.015625 0.484375,0.21875 0.484375,0.328125 0,0.046875 0,0.09375 -0.03125,0.21875 l -0.875,3.484375 L 3.25,-5.296875 C 3.1875,-5.4375 3.171875,-5.4375 2.984375,-5.4375 H 1.9375 c -0.140625,0 -0.234375,0 -0.234375,0.140625 0,0.125 0.09375,0.125 0.25,0.125 0.078125,0 0.3125,0 0.5,0.046875 L 1.375,-0.859375 C 1.28125,-0.453125 1.078125,-0.28125 0.546875,-0.265625 0.5,-0.265625 0.390625,-0.25 0.390625,-0.109375 0.390625,-0.0625 0.4375,0 0.515625,0 0.546875,0 0.734375,-0.03125 1.3125,-0.03125 1.9375,-0.03125 2.0625,0 2.125,0 c 0.03125,0 0.15625,0 0.15625,-0.15625 0,-0.09375 -0.09375,-0.109375 -0.140625,-0.109375 -0.296875,0 -0.53125,-0.046875 -0.53125,-0.328125 0,-0.046875 0.03125,-0.15625 0.03125,-0.15625 l 1.03125,-4.171875 H 2.6875 l 2.21875,4.78125 C 4.953125,-0.015625 4.96875,0 5.046875,0 c 0.109375,0 0.125,-0.03125 0.15625,-0.171875 z m 0,0"
                 id="path25" />
            </g>
          </g>
          <g
             fill="#000000"
             fill-opacity="1"
             id="g29"
             transform="matrix(0.352778,0,0,0.352778,-1.05035,6.5100628)">
            <g
               id="g28"
               transform="translate(20.053017,7.4390001)">
              <path
                 d="m 2.375,-4.96875 c 0,-0.171875 -0.125,-0.3125 -0.3125,-0.3125 -0.203125,0 -0.4375,0.203125 -0.4375,0.4375 0,0.171875 0.125,0.296875 0.3125,0.296875 0.203125,0 0.4375,-0.1875 0.4375,-0.421875 z m -1.15625,2.921875 -0.4375,1.09375 c -0.046875,0.125 -0.078125,0.21875 -0.078125,0.359375 0,0.390625 0.296875,0.671875 0.71875,0.671875 0.78125,0 1.109375,-1.109375 1.109375,-1.21875 0,-0.078125 -0.0625,-0.109375 -0.125,-0.109375 -0.09375,0 -0.109375,0.0625 -0.140625,0.140625 -0.171875,0.640625 -0.5,0.96875 -0.828125,0.96875 -0.09375,0 -0.1875,-0.046875 -0.1875,-0.25 0,-0.203125 0.0625,-0.34375 0.15625,-0.59375 C 1.484375,-1.1875 1.5625,-1.40625 1.65625,-1.625 l 0.25,-0.640625 c 0.0625,-0.1875 0.171875,-0.4375 0.171875,-0.578125 0,-0.390625 -0.328125,-0.671875 -0.734375,-0.671875 -0.765625,0 -1.109375,1.109375 -1.109375,1.21875 0,0.078125 0.0625,0.109375 0.125,0.109375 0.109375,0 0.109375,-0.046875 0.140625,-0.125 0.21875,-0.765625 0.578125,-0.984375 0.828125,-0.984375 0.109375,0 0.1875,0.046875 0.1875,0.265625 0,0.078125 -0.015625,0.1875 -0.09375,0.4375 z m 0,0"
                 id="path12" />
            </g>
          </g>
          <g
             fill="#000000"
             fill-opacity="1"
             id="g9"
             transform="matrix(0.352778,0,0,0.352778,-1.05035,6.5100628)">
            <g
               id="use8"
               transform="translate(22.940001,8.4350004)">
              <path
                 d="m 2.84375,-1.78125 c 0,-0.5625 -0.5625,-0.890625 -1.234375,-0.890625 -0.296875,0 -1,0.03125 -1,0.53125 0,0.171875 0.109375,0.296875 0.296875,0.296875 0.171875,0 0.28125,-0.125 0.28125,-0.28125 0,-0.109375 -0.046875,-0.21875 -0.15625,-0.265625 0.203125,-0.09375 0.5,-0.09375 0.5625,-0.09375 0.421875,0 0.75,0.265625 0.75,0.71875 v 0.15625 c -0.265625,0 -0.75,0.015625 -1.1875,0.171875 -0.390625,0.140625 -0.765625,0.40625 -0.765625,0.8125 0,0.53125 0.625,0.6875 1.09375,0.6875 0.5,0 0.796875,-0.25 0.9375,-0.484375 0.03125,0.3125 0.234375,0.453125 0.4375,0.453125 0.03125,0 0.671875,0 0.671875,-0.5625 V -0.875 H 3.3125 v 0.328125 c 0,0.0625 0,0.328125 -0.234375,0.328125 -0.234375,0 -0.234375,-0.265625 -0.234375,-0.328125 z m -0.5,0.9375 c 0,0.609375 -0.609375,0.71875 -0.8125,0.71875 -0.3125,0 -0.625,-0.203125 -0.625,-0.5 0,-0.34375 0.328125,-0.78125 1.4375,-0.8125 z m 0,0"
                 id="path30" />
            </g>
          </g>
          <path
             fill="none"
             stroke-width="0.168628"
             stroke-linecap="butt"
             stroke-linejoin="miter"
             stroke="#000000"
             stroke-opacity="1"
             stroke-miterlimit="10"
             d="M 3.3552385,9.7401862 H 8.5063486"
             id="path34" />
          <g
             fill="#000000"
             fill-opacity="1"
             id="g10"
             transform="matrix(0.352778,0,0,0.352778,-1.05035,6.5100628)">
            <g
               id="use9"
               transform="translate(17.657,16.268999)">
              <path
                 d="m 0.421875,0.96875 c -0.078125,0.25 -0.09375,0.3125 -0.40625,0.3125 -0.109375,0 -0.203125,0 -0.203125,0.15625 0,0.0625 0.0625,0.109375 0.109375,0.109375 0.078125,0 0.109375,-0.03125 0.703125,-0.03125 0.5625,0 0.734375,0.03125 0.796875,0.03125 0.03125,0 0.140625,0 0.140625,-0.15625 0,-0.109375 -0.109375,-0.109375 -0.203125,-0.109375 -0.375,0 -0.375,-0.046875 -0.375,-0.125 0,-0.046875 0.140625,-0.609375 0.375,-1.546875 0.109375,0.1875 0.359375,0.46875 0.78125,0.46875 0.984375,0 2,-1.125 2,-2.28125 0,-0.796875 -0.5,-1.3125 -1.140625,-1.3125 -0.484375,0 -0.859375,0.328125 -1.09375,0.5625 -0.171875,-0.5625 -0.703125,-0.5625 -0.78125,-0.5625 -0.28125,0 -0.484375,0.1875 -0.609375,0.4375 -0.1875,0.359375 -0.28125,0.765625 -0.28125,0.78125 0,0.078125 0.0625,0.109375 0.125,0.109375 0.109375,0 0.109375,-0.03125 0.171875,-0.25 0.09375,-0.40625 0.234375,-0.859375 0.5625,-0.859375 0.203125,0 0.265625,0.1875 0.265625,0.375 0,0.078125 -0.03125,0.28125 -0.046875,0.34375 z M 1.875,-2.453125 C 1.921875,-2.59375 1.921875,-2.609375 2.046875,-2.75 2.34375,-3.109375 2.6875,-3.296875 2.96875,-3.296875 c 0.40625,0 0.546875,0.390625 0.546875,0.75 0,0.296875 -0.171875,1.15625 -0.40625,1.625 -0.203125,0.421875 -0.59375,0.78125 -0.96875,0.78125 -0.53125,0 -0.671875,-0.625 -0.671875,-0.6875 0,-0.015625 0.015625,-0.09375 0.03125,-0.125 z m 0,0"
                 id="path36" />
            </g>
          </g>
        </g>
        <g
           inkscape:label=""
           transform="rotate(180,49.598274,70.769184)"
           id="g199">
          <g
             fill="#000000"
             fill-opacity="1"
             id="g188"
             transform="matrix(0.352778,0,0,0.352778,-1.12448,-0.706085)">
            <g
               id="g187"
               transform="translate(3.188,7.4390001)">
              <path
                 d="m 2.25,-1.625 c 0.125,-0.125 0.453125,-0.390625 0.59375,-0.5 0.484375,-0.453125 0.953125,-0.890625 0.953125,-1.609375 0,-0.953125 -0.796875,-1.5625 -1.78125,-1.5625 -0.96875,0 -1.59375,0.71875 -1.59375,1.4375 0,0.390625 0.3125,0.4375 0.421875,0.4375 0.171875,0 0.421875,-0.109375 0.421875,-0.421875 0,-0.40625 -0.40625,-0.40625 -0.5,-0.40625 C 1,-4.84375 1.53125,-5.03125 1.921875,-5.03125 c 0.734375,0 1.125,0.625 1.125,1.296875 0,0.828125 -0.578125,1.4375 -1.53125,2.390625 l -1,1.046875 C 0.421875,-0.21875 0.421875,-0.203125 0.421875,0 H 3.5625 l 0.234375,-1.421875 h -0.25 C 3.53125,-1.265625 3.46875,-0.875 3.375,-0.71875 c -0.046875,0.0625 -0.65625,0.0625 -0.78125,0.0625 H 1.171875 Z m 0,0"
                 id="path187" />
            </g>
          </g>
          <g
             fill="#000000"
             fill-opacity="1"
             id="g190"
             transform="matrix(0.352778,0,0,0.352778,-1.12448,-0.706085)">
            <g
               id="g189"
               transform="translate(7.4219999,7.4390001)">
              <path
                 d="m 6.3125,-4.578125 c 0.09375,-0.390625 0.265625,-0.578125 0.84375,-0.59375 0.078125,0 0.140625,-0.0625 0.140625,-0.15625 0,-0.046875 -0.03125,-0.109375 -0.109375,-0.109375 -0.0625,0 -0.21875,0.015625 -0.796875,0.015625 -0.640625,0 -0.75,-0.015625 -0.828125,-0.015625 -0.125,0 -0.140625,0.078125 -0.140625,0.140625 0,0.109375 0.09375,0.125 0.171875,0.125 0.484375,0.015625 0.484375,0.21875 0.484375,0.328125 0,0.046875 0,0.09375 -0.03125,0.21875 l -0.875,3.484375 L 3.25,-5.296875 C 3.1875,-5.4375 3.171875,-5.4375 2.984375,-5.4375 H 1.9375 c -0.140625,0 -0.234375,0 -0.234375,0.140625 0,0.125 0.09375,0.125 0.25,0.125 0.078125,0 0.3125,0 0.5,0.046875 L 1.375,-0.859375 C 1.28125,-0.453125 1.078125,-0.28125 0.546875,-0.265625 0.5,-0.265625 0.390625,-0.25 0.390625,-0.109375 0.390625,-0.0625 0.4375,0 0.515625,0 0.546875,0 0.734375,-0.03125 1.3125,-0.03125 1.9375,-0.03125 2.0625,0 2.125,0 c 0.03125,0 0.15625,0 0.15625,-0.15625 0,-0.09375 -0.09375,-0.109375 -0.140625,-0.109375 -0.296875,0 -0.53125,-0.046875 -0.53125,-0.328125 0,-0.046875 0.03125,-0.15625 0.03125,-0.15625 l 1.03125,-4.171875 H 2.6875 l 2.21875,4.78125 C 4.953125,-0.015625 4.96875,0 5.046875,0 c 0.109375,0 0.125,-0.03125 0.15625,-0.171875 z m 0,0"
                 id="path188" />
            </g>
          </g>
          <g
             fill="#000000"
             fill-opacity="1"
             id="g192"
             transform="matrix(0.352778,0,0,0.352778,-1.12448,-0.706085)">
            <g
               id="g191"
               transform="translate(14.995986,7.4390001)">
              <path
                 d="m 2.375,-4.96875 c 0,-0.171875 -0.125,-0.3125 -0.3125,-0.3125 -0.203125,0 -0.4375,0.203125 -0.4375,0.4375 0,0.171875 0.125,0.296875 0.3125,0.296875 0.203125,0 0.4375,-0.1875 0.4375,-0.421875 z m -1.15625,2.921875 -0.4375,1.09375 c -0.046875,0.125 -0.078125,0.21875 -0.078125,0.359375 0,0.390625 0.296875,0.671875 0.71875,0.671875 0.78125,0 1.109375,-1.109375 1.109375,-1.21875 0,-0.078125 -0.0625,-0.109375 -0.125,-0.109375 -0.09375,0 -0.109375,0.0625 -0.140625,0.140625 -0.171875,0.640625 -0.5,0.96875 -0.828125,0.96875 -0.09375,0 -0.1875,-0.046875 -0.1875,-0.25 0,-0.203125 0.0625,-0.34375 0.15625,-0.59375 C 1.484375,-1.1875 1.5625,-1.40625 1.65625,-1.625 l 0.25,-0.640625 c 0.0625,-0.1875 0.171875,-0.4375 0.171875,-0.578125 0,-0.390625 -0.328125,-0.671875 -0.734375,-0.671875 -0.765625,0 -1.109375,1.109375 -1.109375,1.21875 0,0.078125 0.0625,0.109375 0.125,0.109375 0.109375,0 0.109375,-0.046875 0.140625,-0.125 0.21875,-0.765625 0.578125,-0.984375 0.828125,-0.984375 0.109375,0 0.1875,0.046875 0.1875,0.265625 0,0.078125 -0.015625,0.1875 -0.09375,0.4375 z m 0,0"
                 id="path190" />
            </g>
          </g>
          <g
             fill="#000000"
             fill-opacity="1"
             id="g194"
             transform="matrix(0.352778,0,0,0.352778,-1.12448,-0.706085)">
            <g
               id="g193"
               transform="translate(17.875999,8.4350004)">
              <path
                 d="m 2.84375,-1.78125 c 0,-0.5625 -0.5625,-0.890625 -1.234375,-0.890625 -0.296875,0 -1,0.03125 -1,0.53125 0,0.171875 0.109375,0.296875 0.296875,0.296875 0.171875,0 0.28125,-0.125 0.28125,-0.28125 0,-0.109375 -0.046875,-0.21875 -0.15625,-0.265625 0.203125,-0.09375 0.5,-0.09375 0.5625,-0.09375 0.421875,0 0.75,0.265625 0.75,0.71875 v 0.15625 c -0.265625,0 -0.75,0.015625 -1.1875,0.171875 -0.390625,0.140625 -0.765625,0.40625 -0.765625,0.8125 0,0.53125 0.625,0.6875 1.09375,0.6875 0.5,0 0.796875,-0.25 0.9375,-0.484375 0.03125,0.3125 0.234375,0.453125 0.4375,0.453125 0.03125,0 0.671875,0 0.671875,-0.5625 V -0.875 H 3.3125 v 0.328125 c 0,0.0625 0,0.328125 -0.234375,0.328125 -0.234375,0 -0.234375,-0.265625 -0.234375,-0.328125 z m -0.5,0.9375 c 0,0.609375 -0.609375,0.71875 -0.8125,0.71875 -0.3125,0 -0.625,-0.203125 -0.625,-0.5 0,-0.34375 0.328125,-0.78125 1.4375,-0.8125 z m 0,0"
                 id="path192" />
            </g>
          </g>
          <path
             fill="none"
             stroke-width="0.478"
             stroke-linecap="butt"
             stroke-linejoin="miter"
             stroke="#000000"
             stroke-opacity="1"
             stroke-miterlimit="10"
             d="M 0,7.1547499 H 18.839844"
             id="path194"
             transform="scale(0.352778)" />
          <g
             fill="#000000"
             fill-opacity="1"
             id="g196"
             transform="matrix(0.352778,0,0,0.352778,-1.12448,-0.706085)">
            <g
               id="g195"
               transform="translate(8.4429998,16.268999)">
              <path
                 d="m 3.796875,-3.28125 c 0,-0.03125 0.015625,-0.078125 0.015625,-0.125 0,-0.046875 -0.03125,-0.109375 -0.109375,-0.109375 -0.09375,0 -0.421875,0.3125 -0.546875,0.53125 -0.09375,-0.171875 -0.328125,-0.53125 -0.828125,-0.53125 -0.9375,0 -1.984375,1.109375 -1.984375,2.28125 0,0.84375 0.53125,1.3125 1.140625,1.3125 0.40625,0 0.734375,-0.234375 0.96875,-0.4375 0,0.03125 -0.25,1.03125 -0.28125,1.171875 -0.125,0.453125 -0.125,0.46875 -0.625,0.46875 -0.09375,0 -0.203125,0 -0.203125,0.15625 0,0.046875 0.046875,0.109375 0.125,0.109375 0.09375,0 0.28125,-0.015625 0.390625,-0.03125 H 2.28125 c 0.640625,0 0.78125,0.03125 0.84375,0.03125 0.03125,0 0.15625,0 0.15625,-0.15625 0,-0.109375 -0.125,-0.109375 -0.21875,-0.109375 -0.375,0 -0.375,-0.046875 -0.375,-0.125 0,0 0,-0.046875 0.03125,-0.15625 z m -1.1875,2.296875 C 2.578125,-0.875 2.578125,-0.84375 2.453125,-0.6875 2.03125,-0.203125 1.6875,-0.140625 1.515625,-0.140625 c -0.375,0 -0.546875,-0.34375 -0.546875,-0.75 0,-0.375 0.203125,-1.234375 0.390625,-1.578125 0.21875,-0.484375 0.609375,-0.828125 0.984375,-0.828125 0.53125,0 0.671875,0.625 0.671875,0.6875 0,0.03125 -0.015625,0.078125 -0.03125,0.125 z m 0,0"
                 id="path195" />
            </g>
          </g>
          <g
             fill="#000000"
             fill-opacity="1"
             id="g198"
             transform="matrix(0.352778,0,0,0.352778,-1.12448,-0.706085)">
            <g
               id="g197"
               transform="translate(12.510939,16.268999)">
              <path
                 d="m 0.421875,0.96875 c -0.078125,0.25 -0.09375,0.3125 -0.40625,0.3125 -0.109375,0 -0.203125,0 -0.203125,0.15625 0,0.0625 0.0625,0.109375 0.109375,0.109375 0.078125,0 0.109375,-0.03125 0.703125,-0.03125 0.5625,0 0.734375,0.03125 0.796875,0.03125 0.03125,0 0.140625,0 0.140625,-0.15625 0,-0.109375 -0.109375,-0.109375 -0.203125,-0.109375 -0.375,0 -0.375,-0.046875 -0.375,-0.125 0,-0.046875 0.140625,-0.609375 0.375,-1.546875 0.109375,0.1875 0.359375,0.46875 0.78125,0.46875 0.984375,0 2,-1.125 2,-2.28125 0,-0.796875 -0.5,-1.3125 -1.140625,-1.3125 -0.484375,0 -0.859375,0.328125 -1.09375,0.5625 -0.171875,-0.5625 -0.703125,-0.5625 -0.78125,-0.5625 -0.28125,0 -0.484375,0.1875 -0.609375,0.4375 -0.1875,0.359375 -0.28125,0.765625 -0.28125,0.78125 0,0.078125 0.0625,0.109375 0.125,0.109375 0.109375,0 0.109375,-0.03125 0.171875,-0.25 0.09375,-0.40625 0.234375,-0.859375 0.5625,-0.859375 0.203125,0 0.265625,0.1875 0.265625,0.375 0,0.078125 -0.03125,0.28125 -0.046875,0.34375 z M 1.875,-2.453125 C 1.921875,-2.59375 1.921875,-2.609375 2.046875,-2.75 2.34375,-3.109375 2.6875,-3.296875 2.96875,-3.296875 c 0.40625,0 0.546875,0.390625 0.546875,0.75 0,0.296875 -0.171875,1.15625 -0.40625,1.625 -0.203125,0.421875 -0.59375,0.78125 -0.96875,0.78125 -0.53125,0 -0.671875,-0.625 -0.671875,-0.6875 0,-0.015625 0.015625,-0.09375 0.03125,-0.125 z m 0,0"
                 id="path196" />
            </g>
          </g>
        </g>
        <g
           inkscape:label=""
           transform="rotate(180,-7.3467859,63.603483)"
           id="g14">
          <g
             fill="#000000"
             fill-opacity="1"
             id="g4"
             transform="matrix(0.352778,0,0,0.352778,-0.818841,-0.660444)">
            <g
               id="use3"
               transform="translate(1.993,10.294)">
              <path
                 d="m 5.9375,-4.25 c 0.21875,-0.921875 0.25,-1.421875 0.25,-1.828125 0,-0.828125 -0.1875,-2.34375 -1.28125,-2.34375 -0.96875,0 -1.71875,1.296875 -1.71875,2.1875 0,1.171875 1.1875,1.75 1.921875,1.984375 -0.3125,1.34375 -0.5625,2.03125 -0.90625,2.71875 -0.5,0.96875 -0.90625,1.40625 -1.375,1.40625 -0.875,0 -0.875,-0.71875 -0.875,-0.953125 0,-0.265625 0.0625,-0.5625 0.15625,-0.984375 C 2.171875,-2.359375 2.25,-2.625 2.328125,-2.96875 2.4375,-3.375 2.375,-3.125 2.46875,-3.546875 c 0.0625,-0.21875 0.125,-0.453125 0.125,-0.65625 0,-0.71875 -0.546875,-1.0625 -1.046875,-1.0625 -0.34375,0 -0.609375,0.15625 -0.84375,0.609375 -0.21875,0.4375 -0.375,1.171875 -0.375,1.21875 0,0.046875 0.046875,0.109375 0.125,0.109375 0.09375,0 0.109375,-0.015625 0.1875,-0.296875 0.171875,-0.703125 0.40625,-1.40625 0.875,-1.40625 0.28125,0 0.375,0.1875 0.375,0.546875 0,0.265625 -0.046875,0.4375 -0.140625,0.78125 -0.046875,0.265625 -0.15625,0.671875 -0.203125,0.875 l -0.21875,0.875 c -0.09375,0.40625 -0.09375,0.578125 -0.09375,0.734375 0,0.171875 0,0.703125 0.421875,1.046875 0.40625,0.28125 0.9375,0.296875 1.125,0.296875 1.375,0 2.625,-2.28125 3.09375,-4.140625 0.28125,0.0625 0.5,0.109375 0.5625,0.109375 0.0625,0 0.09375,-0.09375 0.09375,-0.140625 0,-0.078125 -0.078125,-0.09375 -0.25,-0.125 z M 5.171875,-4.484375 C 4.0625,-4.859375 3.453125,-5.453125 3.453125,-6.25 c 0,-0.78125 0.640625,-1.921875 1.4375,-1.921875 0.578125,0 0.625,0.75 0.625,1.421875 0,0.6875 -0.125,1.3125 -0.34375,2.265625 z m 0,0"
                 id="path4" />
            </g>
          </g>
          <g
             fill="#000000"
             fill-opacity="1"
             id="g13"
             transform="matrix(0.352778,0,0,0.352778,-0.818841,-0.660444)">
            <g
               id="g11"
               transform="translate(8.8920002,12.087)">
              <path
                 d="m 3.296875,-1.8125 c 0.171875,0 0.21875,0 0.21875,-0.1875 C 3.515625,-2.703125 3.125,-3.546875 2,-3.546875 c -0.984375,0 -1.765625,0.8125 -1.765625,1.796875 0,1.03125 0.859375,1.828125 1.875,1.828125 1,0 1.40625,-0.84375 1.40625,-1.03125 0,-0.03125 -0.03125,-0.109375 -0.125,-0.109375 -0.09375,0 -0.109375,0.046875 -0.125,0.09375 -0.28125,0.78125 -0.96875,0.796875 -1.109375,0.796875 -0.359375,0 -0.734375,-0.15625 -0.96875,-0.53125 C 0.953125,-1.0625 0.953125,-1.578125 0.953125,-1.8125 Z M 0.953125,-2.03125 C 1.03125,-3.140625 1.703125,-3.328125 2,-3.328125 c 0.9375,0 0.96875,1.125 0.96875,1.296875 z m 0,0"
                 id="path6" />
            </g>
            <g
               id="g12"
               transform="translate(12.655481,12.087)">
              <path
                 d="m 1.515625,-5.53125 -1.1875,0.09375 v 0.265625 c 0.546875,0 0.609375,0.046875 0.609375,0.4375 V -0.625 c 0,0.359375 -0.09375,0.359375 -0.609375,0.359375 V 0 c 0.3125,-0.03125 0.765625,-0.03125 0.90625,-0.03125 0.15625,0 0.578125,0 0.890625,0.03125 v -0.265625 c -0.5,0 -0.609375,0 -0.609375,-0.359375 z m 0,0"
                 id="path11" />
            </g>
          </g>
        </g>
        <g
           inkscape:label=""
           transform="rotate(-180,43.590484,74.547295)"
           id="g33">
          <g
             fill="#000000"
             fill-opacity="1"
             id="g21"
             transform="matrix(0.352778,0,0,0.352778,0.31115048,-0.09269233)">
            <g
               id="g20"
               transform="translate(1.993,10.294)">
              <path
                 d="M 5.15625,-8.3125 C 5.0625,-8.484375 5.046875,-8.53125 4.875,-8.53125 c -0.171875,0 -0.203125,0.046875 -0.28125,0.21875 l -4,8.078125 C 0.578125,-0.203125 0.546875,-0.125 0.546875,-0.078125 0.546875,-0.015625 0.5625,0 0.796875,0 H 8.9375 c 0.25,0 0.25,-0.015625 0.25,-0.078125 0,-0.046875 -0.015625,-0.125 -0.046875,-0.15625 z M 4.5,-7.4375 7.765625,-0.828125 H 1.25 Z m 0,0"
                 id="path18" />
            </g>
          </g>
          <g
             fill="#000000"
             fill-opacity="1"
             id="g23"
             transform="matrix(0.352778,0,0,0.352778,0.31115048,-0.09269233)">
            <g
               id="g22"
               transform="translate(11.748,10.294)">
              <path
                 d="m 5.9375,-4.25 c 0.21875,-0.921875 0.25,-1.421875 0.25,-1.828125 0,-0.828125 -0.1875,-2.34375 -1.28125,-2.34375 -0.96875,0 -1.71875,1.296875 -1.71875,2.1875 0,1.171875 1.1875,1.75 1.921875,1.984375 -0.3125,1.34375 -0.5625,2.03125 -0.90625,2.71875 -0.5,0.96875 -0.90625,1.40625 -1.375,1.40625 -0.875,0 -0.875,-0.71875 -0.875,-0.953125 0,-0.265625 0.0625,-0.5625 0.15625,-0.984375 C 2.171875,-2.359375 2.25,-2.625 2.328125,-2.96875 2.4375,-3.375 2.375,-3.125 2.46875,-3.546875 c 0.0625,-0.21875 0.125,-0.453125 0.125,-0.65625 0,-0.71875 -0.546875,-1.0625 -1.046875,-1.0625 -0.34375,0 -0.609375,0.15625 -0.84375,0.609375 -0.21875,0.4375 -0.375,1.171875 -0.375,1.21875 0,0.046875 0.046875,0.109375 0.125,0.109375 0.09375,0 0.109375,-0.015625 0.1875,-0.296875 0.171875,-0.703125 0.40625,-1.40625 0.875,-1.40625 0.28125,0 0.375,0.1875 0.375,0.546875 0,0.265625 -0.046875,0.4375 -0.140625,0.78125 -0.046875,0.265625 -0.15625,0.671875 -0.203125,0.875 l -0.21875,0.875 c -0.09375,0.40625 -0.09375,0.578125 -0.09375,0.734375 0,0.171875 0,0.703125 0.421875,1.046875 0.40625,0.28125 0.9375,0.296875 1.125,0.296875 1.375,0 2.625,-2.28125 3.09375,-4.140625 0.28125,0.0625 0.5,0.109375 0.5625,0.109375 0.0625,0 0.09375,-0.09375 0.09375,-0.140625 0,-0.078125 -0.078125,-0.09375 -0.25,-0.125 z M 5.171875,-4.484375 C 4.0625,-4.859375 3.453125,-5.453125 3.453125,-6.25 c 0,-0.78125 0.640625,-1.921875 1.4375,-1.921875 0.578125,0 0.625,0.75 0.625,1.421875 0,0.6875 -0.125,1.3125 -0.34375,2.265625 z m 0,0"
                 id="path21" />
            </g>
          </g>
        </g>
        <g
           inkscape:label=""
           transform="rotate(-180,42.661139,71.685085)"
           id="g42">
          <g
             fill="#000000"
             fill-opacity="1"
             id="g36"
             transform="matrix(0.352778,0,0,0.352778,-1.12448,-0.700793)">
            <g
               id="g35"
               transform="translate(6.3920002,5.4239998)">
              <path
                 d="m 2.265625,-2.90625 h 0.90625 C 3.015625,-2.1875 2.875,-1.59375 2.875,-1 c 0,0.046875 0,0.390625 0.078125,0.6875 0.109375,0.328125 0.1875,0.390625 0.328125,0.390625 0.171875,0 0.359375,-0.15625 0.359375,-0.34375 0,-0.046875 0,-0.0625 -0.03125,-0.140625 C 3.4375,-0.765625 3.3125,-1.15625 3.3125,-1.8125 c 0,-0.171875 0,-0.515625 0.125,-1.09375 h 0.96875 c 0.125,0 0.203125,0 0.28125,-0.0625 0.109375,-0.09375 0.125,-0.1875 0.125,-0.25 0,-0.21875 -0.203125,-0.21875 -0.328125,-0.21875 h -2.875 c -0.171875,0 -0.484375,0 -0.875,0.390625 -0.28125,0.28125 -0.5,0.640625 -0.5,0.703125 0,0.078125 0.046875,0.09375 0.109375,0.09375 C 0.4375,-2.25 0.453125,-2.265625 0.5,-2.328125 0.890625,-2.90625 1.359375,-2.90625 1.53125,-2.90625 H 2 c -0.234375,0.84375 -0.65625,1.8125 -0.953125,2.390625 -0.046875,0.125 -0.125,0.28125 -0.125,0.34375 0,0.171875 0.125,0.25 0.25,0.25 0.3125,0 0.390625,-0.296875 0.5625,-0.953125 z m 0,0"
                 id="path35" />
            </g>
          </g>
          <path
             fill="none"
             stroke-width="0.478"
             stroke-linecap="butt"
             stroke-linejoin="miter"
             stroke="#000000"
             stroke-opacity="1"
             stroke-miterlimit="10"
             d="M 0,5.1541252 H 11.558594"
             id="path37"
             transform="scale(0.352778)" />
          <g
             fill="#000000"
             fill-opacity="1"
             id="g41"
             transform="matrix(0.352778,0,0,0.352778,-1.12448,-0.700793)">
            <g
               id="g39"
               transform="translate(3.188,14.254)">
              <path
                 d="M 1.59375,-1.3125 C 1.625,-1.421875 1.703125,-1.734375 1.71875,-1.84375 1.75,-1.921875 1.796875,-2.125 1.8125,-2.203125 c 0.015625,-0.03125 0.28125,-0.546875 0.625,-0.8125 0.265625,-0.21875 0.53125,-0.28125 0.765625,-0.28125 0.28125,0 0.453125,0.1875 0.453125,0.546875 0,0.1875 -0.046875,0.375 -0.140625,0.734375 -0.0625,0.203125 -0.1875,0.734375 -0.234375,0.953125 l -0.125,0.484375 c -0.046875,0.125 -0.09375,0.375 -0.09375,0.40625 0,0.1875 0.15625,0.25 0.25,0.25 0.140625,0 0.265625,-0.09375 0.328125,-0.1875 C 3.65625,-0.15625 3.71875,-0.4375 3.765625,-0.59375 L 3.9375,-1.3125 C 3.96875,-1.421875 4.046875,-1.734375 4.078125,-1.84375 4.1875,-2.28125 4.1875,-2.28125 4.359375,-2.546875 4.625,-2.9375 5,-3.296875 5.53125,-3.296875 5.828125,-3.296875 6,-3.125 6,-2.75 6,-2.3125 5.65625,-1.390625 5.5,-1.015625 5.421875,-0.8125 5.40625,-0.75 5.40625,-0.59375 c 0,0.453125 0.375,0.671875 0.71875,0.671875 0.78125,0 1.109375,-1.109375 1.109375,-1.21875 C 7.234375,-1.21875 7.15625,-1.25 7.109375,-1.25 7.015625,-1.25 7,-1.1875 6.96875,-1.109375 c -0.1875,0.65625 -0.515625,0.96875 -0.828125,0.96875 -0.125,0 -0.1875,-0.078125 -0.1875,-0.265625 0,-0.1875 0.0625,-0.359375 0.140625,-0.5625 0.125,-0.296875 0.46875,-1.21875 0.46875,-1.65625 0,-0.609375 -0.40625,-0.890625 -0.984375,-0.890625 -0.546875,0 -1,0.28125 -1.359375,0.78125 -0.0625,-0.640625 -0.578125,-0.78125 -0.984375,-0.78125 -0.375,0 -0.859375,0.125 -1.296875,0.703125 C 1.875,-3.296875 1.5,-3.515625 1.125,-3.515625 c -0.28125,0 -0.484375,0.171875 -0.609375,0.4375 -0.203125,0.375 -0.28125,0.765625 -0.28125,0.78125 0,0.078125 0.0625,0.109375 0.125,0.109375 0.109375,0 0.109375,-0.03125 0.171875,-0.25 0.09375,-0.390625 0.234375,-0.859375 0.5625,-0.859375 0.21875,0 0.265625,0.203125 0.265625,0.375 0,0.15625 -0.046875,0.296875 -0.109375,0.5625 -0.015625,0.0625 -0.140625,0.53125 -0.171875,0.640625 L 0.78125,-0.515625 c -0.03125,0.125 -0.078125,0.3125 -0.078125,0.34375 0,0.1875 0.15625,0.25 0.265625,0.25 0.140625,0 0.265625,-0.09375 0.3125,-0.1875 C 1.3125,-0.15625 1.375,-0.4375 1.40625,-0.59375 Z m 0,0"
                 id="path38" />
            </g>
            <g
               id="g40"
               transform="translate(10.6783,14.254)">
              <path
                 d="m 3.796875,-3.28125 c 0,-0.03125 0.015625,-0.078125 0.015625,-0.125 0,-0.046875 -0.03125,-0.109375 -0.109375,-0.109375 -0.09375,0 -0.421875,0.3125 -0.546875,0.53125 -0.09375,-0.171875 -0.328125,-0.53125 -0.828125,-0.53125 -0.9375,0 -1.984375,1.109375 -1.984375,2.28125 0,0.84375 0.53125,1.3125 1.140625,1.3125 0.40625,0 0.734375,-0.234375 0.96875,-0.4375 0,0.03125 -0.25,1.03125 -0.28125,1.171875 -0.125,0.453125 -0.125,0.46875 -0.625,0.46875 -0.09375,0 -0.203125,0 -0.203125,0.15625 0,0.046875 0.046875,0.109375 0.125,0.109375 0.09375,0 0.28125,-0.015625 0.390625,-0.03125 H 2.28125 c 0.640625,0 0.78125,0.03125 0.84375,0.03125 0.03125,0 0.15625,0 0.15625,-0.15625 0,-0.109375 -0.125,-0.109375 -0.21875,-0.109375 -0.375,0 -0.375,-0.046875 -0.375,-0.125 0,0 0,-0.046875 0.03125,-0.15625 z m -1.1875,2.296875 C 2.578125,-0.875 2.578125,-0.84375 2.453125,-0.6875 2.03125,-0.203125 1.6875,-0.140625 1.515625,-0.140625 c -0.375,0 -0.546875,-0.34375 -0.546875,-0.75 0,-0.375 0.203125,-1.234375 0.390625,-1.578125 0.21875,-0.484375 0.609375,-0.828125 0.984375,-0.828125 0.53125,0 0.671875,0.625 0.671875,0.6875 0,0.03125 -0.015625,0.078125 -0.03125,0.125 z m 0,0"
                 id="path39" />
            </g>
          </g>
        </g>
      </g>
    </g>
    <g
       inkscape:label=""
       transform="translate(56.026532,129.54647)"
       id="g86">
      <g
         fill="#000000"
         fill-opacity="1"
         id="g207"
         transform="matrix(0.352778,0,0,0.352778,-1.12448,-0.646333)">
        <g
           id="g201"
           transform="translate(3.188,7.1290002)">
          <path
             d="m 2.5,-5.078125 c 0,-0.21875 -0.015625,-0.21875 -0.234375,-0.21875 -0.328125,0.3125 -0.75,0.5 -1.5,0.5 v 0.265625 c 0.21875,0 0.640625,0 1.109375,-0.203125 v 4.078125 c 0,0.296875 -0.03125,0.390625 -0.78125,0.390625 H 0.8125 V 0 c 0.328125,-0.03125 1.015625,-0.03125 1.375,-0.03125 0.359375,0 1.046875,0 1.375,0.03125 V -0.265625 H 3.28125 c -0.75,0 -0.78125,-0.09375 -0.78125,-0.390625 z m 0,0"
             id="path42" />
        </g>
      </g>
      <path
         fill="none"
         stroke-width="0.478"
         stroke-linecap="butt"
         stroke-linejoin="miter"
         stroke="#000000"
         stroke-opacity="1"
         stroke-miterlimit="10"
         d="M 0,7.0155311 H 4.234375"
         id="path207"
         transform="scale(0.352778)" />
      <g
         fill="#000000"
         fill-opacity="1"
         id="g83"
         transform="matrix(0.352778,0,0,0.352778,-1.12448,-0.646333)">
        <g
           id="g82"
           transform="translate(3.188,15.958)">
          <path
             d="m 2.25,-1.625 c 0.125,-0.125 0.453125,-0.390625 0.59375,-0.5 0.484375,-0.453125 0.953125,-0.890625 0.953125,-1.609375 0,-0.953125 -0.796875,-1.5625 -1.78125,-1.5625 -0.96875,0 -1.59375,0.71875 -1.59375,1.4375 0,0.390625 0.3125,0.4375 0.421875,0.4375 0.171875,0 0.421875,-0.109375 0.421875,-0.421875 0,-0.40625 -0.40625,-0.40625 -0.5,-0.40625 C 1,-4.84375 1.53125,-5.03125 1.921875,-5.03125 c 0.734375,0 1.125,0.625 1.125,1.296875 0,0.828125 -0.578125,1.4375 -1.53125,2.390625 l -1,1.046875 C 0.421875,-0.21875 0.421875,-0.203125 0.421875,0 H 3.5625 l 0.234375,-1.421875 h -0.25 C 3.53125,-1.265625 3.46875,-0.875 3.375,-0.71875 c -0.046875,0.0625 -0.65625,0.0625 -0.78125,0.0625 H 1.171875 Z m 0,0"
             id="path82" />
        </g>
      </g>
      <g
         fill="#000000"
         fill-opacity="1"
         id="g85"
         transform="matrix(0.352778,0,0,0.352778,-1.12448,-0.646333)">
        <g
           id="g84"
           transform="translate(8.618,11.836)">
          <path
             d="m 3.09375,-4.5 h 1.359375 c -0.328125,1.328125 -0.53125,2.203125 -0.53125,3.15625 0,0.171875 0,1.46875 0.484375,1.46875 0.25,0 0.46875,-0.234375 0.46875,-0.4375 0,-0.0625 0,-0.078125 -0.078125,-0.265625 -0.328125,-0.828125 -0.328125,-1.84375 -0.328125,-1.9375 0,-0.0625 0,-0.921875 0.25,-1.984375 H 6.0625 c 0.15625,0 0.546875,0 0.546875,-0.390625 0,-0.265625 -0.21875,-0.265625 -0.4375,-0.265625 h -3.9375 c -0.28125,0 -0.6875,0 -1.234375,0.59375 -0.3125,0.34375 -0.6875,0.984375 -0.6875,1.046875 0,0.078125 0.0625,0.09375 0.125,0.09375 0.09375,0 0.09375,-0.03125 0.15625,-0.109375 C 1.21875,-4.5 1.84375,-4.5 2.140625,-4.5 h 0.6875 C 2.5625,-3.609375 2.265625,-2.5625 1.28125,-0.484375 1.1875,-0.28125 1.1875,-0.265625 1.1875,-0.1875 c 0,0.25 0.21875,0.3125 0.3125,0.3125 0.359375,0 0.453125,-0.3125 0.59375,-0.8125 0.1875,-0.609375 0.1875,-0.640625 0.3125,-1.125 z m 0,0"
             id="path83" />
        </g>
      </g>
    </g>
    <g
       inkscape:label=""
       transform="translate(134.34766,129.54647)"
       id="g154">
      <g
         fill="#000000"
         fill-opacity="1"
         id="g88"
         transform="matrix(0.352778,0,0,0.352778,-1.12448,-0.646333)">
        <g
           id="g87"
           transform="translate(3.188,7.1290002)">
          <path
             d="m 2.015625,-2.65625 c 0.625,0 1.03125,0.453125 1.03125,1.296875 0,1 -0.5625,1.28125 -0.984375,1.28125 -0.4375,0 -1.046875,-0.15625 -1.328125,-0.578125 0.296875,0 0.5,-0.1875 0.5,-0.4375 0,-0.265625 -0.1875,-0.4375 -0.453125,-0.4375 -0.203125,0 -0.4375,0.125 -0.4375,0.453125 0,0.75 0.8125,1.25 1.734375,1.25 C 3.125,0.171875 3.875,-0.5625 3.875,-1.359375 3.875,-2.03125 3.34375,-2.625 2.53125,-2.8125 c 0.625,-0.21875 1.109375,-0.75 1.109375,-1.390625 0,-0.640625 -0.71875,-1.09375 -1.546875,-1.09375 -0.859375,0 -1.5,0.453125 -1.5,1.0625 0,0.296875 0.1875,0.421875 0.40625,0.421875 0.25,0 0.40625,-0.171875 0.40625,-0.40625 0,-0.296875 -0.265625,-0.40625 -0.4375,-0.40625 0.34375,-0.4375 0.953125,-0.46875 1.09375,-0.46875 0.203125,0 0.8125,0.0625 0.8125,0.890625 0,0.546875 -0.234375,0.890625 -0.34375,1.015625 -0.234375,0.25 -0.421875,0.265625 -0.90625,0.296875 -0.15625,0 -0.21875,0.015625 -0.21875,0.125 0,0.109375 0.078125,0.109375 0.21875,0.109375 z m 0,0"
             id="path86" />
        </g>
      </g>
      <path
         fill="none"
         stroke-width="0.478"
         stroke-linecap="butt"
         stroke-linejoin="miter"
         stroke="#000000"
         stroke-opacity="1"
         stroke-miterlimit="10"
         d="M 0,7.0155311 H 4.234375"
         id="path88"
         transform="scale(0.352778)" />
      <g
         fill="#000000"
         fill-opacity="1"
         id="g91"
         transform="matrix(0.352778,0,0,0.352778,-1.12448,-0.646333)">
        <g
           id="g90"
           transform="translate(3.188,15.958)">
          <path
             d="m 2.25,-1.625 c 0.125,-0.125 0.453125,-0.390625 0.59375,-0.5 0.484375,-0.453125 0.953125,-0.890625 0.953125,-1.609375 0,-0.953125 -0.796875,-1.5625 -1.78125,-1.5625 -0.96875,0 -1.59375,0.71875 -1.59375,1.4375 0,0.390625 0.3125,0.4375 0.421875,0.4375 0.171875,0 0.421875,-0.109375 0.421875,-0.421875 0,-0.40625 -0.40625,-0.40625 -0.5,-0.40625 C 1,-4.84375 1.53125,-5.03125 1.921875,-5.03125 c 0.734375,0 1.125,0.625 1.125,1.296875 0,0.828125 -0.578125,1.4375 -1.53125,2.390625 l -1,1.046875 C 0.421875,-0.21875 0.421875,-0.203125 0.421875,0 H 3.5625 l 0.234375,-1.421875 h -0.25 C 3.53125,-1.265625 3.46875,-0.875 3.375,-0.71875 c -0.046875,0.0625 -0.65625,0.0625 -0.78125,0.0625 H 1.171875 Z m 0,0"
             id="path90" />
        </g>
      </g>
      <g
         fill="#000000"
         fill-opacity="1"
         id="g153"
         transform="matrix(0.352778,0,0,0.352778,-1.12448,-0.646333)">
        <g
           id="g152"
           transform="translate(8.618,11.836)">
          <path
             d="m 3.09375,-4.5 h 1.359375 c -0.328125,1.328125 -0.53125,2.203125 -0.53125,3.15625 0,0.171875 0,1.46875 0.484375,1.46875 0.25,0 0.46875,-0.234375 0.46875,-0.4375 0,-0.0625 0,-0.078125 -0.078125,-0.265625 -0.328125,-0.828125 -0.328125,-1.84375 -0.328125,-1.9375 0,-0.0625 0,-0.921875 0.25,-1.984375 H 6.0625 c 0.15625,0 0.546875,0 0.546875,-0.390625 0,-0.265625 -0.21875,-0.265625 -0.4375,-0.265625 h -3.9375 c -0.28125,0 -0.6875,0 -1.234375,0.59375 -0.3125,0.34375 -0.6875,0.984375 -0.6875,1.046875 0,0.078125 0.0625,0.09375 0.125,0.09375 0.09375,0 0.09375,-0.03125 0.15625,-0.109375 C 1.21875,-4.5 1.84375,-4.5 2.140625,-4.5 h 0.6875 C 2.5625,-3.609375 2.265625,-2.5625 1.28125,-0.484375 1.1875,-0.28125 1.1875,-0.265625 1.1875,-0.1875 c 0,0.25 0.21875,0.3125 0.3125,0.3125 0.359375,0 0.453125,-0.3125 0.59375,-0.8125 0.1875,-0.609375 0.1875,-0.640625 0.3125,-1.125 z m 0,0"
             id="path152" />
        </g>
      </g>
    </g>
    <g
       inkscape:label=""
       transform="translate(95.993392,131.25661)"
       id="g158">
      <g
         fill="#000000"
         fill-opacity="1"
         id="g166"
         transform="matrix(0.352778,0,0,0.352778,-0.813329,-0.69947)">
        <g
           id="g165"
           transform="translate(1.993,7.1389999)">
          <path
             d="m 3.09375,-4.5 h 1.359375 c -0.328125,1.328125 -0.53125,2.203125 -0.53125,3.15625 0,0.171875 0,1.46875 0.484375,1.46875 0.25,0 0.46875,-0.234375 0.46875,-0.4375 0,-0.0625 0,-0.078125 -0.078125,-0.265625 -0.328125,-0.828125 -0.328125,-1.84375 -0.328125,-1.9375 0,-0.0625 0,-0.921875 0.25,-1.984375 H 6.0625 c 0.15625,0 0.546875,0 0.546875,-0.390625 0,-0.265625 -0.21875,-0.265625 -0.4375,-0.265625 h -3.9375 c -0.28125,0 -0.6875,0 -1.234375,0.59375 -0.3125,0.34375 -0.6875,0.984375 -0.6875,1.046875 0,0.078125 0.0625,0.09375 0.125,0.09375 0.09375,0 0.09375,-0.03125 0.15625,-0.109375 C 1.21875,-4.5 1.84375,-4.5 2.140625,-4.5 h 0.6875 C 2.5625,-3.609375 2.265625,-2.5625 1.28125,-0.484375 1.1875,-0.28125 1.1875,-0.265625 1.1875,-0.1875 c 0,0.25 0.21875,0.3125 0.3125,0.3125 0.359375,0 0.453125,-0.3125 0.59375,-0.8125 0.1875,-0.609375 0.1875,-0.640625 0.3125,-1.125 z m 0,0"
             id="path164" />
        </g>
      </g>
    </g>
    <path
       style="fill:#e1e1e1;fill-rule:evenodd;stroke:#000000;stroke-width:0.1;stroke-linecap:square;stroke-miterlimit:3.9;stroke-dasharray:0.3, 0.3;stroke-dashoffset:0;stroke-opacity:1"
       d="m 61.062175,123.30388 0.01554,-11.95376"
       id="path158"
       sodipodi:nodetypes="cc" />
    <path
       style="fill:#e1e1e1;fill-rule:evenodd;stroke:#000000;stroke-width:0.1;stroke-linecap:square;stroke-miterlimit:3.9;stroke-dasharray:0.3, 0.3;stroke-dashoffset:0;stroke-opacity:1"
       d="m 43.374125,123.48202 9.715455,-0.001"
       id="path158-6"
       sodipodi:nodetypes="cc" />
  </g>
</svg>
