<?xml version="1.0" encoding="UTF-8" standalone="no"?>
<!-- Created with Inkscape (http://www.inkscape.org/) -->

<svg
   width="105.66256mm"
   height="45.130493mm"
   viewBox="0 0 105.66256 45.130493"
   version="1.1"
   id="svg1"
   inkscape:version="1.3.2 (091e20e, 2023-11-25, custom)"
   sodipodi:docname="Distributed_winding_same_width_02.svg"
   xmlns:inkscape="http://www.inkscape.org/namespaces/inkscape"
   xmlns:sodipodi="http://sodipodi.sourceforge.net/DTD/sodipodi-0.dtd"
   xmlns="http://www.w3.org/2000/svg"
   xmlns:svg="http://www.w3.org/2000/svg">
  <sodipodi:namedview
     id="namedview1"
     pagecolor="#505050"
     bordercolor="#eeeeee"
     borderopacity="1"
     inkscape:showpageshadow="0"
     inkscape:pageopacity="0"
     inkscape:pagecheckerboard="0"
     inkscape:deskcolor="#505050"
     inkscape:document-units="mm"
     inkscape:zoom="0.99151936"
     inkscape:cx="199.69353"
     inkscape:cy="85.222743"
     inkscape:window-width="2560"
     inkscape:window-height="1351"
     inkscape:window-x="2551"
     inkscape:window-y="-9"
     inkscape:window-maximized="1"
     inkscape:current-layer="layer1" />
  <defs
     id="defs1" />
  <g
     inkscape:label="Layer 1"
     inkscape:groupmode="layer"
     id="layer1"
     transform="translate(-52.122918,-125.94166)">
    <path
       style="fill:none;stroke:#0f0f0f;stroke-width:0.458834"
       d="m 62.08658,147.31632 c -0.0525,-0.43101 -0.1041,-0.80133 -0.1206,-1.25462 -0.0107,-0.29487 -0.10701,-0.62063 -0.14373,-0.89616 -0.0253,-0.18963 -0.034,-0.33594 -0.0344,-0.53769 -4.6e-4,-0.28696 -0.005,-0.4146 -0.0824,-0.65718 -0.059,-0.18567 -0.0819,-0.28612 -0.0953,-0.47795 -0.0316,-0.44908 -0.008,-1.06156 -0.12096,-1.4936 -0.0507,-0.19295 -0.0438,-0.27934 -0.0674,-0.47795 -0.0517,-0.43585 -0.0365,-1.0962 -0.17342,-1.49359 -0.19745,-0.57321 -0.19476,-1.43474 -0.24271,-2.03129 -0.0219,-0.27226 -0.0509,-0.54773 -0.0817,-0.77579 -0.0279,-0.20657 -0.34377,-0.42708 -0.62966,-0.66285 -0.14329,-0.11818 -0.34199,-0.25808 -0.47684,-0.33897 -0.10939,-0.0656 -0.25514,-0.12446 -0.27636,-0.31453 -0.0233,-0.20841 0.11239,-0.32371 0.22809,-0.39359 0.1306,-0.0789 0.36784,-0.15366 0.52511,-0.22791 0.47498,-0.22423 0.88977,-0.34125 1.43385,-0.57595 0.19124,-0.0825 0.33417,-0.13834 0.5377,-0.21621 0.64413,-0.24643 1.31721,-0.44985 2.03128,-0.6533 0.30253,-0.0862 0.5761,-0.22353 0.89616,-0.29628 0.28201,-0.0641 0.54641,-0.17581 0.83641,-0.24667 0.2526,-0.0617 0.31897,-0.0942 0.5377,-0.18467 0.25374,-0.10493 0.68543,-0.14733 0.9559,-0.25926 0.23746,-0.0983 0.46868,-0.14187 0.71692,-0.21298 0.40435,-0.11583 0.77457,-0.21706 1.19488,-0.3663 0.20428,-0.0725 0.46861,-0.1148 0.65718,-0.17416 0.24696,-0.0777 0.36558,-0.12281 0.65718,-0.18255 0.22864,-0.0468 0.38547,-0.0875 0.59744,-0.16342 0.29888,-0.107 0.56353,-0.19527 0.89616,-0.26889 0.38892,-0.0861 0.79459,-0.15982 1.19487,-0.26995 0.29729,-0.0818 0.55176,-0.10365 0.83641,-0.19058 0.37474,-0.11443 0.74706,-0.18944 1.13514,-0.28885 0.28011,-0.0718 0.4283,-0.12141 0.71692,-0.17688 0.50142,-0.0964 0.95607,-0.25812 1.43385,-0.32315 0.92497,-0.12591 1.84937,-0.42399 2.80796,-0.62049 0.51362,-0.10529 1.00673,-0.15405 1.49359,-0.28014 0.2042,-0.0529 0.40018,-0.11319 0.59744,-0.15383 0.19439,-0.0401 0.32556,-0.0684 0.53769,-0.12586 0.18416,-0.0499 0.30474,-0.0682 0.47795,-0.0935 0.30395,-0.0443 0.99696,-0.16306 1.31437,-0.22045 0.39014,-0.0705 0.7648,-0.13799 1.13513,-0.24727 0.57536,-0.16977 1.28608,-0.15522 1.85205,-0.29046 0.30778,-0.0735 0.67259,-0.0984 0.9559,-0.16241 0.6458,-0.14588 1.18271,-0.14328 1.85206,-0.30286 0.2723,-0.0649 0.36772,-0.10451 0.65718,-0.13747 0.52272,-0.0595 1.00549,-0.20676 1.4936,-0.23363 0.55362,-0.0305 1.05954,-0.0643 1.55333,-0.18983 0.35402,-0.09 1.01409,-0.12731 1.37411,-0.18569 0.13364,-0.0217 0.21391,-0.0318 0.35847,-0.048 0.16112,-0.0181 0.26507,-0.0407 0.4182,-0.0514 0.15523,-0.0109 0.26458,-0.003 0.4182,-0.0226 0.41093,-0.0534 0.90383,-0.0799 1.31437,-0.12829 0.75246,-0.0888 1.83296,-0.24432 2.62873,-0.27328 0.32164,-0.0117 0.46594,-0.0569 0.8364,-0.10178 0.30369,-0.0368 0.33307,-0.0265 0.59744,-0.0669 0.13828,-0.0211 0.27708,-0.0297 0.41821,-0.0458 0.57748,-0.0656 1.08979,-0.12601 1.55334,-0.0239 m 44.15064,0.35846 c 0.43233,0.20645 0.64094,0.56262 0.95502,0.83664 0.237,0.20677 0.40826,0.39139 0.65294,0.56494 0.21651,0.15357 0.43381,0.34206 0.63694,0.53262 0.29298,0.27484 0.48789,0.52348 0.8119,0.78331 0.1705,0.13672 0.24665,0.18118 0.391,0.30997 0.12871,0.11483 0.23622,0.19246 0.37497,0.31605 0.5437,0.48429 1.09894,1.03048 1.676,1.51899 0.14294,0.12101 0.47794,0.41565 0.58707,0.54 0.10703,0.12197 0.18455,0.27571 0.33417,0.41429 0.19705,0.1825 0.31403,0.19225 0.52732,0.37741 0.23181,0.20124 0.55675,0.49508 0.81613,0.70904 0.30079,0.24812 0.49324,0.43068 0.83964,0.73615 0.187,0.1649 0.39672,0.44317 0.49238,0.63058 0.10369,0.20318 0.1184,0.26143 0.0994,0.51234 -0.0147,0.19485 -0.0679,0.31007 -0.13687,0.47795 -0.0736,0.17907 -0.0841,0.28774 -0.0988,0.47796 -0.0142,0.18219 -0.0439,0.25754 -0.11234,0.4182 -0.0988,0.23191 -0.1087,0.35584 -0.12669,0.59744 -0.0142,0.19041 -0.0554,0.27391 -0.124,0.4182 -0.0919,0.19312 -0.10687,0.37307 -0.13798,0.59744 -0.0277,0.19995 -0.0442,0.33962 -0.11967,0.53769 -0.0694,0.18223 -0.10868,0.27634 -0.13631,0.47796 -0.035,0.25563 -0.021,0.36237 -0.10478,0.59743 -0.066,0.18508 -0.10281,0.28163 -0.13383,0.47795 -0.0349,0.22071 -0.0517,0.3276 -0.10192,0.5377 -0.052,0.21767 -0.0765,0.37179 -0.12429,0.59744 -0.038,0.17943 -0.0434,0.29229 -0.0833,0.47794 -0.0354,0.16465 -0.0502,0.25583 -0.0751,0.41821 -0.0246,0.16046 -0.0409,0.24796 -0.0685,0.41821 -0.0451,0.27823 -0.13341,0.46609 -0.16444,0.71692 -0.0294,0.23795 -0.21158,0.44811 -0.35606,0.59744 -0.42441,-0.28017 -0.54563,-0.19647 -1.13513,-0.29392 -0.30413,-0.0503 -0.42215,-0.0786 -0.77667,-0.11419 -0.30289,-0.0304 -0.58583,-0.055 -0.89616,-0.12262 -0.18373,-0.0401 -0.2891,-0.0573 -0.47795,-0.0667 -0.50757,-0.0252 -1.22628,-0.0725 -1.73257,-0.189 -0.58713,-0.13504 -1.35502,-0.22268 -2.03128,-0.2292 -0.22327,-0.002 -0.38643,-0.0196 -0.59744,-0.0598 -0.16328,-0.0311 -0.25656,-0.0503 -0.41821,-0.0574 -0.3572,-0.0158 -1.05491,-0.0361 -1.43385,-0.0722 -0.48742,-0.0464 -1.01724,-0.0569 -1.43385,-0.16079 -0.18921,-0.0472 -0.33585,-0.0629 -0.53769,-0.0689 -0.60444,-0.0179 -1.3789,-0.029 -1.97155,-0.16319 -0.84158,-0.19059 -1.83309,-0.11057 -2.68846,-0.2115 -0.25036,-0.0296 -0.42188,-0.0426 -0.65719,-0.0427 -0.42742,-1.9e-4 -0.77898,-0.11799 -1.19487,-0.11949 -0.59754,-0.002 -1.19601,-0.091 -1.79232,-0.11714 -0.20112,-0.009 -0.40619,0.003 -0.59744,-0.0194 -0.41697,-0.0492 -0.86344,-0.052 -1.25461,-0.11225 -0.22481,-0.0346 -0.25237,-0.013 -0.47795,0.0696 0.0889,0.37324 -0.0622,0.34498 0.10059,0.89616 0.0709,0.24014 0.13584,0.36037 0.17254,0.59743 0.0562,0.36291 0.19914,0.90673 0.36677,1.23757 0.10442,0.20611 0.17446,0.41145 0.28696,0.61449 0.11864,0.21414 0.21888,0.34742 0.3473,0.53746 0.10697,0.1583 0.20031,0.28404 0.31937,0.43314 0.11853,0.14845 0.22088,0.26538 0.34238,0.40885 0.36831,0.43493 0.7405,0.91976 1.13315,1.35171 0.21041,0.23147 0.31295,0.33114 0.50026,0.5222 0.14241,0.14526 0.17311,0.25859 0.25046,0.38087 0.0815,0.12878 0.38983,0.55963 0.51408,0.71088 0.2593,0.31563 0.58108,0.70406 0.87348,1.02012 1.08572,1.17358 2.22467,2.5192 3.10423,3.83443 0.15378,0.22995 0.31655,0.39384 0.49316,0.61325 0.21595,0.26828 0.5069,0.6681 0.69987,0.92548 0.16088,0.21457 0.37656,0.30529 0.5619,0.52114 0.16018,0.18656 0.15534,0.28854 0.3196,0.50999 0.30493,0.41112 0.51343,0.57526 0.77473,0.862 0.13777,0.15117 0.16832,0.27424 0.27595,0.43508 0.24139,0.36071 0.92078,1.36837 1.29311,1.51646 0.2088,0.0831 0.29036,-0.11453 0.34601,-0.24488 0.11601,-0.27169 0.10133,-0.62458 0.16296,-0.89583 0.0367,-0.16137 0.0617,-0.24283 0.0924,-0.41821 0.063,-0.3594 0.0537,-0.9646 0.35652,-1.13343 0.22887,-0.12758 0.43605,-0.0221 0.65068,-0.007 0.26762,0.0188 0.47391,-0.0321 0.76782,0.11612 0.15529,0.0783 0.18144,0.19347 0.18669,0.36745 0.01,0.32751 -0.14868,0.48906 -0.22145,0.83614 -0.0999,0.47632 -0.21406,0.80884 -0.3001,1.31436 -0.0396,0.23257 -0.0932,0.38728 -0.15069,0.59744 -0.0428,0.15615 -0.0412,0.2464 -0.0435,0.4182 -0.003,0.22711 -0.078,0.39137 0.0911,0.55333 0.18425,0.17638 0.86759,0.20726 1.16335,0.2097 0.36137,0.003 0.47828,-0.44092 0.54377,-0.70328 0.0361,-0.14446 0.0452,-0.25846 0.054,-0.4182 0.0105,-0.19197 0.0232,-0.27797 0.11115,-0.47796 0.0922,-0.20965 0.11642,-0.31113 0.12862,-0.53769 0.0151,-0.27928 0.10151,-0.47344 0.15996,-0.71693 0.0888,-0.37008 0.27634,-0.9407 0.31203,-1.3741 0.0212,-0.25656 0.009,-0.37631 0.11028,-0.65719 0.0785,-0.21716 0.12407,-0.36449 0.13451,-0.59743 0.01,-0.21337 0.0605,-0.32983 0.13166,-0.53769 0.1479,-0.43215 0.17643,-0.78725 0.26133,-1.31437 0.04,-0.24818 0.0478,-0.36328 0.12668,-0.59744 0.0857,-0.25429 0.1164,-0.28606 0.1353,-0.53769 0.0171,-0.22766 0.0245,-0.31436 0.0915,-0.5377 0.065,-0.21676 0.11275,-0.35387 0.13889,-0.59743 0.0231,-0.21496 0.0263,-0.32182 0.11493,-0.50331 0.0871,-0.1783 0.11259,-0.25018 0.12884,-0.45259 0.0193,-0.24023 -0.0202,-0.32695 0.0841,-0.53682 0.10204,-0.20542 0.25718,-0.2832 0.37676,-0.4833 0.14017,-0.23454 0.22967,-0.42788 0.3397,-0.65294 0.22463,-0.45945 0.43047,-0.86771 0.70098,-1.31413 0.20554,-0.3392 0.37927,-0.82416 0.58655,-1.13513 0.18896,-0.28347 0.37451,-0.57135 0.507,-0.89616 0.0826,-0.20261 0.16123,-0.39543 0.27341,-0.56304 0.41575,-0.62121 0.54694,-0.83719 0.72149,-1.28902 M 84.96843,126.94369 c 0.29173,-0.055 0.57434,-0.13528 1.07539,-0.23897 m -8.54336,0.0597 -1.07539,0.27867 -1.3741,0.30973 -0.83642,0.2074 -0.59743,0.15116 -1.31437,0.32237 -1.13513,0.29835 -0.65718,0.15959 -0.65718,0.15618 -1.43385,0.3847 -0.59744,0.16931 -2.92744,0.82314 -0.5377,0.17707 -1.01564,0.33523 -1.31437,0.39165 -0.47795,0.17199 -0.53769,0.16729 -1.07539,0.36174 -1.43385,0.51137 m 0.47795,14.57748 c 0,-0.24211 0.003,-0.54282 -2.3e-4,-0.77667 -0.002,-0.1766 -0.0162,-0.29411 -0.0595,-0.47795 -0.0442,-0.18746 -0.0956,-0.61127 -0.13682,-0.77667 -0.0561,-0.22494 -0.0411,-0.33203 -0.0424,-0.59744 -0.002,-0.40422 -0.10517,-0.82446 -0.15383,-1.19487 -0.0282,-0.21463 -0.025,-0.3498 -0.0254,-0.59744 -3.9e-4,-0.23145 0.009,-0.33888 -0.0499,-0.53769 -0.0511,-0.17324 -0.0991,-0.25271 -0.12249,-0.41821 -0.0234,-0.16505 -0.0309,-0.25993 -0.0496,-0.4182 -0.0301,-0.2553 -0.0166,-0.42676 -0.0171,-0.71693 -4.6e-4,-0.37285 -0.009,-0.51419 -0.12396,-0.83641 -0.11807,-0.33205 -0.10173,-0.83772 -0.11737,-1.19488 -0.0127,-0.29008 -0.0428,-0.60411 -0.0995,-0.83641 -0.0704,-0.28857 -0.13533,-0.44351 -0.13709,-0.71693 -0.003,-0.53169 0.021,-1.07128 -0.16222,-1.55334 -0.0679,-0.1787 -0.12275,-0.34136 -0.0154,-0.52976 0.12677,-0.22248 0.3858,-0.27474 0.59578,-0.36556 0.38596,-0.16695 0.95522,-0.36318 1.31435,-0.53022 0.27463,-0.12774 0.51576,-0.20139 0.83642,-0.31113 0.27033,-0.0925 0.34165,-0.11302 0.59744,-0.20675 0.15907,-0.0583 0.26111,-0.10485 0.41821,-0.15429 0.34387,-0.10821 0.86508,-0.28311 1.19487,-0.40848 0.20618,-0.0784 0.35551,-0.10614 0.59744,-0.15867 0.22176,-0.0482 0.31716,-0.11183 0.5377,-0.19869 0.33695,-0.1327 0.71506,-0.19406 1.07538,-0.32061 0.52854,-0.18563 0.9303,-0.30721 1.43385,-0.44845 0.2732,-0.0766 0.4389,-0.13657 0.71693,-0.22805 0.21341,-0.0702 0.36877,-0.0874 0.59744,-0.15231 0.35088,-0.0996 0.77211,-0.24056 1.07539,-0.32832 0.23073,-0.0668 0.281,-0.10358 0.53769,-0.16253 0.2402,-0.0552 0.47764,-0.15095 0.71692,-0.22114 0.6343,-0.18606 1.50161,-0.42902 2.15078,-0.56314 0.30311,-0.0626 0.4753,-0.11827 0.77667,-0.18827 0.46153,-0.10719 0.87893,-0.22891 1.31436,-0.34634 0.21731,-0.0586 0.35834,-0.0519 0.59744,-0.11284 0.22686,-0.0578 0.42296,-0.14082 0.65718,-0.19736 0.26459,-0.0639 0.28365,-0.0838 0.53769,-0.13474 0.32888,-0.0659 1.03891,-0.19568 1.37411,-0.29881 0.52869,-0.16267 0.95349,-0.12579 1.3741,-0.25474 0.38828,-0.11904 0.83182,-0.1746 1.25462,-0.28835 0.45057,-0.12122 0.93477,-0.11294 1.37411,-0.21472 0.31243,-0.0724 0.61611,-0.13954 0.9559,-0.21059 0.45214,-0.0945 0.81999,-0.179 1.25462,-0.23961 0.34377,-0.0479 0.79687,-0.18728 1.13513,-0.23119 m 19.83493,0.77667 c 0.0609,0.11078 0.0294,0.0904 0.17923,0.11949 m 39.96858,5.01848 c -0.30105,0.54054 -1.74377,-0.0635 -2.62872,-0.0523 -0.37126,0.005 -0.59411,0.008 -1.01565,-0.0777 -0.62753,-0.12795 -1.2938,-0.22966 -1.97154,-0.29272 -0.37077,-0.0345 -0.63885,-0.0464 -1.07539,-0.098 -0.55343,-0.0653 -1.11998,-0.0683 -1.73257,-0.15337 -0.49974,-0.0694 -0.95156,-0.069 -1.43385,-0.10778 -0.45735,-0.0367 -0.57017,-0.0503 -0.9559,-0.0549 -0.25633,-0.003 -0.44294,-0.0423 -0.71692,-0.061 -0.45483,-0.0311 -0.75969,-0.1063 -1.19488,-0.11714 -0.7227,-0.018 -1.47775,-0.11927 -2.15077,-0.12036 -0.59269,-9.2e-4 -1.17493,-0.13569 -1.73257,-0.17388 -0.33246,-0.0228 -0.74861,-0.005 -1.13514,-0.005 -0.49729,-9.2e-4 -0.86473,-0.0273 -1.3741,-0.0941 -0.68186,-0.0895 -0.89003,-0.0798 -1.61308,-0.0849 -0.29539,-0.002 -0.43972,-1.7e-4 -0.71693,-1.9e-4 -0.43637,-2e-5 -0.62877,-0.0549 -1.01564,-0.0595 -0.66136,-0.008 -1.59029,0.0258 -2.27027,-0.0369 -0.59948,-0.0554 -1.10667,-0.023 -1.73257,-0.023 -0.29458,0 -0.50168,-0.0258 -0.77667,-0.0325 -0.34274,-0.008 -0.89688,-0.0272 -1.25461,-0.0272 -0.14634,0 -0.26979,0 -0.41821,0 -0.18387,0 -0.33556,-9.1e-4 -0.53769,5e-5 -1.08997,0.005 -2.29742,0.0335 -3.4054,0.0606 -0.35011,0.009 -0.59637,0.0588 -0.9559,0.0589 -0.22857,2e-5 -0.38612,-0.009 -0.59744,0.005 -0.37287,0.0256 -0.65967,0.0451 -1.07538,0.0553 -0.20185,0.005 -0.3401,0.0338 -0.5377,0.0706 -0.25327,0.0471 -0.41181,0.0231 -0.65718,0.008 -0.23287,-0.0144 -0.65903,0.0374 -0.9559,0.0595 -0.43154,0.0322 -0.72962,0.0786 -1.07539,0.098 -0.33978,0.019 -0.74988,0.10043 -1.13513,0.12695 -0.38909,0.0268 -0.80282,0.0987 -1.19488,0.11649 -0.31738,0.0144 -0.54346,0.0685 -0.83641,0.10935 -0.26692,0.0372 -0.39402,0.0637 -0.65718,0.0673 -0.30127,0.004 -0.56232,0.0334 -0.89615,0.0768 -0.28073,0.0365 -0.45944,0.0588 -0.77667,0.0927 -0.97832,0.10475 -1.90534,0.21059 -2.8677,0.32569 -0.36005,0.0431 -0.82565,0.16297 -1.19488,0.25511 -0.36179,0.0903 -0.8,0.12405 -1.19487,0.14858 -0.24777,0.0154 -0.43071,0.12972 -0.65719,0.16397 -0.67907,0.1027 -1.66814,0.26007 -2.38974,0.35436 -0.19977,0.0261 -0.3512,0.0475 -0.5377,0.092 -0.17314,0.0413 -0.29773,0.0578 -0.47795,0.0971 -0.55704,0.12146 -1.21987,0.18061 -1.79231,0.29421 -0.24341,0.0483 -0.42663,0.0954 -0.65719,0.15576 -0.47846,0.12528 -0.93834,0.16649 -1.3741,0.26682 -0.29433,0.0678 -0.64262,0.16001 -1.07539,0.24216 -0.28166,0.0535 -0.55121,0.11358 -0.83641,0.18319 -0.33544,0.0819 -0.6659,0.18007 -1.01565,0.23119 -0.27964,0.0409 -0.42897,0.11732 -0.71692,0.17983 -0.40845,0.0887 -0.79139,0.10863 -1.25462,0.26793 -0.3443,0.11839 -0.80701,0.18898 -1.07539,0.25455 -0.34647,0.0847 -0.54845,0.0977 -0.89615,0.1855 -0.24297,0.0614 -0.35658,0.075 -0.5377,0.12037 -0.0928,0.0233 -0.69316,0.18094 -0.83641,0.22104 -0.23357,0.0654 -0.3835,0.10114 -0.59744,0.15978 -0.1885,0.0517 -0.29703,0.0983 -0.47795,0.14701 -0.30304,0.0816 -0.67554,0.13191 -1.01564,0.2344 -0.46025,0.13871 -0.86444,0.18975 -1.25462,0.31131 -0.20132,0.0627 -0.38348,0.0756 -0.59744,0.13908 -0.42602,0.12631 -0.98011,0.25244 -1.37411,0.38782 -0.19812,0.0681 -0.32328,0.11783 -0.53769,0.16144 -0.4294,0.0873 -0.88092,0.19663 -1.31436,0.34284 -0.22979,0.0775 -0.42434,0.12782 -0.65718,0.18707 -0.18551,0.0472 -0.2991,0.078 -0.47795,0.13262 -0.30771,0.094 -0.63558,0.16232 -0.95591,0.27373 -0.35403,0.12314 -0.75489,0.17405 -1.07538,0.28139 -0.25907,0.0868 -0.46067,0.14101 -0.71693,0.25023 -0.77853,0.3318 -1.65486,0.43783 -2.38947,0.71424 -0.38169,0.14362 -0.37184,0.3386 -0.35634,0.67148 0.0165,0.35444 0.0925,0.78206 0.13414,1.13513 0.0172,0.14583 0.0363,0.25884 0.042,0.4182 0.0104,0.28513 0.0281,0.39954 0.0992,0.71693 0.0791,0.35285 0.10178,0.76467 0.14337,1.13513 0.0486,0.43268 0.13919,0.80374 0.19329,1.25462 0.024,0.2004 0.0416,0.31419 0.0426,0.5377 9.2e-4,0.23547 -0.007,0.33255 0.0171,0.53769 0.0364,0.30834 0.0129,0.38991 0.10266,0.71692 0.0646,0.23538 0.11587,0.51116 0.11903,0.77667 0.006,0.51649 0.17836,0.98112 0.11248,1.43385 -0.0406,0.2789 -0.0834,0.28666 -0.12151,0.5377 -0.029,0.19076 -0.0731,0.29757 -0.14374,0.47795 -0.0786,0.2006 -0.0754,0.31428 -0.10298,0.53769 -0.0289,0.23347 -0.048,0.41034 -0.11954,0.59744 -0.0736,0.19243 -0.0841,0.21591 -0.10662,0.4182 -0.0186,0.16731 -0.0546,0.36807 -0.10848,0.5377 -0.0709,0.22321 -0.10715,0.37249 -0.13562,0.59744 -0.0239,0.18931 -0.0522,0.29961 -0.101,0.47795 -0.048,0.17509 -0.056,0.25902 -0.0736,0.4182 -0.0237,0.21493 -0.09,0.38312 -0.1607,0.59744 -0.0496,0.15059 -0.055,0.32112 -0.0822,0.4756 -0.0442,0.25087 -0.24424,0.37977 -0.34984,0.4803 l -0.086,-0.129 c -0.18935,-0.42341 -0.0338,-0.54078 -0.19569,-1.06589 -0.0999,-0.32409 -0.0558,-0.5739 -0.0821,-0.9559 -0.0185,-0.26793 -0.0612,-0.3891 -0.0973,-0.65718 -0.0784,-0.58228 -0.13682,-0.98576 -0.18596,-1.49359 -0.0369,-0.38129 -0.0284,-0.56589 -0.10267,-0.89616 -0.0638,-0.28374 -0.0735,-0.51842 -0.089,-0.83641 -0.026,-0.53525 -0.14403,-1.23385 -0.18228,-1.79231 -0.0218,-0.31869 -0.0379,-0.57979 -0.11649,-0.83642 -0.11636,-0.37971 -0.11282,-0.7534 -0.11737,-1.13513 -0.004,-0.30747 -0.0212,-0.58547 -0.1246,-0.89616 -0.12138,-0.36483 -0.11015,-0.54181 -0.11437,-0.89615 -0.005,-0.43311 -0.12511,-0.73763 -0.22238,-1.25462 -0.0434,-0.23106 -0.0116,-0.4269 -0.0173,-0.65718 -0.007,-0.29574 -0.0338,-0.65629 -0.13705,-0.9559 -0.1186,-0.34422 -0.0968,-0.52199 -0.10128,-0.89616 -0.003,-0.27936 -0.0179,-0.7198 -0.13632,-0.99029 -0.0475,-0.10858 -0.0937,-0.21603 -0.0934,-0.32495 4.6e-4,-0.20599 0.0769,-0.20843 0.069,-0.41733 -0.008,-0.20944 -0.31258,-0.4497 -0.4963,-0.57475 -0.5223,-0.35554 -0.76598,-0.61213 -0.89615,-0.73961 0.20207,-0.1839 0.62223,-0.48365 1.25462,-0.677 0.15791,-0.0483 0.2627,-0.0726 0.4182,-0.13263 0.19319,-0.0746 0.33269,-0.13154 0.5377,-0.2145 0.38604,-0.15621 0.6614,-0.18808 1.01564,-0.32315 0.2113,-0.0806 0.42925,-0.12931 0.65719,-0.2262 1.03952,-0.44189 2.34161,-0.80168 3.40539,-1.13924 0.30334,-0.0962 0.49685,-0.10682 0.83641,-0.2192 0.27377,-0.0906 0.41099,-0.1152 0.65719,-0.18702 0.31839,-0.0929 0.65476,-0.16916 1.01564,-0.29245 0.21498,-0.0734 0.36642,-0.15894 0.59743,-0.20528 0.29554,-0.0593 0.479,-0.0808 0.77667,-0.18831 0.33401,-0.12064 0.73938,-0.24751 1.13514,-0.30928 0.31238,-0.0487 0.54564,-0.0894 0.83641,-0.18582 0.27367,-0.0908 0.46745,-0.12358 0.77667,-0.22007 0.30581,-0.0954 0.55414,-0.16852 0.89616,-0.22414 0.26462,-0.043 0.40858,-0.0725 0.65717,-0.1494 0.34915,-0.10803 0.62331,-0.18672 0.95591,-0.26345 0.5929,-0.13679 1.15412,-0.28645 1.73257,-0.38285 0.25306,-0.0422 0.44778,-0.14294 0.71692,-0.18504 0.35841,-0.0561 0.58353,-0.0984 0.89616,-0.16873 0.30346,-0.0683 0.50404,-0.0961 0.89615,-0.15677 0.33259,-0.0515 0.59733,-0.19623 0.9559,-0.2629 0.68863,-0.12806 1.31733,-0.28272 1.97155,-0.31582 0.61756,-0.0312 1.24326,-0.20361 1.85205,-0.3019 0.31511,-0.0509 0.48304,-0.1218 0.77667,-0.16149 0.23611,-0.0319 0.36963,-0.0434 0.59744,-0.099 0.45952,-0.1121 1.14398,-0.21416 1.67283,-0.26622 0.82361,-0.0811 1.50654,-0.18643 2.27026,-0.30974 0.38412,-0.062 0.69043,-0.15059 1.07539,-0.17688 0.56385,-0.0385 1.23617,-0.23134 1.79231,-0.24063 0.2072,-0.004 0.33369,-0.0297 0.53769,-0.0494 0.42891,-0.0415 0.69219,-0.09 1.01565,-0.14438 0.33345,-0.0561 1.20633,-0.14692 1.55333,-0.16448 0.17653,-0.009 0.29624,-0.0338 0.47795,-0.075 0.16124,-0.0365 0.25817,-0.0367 0.41821,-0.0497 0.56321,-0.0455 1.30924,-0.13983 1.85205,-0.17941 0.20022,-0.0146 0.32588,-0.0444 0.5377,-0.0544 0.32171,-0.0153 0.67464,-0.10598 1.01564,-0.11839 0.42038,-0.0153 0.87117,-0.0436 1.31437,-0.0632 0.36907,-0.0163 0.55829,-0.0806 0.9559,-0.0574 m -41.76089,10.39542 c 0.15615,-0.13658 0.33495,-0.25297 0.71692,-0.426 0.52133,-0.23617 1.45583,-0.57308 2.03129,-0.74906 0.24621,-0.0753 0.38973,-0.15189 0.65719,-0.24354 0.29112,-0.0998 0.68622,-0.20021 0.95589,-0.29876 0.23134,-0.0845 0.39508,-0.13596 0.65718,-0.19532 0.24526,-0.0555 0.34609,-0.1187 0.59744,-0.20555 0.33696,-0.11644 0.73795,-0.20539 1.07539,-0.30554 0.23332,-0.0693 0.42702,-0.13284 0.65718,-0.20496 0.23304,-0.073 0.46927,-0.10147 0.71693,-0.18937 0.39382,-0.13978 0.78787,-0.21887 1.19487,-0.33611 0.20314,-0.0585 0.39173,-0.0805 0.59744,-0.13723 0.38718,-0.1067 0.78499,-0.22591 1.19488,-0.33081 0.20501,-0.0525 0.37505,-0.10647 0.59743,-0.16374 0.20354,-0.0524 0.35018,-0.0961 0.5377,-0.1548 0.17893,-0.056 0.34707,-0.0726 0.53769,-0.12266 0.74347,-0.19519 1.64551,-0.37769 2.38975,-0.55088 0.20581,-0.0479 0.34542,-0.10088 0.53769,-0.16301 0.49123,-0.15872 1.0939,-0.19042 1.61309,-0.32924 0.25364,-0.0678 0.48581,-0.12876 0.71692,-0.19241 0.3574,-0.0984 0.72671,-0.1132 1.13513,-0.20435 0.46565,-0.10393 0.93371,-0.19784 1.37411,-0.28936 0.35535,-0.0738 0.64051,-0.13393 1.01564,-0.19643 0.26747,-0.0445 0.51759,-0.0753 0.77667,-0.14627 0.31878,-0.0873 0.60033,-0.0884 0.9559,-0.1377 0.40201,-0.0557 0.86032,-0.146 1.25462,-0.2321 0.22159,-0.0484 0.37215,-0.0922 0.59744,-0.11622 0.64675,-0.0688 1.33773,-0.2422 1.97155,-0.30443 0.69091,-0.0678 1.3558,-0.16544 2.03128,-0.29144 0.22611,-0.0422 0.36258,-0.0626 0.59744,-0.0966 0.87979,-0.1274 1.82919,-0.21651 2.68847,-0.39999 0.35089,-0.0749 0.68086,-0.0892 1.01564,-0.12268 0.49123,-0.0491 0.82185,-0.16352 1.31436,-0.22122 0.68676,-0.0805 1.30559,-0.0924 1.97155,-0.12972 0.16395,-0.009 0.26268,-0.0462 0.41821,-0.0814 0.15878,-0.036 0.24222,-0.0292 0.4182,-0.0378 0.54209,-0.0266 1.23693,-0.15737 1.79231,-0.17757 0.22677,-0.008 0.39661,-0.0395 0.59744,-0.0621 0.20008,-0.0225 0.31219,-0.0503 0.53769,-0.0559 0.19055,-0.005 0.2948,0.003 0.47795,-0.002 0.26941,-0.007 0.49775,-0.0609 0.83642,-0.10156 0.41664,-0.05 0.95193,-0.12964 1.3741,-0.13673 0.24071,-0.004 0.36478,-0.0304 0.59744,-0.0566 0.58271,-0.0654 1.20394,-0.11571 1.79231,-0.12271 0.17201,-0.002 0.30595,-0.0254 0.47796,-0.0254 0.19969,-1e-5 0.29057,0.0309 0.47795,0.0152 0.35704,-0.0299 0.84905,-0.0277 1.19487,-0.0748 0.77176,-0.10506 1.51035,-0.0938 2.27026,-0.0941 0.32148,-1.2e-4 0.50623,-0.0435 0.83642,-0.0574 0.24218,-0.0102 0.4342,0.0371 0.65718,0.0371 2.1081,0 4.38376,0.0101 6.51207,0.0203 0.2693,0.001 0.41348,0.0486 0.65718,0.049 0.44337,9.1e-4 0.78363,0.0967 1.19487,0.0602 0.44637,-0.0396 0.81649,-0.0185 1.31437,0.0155 0.26105,0.0179 0.39065,0.0531 0.65718,0.0543 1.13586,0.005 2.33034,0.0721 3.46514,0.12189 0.26158,0.0115 0.39783,0.05 0.65718,0.0574 0.9734,0.0279 1.77888,0.13909 2.74821,0.18153 0.89723,0.0393 1.79558,0.21127 2.68847,0.23746 0.21657,0.006 0.40385,0.0481 0.59744,0.0566 0.57313,0.0251 1.2581,0.0855 1.85205,0.12718 0.27956,0.0196 0.42247,0.0882 0.71693,0.1088 0.41056,0.0288 0.97252,0.0523 1.37411,0.066 0.15351,0.005 0.26713,0.0295 0.4182,0.0672 0.26391,0.0659 0.48882,0.0759 0.77667,0.10819 0.34022,0.0382 0.60305,0.0533 0.89616,0.12249 0.19022,0.0449 0.28439,0.0571 0.47795,0.0595 0.18415,0.002 0.27887,-0.01 0.47795,0.0104 0.23271,0.0233 0.35164,0.0741 0.59744,0.0991 0.6961,0.0707 1.55915,0.22656 2.27026,0.2988 0.27402,0.0279 0.43604,0.0413 0.71692,0.0728 0.19939,0.0224 0.29701,0.0462 0.47795,0.0544 0.16595,0.008 0.25594,0 0.41821,0.0194 0.29291,0.035 0.6031,0.0865 0.9559,0.13682 0.91827,0.1309 1.82349,0.30579 2.68847,0.394 0.21004,0.0214 0.72813,0.11342 1.01564,0.15226 0.33725,0.0456 0.6479,0.11714 0.95591,0.16186 0.97413,0.14142 2.48744,0.53983 2.98718,0.27313 m -49.64706,-2.92744 v 0.17923 m 39.61011,3.58463 c 0.65783,0.15661 1.34354,0.20796 1.97155,0.23897 0.19067,0.009 0.35854,0.0413 0.53769,0.0544 0.35422,0.026 0.63534,0.0223 1.01564,0.12023 0.17215,0.0443 0.31003,0.10138 0.47795,0.11787 0.7777,0.0764 1.59082,0.18574 2.38975,0.29711 0.52351,0.073 0.98976,0.17313 1.55334,0.23911 0.4988,0.0584 0.93906,0.0485 1.43385,0.15433 0.40859,0.0874 0.77713,0.15989 1.19488,0.20169 0.29158,0.0292 0.53229,0.0613 0.83641,0.13023 0.2602,0.059 0.46474,0.10407 0.71693,0.12396 0.40638,0.032 0.49376,-0.0117 0.59743,-0.0649 m -43.19474,6.87054 c -0.39741,-0.21182 -0.76253,-0.18164 -1.43385,-0.10243 -0.5186,0.0612 -0.44597,0.0427 -0.9559,0.0427 -0.38602,0 -0.80437,0 -1.19488,0 -0.25303,0 -0.37578,0 -0.65718,0 -0.8093,0 -1.72939,0.13162 -2.50924,0.17665 -0.37224,0.0215 -0.4694,-0.0658 -0.56807,0.19066 -0.0455,0.11827 0.0132,0.34998 0.0261,0.4691 0.0207,0.19117 0.0495,0.30372 0.12378,0.47796 0.0788,0.18479 0.10361,0.26968 0.12073,0.47795 0.0181,0.22041 0.0588,0.37253 0.11736,0.59743 0.0584,0.22419 0.0432,0.34161 0.071,0.59744 0.0421,0.38713 0.15857,0.94709 0.31555,1.23756 0.26579,0.49185 0.21109,0.69465 0.62998,1.09245 0.0838,-0.0725 0.16854,-0.1383 0.47794,-0.38529 0.29305,-0.23393 0.93214,-0.76368 1.25485,-1.05151 0.94424,-0.84217 1.81386,-1.61088 2.80773,-2.38763 0.36319,-0.28385 0.74284,-0.59346 1.06912,-0.91239 0.20695,-0.20229 0.19935,-0.31463 0.38801,-0.49104 0.18866,-0.1764 0.48292,-0.24602 0.77639,-0.50989 0.80848,-0.72694 1.68228,-1.46081 2.54599,-2.14151 0.3363,-0.26506 0.58387,-0.5126 0.76947,-0.84333 0.19552,-0.3484 0.31541,-0.77192 0.42323,-1.13513 0.23387,-0.78778 0.46359,-1.60135 1.19704,-2.04484 0.30859,-0.1866 0.6762,-0.24592 1.01565,-0.27392 0.31704,-0.0262 0.69277,0.11766 1.01564,0.22754 0.33691,0.11467 0.37603,0.062 0.65484,0.26963 0.28283,0.2106 0.46443,0.42435 0.62375,0.64377 0.10516,0.14482 0.10731,0.28511 0.19076,0.46089 0.26895,0.56647 0.45089,1.28113 0.61343,1.9118 0.0982,0.38106 0.3915,1.33963 0.42415,1.67283 0.023,0.2341 -0.0104,0.39284 0.17698,0.62763 0.0984,0.12326 0.2583,0.19179 0.35772,0.28189 0.1644,0.14899 0.35375,0.43348 0.51852,0.62675 0.39977,0.46889 0.8357,1.06202 1.18285,1.53998 0.12651,0.17419 0.26467,0.18033 0.40645,0.31176 0.42534,0.3943 0.5903,0.69236 0.76518,0.79405 0.0386,-0.13057 0.0759,-0.22564 0.0535,-0.47795 -0.0252,-0.28377 -0.12261,-0.51092 -0.19024,-0.77667 -0.12396,-0.48706 -0.16966,-1.04802 -0.24171,-1.61308 -0.0629,-0.49332 0.0194,-0.98925 -0.0995,-1.43385 -0.0745,-0.27847 -0.11324,-0.60229 -0.11967,-0.89616 -0.004,-0.19565 -0.0225,-0.2891 -0.0941,-0.47795 -0.0856,-0.22563 -0.11924,-0.43367 -0.14554,-0.65718 -0.0701,-0.59562 -0.42357,-1.2514 -0.66825,-1.85206 -0.13808,-0.33895 -0.0291,-0.42992 -0.22325,-0.68382 -0.10749,-0.14055 -0.47173,-0.28437 -0.66092,-0.31366 -0.39489,-0.0611 -0.82871,-0.0851 -1.13513,0.0582 -0.61889,0.28959 -0.62896,0.61447 -1.01564,0.81976 m -65.12066,-0.89602 c 0.46104,0.49401 0.91373,0.7255 1.13513,0.89615 m 62.73096,-0.77667 c 0.0226,0.25671 0.0985,0.40299 0.29032,0.83642 0.36094,0.81551 0.75266,1.73194 0.60584,2.4495 m 3.2859,-3.16643 0.0999,0.001 c 0.31415,0.025 0.55797,0.19857 0.82028,0.53737 0.26452,0.34166 0.595,0.92569 0.72822,1.37324 0.12946,0.43492 0.20493,0.88548 0.38774,1.31435 0.0774,0.18151 0.10811,0.29542 0.11377,0.47795 0.009,0.28751 0.007,0.56998 0.0825,0.83642 0.0414,0.14672 0.0781,0.28059 0.10566,0.41821 0.0355,0.17742 0.0479,0.43842 0.23151,0.68438 0.10899,0.14596 0.19967,0.14162 0.34776,0.27774 0.55643,0.51144 1.26852,1.4879 1.81269,2.11915 0.26502,0.30742 0.54163,0.65724 0.81425,0.97918 0.25079,0.29618 0.71854,0.72938 0.86624,0.90598 0.26522,0.3171 0.3168,0.57934 0.61421,0.94815 0.43563,0.54019 1.08393,1.19352 1.45035,1.73349 0.12631,0.18615 0.10363,0.29617 0.23184,0.45232 0.10353,0.12611 0.22916,0.16813 0.34776,0.27475 0.24907,0.22389 0.49618,0.65199 0.72301,0.91768 1.58922,1.86145 3.08285,3.75265 4.61935,5.64312 0.58235,0.7165 1.24183,1.48422 1.78997,2.21056 0.15449,0.20472 0.19717,0.35354 0.33504,0.51824 0.10185,0.12167 0.20922,0.18123 0.3085,0.27779 0.16292,0.15847 0.43738,0.55774 0.59592,0.75242 0.29695,0.36467 0.46322,0.69553 0.71678,1.01191 0.17663,0.2204 0.29777,0.22016 0.49685,0.4621 0.26808,0.32579 0.54296,0.6109 0.79547,0.93764 0.17904,0.23166 0.31984,0.45916 0.49252,0.69987 0.13526,0.18856 0.27267,0.33335 0.39409,0.53769 0.18514,0.31159 0.28498,0.55174 0.28923,0.89616 0.003,0.27751 0.0114,0.47754 -0.0443,0.71693 -0.12463,0.53508 -0.3081,1.04918 -0.41872,1.61308 -0.0965,0.49169 -0.0204,0.62631 -0.2841,0.8601 -0.12707,0.11266 -0.75178,0.0613 -0.92539,-0.01 -0.3027,-0.12359 -0.81031,-0.6033 -1.07543,-0.84896 -0.23832,-0.22081 -0.50849,-0.40793 -0.54411,-0.54479 -0.063,-0.2422 0.0381,-0.23832 0.009,-0.55747 -0.0257,-0.28009 0.13892,-0.93199 0.16674,-1.22926 0.0384,-0.4102 -0.0349,-0.94067 -0.19288,-1.31437 -0.12937,-0.30607 -0.14067,-0.39991 -0.27489,-0.65607 -0.11452,-0.21856 -0.32828,-0.34739 -0.51588,-0.56526 -0.91357,-1.06095 -1.95994,-2.39086 -2.82658,-3.43868 -0.10896,-0.13175 -0.5079,-0.68637 -0.54849,-0.77902 -0.0453,-0.10339 -0.0263,-0.18528 -0.1471,-0.34966 -0.1251,-0.17022 -0.36536,-0.27718 -0.44277,-0.33472 -0.27269,-0.20272 -0.79501,-0.80255 -1.12107,-1.22503 -0.42321,-0.54834 -0.89519,-1.05079 -1.32313,-1.61202 -0.14772,-0.19374 -0.33397,-0.35945 -0.47795,-0.54202 -0.13283,-0.16844 -0.21667,-0.30647 -0.36164,-0.47472 -0.1301,-0.15101 -0.22048,-0.26316 -0.3486,-0.41287 -0.34189,-0.39952 -0.7249,-0.86148 -1.04021,-1.26001 -0.34572,-0.43694 -0.77116,-0.86709 -1.12231,-1.31432 -0.22932,-0.29206 -0.35602,-0.57122 -0.51073,-0.75873 -0.1598,-0.19369 -0.2594,-0.21696 -0.45477,-0.41595 -0.83111,-0.84655 -1.82929,-2.06032 -2.49513,-3.01757 -0.30016,-0.43153 -0.65624,-1.22071 -0.66193,-1.72238 -0.003,-0.29182 -0.0589,-0.41358 -0.12193,-0.71692 -0.0509,-0.24479 -0.11908,-0.98985 -0.11677,-1.13513 0.004,-0.25483 0.0585,-0.36423 0.11922,-0.47795 m -1.61309,-5.19771 c 0.39407,-0.36545 0.64319,-0.36839 1.19488,-0.3675 0.36205,4.6e-4 0.72115,0.0723 1.07539,0.14438 0.24777,0.0504 0.53429,0.18629 0.70032,0.35814 0.20006,0.20706 0.15106,0.25088 0.30384,0.48777 0.16897,0.26199 0.59824,1.15267 0.69909,1.46824 0.0413,0.12906 0.047,0.22489 0.1015,0.35846 0.0897,0.21978 0.13796,0.26529 0.16056,0.47795 0.0233,0.21873 -0.003,0.276 0.0932,0.47795 0.10027,0.21076 0.14051,0.23602 0.15088,0.47795 0.0128,0.29892 -0.009,0.4241 0.10363,0.71693 0.10286,0.26686 0.12145,0.45485 0.1342,0.71692 0.008,0.17229 0.008,0.31824 0.0422,0.47795 0.0962,0.4509 0.13634,0.69638 0.22994,1.13514 0.11001,0.51563 0.2767,1.04216 0.37257,1.49359 0.0928,0.43711 0.16592,0.67115 0.0745,0.89616 m -34.4124,3.88334 c -0.0277,-0.16357 -0.0201,-0.29818 -0.14932,-0.52165 -0.0625,-0.10812 -0.18235,-0.1968 -0.31467,-0.13087 -0.14797,0.0737 -0.132,0.23147 -0.10344,0.35265 0.10055,0.42674 0.37762,0.24538 0.62717,0.37031 0.30285,0.15162 0.28935,0.24145 0.59743,0.52077 0.17129,0.15529 0.35573,0.27065 0.53682,0.42047 0.72265,0.59785 1.48192,1.33619 2.20882,1.93098 0.15641,0.12799 0.24462,0.2504 0.38345,0.38059 0.13815,0.12956 0.30565,0.20812 0.45554,0.33361 0.43988,0.36826 0.93533,0.77698 1.37176,1.16616 0.43248,0.38566 0.83796,0.81838 1.28421,1.13283 0.28683,0.20211 0.48808,0.37916 0.80917,0.63597 0.32925,0.26335 0.54338,0.54087 0.80386,0.78686 0.33579,0.3171 0.78005,0.58074 1.14233,0.88329 0.25704,0.21467 0.45494,0.44815 0.67534,0.64557 0.19394,0.17372 0.34197,0.14867 0.51073,0.41341 0.21023,0.32981 -0.002,0.39789 -0.13935,0.59647 -0.12007,0.17399 -0.11965,0.24862 -0.26945,0.36722 -0.2126,0.16832 -0.33314,0.0967 -0.56734,0.30361 -0.17602,0.15551 -0.39426,0.42789 -0.54673,0.64358 -0.14781,0.20908 -0.21794,0.39336 -0.26732,0.65718 -0.0343,0.18298 -0.0397,0.30851 -0.10451,0.47795 -0.0712,0.18632 -0.0885,0.25346 -0.10662,0.41821 -0.0118,0.10749 -0.11303,0.71892 -0.15324,0.83641 -0.13871,0.40527 -0.20288,0.56818 -0.008,0.80128 0.0797,0.0954 0.33744,0.18675 0.46431,0.2854 0.45921,0.35708 0.79329,0.67842 1.24447,1.0375 0.50843,0.40462 0.98138,0.86238 1.50374,1.23161 0.26866,0.18991 0.47734,0.40211 0.73398,0.62085 0.16315,0.13906 0.28733,0.2082 0.46089,0.32016 0.33979,0.21921 0.59396,0.40693 0.9559,0.42268 0.46607,0.0203 0.81116,-0.14664 0.9559,-0.29844 0.34921,0.18636 0.75404,0.21936 1.13403,-0.41844 0.18758,-0.31487 0.29961,-0.56823 0.3486,-0.95567 0.0377,-0.2978 0.0452,-0.42039 0.13045,-0.59744 0.28094,0.15904 0.43221,0.20999 0.77667,0.53535 0.22674,0.21414 1.04723,0.87327 1.37411,0.93819 0.22401,0.0445 0.54813,0.0175 0.83641,0.0118 0.22136,-0.005 0.32911,0.0217 0.47795,-0.01 0.20341,-0.0429 0.56468,-0.31159 0.68622,-0.57954 0.12161,-0.26809 0.0774,-0.43155 0.33293,-0.44753 0.1439,-0.009 0.30444,0.0911 0.4147,0.1637 0.19869,0.13084 0.82037,0.62459 1.07539,0.64376 0.27842,0.0209 0.38611,0.12203 0.65368,0.0137 0.27734,-0.11223 0.25784,-0.39665 0.37649,-0.67235 0.0814,-0.18919 0.26361,-0.65236 0.27907,-0.83641 0.017,-0.20257 0.0369,-0.30715 0.0891,-0.53769 0.1004,-0.44334 0.0355,-0.71942 0.0355,-1.25462 -1e-5,-0.25974 0.005,-0.39893 -0.0353,-0.65718 -0.0384,-0.24643 -0.0453,-0.51666 -0.16337,-0.75132 -0.21851,-0.43448 -0.56296,-0.79791 -0.8767,-1.15034 -0.15376,-0.17272 -0.26402,-0.29797 -0.43075,-0.46302 -0.26335,-0.26069 -0.72192,-0.69263 -1.00315,-0.8956 -0.15671,-0.11311 -0.30997,-0.11525 -0.45296,-0.23999 -0.14967,-0.13056 -0.27311,-0.42111 -0.46947,-0.6103 -0.30035,-0.28938 -0.62548,-0.50893 -0.92815,-0.79833 -0.33165,-0.31712 -0.71291,-0.65174 -1.04252,-0.94664 -0.16096,-0.14401 -0.28924,-0.23624 -0.45255,-0.3757 -0.54511,-0.46553 -1.06043,-1.04329 -1.62322,-1.47631 -0.19162,-0.14743 -0.34684,-0.23959 -0.5252,-0.38501 -0.46755,-0.38121 -0.85493,-0.85804 -1.32206,-1.25108 -0.18305,-0.15401 -0.35275,-0.22256 -0.51294,-0.36441 -0.14917,-0.13208 -0.19577,-0.24674 -0.32915,-0.37316 -0.12219,-0.11581 -0.27709,-0.20463 -0.40483,-0.32168 -0.32512,-0.29789 -0.6278,-0.59986 -0.95526,-0.87259 -0.19901,-0.16576 -0.25225,-0.20697 -0.41821,-0.35036 -0.14527,-0.12551 -0.22544,-0.242 -0.3668,-0.3592 -0.14592,-0.12097 -0.26118,-0.14271 -0.39649,-0.25128 -0.13925,-0.11173 -0.23663,-0.28885 -0.36423,-0.41203 -0.37591,-0.36288 -1.1688,-1.06823 -1.56394,-1.39619 -0.38081,-0.31606 -0.43583,-0.23651 -0.7137,-0.61915 -0.13784,-0.18981 -0.38116,-0.79411 -0.41074,-0.92944 -0.0692,-0.31657 -0.0763,-0.42794 -0.22957,-1.07539 -0.13604,-0.57474 -0.22488,-1.22514 -0.40124,-1.79231 -0.15297,-0.49192 -0.3286,-1.17081 -0.39022,-1.67282 -0.0293,-0.23887 -0.0644,-0.34478 -0.12936,-0.59744 -0.16886,-0.65701 -0.31271,-1.24402 -0.49611,-1.85206 -0.17966,-0.59564 -0.34687,-1.06266 -0.64391,-1.67278 -0.19409,-0.39868 -0.49724,-0.85717 -0.82806,-1.19464 -0.26332,-0.2686 -0.63163,-0.4717 -0.94857,-0.65078 -0.15616,-0.0882 -0.3391,-0.28674 -0.24419,-0.47578 0.058,-0.11555 0.11708,-0.15436 0.29794,-0.17836 0.11597,-0.0154 0.33979,0.022 0.47772,0.068 0.60333,0.20106 0.7914,0.35991 1.25457,0.69834 0.19168,0.14007 0.41306,0.31576 0.58319,0.50483 0.13611,0.15126 0.20963,0.27071 0.32684,0.42636 0.27381,0.36364 0.52888,0.9362 0.71826,1.33972 0.0719,0.15317 0.0906,0.24897 0.10437,0.41821 0.0148,0.18243 0.0321,0.24308 0.11944,0.41821 0.079,0.15838 0.10202,0.23552 0.12096,0.4182 0.0344,0.3312 0.18757,0.76101 0.30827,1.07539 0.078,0.20315 0.1311,0.28159 0.15719,0.47795 0.0334,0.25144 0.0921,0.46096 0.19025,0.59744 m -0.35846,4.89898 c -0.21357,-0.0262 -0.3492,-0.0469 -0.59744,-0.2097 -0.16343,-0.10719 -0.48344,-0.40208 -0.65718,-0.56185 -0.52305,-0.48097 -1.50654,-1.28333 -2.00593,-1.73284 -0.28562,-0.25709 -0.49832,-0.22948 -0.70029,-0.49142 -0.0903,-0.11714 -0.12001,-0.25109 -0.14507,-0.34984 -0.0742,-0.29224 -0.23922,-0.67149 -0.29273,-0.9559 -0.0216,-0.11466 -0.0101,-0.23363 -0.0259,-0.41733 -0.0167,-0.19457 -0.0787,-0.23216 -0.16858,-0.42922 -0.0865,-0.18945 -0.0544,-0.30667 -0.0725,-0.52755 -0.0459,-0.55866 -0.27513,-1.16732 -0.43213,-1.67283 -0.062,-0.19963 -0.11964,-0.39159 -0.18638,-0.59744 -0.0716,-0.22073 -0.11198,-0.32341 -0.21592,-0.53769 -0.10932,-0.22535 -0.20834,-0.37777 -0.31034,-0.59744 -0.18515,-0.39874 -0.5821,-0.71697 -0.48528,-1.07516 0.0886,-0.3278 0.76457,-0.7443 1.15767,-0.817 0.31058,-0.0574 0.50058,-0.0623 0.71693,-0.0794 m 28.2588,0.0597 c 0.68884,-0.11413 1.54147,1.12063 1.91923,2.15078 0.41791,1.13963 0.73891,3.25424 1.00822,3.94309 m -35.42806,6.1536 -0.18647,-0.47795 -0.18504,-0.53769 -0.16595,-0.41821 -0.29812,-1.07539 -0.14457,-0.53769 -0.10058,-0.89615 -0.10939,-0.77667 -0.17402,-0.89616 -0.10198,-0.53769 -0.0923,-0.47796 -0.15618,-0.53769 -0.18283,-0.65718 -0.4023,-1.0055 -0.80926,-1.17967 -0.57476,-0.80174 -0.19956,-0.35874 c 0.36004,-0.0897 0.55348,0.0858 0.9559,0.17983 0.21889,0.0512 0.32514,0.0503 0.52755,0.2091 0.17576,0.13794 0.35751,0.34823 0.50543,0.52428 0.15182,0.18071 0.26297,0.32121 0.40935,0.52064 0.14244,0.19405 0.22177,0.37112 0.32776,0.59744 0.20123,0.4297 0.32828,0.92268 0.48311,1.3741 0.0785,0.22874 0.24177,0.7641 0.25604,0.9559 0.0166,0.22277 0.0427,0.27249 0.11852,0.47795 0.0799,0.2166 0.11314,0.41487 0.11958,0.65719 0.006,0.22822 -0.005,0.32914 0.0708,0.53769 0.0795,0.2191 0.11909,0.37953 0.17135,0.59744 0.0396,0.16509 0.0742,0.39347 0.21178,0.59209 0.24138,0.34843 0.40385,0.37274 0.80129,0.71573 0.2653,0.22896 0.26892,0.25913 0.45932,0.472 0.16489,0.18434 0.29789,0.15406 0.48049,0.32928 0.14575,0.13987 0.13828,0.23743 0.28009,0.36971 0.19584,0.18269 0.30683,0.18365 0.57268,0.35408 0.38218,0.24501 0.52005,0.36387 0.89616,0.21404 -0.0587,-0.19792 -0.1233,-0.30758 -0.22865,-0.9559 -0.0312,-0.19214 -0.0512,-0.30493 -0.12502,-0.47795 -0.10437,-0.24483 -0.11792,-0.43715 -0.1589,-0.71692 -0.0298,-0.20317 -0.0561,-0.33445 -0.12617,-0.5377 -0.0887,-0.25718 -0.0745,-0.31203 -0.0784,-0.53769 -0.004,-0.24573 -0.0425,-0.57762 -0.12941,-0.83642 -0.0673,-0.20038 -0.0979,-0.25919 -0.10851,-0.47795 -0.0153,-0.31363 -0.0492,-0.52398 -0.12862,-0.83641 -0.0465,-0.18297 -0.0446,-0.29392 -0.0525,-0.47795 -0.009,-0.21266 -0.0711,-0.34173 -0.14268,-0.53769 -0.19365,-0.53054 -0.19577,-0.71118 -0.35956,-1.31437 -0.1031,-0.37966 -0.45708,-0.99822 -0.71186,-1.31966 -0.18337,-0.23135 -0.41158,-0.48787 -0.63454,-0.68715 -0.22181,-0.19823 -0.42237,-0.36281 -0.37322,-0.61841 0.043,-0.22356 0.25513,-0.24401 0.43061,-0.23031 0.64622,0.0504 1.08168,0.55255 1.43385,0.64501 m -40.56632,-0.59584 c -0.0689,0.1292 -0.0733,0.43927 -0.0606,0.95591 0.008,0.32969 0.024,0.69133 0.12101,1.01564 0.0924,0.30911 0.11712,0.42884 0.1188,0.77667 0.002,0.4438 0.1136,0.87114 0.17605,1.37411 0.0336,0.27077 0.0596,0.39883 0.0627,0.65718 0.002,0.19334 -0.005,0.28804 0.0173,0.47795 0.02,0.16986 0.034,0.26156 0.0427,0.4182 0.0108,0.19423 0.0451,0.29834 0.1093,0.47795 0.0615,0.17204 0.0686,0.28008 0.0698,0.47796 10e-4,0.23907 -0.0123,0.36208 0.0102,0.59743 0.0279,0.292 0.12583,0.62676 0.15807,0.89616 0.0395,0.32997 0.041,0.98346 0.10303,1.31436 0.0391,0.20835 0.0545,0.3264 0.10243,0.53769 0.075,0.33055 0.0419,0.4883 0.0445,0.89616 0.003,0.41406 0.15067,0.60509 0.17706,1.07539 0.0174,0.30966 0.0613,0.68217 0.0619,0.9559 3.3e-4,0.1644 -0.003,0.25492 0.0171,0.41821 0.0652,0.52425 0.22185,0.81663 0.22188,1.31436 2e-5,0.21979 -0.0124,0.41143 0.0272,0.59744 0.12701,0.59586 -0.0843,0.46013 0.21178,1.07539 m -5.07823,-16.25031 0.008,0.77667 0.10197,0.53769 0.11852,0.71693 0.0809,1.13513 0.16817,0.77667 0.0257,0.9559 0.1536,1.31436 0.19928,1.37411 0.15923,1.19488 m 38.17626,-7.64721 c 0.0662,-0.0795 0.12166,-0.15812 0.23216,-0.29461 0.10111,-0.12491 0.30974,-0.28696 0.48241,-0.3805 0.9371,-0.50765 1.34424,-0.34053 1.9739,-0.34053 m -4.12232,1.01564 c -0.19917,0.12461 -0.35407,-0.08 -0.47795,-0.23897 l 0.41821,-0.11949 M 71.28665,163.2679 c 0.0181,0.0762 0.0609,0.18014 0.0578,0.4183 -0.003,0.20954 -0.0608,0.42752 -0.24829,0.53595 -0.26168,0.1513 -0.49413,-0.006 -0.71093,-0.15605 -0.13294,-0.0921 -0.294,-0.18196 -0.31546,-0.32301 -0.0466,-0.30603 0.28593,-0.27171 0.67922,-0.35201 0.3099,-0.0633 0.38264,-0.20104 0.53124,-0.59882 0.15616,-0.41802 0.27745,-0.24094 0.30752,-0.77897 0.0125,-0.22387 0.0711,-0.38788 0.16015,-0.59744 0.0926,-0.21777 0.14357,-0.37734 0.25672,-0.59744 0.46634,-0.90713 1.0761,-1.47943 1.79042,-2.21052 1.2122,-1.24064 2.56148,-2.45216 3.73035,-3.76473 0.37331,-0.41921 0.77269,-0.80607 1.16804,-1.19931 0.14723,-0.14643 0.33357,-0.34396 0.47832,-0.4897 0.20081,-0.20218 0.1669,-0.24916 0.33238,-0.4532 0.11519,-0.14203 0.34344,-0.26063 0.49979,-0.39474 0.4055,-0.34777 0.7302,-0.74595 1.14021,-1.07972 0.37586,-0.30597 0.70687,-0.78967 1.07119,-1.13665 0.8232,-0.78403 1.60466,-1.62549 2.39422,-2.41506 0.46555,-0.46555 0.85414,-0.85402 1.30989,-1.31966 0.60854,-0.62174 1.24574,-0.94753 1.31884,-1.60778 0.63766,-0.1155 0.8683,-0.61501 1.37645,-1.13426 0.39885,-0.40755 0.78085,-0.79253 1.14095,-1.23037 0.1553,-0.18883 0.23801,-0.35704 0.35458,-0.56282 0.21785,-0.38453 0.30786,-0.6678 0.41904,-1.07539 0.14846,-0.54425 0.25293,-1.20822 0.44983,-1.73257 0.0941,-0.25067 0.16078,-0.47229 0.31038,-0.71692 0.26545,-0.43405 0.59726,-0.93599 1.14648,-1.10415 0.40987,-0.12551 0.65724,-0.14701 1.07538,-0.15047 m -32.50061,0.11949 h 0.11949 m 32.79933,0.29872 0.29872,0.17923 m 28.97572,0.53769 c 0.008,0.35732 0.12432,0.82409 0.1896,1.43385 0.0168,0.15638 0.0523,0.2521 0.0814,0.41821 0.0973,0.55589 0.11028,0.97614 0.19099,1.49359 0.0411,0.26325 0.16178,0.46086 0.18873,0.71693 0.0297,0.28246 -9.2e-4,0.43437 0.0785,0.71693 0.194,0.68882 0.49965,1.63338 0.76519,2.33 0.13445,0.35273 0.0134,0.30955 0.19135,0.64704 0.14178,0.2688 0.51883,0.66713 0.71564,0.87191 0.14343,0.14924 0.28421,0.2953 0.37353,0.4526 0.0536,0.0944 0.0874,0.25129 0.23031,0.39345 0.24174,0.24042 0.25888,0.16031 0.55987,0.48454 0.1741,0.18753 0.29983,0.37297 0.45237,0.55673 0.13792,0.16614 0.26112,0.30356 0.40355,0.4762 0.5436,0.65891 1.1147,1.31066 1.66093,1.97007 0.8714,1.05195 1.75486,2.20081 2.6645,3.21145 0.24423,0.27137 0.26579,0.41595 0.4443,0.63875 0.0939,0.11725 0.17155,0.15501 0.26796,0.28046 0.0932,0.12134 0.12545,0.20871 0.23617,0.32712 0.16356,0.17494 0.27226,0.23556 0.45301,0.4436 0.0741,0.0853 0.47296,0.6647 0.49828,0.71923 0.0416,0.0897 0.0671,0.17828 0.10211,0.35612 0.0359,0.18242 0.12867,0.45623 0.22695,0.59743 0.38622,0.55492 0.87018,1.0734 1.15278,1.25462 0.25012,-0.43766 0.025,-0.47419 -0.37557,-0.96604 -0.20921,-0.25692 -0.4827,-0.61955 -0.64031,-0.71531 -0.0667,-0.0405 -0.22414,-0.0827 -0.41793,-0.14521 -0.16327,-0.0526 -0.23128,-0.0846 -0.3313,-0.17453 -0.0909,-0.0817 -0.1723,-0.19742 -0.27065,-0.28655 -0.50248,-0.45536 -0.82647,-0.45336 -1.25015,-0.75929 -0.0605,0.13281 -0.17472,0.35969 -0.24215,0.4526 -0.15199,0.20941 -0.16428,0.19674 -0.26448,0.5033 -0.10746,0.3288 -0.0741,0.72893 -0.1524,0.9559 -0.0642,0.18608 -0.0989,0.28734 -0.12985,0.41821 -0.12961,0.54727 -0.27064,0.98441 -0.34625,1.3741 M 62.74335,138.4145 c 0.0817,0.0738 0.17024,0.15022 0.40124,0.32808 0.11599,0.0893 0.25454,0.19407 0.3763,0.28946 0.62907,0.49276 0.99539,0.95566 1.7317,1.11503 m -10.15644,-1.4936 c 0.008,0.39533 0.0779,0.75939 0.13654,1.25462 0.0184,0.15513 0.034,0.28384 0.0448,0.47795 0.0166,0.29809 0.0347,0.64127 0.11737,0.9559 0.076,0.28937 0.10705,0.63179 0.11884,0.9559 0.0133,0.36561 0.0234,0.75688 0.1028,1.07539 0.0883,0.35432 0.11528,0.79924 0.13452,1.19487 0.0162,0.33429 0.11759,0.65568 0.18545,1.01565 0.048,0.25478 0.0554,0.38237 0.0558,0.65718 4.4e-4,0.27277 -0.0223,0.59643 0.0224,0.83641 0.032,0.17173 0.0696,0.24526 0.0932,0.41821 0.0276,0.20159 0.0375,0.24545 0.0591,0.47795 0.0426,0.4583 0.0642,0.57945 0.0642,1.07539 m 64.82199,-8.54336 c -0.23333,0.29201 -0.23447,0.69819 -0.64893,1.31436 -0.41314,0.61422 -0.89827,1.0736 -1.44211,1.55634 -1.28239,1.13834 -2.75287,2.17696 -4.0037,3.34781 -0.88041,0.82412 -1.84163,1.52785 -2.74734,2.29134 -0.19114,0.16112 -0.44761,0.40561 -0.55502,0.52819 -0.0875,0.0998 -0.16944,0.38318 -0.52009,0.20159 -0.1861,-0.0964 -0.38585,-0.41266 -0.37326,-0.517 0.03,-0.24849 0.11438,-0.26375 0.4336,-0.54553 1.13096,-0.99831 2.51739,-2.02521 3.64349,-3.03314 1.29097,-1.1555 2.86555,-2.16802 4.11997,-3.35787 0.27914,-0.26477 0.39169,-0.4275 0.5867,-0.7107 0.2292,-0.33285 0.30668,-0.61718 0.43397,-0.9559 0.10945,-0.29128 0.11456,-0.4632 0.20242,-0.77663 0.0653,-0.23308 0.30627,-0.48373 0.56895,-0.35569 0.17176,0.0837 0.26154,0.26442 0.27843,0.41539 0.0145,0.12975 -0.0427,0.31411 0.0527,0.5105 0.0826,0.17016 0.16696,0.24059 0.19135,0.32914 0.0834,0.30291 0.0685,0.54724 0.2198,0.95267 0.13083,0.35051 0.37154,0.79346 0.52724,1.13491 0.0557,0.12218 0.065,0.20382 0.1576,0.33333 0.0862,0.12059 0.2024,0.21079 0.2995,0.32495 0.17283,0.2032 0.14534,0.32745 0.27798,0.49353 0.099,0.12397 0.20103,0.1785 0.3161,0.30043 0.2081,0.22053 0.51543,0.5961 0.42885,0.81802 -0.0788,0.2019 -0.25626,0.31215 -0.44227,0.46592 -0.49693,0.41076 -1.03824,0.79816 -1.52798,1.21963 -1.34253,1.15537 -2.69986,2.26161 -4.01989,3.44181 -0.29942,0.26769 -0.56869,0.51272 -0.8791,0.7728 -0.38569,0.32314 -1.33166,1.1264 -1.61276,1.39416 -0.1867,0.17782 -0.27273,0.22363 -0.28853,0.41198 -0.009,0.10877 0.556,0.56644 0.664,0.67055 0.64003,0.61699 1.61734,1.99474 2.55165,2.13828 0.11347,0.70387 1.2421,1.21417 1.70532,1.63881 0.24909,0.22834 0.6265,0.58114 0.8466,0.778 0.36781,0.32896 0.85316,0.69018 1.18423,1.00647 0.31764,0.30347 0.63948,0.68722 0.99283,1.04759 0.18633,0.19004 0.46164,0.49745 0.55636,0.72684 0.0624,0.15103 0.0846,0.24852 0.15964,0.41821 0.24235,0.54821 0.12516,1.19942 0.11207,1.73256 -0.0118,0.48192 -0.003,0.84007 -0.1305,1.19488 -0.0778,0.21723 -0.0875,0.2617 -0.11189,0.47795 -0.0296,0.2632 -0.27529,0.86337 -0.44365,1.07004 -0.1731,0.21247 -0.38669,0.42293 -0.62943,0.46988 -0.27521,0.0532 -0.42633,0.0256 -0.53746,0.0134 m 2.92744,-25.51059 c 0.0463,0.19434 -0.0705,0.39328 0.23897,0.9559 l -0.11948,-0.0597 m 0.0597,0.11948 c 7e-5,0.67703 0.12212,1.39352 0.47795,1.91181 0.45936,-0.41936 0.74282,-0.94083 0.9559,-1.25462 m -61.2971,19.59595 0.0904,-0.0926 0.0936,-0.0445 c 0.30812,0.006 0.29443,0.37308 0.29204,0.73448 -10e-4,0.18987 -0.1052,0.33543 0.002,0.51267 0.0766,0.12656 0.23378,0.16431 0.35841,0.18227 0.31676,0.0457 0.5772,-0.11058 0.64829,0.32311 0.0394,0.24033 0.0636,0.99684 0.13502,1.31196 0.0621,0.27416 0.0983,0.49929 0.11045,0.77667 0.015,0.34231 -0.005,0.68221 0.0623,0.9559 0.05,0.20156 0.10884,0.38886 0.10851,0.59744 -4.2e-4,0.27427 -0.19197,0.4533 0.0865,0.68087 0.16979,0.13877 0.66628,0.0474 0.88015,0.002 0.12731,-0.0272 0.22424,-0.0576 0.35824,-0.0443 0.17124,0.017 0.2373,0.081 0.38404,0.19057 0.24127,0.18019 0.31544,0.19112 0.51234,0.27774 0.14453,0.0636 0.26763,0.14977 0.41821,0.17937 0.30717,0.0604 0.28327,-0.0943 0.65718,0.0751 0.68682,0.31117 1.62641,1.31489 2.26939,1.81306 0.18611,0.14419 0.38568,0.33581 0.59919,0.39525 0.29761,0.0828 0.50695,0.10514 0.75915,-0.0755 0.20104,-0.14401 0.18285,-0.31053 0.19583,-0.44702 0.0133,-0.13946 0.0601,-0.62586 0.0598,-0.83637 -3.2e-4,-0.25733 -0.0236,-0.38368 -0.0496,-0.65718 -0.0455,-0.47795 -0.0304,-0.73376 -0.0798,-1.19488 -0.0278,-0.25982 -0.0494,-0.39319 -0.0498,-0.65717 -4.3e-4,-0.27265 -0.001,-0.52412 5e-5,-0.77667 0.001,-0.27861 0.0537,-0.58382 0.0597,-0.83642 0.005,-0.23 0.029,-0.50256 0.1064,-0.77667 0.18328,-0.64946 0.49322,-1.33927 0.82506,-1.9118 0.81354,-1.4036 2.22106,-2.29897 3.2423,-3.52465 0.142,-0.17043 0.29476,-0.2655 0.45767,-0.42074 0.37618,-0.35846 0.7243,-0.7616 1.10397,-1.13195 0.23787,-0.23204 0.45373,-0.42802 0.69305,-0.66981 0.20672,-0.20887 0.35544,-0.37454 0.56244,-0.58573 0.99411,-1.01423 2.13112,-2.05534 3.1656,-3.04924 1.93403,-1.85817 3.79323,-3.79848 5.7354,-5.61679 1.03738,-0.97122 2.26023,-1.97682 2.94344,-3.10345 0.28549,-0.47077 0.54706,-1.81589 0.9452,-2.05148 0.40176,-0.23772 0.54971,0.35195 0.60505,0.55789 0.0816,0.30352 0.003,1.05431 0.10792,1.24212 0.18152,0.32393 0.22676,0.18343 0.40285,0.55042 0.25612,0.53378 0.30547,0.99964 0.54562,1.28159 0.15828,0.18582 0.2932,0.18611 0.43831,0.39216 0.14749,0.20944 0.13912,0.39398 0.28069,0.54594 0.15435,0.16567 0.22906,0.0996 0.44642,0.28568 0.32426,0.27759 0.24132,0.44327 0.51667,0.50713 0.31219,0.0724 0.21976,0.007 0.59421,-0.20477 m 29.1555,-4.48078 c -0.14178,0.14187 -0.2829,0.24837 -0.55291,0.59743 -0.28292,0.36575 -0.79288,0.55674 -0.61901,1.01569 0.10185,0.26884 0.2438,0.43619 0.40572,0.65714 0.44141,0.60235 0.95398,1.38298 1.4663,1.97154 0.19313,0.22188 0.34322,0.36389 0.54806,0.56305 0.22174,0.21558 0.24027,0.34543 0.46145,0.63183 1.49103,1.9307 3.08519,3.81903 4.64945,5.67565 0.1829,0.21708 0.577,0.67022 0.75132,0.81673 0.18701,0.15718 0.27689,0.20837 0.53682,0.25866 0.063,0.40703 0.29079,0.49362 0.59744,0.65719 -0.0318,0.11734 -0.13649,0.25383 0.1595,0.65718 0.20989,0.28602 0.27304,0.31241 0.47196,0.52036 0.11519,0.12042 0.19417,0.25924 0.27728,0.37561 0.12736,0.17836 0.41937,0.52791 0.57291,0.71734 0.15043,0.18559 0.27381,0.32867 0.42484,0.5022 0.47681,0.54782 0.89585,1.16255 1.3949,1.70362 0.16861,0.18279 0.4551,0.35258 0.59818,0.50966 0.12037,0.13215 0.16125,0.21988 0.23644,0.39097 0.13564,0.30863 0.29408,0.88364 0.3344,1.25461 0.0857,0.78843 -0.28231,1.44828 -0.34247,2.15078 -0.0254,0.29682 0.0175,0.36627 -0.0926,0.59744 -0.0782,0.16414 -0.11784,0.25818 -0.1666,0.4182 -0.0582,0.19101 -0.26141,0.60414 -0.41706,0.71642 -0.26415,0.19055 -0.49605,0.16326 -0.76325,0.16983 -0.34607,0.008 -0.9412,-9.2e-4 -1.31349,-0.15554 -0.32653,-0.13579 -0.4639,-0.29735 -0.74316,-0.6121 -0.17563,-0.19794 -0.29844,-0.3283 -0.47472,-0.52663 -0.55143,-0.6204 -1.16622,-1.32077 -1.6726,-1.9832 -0.16537,-0.21634 -0.34533,-0.39017 -0.51583,-0.59684 -0.21555,-0.26127 -0.44253,-0.50928 -0.6571,-0.77579 -0.30682,-0.38111 -0.76265,-0.84374 -1.02523,-1.20267 -0.18519,-0.25316 -0.23845,-0.29872 -0.46845,-0.39769 -0.1764,-0.0759 -0.30375,-0.0523 -0.45071,-0.16794 -0.26221,-0.20643 -0.43191,-0.45019 -0.80386,-0.54512 -0.1588,-0.0405 -0.25261,-0.0157 -0.41821,-0.017 -0.16803,-0.001 -0.2588,-0.0113 -0.41821,-0.051 -0.13702,-0.0342 -0.22759,-0.0558 -0.35846,-0.0663 -0.24383,-0.0197 -0.48516,-0.005 -0.5973,-0.19906 -0.12808,-0.22125 0.0757,-0.49796 0.15853,-0.75855 0.0921,-0.28956 0.0616,-0.52961 0.11101,-0.77667 0.0961,-0.48019 0.18962,-0.93604 0.27691,-1.43385 0.0432,-0.2463 0.3215,-0.69876 0.0745,-0.8945 -0.0961,-0.0762 -0.21351,-0.0585 -0.32246,-0.0613 -0.12228,-0.003 -0.93967,-0.0563 -1.07535,-0.0563 -0.23312,-1e-4 -0.40758,0.0506 -0.53603,0.29637 -0.14485,0.27711 -0.13471,0.6602 -0.23805,1.01449 -0.10144,0.34773 -0.15165,0.81202 -0.0759,1.07004 0.0539,0.18345 0.23619,0.29502 0.37206,0.42591 0.47346,0.45607 0.84806,0.80819 1.07535,1.07303 m -16.19037,-9.37987 c 0.21699,0.26645 0.46429,0.50585 0.83642,0.84084 0.12355,0.11122 0.39053,0.3305 0.53769,0.3385 0.24308,0.0132 0.28587,-0.0903 0.46089,-0.2469 0.14054,-0.12578 0.78444,-0.67404 0.99002,-0.85034 1.87319,-1.60635 3.78442,-3.19667 5.66394,-4.81721 0.66451,-0.57294 1.69659,-1.53819 2.20518,-1.89645 m 3.16642,0.35846 c 0.004,0.29892 0.0848,0.48557 0.29871,0.71693 m -23.12083,-0.35846 c 1.1e-4,0.16931 -0.005,0.29833 0.0344,0.59743 0.0318,0.24123 0.0133,0.39261 0.10059,0.59744 0.0694,0.16286 0.12798,0.24853 0.15692,0.41821 0.0296,0.17369 0.0395,0.25244 0.11944,0.41821 0.28603,0.59264 0.50614,1.26464 1.02786,1.70537 0.21236,0.17939 0.36487,0.32009 0.59209,0.40774 0.30751,0.11862 0.47967,-0.0934 0.59744,-0.12525 0.12606,-0.0341 0.99108,-0.0533 1.19487,-0.0849 0.22542,-0.035 0.27452,-0.11112 0.34888,-0.16964 0.0762,-0.06 0.1278,-0.12093 0.18882,-0.17996 m 15.89184,-3.58463 c -0.49933,0.43486 -2.19825,1.85051 -2.92657,2.45516 -0.63719,0.52899 -1.26878,1.07502 -1.91267,1.59575 -1.0831,0.87591 -2.02436,1.83686 -3.10668,2.69298 -0.22744,0.17991 -0.70747,0.5632 -0.85319,0.72947 -0.13064,0.14905 -0.2839,0.23564 -0.21704,0.47168 0.0864,0.3048 0.68942,0.68994 1.01049,0.89704 m 13.32286,-8.66285 c 0.51841,0.73328 1.19165,1.53337 1.96619,2.56875 0.43985,0.58797 0.74267,0.84723 0.90151,1.19511 -0.32378,0.13641 -0.51906,0.0705 -0.89616,0.0606 -0.25598,-0.007 -0.37428,-0.0148 -0.59744,-0.0438 -0.64959,-0.0844 -0.95792,-0.11542 -1.25462,0.0429 M 94.28858,144.2696 c -0.10575,0.0954 -0.23199,0.1682 -0.36924,0.42056 -0.24914,0.45808 -0.50372,0.88018 -0.87371,1.27762 -1.21836,1.30874 -2.5205,2.48355 -3.77552,3.7385 -1.64788,1.64778 -3.30393,3.21763 -4.96408,4.83478 -0.82127,0.79999 -1.62853,1.68979 -2.50412,2.47102 -0.44706,0.39888 -0.91206,0.83252 -1.30879,1.23991 -0.18051,0.18536 -0.28565,0.3388 -0.48417,0.51829 -0.40043,0.36206 -0.8572,0.74797 -1.2289,1.16855 -0.76243,0.86272 -1.66961,1.55997 -2.43944,2.47582 -0.22056,0.26239 -0.41795,0.48421 -0.58596,0.75104 -0.30521,0.48472 -0.35779,0.89724 -0.57928,1.41679 -0.0993,0.23296 -0.11879,0.37101 -0.12428,0.59744 -0.008,0.34223 -0.096,0.5479 -0.084,0.89616 0.0204,0.59131 -0.0561,0.97709 0.0389,1.55333 0.0546,0.33104 0.0107,0.49338 0.19523,0.69189 0.20499,0.22059 0.31719,0.13322 0.54134,0.34035 0.2336,0.21587 0.60837,0.62726 0.84388,0.87505 0.14043,0.14775 0.25424,0.28914 0.44153,0.37556 0.29599,0.13658 0.86659,0.29352 1.06838,0.0556 0.0987,-0.11633 0.0687,-0.24452 0.079,-0.30747 0.0294,-0.17931 0.10168,-0.48829 0.10183,-0.89588 2.4e-4,-0.60426 -0.0546,-1.33664 -0.10934,-1.91181 -0.0694,-0.72955 -0.004,-1.48289 0.084,-2.15077 0.0231,-0.17595 0.0251,-0.28681 0.0254,-0.47795 4.6e-4,-0.38027 -0.0344,-0.5512 0.0835,-0.83641 0.0756,-0.18287 0.29958,-0.79014 0.46186,-1.0133 0.4192,-0.57647 1.10438,-1.06014 1.60538,-1.5903 0.30555,-0.32334 0.57889,-0.59801 0.88597,-0.88602 0.71284,-0.66859 1.43965,-1.41812 2.15082,-2.10095 1.32358,-1.27081 2.64883,-2.69885 3.95858,-3.95853 0.19477,-0.18732 0.31881,-0.28826 0.49708,-0.47098 0.12591,-0.12906 0.22726,-0.23171 0.35109,-0.35086 0.32789,-0.31554 0.77642,-0.76327 1.11379,-1.10434 0.51676,-0.52245 1.08082,-1.04071 1.61708,-1.54739 0.9756,-0.92177 1.91912,-1.86062 2.86794,-2.80943 0.6092,-0.6092 0.99702,-1.04558 1.3741,-1.43385 m 2.8677,-1.85206 c -0.0709,0.0987 -0.34385,0.23837 0,0.71693 0.22028,-0.278 0.21934,-0.30224 0.29872,-0.41821 m -32.02266,4.89899 c 0.65609,-0.20754 1.82392,-0.53695 2.86771,-0.8501 0.17858,-0.0536 0.30622,-0.0655 0.47795,-0.1189 0.17661,-0.0549 0.29203,-0.12252 0.47795,-0.15369 0.26784,-0.0449 0.43703,-0.0917 0.71692,-0.15494 0.19233,-0.0434 0.30682,-0.0641 0.47795,-0.12201 0.16859,-0.0571 0.30241,-0.10642 0.47795,-0.1366 0.29592,-0.0509 0.51944,-0.09 0.77667,-0.18637 0.27915,-0.10454 0.59264,-0.12498 0.89616,-0.20648 0.38212,-0.10261 0.73474,-0.22326 1.13513,-0.27931 0.17649,-0.0247 0.30723,-0.0777 0.47795,-0.13235 0.28078,-0.0898 0.54325,-0.13512 0.83641,-0.22588 0.87392,-0.27057 1.87667,-0.45643 2.80796,-0.63206 0.24928,-0.047 0.48455,-0.0688 0.71693,-0.15143 0.35183,-0.12511 0.68565,-0.1608 1.01564,-0.2175 0.2531,-0.0435 0.45438,-0.10718 0.71692,-0.1595 0.26089,-0.052 0.36986,-0.0764 0.59744,-0.1258 0.26336,-0.0571 0.53001,-0.1264 0.77667,-0.15895 0.74441,-0.0982 1.35331,-0.28486 2.03129,-0.39281 0.52562,-0.0837 1.05732,-0.171 1.55333,-0.3142 0.17114,-0.0494 0.30084,-0.0626 0.47795,-0.0859 0.34141,-0.0449 0.42978,0.0277 0.5377,0.085 m -30.1706,0 v 0.0597 m 41.04396,0.17924 c 0.006,0.18235 0.0512,0.35359 0.14489,0.53765 0.18595,0.36514 0.19524,0.32516 0.57204,0.65722 0.31847,-0.45076 0.36326,-0.58983 0.53769,-0.77667 m 24.31571,-0.35846 c 0.35253,0.36021 0.7916,0.79357 1.13513,0.83641 m -0.65718,-0.23897 c -0.26703,0.26483 -1.06956,0.92952 -1.43061,1.31441 -0.12666,0.13501 -0.20761,0.30052 -0.37719,0.42756 -0.12712,0.0952 -0.2519,0.12231 -0.34297,0.17467 -0.13633,0.0784 -0.43464,0.30364 -0.59744,0.43577 -0.48802,0.39607 -1.0878,0.95719 -1.55334,1.41057 -0.77444,0.75422 -1.62846,1.40957 -2.44949,2.11722 -0.46825,0.40357 -1.16967,0.98585 -1.61221,1.37438 -0.28228,0.24783 -0.33939,0.35477 -0.41908,0.45236 m -17.08672,-7.46797 c 0.12214,0.61685 0.28657,1.13807 0.67429,1.31164 0.18192,0.0814 0.36634,-0.10187 0.45822,-0.18715 0.36152,-0.33558 0.54353,-0.75569 0.6598,-0.94526 m -1.25461,0.11949 -0.23898,0.23898 m 2.92745,0.29872 c 0.13124,0.17328 0.3995,0.46898 0.59928,0.83641 0.0728,0.13397 0.0996,0.27385 0.20325,0.37344 0.13597,0.13071 0.21958,0.1511 0.38999,0.26779 0.39205,0.26848 1.18505,0.98764 1.53541,1.33727 0.14435,0.14406 0.25845,0.30637 0.40594,0.44144 0.17106,0.15666 0.38133,0.2254 0.57024,0.3687 0.4361,0.33081 1.02502,0.88818 1.42823,1.28412 0.17612,0.17296 0.2124,0.32036 0.39216,0.44448 0.62339,0.43047 1.2132,0.88475 1.8214,1.46728 0.17854,0.171 0.22428,0.28953 0.38345,0.44748 0.16503,0.16376 0.27302,0.15799 0.4389,0.27502 0.14612,0.10309 0.17692,0.2845 0.19587,0.40249 0.33156,0.0369 0.50001,0.20053 0.7758,0.4436 0.10328,0.091 0.27626,0.28016 0.37639,0.34003 0.17905,0.10704 0.25422,0.009 0.44191,0.19117 0.15528,0.15039 0.13394,0.3103 0.13847,0.33956 -0.26197,-0.0733 -0.36135,-0.19491 -0.59744,-0.35846 -0.16347,0.25302 -0.48151,0.54763 -0.99854,1.02735 -0.20595,0.19109 -0.44549,0.29321 -0.27626,0.58315 0.18613,0.31889 0.70885,0.6748 0.97636,0.9063 1.13197,0.97953 2.45778,1.90975 3.35948,3.13585 0.24365,0.33131 0.56132,0.80749 0.63289,1.21788 0.0418,0.24001 0.15477,0.44812 0.18297,0.71692 0.0328,0.31327 0.01,0.91475 0.006,1.19488 -0.003,0.239 -0.0255,0.35467 -0.0595,0.53769 m -6.57181,-17.98287 c 0.11705,0.43404 1.83558,1.98943 2.33001,2.27026 m -14.63722,-2.15077 c -0.32417,0.32416 -0.76401,0.7549 -1.33737,1.31431 -1.05005,1.02452 -2.08602,2.17261 -3.20381,3.10677 -2.98927,2.49821 -5.75955,5.62621 -8.46595,8.26972 -0.81796,0.79895 -1.66848,1.6075 -2.47822,2.40436 -0.2799,0.27545 -0.63782,0.63848 -0.78128,1.03565 -0.10381,0.28744 -0.0765,0.38158 -0.20025,0.65719 -0.0756,0.16832 -0.0787,0.28596 -0.0823,0.47795 -0.01,0.52575 -0.0598,1.6644 -0.0596,2.15077 1.2e-4,0.32311 -0.0608,0.6092 0.16987,0.85292 0.14839,0.15681 0.44701,0.22513 0.58974,0.35772 0.27777,0.25805 0.47944,0.51569 0.74358,0.79737 0.11083,0.1182 0.17625,0.21136 0.30461,0.32218 0.19852,0.17139 0.60571,0.49002 0.82093,0.53419 0.11491,0.0236 0.38111,0.0568 0.5187,-0.0763 0.20657,-0.19982 0.13829,-0.22948 0.13847,-0.63731 9e-5,-0.18843 0,-0.30841 0,-0.47795 0,-0.15413 0.002,-0.26085 -2.2e-4,-0.41821 -0.005,-0.39281 -0.0595,-0.85254 -0.0595,-1.25462 0,-0.4458 0.0173,-0.74296 -0.0344,-1.13513 -0.042,-0.31915 -0.0966,-0.71284 -0.084,-1.07539 0.0178,-0.51213 0.11837,-0.81519 0.17393,-1.31436 0.0309,-0.27721 0.17119,-0.58457 0.33758,-0.83641 0.73649,-1.11478 1.91372,-2.1676 2.89255,-3.10456 0.20475,-0.19599 0.38857,-0.36469 0.60002,-0.5571 1.57976,-1.43752 3.04629,-3.01171 4.55523,-4.49789 0.83448,-0.82188 1.60911,-1.60861 2.43778,-2.40473 0.36766,-0.35321 0.72086,-0.67901 1.07004,-1.02597 0.31288,-0.31089 0.64884,-0.60969 0.96517,-0.92155 0.31118,-0.3068 0.88627,-0.80993 1.14776,-1.12684 0.22016,-0.26681 0.26765,-0.41412 0.33657,-0.58038 m 2.09102,-0.53769 c 0.0357,0.11715 0.0242,0.31081 0.17555,0.65483 0.0842,0.19152 0.16897,0.26342 0.27765,0.42586 0.0938,0.14021 0.12296,0.21213 0.23146,0.3361 0.18006,0.20574 0.50146,0.42347 0.70946,0.60901 0.2941,0.26233 0.6045,0.51718 0.9258,0.77469 0.44916,0.35998 0.95269,1.06032 1.50369,1.23659 0.32164,0.1029 0.43611,-0.22832 0.59979,-0.38257 0.5877,-0.55383 0.99237,-0.86839 1.13278,-1.02579 m 17.86338,-2.56898 c 0.10154,0.0262 0.19762,0.0585 0.4183,0.0933 0.16681,0.0263 0.46514,0.0242 0.65709,0.0265 0.45803,0.005 1.77564,0.14222 2.1505,0.11603 0.19942,-0.014 0.26981,-0.0688 0.35874,-0.11626 m -63.92578,0.11947 c 0.0448,0.35435 0.0384,1.54217 0.29871,2.09103 v -0.17923 m 44.56885,-1.79231 c -0.0884,0.10944 -0.0918,0.26421 -0.38345,0.56194 -0.48152,0.4915 -0.84544,0.53825 -0.77878,0.93142 0.0272,0.16019 0.34851,0.4527 0.5051,0.58273 0.56456,0.4688 1.11684,0.91484 1.67278,1.38905 0.14905,-0.12704 0.72108,-0.47137 1.12471,-0.89824 0.1591,-0.16825 0.22296,-0.25775 0.30914,-0.35638 m -7.229,-2.09103 c -0.0928,0.0825 -0.15256,0.19279 -0.41829,0.27401 -0.13113,0.04 -0.26559,0.0635 -0.41812,0.10178 -0.29453,0.0739 -1.07031,0.14552 -1.37402,0.15812 -0.26723,0.0111 -0.32732,0.0655 -0.41829,0.12327 m -2.62873,-0.59744 c 0.0752,0.0702 0.16542,0.24576 0.59744,0.35846 m 33.27728,-0.35846 c 0.33336,0.27259 0.74786,0.78261 1.24263,1.33142 0.62768,0.69624 1.26778,1.48168 1.83984,2.21882 1.38374,1.78304 2.91393,3.54192 4.32552,5.29271 0.18138,0.22497 0.22501,0.37531 0.38889,0.56937 0.0882,0.10446 0.18032,0.15906 0.25995,0.27387 0.10064,0.14512 0.0974,0.28541 0.23118,0.45388 0.21018,0.26477 0.26257,0.14239 0.48662,0.40281 0.18696,0.21732 0.21693,0.46776 0.43361,0.71827 0.16514,0.19093 0.28314,0.17462 0.47938,0.34975 0.60734,0.542 1.22929,1.36219 1.69094,2.01068 0.45028,0.63253 0.7327,1.4096 0.56328,2.21052 -0.0533,0.2518 -0.0367,0.36129 -0.0591,0.59744 -0.0241,0.25496 -0.10936,0.42519 -0.14672,0.65718 -0.13285,0.82482 -0.2107,1.01492 -0.32499,1.49359 0.20337,0.0508 0.4513,0.15332 0.81765,-0.25174 0.38251,-0.42292 0.34801,-0.73991 0.49671,-1.00288 m -10.99272,-17.02714 c 0.0919,-0.0435 0.16971,-0.10132 0.35874,-0.0963 0.52163,0.014 1.75012,0.23409 2.031,0.0963 m -30.23034,0 c 0.19446,0.49526 0.59117,0.7323 0.9559,0.89615 m -44.15064,-0.65718 h 0.0597 m 38.47498,0 -0.17923,0.41821 m 36.9814,-0.29872 c 0.69975,-0.1184 1.92145,0.1203 2.98718,0.24824 0.52385,0.0629 1.26364,0.0976 1.79232,0.16997 0.27135,0.0372 0.57456,0.0507 0.83641,0.0851 0.55551,0.073 1.30703,0.0853 1.9118,0.20196 0.72667,0.14018 1.46215,0.24455 2.15078,0.32744 0.17792,0.0214 0.35719,0.0426 0.53769,0.068 0.43604,0.0615 1.28265,0.10921 1.67282,0.21358 0.32082,0.0858 0.69039,0.10832 1.01565,0.12018 0.20525,0.007 0.32839,0.0314 0.53769,0.0708 0.72109,0.13563 1.0005,0.0446 1.4936,0.34676 m -54.12785,-1.55334 c -0.35208,0.49852 -1.08033,1.07461 -1.54232,1.52794 -0.58413,0.57316 -1.15783,1.16178 -1.80333,1.76331 -1.14728,1.06913 -2.23767,2.22635 -3.36991,3.27042 -0.17356,0.16005 -0.29477,0.30387 -0.46139,0.48837 -0.17312,0.19169 -0.3292,0.33212 -0.52765,0.51207 -0.19919,0.18062 -0.33735,0.32774 -0.53078,0.52031 -0.61688,0.61414 -1.05604,1.04927 -1.44311,1.53633 0.12912,0.17122 0.21511,0.26599 0.1837,0.9559 -0.0153,0.33592 -0.0481,1.12759 -0.0696,1.43385 -0.0213,0.3046 0.0593,0.78717 -0.24248,0.85554 -0.34868,0.079 -1.0387,-0.76921 -1.29537,-0.97503 -0.21597,-0.17318 -0.21128,-0.37217 -0.54789,-0.2741 -0.15591,0.0454 -0.41414,0.23255 -0.53764,0.34159 -0.38928,0.34367 -0.87118,0.8304 -1.1645,1.27223 -0.15749,0.23722 -0.26211,0.49897 -0.40382,0.75131 -0.0995,0.17726 -0.1525,0.32166 -0.16338,0.53769 -0.0118,0.23501 -0.0617,0.41469 -0.10095,0.65719 -0.0503,0.3111 -0.0194,0.8132 -0.0194,1.13513 0,0.20031 0,0.34328 0,0.53769 0,0.15477 -6e-5,0.26363 0,0.41821 1e-4,0.26141 0.0499,1.10631 0.0851,1.3741 0.0399,0.30412 0.0556,0.38572 0.0288,0.71693 -0.0196,0.24338 -0.0933,0.64882 -0.31817,0.86195 -0.11098,0.10518 -0.2711,0.14034 -0.39308,0.1549 -0.22996,0.0274 -0.31639,0.0102 -0.4183,-0.001 m -20.19339,-19.53621 0.0446,1.01564 0.0797,0.47795 0.12013,1.07539 0.066,0.5377 0.11,0.65718 0.0574,0.65718 9.1e-4,0.47795 0.1153,0.65718 0.18259,1.67283 0.1093,0.47795 0.0699,0.59743 0.23898,1.79231 m 46.60014,-9.2601 c -0.13612,0.13368 -0.39821,0.4452 -0.9582,0.9033 -0.20695,0.16928 -0.47892,0.25606 -0.30139,0.58789 0.17188,0.3213 0.60462,0.55776 0.90113,0.80332 0.1001,0.0829 0.33669,0.27591 0.47707,0.26396 0.25225,-0.0215 0.24656,-0.16039 0.42835,-0.32555 0.44461,-0.40394 0.8498,-0.74026 0.94664,-0.85882 m -3.4054,-0.9559 c 0.12891,0.33739 -0.04,0.41364 -0.29872,0.29872 m 4.83925,-0.17923 c 0.14383,0.3084 0.38067,0.54555 0.71692,0.59744 m -10.5149,-0.23898 c 0.42711,0.59417 1.39728,1.60602 2.15077,1.87797 0.25779,0.093 0.35614,-0.0744 0.47772,-0.1666 0.27672,-0.20996 0.86768,-0.70173 1.05584,-0.8833 0.11002,-0.10616 0.14451,-0.16513 0.19901,-0.23063 m 1.37411,-0.53769 0.53769,0.29872 m -6.87053,0.35846 c -0.10342,0.10335 -0.19214,0.20403 -0.4183,0.40815 -0.19162,0.17297 -0.60202,0.50927 -0.83632,0.70162 -0.71299,0.58534 -1.43589,1.20051 -2.14543,1.78771 -0.42589,0.35246 -0.82107,0.74331 -1.26019,1.07695 -0.31224,0.23725 -0.77804,0.45206 -1.00749,0.65331 -0.2255,0.19779 -0.19858,0.28031 -0.3627,0.4756 -0.25986,0.30923 -0.35827,0.28697 -0.57785,0.49067 -0.17408,0.16151 -0.34216,0.50438 -0.52635,0.86366 -0.37283,0.72724 -0.2101,0.75141 -0.44803,1.30902 -0.12507,0.29309 0.0601,0.55743 -0.36976,0.72213 -0.25641,0.0982 -0.75346,-0.35857 -1.05695,-0.71978 -0.13821,-0.1645 -0.63054,-0.50352 -0.60578,-0.65954 0.0299,-0.18864 0.23326,-0.26197 0.47436,-0.28825 0.30147,-0.0328 0.48015,0.0526 0.59744,0.10902 0.0676,-0.11731 0.17328,-0.30099 0.17033,-0.53681 -0.003,-0.20162 -0.094,-0.35284 -0.29098,-0.42194 -0.17776,-0.0624 -0.7053,0.20151 -1.01449,0.23169 -0.25565,0.025 -0.42502,0.0656 -0.65695,0.0335 -0.14762,-0.0204 -0.2342,-0.0832 -0.33223,-0.16046 -0.26739,-0.21079 -0.47037,-0.51443 -0.60518,-0.47519 -0.22679,0.066 -0.13802,0.20629 -0.13821,0.61228 -1.3e-4,0.30231 -0.0226,0.44622 -0.0496,0.71693 -0.0214,0.21386 -0.0233,0.32434 -0.0537,0.53769 -0.0545,0.38277 -0.0759,0.54777 -0.0759,1.01564 0,0.25394 0.004,0.4285 -2.3e-4,0.71693 -0.003,0.22942 -0.0524,0.27955 -0.032,0.47795 0.0218,0.21243 0.29338,0.53009 0.47684,0.71186 0.17595,0.17432 0.28762,0.23806 0.39184,0.30378 0.17342,-0.32496 0.12225,-0.55887 0.20223,-1.01564 0.13692,-0.782 0.0964,-1.43097 0.0965,-2.27027 3e-5,-0.62157 0.0128,-0.67818 0.11948,-1.01564 m -26.40674,3.16642 c 0,-0.66864 0.0674,-0.9576 -0.11207,-1.61308 -0.0897,-0.3276 -0.10421,-0.66821 -0.13226,-1.07539 -0.0191,-0.27745 -0.0471,-0.3913 -0.11432,-0.65718 -0.0933,-0.36921 -0.0869,-0.69012 -0.12945,-1.13513 -0.0309,-0.32371 -0.16592,-0.62774 -0.0112,-0.78059 0.1621,-0.16013 0.35978,-0.13486 0.55904,-0.19301 0.1525,-0.0445 0.26993,-0.0967 0.4182,-0.15397 0.3735,-0.14439 0.73706,-0.23911 1.13514,-0.39045 0.18595,-0.0707 0.35149,-0.10863 0.53769,-0.17099 0.2776,-0.093 0.44311,-0.14023 0.77667,-0.22049 0.18762,-0.0452 0.30218,-0.063 0.47795,-0.12631 0.46693,-0.16831 0.99678,-0.30137 1.43385,-0.45499 0.25075,-0.0881 0.48124,-0.12524 0.77667,-0.22187 0.42246,-0.13819 0.84678,-0.21211 1.25462,-0.31426 0.26541,-0.0665 0.55408,-0.13325 0.83641,-0.21173 1.09685,-0.30488 2.28125,-0.56593 3.34565,-0.86632 0.17161,-0.0484 0.29977,-0.0829 0.47795,-0.12991 0.50736,-0.13386 0.89129,-0.21688 1.43385,-0.3244 0.15232,-0.0302 0.54071,-0.15205 0.65718,-0.15784 0.37197,-0.0185 0.46736,0.0793 0.5377,0.11686 m 32.97855,-0.11949 c -0.11497,0.11498 -0.40991,0.38003 -0.95557,0.9015 -0.14067,0.13444 -0.37011,0.2585 -0.23681,0.52701 0.10227,0.20598 0.34268,0.36664 0.5352,0.53681 0.14984,0.13245 0.25508,0.17514 0.40719,0.29296 0.1537,0.11904 0.19362,0.22193 0.3291,0.35712 0.12444,0.12417 0.22379,0.15705 0.35643,0.2765 0.99338,0.89455 2.01796,1.85093 3.0296,2.72402 0.29533,0.25488 0.55101,0.48359 0.83641,0.73393 0.41798,0.36662 0.92109,0.8019 1.3146,1.18017 0.1601,0.1539 0.30078,0.27746 0.4667,0.44126 0.18701,0.18462 0.3018,0.35843 0.4484,0.57204 0.47507,0.69224 0.57692,1.74784 0.44407,2.56902 -0.0476,0.29412 -0.0435,0.44754 -0.0451,0.77667 -0.002,0.38297 -0.0556,0.6394 -0.0597,0.83641 m -11.5304,-12.60593 c -0.19243,0.21081 -0.21674,0.35011 -0.83641,0.78653 -0.14215,0.10011 -0.30167,0.19597 -0.41821,0.28637 -0.18528,0.14371 -0.20697,0.28436 -0.47795,0.26069 -0.13597,-0.0119 -0.44093,-0.29143 -0.5377,-0.49718 m -44.09089,-0.71692 -0.11949,0.23897 m 49.16912,0.17923 c 0.22424,0.32569 0.36065,0.45302 0.65718,0.65719 m 2.4495,-0.23898 c -0.0797,0.0734 -0.14163,0.13352 -0.3002,0.26345 -0.47777,0.39148 -0.90273,0.81294 -1.01417,0.93142 m -2.98719,-0.77666 c -0.077,0.0879 -0.12186,0.17254 -0.3639,0.40124 -0.14744,0.1393 -0.74548,0.62564 -0.87158,0.75947 -0.12976,0.1377 -0.27346,0.23585 -0.0618,0.51096 0.0985,0.12795 0.34159,0.2804 0.46085,0.25497 0.36777,-0.0784 0.59224,-0.46235 1.13269,-0.95382 0.25827,-0.23487 0.29728,-0.30062 0.36091,-0.37539 m -3.70412,-0.47794 c 0.22452,0.30501 1.07677,1.01466 1.4936,1.31435 m 6.51207,-1.31435 c -0.0473,0.0503 -0.12862,0.13146 -0.30836,0.33333 -0.10906,0.12249 -0.16319,0.22162 -0.30457,0.33906 -0.10157,0.0844 -0.26927,0.17826 -0.40125,0.27622 -0.20432,0.15166 -0.25321,0.20561 -0.30019,0.24626 m -8.54335,-1.13513 c -0.065,0.0771 -0.11473,0.15607 -0.33556,0.36542 -0.12739,0.12078 -0.38024,0.3352 -0.52621,0.46384 -0.53104,0.46804 -1.07963,0.90101 -1.64743,1.31239 -1.09518,0.79345 -2.25559,1.79827 -3.28595,2.70538 -0.37505,0.33019 -0.70395,0.67645 -0.98223,1.0676 -0.26615,0.37411 -0.58189,0.98073 -0.67792,1.43472 -0.0476,0.22512 -0.0687,0.32463 -0.16121,0.53682 -0.0979,0.22473 -0.08,0.37217 -0.0958,0.59744 -0.018,0.2561 -0.0329,0.50027 -0.095,0.77667 -0.11515,0.51254 -0.13788,0.91494 -0.13862,1.37411 -4.5e-4,0.36966 -0.0229,0.68513 -0.14483,1.01564 -0.069,0.18701 -0.0812,0.24485 -0.0954,0.41821 -0.0203,0.24789 -0.0511,0.44471 -0.0585,0.53769 0.21057,-0.0173 0.26414,0.062 0.5897,-0.18029 0.20567,-0.15307 0.31823,-0.39133 0.40299,-0.65612 0.0656,-0.20501 0.0884,-0.38495 0.13051,-0.59744 0.075,-0.37811 0.0561,-0.61802 0.0728,-1.07539 0.009,-0.25747 0.0654,-0.27357 0.0951,-0.53769 0.0229,-0.20334 0.10313,-0.92359 0.15761,-1.19487 0.13979,-0.69616 0.5166,-1.4098 0.90187,-1.9692 1.11389,-1.61732 3.18642,-2.85035 4.6992,-4.09028 0.36368,-0.29809 0.79731,-0.65143 1.15219,-0.96494 0.12627,-0.11154 0.33104,-0.25545 0.4483,-0.36376 0.22064,-0.20378 0.25321,-0.30115 0.31131,-0.37852 m 12.90465,0.77667 c 0.0392,-0.0463 0.15977,-0.1096 0.23373,-0.41825 0.044,-0.18348 0.0487,-0.30938 0.24772,-0.3651 0.3875,-0.10846 0.75988,-0.0226 1.13163,0.006 0.16155,0.0124 0.31697,-0.003 0.45896,0.10952 0.36801,0.29044 0.0396,0.86062 -0.0354,1.086 -0.0732,0.22001 -0.0604,0.27154 -0.0653,0.47795 -0.009,0.36579 -0.19535,0.59846 -0.23874,0.65718 m -5.97438,-2.27026 c 0.33702,0.63138 1.0615,1.02336 1.58773,1.45574 0.5817,0.47797 1.1993,1.02513 1.75796,1.49793 0.37783,0.31975 0.82425,0.77358 1.22106,1.03487 0.41446,0.27291 0.67299,0.26754 0.98942,-0.1052 m 13.08389,-3.76386 c -0.17066,0.0911 -0.41596,0.11415 -0.77667,0.12097 -0.1652,0.003 -0.31466,-0.005 -0.53765,-0.0203 -0.26695,-0.0185 -0.33787,0.0667 -0.47449,0.25898 -0.13423,0.18892 -0.19471,0.47004 -0.25263,0.71577 -0.0487,0.20674 -0.10188,0.35062 -0.16908,0.5377 m -6.57182,2.27026 c -0.65319,-0.20916 -0.94957,-0.74742 -1.43385,-1.01565 0.0585,-0.1926 0.1135,-0.49458 0.11972,-0.95589 0.004,-0.27107 0.0483,-0.51922 0.11902,-0.77667 0.0624,-0.22744 0.0172,-0.35208 0.079,-0.59744 0.0588,-0.23352 0.23205,-0.41172 0.45896,-0.4419 0.12076,-0.0161 1.20995,-0.0182 1.33271,0.11948 0.12336,0.13837 0.0459,0.38028 0.0414,0.56139 -0.005,0.19201 -0.008,0.29137 -0.0805,0.47795 -0.18575,0.47841 -0.30772,1.03248 -0.33859,1.61308 -0.0214,0.40281 -0.4537,0.97335 -0.14369,1.27002 0.28726,0.27491 0.91736,0.11911 1.22,0.17554 1.11617,0.20814 0.77267,-0.87421 1.19487,-1.44556 m 5.13796,-2.68846 c 0.0583,0.18377 0.15063,0.48698 0.0283,0.77667 -0.0689,0.16319 -0.0922,0.3172 -0.14033,0.47795 -0.0675,0.22544 -0.16501,0.42576 -0.18365,0.65718 -0.0173,0.21432 -0.0168,0.32781 -0.0603,0.53769 -0.0498,0.24023 -0.0917,0.38721 -0.16167,0.59744 -0.27083,0.8134 -0.40076,1.44937 -0.61744,1.73257 m 4.24181,-4.66002 c 0.17678,-0.0867 0.28422,-0.0987 0.8364,0.0334 0.27593,0.066 0.94522,0.002 0.99016,0.27414 0.0349,0.21123 -0.0628,0.31709 -0.21999,0.38234 -0.0927,0.0385 -0.235,0.0311 -0.35196,0.0253 -0.26775,-0.0133 -0.50032,-0.0548 -0.65718,-0.058 m -80.35534,-0.71692 c 0.75668,0.38901 1.50273,1.08032 2.27562,1.67283 0.16201,0.1242 0.29603,0.21986 0.47025,0.3414 0.18331,0.12789 0.29461,0.21756 0.48265,0.35947 0.1902,0.14355 0.35394,0.26409 0.5524,0.41471 0.16381,0.12433 0.28557,0.20234 0.45075,0.3415 0.22407,0.18878 0.45997,0.3209 0.68438,0.50275 0.1857,0.15048 0.32366,0.23595 0.52064,0.37925 0.37069,0.26968 0.72431,0.52961 1.07004,0.77188 0.22363,0.1567 0.44834,0.34077 0.66253,0.51658 0.18797,0.15428 0.32658,0.25289 0.53746,0.39834 0.19579,0.13504 0.31337,0.21876 0.48832,0.3538 0.2058,0.15885 0.37568,0.26983 0.5873,0.41001 0.18672,0.12368 0.29796,0.23464 0.47795,0.38054 0.24863,0.20153 0.46555,0.3318 0.74228,0.55023 0.26807,0.2116 0.42881,0.27451 0.63183,0.31365 m -0.59744,-7.40822 c 0,0.41149 0,0.48074 0,0.83641 m 66.85327,-0.77667 c 0.29553,0.0642 0.38377,0.12498 0.5377,0.23898 m 0,-0.0598 c 0.27704,-0.14803 0.36144,-0.11319 0.71692,-0.17923 m -21.14929,0.35847 0.11949,0.29871 c 0.40679,0.0453 0.66978,0.3705 1.01329,0.65696 0.31087,0.25923 0.62646,0.49849 0.90865,0.77394 0.31926,0.31164 0.74278,0.63617 1.02846,0.96904 0.21418,0.24956 0.18108,0.36855 0.40861,0.5536 0.18475,0.15026 0.41446,0.13259 0.6865,0.35053 0.79002,0.63291 1.8552,1.41607 2.31217,2.31189 0.34162,0.6697 0.31372,1.21433 0.20933,1.85201 -0.10329,0.63097 -0.10838,0.67856 -0.11492,1.19488 -0.002,0.16072 -0.008,0.26959 -0.0446,0.41821 -0.14756,0.60676 -0.19102,0.62325 -0.25391,0.9559 m -9.37977,-10.21619 c 0.20161,0.43228 0.69175,0.83146 1.13513,0.89616 m 26.347,-0.83641 c 0.21116,0.42836 0.69526,1.04659 1.37945,1.82758 0.16356,0.1867 0.40492,0.52397 0.65092,0.58393 0.30287,0.0738 0.3489,-0.24878 0.35851,-0.49972 0.011,-0.28645 0.12705,-0.5238 0.23985,-0.65717 m 0.77667,-1.07539 c 0.11302,-0.0603 0.25078,-0.12561 0.47795,-0.11663 0.17078,0.007 0.30453,0.0445 0.47795,0.10303 0.18842,0.0635 0.63416,0.32876 0.56987,0.53313 -0.0876,0.27834 -0.44484,0.051 -0.74901,0.0296 -0.2543,-0.0179 -0.32314,0.0573 -0.4183,0.10805 m -33.0383,-0.71693 c -0.098,0.0938 -0.186,0.1864 -0.4183,0.36939 -0.27108,0.21354 -0.84061,0.68504 -1.13504,0.93714 -0.60457,0.51765 -1.21212,0.96298 -1.79232,1.49631 -0.35947,0.33045 -0.72001,0.69791 -0.99558,1.08051 -0.54626,0.75838 -0.8991,1.94275 -0.9164,2.80795 -0.004,0.18358 -0.0148,0.30898 -0.0804,0.47795 -0.14128,0.36389 -0.15165,0.53287 -0.15932,0.83642 -0.007,0.29128 -0.049,0.37737 -0.12603,0.65718 -0.0606,0.22017 -0.0525,0.363 -0.10538,0.59744 -0.0609,0.26991 -0.0979,0.40099 -0.12617,0.53769 0.26279,-0.0122 0.71007,0.0653 1.0079,-0.71692 0.0855,-0.22447 0.11153,-0.38155 0.19527,-0.59744 0.0909,-0.23429 0.10331,-0.32115 0.11036,-0.5377 0.008,-0.25432 0.0634,-0.43105 0.12032,-0.53769 0.59526,0.27906 1.12029,1.2907 1.79494,1.76032 0.39866,0.27751 0.73198,0.28754 1.19225,0.1843 0.20854,-0.0468 0.47638,-0.0467 0.64704,-0.15051 0.23805,-0.14477 0.49208,-0.39932 0.57429,-0.65898 0.19015,-0.60058 0.095,-0.78566 0.2488,-1.1922 0.0421,-0.11131 0.094,-0.16841 0.14295,-0.24165 m 4.7795,-7.04976 c -0.1929,0.26329 -0.26496,0.35216 -0.47795,0.65718 0.38797,0.35632 0.66171,0.54666 1.07773,0.91261 0.64996,0.57173 1.13687,1.16474 1.84995,1.57063 0.39903,0.22713 0.55024,0.26871 0.95566,-0.21298 m 16.788,-2.8677 c 0.62953,0.65785 1.63351,2.21214 2.58604,2.95672 0.24763,0.19356 0.71564,0.21414 0.84305,-0.091 0.0604,-0.1447 0.0335,-0.21652 0.0361,-0.2967 m -1.73256,-2.44949 -0.17924,0.17923 m 10.03696,-0.11949 c 0.14407,4e-4 0.49584,0.007 0.77667,0.0738 0.13221,0.0317 0.27984,0.0831 0.38215,0.20182 0.17726,0.20569 0.0181,0.49966 -0.0237,0.79949 -0.0282,0.20242 -0.0838,0.29191 -0.11949,0.35874 M 95.36396,157.7718 c -0.025,-0.0551 -0.0867,-0.16662 -0.0733,-0.35869 0.0103,-0.14726 0.002,-0.22221 0.0749,-0.32864 0.0892,-0.1301 0.24082,-0.19413 0.4165,-0.2388 0.25161,-0.064 0.34722,0.009 0.4183,0.03 m 11.17208,0 c -0.0759,0.0696 -0.13739,0.13511 -0.35874,0.30568 -0.18939,0.14594 -0.63569,0.49573 -0.84628,0.68696 -0.86919,0.78926 -1.90979,1.39967 -2.64135,2.35305 -0.36624,0.47729 -0.5506,0.98122 -0.81341,1.49355 -0.389,0.75831 -0.41657,1.2928 -0.41844,1.97154 m 8.00566,-6.09386 c 0.26507,-0.23154 0.42598,-0.45005 0.89616,-0.59743 m 29.81214,0 c 0.18771,0.41207 0.51012,0.90298 0.96125,1.40914 0.11633,0.13052 0.26365,0.3014 0.40723,0.30282 0.22884,0.002 0.21713,-0.19188 0.2476,-0.39761 0.0358,-0.24206 0.1356,-0.41161 0.17623,-0.47794 m -89.79488,-0.23897 -0.29872,-0.17923 c 0.17995,-0.0476 0.26956,0.0333 0.54,0.29554 0.1759,0.17058 0.26072,0.2143 0.44121,0.35919 0.18882,0.15158 0.35979,0.31231 0.57748,0.47058 0.61873,0.44981 1.24533,0.91398 1.84694,1.36604 0.3249,0.24413 0.76626,0.57795 1.06981,0.83406 0.14157,0.11945 0.21776,0.21445 0.36916,0.31711 0.16795,0.11388 0.35865,0.22547 0.53235,0.35256 0.22734,0.16636 0.43288,0.26191 0.63182,0.42895 0.3957,0.33226 0.7489,0.67187 1.16049,0.93465 0.33052,0.21102 0.63754,0.46138 0.9559,0.68074 0.22786,0.157 0.4147,0.31822 0.6399,0.49565 0.14601,0.11505 0.23455,0.19271 0.39303,0.29536 0.20529,0.13294 0.3731,0.23757 0.5778,0.38169 0.52278,0.36807 0.94353,0.74418 1.43085,1.10959 0.92783,0.69573 2.07137,1.66146 2.75356,1.95421 m 24.19623,-9.91746 c 0.3571,-0.3247 0.81938,-0.51726 1.67282,-0.41678 0.46671,0.055 0.58358,0.42436 0.71693,0.65575 m 36.80216,-0.71692 c -0.0898,0.37714 -0.009,0.45802 -0.17873,0.89615 -0.0719,0.18504 -0.0992,0.28328 -0.1299,0.47795 -0.076,0.48231 -0.13089,0.76643 -0.16932,0.89616 m -21.02981,-1.73257 c -0.066,0.0779 -0.10674,0.13727 -0.2942,0.322 -0.15287,0.15064 -0.46353,0.44366 -0.6617,0.60625 -0.30126,0.24715 -0.88726,0.82587 -1.0516,1.16278 -0.21941,0.44981 -0.27018,0.86527 -0.39848,1.31437 -0.0495,0.17339 -0.0372,0.29026 -0.0459,0.47795 -0.0129,0.2799 -0.12223,0.66377 -0.19186,0.95589 -0.0528,0.22148 -0.0391,0.28612 -0.0457,0.5377 -0.007,0.26302 -0.0414,0.39145 -0.11773,0.65718 -0.11598,0.40395 -0.11185,0.89095 -0.23801,1.25453 -0.10163,0.29289 -0.0599,0.34743 -0.0616,0.4183 m 16.72826,-7.58746 c -0.0363,0.068 -0.087,0.2468 -0.13286,0.47795 -0.065,0.32728 -0.293,0.48258 -0.34509,0.53769 m 17.50492,-0.77667 c -0.0919,0.12784 -0.16055,0.29078 -0.1813,0.47795 -0.0215,0.19383 -0.10418,0.3379 -0.13876,0.5377 -0.0514,0.29677 -0.0249,0.35409 0.22141,0.66193 0.1579,0.19736 0.33669,0.4244 0.57633,0.4065 0.31421,-0.0235 0.34884,-0.33224 0.35758,-0.53046 0.0101,-0.22893 0.001,-0.31803 0.001,-0.35874 m -30.7083,-0.89616 c 0.38448,0.11416 1.48337,1.04611 1.83629,1.40182 0.16084,0.16209 0.1438,0.29951 0.3084,0.45416 0.22243,0.20896 0.7544,0.3486 0.94456,0.54903 0.12964,0.13666 0.13066,0.27877 0.13692,0.34321 -0.24144,-0.12064 -0.29742,-0.24471 -0.35847,-0.47795 m 19.11801,-2.27027 v 0.11949 m -45.0468,1.85206 c 0.16055,-0.58094 1.18322,-1.56454 1.79231,-1.9118 m 50.12502,0.11948 c 0.0808,0.52175 0.43137,0.49311 0.65718,0.5377 m 3.70412,-0.35847 c 0.15407,0.40111 0.71582,1.02912 1.22023,1.48079 0.11516,0.10312 0.3714,0.25197 0.42443,0.38676 0.0858,0.21819 -0.0461,0.37857 -0.33058,0.47445 -0.24687,0.0832 -0.36814,0.10788 -0.47767,0.16725 m -7.76669,-2.4495 c 0.0836,0.0434 0.15434,0.0581 0.35851,0.24543 0.13559,0.12443 0.38495,0.42073 0.52571,0.58863 0.51823,0.61816 1.09906,1.2763 1.51222,1.97477 0.11183,0.18905 0.19185,0.40741 0.28004,0.59657 0.11082,0.23769 0.12803,0.33685 0.13124,0.59743 0.006,0.5036 -0.0687,0.88779 -0.20089,1.37411 -0.0628,0.23119 -0.02,0.36801 -0.0573,0.59744 -0.0426,0.26228 -0.0951,0.37654 -0.15895,0.59743 -0.0464,0.16036 -0.0469,0.25617 -0.0729,0.41821 -0.0708,0.44102 -0.18734,0.56879 -0.22671,0.65718 m -44.09109,-7.34848 c 0.11544,0.43968 0.3247,0.70925 0.77667,0.83641 m 14.39825,-0.77667 c 0.14656,0.51786 1.4508,1.53541 1.97154,1.56178 0.45171,0.0229 0.46673,-0.19841 0.65718,-0.42665 m 23.06109,-0.9559 -0.17923,0.23898 m -41.99986,-0.11949 -0.0573,0.35874 -0.0573,0.71665 -0.0723,0.47795 -0.0517,0.53769 -4.6e-4,0.83641 -0.0518,0.65718 0.20025,0.41821 0.58739,0.73426 0.20994,0.27447 0.53285,0.66645 0.39372,0.47537 0.9583,1.22152 0.63473,0.14156 0.5377,-0.16797 m 48.39244,-6.93028 c -0.0102,0.22366 -0.0107,0.33573 -0.17923,0.65718 m 1.85206,-0.5377 c 0.26264,0.43179 1.01072,1.29724 1.46713,1.85206 0.18154,0.22068 0.33684,0.51102 0.43697,0.77667 0.30615,0.81221 -0.1375,1.88201 -0.37589,2.74821 -0.0866,0.31463 -0.10278,0.616 -0.2729,0.87795 -0.2666,0.41052 -0.84534,0.4026 -1.13582,0.31693 m -6.57182,-6.33284 c -0.21755,0.26473 -0.35584,0.41711 -0.65718,0.47795 m -53.1122,-0.11949 c 0.0605,0.0764 0.20353,0.1212 0.21809,0.47795 0.0106,0.25963 -0.0198,1.19474 -0.28669,1.39803 -0.21486,0.16365 -0.41017,0.1393 -0.64833,0.15443 -0.59077,0.0375 -0.85462,-0.0948 -0.9559,-0.17835 m 28.37829,-1.31436 c 0.78819,0.82412 1.39836,2.20888 1.16578,3.34565 -0.11443,0.55931 -0.0528,1.03985 -0.18273,1.49359 -0.0356,0.12421 -0.10781,0.24812 -0.14673,0.35837 -0.0886,0.25103 -0.0974,0.34038 -0.1194,0.4183 m -54.6058,-5.07822 0.59744,-0.23897 m 3.28591,0.0597 v 0.11949 m 25.3911,0.17923 c 0.47766,0.2721 1.74293,0.0597 2.33,0.0597 m -19.41672,0.71692 c -0.0974,0.0831 -0.16102,0.19439 -0.47795,0.27074 -0.24955,0.0601 -0.52396,0.0808 -0.77667,0.0886 -0.70735,0.0216 -0.98712,-0.0966 -1.19487,-0.47878 0.17517,-0.0882 0.58887,-0.26006 0.9559,-0.32339 0.20877,-0.036 0.32797,-0.0766 0.53769,-0.0743 0.21556,0.002 0.41697,0.0697 0.59486,0.16217 0.3521,0.18308 0.3426,0.38608 0.7195,0.41475 m 10.87337,-0.23898 -0.11949,0.0597 m -13.80081,5.25745 c 0.0602,-0.47888 -0.0547,-0.95836 -0.10008,-1.55334 -0.0109,-0.14332 0.0133,-0.20938 0.0123,-0.35846 -0.002,-0.25548 -0.0914,-0.59026 -0.0915,-0.9559 -4e-5,-0.52777 0.007,-0.89604 -2.3e-4,-1.4936 -0.007,-0.5565 -0.13469,-0.77441 0.41843,-0.89615 m 22.82212,0.35846 c 0.19352,0.12774 0.29325,0.17594 0.65718,0.17923 m -22.82212,0.0597 c -0.0464,0.58861 0.0597,2.39109 0.0597,3.52489 0,0.23752 0.0395,0.96623 0.0395,1.13504 0,0.2928 -0.0345,0.35447 -0.0395,0.4183 m 0.65718,0.11948 c -0.0652,-0.15149 -0.14117,-0.32017 -0.13954,-0.71692 4.6e-4,-0.14045 -0.0396,-0.58486 -0.0397,-0.77667 -2.8e-4,-0.72448 -0.0249,-2.08692 9.2e-4,-2.68847 0.015,-0.3449 0.0463,-0.38773 0.35731,-0.47795 m 27.42238,0.23897 c 0.31381,0.0837 0.4144,0.23779 0.67443,0.5377 0.37596,0.43363 0.77062,0.81855 1.1296,1.25439 0.25955,0.31512 0.65736,0.54382 1.00393,0.537 0.31052,-0.006 0.46517,-0.0676 0.65718,-0.17831 M 143.7557,164.463 v 0.11949 m -4.60027,0.83641 c 0.60222,0.23782 1.14221,0.95601 1.67282,1.19723 0.45413,0.20645 0.92462,0.16147 1.37411,-0.002 m -29.57317,0.71692 0.17923,0.29872 m -33.33701,-0.23898 c -0.0335,0.0627 -0.0767,0.11791 -0.0926,0.18882 -0.0119,0.053 -0.0203,0.10032 -0.0236,0.16992 -0.0192,0.40126 0.0313,0.88121 -0.12429,1.43358 -0.0517,0.18342 -0.028,0.29669 -0.0769,0.47702 -0.0712,0.26274 -0.43515,0.35372 -0.57839,0.37552 -0.19277,0.0294 -0.26498,0.0362 -0.35874,0.0436 m -3.10668,-1.67282 c -0.0974,0.40898 0.25399,1.10472 -0.3934,2.03014 -0.27845,0.39802 -0.58057,0.31127 -0.80147,0.29987"
       id="path2" />
  </g>
</svg>
