<?xml version="1.0" encoding="UTF-8" standalone="no"?>
<!-- Created with Inkscape (http://www.inkscape.org/) -->

<svg
   width="100.82373mm"
   height="40.852673mm"
   viewBox="0 0 100.82373 40.852673"
   version="1.1"
   id="svg1"
   inkscape:version="1.3.2 (091e20e, 2023-11-25, custom)"
   sodipodi:docname="Distributed_winding_different_width_01.svg"
   xmlns:inkscape="http://www.inkscape.org/namespaces/inkscape"
   xmlns:sodipodi="http://sodipodi.sourceforge.net/DTD/sodipodi-0.dtd"
   xmlns="http://www.w3.org/2000/svg"
   xmlns:svg="http://www.w3.org/2000/svg">
  <sodipodi:namedview
     id="namedview1"
     pagecolor="#505050"
     bordercolor="#eeeeee"
     borderopacity="1"
     inkscape:showpageshadow="0"
     inkscape:pageopacity="0"
     inkscape:pagecheckerboard="0"
     inkscape:deskcolor="#505050"
     inkscape:document-units="mm"
     inkscape:zoom="3.901936"
     inkscape:cx="168.89052"
     inkscape:cy="37.032898"
     inkscape:window-width="2560"
     inkscape:window-height="1351"
     inkscape:window-x="2551"
     inkscape:window-y="-9"
     inkscape:window-maximized="1"
     inkscape:current-layer="g5" />
  <defs
     id="defs1">
    <clipPath
       clipPathUnits="userSpaceOnUse"
       id="clipPath172">
      <path
         d="M 0,0 H 595.32 V 841.92 H 0 Z"
         transform="translate(-244.02501,-639.52002)"
         id="path172" />
    </clipPath>
    <clipPath
       clipPathUnits="userSpaceOnUse"
       id="clipPath170">
      <path
         d="M 0,0 H 595.32 V 841.92 H 0 Z"
         transform="translate(-244.02501,-642.37002)"
         id="path170" />
    </clipPath>
    <clipPath
       clipPathUnits="userSpaceOnUse"
       id="clipPath168">
      <path
         d="M 0,0 H 595.32 V 841.92 H 0 Z"
         transform="translate(-221.025,-639.52002)"
         id="path168" />
    </clipPath>
    <clipPath
       clipPathUnits="userSpaceOnUse"
       id="clipPath166">
      <path
         d="M 0,0 H 595.32 V 841.92 H 0 Z"
         transform="translate(-221.025,-642.37002)"
         id="path166" />
    </clipPath>
    <clipPath
       clipPathUnits="userSpaceOnUse"
       id="clipPath145">
      <path
         d="M 0,0 H 595.32 V 841.92 H 0 Z"
         transform="translate(-449.07501,-642.42002)"
         id="path145" />
    </clipPath>
    <clipPath
       clipPathUnits="userSpaceOnUse"
       id="clipPath137">
      <path
         d="M 0,0 H 595.32 V 841.92 H 0 Z"
         transform="translate(-426.27501,-642.42002)"
         id="path137" />
    </clipPath>
    <clipPath
       clipPathUnits="userSpaceOnUse"
       id="clipPath129">
      <path
         d="M 0,0 H 595.32 V 841.92 H 0 Z"
         transform="translate(-403.47501,-642.37002)"
         id="path129" />
    </clipPath>
    <clipPath
       clipPathUnits="userSpaceOnUse"
       id="clipPath81">
      <path
         d="M 0,0 H 595.32 V 841.92 H 0 Z"
         transform="translate(-198.32501,-639.52002)"
         id="path81" />
    </clipPath>
    <clipPath
       clipPathUnits="userSpaceOnUse"
       id="clipPath79">
      <path
         d="M 0,0 H 595.32 V 841.92 H 0 Z"
         transform="translate(-198.32501,-642.37002)"
         id="path79" />
    </clipPath>
  </defs>
  <g
     inkscape:label="Layer 1"
     inkscape:groupmode="layer"
     id="layer1"
     transform="translate(-46.9478, -150.347)">
    <path
       id="path173"
       d="m 61.085429,171.59752 -0.0176,15.63145"
       style="fill:none;stroke:#000000;stroke-width:0.09;stroke-linecap:butt;stroke-linejoin:round;stroke-miterlimit:8;stroke-dasharray:none;stroke-opacity:1" />
    <path
       id="path239"
       d="m 133.47517,171.59752 -0.0176,15.63145"
       style="fill:none;stroke:#000000;stroke-width:0.09;stroke-linecap:butt;stroke-linejoin:round;stroke-miterlimit:8;stroke-dasharray:none;stroke-opacity:1" />
    <path
       id="path173-1"
       d="m 69.243359,171.5929 -0.0177,11.34485"
       style="fill:none;stroke:#000000;stroke-width:0.09;stroke-linecap:butt;stroke-linejoin:round;stroke-miterlimit:8;stroke-dasharray:none;stroke-opacity:1" />
    <path
       id="path239-4"
       d="m 141.63311,171.59177 -0.0177,19.6076"
       style="fill:none;stroke:#000000;stroke-width:0.09;stroke-linecap:butt;stroke-linejoin:round;stroke-miterlimit:8;stroke-dasharray:none;stroke-opacity:1" />
    <path
       id="path173-1-4"
       d="m 53.103889,171.59251 -0.0176,19.59837"
       style="fill:none;stroke:#000000;stroke-width:0.09;stroke-linecap:butt;stroke-linejoin:round;stroke-miterlimit:8;stroke-dasharray:none;stroke-opacity:1" />
    <path
       id="path239-4-9"
       d="m 125.49364,171.59307 -0.0175,11.37373"
       style="fill:none;stroke:#000000;stroke-width:0.0899997;stroke-linecap:butt;stroke-linejoin:round;stroke-miterlimit:8;stroke-dasharray:none;stroke-opacity:1" />
    <path
       id="path52"
       d="M 47.230019,167.57106 H 147.48935 V 150.479 H 47.230019 Z"
       style="fill:#e1e1e1;fill-opacity:1;fill-rule:evenodd;stroke:none;stroke-width:0.352778" />
    <path
       id="path56"
       d="m 47.080089,172.59813 h 4.02166 v -5.02707 h -4.02166 z"
       style="fill:#e1e1e1;fill-opacity:1;fill-rule:evenodd;stroke:none;stroke-width:0.352777" />
    <path
       id="path57"
       d="m 55.123409,172.59813 h 4.02166 v -5.02707 h -4.02166 z"
       style="fill:#e1e1e1;fill-opacity:1;fill-rule:evenodd;stroke:none;stroke-width:0.352777" />
    <path
       id="path58"
       d="m 63.166729,172.59813 h 4.02167 v -5.02707 h -4.02167 z"
       style="fill:#e1e1e1;fill-opacity:1;fill-rule:evenodd;stroke:none;stroke-width:0.352777" />
    <path
       id="path59"
       d="m 71.210059,172.59813 h 4.02166 v -5.02707 h -4.02166 z"
       style="fill:#e1e1e1;fill-opacity:1;fill-rule:evenodd;stroke:none;stroke-width:0.352777" />
    <path
       id="path60"
       d="m 79.253379,172.59813 h 4.02166 v -5.02707 h -4.02166 z"
       style="fill:#e1e1e1;fill-opacity:1;fill-rule:evenodd;stroke:none;stroke-width:0.352777" />
    <path
       id="path61"
       d="m 87.296699,172.59813 h 4.02166 v -5.02707 h -4.02166 z"
       style="fill:#e1e1e1;fill-opacity:1;fill-rule:evenodd;stroke:none;stroke-width:0.352777" />
    <path
       id="path62"
       d="m 95.340019,172.59813 h 4.02166 v -5.02707 h -4.02166 z"
       style="fill:#e1e1e1;fill-opacity:1;fill-rule:evenodd;stroke:none;stroke-width:0.352777" />
    <path
       id="path63"
       d="m 103.38334,172.59813 h 4.02167 v -5.02707 h -4.02167 z"
       style="fill:#e1e1e1;fill-opacity:1;fill-rule:evenodd;stroke:none;stroke-width:0.352777" />
    <path
       id="path64"
       d="m 111.42667,172.59813 h 4.02166 v -5.02707 h -4.02166 z"
       style="fill:#e1e1e1;fill-opacity:1;fill-rule:evenodd;stroke:none;stroke-width:0.352777" />
    <path
       id="path65"
       d="m 119.46999,172.59813 h 4.02166 v -5.02707 h -4.02166 z"
       style="fill:#e1e1e1;fill-opacity:1;fill-rule:evenodd;stroke:none;stroke-width:0.352777" />
    <path
       id="path66"
       d="m 127.51331,172.59813 h 4.02166 v -5.02707 h -4.02166 z"
       style="fill:#e1e1e1;fill-opacity:1;fill-rule:evenodd;stroke:none;stroke-width:0.352777" />
    <path
       id="path67"
       d="m 135.55664,172.59813 h 4.02166 v -5.02707 h -4.02166 z"
       style="fill:#e1e1e1;fill-opacity:1;fill-rule:evenodd;stroke:none;stroke-width:0.352777" />
    <path
       id="path68"
       d="m 143.59997,172.59813 h 4.02165 v -5.02707 h -4.02165 z"
       style="fill:#e1e1e1;fill-opacity:1;fill-rule:evenodd;stroke:none;stroke-width:0.352777" />
    <path
       id="path75"
       d="m 47.230339,150.47898 100.258741,0.0176"
       style="fill:none;stroke:#000000;stroke-width:0.264583;stroke-linecap:butt;stroke-linejoin:round;stroke-miterlimit:8;stroke-dasharray:none;stroke-opacity:1" />
    <path
       id="path78"
       d="m 0,0 c -2.361,0 -4.275,-1.914 -4.275,-4.275 0,-2.361 1.914,-4.275 4.275,-4.275 2.361,0 4.275,1.914 4.275,4.275 C 4.275,-1.914 2.361,0 0,0"
       style="fill:#ffffff;fill-opacity:1;fill-rule:evenodd;stroke:#ff0000;stroke-width:0.56693;stroke-linecap:round;stroke-linejoin:round;stroke-miterlimit:8;stroke-dasharray:none;stroke-opacity:1"
       transform="matrix(0.35277732,0,0,-0.35277732,53.121409,168.57646)"
       clip-path="url(#clipPath79)" />
    <path
       id="path80"
       d="m 0,0 c -0.787,0 -1.425,-0.638 -1.425,-1.425 0,-0.787 0.638,-1.425 1.425,-1.425 0.787,0 1.425,0.638 1.425,1.425 C 1.425,-0.638 0.787,0 0,0"
       style="fill:#ff0000;fill-opacity:1;fill-rule:evenodd;stroke:#ff0000;stroke-width:0.75;stroke-linecap:round;stroke-linejoin:round;stroke-miterlimit:8;stroke-dasharray:none;stroke-opacity:1"
       transform="matrix(0.35277732,0,0,-0.35277732,53.121409,169.58188)"
       clip-path="url(#clipPath81)" />
    <path
       id="path89"
       d="m 47.080089,167.55341 0.0176,5.02708"
       style="fill:none;stroke:#000000;stroke-width:0.264583;stroke-linecap:butt;stroke-linejoin:round;stroke-miterlimit:8;stroke-dasharray:none;stroke-opacity:1" />
    <path
       id="path91"
       d="m 47.080089,172.58048 4.02166,0.0176"
       style="fill:none;stroke:#000000;stroke-width:0.264583;stroke-linecap:butt;stroke-linejoin:round;stroke-miterlimit:8;stroke-dasharray:none;stroke-opacity:1" />
    <path
       id="path92"
       d="m 51.101749,167.5358 4.02166,0.0176"
       style="fill:none;stroke:#000000;stroke-width:0.264583;stroke-linecap:butt;stroke-linejoin:round;stroke-miterlimit:8;stroke-dasharray:none;stroke-opacity:1" />
    <path
       id="path93"
       d="m 55.123409,167.5358 0.0176,5.02708"
       style="fill:none;stroke:#000000;stroke-width:0.264583;stroke-linecap:butt;stroke-linejoin:round;stroke-miterlimit:8;stroke-dasharray:none;stroke-opacity:1" />
    <path
       id="path94"
       d="m 51.101749,167.5358 0.0176,5.02708"
       style="fill:none;stroke:#000000;stroke-width:0.264583;stroke-linecap:butt;stroke-linejoin:round;stroke-miterlimit:8;stroke-dasharray:none;stroke-opacity:1" />
    <path
       id="path95"
       d="m 55.123409,172.56288 4.02166,0.0176"
       style="fill:none;stroke:#000000;stroke-width:0.264583;stroke-linecap:butt;stroke-linejoin:round;stroke-miterlimit:8;stroke-dasharray:none;stroke-opacity:1" />
    <path
       id="path96"
       d="m 59.145079,167.58869 4.02166,0.0176"
       style="fill:none;stroke:#000000;stroke-width:0.264583;stroke-linecap:butt;stroke-linejoin:round;stroke-miterlimit:8;stroke-dasharray:none;stroke-opacity:1" />
    <path
       id="path97"
       d="m 63.166739,167.58869 0.0176,5.02708"
       style="fill:none;stroke:#000000;stroke-width:0.264583;stroke-linecap:butt;stroke-linejoin:round;stroke-miterlimit:8;stroke-dasharray:none;stroke-opacity:1" />
    <path
       id="path98"
       d="m 59.145079,167.58869 0.0176,5.02708"
       style="fill:none;stroke:#000000;stroke-width:0.264583;stroke-linecap:butt;stroke-linejoin:round;stroke-miterlimit:8;stroke-dasharray:none;stroke-opacity:1" />
    <path
       id="path99"
       d="m 63.166739,172.61576 4.02166,0.0176"
       style="fill:none;stroke:#000000;stroke-width:0.264583;stroke-linecap:butt;stroke-linejoin:round;stroke-miterlimit:8;stroke-dasharray:none;stroke-opacity:1" />
    <path
       id="path100"
       d="m 67.188399,167.57105 4.02166,0.0176"
       style="fill:none;stroke:#000000;stroke-width:0.264583;stroke-linecap:butt;stroke-linejoin:round;stroke-miterlimit:8;stroke-dasharray:none;stroke-opacity:1" />
    <path
       id="path101"
       d="m 71.210059,167.57105 0.0176,5.02708"
       style="fill:none;stroke:#000000;stroke-width:0.264583;stroke-linecap:butt;stroke-linejoin:round;stroke-miterlimit:8;stroke-dasharray:none;stroke-opacity:1" />
    <path
       id="path102"
       d="m 67.188399,167.57105 0.0176,5.02708"
       style="fill:none;stroke:#000000;stroke-width:0.264583;stroke-linecap:butt;stroke-linejoin:round;stroke-miterlimit:8;stroke-dasharray:none;stroke-opacity:1" />
    <path
       id="path103"
       d="m 71.210059,172.59812 4.02166,0.0176"
       style="fill:none;stroke:#000000;stroke-width:0.264583;stroke-linecap:butt;stroke-linejoin:round;stroke-miterlimit:8;stroke-dasharray:none;stroke-opacity:1" />
    <path
       id="path104"
       d="m 75.231719,167.58869 4.02166,0.0176"
       style="fill:none;stroke:#000000;stroke-width:0.264583;stroke-linecap:butt;stroke-linejoin:round;stroke-miterlimit:8;stroke-dasharray:none;stroke-opacity:1" />
    <path
       id="path105"
       d="m 79.253379,167.58869 0.0176,5.02708"
       style="fill:none;stroke:#000000;stroke-width:0.264583;stroke-linecap:butt;stroke-linejoin:round;stroke-miterlimit:8;stroke-dasharray:none;stroke-opacity:1" />
    <path
       id="path106"
       d="m 75.231719,167.58869 0.0176,5.02708"
       style="fill:none;stroke:#000000;stroke-width:0.264583;stroke-linecap:butt;stroke-linejoin:round;stroke-miterlimit:8;stroke-dasharray:none;stroke-opacity:1" />
    <path
       id="path107"
       d="m 79.253379,172.61576 4.02166,0.0176"
       style="fill:none;stroke:#000000;stroke-width:0.264583;stroke-linecap:butt;stroke-linejoin:round;stroke-miterlimit:8;stroke-dasharray:none;stroke-opacity:1" />
    <path
       id="path108"
       d="m 83.275039,167.57105 4.02167,0.0176"
       style="fill:none;stroke:#000000;stroke-width:0.264583;stroke-linecap:butt;stroke-linejoin:round;stroke-miterlimit:8;stroke-dasharray:none;stroke-opacity:1" />
    <path
       id="path109"
       d="m 87.296709,167.57105 0.0176,5.02708"
       style="fill:none;stroke:#000000;stroke-width:0.264583;stroke-linecap:butt;stroke-linejoin:round;stroke-miterlimit:8;stroke-dasharray:none;stroke-opacity:1" />
    <path
       id="path110"
       d="m 83.275039,167.57105 0.0176,5.02708"
       style="fill:none;stroke:#000000;stroke-width:0.264583;stroke-linecap:butt;stroke-linejoin:round;stroke-miterlimit:8;stroke-dasharray:none;stroke-opacity:1" />
    <path
       id="path111"
       d="m 87.296709,172.59812 4.02166,0.0176"
       style="fill:none;stroke:#000000;stroke-width:0.264583;stroke-linecap:butt;stroke-linejoin:round;stroke-miterlimit:8;stroke-dasharray:none;stroke-opacity:1" />
    <path
       id="path112"
       d="m 91.318369,167.58869 4.02166,0.0176"
       style="fill:none;stroke:#000000;stroke-width:0.264583;stroke-linecap:butt;stroke-linejoin:round;stroke-miterlimit:8;stroke-dasharray:none;stroke-opacity:1" />
    <path
       id="path113"
       d="m 95.340029,167.58869 0.0176,5.02708"
       style="fill:none;stroke:#000000;stroke-width:0.264583;stroke-linecap:butt;stroke-linejoin:round;stroke-miterlimit:8;stroke-dasharray:none;stroke-opacity:1" />
    <path
       id="path114"
       d="m 91.318369,167.58869 0.0176,5.02708"
       style="fill:none;stroke:#000000;stroke-width:0.264583;stroke-linecap:butt;stroke-linejoin:round;stroke-miterlimit:8;stroke-dasharray:none;stroke-opacity:1" />
    <path
       id="path115"
       d="m 95.340029,172.61576 4.02166,0.0176"
       style="fill:none;stroke:#000000;stroke-width:0.264583;stroke-linecap:butt;stroke-linejoin:round;stroke-miterlimit:8;stroke-dasharray:none;stroke-opacity:1" />
    <path
       id="path116"
       d="m 99.361689,167.57105 4.021661,0.0176"
       style="fill:none;stroke:#000000;stroke-width:0.264583;stroke-linecap:butt;stroke-linejoin:round;stroke-miterlimit:8;stroke-dasharray:none;stroke-opacity:1" />
    <path
       id="path117"
       d="m 103.38335,167.57105 0.0176,5.02708"
       style="fill:none;stroke:#000000;stroke-width:0.264583;stroke-linecap:butt;stroke-linejoin:round;stroke-miterlimit:8;stroke-dasharray:none;stroke-opacity:1" />
    <path
       id="path118"
       d="m 99.361689,167.57105 0.0176,5.02708"
       style="fill:none;stroke:#000000;stroke-width:0.264583;stroke-linecap:butt;stroke-linejoin:round;stroke-miterlimit:8;stroke-dasharray:none;stroke-opacity:1" />
    <path
       id="path119"
       d="m 103.38335,172.59812 4.02166,0.0176"
       style="fill:none;stroke:#000000;stroke-width:0.264583;stroke-linecap:butt;stroke-linejoin:round;stroke-miterlimit:8;stroke-dasharray:none;stroke-opacity:1" />
    <path
       id="path120"
       d="m 107.40501,167.58869 4.02166,0.0176"
       style="fill:none;stroke:#000000;stroke-width:0.264583;stroke-linecap:butt;stroke-linejoin:round;stroke-miterlimit:8;stroke-dasharray:none;stroke-opacity:1" />
    <path
       id="path121"
       d="m 111.42667,167.58869 0.0176,5.02708"
       style="fill:none;stroke:#000000;stroke-width:0.264583;stroke-linecap:butt;stroke-linejoin:round;stroke-miterlimit:8;stroke-dasharray:none;stroke-opacity:1" />
    <path
       id="path122"
       d="m 107.40501,167.58869 0.0176,5.02708"
       style="fill:none;stroke:#000000;stroke-width:0.264583;stroke-linecap:butt;stroke-linejoin:round;stroke-miterlimit:8;stroke-dasharray:none;stroke-opacity:1" />
    <path
       id="path123"
       d="m 111.42667,172.61576 4.02166,0.0176"
       style="fill:none;stroke:#000000;stroke-width:0.264583;stroke-linecap:butt;stroke-linejoin:round;stroke-miterlimit:8;stroke-dasharray:none;stroke-opacity:1" />
    <path
       id="path124"
       d="m 115.44833,167.57105 4.02166,0.0176"
       style="fill:none;stroke:#000000;stroke-width:0.264583;stroke-linecap:butt;stroke-linejoin:round;stroke-miterlimit:8;stroke-dasharray:none;stroke-opacity:1" />
    <path
       id="path125"
       d="m 119.46999,167.57105 0.0176,5.02708"
       style="fill:none;stroke:#000000;stroke-width:0.264583;stroke-linecap:butt;stroke-linejoin:round;stroke-miterlimit:8;stroke-dasharray:none;stroke-opacity:1" />
    <path
       id="path126"
       d="m 115.44833,167.57105 0.0176,5.02708"
       style="fill:none;stroke:#000000;stroke-width:0.264583;stroke-linecap:butt;stroke-linejoin:round;stroke-miterlimit:8;stroke-dasharray:none;stroke-opacity:1" />
    <path
       id="path127"
       d="m 119.46999,172.59812 4.02166,0.0176"
       style="fill:none;stroke:#000000;stroke-width:0.264583;stroke-linecap:butt;stroke-linejoin:round;stroke-miterlimit:8;stroke-dasharray:none;stroke-opacity:1" />
    <path
       id="path128"
       d="m 0,0 c -2.361,0 -4.275,-1.914 -4.275,-4.275 0,-2.361 1.914,-4.275 4.275,-4.275 2.361,0 4.275,1.914 4.275,4.275 C 4.275,-1.914 2.361,0 0,0"
       style="fill:#ffffff;fill-opacity:1;fill-rule:evenodd;stroke:#ff0000;stroke-width:0.56693;stroke-linecap:round;stroke-linejoin:round;stroke-miterlimit:8;stroke-dasharray:none;stroke-opacity:1"
       transform="matrix(0.35277732,0,0,-0.35277732,125.49368,168.57646)"
       clip-path="url(#clipPath129)" />
    <path
       id="path130"
       d="m 124.44417,171.09882 2.08139,-2.04611"
       style="fill:none;stroke:#ff0000;stroke-width:0.264583;stroke-linecap:butt;stroke-linejoin:round;stroke-miterlimit:8;stroke-dasharray:none;stroke-opacity:1" />
    <path
       id="path131"
       d="m 126.52171,171.07145 -2.0599,-1.96582"
       style="fill:none;stroke:#ff0000;stroke-width:0.264583;stroke-linecap:butt;stroke-linejoin:round;stroke-miterlimit:8;stroke-dasharray:none;stroke-opacity:1"
       sodipodi:nodetypes="cc" />
    <path
       id="path132"
       d="m 123.49166,167.57105 4.02166,0.0176"
       style="fill:none;stroke:#000000;stroke-width:0.264583;stroke-linecap:butt;stroke-linejoin:round;stroke-miterlimit:8;stroke-dasharray:none;stroke-opacity:1" />
    <path
       id="path133"
       d="m 127.51332,167.57105 0.0176,5.02708"
       style="fill:none;stroke:#000000;stroke-width:0.264583;stroke-linecap:butt;stroke-linejoin:round;stroke-miterlimit:8;stroke-dasharray:none;stroke-opacity:1" />
    <path
       id="path134"
       d="m 123.49166,167.57105 0.0176,5.02708"
       style="fill:none;stroke:#000000;stroke-width:0.264583;stroke-linecap:butt;stroke-linejoin:round;stroke-miterlimit:8;stroke-dasharray:none;stroke-opacity:1" />
    <path
       id="path135"
       d="m 127.51332,172.59812 4.02166,0.0176"
       style="fill:none;stroke:#000000;stroke-width:0.264583;stroke-linecap:butt;stroke-linejoin:round;stroke-miterlimit:8;stroke-dasharray:none;stroke-opacity:1" />
    <path
       id="path136"
       d="m 0,0 c -2.361,0 -4.275,-1.914 -4.275,-4.275 0,-2.361 1.914,-4.275 4.275,-4.275 2.361,0 4.275,1.914 4.275,4.275 C 4.275,-1.914 2.361,0 0,0"
       style="fill:#ffffff;fill-opacity:1;fill-rule:evenodd;stroke:#ff0000;stroke-width:0.56693;stroke-linecap:round;stroke-linejoin:round;stroke-miterlimit:8;stroke-dasharray:none;stroke-opacity:1"
       transform="matrix(0.35277732,0,0,-0.35277732,133.53699,168.55882)"
       clip-path="url(#clipPath137)" />
    <path
       id="path138"
       d="m 132.48748,171.08118 2.08139,-2.04611"
       style="fill:none;stroke:#ff0000;stroke-width:0.264583;stroke-linecap:butt;stroke-linejoin:round;stroke-miterlimit:8;stroke-dasharray:none;stroke-opacity:1" />
    <path
       id="path139"
       d="m 134.66161,171.09213 -2.15649,-2.00411"
       style="fill:none;stroke:#ff0000;stroke-width:0.264583;stroke-linecap:butt;stroke-linejoin:round;stroke-miterlimit:8;stroke-dasharray:none;stroke-opacity:1"
       sodipodi:nodetypes="cc" />
    <path
       id="path140"
       d="m 131.53498,167.55341 4.02166,0.0176"
       style="fill:none;stroke:#000000;stroke-width:0.264583;stroke-linecap:butt;stroke-linejoin:round;stroke-miterlimit:8;stroke-dasharray:none;stroke-opacity:1" />
    <path
       id="path141"
       d="m 135.55664,167.55341 0.0176,5.02708"
       style="fill:none;stroke:#000000;stroke-width:0.264583;stroke-linecap:butt;stroke-linejoin:round;stroke-miterlimit:8;stroke-dasharray:none;stroke-opacity:1" />
    <path
       id="path142"
       d="m 131.53498,167.55341 0.0176,5.02708"
       style="fill:none;stroke:#000000;stroke-width:0.264583;stroke-linecap:butt;stroke-linejoin:round;stroke-miterlimit:8;stroke-dasharray:none;stroke-opacity:1" />
    <path
       id="path143"
       d="m 135.55664,172.58048 4.02166,0.0176"
       style="fill:none;stroke:#000000;stroke-width:0.264583;stroke-linecap:butt;stroke-linejoin:round;stroke-miterlimit:8;stroke-dasharray:none;stroke-opacity:1" />
    <path
       id="path144"
       d="m 0,0 c -2.361,0 -4.275,-1.914 -4.275,-4.275 0,-2.361 1.914,-4.275 4.275,-4.275 2.361,0 4.275,1.914 4.275,4.275 C 4.275,-1.914 2.361,0 0,0"
       style="fill:#ffffff;fill-opacity:1;fill-rule:evenodd;stroke:#ff0000;stroke-width:0.56693;stroke-linecap:round;stroke-linejoin:round;stroke-miterlimit:8;stroke-dasharray:none;stroke-opacity:1"
       transform="matrix(0.35277732,0,0,-0.35277732,141.58031,168.55882)"
       clip-path="url(#clipPath145)" />
    <path
       id="path146"
       d="m 140.5308,171.08118 2.08139,-2.04611"
       style="fill:none;stroke:#ff0000;stroke-width:0.264583;stroke-linecap:butt;stroke-linejoin:round;stroke-miterlimit:8;stroke-dasharray:none;stroke-opacity:1" />
    <path
       id="path147"
       d="m 142.67425,171.10508 -2.12581,-2.01706"
       style="fill:none;stroke:#ff0000;stroke-width:0.264583;stroke-linecap:butt;stroke-linejoin:round;stroke-miterlimit:8;stroke-dasharray:none;stroke-opacity:1"
       sodipodi:nodetypes="cc" />
    <path
       id="path148"
       d="m 139.57831,167.55341 4.02166,0.0176"
       style="fill:none;stroke:#000000;stroke-width:0.264583;stroke-linecap:butt;stroke-linejoin:round;stroke-miterlimit:8;stroke-dasharray:none;stroke-opacity:1" />
    <path
       id="path149"
       d="m 143.59997,167.55341 0.0176,5.02708"
       style="fill:none;stroke:#000000;stroke-width:0.264583;stroke-linecap:butt;stroke-linejoin:round;stroke-miterlimit:8;stroke-dasharray:none;stroke-opacity:1" />
    <path
       id="path150"
       d="m 139.57831,167.55341 0.0176,5.02708"
       style="fill:none;stroke:#000000;stroke-width:0.264583;stroke-linecap:butt;stroke-linejoin:round;stroke-miterlimit:8;stroke-dasharray:none;stroke-opacity:1" />
    <path
       id="path151"
       d="m 143.59997,172.58048 4.02165,0.0176"
       style="fill:none;stroke:#000000;stroke-width:0.264583;stroke-linecap:butt;stroke-linejoin:round;stroke-miterlimit:8;stroke-dasharray:none;stroke-opacity:1" />
    <path
       id="path154"
       d="m 147.62164,167.5358 0.0176,5.02708"
       style="fill:none;stroke:#000000;stroke-width:0.264583;stroke-linecap:butt;stroke-linejoin:round;stroke-miterlimit:8;stroke-dasharray:none;stroke-opacity:1" />
    <path
       id="path165"
       d="m 0,0 c -2.361,0 -4.275,-1.914 -4.275,-4.275 0,-2.361 1.914,-4.275 4.275,-4.275 2.361,0 4.275,1.914 4.275,4.275 C 4.275,-1.914 2.361,0 0,0"
       style="fill:#ffffff;fill-opacity:1;fill-rule:evenodd;stroke:#ff0000;stroke-width:0.56693;stroke-linecap:round;stroke-linejoin:round;stroke-miterlimit:8;stroke-dasharray:none;stroke-opacity:1"
       transform="matrix(0.35277732,0,0,-0.35277732,61.129449,168.57646)"
       clip-path="url(#clipPath166)" />
    <path
       id="path167"
       d="m 0,0 c -0.787,0 -1.425,-0.638 -1.425,-1.425 0,-0.787 0.638,-1.425 1.425,-1.425 0.787,0 1.425,0.638 1.425,1.425 C 1.425,-0.638 0.787,0 0,0"
       style="fill:#ff0000;fill-opacity:1;fill-rule:evenodd;stroke:#ff0000;stroke-width:0.75;stroke-linecap:round;stroke-linejoin:round;stroke-miterlimit:8;stroke-dasharray:none;stroke-opacity:1"
       transform="matrix(0.35277732,0,0,-0.35277732,61.129449,169.58188)"
       clip-path="url(#clipPath168)" />
    <path
       id="path169"
       d="m 0,0 c -2.361,0 -4.275,-1.914 -4.275,-4.275 0,-2.361 1.914,-4.275 4.275,-4.275 2.361,0 4.275,1.914 4.275,4.275 C 4.275,-1.914 2.361,0 0,0"
       style="fill:#ffffff;fill-opacity:1;fill-rule:evenodd;stroke:#ff0000;stroke-width:0.56693;stroke-linecap:round;stroke-linejoin:round;stroke-miterlimit:8;stroke-dasharray:none;stroke-opacity:1"
       transform="matrix(0.35277732,0,0,-0.35277732,69.243329,168.57646)"
       clip-path="url(#clipPath170)" />
    <path
       id="path171"
       d="m 0,0 c -0.787,0 -1.425,-0.638 -1.425,-1.425 0,-0.787 0.638,-1.425 1.425,-1.425 0.787,0 1.425,0.638 1.425,1.425 C 1.425,-0.638 0.787,0 0,0"
       style="fill:#ff0000;fill-opacity:1;fill-rule:evenodd;stroke:#ff0000;stroke-width:0.75;stroke-linecap:round;stroke-linejoin:round;stroke-miterlimit:8;stroke-dasharray:none;stroke-opacity:1"
       transform="matrix(0.35277732,0,0,-0.35277732,69.243329,169.58188)"
       clip-path="url(#clipPath172)" />
    <path
       style="fill:none;fill-opacity:1;fill-rule:evenodd;stroke:#ff0000;stroke-width:0.198606;stroke-linecap:square;stroke-miterlimit:3.9;stroke-opacity:1"
       d="m 70.567639,169.22332 26.793449,-12.62736 26.827952,12.73263"
       id="path2"
       sodipodi:nodetypes="ccc" />
    <path
       style="fill:none;fill-opacity:1;fill-rule:evenodd;stroke:#ff0000;stroke-width:0.198606;stroke-linecap:square;stroke-miterlimit:3.9;stroke-opacity:1"
       d="m 62.565389,169.20319 34.82655,-14.94886 34.871391,15.07349"
       id="path2-4"
       sodipodi:nodetypes="ccc" />
    <path
       style="fill:none;fill-opacity:1;fill-rule:evenodd;stroke:#ff0000;stroke-width:0.198606;stroke-linecap:square;stroke-miterlimit:3.9;stroke-opacity:1"
       d="m 54.549308,169.18637 42.830566,-16.88358 42.885686,17.02434"
       id="path2-4-2"
       sodipodi:nodetypes="ccc" />
    <path
       id="path177"
       d="m 62.683919,177.57449 68.862151,0.0169"
       style="fill:none;stroke:#000000;stroke-width:0.352777;stroke-linecap:butt;stroke-linejoin:round;stroke-miterlimit:8;stroke-dasharray:none;stroke-opacity:1" />
    <path
       id="path178"
       d="m 131.27603,176.88556 2.11631,0.70626 -2.11666,0.70485 z"
       style="fill:#000000;fill-opacity:1;fill-rule:evenodd;stroke:none;stroke-width:0.352777" />
    <path
       id="path178-1"
       d="m 123.39847,181.26399 2.11631,0.70626 -2.11665,0.70485 z"
       style="fill:#000000;fill-opacity:1;fill-rule:evenodd;stroke:none;stroke-width:0.352777" />
    <path
       id="path179"
       d="m 63.270049,178.28005 -2.11667,-0.70591 2.11702,-0.7052 z"
       style="fill:#000000;fill-opacity:1;fill-rule:evenodd;stroke:none;stroke-width:0.352777" />
    <path
       id="path177-3"
       d="m 70.866634,181.9611 52.624906,0.0169"
       style="fill:none;stroke:#000000;stroke-width:0.353124;stroke-linecap:butt;stroke-linejoin:round;stroke-miterlimit:8;stroke-dasharray:none;stroke-opacity:1" />
    <path
       id="path179-9"
       d="m 71.389939,182.66666 -2.11666,-0.70591 2.11701,-0.7052 z"
       style="fill:#000000;fill-opacity:1;fill-rule:evenodd;stroke:none;stroke-width:0.352777" />
    <g
       inkscape:label=""
       transform="translate(95.254089,173.99143)"
       id="g269">
      <g
         fill="#000000"
         fill-opacity="1"
         id="g266"
         transform="matrix(0.352778,0,0,0.352778,-0.818841,-0.660885)">
        <g
           id="g265"
           transform="translate(1.993,7.1389999)">
          <path
             d="M 0.375,2.0625 C 0.359375,2.125 0.328125,2.203125 0.328125,2.265625 c 0,0.1875 0.15625,0.296875 0.328125,0.296875 C 0.84375,2.5625 1,2.453125 1.078125,2.28125 1.125,2.171875 1.453125,0.734375 1.84375,-0.734375 2.078125,-0.125 2.515625,0.125 2.984375,0.125 4.34375,0.125 5.875,-1.546875 5.875,-3.359375 c 0,-1.28125 -0.78125,-1.90625 -1.609375,-1.90625 -1.046875,0 -2.328125,1.078125 -2.71875,2.671875 z M 2.96875,-0.125 c -0.8125,0 -1.015625,-0.9375 -1.015625,-1.078125 0,-0.078125 0.3125,-1.21875 0.34375,-1.390625 0.609375,-2.375 1.78125,-2.4375 1.953125,-2.4375 0.546875,0 0.84375,0.484375 0.84375,1.1875 0,0.609375 -0.328125,1.796875 -0.53125,2.296875 C 4.203125,-0.71875 3.578125,-0.125 2.96875,-0.125 Z m 0,0"
             id="path264" />
        </g>
      </g>
      <g
         fill="#000000"
         fill-opacity="1"
         id="g268"
         transform="matrix(0.352778,0,0,0.352778,-0.818841,-0.660885)">
        <g
           id="g267"
           transform="translate(8.0299997,8.9329996)">
          <path
             d="m 2.09375,1.28125 c -0.515625,0 -0.609375,0 -0.609375,-0.359375 v -1.3125 c 0.375,0.40625 0.78125,0.46875 1.046875,0.46875 1,0 1.890625,-0.78125 1.890625,-1.796875 0,-1 -0.8125,-1.796875 -1.78125,-1.796875 -0.3125,0 -0.765625,0.078125 -1.171875,0.5 v -0.5 l -1.1875,0.09375 v 0.265625 c 0.5625,0 0.609375,0.046875 0.609375,0.375 v 3.703125 c 0,0.359375 -0.109375,0.359375 -0.609375,0.359375 v 0.265625 c 0.34375,-0.03125 0.6875,-0.03125 0.90625,-0.03125 0.234375,0 0.5625,0 0.90625,0.03125 z m -0.609375,-3.9375 c 0.1875,-0.3125 0.59375,-0.609375 1.09375,-0.609375 0.609375,0 1.125,0.671875 1.125,1.546875 0,0.90625 -0.578125,1.578125 -1.21875,1.578125 -0.28125,0 -0.640625,-0.125 -0.90625,-0.515625 -0.09375,-0.140625 -0.09375,-0.15625 -0.09375,-0.296875 z m 0,0"
             id="path266" />
        </g>
      </g>
    </g>
    <path
       id="path178-1-6"
       d="m 131.28596,185.52602 2.11631,0.70626 -2.11666,0.70485 z"
       style="fill:#000000;fill-opacity:1;fill-rule:evenodd;stroke:none;stroke-width:0.352777" />
    <path
       id="path177-3-5"
       d="m 63.200389,186.22314 68.998851,0.0169"
       style="fill:none;stroke:#000000;stroke-width:0.353124;stroke-linecap:butt;stroke-linejoin:round;stroke-miterlimit:8;stroke-dasharray:none;stroke-opacity:1" />
    <path
       id="path179-9-2"
       d="m 63.161819,186.92869 -2.11667,-0.7059 2.11702,-0.7052 z"
       style="fill:#000000;fill-opacity:1;fill-rule:evenodd;stroke:none;stroke-width:0.352777" />
    <path
       id="path178-1-6-5"
       d="m 139.48018,189.78806 2.11631,0.70626 -2.11666,0.70485 z"
       style="fill:#000000;fill-opacity:1;fill-rule:evenodd;stroke:none;stroke-width:0.352777" />
    <path
       id="path177-3-5-5"
       d="m 54.972735,190.48518 85.104565,0.0169"
       style="fill:none;stroke:#000000;stroke-width:0.353124;stroke-linecap:butt;stroke-linejoin:round;stroke-miterlimit:8;stroke-dasharray:none;stroke-opacity:1" />
    <path
       id="path179-9-2-2"
       d="m 55.297179,191.19073 -2.11666,-0.7059 2.11701,-0.7052 z"
       style="fill:#000000;fill-opacity:1;fill-rule:evenodd;stroke:none;stroke-width:0.352777" />
    <g
       inkscape:label=""
       transform="translate(90.0527, 179.091)"
       id="g5">
      <g
         fill="#000000"
         fill-opacity="1"
         id="g1"
         transform="matrix(0.352778,0,0,0.352778,4.6244257,-0.89138757)">
        <g
           id="use2"
           transform="translate(1.993,7.1399999)">
          <path
             d="m 3.140625,1.34375 c -0.3125,0.453125 -0.78125,0.859375 -1.375,0.859375 C 1.625,2.203125 1.046875,2.171875 0.875,1.625 c 0.03125,0.015625 0.09375,0.015625 0.109375,0.015625 0.359375,0 0.609375,-0.3125 0.609375,-0.59375 C 1.59375,0.78125 1.359375,0.6875 1.1875,0.6875 c -0.203125,0 -0.609375,0.140625 -0.609375,0.71875 0,0.609375 0.515625,1.03125 1.1875,1.03125 C 2.96875,2.4375 4.171875,1.34375 4.5,0.015625 L 5.671875,-4.65625 C 5.6875,-4.703125 5.71875,-4.78125 5.71875,-4.859375 5.71875,-5.03125 5.5625,-5.15625 5.390625,-5.15625 5.28125,-5.15625 5.03125,-5.109375 4.9375,-4.75 L 4.046875,-1.234375 C 4,-1.015625 4,-0.984375 3.890625,-0.859375 3.65625,-0.53125 3.265625,-0.125 2.6875,-0.125 c -0.671875,0 -0.734375,-0.65625 -0.734375,-0.96875 0,-0.6875 0.328125,-1.609375 0.65625,-2.46875 0.125,-0.34375 0.203125,-0.515625 0.203125,-0.75 0,-0.5 -0.359375,-0.953125 -0.953125,-0.953125 -1.09375,0 -1.53125,1.734375 -1.53125,1.828125 0,0.046875 0.046875,0.109375 0.125,0.109375 0.109375,0 0.125,-0.046875 0.171875,-0.21875 0.28125,-1 0.734375,-1.484375 1.203125,-1.484375 0.109375,0 0.3125,0 0.3125,0.390625 0,0.3125 -0.125,0.65625 -0.3125,1.109375 C 1.25,-1.953125 1.25,-1.5625 1.25,-1.28125 1.25,-0.140625 2.0625,0.125 2.65625,0.125 3,0.125 3.4375,0.015625 3.84375,-0.4375 l 0.015625,0.015625 C 3.6875,0.28125 3.5625,0.75 3.140625,1.34375 Z m 0,0"
             id="path4" />
        </g>
      </g>
      <g
         fill="#000000"
         fill-opacity="1"
         id="g4"
         transform="matrix(0.352778,0,0,0.352778,4.6244257,-0.89138757)">
        <g
           id="use3"
           transform="translate(7.6999998,8.9329996)">
          <path
             d="m 2.5,-5.078125 c 0,-0.21875 -0.015625,-0.21875 -0.234375,-0.21875 -0.328125,0.3125 -0.75,0.5 -1.5,0.5 v 0.265625 c 0.21875,0 0.640625,0 1.109375,-0.203125 v 4.078125 c 0,0.296875 -0.03125,0.390625 -0.78125,0.390625 H 0.8125 V 0 c 0.328125,-0.03125 1.015625,-0.03125 1.375,-0.03125 0.359375,0 1.046875,0 1.375,0.03125 V -0.265625 H 3.28125 c -0.75,0 -0.78125,-0.09375 -0.78125,-0.390625 z m 0,0"
             id="path5" />
        </g>
      </g>
    </g>
    <g
       inkscape:label=""
       transform="translate(95.50699,183.19778)"
       id="g10">
      <g
         fill="#000000"
         fill-opacity="1"
         id="g7"
         transform="matrix(0.352778,0,0,0.352778,-0.818841,-0.661238)">
        <g
           id="g6"
           transform="translate(1.993,7.1399999)">
          <path
             d="m 3.140625,1.34375 c -0.3125,0.453125 -0.78125,0.859375 -1.375,0.859375 C 1.625,2.203125 1.046875,2.171875 0.875,1.625 c 0.03125,0.015625 0.09375,0.015625 0.109375,0.015625 0.359375,0 0.609375,-0.3125 0.609375,-0.59375 C 1.59375,0.78125 1.359375,0.6875 1.1875,0.6875 c -0.203125,0 -0.609375,0.140625 -0.609375,0.71875 0,0.609375 0.515625,1.03125 1.1875,1.03125 C 2.96875,2.4375 4.171875,1.34375 4.5,0.015625 L 5.671875,-4.65625 C 5.6875,-4.703125 5.71875,-4.78125 5.71875,-4.859375 5.71875,-5.03125 5.5625,-5.15625 5.390625,-5.15625 5.28125,-5.15625 5.03125,-5.109375 4.9375,-4.75 L 4.046875,-1.234375 C 4,-1.015625 4,-0.984375 3.890625,-0.859375 3.65625,-0.53125 3.265625,-0.125 2.6875,-0.125 c -0.671875,0 -0.734375,-0.65625 -0.734375,-0.96875 0,-0.6875 0.328125,-1.609375 0.65625,-2.46875 0.125,-0.34375 0.203125,-0.515625 0.203125,-0.75 0,-0.5 -0.359375,-0.953125 -0.953125,-0.953125 -1.09375,0 -1.53125,1.734375 -1.53125,1.828125 0,0.046875 0.046875,0.109375 0.125,0.109375 0.109375,0 0.125,-0.046875 0.171875,-0.21875 0.28125,-1 0.734375,-1.484375 1.203125,-1.484375 0.109375,0 0.3125,0 0.3125,0.390625 0,0.3125 -0.125,0.65625 -0.3125,1.109375 C 1.25,-1.953125 1.25,-1.5625 1.25,-1.28125 1.25,-0.140625 2.0625,0.125 2.65625,0.125 3,0.125 3.4375,0.015625 3.84375,-0.4375 l 0.015625,0.015625 C 3.6875,0.28125 3.5625,0.75 3.140625,1.34375 Z m 0,0"
             id="path6" />
        </g>
      </g>
      <g
         fill="#000000"
         fill-opacity="1"
         id="g9"
         transform="matrix(0.352778,0,0,0.352778,-0.818841,-0.661238)">
        <g
           id="g8"
           transform="translate(7.6999998,8.9329996)">
          <path
             d="m 2.25,-1.625 c 0.125,-0.125 0.453125,-0.390625 0.59375,-0.5 0.484375,-0.453125 0.953125,-0.890625 0.953125,-1.609375 0,-0.953125 -0.796875,-1.5625 -1.78125,-1.5625 -0.96875,0 -1.59375,0.71875 -1.59375,1.4375 0,0.390625 0.3125,0.4375 0.421875,0.4375 0.171875,0 0.421875,-0.109375 0.421875,-0.421875 0,-0.40625 -0.40625,-0.40625 -0.5,-0.40625 C 1,-4.84375 1.53125,-5.03125 1.921875,-5.03125 c 0.734375,0 1.125,0.625 1.125,1.296875 0,0.828125 -0.578125,1.4375 -1.53125,2.390625 l -1,1.046875 C 0.421875,-0.21875 0.421875,-0.203125 0.421875,0 H 3.5625 l 0.234375,-1.421875 h -0.25 C 3.53125,-1.265625 3.46875,-0.875 3.375,-0.71875 c -0.046875,0.0625 -0.65625,0.0625 -0.78125,0.0625 H 1.171875 Z m 0,0"
             id="path7" />
        </g>
      </g>
    </g>
    <g
       inkscape:label=""
       transform="translate(95.443561,187.36975)"
       id="g15">
      <g
         fill="#000000"
         fill-opacity="1"
         id="g12"
         transform="matrix(0.352778,0,0,0.352778,-0.818841,-0.661238)">
        <g
           id="g11"
           transform="translate(1.993,7.1399999)">
          <path
             d="m 3.140625,1.34375 c -0.3125,0.453125 -0.78125,0.859375 -1.375,0.859375 C 1.625,2.203125 1.046875,2.171875 0.875,1.625 c 0.03125,0.015625 0.09375,0.015625 0.109375,0.015625 0.359375,0 0.609375,-0.3125 0.609375,-0.59375 C 1.59375,0.78125 1.359375,0.6875 1.1875,0.6875 c -0.203125,0 -0.609375,0.140625 -0.609375,0.71875 0,0.609375 0.515625,1.03125 1.1875,1.03125 C 2.96875,2.4375 4.171875,1.34375 4.5,0.015625 L 5.671875,-4.65625 C 5.6875,-4.703125 5.71875,-4.78125 5.71875,-4.859375 5.71875,-5.03125 5.5625,-5.15625 5.390625,-5.15625 5.28125,-5.15625 5.03125,-5.109375 4.9375,-4.75 L 4.046875,-1.234375 C 4,-1.015625 4,-0.984375 3.890625,-0.859375 3.65625,-0.53125 3.265625,-0.125 2.6875,-0.125 c -0.671875,0 -0.734375,-0.65625 -0.734375,-0.96875 0,-0.6875 0.328125,-1.609375 0.65625,-2.46875 0.125,-0.34375 0.203125,-0.515625 0.203125,-0.75 0,-0.5 -0.359375,-0.953125 -0.953125,-0.953125 -1.09375,0 -1.53125,1.734375 -1.53125,1.828125 0,0.046875 0.046875,0.109375 0.125,0.109375 0.109375,0 0.125,-0.046875 0.171875,-0.21875 0.28125,-1 0.734375,-1.484375 1.203125,-1.484375 0.109375,0 0.3125,0 0.3125,0.390625 0,0.3125 -0.125,0.65625 -0.3125,1.109375 C 1.25,-1.953125 1.25,-1.5625 1.25,-1.28125 1.25,-0.140625 2.0625,0.125 2.65625,0.125 3,0.125 3.4375,0.015625 3.84375,-0.4375 l 0.015625,0.015625 C 3.6875,0.28125 3.5625,0.75 3.140625,1.34375 Z m 0,0"
             id="path10" />
        </g>
      </g>
      <g
         fill="#000000"
         fill-opacity="1"
         id="g14"
         transform="matrix(0.352778,0,0,0.352778,-0.818841,-0.661238)">
        <g
           id="g13"
           transform="translate(7.6999998,8.9329996)">
          <path
             d="m 2.015625,-2.65625 c 0.625,0 1.03125,0.453125 1.03125,1.296875 0,1 -0.5625,1.28125 -0.984375,1.28125 -0.4375,0 -1.046875,-0.15625 -1.328125,-0.578125 0.296875,0 0.5,-0.1875 0.5,-0.4375 0,-0.265625 -0.1875,-0.4375 -0.453125,-0.4375 -0.203125,0 -0.4375,0.125 -0.4375,0.453125 0,0.75 0.8125,1.25 1.734375,1.25 C 3.125,0.171875 3.875,-0.5625 3.875,-1.359375 3.875,-2.03125 3.34375,-2.625 2.53125,-2.8125 c 0.625,-0.21875 1.109375,-0.75 1.109375,-1.390625 0,-0.640625 -0.71875,-1.09375 -1.546875,-1.09375 -0.859375,0 -1.5,0.453125 -1.5,1.0625 0,0.296875 0.1875,0.421875 0.40625,0.421875 0.25,0 0.40625,-0.171875 0.40625,-0.40625 0,-0.296875 -0.265625,-0.40625 -0.4375,-0.40625 0.34375,-0.4375 0.953125,-0.46875 1.09375,-0.46875 0.203125,0 0.8125,0.0625 0.8125,0.890625 0,0.546875 -0.234375,0.890625 -0.34375,1.015625 -0.234375,0.25 -0.421875,0.265625 -0.90625,0.296875 -0.15625,0 -0.21875,0.015625 -0.21875,0.125 0,0.109375 0.078125,0.109375 0.21875,0.109375 z m 0,0"
             id="path12" />
        </g>
      </g>
    </g>
  </g>
</svg>
