<?xml version="1.0" encoding="UTF-8" standalone="no"?>
<!-- Created with Inkscape (http://www.inkscape.org/) -->

<svg
   width="159.86118mm"
   height="32.120293mm"
   viewBox="0 0 159.86118 32.120293"
   version="1.1"
   id="svg1"
   inkscape:version="1.3.2 (091e20e, 2023-11-25, custom)"
   sodipodi:docname="Representation_complex_winding_factor.svg"
   xmlns:inkscape="http://www.inkscape.org/namespaces/inkscape"
   xmlns:sodipodi="http://sodipodi.sourceforge.net/DTD/sodipodi-0.dtd"
   xmlns="http://www.w3.org/2000/svg"
   xmlns:svg="http://www.w3.org/2000/svg">
  <sodipodi:namedview
     id="namedview1"
     pagecolor="#505050"
     bordercolor="#eeeeee"
     borderopacity="1"
     inkscape:showpageshadow="0"
     inkscape:pageopacity="0"
     inkscape:pagecheckerboard="0"
     inkscape:deskcolor="#505050"
     inkscape:document-units="mm"
     inkscape:zoom="3.9660775"
     inkscape:cx="436.95566"
     inkscape:cy="65.682025"
     inkscape:window-width="1920"
     inkscape:window-height="991"
     inkscape:window-x="1911"
     inkscape:window-y="-9"
     inkscape:window-maximized="1"
     inkscape:current-layer="g56" />
  <defs
     id="defs1">
    <marker
       style="overflow:visible"
       id="ArrowWideRounded"
       refX="0"
       refY="0"
       orient="auto-start-reverse"
       inkscape:stockid="Wide, rounded arrow"
       markerWidth="1"
       markerHeight="1"
       viewBox="0 0 1 1"
       inkscape:isstock="true"
       inkscape:collect="always"
       preserveAspectRatio="xMidYMid">
      <path
         style="fill:none;stroke:context-stroke;stroke-width:1;stroke-linecap:round"
         d="M 3,-3 0,0 3,3"
         transform="rotate(180,0.125,0)"
         sodipodi:nodetypes="ccc"
         id="path15" />
    </marker>
    <clipPath
       clipPathUnits="userSpaceOnUse"
       id="clipPath79">
      <path
         d="M 0,0 H 595.32 V 841.92 H 0 Z"
         transform="translate(-198.32501,-642.37002)"
         id="path79" />
    </clipPath>
    <clipPath
       clipPathUnits="userSpaceOnUse"
       id="clipPath81">
      <path
         d="M 0,0 H 595.32 V 841.92 H 0 Z"
         transform="translate(-198.32501,-639.52002)"
         id="path81" />
    </clipPath>
    <clipPath
       clipPathUnits="userSpaceOnUse"
       id="clipPath129">
      <path
         d="M 0,0 H 595.32 V 841.92 H 0 Z"
         transform="translate(-403.47501,-642.37002)"
         id="path129" />
    </clipPath>
    <clipPath
       clipPathUnits="userSpaceOnUse"
       id="clipPath137">
      <path
         d="M 0,0 H 595.32 V 841.92 H 0 Z"
         transform="translate(-426.27501,-642.42002)"
         id="path137" />
    </clipPath>
    <clipPath
       clipPathUnits="userSpaceOnUse"
       id="clipPath145">
      <path
         d="M 0,0 H 595.32 V 841.92 H 0 Z"
         transform="translate(-449.07501,-642.42002)"
         id="path145" />
    </clipPath>
    <clipPath
       clipPathUnits="userSpaceOnUse"
       id="clipPath166">
      <path
         d="M 0,0 H 595.32 V 841.92 H 0 Z"
         transform="translate(-221.025,-642.37002)"
         id="path166" />
    </clipPath>
    <clipPath
       clipPathUnits="userSpaceOnUse"
       id="clipPath168">
      <path
         d="M 0,0 H 595.32 V 841.92 H 0 Z"
         transform="translate(-221.025,-639.52002)"
         id="path168" />
    </clipPath>
    <clipPath
       clipPathUnits="userSpaceOnUse"
       id="clipPath170">
      <path
         d="M 0,0 H 595.32 V 841.92 H 0 Z"
         transform="translate(-244.02501,-642.37002)"
         id="path170" />
    </clipPath>
    <clipPath
       clipPathUnits="userSpaceOnUse"
       id="clipPath172">
      <path
         d="M 0,0 H 595.32 V 841.92 H 0 Z"
         transform="translate(-244.02501,-639.52002)"
         id="path172" />
    </clipPath>
    <clipPath
       clipPathUnits="userSpaceOnUse"
       id="clipPath176">
      <path
         d="m 192.66,639.46 h 56 v 30 h -56 z"
         transform="matrix(1,0,0,-1,-218.65991,660.89782)"
         id="path176" />
    </clipPath>
    <clipPath
       clipPathUnits="userSpaceOnUse"
       id="clipPath182">
      <path
         d="m 397.86,639.46 h 58 v 30 h -58 z"
         transform="matrix(1,0,0,-1,-432.45361,657.21002)"
         id="path182" />
    </clipPath>
    <clipPath
       clipPathUnits="userSpaceOnUse"
       id="clipPath183">
      <path
         d="m 397.86,639.46 h 58 v 30 h -58 z"
         transform="matrix(1,0,0,-1,-424.86001,660.89752)"
         id="path183" />
    </clipPath>
    <clipPath
       clipPathUnits="userSpaceOnUse"
       id="clipPath185">
      <path
         d="M 0,0 H 595.32 V 841.92 H 0 Z"
         transform="translate(-335.07501,-642.37002)"
         id="path185" />
    </clipPath>
    <clipPath
       clipPathUnits="userSpaceOnUse"
       id="clipPath187">
      <path
         d="M 0,0 H 595.32 V 841.92 H 0 Z"
         transform="translate(-335.07501,-639.52002)"
         id="path187" />
    </clipPath>
    <clipPath
       clipPathUnits="userSpaceOnUse"
       id="clipPath189">
      <path
         d="M 0,0 H 595.32 V 841.92 H 0 Z"
         transform="translate(-357.92501,-642.37002)"
         id="path189" />
    </clipPath>
    <clipPath
       clipPathUnits="userSpaceOnUse"
       id="clipPath191">
      <path
         d="M 0,0 H 595.32 V 841.92 H 0 Z"
         transform="translate(-357.92501,-639.52002)"
         id="path191" />
    </clipPath>
    <clipPath
       clipPathUnits="userSpaceOnUse"
       id="clipPath193">
      <path
         d="M 0,0 H 595.32 V 841.92 H 0 Z"
         transform="translate(-380.77501,-642.37002)"
         id="path193" />
    </clipPath>
    <clipPath
       clipPathUnits="userSpaceOnUse"
       id="clipPath195">
      <path
         d="M 0,0 H 595.32 V 841.92 H 0 Z"
         transform="translate(-380.77501,-639.52002)"
         id="path195" />
    </clipPath>
    <clipPath
       clipPathUnits="userSpaceOnUse"
       id="clipPath197">
      <path
         d="M 0,0 H 595.32 V 841.92 H 0 Z"
         transform="translate(-471.57501,-642.37002)"
         id="path197" />
    </clipPath>
    <clipPath
       clipPathUnits="userSpaceOnUse"
       id="clipPath199">
      <path
         d="M 0,0 H 595.32 V 841.92 H 0 Z"
         transform="translate(-471.57501,-639.52002)"
         id="path199" />
    </clipPath>
    <clipPath
       clipPathUnits="userSpaceOnUse"
       id="clipPath201">
      <path
         d="M 0,0 H 595.32 V 841.92 H 0 Z"
         transform="translate(-494.42501,-642.37002)"
         id="path201" />
    </clipPath>
    <clipPath
       clipPathUnits="userSpaceOnUse"
       id="clipPath203">
      <path
         d="M 0,0 H 595.32 V 841.92 H 0 Z"
         transform="translate(-494.42501,-639.52002)"
         id="path203" />
    </clipPath>
    <clipPath
       clipPathUnits="userSpaceOnUse"
       id="clipPath205">
      <path
         d="M 0,0 H 595.32 V 841.92 H 0 Z"
         transform="translate(-517.27501,-642.37002)"
         id="path205" />
    </clipPath>
    <clipPath
       clipPathUnits="userSpaceOnUse"
       id="clipPath207">
      <path
         d="M 0,0 H 595.32 V 841.92 H 0 Z"
         transform="translate(-517.27501,-639.52002)"
         id="path207" />
    </clipPath>
    <clipPath
       clipPathUnits="userSpaceOnUse"
       id="clipPath209">
      <path
         d="M 0,0 H 595.32 V 841.92 H 0 Z"
         transform="translate(-266.475,-642.37002)"
         id="path209" />
    </clipPath>
    <clipPath
       clipPathUnits="userSpaceOnUse"
       id="clipPath213">
      <path
         d="M 0,0 H 595.32 V 841.92 H 0 Z"
         transform="translate(-289.275,-642.42002)"
         id="path213" />
    </clipPath>
    <clipPath
       clipPathUnits="userSpaceOnUse"
       id="clipPath217">
      <path
         d="M 0,0 H 595.32 V 841.92 H 0 Z"
         transform="translate(-312.07501,-642.42002)"
         id="path217" />
    </clipPath>
    <clipPath
       clipPathUnits="userSpaceOnUse"
       id="clipPath221">
      <path
         d="M 0,0 H 595.32 V 841.92 H 0 Z"
         transform="translate(-129.925,-642.37002)"
         id="path221" />
    </clipPath>
    <clipPath
       clipPathUnits="userSpaceOnUse"
       id="clipPath225">
      <path
         d="M 0,0 H 595.32 V 841.92 H 0 Z"
         transform="translate(-152.725,-642.42002)"
         id="path225" />
    </clipPath>
    <clipPath
       clipPathUnits="userSpaceOnUse"
       id="clipPath229">
      <path
         d="M 0,0 H 595.32 V 841.92 H 0 Z"
         transform="translate(-175.525,-642.42002)"
         id="path229" />
    </clipPath>
    <clipPath
       clipPathUnits="userSpaceOnUse"
       id="clipPath232">
      <path
         d="m 261.16,639.46 h 57 v 30 h -57 z"
         transform="matrix(1,0,0,-1,-287.5974,660.89782)"
         id="path232" />
    </clipPath>
    <clipPath
       clipPathUnits="userSpaceOnUse"
       id="clipPath233">
      <path
         d="m 329.66,639.46 h 58 v 30 h -58 z"
         transform="matrix(1,0,0,-1,-364.25371,657.21002)"
         id="path233" />
    </clipPath>
    <clipPath
       clipPathUnits="userSpaceOnUse"
       id="clipPath234">
      <path
         d="m 329.66,639.46 h 58 v 30 h -58 z"
         transform="matrix(1,0,0,-1,-356.59731,660.89752)"
         id="path234" />
    </clipPath>
    <clipPath
       clipPathUnits="userSpaceOnUse"
       id="clipPath235">
      <path
         d="m 466.66,639.46 h 58 v 30 h -58 z"
         transform="matrix(1,0,0,-1,-501.25362,657.21002)"
         id="path235" />
    </clipPath>
    <clipPath
       clipPathUnits="userSpaceOnUse"
       id="clipPath236">
      <path
         d="m 466.66,639.46 h 58 v 30 h -58 z"
         transform="matrix(1,0,0,-1,-493.84741,660.89752)"
         id="path236" />
    </clipPath>
    <clipPath
       clipPathUnits="userSpaceOnUse"
       id="clipPath237">
      <path
         d="m 124.16,639.46 h 58 v 30 h -58 z"
         transform="matrix(1,0,0,-1,-158.7537,657.21002)"
         id="path237" />
    </clipPath>
    <clipPath
       clipPathUnits="userSpaceOnUse"
       id="clipPath238">
      <path
         d="m 124.16,639.46 h 58 v 30 h -58 z"
         transform="matrix(1,0,0,-1,-151.0975,660.89752)"
         id="path238" />
    </clipPath>
    <marker
       style="overflow:visible"
       id="ArrowWideRounded-7"
       refX="0"
       refY="0"
       orient="auto-start-reverse"
       inkscape:stockid="Wide, rounded arrow"
       markerWidth="1"
       markerHeight="1"
       viewBox="0 0 1 1"
       inkscape:isstock="true"
       inkscape:collect="always"
       preserveAspectRatio="xMidYMid">
      <path
         style="fill:none;stroke:context-stroke;stroke-width:1;stroke-linecap:round"
         d="M 3,-3 0,0 3,3"
         transform="rotate(180,0.125,0)"
         sodipodi:nodetypes="ccc"
         id="path15-7" />
    </marker>
    <marker
       style="overflow:visible"
       id="ArrowWideRounded-7-5"
       refX="0"
       refY="0"
       orient="auto-start-reverse"
       inkscape:stockid="Wide, rounded arrow"
       markerWidth="1"
       markerHeight="1"
       viewBox="0 0 1 1"
       inkscape:isstock="true"
       inkscape:collect="always"
       preserveAspectRatio="xMidYMid">
      <path
         style="fill:none;stroke:context-stroke;stroke-width:1;stroke-linecap:round"
         d="M 3,-3 0,0 3,3"
         transform="rotate(180,0.125,0)"
         sodipodi:nodetypes="ccc"
         id="path15-7-6" />
    </marker>
    <marker
       style="overflow:visible"
       id="ArrowWideRounded-7-5-4"
       refX="0"
       refY="0"
       orient="auto-start-reverse"
       inkscape:stockid="Wide, rounded arrow"
       markerWidth="1"
       markerHeight="1"
       viewBox="0 0 1 1"
       inkscape:isstock="true"
       inkscape:collect="always"
       preserveAspectRatio="xMidYMid">
      <path
         style="fill:none;stroke:context-stroke;stroke-width:1;stroke-linecap:round"
         d="M 3,-3 0,0 3,3"
         transform="rotate(180,0.125,0)"
         sodipodi:nodetypes="ccc"
         id="path15-7-6-7" />
    </marker>
    <marker
       style="overflow:visible"
       id="ArrowWideRounded-7-5-4-9"
       refX="0"
       refY="0"
       orient="auto-start-reverse"
       inkscape:stockid="Wide, rounded arrow"
       markerWidth="1"
       markerHeight="1"
       viewBox="0 0 1 1"
       inkscape:isstock="true"
       inkscape:collect="always"
       preserveAspectRatio="xMidYMid">
      <path
         style="fill:none;stroke:context-stroke;stroke-width:1;stroke-linecap:round"
         d="M 3,-3 0,0 3,3"
         transform="rotate(180,0.125,0)"
         sodipodi:nodetypes="ccc"
         id="path15-7-6-7-5" />
    </marker>
    <marker
       style="overflow:visible"
       id="ArrowWideRounded-7-5-4-9-8"
       refX="0"
       refY="0"
       orient="auto-start-reverse"
       inkscape:stockid="Wide, rounded arrow"
       markerWidth="1"
       markerHeight="1"
       viewBox="0 0 1 1"
       inkscape:isstock="true"
       inkscape:collect="always"
       preserveAspectRatio="xMidYMid">
      <path
         style="fill:none;stroke:context-stroke;stroke-width:1;stroke-linecap:round"
         d="M 3,-3 0,0 3,3"
         transform="rotate(180,0.125,0)"
         sodipodi:nodetypes="ccc"
         id="path15-7-6-7-5-4" />
    </marker>
  </defs>
  <g
     inkscape:label="Layer 1"
     inkscape:groupmode="layer"
     id="layer1"
     transform="translate(-29.165808,-46.432805)">
    <g
       id="g2"
       transform="matrix(0.26458333,0,0,0.26458333,28.882933,39.959968)" />
    <g
       id="g3"
       transform="matrix(0.26458333,0,0,0.26458333,28.882933,39.959968)" />
    <g
       id="g4"
       transform="matrix(0.26458333,0,0,0.26458333,28.882933,39.959968)" />
    <g
       id="g5"
       transform="matrix(0.26458333,0,0,0.26458333,28.882933,39.959968)" />
    <g
       id="g6"
       transform="matrix(0.26458333,0,0,0.26458333,28.882933,39.959968)" />
    <g
       id="g7"
       transform="matrix(0.26458333,0,0,0.26458333,28.882933,39.959968)" />
    <g
       id="g8"
       transform="matrix(0.26458333,0,0,0.26458333,28.882933,39.959968)" />
    <g
       id="g9"
       transform="matrix(0.26458333,0,0,0.26458333,28.882933,39.959968)" />
    <g
       id="g10"
       transform="matrix(0.26458333,0,0,0.26458333,28.882933,39.959968)" />
    <g
       id="g11"
       transform="matrix(0.26458333,0,0,0.26458333,28.882933,39.959968)" />
    <g
       id="g12"
       transform="matrix(0.26458333,0,0,0.26458333,28.882933,39.959968)" />
    <g
       id="g13"
       transform="matrix(0.26458333,0,0,0.26458333,28.882933,39.959968)" />
    <g
       id="g14"
       transform="matrix(0.26458333,0,0,0.26458333,28.882933,39.959968)" />
    <g
       id="g15"
       transform="matrix(0.26458333,0,0,0.26458333,28.882933,39.959968)" />
    <g
       id="g16"
       transform="matrix(0.26458333,0,0,0.26458333,28.882933,39.959968)" />
    <g
       id="g17"
       transform="matrix(0.26458333,0,0,0.26458333,28.882933,39.959968)" />
    <g
       id="g18"
       transform="matrix(0.26458333,0,0,0.26458333,28.882933,39.959968)" />
    <g
       id="g19"
       transform="matrix(0.26458333,0,0,0.26458333,28.882933,39.959968)" />
    <g
       id="g20"
       transform="matrix(0.26458333,0,0,0.26458333,28.882933,39.959968)" />
    <g
       id="g21"
       transform="matrix(0.26458333,0,0,0.26458333,28.882933,39.959968)" />
    <g
       id="g22"
       transform="matrix(0.26458333,0,0,0.26458333,28.882933,39.959968)" />
    <g
       id="g23"
       transform="matrix(0.26458333,0,0,0.26458333,28.882933,39.959968)" />
    <g
       id="g24"
       transform="matrix(0.26458333,0,0,0.26458333,28.882933,39.959968)" />
    <g
       id="g25"
       transform="matrix(0.26458333,0,0,0.26458333,28.882933,39.959968)" />
    <g
       id="g26"
       transform="matrix(0.26458333,0,0,0.26458333,28.882933,39.959968)" />
    <g
       id="g27"
       transform="matrix(0.26458333,0,0,0.26458333,28.882933,39.959968)" />
    <g
       id="g28"
       transform="matrix(0.26458333,0,0,0.26458333,28.882933,39.959968)" />
    <g
       id="g29"
       transform="matrix(0.26458333,0,0,0.26458333,28.882933,39.959968)" />
    <g
       id="g30"
       transform="matrix(0.26458333,0,0,0.26458333,28.882933,39.959968)" />
    <g
       id="g31"
       transform="matrix(0.26458333,0,0,0.26458333,28.882933,39.959968)" />
    <g
       id="g32"
       transform="matrix(0.26458333,0,0,0.26458333,28.882933,39.959968)" />
    <g
       id="g33"
       transform="matrix(0.26458333,0,0,0.26458333,28.882933,39.959968)" />
    <g
       id="g34"
       transform="matrix(0.26458333,0,0,0.26458333,28.882933,39.959968)" />
    <g
       id="g35"
       transform="matrix(0.26458333,0,0,0.26458333,28.882933,39.959968)" />
    <g
       id="g36"
       transform="matrix(0.26458333,0,0,0.26458333,28.882933,39.959968)" />
    <g
       id="g37"
       transform="matrix(0.26458333,0,0,0.26458333,28.882933,39.959968)" />
    <g
       id="g38"
       transform="matrix(0.26458333,0,0,0.26458333,28.882933,39.959968)" />
    <g
       id="g39"
       transform="matrix(0.26458333,0,0,0.26458333,28.882933,39.959968)" />
    <g
       id="g40"
       transform="matrix(0.26458333,0,0,0.26458333,28.882933,39.959968)" />
    <g
       id="g41"
       transform="matrix(0.26458333,0,0,0.26458333,28.882933,39.959968)" />
    <g
       id="g42"
       transform="matrix(0.26458333,0,0,0.26458333,28.882933,39.959968)" />
    <g
       id="g43"
       transform="matrix(0.26458333,0,0,0.26458333,28.882933,39.959968)" />
    <g
       id="g44"
       transform="matrix(0.26458333,0,0,0.26458333,28.882933,39.959968)" />
    <g
       id="g45"
       transform="matrix(0.26458333,0,0,0.26458333,28.882933,39.959968)" />
    <g
       id="g46"
       transform="matrix(0.26458333,0,0,0.26458333,28.882933,39.959968)" />
    <g
       id="g47"
       transform="matrix(0.26458333,0,0,0.26458333,28.882933,39.959968)" />
    <g
       id="g48"
       transform="matrix(0.26458333,0,0,0.26458333,28.882933,39.959968)" />
    <g
       id="g49"
       transform="matrix(0.26458333,0,0,0.26458333,28.882933,39.959968)" />
    <g
       id="g50"
       transform="matrix(0.26458333,0,0,0.26458333,28.882933,39.959968)" />
    <g
       id="g51"
       transform="matrix(0.26458333,0,0,0.26458333,28.882933,39.959968)" />
    <g
       id="g56"
       transform="matrix(0.264583,0,0,0.264583,28.8829,39.96)">
      <path
         id="path52"
         d="M 8.6693262,67.386688 H 571.06931 V 24.997508 H 8.6693262 Z"
         style="fill:#e1e1e1;fill-opacity:1;fill-rule:evenodd;stroke:none;stroke-width:1.33333" />
      <path
         id="path53"
         d="m 112.8,630.97 h 11.4 v 14.25 h -11.4 z"
         style="fill:#e1e1e1;fill-opacity:1;fill-rule:evenodd;stroke:none"
         transform="matrix(1.3333333,0,0,-1.3333333,-141.73067,927.68)" />
      <path
         id="path54"
         d="M 135.6,630.97 H 147 v 14.25 h -11.4 z"
         style="fill:#e1e1e1;fill-opacity:1;fill-rule:evenodd;stroke:none"
         transform="matrix(1.3333333,0,0,-1.3333333,-141.73067,927.68)" />
      <path
         id="path55"
         d="m 158.4,630.97 h 11.4 v 14.25 h -11.4 z"
         style="fill:#e1e1e1;fill-opacity:1;fill-rule:evenodd;stroke:none"
         transform="matrix(1.3333333,0,0,-1.3333333,-141.73067,927.68)" />
      <path
         id="path56"
         d="m 181.2,630.97 h 11.4 v 14.25 h -11.4 z"
         style="fill:#e1e1e1;fill-opacity:1;fill-rule:evenodd;stroke:none"
         transform="matrix(1.3333333,0,0,-1.3333333,-141.73067,927.68)" />
      <path
         id="path57"
         d="m 204,630.97 h 11.4 v 14.25 H 204 Z"
         style="fill:#e1e1e1;fill-opacity:1;fill-rule:evenodd;stroke:none"
         transform="matrix(1.3333333,0,0,-1.3333333,-141.73067,927.68)" />
      <path
         id="path58"
         d="m 226.8,630.97 h 11.4 v 14.25 h -11.4 z"
         style="fill:#e1e1e1;fill-opacity:1;fill-rule:evenodd;stroke:none"
         transform="matrix(1.3333333,0,0,-1.3333333,-141.73067,927.68)" />
      <path
         id="path59"
         d="M 249.6,630.97 H 261 v 14.25 h -11.4 z"
         style="fill:#e1e1e1;fill-opacity:1;fill-rule:evenodd;stroke:none"
         transform="matrix(1.3333333,0,0,-1.3333333,-141.73067,927.68)" />
      <path
         id="path60"
         d="m 272.4,630.97 h 11.4 v 14.25 h -11.4 z"
         style="fill:#e1e1e1;fill-opacity:1;fill-rule:evenodd;stroke:none"
         transform="matrix(1.3333333,0,0,-1.3333333,-141.73067,927.68)" />
      <path
         id="path61"
         d="m 295.2,630.97 h 11.4 v 14.25 h -11.4 z"
         style="fill:#e1e1e1;fill-opacity:1;fill-rule:evenodd;stroke:none"
         transform="matrix(1.3333333,0,0,-1.3333333,-141.73067,927.68)" />
      <path
         id="path62"
         d="m 318,630.97 h 11.4 v 14.25 H 318 Z"
         style="fill:#e1e1e1;fill-opacity:1;fill-rule:evenodd;stroke:none"
         transform="matrix(1.3333333,0,0,-1.3333333,-141.73067,927.68)" />
      <path
         id="path63"
         d="m 340.8,630.97 h 11.4 v 14.25 h -11.4 z"
         style="fill:#e1e1e1;fill-opacity:1;fill-rule:evenodd;stroke:none"
         transform="matrix(1.3333333,0,0,-1.3333333,-141.73067,927.68)" />
      <path
         id="path64"
         d="M 363.6,630.97 H 375 v 14.25 h -11.4 z"
         style="fill:#e1e1e1;fill-opacity:1;fill-rule:evenodd;stroke:none"
         transform="matrix(1.3333333,0,0,-1.3333333,-141.73067,927.68)" />
      <path
         id="path65"
         d="m 386.4,630.97 h 11.4 v 14.25 h -11.4 z"
         style="fill:#e1e1e1;fill-opacity:1;fill-rule:evenodd;stroke:none"
         transform="matrix(1.3333333,0,0,-1.3333333,-141.73067,927.68)" />
      <path
         id="path66"
         d="m 409.2,630.97 h 11.4 v 14.25 h -11.4 z"
         style="fill:#e1e1e1;fill-opacity:1;fill-rule:evenodd;stroke:none"
         transform="matrix(1.3333333,0,0,-1.3333333,-141.73067,927.68)" />
      <path
         id="path67"
         d="m 432,630.97 h 11.4 v 14.25 H 432 Z"
         style="fill:#e1e1e1;fill-opacity:1;fill-rule:evenodd;stroke:none"
         transform="matrix(1.3333333,0,0,-1.3333333,-141.73067,927.68)" />
      <path
         id="path68"
         d="m 454.8,630.97 h 11.4 v 14.25 h -11.4 z"
         style="fill:#e1e1e1;fill-opacity:1;fill-rule:evenodd;stroke:none"
         transform="matrix(1.3333333,0,0,-1.3333333,-141.73067,927.68)" />
      <path
         id="path69"
         d="M 477.6,630.97 H 489 v 14.25 h -11.4 z"
         style="fill:#e1e1e1;fill-opacity:1;fill-rule:evenodd;stroke:none"
         transform="matrix(1.3333333,0,0,-1.3333333,-141.73067,927.68)" />
      <path
         id="path70"
         d="m 500.4,630.97 h 11.4 v 14.25 h -11.4 z"
         style="fill:#e1e1e1;fill-opacity:1;fill-rule:evenodd;stroke:none"
         transform="matrix(1.3333333,0,0,-1.3333333,-141.73067,927.68)" />
      <path
         id="path71"
         d="m 523.2,630.97 h 11.4 v 14.25 h -11.4 z"
         style="fill:#e1e1e1;fill-opacity:1;fill-rule:evenodd;stroke:none"
         transform="matrix(1.3333333,0,0,-1.3333333,-141.73067,927.68)" />
      <path
         id="path72"
         d="M 0,0 11.4,-0.05"
         style="fill:none;stroke:#000000;stroke-width:0.75;stroke-linecap:butt;stroke-linejoin:round;stroke-miterlimit:8;stroke-dasharray:none;stroke-opacity:1"
         transform="matrix(1.3333333,0,0,-1.3333333,23.869333,67.386667)" />
      <path
         id="path73"
         d="M 0,0 0.05,-14.25"
         style="fill:none;stroke:#000000;stroke-width:0.75;stroke-linecap:butt;stroke-linejoin:round;stroke-miterlimit:8;stroke-dasharray:none;stroke-opacity:1"
         transform="matrix(1.3333333,0,0,-1.3333333,39.069333,67.386667)" />
      <path
         id="path74"
         d="M 0,0 0.05,-14.25"
         style="fill:none;stroke:#000000;stroke-width:0.75;stroke-linecap:butt;stroke-linejoin:round;stroke-miterlimit:8;stroke-dasharray:none;stroke-opacity:1"
         transform="matrix(1.3333333,0,0,-1.3333333,23.869333,67.386667)" />
      <path
         id="path75"
         d="M 8.6693255,24.964175 571.06931,25.030841"
         style="fill:none;stroke:#000000;stroke-width:1;stroke-linecap:butt;stroke-linejoin:round;stroke-miterlimit:8;stroke-dasharray:none;stroke-opacity:1" />
      <path
         id="path76"
         d="M 1.0693333,123.98667 598.60265,124.052"
         style="fill:none;stroke:#000000;stroke-width:1.33333;stroke-linecap:butt;stroke-linejoin:round;stroke-miterlimit:8;stroke-dasharray:none;stroke-opacity:1" />
      <path
         id="path77"
         d="m 597.26973,121.38547 8,2.668 -8.00133,2.66533 z"
         style="fill:#000000;fill-opacity:1;fill-rule:evenodd;stroke:none;stroke-width:1.33333" />
      <path
         id="path78"
         d="m 0,0 c -2.361,0 -4.275,-1.914 -4.275,-4.275 0,-2.361 1.914,-4.275 4.275,-4.275 2.361,0 4.275,1.914 4.275,4.275 C 4.275,-1.914 2.361,0 0,0"
         style="fill:#ffffff;fill-opacity:1;fill-rule:evenodd;stroke:#ff0000;stroke-width:0.56693;stroke-linecap:round;stroke-linejoin:round;stroke-miterlimit:8;stroke-dasharray:none;stroke-opacity:1"
         transform="matrix(1.3333333,0,0,-1.3333333,122.70267,71.186667)"
         clip-path="url(#clipPath79)" />
      <path
         id="path80"
         d="m 0,0 c -0.787,0 -1.425,-0.638 -1.425,-1.425 0,-0.787 0.638,-1.425 1.425,-1.425 0.787,0 1.425,0.638 1.425,1.425 C 1.425,-0.638 0.787,0 0,0"
         style="fill:#ff0000;fill-opacity:1;fill-rule:evenodd;stroke:#ff0000;stroke-width:0.75;stroke-linecap:round;stroke-linejoin:round;stroke-miterlimit:8;stroke-dasharray:none;stroke-opacity:1"
         transform="matrix(1.3333333,0,0,-1.3333333,122.70267,74.986667)"
         clip-path="url(#clipPath81)" />
      <path
         id="path82"
         d="m 289.936,120.18667 -0.0667,7.6"
         style="fill:none;stroke:#000000;stroke-width:1;stroke-linecap:butt;stroke-linejoin:round;stroke-miterlimit:8;stroke-dasharray:none;stroke-opacity:1" />
      <path
         id="path82-1"
         d="m 153.41021,120.18667 -0.0667,7.6"
         style="fill:none;stroke:#000000;stroke-width:1;stroke-linecap:butt;stroke-linejoin:round;stroke-miterlimit:8;stroke-dasharray:none;stroke-opacity:1" />
      <path
         id="path82-8"
         d="m 426.70267,120.18667 -0.0667,7.6"
         style="fill:none;stroke:#000000;stroke-width:1;stroke-linecap:butt;stroke-linejoin:round;stroke-miterlimit:8;stroke-dasharray:none;stroke-opacity:1" />
      <path
         id="path83"
         d="M 0,0 11.4,-0.05"
         style="fill:none;stroke:#000000;stroke-width:0.75;stroke-linecap:butt;stroke-linejoin:round;stroke-miterlimit:8;stroke-dasharray:none;stroke-opacity:1"
         transform="matrix(1.3333333,0,0,-1.3333333,39.069333,86.386667)" />
      <path
         id="path84"
         d="M 0,0 11.4,-0.05"
         style="fill:none;stroke:#000000;stroke-width:0.75;stroke-linecap:butt;stroke-linejoin:round;stroke-miterlimit:8;stroke-dasharray:none;stroke-opacity:1"
         transform="matrix(1.3333333,0,0,-1.3333333,54.269333,67.32)" />
      <path
         id="path85"
         d="M 0,0 0.05,-14.25"
         style="fill:none;stroke:#000000;stroke-width:0.75;stroke-linecap:butt;stroke-linejoin:round;stroke-miterlimit:8;stroke-dasharray:none;stroke-opacity:1"
         transform="matrix(1.3333333,0,0,-1.3333333,69.469333,67.32)" />
      <path
         id="path86"
         d="M 0,0 0.05,-14.25"
         style="fill:none;stroke:#000000;stroke-width:0.75;stroke-linecap:butt;stroke-linejoin:round;stroke-miterlimit:8;stroke-dasharray:none;stroke-opacity:1"
         transform="matrix(1.3333333,0,0,-1.3333333,54.269333,67.32)" />
      <path
         id="path87"
         d="M 0,0 11.4,-0.05"
         style="fill:none;stroke:#000000;stroke-width:0.75;stroke-linecap:butt;stroke-linejoin:round;stroke-miterlimit:8;stroke-dasharray:none;stroke-opacity:1"
         transform="matrix(1.3333333,0,0,-1.3333333,69.469333,86.32)" />
      <path
         id="path88"
         d="M 0,0 11.4,-0.05"
         style="fill:none;stroke:#000000;stroke-width:0.75;stroke-linecap:butt;stroke-linejoin:round;stroke-miterlimit:8;stroke-dasharray:none;stroke-opacity:1"
         transform="matrix(1.3333333,0,0,-1.3333333,84.669333,67.32)" />
      <path
         id="path89"
         d="M 0,0 0.05,-14.25"
         style="fill:none;stroke:#000000;stroke-width:0.75;stroke-linecap:butt;stroke-linejoin:round;stroke-miterlimit:8;stroke-dasharray:none;stroke-opacity:1"
         transform="matrix(1.3333333,0,0,-1.3333333,99.869333,67.32)" />
      <path
         id="path90"
         d="M 0,0 0.05,-14.25"
         style="fill:none;stroke:#000000;stroke-width:0.75;stroke-linecap:butt;stroke-linejoin:round;stroke-miterlimit:8;stroke-dasharray:none;stroke-opacity:1"
         transform="matrix(1.3333333,0,0,-1.3333333,84.669333,67.32)" />
      <path
         id="path91"
         d="M 0,0 11.4,-0.05"
         style="fill:none;stroke:#000000;stroke-width:0.75;stroke-linecap:butt;stroke-linejoin:round;stroke-miterlimit:8;stroke-dasharray:none;stroke-opacity:1"
         transform="matrix(1.3333333,0,0,-1.3333333,99.869333,86.32)" />
      <path
         id="path92"
         d="M 0,0 11.4,-0.05"
         style="fill:none;stroke:#000000;stroke-width:0.75;stroke-linecap:butt;stroke-linejoin:round;stroke-miterlimit:8;stroke-dasharray:none;stroke-opacity:1"
         transform="matrix(1.3333333,0,0,-1.3333333,115.06933,67.253467)" />
      <path
         id="path93"
         d="M 0,0 0.05,-14.25"
         style="fill:none;stroke:#000000;stroke-width:0.75;stroke-linecap:butt;stroke-linejoin:round;stroke-miterlimit:8;stroke-dasharray:none;stroke-opacity:1"
         transform="matrix(1.3333333,0,0,-1.3333333,130.26933,67.253467)" />
      <path
         id="path94"
         d="M 0,0 0.05,-14.25"
         style="fill:none;stroke:#000000;stroke-width:0.75;stroke-linecap:butt;stroke-linejoin:round;stroke-miterlimit:8;stroke-dasharray:none;stroke-opacity:1"
         transform="matrix(1.3333333,0,0,-1.3333333,115.06933,67.253467)" />
      <path
         id="path95"
         d="M 0,0 11.4,-0.05"
         style="fill:none;stroke:#000000;stroke-width:0.75;stroke-linecap:butt;stroke-linejoin:round;stroke-miterlimit:8;stroke-dasharray:none;stroke-opacity:1"
         transform="matrix(1.3333333,0,0,-1.3333333,130.26933,86.253467)" />
      <path
         id="path96"
         d="M 0,0 11.4,-0.05"
         style="fill:none;stroke:#000000;stroke-width:0.75;stroke-linecap:butt;stroke-linejoin:round;stroke-miterlimit:8;stroke-dasharray:none;stroke-opacity:1"
         transform="matrix(1.3333333,0,0,-1.3333333,145.46933,67.453333)" />
      <path
         id="path97"
         d="M 0,0 0.05,-14.25"
         style="fill:none;stroke:#000000;stroke-width:0.75;stroke-linecap:butt;stroke-linejoin:round;stroke-miterlimit:8;stroke-dasharray:none;stroke-opacity:1"
         transform="matrix(1.3333333,0,0,-1.3333333,160.66933,67.453333)" />
      <path
         id="path98"
         d="M 0,0 0.05,-14.25"
         style="fill:none;stroke:#000000;stroke-width:0.75;stroke-linecap:butt;stroke-linejoin:round;stroke-miterlimit:8;stroke-dasharray:none;stroke-opacity:1"
         transform="matrix(1.3333333,0,0,-1.3333333,145.46933,67.453333)" />
      <path
         id="path99"
         d="M 0,0 11.4,-0.05"
         style="fill:none;stroke:#000000;stroke-width:0.75;stroke-linecap:butt;stroke-linejoin:round;stroke-miterlimit:8;stroke-dasharray:none;stroke-opacity:1"
         transform="matrix(1.3333333,0,0,-1.3333333,160.66933,86.453333)" />
      <path
         id="path100"
         d="M 0,0 11.4,-0.05"
         style="fill:none;stroke:#000000;stroke-width:0.75;stroke-linecap:butt;stroke-linejoin:round;stroke-miterlimit:8;stroke-dasharray:none;stroke-opacity:1"
         transform="matrix(1.3333333,0,0,-1.3333333,175.86933,67.386667)" />
      <path
         id="path101"
         d="M 0,0 0.05,-14.25"
         style="fill:none;stroke:#000000;stroke-width:0.75;stroke-linecap:butt;stroke-linejoin:round;stroke-miterlimit:8;stroke-dasharray:none;stroke-opacity:1"
         transform="matrix(1.3333333,0,0,-1.3333333,191.06933,67.386667)" />
      <path
         id="path102"
         d="M 0,0 0.05,-14.25"
         style="fill:none;stroke:#000000;stroke-width:0.75;stroke-linecap:butt;stroke-linejoin:round;stroke-miterlimit:8;stroke-dasharray:none;stroke-opacity:1"
         transform="matrix(1.3333333,0,0,-1.3333333,175.86933,67.386667)" />
      <path
         id="path103"
         d="M 0,0 11.4,-0.05"
         style="fill:none;stroke:#000000;stroke-width:0.75;stroke-linecap:butt;stroke-linejoin:round;stroke-miterlimit:8;stroke-dasharray:none;stroke-opacity:1"
         transform="matrix(1.3333333,0,0,-1.3333333,191.06933,86.386667)" />
      <path
         id="path104"
         d="M 0,0 11.4,-0.05"
         style="fill:none;stroke:#000000;stroke-width:0.75;stroke-linecap:butt;stroke-linejoin:round;stroke-miterlimit:8;stroke-dasharray:none;stroke-opacity:1"
         transform="matrix(1.3333333,0,0,-1.3333333,206.26933,67.453333)" />
      <path
         id="path105"
         d="M 0,0 0.05,-14.25"
         style="fill:none;stroke:#000000;stroke-width:0.75;stroke-linecap:butt;stroke-linejoin:round;stroke-miterlimit:8;stroke-dasharray:none;stroke-opacity:1"
         transform="matrix(1.3333333,0,0,-1.3333333,221.46933,67.453333)" />
      <path
         id="path106"
         d="M 0,0 0.05,-14.25"
         style="fill:none;stroke:#000000;stroke-width:0.75;stroke-linecap:butt;stroke-linejoin:round;stroke-miterlimit:8;stroke-dasharray:none;stroke-opacity:1"
         transform="matrix(1.3333333,0,0,-1.3333333,206.26933,67.453333)" />
      <path
         id="path107"
         d="M 0,0 11.4,-0.05"
         style="fill:none;stroke:#000000;stroke-width:0.75;stroke-linecap:butt;stroke-linejoin:round;stroke-miterlimit:8;stroke-dasharray:none;stroke-opacity:1"
         transform="matrix(1.3333333,0,0,-1.3333333,221.46933,86.453333)" />
      <path
         id="path108"
         d="M 0,0 11.4,-0.05"
         style="fill:none;stroke:#000000;stroke-width:0.75;stroke-linecap:butt;stroke-linejoin:round;stroke-miterlimit:8;stroke-dasharray:none;stroke-opacity:1"
         transform="matrix(1.3333333,0,0,-1.3333333,236.66933,67.386667)" />
      <path
         id="path109"
         d="M 0,0 0.05,-14.25"
         style="fill:none;stroke:#000000;stroke-width:0.75;stroke-linecap:butt;stroke-linejoin:round;stroke-miterlimit:8;stroke-dasharray:none;stroke-opacity:1"
         transform="matrix(1.3333333,0,0,-1.3333333,251.86933,67.386667)" />
      <path
         id="path110"
         d="M 0,0 0.05,-14.25"
         style="fill:none;stroke:#000000;stroke-width:0.75;stroke-linecap:butt;stroke-linejoin:round;stroke-miterlimit:8;stroke-dasharray:none;stroke-opacity:1"
         transform="matrix(1.3333333,0,0,-1.3333333,236.66933,67.386667)" />
      <path
         id="path111"
         d="M 0,0 11.4,-0.05"
         style="fill:none;stroke:#000000;stroke-width:0.75;stroke-linecap:butt;stroke-linejoin:round;stroke-miterlimit:8;stroke-dasharray:none;stroke-opacity:1"
         transform="matrix(1.3333333,0,0,-1.3333333,251.86933,86.386667)" />
      <path
         id="path112"
         d="M 0,0 11.4,-0.05"
         style="fill:none;stroke:#000000;stroke-width:0.75;stroke-linecap:butt;stroke-linejoin:round;stroke-miterlimit:8;stroke-dasharray:none;stroke-opacity:1"
         transform="matrix(1.3333333,0,0,-1.3333333,267.06933,67.453333)" />
      <path
         id="path113"
         d="M 0,0 0.05,-14.25"
         style="fill:none;stroke:#000000;stroke-width:0.75;stroke-linecap:butt;stroke-linejoin:round;stroke-miterlimit:8;stroke-dasharray:none;stroke-opacity:1"
         transform="matrix(1.3333333,0,0,-1.3333333,282.26933,67.453333)" />
      <path
         id="path114"
         d="M 0,0 0.05,-14.25"
         style="fill:none;stroke:#000000;stroke-width:0.75;stroke-linecap:butt;stroke-linejoin:round;stroke-miterlimit:8;stroke-dasharray:none;stroke-opacity:1"
         transform="matrix(1.3333333,0,0,-1.3333333,267.06933,67.453333)" />
      <path
         id="path115"
         d="M 0,0 11.4,-0.05"
         style="fill:none;stroke:#000000;stroke-width:0.75;stroke-linecap:butt;stroke-linejoin:round;stroke-miterlimit:8;stroke-dasharray:none;stroke-opacity:1"
         transform="matrix(1.3333333,0,0,-1.3333333,282.26933,86.453333)" />
      <path
         id="path116"
         d="M 0,0 11.4,-0.05"
         style="fill:none;stroke:#000000;stroke-width:0.75;stroke-linecap:butt;stroke-linejoin:round;stroke-miterlimit:8;stroke-dasharray:none;stroke-opacity:1"
         transform="matrix(1.3333333,0,0,-1.3333333,297.46933,67.386667)" />
      <path
         id="path117"
         d="M 0,0 0.05,-14.25"
         style="fill:none;stroke:#000000;stroke-width:0.75;stroke-linecap:butt;stroke-linejoin:round;stroke-miterlimit:8;stroke-dasharray:none;stroke-opacity:1"
         transform="matrix(1.3333333,0,0,-1.3333333,312.66933,67.386667)" />
      <path
         id="path118"
         d="M 0,0 0.05,-14.25"
         style="fill:none;stroke:#000000;stroke-width:0.75;stroke-linecap:butt;stroke-linejoin:round;stroke-miterlimit:8;stroke-dasharray:none;stroke-opacity:1"
         transform="matrix(1.3333333,0,0,-1.3333333,297.46933,67.386667)" />
      <path
         id="path119"
         d="M 0,0 11.4,-0.05"
         style="fill:none;stroke:#000000;stroke-width:0.75;stroke-linecap:butt;stroke-linejoin:round;stroke-miterlimit:8;stroke-dasharray:none;stroke-opacity:1"
         transform="matrix(1.3333333,0,0,-1.3333333,312.66933,86.386667)" />
      <path
         id="path120"
         d="M 0,0 11.4,-0.05"
         style="fill:none;stroke:#000000;stroke-width:0.75;stroke-linecap:butt;stroke-linejoin:round;stroke-miterlimit:8;stroke-dasharray:none;stroke-opacity:1"
         transform="matrix(1.3333333,0,0,-1.3333333,327.86933,67.453333)" />
      <path
         id="path121"
         d="M 0,0 0.05,-14.25"
         style="fill:none;stroke:#000000;stroke-width:0.75;stroke-linecap:butt;stroke-linejoin:round;stroke-miterlimit:8;stroke-dasharray:none;stroke-opacity:1"
         transform="matrix(1.3333333,0,0,-1.3333333,343.06933,67.453333)" />
      <path
         id="path122"
         d="M 0,0 0.05,-14.25"
         style="fill:none;stroke:#000000;stroke-width:0.75;stroke-linecap:butt;stroke-linejoin:round;stroke-miterlimit:8;stroke-dasharray:none;stroke-opacity:1"
         transform="matrix(1.3333333,0,0,-1.3333333,327.86933,67.453333)" />
      <path
         id="path123"
         d="M 0,0 11.4,-0.05"
         style="fill:none;stroke:#000000;stroke-width:0.75;stroke-linecap:butt;stroke-linejoin:round;stroke-miterlimit:8;stroke-dasharray:none;stroke-opacity:1"
         transform="matrix(1.3333333,0,0,-1.3333333,343.06933,86.453333)" />
      <path
         id="path124"
         d="M 0,0 11.4,-0.05"
         style="fill:none;stroke:#000000;stroke-width:0.75;stroke-linecap:butt;stroke-linejoin:round;stroke-miterlimit:8;stroke-dasharray:none;stroke-opacity:1"
         transform="matrix(1.3333333,0,0,-1.3333333,358.26933,67.386667)" />
      <path
         id="path125"
         d="M 0,0 0.05,-14.25"
         style="fill:none;stroke:#000000;stroke-width:0.75;stroke-linecap:butt;stroke-linejoin:round;stroke-miterlimit:8;stroke-dasharray:none;stroke-opacity:1"
         transform="matrix(1.3333333,0,0,-1.3333333,373.46933,67.386667)" />
      <path
         id="path126"
         d="M 0,0 0.05,-14.25"
         style="fill:none;stroke:#000000;stroke-width:0.75;stroke-linecap:butt;stroke-linejoin:round;stroke-miterlimit:8;stroke-dasharray:none;stroke-opacity:1"
         transform="matrix(1.3333333,0,0,-1.3333333,358.26933,67.386667)" />
      <path
         id="path127"
         d="M 0,0 11.4,-0.05"
         style="fill:none;stroke:#000000;stroke-width:0.75;stroke-linecap:butt;stroke-linejoin:round;stroke-miterlimit:8;stroke-dasharray:none;stroke-opacity:1"
         transform="matrix(1.3333333,0,0,-1.3333333,373.46933,86.386667)" />
      <path
         id="path128"
         d="m 0,0 c -2.361,0 -4.275,-1.914 -4.275,-4.275 0,-2.361 1.914,-4.275 4.275,-4.275 2.361,0 4.275,1.914 4.275,4.275 C 4.275,-1.914 2.361,0 0,0"
         style="fill:#ffffff;fill-opacity:1;fill-rule:evenodd;stroke:#ff0000;stroke-width:0.56693;stroke-linecap:round;stroke-linejoin:round;stroke-miterlimit:8;stroke-dasharray:none;stroke-opacity:1"
         transform="matrix(1.3333333,0,0,-1.3333333,396.236,71.186667)"
         clip-path="url(#clipPath129)" />
      <path
         id="path130"
         d="M 0,0 5.9,5.8"
         style="fill:none;stroke:#ff0000;stroke-width:0.75;stroke-linecap:butt;stroke-linejoin:round;stroke-miterlimit:8;stroke-dasharray:none;stroke-opacity:1"
         transform="matrix(1.3333333,0,0,-1.3333333,392.26933,80.72)" />
      <path
         id="path131"
         d="M 0.18910396,-0.22239582 -5.65,5.35"
         style="fill:none;stroke:#ff0000;stroke-width:0.75;stroke-linecap:butt;stroke-linejoin:round;stroke-miterlimit:8;stroke-dasharray:none;stroke-opacity:1"
         transform="matrix(1.3333333,0,0,-1.3333333,399.86933,80.32)"
         sodipodi:nodetypes="cc" />
      <path
         id="path132"
         d="M 0,0 11.4,-0.05"
         style="fill:none;stroke:#000000;stroke-width:0.75;stroke-linecap:butt;stroke-linejoin:round;stroke-miterlimit:8;stroke-dasharray:none;stroke-opacity:1"
         transform="matrix(1.3333333,0,0,-1.3333333,388.66933,67.386667)" />
      <path
         id="path133"
         d="M 0,0 0.05,-14.25"
         style="fill:none;stroke:#000000;stroke-width:0.75;stroke-linecap:butt;stroke-linejoin:round;stroke-miterlimit:8;stroke-dasharray:none;stroke-opacity:1"
         transform="matrix(1.3333333,0,0,-1.3333333,403.86933,67.386667)" />
      <path
         id="path134"
         d="M 0,0 0.05,-14.25"
         style="fill:none;stroke:#000000;stroke-width:0.75;stroke-linecap:butt;stroke-linejoin:round;stroke-miterlimit:8;stroke-dasharray:none;stroke-opacity:1"
         transform="matrix(1.3333333,0,0,-1.3333333,388.66933,67.386667)" />
      <path
         id="path135"
         d="M 0,0 11.4,-0.05"
         style="fill:none;stroke:#000000;stroke-width:0.75;stroke-linecap:butt;stroke-linejoin:round;stroke-miterlimit:8;stroke-dasharray:none;stroke-opacity:1"
         transform="matrix(1.3333333,0,0,-1.3333333,403.86933,86.386667)" />
      <path
         id="path136"
         d="m 0,0 c -2.361,0 -4.275,-1.914 -4.275,-4.275 0,-2.361 1.914,-4.275 4.275,-4.275 2.361,0 4.275,1.914 4.275,4.275 C 4.275,-1.914 2.361,0 0,0"
         style="fill:#ffffff;fill-opacity:1;fill-rule:evenodd;stroke:#ff0000;stroke-width:0.56693;stroke-linecap:round;stroke-linejoin:round;stroke-miterlimit:8;stroke-dasharray:none;stroke-opacity:1"
         transform="matrix(1.3333333,0,0,-1.3333333,426.636,71.12)"
         clip-path="url(#clipPath137)" />
      <path
         id="path138"
         d="M 0,0 5.9,5.8"
         style="fill:none;stroke:#ff0000;stroke-width:0.75;stroke-linecap:butt;stroke-linejoin:round;stroke-miterlimit:8;stroke-dasharray:none;stroke-opacity:1"
         transform="matrix(1.3333333,0,0,-1.3333333,422.66933,80.653333)" />
      <path
         id="path139"
         d="M 0.46288893,-0.33093194 -5.65,5.35"
         style="fill:none;stroke:#ff0000;stroke-width:0.75;stroke-linecap:butt;stroke-linejoin:round;stroke-miterlimit:8;stroke-dasharray:none;stroke-opacity:1"
         transform="matrix(1.3333333,0,0,-1.3333333,430.26933,80.253467)"
         sodipodi:nodetypes="cc" />
      <path
         id="path140"
         d="M 0,0 11.4,-0.05"
         style="fill:none;stroke:#000000;stroke-width:0.75;stroke-linecap:butt;stroke-linejoin:round;stroke-miterlimit:8;stroke-dasharray:none;stroke-opacity:1"
         transform="matrix(1.3333333,0,0,-1.3333333,419.06933,67.32)" />
      <path
         id="path141"
         d="M 0,0 0.05,-14.25"
         style="fill:none;stroke:#000000;stroke-width:0.75;stroke-linecap:butt;stroke-linejoin:round;stroke-miterlimit:8;stroke-dasharray:none;stroke-opacity:1"
         transform="matrix(1.3333333,0,0,-1.3333333,434.26933,67.32)" />
      <path
         id="path142"
         d="M 0,0 0.05,-14.25"
         style="fill:none;stroke:#000000;stroke-width:0.75;stroke-linecap:butt;stroke-linejoin:round;stroke-miterlimit:8;stroke-dasharray:none;stroke-opacity:1"
         transform="matrix(1.3333333,0,0,-1.3333333,419.06933,67.32)" />
      <path
         id="path143"
         d="M 0,0 11.4,-0.05"
         style="fill:none;stroke:#000000;stroke-width:0.75;stroke-linecap:butt;stroke-linejoin:round;stroke-miterlimit:8;stroke-dasharray:none;stroke-opacity:1"
         transform="matrix(1.3333333,0,0,-1.3333333,434.26933,86.32)" />
      <path
         id="path144"
         d="m 0,0 c -2.361,0 -4.275,-1.914 -4.275,-4.275 0,-2.361 1.914,-4.275 4.275,-4.275 2.361,0 4.275,1.914 4.275,4.275 C 4.275,-1.914 2.361,0 0,0"
         style="fill:#ffffff;fill-opacity:1;fill-rule:evenodd;stroke:#ff0000;stroke-width:0.56693;stroke-linecap:round;stroke-linejoin:round;stroke-miterlimit:8;stroke-dasharray:none;stroke-opacity:1"
         transform="matrix(1.3333333,0,0,-1.3333333,457.036,71.12)"
         clip-path="url(#clipPath145)" />
      <path
         id="path146"
         d="M 0,0 5.9,5.8"
         style="fill:none;stroke:#ff0000;stroke-width:0.75;stroke-linecap:butt;stroke-linejoin:round;stroke-miterlimit:8;stroke-dasharray:none;stroke-opacity:1"
         transform="matrix(1.3333333,0,0,-1.3333333,453.06933,80.653333)" />
      <path
         id="path147"
         d="M 0.37593451,-0.36766102 -5.65,5.35"
         style="fill:none;stroke:#ff0000;stroke-width:0.75;stroke-linecap:butt;stroke-linejoin:round;stroke-miterlimit:8;stroke-dasharray:none;stroke-opacity:1"
         transform="matrix(1.3333333,0,0,-1.3333333,460.66933,80.253467)"
         sodipodi:nodetypes="cc" />
      <path
         id="path148"
         d="M 0,0 11.4,-0.05"
         style="fill:none;stroke:#000000;stroke-width:0.75;stroke-linecap:butt;stroke-linejoin:round;stroke-miterlimit:8;stroke-dasharray:none;stroke-opacity:1"
         transform="matrix(1.3333333,0,0,-1.3333333,449.46933,67.32)" />
      <path
         id="path149"
         d="M 0,0 0.05,-14.25"
         style="fill:none;stroke:#000000;stroke-width:0.75;stroke-linecap:butt;stroke-linejoin:round;stroke-miterlimit:8;stroke-dasharray:none;stroke-opacity:1"
         transform="matrix(1.3333333,0,0,-1.3333333,464.66933,67.32)" />
      <path
         id="path150"
         d="M 0,0 0.05,-14.25"
         style="fill:none;stroke:#000000;stroke-width:0.75;stroke-linecap:butt;stroke-linejoin:round;stroke-miterlimit:8;stroke-dasharray:none;stroke-opacity:1"
         transform="matrix(1.3333333,0,0,-1.3333333,449.46933,67.32)" />
      <path
         id="path151"
         d="M 0,0 11.4,-0.05"
         style="fill:none;stroke:#000000;stroke-width:0.75;stroke-linecap:butt;stroke-linejoin:round;stroke-miterlimit:8;stroke-dasharray:none;stroke-opacity:1"
         transform="matrix(1.3333333,0,0,-1.3333333,464.66933,86.32)" />
      <path
         id="path152"
         d="M 0,0 11.4,-0.05"
         style="fill:none;stroke:#000000;stroke-width:0.75;stroke-linecap:butt;stroke-linejoin:round;stroke-miterlimit:8;stroke-dasharray:none;stroke-opacity:1"
         transform="matrix(1.3333333,0,0,-1.3333333,479.86933,67.253467)" />
      <path
         id="path153"
         d="M 0,0 0.05,-14.25"
         style="fill:none;stroke:#000000;stroke-width:0.75;stroke-linecap:butt;stroke-linejoin:round;stroke-miterlimit:8;stroke-dasharray:none;stroke-opacity:1"
         transform="matrix(1.3333333,0,0,-1.3333333,495.06933,67.253467)" />
      <path
         id="path154"
         d="M 0,0 0.05,-14.25"
         style="fill:none;stroke:#000000;stroke-width:0.75;stroke-linecap:butt;stroke-linejoin:round;stroke-miterlimit:8;stroke-dasharray:none;stroke-opacity:1"
         transform="matrix(1.3333333,0,0,-1.3333333,479.86933,67.253467)" />
      <path
         id="path155"
         d="M 0,0 11.4,-0.05"
         style="fill:none;stroke:#000000;stroke-width:0.75;stroke-linecap:butt;stroke-linejoin:round;stroke-miterlimit:8;stroke-dasharray:none;stroke-opacity:1"
         transform="matrix(1.3333333,0,0,-1.3333333,495.06933,86.253467)" />
      <path
         id="path156"
         d="M 0,0 11.4,-0.05"
         style="fill:none;stroke:#000000;stroke-width:0.75;stroke-linecap:butt;stroke-linejoin:round;stroke-miterlimit:8;stroke-dasharray:none;stroke-opacity:1"
         transform="matrix(1.3333333,0,0,-1.3333333,510.26933,67.453333)" />
      <path
         id="path157"
         d="M 0,0 0.05,-14.25"
         style="fill:none;stroke:#000000;stroke-width:0.75;stroke-linecap:butt;stroke-linejoin:round;stroke-miterlimit:8;stroke-dasharray:none;stroke-opacity:1"
         transform="matrix(1.3333333,0,0,-1.3333333,525.46933,67.453333)" />
      <path
         id="path158"
         d="M 0,0 0.05,-14.25"
         style="fill:none;stroke:#000000;stroke-width:0.75;stroke-linecap:butt;stroke-linejoin:round;stroke-miterlimit:8;stroke-dasharray:none;stroke-opacity:1"
         transform="matrix(1.3333333,0,0,-1.3333333,510.26933,67.453333)" />
      <path
         id="path159"
         d="M 0,0 11.4,-0.05"
         style="fill:none;stroke:#000000;stroke-width:0.75;stroke-linecap:butt;stroke-linejoin:round;stroke-miterlimit:8;stroke-dasharray:none;stroke-opacity:1"
         transform="matrix(1.3333333,0,0,-1.3333333,525.46933,86.453333)" />
      <path
         id="path160"
         d="M 0,0 11.4,-0.05"
         style="fill:none;stroke:#000000;stroke-width:0.75;stroke-linecap:butt;stroke-linejoin:round;stroke-miterlimit:8;stroke-dasharray:none;stroke-opacity:1"
         transform="matrix(1.3333333,0,0,-1.3333333,540.66933,67.386667)" />
      <path
         id="path161"
         d="M 0,0 0.05,-14.25"
         style="fill:none;stroke:#000000;stroke-width:0.75;stroke-linecap:butt;stroke-linejoin:round;stroke-miterlimit:8;stroke-dasharray:none;stroke-opacity:1"
         transform="matrix(1.3333333,0,0,-1.3333333,555.86933,67.386667)" />
      <path
         id="path162"
         d="M 0,0 0.05,-14.25"
         style="fill:none;stroke:#000000;stroke-width:0.75;stroke-linecap:butt;stroke-linejoin:round;stroke-miterlimit:8;stroke-dasharray:none;stroke-opacity:1"
         transform="matrix(1.3333333,0,0,-1.3333333,540.66933,67.386667)" />
      <path
         id="path163"
         d="M 0,0 11.4,-0.05"
         style="fill:none;stroke:#000000;stroke-width:0.75;stroke-linecap:butt;stroke-linejoin:round;stroke-miterlimit:8;stroke-dasharray:none;stroke-opacity:1"
         transform="matrix(1.3333333,0,0,-1.3333333,8.6693333,86.386667)" />
      <path
         id="path164"
         d="M 0,0 11.4,-0.05"
         style="fill:none;stroke:#000000;stroke-width:0.75;stroke-linecap:butt;stroke-linejoin:round;stroke-miterlimit:8;stroke-dasharray:none;stroke-opacity:1"
         transform="matrix(1.3333333,0,0,-1.3333333,555.86933,86.453333)" />
      <path
         id="path165"
         d="m 0,0 c -2.361,0 -4.275,-1.914 -4.275,-4.275 0,-2.361 1.914,-4.275 4.275,-4.275 2.361,0 4.275,1.914 4.275,4.275 C 4.275,-1.914 2.361,0 0,0"
         style="fill:#ffffff;fill-opacity:1;fill-rule:evenodd;stroke:#ff0000;stroke-width:0.56693;stroke-linecap:round;stroke-linejoin:round;stroke-miterlimit:8;stroke-dasharray:none;stroke-opacity:1"
         transform="matrix(1.3333333,0,0,-1.3333333,152.96933,71.186667)"
         clip-path="url(#clipPath166)" />
      <path
         id="path167"
         d="m 0,0 c -0.787,0 -1.425,-0.638 -1.425,-1.425 0,-0.787 0.638,-1.425 1.425,-1.425 0.787,0 1.425,0.638 1.425,1.425 C 1.425,-0.638 0.787,0 0,0"
         style="fill:#ff0000;fill-opacity:1;fill-rule:evenodd;stroke:#ff0000;stroke-width:0.75;stroke-linecap:round;stroke-linejoin:round;stroke-miterlimit:8;stroke-dasharray:none;stroke-opacity:1"
         transform="matrix(1.3333333,0,0,-1.3333333,152.96933,74.986667)"
         clip-path="url(#clipPath168)" />
      <path
         id="path169"
         d="m 0,0 c -2.361,0 -4.275,-1.914 -4.275,-4.275 0,-2.361 1.914,-4.275 4.275,-4.275 2.361,0 4.275,1.914 4.275,4.275 C 4.275,-1.914 2.361,0 0,0"
         style="fill:#ffffff;fill-opacity:1;fill-rule:evenodd;stroke:#ff0000;stroke-width:0.56693;stroke-linecap:round;stroke-linejoin:round;stroke-miterlimit:8;stroke-dasharray:none;stroke-opacity:1"
         transform="matrix(1.3333333,0,0,-1.3333333,183.636,71.186667)"
         clip-path="url(#clipPath170)" />
      <path
         id="path171"
         d="m 0,0 c -0.787,0 -1.425,-0.638 -1.425,-1.425 0,-0.787 0.638,-1.425 1.425,-1.425 0.787,0 1.425,0.638 1.425,1.425 C 1.425,-0.638 0.787,0 0,0"
         style="fill:#ff0000;fill-opacity:1;fill-rule:evenodd;stroke:#ff0000;stroke-width:0.75;stroke-linecap:round;stroke-linejoin:round;stroke-miterlimit:8;stroke-dasharray:none;stroke-opacity:1"
         transform="matrix(1.3333333,0,0,-1.3333333,183.636,74.986667)"
         clip-path="url(#clipPath172)" />
      <path
         id="path174"
         d="m 16.336,120.18667 -0.06667,7.6"
         style="fill:none;stroke:#000000;stroke-width:1;stroke-linecap:butt;stroke-linejoin:round;stroke-miterlimit:8;stroke-dasharray:none;stroke-opacity:1" />
      <path
         id="path175"
         d="m 563.46933,120.18667 -0.0667,7.6"
         style="fill:none;stroke:#000000;stroke-width:1;stroke-linecap:butt;stroke-linejoin:round;stroke-miterlimit:8;stroke-dasharray:none;stroke-opacity:1" />
      <g
         inkscape:label=""
         transform="matrix(3.77953,0,0,3.77953,141.00393,129.92634)"
         id="g248">
        <g
           fill="#000000"
           fill-opacity="1"
           id="g245"
           transform="matrix(0.352778,0,0,0.352778,-0.813329,-0.702116)">
          <g
             id="use3"
             transform="translate(1.993,10.959)">
            <path
               d="m 3.09375,-4.5 h 1.359375 c -0.328125,1.328125 -0.53125,2.203125 -0.53125,3.15625 0,0.171875 0,1.46875 0.484375,1.46875 0.25,0 0.46875,-0.234375 0.46875,-0.4375 0,-0.0625 0,-0.078125 -0.078125,-0.265625 -0.328125,-0.828125 -0.328125,-1.84375 -0.328125,-1.9375 0,-0.0625 0,-0.921875 0.25,-1.984375 H 6.0625 c 0.15625,0 0.546875,0 0.546875,-0.390625 0,-0.265625 -0.21875,-0.265625 -0.4375,-0.265625 h -3.9375 c -0.28125,0 -0.6875,0 -1.234375,0.59375 -0.3125,0.34375 -0.6875,0.984375 -0.6875,1.046875 0,0.078125 0.0625,0.09375 0.125,0.09375 0.09375,0 0.09375,-0.03125 0.15625,-0.109375 C 1.21875,-4.5 1.84375,-4.5 2.140625,-4.5 h 0.6875 C 2.5625,-3.609375 2.265625,-2.5625 1.28125,-0.484375 1.1875,-0.28125 1.1875,-0.265625 1.1875,-0.1875 c 0,0.25 0.21875,0.3125 0.3125,0.3125 0.359375,0 0.453125,-0.3125 0.59375,-0.8125 0.1875,-0.609375 0.1875,-0.640625 0.3125,-1.125 z m 0,0"
               id="path6" />
          </g>
        </g>
        <g
           fill="#000000"
           fill-opacity="1"
           id="g246"
           transform="matrix(0.352778,0,0,0.352778,-0.813329,-0.702116)">
          <g
             id="use4"
             transform="translate(9.0633049,10.959)">
            <path
               d="m 5.125,-8.515625 c 0,-0.015625 0.078125,-0.203125 0.078125,-0.21875 0,-0.140625 -0.125,-0.234375 -0.21875,-0.234375 -0.0625,0 -0.171875,0 -0.265625,0.265625 l -4,11.25 c 0,0.015625 -0.078125,0.1875 -0.078125,0.21875 0,0.140625 0.125,0.21875 0.21875,0.21875 0.078125,0 0.1875,-0.015625 0.265625,-0.265625 z m 0,0"
               id="path7" />
          </g>
        </g>
        <g
           fill="#000000"
           fill-opacity="1"
           id="g247"
           transform="matrix(0.352778,0,0,0.352778,-0.813329,-0.702116)">
          <g
             id="use5"
             transform="translate(14.915,10.959)">
            <path
               d="M 5.265625,-2.015625 H 5 c -0.046875,0.203125 -0.140625,0.875 -0.25,1.0625 C 4.65625,-0.84375 3.984375,-0.84375 3.625,-0.84375 H 1.40625 c 0.328125,-0.28125 1.0625,-1.046875 1.359375,-1.328125 1.828125,-1.671875 2.5,-2.296875 2.5,-3.484375 0,-1.375 -1.09375,-2.296875 -2.484375,-2.296875 -1.375,0 -2.203125,1.1875 -2.203125,2.21875 0,0.609375 0.53125,0.609375 0.5625,0.609375 0.265625,0 0.5625,-0.1875 0.5625,-0.5625 0,-0.34375 -0.21875,-0.5625 -0.5625,-0.5625 -0.09375,0 -0.125,0 -0.15625,0.015625 0.21875,-0.8125 0.875,-1.375 1.640625,-1.375 1.015625,0 1.640625,0.859375 1.640625,1.953125 C 4.265625,-4.640625 3.6875,-3.75 3,-2.984375 L 0.578125,-0.28125 V 0 h 4.375 z m 0,0"
               id="path8" />
          </g>
        </g>
      </g>
      <g
         inkscape:label=""
         transform="matrix(3.77953,0,0,3.77953,12.806068,131.10343)"
         id="g250">
        <g
           fill="#000000"
           fill-opacity="1"
           id="g249"
           transform="matrix(0.352778,0,0,0.352778,-0.873963,-0.614848)">
          <g
             id="use1"
             transform="translate(1.993,9.6960001)">
            <path
               d="m 5.359375,-3.828125 c 0,-0.984375 -0.0625,-1.953125 -0.5,-2.859375 -0.484375,-1 -1.34375,-1.265625 -1.9375,-1.265625 -0.6875,0 -1.53125,0.34375 -1.984375,1.34375 -0.328125,0.75 -0.453125,1.5 -0.453125,2.78125 0,1.15625 0.09375,2.03125 0.515625,2.890625 0.46875,0.90625 1.296875,1.1875 1.921875,1.1875 1.03125,0 1.625,-0.625 1.984375,-1.3125 0.421875,-0.890625 0.453125,-2.0625 0.453125,-2.765625 z m -2.4375,3.84375 C 2.53125,0.015625 1.75,-0.203125 1.53125,-1.5 c -0.125,-0.71875 -0.125,-1.625 -0.125,-2.46875 0,-0.984375 0,-1.859375 0.1875,-2.5625 0.203125,-0.8125 0.8125,-1.171875 1.328125,-1.171875 0.453125,0 1.140625,0.265625 1.375,1.296875 0.15625,0.6875 0.15625,1.625 0.15625,2.4375 0,0.796875 0,1.703125 -0.140625,2.4375 -0.21875,1.3125 -0.984375,1.546875 -1.390625,1.546875 z m 0,0"
               id="path2" />
          </g>
        </g>
      </g>
      <g
         inkscape:label=""
         transform="matrix(3.77953,0,0,3.77953,285.89538,135.00968)"
         id="g253">
        <g
           fill="#000000"
           fill-opacity="1"
           id="g252"
           transform="matrix(0.352778,0,0,0.352778,-0.813329,-0.69947)">
          <g
             id="g251"
             transform="translate(1.993,7.1389999)">
            <path
               d="m 3.09375,-4.5 h 1.359375 c -0.328125,1.328125 -0.53125,2.203125 -0.53125,3.15625 0,0.171875 0,1.46875 0.484375,1.46875 0.25,0 0.46875,-0.234375 0.46875,-0.4375 0,-0.0625 0,-0.078125 -0.078125,-0.265625 -0.328125,-0.828125 -0.328125,-1.84375 -0.328125,-1.9375 0,-0.0625 0,-0.921875 0.25,-1.984375 H 6.0625 c 0.15625,0 0.546875,0 0.546875,-0.390625 0,-0.265625 -0.21875,-0.265625 -0.4375,-0.265625 h -3.9375 c -0.28125,0 -0.6875,0 -1.234375,0.59375 -0.3125,0.34375 -0.6875,0.984375 -0.6875,1.046875 0,0.078125 0.0625,0.09375 0.125,0.09375 0.09375,0 0.09375,-0.03125 0.15625,-0.109375 C 1.21875,-4.5 1.84375,-4.5 2.140625,-4.5 h 0.6875 C 2.5625,-3.609375 2.265625,-2.5625 1.28125,-0.484375 1.1875,-0.28125 1.1875,-0.265625 1.1875,-0.1875 c 0,0.25 0.21875,0.3125 0.3125,0.3125 0.359375,0 0.453125,-0.3125 0.59375,-0.8125 0.1875,-0.609375 0.1875,-0.640625 0.3125,-1.125 z m 0,0"
               id="path250" />
          </g>
        </g>
      </g>
      <g
         inkscape:label=""
         transform="matrix(3.77953,0,0,3.77953,410.82804,129.92634)"
         id="g260">
        <g
           fill="#000000"
           fill-opacity="1"
           id="g255"
           transform="matrix(0.352778,0,0,0.352778,-0.873963,-0.702116)">
          <g
             id="g254"
             transform="translate(1.993,10.959)">
            <path
               d="m 2.203125,-4.296875 c -0.203125,0.015625 -0.25,0.03125 -0.25,0.140625 0,0.109375 0.0625,0.109375 0.265625,0.109375 h 0.546875 c 1.03125,0 1.484375,0.84375 1.484375,1.984375 0,1.578125 -0.8125,1.984375 -1.40625,1.984375 -0.578125,0 -1.546875,-0.265625 -1.90625,-1.0625 0.390625,0.0625 0.734375,-0.15625 0.734375,-0.578125 0,-0.34375 -0.25,-0.59375 -0.578125,-0.59375 -0.296875,0 -0.609375,0.171875 -0.609375,0.625 0,1.0625 1.0625,1.9375 2.390625,1.9375 1.421875,0 2.484375,-1.09375 2.484375,-2.296875 C 5.359375,-3.140625 4.46875,-4 3.328125,-4.203125 4.359375,-4.5 5.03125,-5.375 5.03125,-6.3125 c 0,-0.9375 -0.984375,-1.640625 -2.140625,-1.640625 -1.1875,0 -2.078125,0.734375 -2.078125,1.609375 0,0.46875 0.375,0.578125 0.546875,0.578125 0.25,0 0.546875,-0.1875 0.546875,-0.546875 0,-0.375 -0.296875,-0.546875 -0.5625,-0.546875 -0.0625,0 -0.09375,0 -0.125,0.015625 0.453125,-0.8125 1.578125,-0.8125 1.640625,-0.8125 0.390625,0 1.171875,0.171875 1.171875,1.34375 0,0.234375 -0.03125,0.890625 -0.390625,1.40625 C 3.28125,-4.375 2.875,-4.34375 2.5625,-4.328125 Z m 0,0"
               id="path253" />
          </g>
        </g>
        <g
           fill="#000000"
           fill-opacity="1"
           id="g257"
           transform="matrix(0.352778,0,0,0.352778,-0.873963,-0.702116)">
          <g
             id="g256"
             transform="translate(7.8460002,10.959)">
            <path
               d="m 3.09375,-4.5 h 1.359375 c -0.328125,1.328125 -0.53125,2.203125 -0.53125,3.15625 0,0.171875 0,1.46875 0.484375,1.46875 0.25,0 0.46875,-0.234375 0.46875,-0.4375 0,-0.0625 0,-0.078125 -0.078125,-0.265625 -0.328125,-0.828125 -0.328125,-1.84375 -0.328125,-1.9375 0,-0.0625 0,-0.921875 0.25,-1.984375 H 6.0625 c 0.15625,0 0.546875,0 0.546875,-0.390625 0,-0.265625 -0.21875,-0.265625 -0.4375,-0.265625 h -3.9375 c -0.28125,0 -0.6875,0 -1.234375,0.59375 -0.3125,0.34375 -0.6875,0.984375 -0.6875,1.046875 0,0.078125 0.0625,0.09375 0.125,0.09375 0.09375,0 0.09375,-0.03125 0.15625,-0.109375 C 1.21875,-4.5 1.84375,-4.5 2.140625,-4.5 h 0.6875 C 2.5625,-3.609375 2.265625,-2.5625 1.28125,-0.484375 1.1875,-0.28125 1.1875,-0.265625 1.1875,-0.1875 c 0,0.25 0.21875,0.3125 0.3125,0.3125 0.359375,0 0.453125,-0.3125 0.59375,-0.8125 0.1875,-0.609375 0.1875,-0.640625 0.3125,-1.125 z m 0,0"
               id="path9" />
          </g>
        </g>
        <g
           fill="#000000"
           fill-opacity="1"
           id="g258"
           transform="matrix(0.352778,0,0,0.352778,-0.873963,-0.702116)">
          <g
             id="use6"
             transform="translate(14.916305,10.959)">
            <path
               d="m 5.125,-8.515625 c 0,-0.015625 0.078125,-0.203125 0.078125,-0.21875 0,-0.140625 -0.125,-0.234375 -0.21875,-0.234375 -0.0625,0 -0.171875,0 -0.265625,0.265625 l -4,11.25 c 0,0.015625 -0.078125,0.1875 -0.078125,0.21875 0,0.140625 0.125,0.21875 0.21875,0.21875 0.078125,0 0.1875,-0.015625 0.265625,-0.265625 z m 0,0"
               id="path10" />
          </g>
        </g>
        <g
           fill="#000000"
           fill-opacity="1"
           id="g259"
           transform="matrix(0.352778,0,0,0.352778,-0.873963,-0.702116)">
          <g
             id="use7"
             transform="translate(20.768,10.959)">
            <path
               d="M 5.265625,-2.015625 H 5 c -0.046875,0.203125 -0.140625,0.875 -0.25,1.0625 C 4.65625,-0.84375 3.984375,-0.84375 3.625,-0.84375 H 1.40625 c 0.328125,-0.28125 1.0625,-1.046875 1.359375,-1.328125 1.828125,-1.671875 2.5,-2.296875 2.5,-3.484375 0,-1.375 -1.09375,-2.296875 -2.484375,-2.296875 -1.375,0 -2.203125,1.1875 -2.203125,2.21875 0,0.609375 0.53125,0.609375 0.5625,0.609375 0.265625,0 0.5625,-0.1875 0.5625,-0.5625 0,-0.34375 -0.21875,-0.5625 -0.5625,-0.5625 -0.09375,0 -0.125,0 -0.15625,0.015625 0.21875,-0.8125 0.875,-1.375 1.640625,-1.375 1.015625,0 1.640625,0.859375 1.640625,1.953125 C 4.265625,-4.640625 3.6875,-3.75 3,-2.984375 L 0.578125,-0.28125 V 0 h 4.375 z m 0,0"
               id="path11" />
          </g>
        </g>
      </g>
      <g
         inkscape:label=""
         transform="matrix(3.77953,0,0,3.77953,555.70196,131.05135)"
         id="g264">
        <g
           fill="#000000"
           fill-opacity="1"
           id="g261"
           transform="matrix(0.352778,0,0,0.352778,-0.907036,-0.614848)">
          <g
             id="use2"
             transform="translate(1.993,9.6960001)">
            <path
               d="M 5.265625,-2.015625 H 5 c -0.046875,0.203125 -0.140625,0.875 -0.25,1.0625 C 4.65625,-0.84375 3.984375,-0.84375 3.625,-0.84375 H 1.40625 c 0.328125,-0.28125 1.0625,-1.046875 1.359375,-1.328125 1.828125,-1.671875 2.5,-2.296875 2.5,-3.484375 0,-1.375 -1.09375,-2.296875 -2.484375,-2.296875 -1.375,0 -2.203125,1.1875 -2.203125,2.21875 0,0.609375 0.53125,0.609375 0.5625,0.609375 0.265625,0 0.5625,-0.1875 0.5625,-0.5625 0,-0.34375 -0.21875,-0.5625 -0.5625,-0.5625 -0.09375,0 -0.125,0 -0.15625,0.015625 0.21875,-0.8125 0.875,-1.375 1.640625,-1.375 1.015625,0 1.640625,0.859375 1.640625,1.953125 C 4.265625,-4.640625 3.6875,-3.75 3,-2.984375 L 0.578125,-0.28125 V 0 h 4.375 z m 0,0"
               id="path4" />
          </g>
        </g>
        <g
           fill="#000000"
           fill-opacity="1"
           id="g263"
           transform="matrix(0.352778,0,0,0.352778,-0.907036,-0.614848)">
          <g
             id="g262"
             transform="translate(7.8460002,9.6960001)">
            <path
               d="m 3.09375,-4.5 h 1.359375 c -0.328125,1.328125 -0.53125,2.203125 -0.53125,3.15625 0,0.171875 0,1.46875 0.484375,1.46875 0.25,0 0.46875,-0.234375 0.46875,-0.4375 0,-0.0625 0,-0.078125 -0.078125,-0.265625 -0.328125,-0.828125 -0.328125,-1.84375 -0.328125,-1.9375 0,-0.0625 0,-0.921875 0.25,-1.984375 H 6.0625 c 0.15625,0 0.546875,0 0.546875,-0.390625 0,-0.265625 -0.21875,-0.265625 -0.4375,-0.265625 h -3.9375 c -0.28125,0 -0.6875,0 -1.234375,0.59375 -0.3125,0.34375 -0.6875,0.984375 -0.6875,1.046875 0,0.078125 0.0625,0.09375 0.125,0.09375 0.09375,0 0.09375,-0.03125 0.15625,-0.109375 C 1.21875,-4.5 1.84375,-4.5 2.140625,-4.5 h 0.6875 C 2.5625,-3.609375 2.265625,-2.5625 1.28125,-0.484375 1.1875,-0.28125 1.1875,-0.265625 1.1875,-0.1875 c 0,0.25 0.21875,0.3125 0.3125,0.3125 0.359375,0 0.453125,-0.3125 0.59375,-0.8125 0.1875,-0.609375 0.1875,-0.640625 0.3125,-1.125 z m 0,0"
               id="path5" />
          </g>
        </g>
      </g>
      <g
         inkscape:label=""
         transform="matrix(3.77953,0,0,3.77953,586.90933,128.62158)"
         id="g267">
        <g
           fill="#000000"
           fill-opacity="1"
           id="g52"
           transform="matrix(0.352778,0,0,0.352778,-0.818841,-0.660444)">
          <g
             id="g1"
             transform="translate(1.993,10.294)">
            <path
               d="m 5.9375,-4.25 c 0.21875,-0.921875 0.25,-1.421875 0.25,-1.828125 0,-0.828125 -0.1875,-2.34375 -1.28125,-2.34375 -0.96875,0 -1.71875,1.296875 -1.71875,2.1875 0,1.171875 1.1875,1.75 1.921875,1.984375 -0.3125,1.34375 -0.5625,2.03125 -0.90625,2.71875 -0.5,0.96875 -0.90625,1.40625 -1.375,1.40625 -0.875,0 -0.875,-0.71875 -0.875,-0.953125 0,-0.265625 0.0625,-0.5625 0.15625,-0.984375 C 2.171875,-2.359375 2.25,-2.625 2.328125,-2.96875 2.4375,-3.375 2.375,-3.125 2.46875,-3.546875 c 0.0625,-0.21875 0.125,-0.453125 0.125,-0.65625 0,-0.71875 -0.546875,-1.0625 -1.046875,-1.0625 -0.34375,0 -0.609375,0.15625 -0.84375,0.609375 -0.21875,0.4375 -0.375,1.171875 -0.375,1.21875 0,0.046875 0.046875,0.109375 0.125,0.109375 0.09375,0 0.109375,-0.015625 0.1875,-0.296875 0.171875,-0.703125 0.40625,-1.40625 0.875,-1.40625 0.28125,0 0.375,0.1875 0.375,0.546875 0,0.265625 -0.046875,0.4375 -0.140625,0.78125 -0.046875,0.265625 -0.15625,0.671875 -0.203125,0.875 l -0.21875,0.875 c -0.09375,0.40625 -0.09375,0.578125 -0.09375,0.734375 0,0.171875 0,0.703125 0.421875,1.046875 0.40625,0.28125 0.9375,0.296875 1.125,0.296875 1.375,0 2.625,-2.28125 3.09375,-4.140625 0.28125,0.0625 0.5,0.109375 0.5625,0.109375 0.0625,0 0.09375,-0.09375 0.09375,-0.140625 0,-0.078125 -0.078125,-0.09375 -0.25,-0.125 z M 5.171875,-4.484375 C 4.0625,-4.859375 3.453125,-5.453125 3.453125,-6.25 c 0,-0.78125 0.640625,-1.921875 1.4375,-1.921875 0.578125,0 0.625,0.75 0.625,1.421875 0,0.6875 -0.125,1.3125 -0.34375,2.265625 z m 0,0"
               id="path1" />
          </g>
        </g>
        <g
           fill="#000000"
           fill-opacity="1"
           id="g266"
           transform="matrix(0.352778,0,0,0.352778,-0.818841,-0.660444)">
          <g
             id="g183"
             transform="translate(8.8920002,12.087)">
            <path
               d="m 3.296875,-1.8125 c 0.171875,0 0.21875,0 0.21875,-0.1875 C 3.515625,-2.703125 3.125,-3.546875 2,-3.546875 c -0.984375,0 -1.765625,0.8125 -1.765625,1.796875 0,1.03125 0.859375,1.828125 1.875,1.828125 1,0 1.40625,-0.84375 1.40625,-1.03125 0,-0.03125 -0.03125,-0.109375 -0.125,-0.109375 -0.09375,0 -0.109375,0.046875 -0.125,0.09375 -0.28125,0.78125 -0.96875,0.796875 -1.109375,0.796875 -0.359375,0 -0.734375,-0.15625 -0.96875,-0.53125 C 0.953125,-1.0625 0.953125,-1.578125 0.953125,-1.8125 Z M 0.953125,-2.03125 C 1.03125,-3.140625 1.703125,-3.328125 2,-3.328125 c 0.9375,0 0.96875,1.125 0.96875,1.296875 z m 0,0"
               id="path181" />
          </g>
          <g
             id="g265"
             transform="translate(12.655481,12.087)">
            <path
               d="m 1.515625,-5.53125 -1.1875,0.09375 v 0.265625 c 0.546875,0 0.609375,0.046875 0.609375,0.4375 V -0.625 c 0,0.359375 -0.09375,0.359375 -0.609375,0.359375 V 0 c 0.3125,-0.03125 0.765625,-0.03125 0.90625,-0.03125 0.15625,0 0.578125,0 0.890625,0.03125 v -0.265625 c -0.5,0 -0.609375,0 -0.609375,-0.359375 z m 0,0"
               id="path242" />
          </g>
        </g>
      </g>
      <path
         style="fill:none;fill-rule:evenodd;stroke:#af7500;stroke-width:0.944884;stroke-linecap:round;stroke-miterlimit:3.9;stroke-dasharray:none;stroke-opacity:1"
         d="m 16.302667,77.142156 c 6.288739,-2.961435 12.577959,-5.922721 18.866699,-8.814965 6.288739,-2.892398 12.57796,-5.714987 18.866699,-8.402867 6.28874,-2.688034 12.57748,-5.239979 18.866701,-7.597839 6.288739,-2.357856 12.577478,-4.519945 18.866699,-6.437471 6.288739,-1.917369 12.577475,-3.588493 18.866225,-4.976081 6.28922,-1.387439 12.57795,-2.489347 18.86669,-3.281947 6.28923,-0.792605 12.57796,-1.273904 18.8667,-1.434541 6.28874,-0.160638 12.57796,0.0012 18.8667,0.480071 6.28874,0.478843 12.57796,1.276358 18.8667,2.372129 6.28874,1.095924 12.57748,2.491801 18.8667,4.153409 6.28873,1.661765 12.57748,3.590645 18.8667,5.740455 6.28873,2.149814 12.57748,4.521483 18.86621,7.059006 6.28922,2.537364 12.57797,5.241048 18.8667,8.047373 6.28922,2.806326 12.57797,5.715754 18.8667,8.659703 6.28874,2.944103 12.57796,5.922879 18.8667,8.867135 6.28874,2.944103 12.57796,5.853071 18.8667,8.659703 6.28874,2.806479 12.57747,5.509702 18.8667,8.047374 6.28874,2.537827 12.57747,4.908877 18.8667,7.058997 6.28874,2.15027 12.57747,4.07822 18.86622,5.74044 6.29066,1.66222 12.57603,3.05687 18.86622,4.1534 6.29018,1.09639 12.58036,1.89267 18.86573,2.37213 6.29019,0.47945 12.58037,0.64009 18.87055,0.48007 6.28537,-0.16003 12.57555,-0.64255 18.86574,-1.43454 6.28536,-0.79198 12.57555,-1.89512 18.86573,-3.28194 6.29019,-1.38697 12.57555,-3.05917 18.86574,-4.97607 6.2902,-1.91706 12.58038,-4.08007 18.86575,-6.43746 6.29019,-2.357397 12.58037,-4.910109 18.86573,-7.597836 6.29019,-2.687574 12.58037,-5.510623 18.87056,-8.402867 6.28536,-2.892091 12.57555,-5.853531 18.86573,-8.814971"
         title="t sin(t)"
         id="path13" />
      <path
         style="fill:none;fill-rule:evenodd;stroke:#af008f;stroke-width:0.944883;stroke-linecap:round;stroke-miterlimit:3.9;stroke-dasharray:none;stroke-opacity:1"
         d="m 16.302667,77.142156 c 2.092264,-2.96144 4.184688,-5.922724 6.276952,-8.814968 2.092263,-2.892398 4.184687,-5.714987 6.27695,-8.402867 2.092264,-2.688034 4.184529,-5.239979 6.276952,-7.597839 2.092265,-2.357856 4.184529,-4.519945 6.276953,-6.437471 2.092264,-1.917369 4.184524,-3.588493 6.276794,-4.976081 2.092421,-1.387439 4.184681,-2.489347 6.276952,-3.281947 2.09242,-0.792605 4.18469,-1.273904 6.276951,-1.434541 2.09226,-0.160638 4.184691,0.0012 6.276951,0.480071 2.09226,0.478843 4.184691,1.276358 6.276951,2.372129 2.09226,1.095924 4.184531,2.491801 6.276951,4.153409 2.092261,1.661765 4.184531,3.590645 6.276951,5.740455 2.092261,2.149814 4.184531,4.521483 6.276791,7.059006 2.092421,2.537364 4.184691,5.241048 6.276952,8.047373 2.092413,2.806326 4.184692,5.715754 6.276952,8.659701 2.09227,2.9441 4.18469,5.92288 6.27695,8.86714 2.09227,2.9441 4.18469,5.85307 6.27695,8.6597 2.09227,2.80648 4.18453,5.5097 6.27695,8.04737 2.09227,2.537834 4.18453,4.908884 6.27695,7.059004 2.09227,2.15027 4.18453,4.07822 6.2768,5.74044 2.0929,1.66222 4.18404,3.05687 6.27679,4.1534 2.09274,1.09639 4.18548,1.89267 6.27663,2.37213 2.09274,0.47945 4.18549,0.64009 6.27824,0.48007 2.09113,-0.16003 4.18388,-0.64255 6.27663,-1.43454 2.09114,-0.79198 4.18388,-1.89512 6.27663,-3.28194 2.09274,-1.38697 4.18388,-3.05917 6.27663,-4.97607 2.09275,-1.91706 4.18549,-4.08007 6.27663,-6.43746 2.09275,-2.357404 4.18549,-4.910114 6.27663,-7.597844 2.09275,-2.68757 4.18549,-5.51062 6.27823,-8.40286 2.09115,-2.89209 4.18389,-5.85353 6.27663,-8.81497"
         title="t sin(t)"
         id="path13-4" />
      <path
         style="fill:none;fill-rule:evenodd;stroke:#af008f;stroke-width:0.944883;stroke-linecap:round;stroke-miterlimit:3.9;stroke-dasharray:none;stroke-opacity:1"
         d="m 198.33394,77.142156 c 2.0948,-2.96144 4.18977,-5.922724 6.28456,-8.814968 2.0948,-2.892398 4.18976,-5.714987 6.28456,-8.402867 2.0948,-2.688034 4.1896,-5.239979 6.28456,-7.597839 2.09481,-2.357856 4.1896,-4.519945 6.28456,-6.437471 2.0948,-1.917369 4.1896,-3.588493 6.28441,-4.976081 2.09495,-1.387439 4.18975,-2.489347 6.28456,-3.281947 2.09495,-0.792605 4.18976,-1.273904 6.28455,-1.434541 2.0948,-0.160638 4.18977,0.0012 6.28456,0.480071 2.0948,0.478843 4.18977,1.276358 6.28456,2.372129 2.0948,1.095924 4.1896,2.491801 6.28456,4.153409 2.0948,1.661765 4.1896,3.590645 6.28456,5.740455 2.0948,2.149814 4.1896,4.521483 6.2844,7.059006 2.09496,2.537364 4.18976,5.241048 6.28456,8.047373 2.09494,2.806326 4.18975,5.715754 6.28455,8.659701 2.0948,2.9441 4.18976,5.92288 6.28456,8.86714 2.0948,2.9441 4.18976,5.85307 6.28455,8.6597 2.09481,2.80648 4.18961,5.5097 6.28456,8.047371 2.09481,2.537893 4.18961,4.908973 6.28456,7.059093 2.09481,2.15027 4.1896,4.07822 6.28441,5.74044 2.09544,1.66222 4.18911,3.05687 6.2844,4.1534 2.09528,1.09639 4.19055,1.89267 6.28424,2.37213 2.09527,0.47945 4.19055,0.64009 6.28584,0.48007 2.09367,-0.16003 4.18895,-0.64255 6.28424,-1.43454 2.09367,-0.79198 4.18895,-1.89512 6.28424,-3.28194 2.09527,-1.38697 4.18895,-3.05917 6.28423,-4.97607 2.09529,-1.91706 4.19057,-4.08007 6.28424,-6.43746 2.09529,-2.357493 4.19057,-4.910203 6.28424,-7.597934 2.09529,-2.68757 4.19056,-5.51062 6.28584,-8.40286 2.09368,-2.89209 4.18896,-5.85353 6.28424,-8.81497"
         title="t sin(t)"
         id="path13-4-1" />
      <path
         style="fill:none;fill-rule:evenodd;stroke:#af008f;stroke-width:0.944883;stroke-linecap:round;stroke-miterlimit:3.9;stroke-dasharray:none;stroke-opacity:1"
         d="m 380.58585,77.142156 c 2.10167,-2.96144 4.20352,-5.922724 6.30519,-8.814968 2.10167,-2.892398 4.20352,-5.714987 6.30519,-8.402867 2.10167,-2.688034 4.20335,-5.239979 6.30519,-7.597839 2.10168,-2.357856 4.20335,-4.519945 6.30519,-6.437471 2.10168,-1.917369 4.20335,-3.588493 6.30503,-4.976081 2.10184,-1.387439 4.20351,-2.489347 6.30519,-3.281947 2.10184,-0.792605 4.20352,-1.273904 6.30519,-1.434541 2.10167,-0.160638 4.20352,0.0012 6.30519,0.480071 2.10167,0.478843 4.20352,1.276358 6.30519,2.372129 2.10167,1.095924 4.20335,2.491801 6.30519,4.153409 2.10167,1.661765 4.20335,3.590645 6.30518,5.740455 2.10168,2.149814 4.20336,4.521483 6.30503,7.059006 2.10184,2.537364 4.20352,5.241048 6.30519,8.047373 2.10182,2.806326 4.20351,5.715754 6.30518,8.659701 2.10168,2.9441 4.20352,5.92288 6.30519,8.86714 2.10168,2.9441 4.20351,5.85307 6.30519,8.6597 2.10168,2.80648 4.20335,5.5097 6.30518,8.047371 2.10169,2.537823 4.20336,4.908873 6.30519,7.058993 2.10169,2.15027 4.20336,4.07822 6.30504,5.74044 2.10232,1.66222 4.20286,3.05687 6.30503,4.1534 2.10215,1.09639 4.20431,1.89267 6.30487,2.37213 2.10215,0.47945 4.20431,0.64009 6.30647,0.48007 2.10055,-0.16003 4.2027,-0.64255 6.30487,-1.43454 2.10054,-0.79198 4.2027,-1.89512 6.30486,-3.28194 2.10216,-1.38697 4.20271,-3.05917 6.30487,-4.97607 2.10217,-1.91706 4.20432,-4.08007 6.30487,-6.43746 2.10216,-2.357393 4.20432,-4.910103 6.30486,-7.597834 2.10217,-2.68757 4.20433,-5.51062 6.30648,-8.40286 2.10056,-2.89209 4.20271,-5.85353 6.30487,-8.81497"
         title="t sin(t)"
         id="path13-4-1-8" />
      <path
         style="fill:none;fill-rule:evenodd;stroke:#ff0000;stroke-width:0.94488308;stroke-linecap:round;stroke-miterlimit:3.9;stroke-dasharray:2.83464934,2.83464934;stroke-dashoffset:0;stroke-opacity:1;marker-end:url(#ArrowWideRounded)"
         d="m 152.96934,76.659223 0.1,-40.522877"
         id="path14" />
      <path
         style="fill:none;fill-rule:evenodd;stroke:#ff0000;stroke-width:0.94488308;stroke-linecap:round;stroke-miterlimit:3.9;stroke-dasharray:2.83464934,2.83464934;stroke-dashoffset:0;stroke-opacity:1;marker-end:url(#ArrowWideRounded-7)"
         d="m 183.8817,76.659223 0.1,-40.522877"
         id="path14-2" />
      <path
         style="fill:none;fill-rule:evenodd;stroke:#ff0000;stroke-width:0.94488308;stroke-linecap:round;stroke-miterlimit:3.9;stroke-dasharray:2.83464934,2.83464934;stroke-dashoffset:0;stroke-opacity:1;marker-end:url(#ArrowWideRounded-7-5)"
         d="m 122.6441,76.659223 0.1,-40.522877"
         id="path14-2-2" />
      <path
         style="fill:none;fill-rule:evenodd;stroke:#ff0000;stroke-width:0.94488308;stroke-linecap:round;stroke-miterlimit:3.9;stroke-dasharray:2.83464934,2.83464934;stroke-dashoffset:0;stroke-opacity:1;marker-end:url(#ArrowWideRounded-7-5-4)"
         d="m 426.60266,76.740063 -0.1,41.364347"
         id="path14-2-2-9" />
      <path
         style="fill:none;fill-rule:evenodd;stroke:#ff0000;stroke-width:0.94488308;stroke-linecap:round;stroke-miterlimit:3.9;stroke-dasharray:2.83464934,2.83464934;stroke-dashoffset:0;stroke-opacity:1;marker-end:url(#ArrowWideRounded-7-5-4-9)"
         d="m 457.04097,76.740063 -0.1,41.364347"
         id="path14-2-2-9-1" />
      <path
         style="fill:none;fill-rule:evenodd;stroke:#ff0000;stroke-width:0.94488308;stroke-linecap:round;stroke-miterlimit:3.9;stroke-dasharray:2.83464934,2.83464934;stroke-dashoffset:0;stroke-opacity:1;marker-end:url(#ArrowWideRounded-7-5-4-9-8)"
         d="m 396.20266,76.853333 -0.1,41.364347"
         id="path14-2-2-9-1-3" />
      <text
         xml:space="preserve"
         style="font-size:12px;line-height:1.05;font-family:sans-serif;-inkscape-font-specification:sans-serif;text-align:center;text-anchor:middle;fill:#af008f;fill-opacity:1;fill-rule:evenodd;stroke:#af008f;stroke-width:0.56693;stroke-linecap:round;stroke-miterlimit:3.9;stroke-dasharray:1.70079, 1.70079;stroke-dashoffset:0;stroke-opacity:1"
         x="523.21484"
         y="39.60968"
         id="text15"><tspan
           sodipodi:role="line"
           id="tspan15"
           style="fill:#af008f;fill-opacity:1;stroke:none;stroke-width:0.56693"
           x="523.21484"
           y="39.60968">Ideal current distribution </tspan><tspan
           sodipodi:role="line"
           style="fill:#af008f;fill-opacity:1;stroke:none;stroke-width:0.56693"
           x="523.21484"
           y="52.209679"
           id="tspan16">3rd harmonic</tspan></text>
      <text
         xml:space="preserve"
         style="font-size:12px;line-height:1.05;font-family:sans-serif;-inkscape-font-specification:sans-serif;text-align:center;text-anchor:middle;fill:#af7500;fill-opacity:1;fill-rule:evenodd;stroke:#af008f;stroke-width:0.56693;stroke-linecap:round;stroke-miterlimit:3.9;stroke-dasharray:1.70079, 1.70079;stroke-dashoffset:0;stroke-opacity:1"
         x="337.17734"
         y="39.87608"
         id="text15-6"><tspan
           sodipodi:role="line"
           id="tspan15-8"
           style="fill:#af7500;fill-opacity:1;stroke:none;stroke-width:0.56693"
           x="337.17734"
           y="39.87608">Ideal current distribution </tspan><tspan
           sodipodi:role="line"
           style="fill:#af7500;fill-opacity:1;stroke:none;stroke-width:0.56693"
           x="339.28671"
           y="52.476078"
           id="tspan16-5">fundamental </tspan></text>
      <path
         style="fill:#af7500;fill-opacity:1;fill-rule:evenodd;stroke:#af7500;stroke-width:0.377953;stroke-linecap:round;stroke-miterlimit:3.9;stroke-dasharray:none;stroke-dashoffset:0;stroke-opacity:1"
         d="M 343.44702,58.074747 332.66936,92.341668"
         id="path16" />
    </g>
  </g>
</svg>
