<?xml version="1.0" encoding="UTF-8" standalone="no"?>
<!-- Created with Inkscape (http://www.inkscape.org/) -->

<svg
   width="58.953896mm"
   height="48.759331mm"
   viewBox="0 0 58.953896 48.759331"
   version="1.1"
   id="svg1"
   inkscape:version="1.3.2 (091e20e, 2023-11-25, custom)"
   sodipodi:docname="SM_steady_state_stability.svg"
   xmlns:inkscape="http://www.inkscape.org/namespaces/inkscape"
   xmlns:sodipodi="http://sodipodi.sourceforge.net/DTD/sodipodi-0.dtd"
   xmlns="http://www.w3.org/2000/svg"
   xmlns:svg="http://www.w3.org/2000/svg">
  <sodipodi:namedview
     id="namedview1"
     pagecolor="#505050"
     bordercolor="#eeeeee"
     borderopacity="1"
     inkscape:showpageshadow="0"
     inkscape:pageopacity="0"
     inkscape:pagecheckerboard="0"
     inkscape:deskcolor="#505050"
     inkscape:document-units="mm"
     showgrid="true"
     inkscape:zoom="3.9660774"
     inkscape:cx="144.22311"
     inkscape:cy="117.62252"
     inkscape:window-width="2560"
     inkscape:window-height="1351"
     inkscape:window-x="2551"
     inkscape:window-y="-9"
     inkscape:window-maximized="1"
     inkscape:current-layer="layer1"
     inkscape:lockguides="true">
    <inkscape:grid
       id="grid1"
       units="px"
       originx="-13.144926"
       originy="1.1858292"
       spacingx="0.26458333"
       spacingy="0.26458334"
       empcolor="#0099e5"
       empopacity="0.30196078"
       color="#0099e5"
       opacity="0.14901961"
       empspacing="5"
       dotted="false"
       gridanglex="30"
       gridanglez="30"
       visible="true" />
  </sodipodi:namedview>
  <defs
     id="defs1">
    <inkscape:path-effect
       effect="spiro"
       id="path-effect37"
       is_visible="true"
       lpeversion="1" />
    <inkscape:path-effect
       effect="bspline"
       id="path-effect14"
       is_visible="true"
       lpeversion="1.3"
       weight="33.333333"
       steps="2"
       helper_size="0"
       apply_no_weight="true"
       apply_with_weight="true"
       only_selected="false"
       uniform="false" />
    <marker
       style="overflow:visible"
       id="Triangle"
       refX="0"
       refY="0"
       orient="auto-start-reverse"
       inkscape:stockid="Triangle arrow"
       markerWidth="1"
       markerHeight="1"
       viewBox="0 0 1 1"
       inkscape:isstock="true"
       inkscape:collect="always"
       preserveAspectRatio="xMidYMid">
      <path
         transform="scale(0.5)"
         style="fill:context-stroke;fill-rule:evenodd;stroke:context-stroke;stroke-width:1pt"
         d="M 5.77,0 -2.88,5 V -5 Z"
         id="path135" />
    </marker>
    <marker
       style="overflow:visible"
       id="Triangle-6"
       refX="0"
       refY="0"
       orient="auto-start-reverse"
       inkscape:stockid="Triangle arrow"
       markerWidth="1"
       markerHeight="1"
       viewBox="0 0 1 1"
       inkscape:isstock="true"
       inkscape:collect="always"
       preserveAspectRatio="xMidYMid">
      <path
         transform="scale(0.5)"
         style="fill:context-stroke;fill-rule:evenodd;stroke:context-stroke;stroke-width:1pt"
         d="M 5.77,0 -2.88,5 V -5 Z"
         id="path135-3" />
    </marker>
  </defs>
  <g
     inkscape:label="Layer 1"
     inkscape:groupmode="layer"
     id="layer1"
     transform="translate(-13.144963,1.1858287)">
    <path
       style="fill:none;fill-rule:evenodd;stroke:#000000;stroke-width:0.2;stroke-linecap:round;stroke-miterlimit:3.9;stroke-dasharray:none;stroke-opacity:1;marker-start:url(#Triangle)"
       d="M 42.333336,-0.37058901 V 41.97019"
       id="path1" />
    <path
       style="fill:none;fill-rule:evenodd;stroke:#000000;stroke-width:0.2;stroke-linecap:round;stroke-miterlimit:3.9;stroke-dasharray:none;stroke-opacity:1;marker-start:url(#Triangle-6)"
       d="M 70.615088,22.18447 H 13.244963"
       id="path1-9" />
    <g
       inkscape:label=""
       transform="translate(51.245318,13.05829)"
       id="g53" />
    <g
       inkscape:label=""
       transform="translate(70.759406,22.3323)"
       id="g54">
      <g
         fill="#000000"
         fill-opacity="1"
         id="g2"
         transform="matrix(0.352778,0,0,0.352778,-0.835378,-0.667059)">
        <g
           id="use1"
           transform="translate(1.993,8.2189999)">
          <path
             d="m 4.171875,-4.4375 c 0,-0.921875 -0.296875,-1.890625 -1.125,-1.890625 -1.3125,0 -2.671875,2.5625 -2.671875,4.546875 0,0.65625 0.1875,1.875 1.125,1.875 1.3125,0 2.671875,-2.53125 2.671875,-4.53125 z M 1.34375,-3.25 c 0.1875,-0.71875 0.375,-1.375 0.734375,-1.984375 0.21875,-0.359375 0.546875,-0.859375 0.96875,-0.859375 0.484375,0 0.515625,0.765625 0.515625,1.109375 0,0.53125 -0.140625,1.15625 -0.28125,1.734375 z m 1.859375,0.28125 C 3.0625,-2.40625 2.890625,-1.734375 2.53125,-1.09375 2.296875,-0.671875 1.9375,-0.125 1.5,-0.125 1.125,-0.125 1,-0.59375 1,-1.25 1,-1.828125 1.140625,-2.40625 1.28125,-2.96875 Z m 0,0"
             id="path2" />
        </g>
      </g>
    </g>
    <g
       inkscape:label=""
       transform="translate(43.472582,23.511901)"
       id="g5">
      <g
         fill="#000000"
         fill-opacity="1"
         id="g4"
         transform="matrix(0.352778,0,0,0.352778,-0.829866,-0.635441)">
        <g
           id="g3"
           transform="translate(1.993,7.77)">
          <path
             d="M 4.25,-2.875 C 4.25,-3.46875 4.21875,-4.25 3.90625,-4.921875 3.5,-5.765625 2.828125,-5.96875 2.3125,-5.96875 c -0.546875,0 -1.234375,0.203125 -1.625,1.078125 -0.28125,0.609375 -0.328125,1.34375 -0.328125,2.015625 0,0.59375 0.015625,1.453125 0.40625,2.171875 0.421875,0.75 1.125,0.90625 1.53125,0.90625 0.578125,0 1.25,-0.25 1.625,-1.078125 C 4.1875,-1.484375 4.25,-2.15625 4.25,-2.875 Z m -1.9375,2.84375 c -0.28125,0 -0.921875,-0.125 -1.09375,-1.140625 C 1.125,-1.6875 1.125,-2.46875 1.125,-2.984375 c 0,-0.609375 0,-1.3125 0.109375,-1.8125 0.1875,-0.796875 0.75,-0.953125 1.0625,-0.953125 0.34375,0 0.90625,0.1875 1.078125,1.015625 0.09375,0.484375 0.09375,1.1875 0.09375,1.75 0,0.5625 0,1.3125 -0.09375,1.84375 -0.1875,1.03125 -0.84375,1.109375 -1.0625,1.109375 z m 0,0"
             id="path3" />
        </g>
      </g>
    </g>
    <g
       inkscape:label=""
       transform="translate(54.58307,23.281447)"
       id="g8">
      <g
         fill="#000000"
         fill-opacity="1"
         id="g6"
         transform="matrix(0.352778,0,0,0.352778,-1.12448,-0.701278)">
        <g
           id="use2"
           transform="translate(3.188,4.566)">
          <path
             d="m 2.03125,-2.15625 h 0.734375 c -0.125,0.53125 -0.203125,0.921875 -0.203125,1.3125 0,0.296875 0.09375,0.90625 0.375,0.90625 0.15625,0 0.28125,-0.140625 0.28125,-0.28125 0,-0.046875 -0.015625,-0.09375 -0.03125,-0.125 C 2.96875,-0.734375 2.921875,-1.125 2.921875,-1.4375 c 0,-0.09375 0,-0.359375 0.078125,-0.71875 h 0.796875 c 0.0625,0 0.328125,0 0.328125,-0.25 0,-0.171875 -0.171875,-0.171875 -0.265625,-0.171875 H 1.46875 c -0.109375,0 -0.390625,0 -0.703125,0.296875 -0.1875,0.171875 -0.40625,0.46875 -0.40625,0.515625 0,0.09375 0.078125,0.09375 0.109375,0.09375 0.0625,0 0.078125,-0.015625 0.125,-0.0625 0.09375,-0.15625 0.328125,-0.421875 0.8125,-0.421875 h 0.390625 c -0.203125,0.75 -0.609375,1.546875 -0.6875,1.703125 -0.046875,0.09375 -0.125,0.25 -0.125,0.3125 0,0.125 0.09375,0.203125 0.21875,0.203125 0.203125,0 0.28125,-0.21875 0.34375,-0.40625 C 1.65625,-0.71875 1.65625,-0.734375 1.75,-1.046875 Z m 0,0"
             id="path4" />
        </g>
      </g>
      <path
         fill="none"
         stroke-width="0.379"
         stroke-linecap="butt"
         stroke-linejoin="miter"
         stroke="#000000"
         stroke-opacity="1"
         stroke-miterlimit="10"
         d="M 0,4.0082188 H 4.558594"
         id="path6"
         transform="scale(0.352778)" />
      <g
         fill="#000000"
         fill-opacity="1"
         id="g7"
         transform="matrix(0.352778,0,0,0.352778,-1.12448,-0.701278)">
        <g
           id="use3"
           transform="translate(3.641,11.282)">
          <path
             d="M 3.21875,-1.125 H 3 C 2.984375,-1.03125 2.921875,-0.640625 2.84375,-0.578125 2.796875,-0.53125 2.3125,-0.53125 2.21875,-0.53125 H 1.109375 L 1.875,-1.15625 C 2.078125,-1.328125 2.609375,-1.703125 2.796875,-1.890625 2.96875,-2.0625 3.21875,-2.375 3.21875,-2.796875 c 0,-0.75 -0.671875,-1.1875 -1.484375,-1.1875 -0.765625,0 -1.296875,0.515625 -1.296875,1.078125 0,0.296875 0.25,0.34375 0.3125,0.34375 0.15625,0 0.328125,-0.109375 0.328125,-0.328125 C 1.078125,-3.015625 1,-3.21875 0.734375,-3.21875 0.875,-3.515625 1.234375,-3.75 1.65625,-3.75 c 0.625,0 0.953125,0.46875 0.953125,0.953125 0,0.421875 -0.28125,0.859375 -0.6875,1.25 L 0.5,-0.25 C 0.4375,-0.1875 0.4375,-0.1875 0.4375,0 h 2.59375 z m 0,0"
             id="path5" />
        </g>
      </g>
    </g>
    <g
       inkscape:label=""
       transform="translate(27.383382,18.330474)"
       id="g13">
      <g
         fill="#000000"
         fill-opacity="1"
         id="g10"
         transform="matrix(0.352778,0,0,0.352778,-0.973182,-0.701278)">
        <g
           id="g9"
           transform="translate(1.993,8.2399998)">
          <path
             d="m 6.046875,-2.046875 c 0.171875,0 0.34375,0 0.34375,-0.203125 0,-0.1875 -0.1875,-0.1875 -0.34375,-0.1875 h -4.9375 c -0.15625,0 -0.34375,0 -0.34375,0.1875 0,0.203125 0.171875,0.203125 0.34375,0.203125 z m 0,0"
             id="path8" />
        </g>
      </g>
      <g
         fill="#000000"
         fill-opacity="1"
         id="g11"
         transform="matrix(0.352778,0,0,0.352778,-0.973182,-0.701278)">
        <g
           id="use4"
           transform="translate(10.356,4.566)">
          <path
             d="m 2.03125,-2.15625 h 0.734375 c -0.125,0.53125 -0.203125,0.921875 -0.203125,1.3125 0,0.296875 0.09375,0.90625 0.375,0.90625 0.15625,0 0.28125,-0.140625 0.28125,-0.28125 0,-0.046875 -0.015625,-0.09375 -0.03125,-0.125 C 2.96875,-0.734375 2.921875,-1.125 2.921875,-1.4375 c 0,-0.09375 0,-0.359375 0.078125,-0.71875 h 0.796875 c 0.0625,0 0.328125,0 0.328125,-0.25 0,-0.171875 -0.171875,-0.171875 -0.265625,-0.171875 H 1.46875 c -0.109375,0 -0.390625,0 -0.703125,0.296875 -0.1875,0.171875 -0.40625,0.46875 -0.40625,0.515625 0,0.09375 0.078125,0.09375 0.109375,0.09375 0.0625,0 0.078125,-0.015625 0.125,-0.0625 0.09375,-0.15625 0.328125,-0.421875 0.8125,-0.421875 h 0.390625 c -0.203125,0.75 -0.609375,1.546875 -0.6875,1.703125 -0.046875,0.09375 -0.125,0.25 -0.125,0.3125 0,0.125 0.09375,0.203125 0.21875,0.203125 0.203125,0 0.28125,-0.21875 0.34375,-0.40625 C 1.65625,-0.71875 1.65625,-0.734375 1.75,-1.046875 Z m 0,0"
             id="path7" />
        </g>
      </g>
      <path
         fill="none"
         stroke-width="0.379"
         stroke-linecap="butt"
         stroke-linejoin="miter"
         stroke="#000000"
         stroke-opacity="1"
         stroke-miterlimit="10"
         d="M 7.5968437,4.0082188 H 12.155437"
         id="path11"
         transform="scale(0.352778)" />
      <g
         fill="#000000"
         fill-opacity="1"
         id="g12"
         transform="matrix(0.352778,0,0,0.352778,-0.973182,-0.701278)">
        <g
           id="use5"
           transform="translate(10.808,11.282)">
          <path
             d="M 3.21875,-1.125 H 3 C 2.984375,-1.03125 2.921875,-0.640625 2.84375,-0.578125 2.796875,-0.53125 2.3125,-0.53125 2.21875,-0.53125 H 1.109375 L 1.875,-1.15625 C 2.078125,-1.328125 2.609375,-1.703125 2.796875,-1.890625 2.96875,-2.0625 3.21875,-2.375 3.21875,-2.796875 c 0,-0.75 -0.671875,-1.1875 -1.484375,-1.1875 -0.765625,0 -1.296875,0.515625 -1.296875,1.078125 0,0.296875 0.25,0.34375 0.3125,0.34375 0.15625,0 0.328125,-0.109375 0.328125,-0.328125 C 1.078125,-3.015625 1,-3.21875 0.734375,-3.21875 0.875,-3.515625 1.234375,-3.75 1.65625,-3.75 c 0.625,0 0.953125,0.46875 0.953125,0.953125 0,0.421875 -0.28125,0.859375 -0.6875,1.25 L 0.5,-0.25 C 0.4375,-0.1875 0.4375,-0.1875 0.4375,0 h 2.59375 z m 0,0"
             id="path12" />
        </g>
      </g>
    </g>
    <g
       inkscape:label=""
       transform="matrix(1.0000398,0,0,1,14.203334,23.840014)"
       id="g18"
       style="stroke-width:0.99998">
      <g
         fill="#000000"
         fill-opacity="1"
         id="g15"
         transform="matrix(0.352778,0,0,0.352778,-0.973182,-5.9783903)"
         style="stroke-width:0.99998">
        <g
           id="g14"
           transform="translate(1.993,7.3060002)"
           style="stroke-width:0.99998">
          <path
             d="m 6.046875,-2.046875 c 0.171875,0 0.34375,0 0.34375,-0.203125 0,-0.1875 -0.1875,-0.1875 -0.34375,-0.1875 h -4.9375 c -0.15625,0 -0.34375,0 -0.34375,0.1875 0,0.203125 0.171875,0.203125 0.34375,0.203125 z m 0,0"
             id="path13"
             style="stroke-width:0.99998" />
        </g>
      </g>
      <g
         fill="#000000"
         fill-opacity="1"
         id="g17"
         transform="matrix(0.352778,0,0,0.352778,-0.973182,-5.9783903)"
         style="stroke-width:0.99998">
        <g
           id="g16"
           transform="translate(9.1599998,7.3060002)"
           style="stroke-width:0.99998">
          <path
             d="M 2.453125,-3.3125 H 3.46875 c -0.125,0.5625 -0.359375,1.5 -0.359375,2.25 0,0.0625 0,0.390625 0.078125,0.71875 0.09375,0.328125 0.171875,0.4375 0.34375,0.4375 0.1875,0 0.390625,-0.15625 0.390625,-0.359375 0,-0.0625 -0.015625,-0.09375 -0.0625,-0.203125 -0.28125,-0.640625 -0.28125,-1.296875 -0.28125,-1.5 0,-0.234375 0,-0.625 0.15625,-1.34375 H 4.78125 c 0.109375,0 0.453125,0 0.453125,-0.3125 0,-0.234375 -0.203125,-0.234375 -0.375,-0.234375 h -3.09375 c -0.21875,0 -0.53125,0 -0.953125,0.421875 -0.25,0.234375 -0.578125,0.734375 -0.578125,0.796875 0,0.109375 0.109375,0.109375 0.140625,0.109375 0.0625,0 0.078125,-0.03125 0.140625,-0.109375 C 0.953125,-3.3125 1.5,-3.3125 1.671875,-3.3125 H 2.1875 c -0.390625,1.359375 -1,2.625 -1.0625,2.765625 -0.0625,0.125 -0.15625,0.3125 -0.15625,0.390625 0,0.109375 0.078125,0.25 0.28125,0.25 0.3125,0 0.40625,-0.3125 0.59375,-1.046875 z m 0,0"
             id="path15"
             style="stroke-width:0.99998" />
        </g>
      </g>
      <path
         style="fill:none;fill-rule:evenodd;stroke:#000000;stroke-width:0.203996;stroke-linecap:round;stroke-miterlimit:3.9;stroke-dasharray:none;stroke-opacity:1"
         d="m 2.4319991,-2.4587969 v 1.5875002"
         id="path22" />
      <path
         style="fill:none;fill-rule:evenodd;stroke:#000000;stroke-width:0.203996;stroke-linecap:round;stroke-miterlimit:3.9;stroke-dasharray:none;stroke-opacity:1"
         d="m 15.327423,-2.4400053 v 1.5874991"
         id="path22-7" />
      <path
         style="fill:none;fill-rule:evenodd;stroke:#000000;stroke-width:0.203996;stroke-linecap:round;stroke-miterlimit:3.9;stroke-dasharray:none;stroke-opacity:1"
         d="m 41.176399,-2.4407786 v 1.58749817"
         id="path22-7-1" />
      <path
         style="fill:none;fill-rule:evenodd;stroke:#000000;stroke-width:0.203996;stroke-linecap:round;stroke-miterlimit:3.9;stroke-dasharray:none;stroke-opacity:1"
         d="m 54.045256,-2.4382444 v 1.58749803"
         id="path22-7-1-2" />
    </g>
    <g
       inkscape:label=""
       transform="translate(67.330393,23.887189)"
       id="g21">
      <g
         fill="#000000"
         fill-opacity="1"
         id="g20"
         transform="matrix(0.352778,0,0,0.352778,-0.785768,-0.703307)">
        <g
           id="g19"
           transform="translate(1.993,5.8530002)">
          <path
             d="M 2.453125,-3.3125 H 3.46875 c -0.125,0.5625 -0.359375,1.5 -0.359375,2.25 0,0.0625 0,0.390625 0.078125,0.71875 0.09375,0.328125 0.171875,0.4375 0.34375,0.4375 0.1875,0 0.390625,-0.15625 0.390625,-0.359375 0,-0.0625 -0.015625,-0.09375 -0.0625,-0.203125 -0.28125,-0.640625 -0.28125,-1.296875 -0.28125,-1.5 0,-0.234375 0,-0.625 0.15625,-1.34375 H 4.78125 c 0.109375,0 0.453125,0 0.453125,-0.3125 0,-0.234375 -0.203125,-0.234375 -0.375,-0.234375 h -3.09375 c -0.21875,0 -0.53125,0 -0.953125,0.421875 -0.25,0.234375 -0.578125,0.734375 -0.578125,0.796875 0,0.109375 0.109375,0.109375 0.140625,0.109375 0.0625,0 0.078125,-0.03125 0.140625,-0.109375 C 0.953125,-3.3125 1.5,-3.3125 1.671875,-3.3125 H 2.1875 c -0.390625,1.359375 -1,2.625 -1.0625,2.765625 -0.0625,0.125 -0.15625,0.3125 -0.15625,0.390625 0,0.109375 0.078125,0.25 0.28125,0.25 0.3125,0 0.40625,-0.3125 0.59375,-1.046875 z m 0,0"
             id="path18" />
        </g>
      </g>
    </g>
    <path
       style="fill:none;fill-rule:evenodd;stroke:#000000;stroke-width:0.204001;stroke-linecap:round;stroke-miterlimit:3.9;stroke-dasharray:none;stroke-opacity:1"
       d="m 16.597395,22.188008 c 0.593852,1.331644 1.187706,2.663235 1.781559,3.963767 0.593852,1.300798 1.187704,2.569689 1.781554,3.778484 0.593853,1.208798 1.187702,2.355903 1.781562,3.416325 0.593841,1.060422 1.187693,2.032565 1.781546,2.894625 0.593852,0.862056 1.187703,1.613498 1.781556,2.237308 0.593853,0.62434 1.187706,1.119453 1.781559,1.475762 0.593853,0.356844 1.187704,0.573287 1.781557,0.645081 0.593853,0.07234 1.187706,-5.31e-4 1.781558,-0.215912 0.593852,-0.214849 1.187704,-0.573819 1.781536,-1.066273 0.593874,-0.492984 1.187749,-1.120517 1.781625,-1.867703 0.593762,-0.747189 1.187637,-1.614565 1.781512,-2.581389 0.593876,-0.966293 1.187751,-2.033096 1.781511,-3.17382 0.593876,-1.141258 1.187751,-2.356968 1.781627,-3.618945 0.593761,-1.261975 1.187636,-2.5699 1.781512,-3.893726 0.593876,-1.323826 1.18775,-2.663288 1.781511,-3.987113 0.593876,-1.32388 1.187751,-2.631963 1.781627,-3.89394 0.593874,-1.261977 1.187637,-2.477475 1.781513,-3.618571 0.593876,-1.14115 1.187749,-2.207263 1.781626,-3.1741397 0.593761,-0.9668764 1.187636,-1.8337754 1.781512,-2.5812294 0.593874,-0.7474014 1.18775,-1.3745605 1.781512,-1.867598 0.593874,-0.4929846 1.18775,-0.85105 1.781627,-1.0666444 0.593874,-0.2155943 1.187635,-0.2878134 1.781511,-0.21586 0.593874,0.071953 1.187751,0.2889304 1.781624,0.645028 0.593762,0.3560976 1.187638,0.8521662 1.781513,1.4758161 0.593875,0.6235975 1.187751,1.3755171 1.781513,2.2375236 0.593874,0.8619514 1.18775,1.8345731 1.781624,2.8946208 0.593764,1.059999 1.187639,2.207849 1.781513,3.416378 0.593876,1.208531 1.187751,2.477954 1.781514,3.778431 0.593875,1.300481 1.18775,2.63207 1.781624,3.963714"
       title="t sin(t)"
       id="path21" />
    <g
       inkscape:label=""
       transform="translate(42.723351,-1.1858292)"
       id="g28">
      <g
         fill="#000000"
         fill-opacity="1"
         id="g24"
         transform="matrix(0.352778,0,0,0.352778,-1.12448,-0.716183)">
        <g
           id="g23"
           transform="translate(9.1619997,6.0770001)">
          <path
             d="m 3.109375,-3.609375 c 0.046875,-0.1875 0.0625,-0.203125 0.3125,-0.203125 H 3.96875 c 0.640625,0 0.734375,0.1875 0.734375,0.546875 0,0.078125 -0.015625,0.234375 -0.046875,0.421875 0,0.015625 -0.015625,0.078125 -0.015625,0.109375 0,0.046875 0.046875,0.09375 0.109375,0.09375 0.109375,0 0.109375,-0.0625 0.125,-0.15625 L 5.03125,-3.9375 c 0,-0.109375 -0.0625,-0.109375 -0.171875,-0.109375 H 0.96875 c -0.15625,0 -0.171875,0 -0.21875,0.125 l -0.390625,1.09375 c -0.015625,0.0625 -0.015625,0.09375 -0.015625,0.09375 0,0.015625 0,0.09375 0.109375,0.09375 0.078125,0 0.078125,-0.015625 0.140625,-0.171875 0.265625,-0.734375 0.453125,-1 1.21875,-1 h 0.546875 c 0.125,0 0.125,0 0.203125,0.03125 L 1.75,-0.515625 c -0.03125,0.171875 -0.0625,0.21875 -0.234375,0.25 C 1.34375,-0.234375 1,-0.234375 1,-0.234375 c -0.15625,0 -0.171875,0 -0.203125,0.015625 C 0.765625,-0.203125 0.75,-0.109375 0.75,-0.078125 0.75,-0.078125 0.765625,0 0.859375,0 c 0.15625,0 0.34375,-0.015625 0.5,-0.015625 0.25,0 0.40625,-0.015625 0.5625,-0.015625 0.171875,0 0.359375,0.015625 0.53125,0.015625 C 2.640625,-0.015625 2.828125,0 3,0 3.046875,0 3.09375,0 3.109375,-0.046875 3.125,-0.0625 3.140625,-0.125 3.140625,-0.15625 3.125,-0.234375 3.09375,-0.234375 2.90625,-0.234375 2.765625,-0.234375 2.640625,-0.25 2.515625,-0.25 2.375,-0.265625 2.296875,-0.265625 2.296875,-0.359375 Z m 0,0"
             id="path23" />
        </g>
      </g>
      <path
         fill="none"
         stroke-width="0.379"
         stroke-linecap="butt"
         stroke-linejoin="miter"
         stroke="#000000"
         stroke-opacity="1"
         stroke-miterlimit="10"
         d="M 0,5.4776874 H 17.289063"
         id="path24"
         transform="scale(0.352778)" />
      <g
         fill="#000000"
         fill-opacity="1"
         id="g26"
         transform="matrix(0.352778,0,0,0.352778,-1.12448,-0.716183)">
        <g
           id="g25"
           transform="translate(3.188,12.793)">
          <path
             d="m 3.109375,-3.609375 c 0.046875,-0.1875 0.0625,-0.203125 0.3125,-0.203125 H 3.96875 c 0.640625,0 0.734375,0.1875 0.734375,0.546875 0,0.078125 -0.015625,0.234375 -0.046875,0.421875 0,0.015625 -0.015625,0.078125 -0.015625,0.109375 0,0.046875 0.046875,0.09375 0.109375,0.09375 0.109375,0 0.109375,-0.0625 0.125,-0.15625 L 5.03125,-3.9375 c 0,-0.109375 -0.0625,-0.109375 -0.171875,-0.109375 H 0.96875 c -0.15625,0 -0.171875,0 -0.21875,0.125 l -0.390625,1.09375 c -0.015625,0.0625 -0.015625,0.09375 -0.015625,0.09375 0,0.015625 0,0.09375 0.109375,0.09375 0.078125,0 0.078125,-0.015625 0.140625,-0.171875 0.265625,-0.734375 0.453125,-1 1.21875,-1 h 0.546875 c 0.125,0 0.125,0 0.203125,0.03125 L 1.75,-0.515625 c -0.03125,0.171875 -0.0625,0.21875 -0.234375,0.25 C 1.34375,-0.234375 1,-0.234375 1,-0.234375 c -0.15625,0 -0.171875,0 -0.203125,0.015625 C 0.765625,-0.203125 0.75,-0.109375 0.75,-0.078125 0.75,-0.078125 0.765625,0 0.859375,0 c 0.15625,0 0.34375,-0.015625 0.5,-0.015625 0.25,0 0.40625,-0.015625 0.5625,-0.015625 0.171875,0 0.359375,0.015625 0.53125,0.015625 C 2.640625,-0.015625 2.828125,0 3,0 3.046875,0 3.09375,0 3.109375,-0.046875 3.125,-0.0625 3.140625,-0.125 3.140625,-0.15625 3.125,-0.234375 3.09375,-0.234375 2.90625,-0.234375 2.765625,-0.234375 2.640625,-0.25 2.515625,-0.25 2.375,-0.265625 2.296875,-0.265625 2.296875,-0.359375 Z m 0,0"
             id="path9" />
        </g>
      </g>
      <g
         fill="#000000"
         fill-opacity="1"
         id="g27"
         transform="matrix(0.352778,0,0,0.352778,-1.12448,-0.716183)">
        <g
           id="use6"
           transform="translate(7.5580001,13.789)">
          <path
             d="m 4.71875,-1.5 c 0,-0.625 -0.46875,-0.703125 -0.828125,-0.703125 -0.5,0 -0.78125,0.25 -0.921875,0.46875 -0.125,-0.46875 -0.625,-0.46875 -0.8125,-0.46875 -0.515625,0 -0.8125,0.28125 -0.9375,0.484375 v -0.484375 l -0.8125,0.0625 v 0.21875 c 0.375,0 0.421875,0.03125 0.421875,0.265625 v 1.234375 c 0,0.15625 0,0.203125 -0.328125,0.203125 H 0.40625 V 0 C 0.625,-0.015625 0.828125,-0.015625 1.046875,-0.015625 1.25,-0.015625 1.46875,-0.015625 1.6875,0 V -0.21875 H 1.59375 c -0.328125,0 -0.328125,-0.046875 -0.328125,-0.203125 V -1.28125 c 0,-0.5625 0.515625,-0.75 0.828125,-0.75 0.375,0 0.453125,0.203125 0.453125,0.515625 v 1.09375 c 0,0.15625 0,0.203125 -0.3125,0.203125 H 2.140625 V 0 c 0.21875,-0.015625 0.421875,-0.015625 0.640625,-0.015625 0.203125,0 0.421875,0 0.625,0.015625 V -0.21875 H 3.3125 C 3,-0.21875 3,-0.265625 3,-0.421875 V -1.28125 c 0,-0.5625 0.5,-0.75 0.828125,-0.75 0.359375,0 0.453125,0.203125 0.453125,0.515625 v 1.09375 c 0,0.15625 0,0.203125 -0.328125,0.203125 H 3.875 V 0 c 0.203125,-0.015625 0.421875,-0.015625 0.625,-0.015625 0.21875,0 0.421875,0 0.640625,0.015625 v -0.21875 h -0.09375 c -0.328125,0 -0.328125,-0.046875 -0.328125,-0.203125 z m 0,0"
             id="path10" />
        </g>
        <g
           id="use7"
           transform="translate(13.023482,13.789)">
          <path
             d="m 2.609375,-1.484375 c 0,-0.46875 -0.5,-0.75 -1.125,-0.75 -0.296875,0 -0.875,0.015625 -0.875,0.4375 0,0.1875 0.140625,0.265625 0.265625,0.265625 0.125,0 0.25,-0.09375 0.25,-0.265625 0,-0.109375 -0.0625,-0.1875 -0.109375,-0.21875 C 1.1875,-2.0625 1.421875,-2.0625 1.46875,-2.0625 c 0.4375,0 0.6875,0.234375 0.6875,0.59375 v 0.125 c -0.46875,0.015625 -0.75,0.03125 -1.125,0.171875 -0.328125,0.109375 -0.625,0.328125 -0.625,0.65625 0,0.453125 0.578125,0.578125 0.984375,0.578125 0.375,0 0.671875,-0.15625 0.828125,-0.421875 0.03125,0.1875 0.140625,0.390625 0.390625,0.390625 0.03125,0 0.609375,0 0.609375,-0.484375 V -0.71875 H 3 v 0.265625 C 3,-0.40625 3,-0.1875 2.8125,-0.1875 c -0.203125,0 -0.203125,-0.21875 -0.203125,-0.265625 z m -0.453125,0.78125 c 0,0.546875 -0.59375,0.59375 -0.71875,0.59375 -0.296875,0 -0.5625,-0.15625 -0.5625,-0.40625 0,-0.171875 0.09375,-0.625 1.28125,-0.6875 z m 0,0"
             id="path26" />
        </g>
        <g
           id="use8"
           transform="translate(16.413755,13.789)">
          <path
             d="m 3.1875,-2.140625 c -0.140625,0 -0.28125,0.015625 -0.46875,0.015625 -0.171875,0 -0.375,-0.015625 -0.5625,-0.015625 v 0.21875 c 0.09375,0 0.109375,0.078125 0.109375,0.09375 0,0.078125 -0.0625,0.140625 -0.203125,0.265625 l -0.25,0.25 C 1.59375,-1.53125 1.328125,-1.796875 1.328125,-1.84375 c 0,-0.078125 0.109375,-0.078125 0.125,-0.078125 v -0.21875 C 1.25,-2.140625 0.875,-2.125 0.84375,-2.125 c -0.203125,0 -0.34375,0 -0.546875,-0.015625 v 0.21875 h 0.09375 c 0.3125,0 0.3125,0 0.578125,0.265625 L 1.5625,-1.0625 C 1.53125,-1.03125 1.09375,-0.59375 1.015625,-0.515625 0.875,-0.390625 0.6875,-0.21875 0.265625,-0.21875 V 0 c 0.140625,-0.015625 0.28125,-0.015625 0.46875,-0.015625 0.171875,0 0.375,0 0.5625,0.015625 v -0.21875 c -0.078125,-0.015625 -0.09375,-0.0625 -0.09375,-0.09375 0,-0.09375 0.0625,-0.15625 0.09375,-0.1875 0.046875,-0.046875 0.375,-0.375 0.40625,-0.40625 0.171875,0.171875 0.390625,0.390625 0.515625,0.515625 0.046875,0.0625 0.046875,0.0625 0.046875,0.078125 0,0.09375 -0.109375,0.09375 -0.125,0.09375 V 0 C 2.34375,-0.015625 2.71875,-0.015625 2.75,-0.015625 c 0.203125,0 0.34375,0 0.546875,0.015625 V -0.21875 H 3.203125 C 2.9375,-0.21875 2.875,-0.265625 2.828125,-0.296875 2.765625,-0.328125 2.1875,-0.9375 1.96875,-1.15625 c 0.609375,-0.640625 0.75,-0.765625 1.21875,-0.765625 z m 0,0"
             id="path27" />
        </g>
      </g>
    </g>
    <path
       style="fill:none;fill-rule:evenodd;stroke:#000000;stroke-width:0.104;stroke-linecap:round;stroke-miterlimit:3.9;stroke-dasharray:0.312, 0.312;stroke-dashoffset:0;stroke-opacity:1"
       d="M 55.29795,3.7041673 H 42.333367"
       id="path28" />
    <path
       style="fill:none;fill-rule:evenodd;stroke:#000000;stroke-width:0.104;stroke-linecap:round;stroke-miterlimit:3.9;stroke-dasharray:0.312, 0.312;stroke-dashoffset:0;stroke-opacity:1"
       d="M 42.348396,40.676372 H 29.383813"
       id="path28-4" />
    <g
       inkscape:label=""
       transform="translate(40.68458,2.6561727)"
       id="g31">
      <g
         fill="#000000"
         fill-opacity="1"
         id="g30"
         transform="matrix(0.352778,0,0,0.352778,-0.99523,-0.635441)">
        <g
           id="g29"
           transform="translate(1.993,7.77)">
          <path
             d="m 2.71875,-5.734375 c 0,-0.21875 0,-0.234375 -0.21875,-0.234375 -0.5625,0.5625 -1.390625,0.5625 -1.671875,0.5625 V -5.125 c 0.171875,0 0.71875,0 1.203125,-0.234375 v 4.640625 c 0,0.328125 -0.015625,0.4375 -0.859375,0.4375 H 0.890625 V 0 c 0.3125,-0.03125 1.125,-0.03125 1.484375,-0.03125 0.375,0 1.171875,0 1.5,0.03125 V -0.28125 H 3.59375 c -0.84375,0 -0.875,-0.109375 -0.875,-0.4375 z m 0,0"
             id="path29" />
        </g>
      </g>
    </g>
    <g
       inkscape:label=""
       transform="translate(43.327273,39.397689)"
       id="g36">
      <g
         fill="#000000"
         fill-opacity="1"
         id="g33"
         transform="matrix(0.352778,0,0,0.352778,-0.973182,-0.635794)">
        <g
           id="g32"
           transform="translate(1.993,7.7709999)">
          <path
             d="m 6.046875,-2.046875 c 0.171875,0 0.34375,0 0.34375,-0.203125 0,-0.1875 -0.1875,-0.1875 -0.34375,-0.1875 h -4.9375 c -0.15625,0 -0.34375,0 -0.34375,0.1875 0,0.203125 0.171875,0.203125 0.34375,0.203125 z m 0,0"
             id="path31" />
        </g>
      </g>
      <g
         fill="#000000"
         fill-opacity="1"
         id="g35"
         transform="matrix(0.352778,0,0,0.352778,-0.973182,-0.635794)">
        <g
           id="g34"
           transform="translate(9.1599998,7.7709999)">
          <path
             d="m 2.71875,-5.734375 c 0,-0.21875 0,-0.234375 -0.21875,-0.234375 -0.5625,0.5625 -1.390625,0.5625 -1.671875,0.5625 V -5.125 c 0.171875,0 0.71875,0 1.203125,-0.234375 v 4.640625 c 0,0.328125 -0.015625,0.4375 -0.859375,0.4375 H 0.890625 V 0 c 0.3125,-0.03125 1.125,-0.03125 1.484375,-0.03125 0.375,0 1.171875,0 1.5,0.03125 V -0.28125 H 3.59375 c -0.84375,0 -0.875,-0.109375 -0.875,-0.4375 z m 0,0"
             id="path33" />
        </g>
      </g>
    </g>
    <path
       style="fill:#000000;fill-opacity:1;fill-rule:evenodd;stroke:#000000;stroke-width:0.204;stroke-linecap:round;stroke-miterlimit:3.9;stroke-dasharray:0.611998, 0.611998;stroke-dashoffset:0;stroke-opacity:1"
       d="M 29.46925,47.095477 29.50516,24.606252"
       id="path36" />
    <path
       style="fill:#000000;fill-opacity:1;fill-rule:evenodd;stroke:#000000;stroke-width:0.204;stroke-linecap:round;stroke-miterlimit:3.9;stroke-dasharray:0.611996, 0.611996;stroke-dashoffset:0;stroke-opacity:1"
       d="M 29.46925,16.816999 29.50516,3.166529"
       id="path36-2" />
    <path
       style="fill:#000000;fill-opacity:1;fill-rule:evenodd;stroke:#000000;stroke-width:0.204;stroke-linecap:round;stroke-miterlimit:3.9;stroke-dasharray:0.611998, 0.611998;stroke-dashoffset:0;stroke-opacity:1"
       d="m 55.363417,47.09584 0.03591,-19.157251"
       id="path36-7" />
    <path
       style="fill:#000000;fill-opacity:1;fill-rule:evenodd;stroke:#000000;stroke-width:0.204;stroke-linecap:round;stroke-miterlimit:3.9;stroke-dasharray:0.611998, 0.611998;stroke-dashoffset:0;stroke-opacity:1"
       d="M 55.363417,19.710321 55.399327,3.6407061"
       id="path36-7-7" />
    <text
       xml:space="preserve"
       style="font-size:3.175px;line-height:0.95;font-family:sans-serif;-inkscape-font-specification:sans-serif;text-align:center;letter-spacing:-0.0978958px;word-spacing:-0.148167px;text-anchor:middle;fill:#000000;fill-opacity:1;fill-rule:evenodd;stroke:#000000;stroke-width:0.204;stroke-linecap:round;stroke-miterlimit:3.9;stroke-dasharray:0.611997, 0.611997;stroke-dashoffset:0;stroke-opacity:1"
       x="42.432854"
       y="46.93478"
       id="text36"><tspan
         sodipodi:role="line"
         id="tspan36"
         style="letter-spacing:-0.0978958px;word-spacing:-0.148167px;stroke:none;stroke-width:0.204"
         x="42.383907"
         y="46.93478"
         dx="0">stable operation</tspan></text>
    <path
       style="fill:#000000;fill-opacity:1;fill-rule:evenodd;stroke:#000000;stroke-width:0.204;stroke-linecap:round;stroke-miterlimit:3.9;stroke-dasharray:0.611997, 0.611997;stroke-dashoffset:0;stroke-opacity:1;marker-start:url(#Triangle);marker-end:url(#Triangle)"
       d="M 30.427119,43.656254 H 54.504201"
       id="path37"
       inkscape:path-effect="#path-effect37"
       inkscape:original-d="M 30.427119,43.656254 H 54.504201"
       sodipodi:nodetypes="cc" />
  </g>
</svg>
