<?xml version="1.0" encoding="UTF-8" standalone="no"?>
<!-- Created with Inkscape (http://www.inkscape.org/) -->

<svg
   width="35.873264mm"
   height="35.206051mm"
   viewBox="0 0 35.873264 35.206051"
   version="1.1"
   id="svg1"
   inkscape:version="1.3.2 (091e20e, 2023-11-25, custom)"
   sodipodi:docname="Torque_interpretation.svg"
   xmlns:inkscape="http://www.inkscape.org/namespaces/inkscape"
   xmlns:sodipodi="http://sodipodi.sourceforge.net/DTD/sodipodi-0.dtd"
   xmlns="http://www.w3.org/2000/svg"
   xmlns:svg="http://www.w3.org/2000/svg">
  <sodipodi:namedview
     id="namedview1"
     pagecolor="#505050"
     bordercolor="#eeeeee"
     borderopacity="1"
     inkscape:showpageshadow="0"
     inkscape:pageopacity="0"
     inkscape:pagecheckerboard="0"
     inkscape:deskcolor="#505050"
     inkscape:document-units="mm"
     showgrid="true"
     inkscape:zoom="5.6088804"
     inkscape:cx="41.897845"
     inkscape:cy="60.529014"
     inkscape:window-width="1920"
     inkscape:window-height="1094"
     inkscape:window-x="-11"
     inkscape:window-y="-11"
     inkscape:window-maximized="1"
     inkscape:current-layer="layer1"
     inkscape:lockguides="true">
    <inkscape:grid
       id="grid1"
       units="px"
       originx="-28.40742"
       originy="-5.9043689"
       spacingx="0.26458333"
       spacingy="0.26458334"
       empcolor="#0099e5"
       empopacity="0.30196078"
       color="#0099e5"
       opacity="0.14901961"
       empspacing="5"
       dotted="false"
       gridanglex="30"
       gridanglez="30"
       visible="true" />
  </sodipodi:namedview>
  <defs
     id="defs1">
    <inkscape:path-effect
       effect="bspline"
       id="path-effect14"
       is_visible="true"
       lpeversion="1.3"
       weight="33.333333"
       steps="2"
       helper_size="0"
       apply_no_weight="true"
       apply_with_weight="true"
       only_selected="false"
       uniform="false" />
    <marker
       style="overflow:visible"
       id="Triangle"
       refX="0"
       refY="0"
       orient="auto-start-reverse"
       inkscape:stockid="Triangle arrow"
       markerWidth="1"
       markerHeight="1"
       viewBox="0 0 1 1"
       inkscape:isstock="true"
       inkscape:collect="always"
       preserveAspectRatio="xMidYMid">
      <path
         transform="scale(0.5)"
         style="fill:context-stroke;fill-rule:evenodd;stroke:context-stroke;stroke-width:1pt"
         d="M 5.77,0 -2.88,5 V -5 Z"
         id="path135" />
    </marker>
    <marker
       style="overflow:visible"
       id="Triangle-6"
       refX="0"
       refY="0"
       orient="auto-start-reverse"
       inkscape:stockid="Triangle arrow"
       markerWidth="1"
       markerHeight="1"
       viewBox="0 0 1 1"
       inkscape:isstock="true"
       inkscape:collect="always"
       preserveAspectRatio="xMidYMid">
      <path
         transform="scale(0.5)"
         style="fill:context-stroke;fill-rule:evenodd;stroke:context-stroke;stroke-width:1pt"
         d="M 5.77,0 -2.88,5 V -5 Z"
         id="path135-3" />
    </marker>
    <marker
       style="overflow:visible"
       id="Triangle-69-8-5"
       refX="0"
       refY="0"
       orient="auto-start-reverse"
       inkscape:stockid="Triangle arrow"
       markerWidth="1"
       markerHeight="1"
       viewBox="0 0 1 1"
       inkscape:isstock="true"
       inkscape:collect="always"
       preserveAspectRatio="xMidYMid">
      <path
         transform="scale(0.5)"
         style="fill:context-stroke;fill-rule:evenodd;stroke:context-stroke;stroke-width:1pt"
         d="M 5.77,0 -2.88,5 V -5 Z"
         id="path135-7-6-4" />
    </marker>
    <marker
       style="overflow:visible"
       id="Triangle-69-8-5-6"
       refX="0"
       refY="0"
       orient="auto-start-reverse"
       inkscape:stockid="Triangle arrow"
       markerWidth="1"
       markerHeight="1"
       viewBox="0 0 1 1"
       inkscape:isstock="true"
       inkscape:collect="always"
       preserveAspectRatio="xMidYMid">
      <path
         transform="scale(0.5)"
         style="fill:context-stroke;fill-rule:evenodd;stroke:context-stroke;stroke-width:1pt"
         d="M 5.77,0 -2.88,5 V -5 Z"
         id="path135-7-6-4-1" />
    </marker>
    <marker
       style="overflow:visible"
       id="Triangle-4"
       refX="0"
       refY="0"
       orient="auto-start-reverse"
       inkscape:stockid="Triangle arrow"
       markerWidth="1"
       markerHeight="1"
       viewBox="0 0 1 1"
       inkscape:isstock="true"
       inkscape:collect="always"
       preserveAspectRatio="xMidYMid">
      <path
         transform="scale(0.5)"
         style="fill:context-stroke;fill-rule:evenodd;stroke:context-stroke;stroke-width:1pt"
         d="M 5.77,0 -2.88,5 V -5 Z"
         id="path135-2" />
    </marker>
  </defs>
  <g
     inkscape:label="Layer 1"
     inkscape:groupmode="layer"
     id="layer1"
     transform="translate(-28.407424,-5.9043693)">
    <path
       style="fill:#b8b8b8;fill-opacity:1;fill-rule:evenodd;stroke:none;stroke-width:0.2;stroke-linecap:round;stroke-miterlimit:3.9;stroke-dasharray:0.600001, 0.600001;stroke-dashoffset:0;stroke-opacity:1"
       d="m 34.395835,35.189587 6.987573,-16.35929 18.357915,-7.328138 0.319092,0.139509 -6.875695,16.301511 -18.768377,7.470465 z"
       id="path11"
       sodipodi:nodetypes="ccccccc" />
    <path
       style="fill:none;fill-rule:evenodd;stroke:#000000;stroke-width:0.2;stroke-linecap:round;stroke-miterlimit:3.9;stroke-dasharray:none;stroke-opacity:1;marker-start:url(#Triangle)"
       d="M 34.395831,6.6145843 V 41.010421"
       id="path1"
       sodipodi:nodetypes="cc" />
    <path
       style="fill:none;fill-rule:evenodd;stroke:#8e000c;stroke-width:0.2;stroke-linecap:round;stroke-miterlimit:3.9;stroke-dasharray:none;stroke-opacity:1;marker-start:url(#Triangle-69-8-5)"
       d="M 41.275002,19.050002 34.416344,35.413644"
       id="path1-2-8-6"
       sodipodi:nodetypes="cc" />
    <path
       style="fill:none;fill-rule:evenodd;stroke:#000000;stroke-width:0.2;stroke-linecap:round;stroke-miterlimit:3.9;stroke-dasharray:0.6, 0.6;stroke-dashoffset:0;stroke-opacity:1"
       d="M 60.043379,11.579538 53.184721,27.94318"
       id="path1-2-8-6-9"
       sodipodi:nodetypes="cc" />
    <path
       style="fill:none;fill-rule:evenodd;stroke:#08008e;stroke-width:0.2;stroke-linecap:round;stroke-miterlimit:3.9;stroke-dasharray:none;stroke-opacity:1;marker-start:url(#Triangle-69-8-5-6)"
       d="M 52.553476,28.22603 34.395831,35.454168"
       id="path1-2-8-6-3"
       sodipodi:nodetypes="cc" />
    <path
       style="fill:none;fill-rule:evenodd;stroke:#000000;stroke-width:0.2;stroke-linecap:round;stroke-miterlimit:3.9;stroke-dasharray:0.6, 0.6;stroke-dashoffset:0;stroke-opacity:1"
       d="M 59.741323,11.502159 41.583678,18.730297"
       id="path1-2-8-6-3-6"
       sodipodi:nodetypes="cc" />
    <path
       style="fill:none;fill-rule:evenodd;stroke:#000000;stroke-width:0.2;stroke-linecap:round;stroke-miterlimit:3.9;stroke-dasharray:none;stroke-opacity:1;marker-start:url(#Triangle-6)"
       d="M 62.772945,35.413645 H 28.507424"
       id="path1-9"
       sodipodi:nodetypes="cc" />
    <g
       inkscape:label=""
       transform="translate(62.46719,36.07704)"
       id="g16">
      <g
         fill="#000000"
         fill-opacity="1"
         id="g14"
         transform="matrix(0.352778,0,0,0.352778,-0.84089,-0.668205)">
        <g
           id="use2"
           transform="translate(1.993,8.375)">
          <path
             d="m 4.40625,-2.109375 c 0,-1.328125 -0.8125,-1.859375 -1.578125,-1.859375 -1.21875,0 -2.4375,1.25 -2.4375,2.53125 0,0.921875 0.625,1.53125 1.5,1.53125 0.96875,0 1.703125,-0.5625 1.9375,-0.75 0.109375,0.453125 0.40625,0.75 0.84375,0.75 0.484375,0 0.78125,-0.46875 0.78125,-0.625 0,-0.109375 -0.09375,-0.109375 -0.125,-0.109375 -0.09375,0 -0.109375,0.046875 -0.140625,0.125 -0.09375,0.25 -0.328125,0.390625 -0.484375,0.390625 -0.296875,0 -0.296875,-0.796875 -0.296875,-0.984375 0,-0.109375 0,-0.125 0.09375,-0.234375 0.140625,-0.1875 0.390625,-0.5 0.625,-0.953125 0.265625,-0.53125 0.40625,-1.078125 0.40625,-1.125 0,-0.015625 0,-0.109375 -0.109375,-0.109375 -0.109375,0 -0.109375,0.03125 -0.15625,0.171875 -0.09375,0.3125 -0.296875,1 -0.859375,1.75 z m -0.625,1.1875 C 3.546875,-0.71875 2.828125,-0.125 1.90625,-0.125 c -0.5,0 -0.828125,-0.328125 -0.828125,-0.984375 0,-0.375 0.171875,-1.265625 0.53125,-1.84375 0.234375,-0.359375 0.703125,-0.78125 1.21875,-0.78125 0.609375,0 0.796875,0.53125 0.890625,1.078125 0.0625,0.484375 0.015625,1.34375 0.0625,1.734375 z m 0,0"
             id="path4" />
        </g>
      </g>
      <g
         fill="#000000"
         fill-opacity="1"
         id="g15"
         transform="matrix(0.352778,0,0,0.352778,-0.84089,-0.668205)">
        <g
           id="use3"
           transform="translate(7.9050002,4.566)" />
      </g>
    </g>
    <g
       inkscape:label=""
       transform="translate(35.100533,5.9929443)"
       id="g31">
      <g
         fill="#000000"
         fill-opacity="1"
         id="g28"
         transform="matrix(0.352778,0,0,0.352778,-0.801448,-0.668205)">
        <g
           id="g27"
           transform="translate(1.993,8.375)">
          <path
             d="m 5.25,-5.125 c 0,-0.625 -0.421875,-1.203125 -1.375,-1.203125 -0.21875,0 -0.40625,0.03125 -0.671875,0.171875 C 2.40625,-5.75 1.9375,-4.875 1.6875,-4 L 0.28125,1.640625 c -0.015625,0.046875 0.046875,0.09375 0.109375,0.09375 0.078125,0 0.125,-0.015625 0.125,-0.046875 l 0.625,-2.4375 c 0.21875,0.546875 0.640625,0.84375 1.234375,0.84375 0.6875,0 1.359375,-0.296875 1.84375,-0.765625 C 4.625,-1.0625 4.890625,-1.625 4.890625,-2.21875 c 0,-0.5625 -0.25,-1.109375 -0.65625,-1.375 C 4.671875,-3.8125 5.25,-4.4375 5.25,-5.125 Z M 3.59375,-3.59375 C 3.4375,-3.5625 3.296875,-3.53125 3.140625,-3.53125 3,-3.53125 2.875,-3.53125 2.75,-3.578125 c 0.109375,-0.0625 0.265625,-0.0625 0.390625,-0.0625 0.15625,0 0.296875,0 0.453125,0.046875 z m 1.125,-1.6875 c 0,0.5625 -0.328125,1.296875 -0.796875,1.515625 -0.234375,-0.078125 -0.453125,-0.09375 -0.71875,-0.09375 -0.453125,0 -0.734375,0.0625 -0.734375,0.296875 0,0.1875 0.21875,0.25 0.640625,0.25 0.3125,0 0.515625,-0.046875 0.796875,-0.125 0.28125,0.203125 0.375,0.625 0.375,0.96875 0,0.609375 -0.1875,1.28125 -0.59375,1.71875 -0.34375,0.375 -0.796875,0.609375 -1.296875,0.609375 -0.671875,0 -1.078125,-0.46875 -1.078125,-1.125 0,-0.09375 0,-0.1875 0.03125,-0.28125 L 1.953125,-4 c 0.203125,-0.765625 0.890625,-2.109375 1.9375,-2.109375 0.421875,0 0.828125,0.21875 0.828125,0.828125 z m 0,0"
             id="path26" />
        </g>
      </g>
      <g
         fill="#000000"
         fill-opacity="1"
         id="g30"
         transform="matrix(0.352778,0,0,0.352778,-0.801448,-0.668205)" />
    </g>
    <g
       inkscape:label=""
       transform="translate(38.24755,16.679599)"
       id="g41">
      <g
         fill="#000000"
         fill-opacity="1"
         id="g33"
         transform="matrix(0.352778,0,0,0.352778,-0.807817,-0.700132)">
        <g
           id="g32"
           transform="translate(1.993,8.2189999)">
          <path
             d="M 3.09375,-5.78125 C 3.09375,-6 2.9375,-6.234375 2.625,-6.234375 c -0.3125,0 -0.671875,0.296875 -0.671875,0.65625 0,0.28125 0.21875,0.453125 0.46875,0.453125 0.34375,0 0.671875,-0.328125 0.671875,-0.65625 z M 1,-1.21875 c -0.109375,0.25 -0.140625,0.34375 -0.140625,0.484375 0,0.46875 0.46875,0.8125 1.0625,0.8125 0.953125,0 1.4375,-1.1875 1.4375,-1.40625 0,-0.140625 -0.15625,-0.140625 -0.234375,-0.140625 -0.140625,0 -0.1875,0.015625 -0.234375,0.125 -0.28125,0.921875 -0.71875,1.0625 -0.921875,1.0625 -0.046875,0 -0.140625,0 -0.140625,-0.203125 0,-0.1875 0.0625,-0.34375 0.21875,-0.734375 C 2.09375,-1.359375 2.3125,-1.890625 2.375,-2.046875 l 0.28125,-0.71875 c 0.09375,-0.25 0.140625,-0.34375 0.140625,-0.484375 0,-0.46875 -0.46875,-0.796875 -1.0625,-0.796875 -0.953125,0 -1.4375,1.171875 -1.4375,1.390625 0,0.140625 0.125,0.140625 0.234375,0.140625 0.140625,0 0.1875,0 0.21875,-0.125 C 1.046875,-3.5625 1.46875,-3.6875 1.671875,-3.6875 c 0.0625,0 0.15625,0 0.15625,0.1875 0,0.1875 -0.0625,0.34375 -0.21875,0.734375 C 1.5625,-2.625 1.34375,-2.09375 1.28125,-1.9375 Z m 0,0"
             id="path27" />
        </g>
      </g>
      <g
         fill="#000000"
         fill-opacity="1"
         id="g35"
         transform="matrix(0.352778,0,0,0.352778,-0.807817,-0.700132)">
        <g
           id="g34"
           transform="translate(5.7309999,9.2819996)">
          <path
             d="m 2.421875,-2.5 c 0,-0.109375 0,-0.171875 -0.09375,-0.171875 -0.03125,0 -0.046875,0 -0.125,0.078125 C 2.1875,-2.578125 2.171875,-2.578125 2.09375,-2.5 1.859375,-2.65625 1.5625,-2.671875 1.4375,-2.671875 c -0.9375,0 -1.125,0.46875 -1.125,0.75 0,0.578125 0.703125,0.6875 1.171875,0.765625 0.265625,0.046875 0.78125,0.125 0.78125,0.515625 0,0.234375 -0.171875,0.515625 -0.78125,0.515625 -0.578125,0 -0.8125,-0.34375 -0.9375,-0.796875 C 0.53125,-0.96875 0.515625,-1 0.4375,-1 c -0.125,0 -0.125,0.046875 -0.125,0.171875 v 0.71875 c 0,0.109375 0,0.171875 0.09375,0.171875 0.046875,0 0.046875,-0.015625 0.15625,-0.109375 l 0.140625,-0.15625 C 1,0.0625 1.359375,0.0625 1.484375,0.0625 c 0.875,0 1.109375,-0.484375 1.109375,-0.828125 0,-0.25 -0.109375,-0.421875 -0.25,-0.53125 C 2.09375,-1.53125 1.859375,-1.5625 1.5,-1.625 1.046875,-1.703125 0.640625,-1.765625 0.640625,-2.078125 0.640625,-2.25 0.8125,-2.5 1.4375,-2.5 c 0.40625,0 0.734375,0.15625 0.765625,0.578125 0,0.078125 0.015625,0.125 0.109375,0.125 0.109375,0 0.109375,-0.046875 0.109375,-0.15625 z m 0,0"
             id="path33" />
        </g>
      </g>
      <g
         fill="#000000"
         fill-opacity="1"
         id="g40"
         transform="matrix(0.352778,0,0,0.352778,-0.807817,-0.700132)" />
    </g>
    <path
       style="fill:none;fill-rule:evenodd;stroke:#000000;stroke-width:0.15;stroke-linecap:round;stroke-miterlimit:3.9;stroke-dasharray:0.450001, 0.450001;stroke-opacity:1;marker-start:url(#Triangle-4)"
       id="path32-6"
       sodipodi:type="arc"
       sodipodi:cx="37.521362"
       sodipodi:cy="34.828522"
       sodipodi:rx="15"
       sodipodi:ry="15"
       sodipodi:start="5.0724642"
       sodipodi:end="5.4363721"
       sodipodi:arc-type="arc"
       d="m 42.806532,20.790467 a 15,15 0 0 1 4.65044,2.800454"
       sodipodi:open="true"
       transform="rotate(10.531262)"
       inkscape:transform-center-x="0.54246372"
       inkscape:transform-center-y="0.27686719" />
    <g
       inkscape:label=""
       transform="translate(53.08472,28.685068)"
       id="g9">
      <g
         fill="#000000"
         fill-opacity="1"
         id="g3"
         transform="matrix(0.352778,0,0,0.352778,-0.807817,-0.705644)">
        <g
           id="g2"
           transform="translate(1.993,8.2189999)">
          <path
             d="M 5.109375,-5.953125 C 5.125,-5.984375 5.140625,-6.03125 5.140625,-6.078125 5.140625,-6.21875 5,-6.21875 4.90625,-6.21875 c -0.1875,0 -0.203125,0.015625 -0.25,0.203125 L 3.234375,-0.3125 C 2.515625,-0.390625 2.1875,-0.6875 2.1875,-1.234375 c 0,-0.171875 0.015625,-0.421875 0.46875,-1.546875 0.078125,-0.1875 0.140625,-0.3125 0.140625,-0.46875 0,-0.46875 -0.46875,-0.796875 -1.0625,-0.796875 -0.953125,0 -1.4375,1.171875 -1.4375,1.390625 0,0.140625 0.125,0.140625 0.234375,0.140625 0.140625,0 0.1875,0 0.21875,-0.125 0.3125,-1.03125 0.84375,-1.046875 0.921875,-1.046875 0.0625,0 0.15625,0 0.15625,0.1875 0,0.203125 -0.09375,0.421875 -0.1875,0.65625 C 1.1875,-1.703125 1.1875,-1.484375 1.1875,-1.3125 1.1875,-0.15625 2.46875,0 3,0.046875 3.125,0.0625 3.125,0.078125 3.125,0.078125 3.125,0.109375 3.015625,0.546875 2.96875,0.75 2.84375,1.234375 2.75,1.625 2.75,1.671875 2.75,1.8125 2.890625,1.8125 2.96875,1.8125 c 0.15625,0 0.203125,-0.015625 0.234375,-0.171875 0.078125,-0.21875 -0.015625,0.09375 0.40625,-1.5625 1.453125,0 2.546875,-1.140625 2.90625,-2.03125 0.078125,-0.234375 0.25,-0.90625 0.25,-1.28125 0,-0.6875 -0.46875,-0.828125 -0.640625,-0.828125 -0.34375,0 -0.703125,0.34375 -0.703125,0.703125 0,0.28125 0.171875,0.375 0.3125,0.4375 0.359375,0.21875 0.421875,0.359375 0.421875,0.515625 0,0.53125 -0.984375,2.09375 -2.46875,2.125 z m 0,0"
             id="path2" />
        </g>
      </g>
      <g
         fill="#000000"
         fill-opacity="1"
         id="g8"
         transform="matrix(0.352778,0,0,0.352778,-0.807817,-0.705644)">
        <g
           id="g6"
           transform="translate(9.0010004,9.2819996)">
          <path
             d="M 1.328125,-2.34375 H 2.125 V -2.578125 H 1.3125 v -0.65625 c 0,-0.546875 0.34375,-0.78125 0.59375,-0.78125 C 1.984375,-4.015625 2.046875,-4 2.078125,-4 2.03125,-3.96875 1.96875,-3.921875 1.96875,-3.765625 c 0,0.15625 0.109375,0.28125 0.28125,0.28125 0.171875,0 0.28125,-0.125 0.28125,-0.28125 0,-0.265625 -0.265625,-0.453125 -0.625,-0.453125 -0.484375,0 -1.046875,0.34375 -1.046875,0.984375 v 0.65625 H 0.3125 v 0.234375 h 0.546875 v 1.859375 c 0,0.25 -0.0625,0.25 -0.46875,0.25 V 0 C 0.53125,-0.015625 0.984375,-0.03125 1.109375,-0.03125 1.421875,-0.03125 1.84375,0 1.921875,0 v -0.234375 h -0.125 c -0.453125,0 -0.46875,-0.0625 -0.46875,-0.265625 z m 0,0"
             id="path5" />
        </g>
      </g>
    </g>
    <g
       inkscape:label=""
       transform="translate(38.010968,30.503636)"
       id="g11">
      <g
         fill="#000000"
         fill-opacity="1"
         id="g10"
         transform="matrix(0.352778,0,0,0.352778,-0.835378,-0.667059)">
        <g
           id="use1"
           transform="translate(1.993,8.2189999)">
          <path
             d="m 4.171875,-4.4375 c 0,-0.921875 -0.296875,-1.890625 -1.125,-1.890625 -1.3125,0 -2.671875,2.5625 -2.671875,4.546875 0,0.65625 0.1875,1.875 1.125,1.875 1.3125,0 2.671875,-2.53125 2.671875,-4.53125 z M 1.34375,-3.25 c 0.1875,-0.71875 0.375,-1.375 0.734375,-1.984375 0.21875,-0.359375 0.546875,-0.859375 0.96875,-0.859375 0.484375,0 0.515625,0.765625 0.515625,1.109375 0,0.53125 -0.140625,1.15625 -0.28125,1.734375 z m 1.859375,0.28125 C 3.0625,-2.40625 2.890625,-1.734375 2.53125,-1.09375 2.296875,-0.671875 1.9375,-0.125 1.5,-0.125 1.125,-0.125 1,-0.59375 1,-1.25 1,-1.828125 1.140625,-2.40625 1.28125,-2.96875 Z m 0,0"
             id="path9" />
        </g>
      </g>
    </g>
    <g
       inkscape:label=""
       transform="translate(45.505421,22.145075)"
       id="g18">
      <g
         fill="#000000"
         fill-opacity="1"
         id="g13"
         transform="matrix(0.352778,0,0,0.352778,-0.884987,-0.719975)">
        <g
           id="g12"
           transform="translate(1.993,8.1190004)">
          <path
             d="m 6.640625,-3.015625 c 0,-0.25 -0.078125,-0.3125 -0.125,-0.3125 -0.125,0 -0.125,0.203125 -0.140625,0.328125 -0.03125,0.671875 -0.53125,1.3125 -1.265625,1.3125 -0.515625,0 -0.9375,-0.296875 -1.46875,-0.78125 -0.53125,-0.5 -0.984375,-0.875 -1.59375,-0.875 -0.984375,0 -1.53125,1.015625 -1.53125,1.875 0,0.234375 0.0625,0.3125 0.125,0.3125 0.109375,0 0.140625,-0.171875 0.140625,-0.21875 0.046875,-1.125 0.828125,-1.421875 1.265625,-1.421875 0.515625,0 0.9375,0.296875 1.46875,0.78125 0.53125,0.5 0.984375,0.875 1.59375,0.875 0.984375,0 1.53125,-1.015625 1.53125,-1.875 z m 0,0"
             id="path12" />
        </g>
      </g>
      <g
         fill="#000000"
         fill-opacity="1"
         id="g4"
         transform="matrix(0.352778,0,0,0.352778,-0.884987,-0.719975)">
        <g
           id="g17"
           transform="translate(11.72,8.1190004)">
          <path
             d="m 3.9375,-5.46875 c 0.046875,-0.1875 0.078125,-0.28125 0.21875,-0.3125 0.078125,-0.015625 0.359375,-0.015625 0.546875,-0.015625 1.03125,0 1.34375,0.0625 1.34375,0.765625 0,0.109375 0,0.25 -0.078125,0.78125 l -0.015625,0.078125 c 0,0.0625 0.03125,0.125 0.125,0.125 0.109375,0 0.125,-0.09375 0.140625,-0.21875 l 0.234375,-1.5625 c 0.015625,-0.03125 0.015625,-0.09375 0.015625,-0.125 0,-0.125 -0.078125,-0.125 -0.25,-0.125 H 1.109375 c -0.21875,0 -0.21875,0.015625 -0.28125,0.1875 l -0.5625,1.578125 c -0.03125,0.109375 -0.03125,0.140625 -0.03125,0.140625 0,0.046875 0.03125,0.125 0.109375,0.125 0.109375,0 0.125,-0.0625 0.171875,-0.21875 0.5,-1.40625 0.78125,-1.53125 2.078125,-1.53125 H 2.9375 c 0.25,0 0.25,0.03125 0.25,0.109375 0,0.046875 -0.015625,0.109375 -0.03125,0.1875 l -1.203125,4.796875 c -0.078125,0.3125 -0.109375,0.421875 -1.0625,0.421875 -0.28125,0 -0.359375,0 -0.359375,0.171875 C 0.53125,0 0.640625,0 0.6875,0 c 0.234375,0 0.484375,-0.015625 0.734375,-0.015625 0.25,0 0.5,-0.015625 0.75,-0.015625 0.40625,0 0.421875,0 0.75,0.015625 C 3.046875,-0.015625 3.625,0 3.703125,0 c 0.078125,0 0.1875,0 0.1875,-0.15625 0,-0.125 -0.078125,-0.125 -0.296875,-0.125 -0.234375,0 -0.34375,0 -0.578125,-0.015625 -0.203125,-0.03125 -0.3125,-0.03125 -0.3125,-0.1875 0,-0.046875 0.015625,-0.109375 0.03125,-0.171875 z m 0,0"
             id="path13" />
        </g>
      </g>
    </g>
  </g>
</svg>
