<?xml version="1.0" encoding="UTF-8" standalone="no"?>
<!-- Created with Inkscape (http://www.inkscape.org/) -->

<svg
   width="73.660973mm"
   height="25.349234mm"
   viewBox="0 0 73.660972 25.349234"
   version="1.1"
   id="svg1"
   inkscape:version="1.3.2 (091e20e, 2023-11-25, custom)"
   sodipodi:docname="ex_transformer_T_ECD_core_losses_no_load.svg"
   xmlns:inkscape="http://www.inkscape.org/namespaces/inkscape"
   xmlns:sodipodi="http://sodipodi.sourceforge.net/DTD/sodipodi-0.dtd"
   xmlns="http://www.w3.org/2000/svg"
   xmlns:svg="http://www.w3.org/2000/svg">
  <sodipodi:namedview
     id="namedview1"
     pagecolor="#505050"
     bordercolor="#eeeeee"
     borderopacity="1"
     inkscape:showpageshadow="0"
     inkscape:pageopacity="0"
     inkscape:pagecheckerboard="0"
     inkscape:deskcolor="#505050"
     inkscape:document-units="mm"
     showgrid="true"
     inkscape:zoom="3.9660774"
     inkscape:cx="146.87056"
     inkscape:cy="40.972473"
     inkscape:window-width="2560"
     inkscape:window-height="1417"
     inkscape:window-x="2552"
     inkscape:window-y="-8"
     inkscape:window-maximized="1"
     inkscape:current-layer="layer1">
    <inkscape:grid
       id="grid1"
       units="px"
       originx="-34.1312"
       originy="-191.74161"
       spacingx="0.26458333"
       spacingy="0.26458334"
       empcolor="#0099e5"
       empopacity="0.30196078"
       color="#0099e5"
       opacity="0.14901961"
       empspacing="5"
       dotted="false"
       gridanglex="30"
       gridanglez="30"
       visible="true" />
  </sodipodi:namedview>
  <defs
     id="defs1">
    <marker
       inkscape:collect="always"
       inkscape:isstock="true"
       style="overflow:visible"
       id="TriangleInM-7"
       refX="0"
       refY="0"
       orient="auto"
       inkscape:stockid="TriangleInM">
      <path
         transform="scale(-0.4)"
         style="fill:context-stroke;fill-rule:evenodd;stroke:context-stroke;stroke-width:1pt"
         d="M 5.77,0 -2.88,5 V -5 Z"
         id="path5871-1" />
    </marker>
    <marker
       inkscape:collect="always"
       inkscape:isstock="true"
       style="overflow:visible"
       id="TriangleInM-7-4"
       refX="0"
       refY="0"
       orient="auto"
       inkscape:stockid="TriangleInM">
      <path
         transform="scale(-0.4)"
         style="fill:context-stroke;fill-rule:evenodd;stroke:context-stroke;stroke-width:1pt"
         d="M 5.77,0 -2.88,5 V -5 Z"
         id="path5871-1-0" />
    </marker>
    <marker
       inkscape:collect="always"
       inkscape:isstock="true"
       style="overflow:visible"
       id="TriangleInM-7-4-1"
       refX="0"
       refY="0"
       orient="auto"
       inkscape:stockid="TriangleInM">
      <path
         transform="scale(-0.4)"
         style="fill:context-stroke;fill-rule:evenodd;stroke:context-stroke;stroke-width:1pt"
         d="M 5.77,0 -2.88,5 V -5 Z"
         id="path5871-1-0-9" />
    </marker>
    <marker
       inkscape:collect="always"
       inkscape:isstock="true"
       style="overflow:visible"
       id="TriangleInM-7-4-1-2"
       refX="0"
       refY="0"
       orient="auto"
       inkscape:stockid="TriangleInM">
      <path
         transform="scale(-0.4)"
         style="fill:context-stroke;fill-rule:evenodd;stroke:context-stroke;stroke-width:1pt"
         d="M 5.77,0 -2.88,5 V -5 Z"
         id="path5871-1-0-9-1" />
    </marker>
    <marker
       inkscape:collect="always"
       inkscape:isstock="true"
       style="overflow:visible"
       id="TriangleInM-7-2"
       refX="0"
       refY="0"
       orient="auto"
       inkscape:stockid="TriangleInM">
      <path
         transform="scale(-0.4)"
         style="fill:context-stroke;fill-rule:evenodd;stroke:context-stroke;stroke-width:1pt"
         d="M 5.77,0 -2.88,5 V -5 Z"
         id="path5871-1-6" />
    </marker>
    <marker
       inkscape:collect="always"
       inkscape:isstock="true"
       style="overflow:visible"
       id="TriangleInM-7-2-9"
       refX="0"
       refY="0"
       orient="auto"
       inkscape:stockid="TriangleInM">
      <path
         transform="scale(-0.4)"
         style="fill:context-stroke;fill-rule:evenodd;stroke:context-stroke;stroke-width:1pt"
         d="M 5.77,0 -2.88,5 V -5 Z"
         id="path5871-1-6-3" />
    </marker>
    <marker
       inkscape:collect="always"
       inkscape:isstock="true"
       style="overflow:visible"
       id="TriangleInM-7-4-14-6"
       refX="0"
       refY="0"
       orient="auto"
       inkscape:stockid="TriangleInM">
      <path
         transform="scale(-0.4)"
         style="fill:context-stroke;fill-rule:evenodd;stroke:context-stroke;stroke-width:1pt"
         d="M 5.77,0 -2.88,5 V -5 Z"
         id="path5871-1-0-7-5" />
    </marker>
  </defs>
  <g
     inkscape:label="Layer 1"
     inkscape:groupmode="layer"
     id="layer1"
     transform="translate(-34.131251,-191.7421)">
    <path
       style="fill:none;stroke:#000000;stroke-width:0.264583px;stroke-linecap:round;stroke-linejoin:miter;stroke-opacity:1"
       d="M 83.210023,196.99439 H 35.978725"
       id="path21"
       inkscape:connector-curvature="0"
       sodipodi:nodetypes="cc" />
    <path
       style="fill:none;stroke:#000000;stroke-width:0.264583px;stroke-linecap:round;stroke-linejoin:miter;stroke-opacity:1"
       d="M 52.783699,216.04438 H 35.166303"
       id="path21-8"
       inkscape:connector-curvature="0"
       sodipodi:nodetypes="cc" />
    <path
       style="fill:none;stroke:#000000;stroke-width:0.265;stroke-linecap:round;stroke-linejoin:miter;stroke-dasharray:none;stroke-opacity:1"
       d="m 102.2076,196.99434 -4.337791,1e-5"
       id="path20-6-4"
       inkscape:connector-curvature="0"
       sodipodi:nodetypes="cc" />
    <path
       style="fill:none;stroke:#000000;stroke-width:0.265;stroke-linecap:round;stroke-linejoin:miter;stroke-dasharray:none;stroke-opacity:1"
       d="M 102.20761,216.04438 H 97.869809"
       id="path20-6-4-5"
       inkscape:connector-curvature="0"
       sodipodi:nodetypes="cc" />
    <ellipse
       ry="0.39901915"
       rx="0.40116644"
       cy="196.99434"
       cx="34.765137"
       id="path5953-31"
       style="fill:none;fill-opacity:1;stroke:#000000;stroke-width:0.256;stroke-linecap:round;stroke-linejoin:round;stroke-miterlimit:4;stroke-dasharray:none;stroke-dashoffset:0;stroke-opacity:1;paint-order:normal" />
    <ellipse
       ry="0.39901915"
       rx="0.40116644"
       cy="216.04427"
       cx="34.765137"
       id="path5953-31-2"
       style="fill:none;fill-opacity:1;stroke:#000000;stroke-width:0.256;stroke-linecap:round;stroke-linejoin:round;stroke-miterlimit:4;stroke-dasharray:none;stroke-dashoffset:0;stroke-opacity:1;paint-order:normal" />
    <path
       style="fill:none;stroke:#000000;stroke-width:0.264583px;stroke-linecap:round;stroke-linejoin:miter;stroke-opacity:1"
       d="M 52.771687,216.04438 H 83.343798"
       id="path21-8-5"
       inkscape:connector-curvature="0"
       sodipodi:nodetypes="cc" />
    <ellipse
       ry="0.39901915"
       rx="0.40116644"
       cy="-216.04427"
       cx="-102.60878"
       id="path5953-31-2-0"
       style="fill:none;fill-opacity:1;stroke:#000000;stroke-width:0.256;stroke-linecap:round;stroke-linejoin:round;stroke-miterlimit:4;stroke-dasharray:none;stroke-dashoffset:0;stroke-opacity:1;paint-order:normal"
       transform="scale(-1)" />
    <ellipse
       ry="0.39901915"
       rx="0.40116644"
       cy="196.99434"
       cx="102.60876"
       id="path5953-31-5"
       style="fill:none;fill-opacity:1;stroke:#000000;stroke-width:0.256;stroke-linecap:round;stroke-linejoin:round;stroke-miterlimit:4;stroke-dasharray:none;stroke-dashoffset:0;stroke-opacity:1;paint-order:normal" />
    <path
       inkscape:connector-curvature="0"
       id="path5718-7-5-72"
       d="m 34.78372,214.52849 -2.5e-5,-15.7853"
       style="fill:none;stroke:#000000;stroke-width:0.264999;stroke-linecap:round;stroke-linejoin:round;stroke-miterlimit:4;stroke-dasharray:none;stroke-opacity:1;marker-start:url(#TriangleInM-7)"
       sodipodi:nodetypes="cc" />
    <path
       inkscape:connector-curvature="0"
       id="path5718-7-5-72-8"
       d="M 38.096647,196.99434 H 37.413819"
       style="fill:none;stroke:#000000;stroke-width:0.264999;stroke-linecap:round;stroke-linejoin:round;stroke-miterlimit:4;stroke-dasharray:none;stroke-opacity:1;marker-start:url(#TriangleInM-7-4)"
       sodipodi:nodetypes="cc" />
    <path
       inkscape:connector-curvature="0"
       id="path5718-7-5-72-8-9-2"
       d="m 54.040792,201.36074 v -0.68283"
       style="fill:none;stroke:#000000;stroke-width:0.264999;stroke-linecap:round;stroke-linejoin:round;stroke-miterlimit:4;stroke-dasharray:none;stroke-opacity:1;marker-start:url(#TriangleInM-7-4-14-6)"
       sodipodi:nodetypes="cc" />
    <path
       inkscape:connector-curvature="0"
       id="path5718-7-5-72-8-8"
       d="m 77.55576,196.99434 h 0.68282"
       style="fill:none;stroke:#000000;stroke-width:0.264999;stroke-linecap:round;stroke-linejoin:round;stroke-miterlimit:4;stroke-dasharray:none;stroke-opacity:1;marker-start:url(#TriangleInM-7-4-1)"
       sodipodi:nodetypes="cc" />
    <path
       inkscape:connector-curvature="0"
       id="path5718-7-5-72-8-8-1"
       d="m 100.38884,196.99435 h 0.68282"
       style="fill:none;stroke:#000000;stroke-width:0.264999;stroke-linecap:round;stroke-linejoin:round;stroke-miterlimit:4;stroke-dasharray:none;stroke-opacity:1;marker-start:url(#TriangleInM-7-4-1-2)"
       sodipodi:nodetypes="cc" />
    <path
       inkscape:connector-curvature="0"
       id="path5718-7-5-72-0"
       d="m 102.60897,214.5238 2.3e-4,-16.05349"
       style="fill:none;stroke:#000000;stroke-width:0.264999;stroke-linecap:round;stroke-linejoin:round;stroke-miterlimit:4;stroke-dasharray:none;stroke-opacity:1;marker-start:url(#TriangleInM-7-2)"
       sodipodi:nodetypes="cc" />
    <path
       inkscape:connector-curvature="0"
       id="path5718-7-5-72-0-5"
       d="m 80.401344,214.5771 2.3e-4,-16.1396"
       style="fill:none;stroke:#000000;stroke-width:0.264999;stroke-linecap:round;stroke-linejoin:round;stroke-miterlimit:4;stroke-dasharray:none;stroke-opacity:1;marker-start:url(#TriangleInM-7-2-9)"
       sodipodi:nodetypes="cc" />
    <path
       sodipodi:arc-type="arc"
       style="fill:none;fill-opacity:1;stroke:#000000;stroke-width:0.265;stroke-linecap:round;stroke-linejoin:round;stroke-miterlimit:4;stroke-dasharray:none;stroke-dashoffset:0;stroke-opacity:1;paint-order:normal"
       id="path6-8"
       inkscape:transform-center-x="-0.85988921"
       inkscape:transform-center-y="-0.64492188"
       sodipodi:type="arc"
       sodipodi:cx="54.044815"
       sodipodi:cy="210.79576"
       sodipodi:rx="1.0583333"
       sodipodi:ry="1.0583333"
       sodipodi:start="4.712389"
       sodipodi:end="1.5707963"
       sodipodi:open="true"
       d="m 54.044815,209.73743 a 1.0583333,1.0583333 0 0 1 1.058333,1.05833 1.0583333,1.0583333 0 0 1 -1.058333,1.05833" />
    <path
       sodipodi:arc-type="arc"
       style="fill:none;fill-opacity:1;stroke:#000000;stroke-width:0.265;stroke-linecap:round;stroke-linejoin:round;stroke-miterlimit:4;stroke-dasharray:none;stroke-dashoffset:0;stroke-opacity:1;paint-order:normal"
       id="path19-75"
       inkscape:transform-center-x="-0.85988921"
       inkscape:transform-center-y="-0.64492188"
       sodipodi:type="arc"
       sodipodi:cx="54.044823"
       sodipodi:cy="208.67909"
       sodipodi:rx="1.0583333"
       sodipodi:ry="1.0583333"
       sodipodi:start="4.712389"
       sodipodi:end="1.5707963"
       sodipodi:open="true"
       d="m 54.044823,207.62076 a 1.0583333,1.0583333 0 0 1 1.058333,1.05833 1.0583333,1.0583333 0 0 1 -1.058333,1.05834" />
    <path
       sodipodi:arc-type="arc"
       style="fill:none;fill-opacity:1;stroke:#000000;stroke-width:0.265;stroke-linecap:round;stroke-linejoin:round;stroke-miterlimit:4;stroke-dasharray:none;stroke-dashoffset:0;stroke-opacity:1;paint-order:normal"
       id="path27-7"
       inkscape:transform-center-x="-0.85988921"
       inkscape:transform-center-y="-0.64492188"
       sodipodi:type="arc"
       sodipodi:cx="54.044823"
       sodipodi:cy="206.56242"
       sodipodi:rx="1.0583333"
       sodipodi:ry="1.0583333"
       sodipodi:start="4.712389"
       sodipodi:end="1.5707963"
       d="m 54.044823,205.50409 a 1.0583333,1.0583333 0 0 1 1.058333,1.05833 1.0583333,1.0583333 0 0 1 -1.058333,1.05834"
       sodipodi:open="true" />
    <path
       sodipodi:arc-type="arc"
       style="fill:none;fill-opacity:1;stroke:#000000;stroke-width:0.265;stroke-linecap:round;stroke-linejoin:round;stroke-miterlimit:4;stroke-dasharray:none;stroke-dashoffset:0;stroke-opacity:1;paint-order:normal"
       id="path28-9"
       inkscape:transform-center-x="-0.85988921"
       inkscape:transform-center-y="-0.64492188"
       sodipodi:type="arc"
       sodipodi:cx="54.044823"
       sodipodi:cy="204.44576"
       sodipodi:rx="1.0583333"
       sodipodi:ry="1.0583333"
       sodipodi:start="4.712389"
       sodipodi:end="1.5707963"
       sodipodi:open="true"
       d="m 54.044823,203.38742 a 1.0583333,1.0583333 0 0 1 1.058333,1.05834 1.0583333,1.0583333 0 0 1 -1.058333,1.05833" />
    <path
       style="fill:none;stroke:#000000;stroke-width:0.264582px;stroke-linecap:round;stroke-linejoin:miter;stroke-opacity:1"
       d="m 54.052864,215.82754 -0.008,-3.89629"
       id="path30-2"
       inkscape:connector-curvature="0"
       sodipodi:nodetypes="cc" />
    <path
       style="fill:none;stroke:#000000;stroke-width:0.264583px;stroke-linecap:round;stroke-linejoin:miter;stroke-opacity:1"
       d="m 54.036792,201.01087 0.008,2.37657"
       id="path32-2"
       inkscape:connector-curvature="0"
       sodipodi:nodetypes="cc" />
    <ellipse
       ry="0.39901915"
       rx="0.40116644"
       cy="216.04427"
       cx="54.048859"
       id="path5953-3-9"
       style="fill:#000000;fill-opacity:1;stroke:#000000;stroke-width:0.256;stroke-linecap:round;stroke-linejoin:round;stroke-miterlimit:4;stroke-dasharray:none;stroke-dashoffset:0;stroke-opacity:1;paint-order:normal" />
    <rect
       style="fill:none;fill-rule:evenodd;stroke:#000000;stroke-width:0.265;stroke-linecap:round;stroke-miterlimit:3.9;stroke-dasharray:none"
       id="rect1"
       width="14.439927"
       height="21.034166"
       x="83.343796"
       y="195.92467" />
    <path
       style="fill:none;stroke:#000000;stroke-width:0.264582px;stroke-linecap:round;stroke-linejoin:miter;stroke-opacity:1"
       d="m 54.044792,200.9832 -0.008,-3.89629"
       id="path30-2-0"
       inkscape:connector-curvature="0"
       sodipodi:nodetypes="cc" />
    <g
       inkscape:label=""
       transform="translate(56.163372,205.23651)"
       id="g50">
      <g
         fill="#000000"
         fill-opacity="1"
         id="g2"
         transform="matrix(0.352778,0,0,0.352778,-0.907036,-0.69387)">
        <g
           id="g1"
           transform="translate(1.993,10.758)">
          <path
             d="m 10.859375,-7.296875 c 0.109375,-0.40625 0.125,-0.515625 0.96875,-0.515625 0.234375,0 0.34375,0 0.34375,-0.234375 0,-0.109375 -0.09375,-0.109375 -0.3125,-0.109375 h -1.4375 c -0.296875,0 -0.3125,0 -0.4375,0.203125 L 5.625,-1.0625 4.71875,-7.90625 c -0.03125,-0.25 -0.046875,-0.25 -0.359375,-0.25 H 2.875 c -0.21875,0 -0.328125,0 -0.328125,0.21875 0,0.125 0.109375,0.125 0.28125,0.125 0.734375,0 0.734375,0.09375 0.734375,0.21875 0,0.03125 0,0.09375 -0.046875,0.28125 l -1.53125,6.09375 c -0.140625,0.578125 -0.421875,0.84375 -1.21875,0.875 -0.03125,0 -0.1875,0.015625 -0.1875,0.21875 C 0.578125,0 0.6875,0 0.734375,0 c 0.25,0 0.859375,-0.03125 1.09375,-0.03125 H 2.40625 C 2.5625,-0.03125 2.765625,0 2.9375,0 c 0.09375,0 0.21875,0 0.21875,-0.234375 0,-0.09375 -0.125,-0.109375 -0.171875,-0.109375 C 2.59375,-0.359375 2.21875,-0.4375 2.21875,-0.859375 c 0,-0.125 0,-0.125 0.046875,-0.296875 L 3.90625,-7.75 H 3.921875 L 4.90625,-0.328125 C 4.953125,-0.03125 4.953125,0 5.0625,0 5.203125,0 5.265625,-0.09375 5.3125,-0.203125 L 10.125,-7.8125 h 0.01563 L 8.40625,-0.890625 C 8.296875,-0.46875 8.265625,-0.34375 7.4375,-0.34375 c -0.234375,0 -0.34375,0 -0.34375,0.21875 C 7.09375,0 7.203125,0 7.265625,0 7.46875,0 7.703125,-0.03125 7.90625,-0.03125 H 9.328125 C 9.53125,-0.03125 9.78125,0 9.984375,0 c 0.09375,0 0.21875,0 0.21875,-0.234375 0,-0.109375 -0.109375,-0.109375 -0.28125,-0.109375 -0.734375,0 -0.734375,-0.09375 -0.734375,-0.21875 0,-0.015625 0,-0.09375 0.03125,-0.1875 z m 0,0"
             id="path14" />
        </g>
      </g>
      <g
         fill="#000000"
         fill-opacity="1"
         id="g9"
         transform="matrix(0.352778,0,0,0.352778,-0.907036,-0.69387)">
        <g
           id="use8"
           transform="translate(14.566,6.4200001)">
          <path
             d="M 2.109375,-3.78125 C 2.15625,-3.875 2.1875,-3.9375 2.1875,-4.015625 c 0,-0.265625 -0.25,-0.4375 -0.46875,-0.4375 -0.3125,0 -0.40625,0.28125 -0.4375,0.390625 L 0.265625,-0.625 c -0.03125,0.09375 -0.03125,0.109375 -0.03125,0.125 0,0.0625 0.046875,0.078125 0.125,0.109375 0.15625,0.0625 0.171875,0.0625 0.1875,0.0625 0.015625,0 0.0625,0 0.125,-0.140625 z m 0,0"
             id="path2" />
        </g>
      </g>
      <g
         fill="#000000"
         fill-opacity="1"
         id="g10"
         transform="matrix(0.352778,0,0,0.352778,-0.907036,-0.69387)">
        <g
           id="use9"
           transform="translate(20.681999,10.758)">
          <path
             d="m 8.0625,-3.875 c 0.171875,0 0.390625,0 0.390625,-0.21875 C 8.453125,-4.3125 8.25,-4.3125 8.0625,-4.3125 H 1.03125 c -0.171875,0 -0.390625,0 -0.390625,0.21875 0,0.21875 0.203125,0.21875 0.390625,0.21875 z m 0,2.21875 c 0.171875,0 0.390625,0 0.390625,-0.203125 C 8.453125,-2.09375 8.25,-2.09375 8.0625,-2.09375 H 1.03125 c -0.171875,0 -0.390625,0 -0.390625,0.21875 0,0.21875 0.203125,0.21875 0.390625,0.21875 z m 0,0"
             id="path16" />
        </g>
      </g>
      <g
         fill="#000000"
         fill-opacity="1"
         id="g11"
         transform="matrix(0.352778,0,0,0.352778,-0.907036,-0.69387)">
        <g
           id="use10"
           transform="translate(33.106998,10.758)">
          <path
             d="M 4.390625,-7.25 C 4.5,-7.703125 4.53125,-7.8125 5.578125,-7.8125 c 0.328125,0 0.40625,0 0.40625,-0.234375 0,-0.109375 -0.125,-0.109375 -0.171875,-0.109375 -0.25,0 -0.515625,0.015625 -0.75,0.015625 H 3.453125 c -0.21875,0 -0.484375,-0.015625 -0.71875,-0.015625 -0.09375,0 -0.21875,0 -0.21875,0.21875 0,0.125 0.109375,0.125 0.28125,0.125 0.734375,0 0.734375,0.09375 0.734375,0.21875 0,0.03125 0,0.09375 -0.046875,0.28125 l -1.625,6.421875 C 1.75,-0.46875 1.734375,-0.34375 0.890625,-0.34375 c -0.21875,0 -0.34375,0 -0.34375,0.21875 C 0.546875,0 0.625,0 0.859375,0 H 6.21875 C 6.484375,0 6.484375,-0.015625 6.578125,-0.234375 L 7.5,-2.765625 c 0.015625,-0.0625 0.046875,-0.140625 0.046875,-0.171875 0,-0.078125 -0.0625,-0.125 -0.125,-0.125 -0.015625,0 -0.078125,0 -0.09375,0.046875 C 7.296875,-3 7.296875,-2.96875 7.203125,-2.75 c -0.375,1.046875 -0.921875,2.40625 -2.9375,2.40625 H 3.125 c -0.171875,0 -0.203125,0 -0.265625,-0.015625 C 2.71875,-0.375 2.71875,-0.390625 2.71875,-0.484375 c 0,-0.09375 0.015625,-0.15625 0.046875,-0.265625 z m 0,0"
             id="path3" />
        </g>
      </g>
      <g
         fill="#000000"
         fill-opacity="1"
         id="g13"
         transform="matrix(0.352778,0,0,0.352778,-0.907036,-0.69387)">
        <g
           id="g12"
           transform="translate(41.071999,12.552)">
          <path
             d="m 2.5,-5.078125 c 0,-0.21875 -0.015625,-0.21875 -0.234375,-0.21875 -0.328125,0.3125 -0.75,0.5 -1.5,0.5 v 0.265625 c 0.21875,0 0.640625,0 1.109375,-0.203125 v 4.078125 c 0,0.296875 -0.03125,0.390625 -0.78125,0.390625 H 0.8125 V 0 c 0.328125,-0.03125 1.015625,-0.03125 1.375,-0.03125 0.359375,0 1.046875,0 1.375,0.03125 V -0.265625 H 3.28125 c -0.75,0 -0.78125,-0.09375 -0.78125,-0.390625 z m 0,0"
             id="path4" />
        </g>
      </g>
      <g
         fill="#000000"
         fill-opacity="1"
         id="g15"
         transform="matrix(0.352778,0,0,0.352778,-0.907036,-0.69387)">
        <g
           id="g14"
           transform="translate(45.306,12.552)">
          <path
             d="m 1.484375,-0.125 c 0,0.515625 -0.109375,0.984375 -0.59375,1.46875 C 0.859375,1.375 0.84375,1.390625 0.84375,1.421875 c 0,0.0625 0.0625,0.109375 0.109375,0.109375 0.09375,0 0.765625,-0.625 0.765625,-1.5625 0,-0.5 -0.203125,-0.859375 -0.546875,-0.859375 -0.28125,0 -0.4375,0.234375 -0.4375,0.4375 C 0.734375,-0.21875 0.890625,0 1.171875,0 1.375,0 1.484375,-0.109375 1.484375,-0.125 Z m 0,0"
             id="path19" />
        </g>
      </g>
      <g
         fill="#000000"
         fill-opacity="1"
         id="g23"
         transform="matrix(0.352778,0,0,0.352778,-0.907036,-0.69387)">
        <g
           id="g22"
           transform="translate(47.659,12.552)">
          <path
             d="m 6.21875,-2.421875 c 0,-0.640625 -0.28125,-1.09375 -1.140625,-1.09375 -0.734375,0 -1.109375,0.5 -1.234375,0.734375 C 3.703125,-3.359375 3.25,-3.515625 2.734375,-3.515625 c -0.78125,0 -1.140625,0.546875 -1.25,0.765625 v -0.765625 l -1.15625,0.09375 v 0.265625 c 0.546875,0 0.609375,0.046875 0.609375,0.4375 V -0.625 c 0,0.359375 -0.09375,0.359375 -0.609375,0.359375 V 0 c 0.34375,-0.03125 0.6875,-0.03125 0.90625,-0.03125 0.234375,0 0.5625,0 0.90625,0.03125 v -0.265625 c -0.5,0 -0.609375,0 -0.609375,-0.359375 v -1.4375 c 0,-0.84375 0.640625,-1.234375 1.140625,-1.234375 0.515625,0 0.609375,0.40625 0.609375,0.84375 V -0.625 c 0,0.359375 -0.109375,0.359375 -0.609375,0.359375 V 0 c 0.34375,-0.03125 0.6875,-0.03125 0.90625,-0.03125 0.234375,0 0.5625,0 0.90625,0.03125 v -0.265625 c -0.515625,0 -0.609375,0 -0.609375,-0.359375 v -1.4375 c 0,-0.84375 0.640625,-1.234375 1.140625,-1.234375 0.515625,0 0.609375,0.40625 0.609375,0.84375 V -0.625 c 0,0.359375 -0.109375,0.359375 -0.609375,0.359375 V 0 c 0.34375,-0.03125 0.6875,-0.03125 0.90625,-0.03125 0.234375,0 0.5625,0 0.90625,0.03125 v -0.265625 c -0.515625,0 -0.609375,0 -0.609375,-0.359375 z m 0,0"
             id="path20" />
        </g>
      </g>
    </g>
    <g
       inkscape:label=""
       transform="translate(56.069663,199.34953)"
       id="g62">
      <g
         fill="#000000"
         fill-opacity="1"
         id="g52"
         transform="matrix(0.352778,0,0,0.352778,-0.818841,-0.694223)">
        <g
           id="g51"
           transform="translate(1.993,10.759)">
          <path
             d="m 3.375,-1.703125 c 0,-0.0625 -0.046875,-0.109375 -0.109375,-0.109375 -0.109375,0 -0.125,0.03125 -0.1875,0.234375 -0.3125,1.09375 -0.796875,1.453125 -1.1875,1.453125 -0.140625,0 -0.3125,-0.03125 -0.3125,-0.390625 0,-0.328125 0.140625,-0.671875 0.28125,-1.03125 L 2.6875,-3.78125 c 0.03125,-0.09375 0.125,-0.3125 0.125,-0.53125 0,-0.5 -0.359375,-0.953125 -0.953125,-0.953125 -1.09375,0 -1.53125,1.734375 -1.53125,1.828125 0,0.046875 0.046875,0.109375 0.125,0.109375 0.109375,0 0.125,-0.046875 0.171875,-0.21875 0.28125,-1 0.734375,-1.484375 1.203125,-1.484375 0.109375,0 0.3125,0.015625 0.3125,0.390625 0,0.3125 -0.15625,0.703125 -0.25,0.96875 l -0.84375,2.21875 C 0.984375,-1.25 0.90625,-1.0625 0.90625,-0.84375 c 0,0.53125 0.375,0.96875 0.953125,0.96875 1.09375,0 1.515625,-1.75 1.515625,-1.828125 z m -0.09375,-5.75 c 0,-0.1875 -0.140625,-0.40625 -0.40625,-0.40625 -0.265625,0 -0.578125,0.265625 -0.578125,0.578125 0,0.296875 0.25,0.390625 0.390625,0.390625 0.328125,0 0.59375,-0.3125 0.59375,-0.5625 z m 0,0"
             id="path6" />
        </g>
      </g>
      <g
         fill="#000000"
         fill-opacity="1"
         id="g54"
         transform="matrix(0.352778,0,0,0.352778,-0.818841,-0.694223)">
        <g
           id="g53"
           transform="translate(5.9860001,6.421)">
          <path
             d="M 2.109375,-3.78125 C 2.15625,-3.875 2.1875,-3.9375 2.1875,-4.015625 c 0,-0.265625 -0.25,-0.4375 -0.46875,-0.4375 -0.3125,0 -0.40625,0.28125 -0.4375,0.390625 L 0.265625,-0.625 c -0.03125,0.09375 -0.03125,0.109375 -0.03125,0.125 0,0.0625 0.046875,0.078125 0.125,0.109375 0.15625,0.0625 0.171875,0.0625 0.1875,0.0625 0.015625,0 0.0625,0 0.125,-0.140625 z m 0,0"
             id="path7" />
        </g>
      </g>
      <g
         fill="#000000"
         fill-opacity="1"
         id="g61"
         transform="matrix(0.352778,0,0,0.352778,-0.818841,-0.694223)">
        <g
           id="g55"
           transform="translate(5.9860001,13.714)">
          <path
             d="m 6.21875,-2.421875 c 0,-0.640625 -0.28125,-1.09375 -1.140625,-1.09375 -0.734375,0 -1.109375,0.5 -1.234375,0.734375 C 3.703125,-3.359375 3.25,-3.515625 2.734375,-3.515625 c -0.78125,0 -1.140625,0.546875 -1.25,0.765625 v -0.765625 l -1.15625,0.09375 v 0.265625 c 0.546875,0 0.609375,0.046875 0.609375,0.4375 V -0.625 c 0,0.359375 -0.09375,0.359375 -0.609375,0.359375 V 0 c 0.34375,-0.03125 0.6875,-0.03125 0.90625,-0.03125 0.234375,0 0.5625,0 0.90625,0.03125 v -0.265625 c -0.5,0 -0.609375,0 -0.609375,-0.359375 v -1.4375 c 0,-0.84375 0.640625,-1.234375 1.140625,-1.234375 0.515625,0 0.609375,0.40625 0.609375,0.84375 V -0.625 c 0,0.359375 -0.109375,0.359375 -0.609375,0.359375 V 0 c 0.34375,-0.03125 0.6875,-0.03125 0.90625,-0.03125 0.234375,0 0.5625,0 0.90625,0.03125 v -0.265625 c -0.515625,0 -0.609375,0 -0.609375,-0.359375 v -1.4375 c 0,-0.84375 0.640625,-1.234375 1.140625,-1.234375 0.515625,0 0.609375,0.40625 0.609375,0.84375 V -0.625 c 0,0.359375 -0.109375,0.359375 -0.609375,0.359375 V 0 c 0.34375,-0.03125 0.6875,-0.03125 0.90625,-0.03125 0.234375,0 0.5625,0 0.90625,0.03125 v -0.265625 c -0.515625,0 -0.609375,0 -0.609375,-0.359375 z m 0,0"
             id="path54" />
        </g>
      </g>
    </g>
    <g
       inkscape:label=""
       transform="translate(77.511939,191.7421)"
       id="g69">
      <g
         fill="#000000"
         fill-opacity="1"
         id="g64"
         transform="matrix(0.352778,0,0,0.352778,-0.818841,-0.694223)">
        <g
           id="g63"
           transform="translate(1.993,10.759)">
          <path
             d="m 3.375,-1.703125 c 0,-0.0625 -0.046875,-0.109375 -0.109375,-0.109375 -0.109375,0 -0.125,0.03125 -0.1875,0.234375 -0.3125,1.09375 -0.796875,1.453125 -1.1875,1.453125 -0.140625,0 -0.3125,-0.03125 -0.3125,-0.390625 0,-0.328125 0.140625,-0.671875 0.28125,-1.03125 L 2.6875,-3.78125 c 0.03125,-0.09375 0.125,-0.3125 0.125,-0.53125 0,-0.5 -0.359375,-0.953125 -0.953125,-0.953125 -1.09375,0 -1.53125,1.734375 -1.53125,1.828125 0,0.046875 0.046875,0.109375 0.125,0.109375 0.109375,0 0.125,-0.046875 0.171875,-0.21875 0.28125,-1 0.734375,-1.484375 1.203125,-1.484375 0.109375,0 0.3125,0.015625 0.3125,0.390625 0,0.3125 -0.15625,0.703125 -0.25,0.96875 l -0.84375,2.21875 C 0.984375,-1.25 0.90625,-1.0625 0.90625,-0.84375 c 0,0.53125 0.375,0.96875 0.953125,0.96875 1.09375,0 1.515625,-1.75 1.515625,-1.828125 z m -0.09375,-5.75 c 0,-0.1875 -0.140625,-0.40625 -0.40625,-0.40625 -0.265625,0 -0.578125,0.265625 -0.578125,0.578125 0,0.296875 0.25,0.390625 0.390625,0.390625 0.328125,0 0.59375,-0.3125 0.59375,-0.5625 z m 0,0"
             id="path62" />
        </g>
      </g>
      <g
         fill="#000000"
         fill-opacity="1"
         id="g66"
         transform="matrix(0.352778,0,0,0.352778,-0.818841,-0.694223)">
        <g
           id="g65"
           transform="translate(5.9860001,6.421)">
          <path
             d="M 2.109375,-3.78125 C 2.15625,-3.875 2.1875,-3.9375 2.1875,-4.015625 c 0,-0.265625 -0.25,-0.4375 -0.46875,-0.4375 -0.3125,0 -0.40625,0.28125 -0.4375,0.390625 L 0.265625,-0.625 c -0.03125,0.09375 -0.03125,0.109375 -0.03125,0.125 0,0.0625 0.046875,0.078125 0.125,0.109375 0.15625,0.0625 0.171875,0.0625 0.1875,0.0625 0.015625,0 0.0625,0 0.125,-0.140625 z m 0,0"
             id="path64" />
        </g>
      </g>
      <g
         fill="#000000"
         fill-opacity="1"
         id="g68"
         transform="matrix(0.352778,0,0,0.352778,-0.818841,-0.694223)">
        <g
           id="g67"
           transform="translate(5.9860001,13.714)">
          <path
             d="m 2.25,-1.625 c 0.125,-0.125 0.453125,-0.390625 0.59375,-0.5 0.484375,-0.453125 0.953125,-0.890625 0.953125,-1.609375 0,-0.953125 -0.796875,-1.5625 -1.78125,-1.5625 -0.96875,0 -1.59375,0.71875 -1.59375,1.4375 0,0.390625 0.3125,0.4375 0.421875,0.4375 0.171875,0 0.421875,-0.109375 0.421875,-0.421875 0,-0.40625 -0.40625,-0.40625 -0.5,-0.40625 C 1,-4.84375 1.53125,-5.03125 1.921875,-5.03125 c 0.734375,0 1.125,0.625 1.125,1.296875 0,0.828125 -0.578125,1.4375 -1.53125,2.390625 l -1,1.046875 C 0.421875,-0.21875 0.421875,-0.203125 0.421875,0 H 3.5625 l 0.234375,-1.421875 h -0.25 C 3.53125,-1.265625 3.46875,-0.875 3.375,-0.71875 c -0.046875,0.0625 -0.65625,0.0625 -0.78125,0.0625 H 1.171875 Z m 0,0"
             id="path66" />
        </g>
      </g>
    </g>
    <g
       inkscape:label=""
       transform="translate(99.505427,192.48073)"
       id="g93">
      <g
         fill="#000000"
         fill-opacity="1"
         id="g90"
         transform="matrix(0.352778,0,0,0.352778,-0.818841,-0.695193)">
        <g
           id="g82"
           transform="translate(1.993,9.8299999)">
          <path
             d="m 3.375,-1.703125 c 0,-0.0625 -0.046875,-0.109375 -0.109375,-0.109375 -0.109375,0 -0.125,0.03125 -0.1875,0.234375 -0.3125,1.09375 -0.796875,1.453125 -1.1875,1.453125 -0.140625,0 -0.3125,-0.03125 -0.3125,-0.390625 0,-0.328125 0.140625,-0.671875 0.28125,-1.03125 L 2.6875,-3.78125 c 0.03125,-0.09375 0.125,-0.3125 0.125,-0.53125 0,-0.5 -0.359375,-0.953125 -0.953125,-0.953125 -1.09375,0 -1.53125,1.734375 -1.53125,1.828125 0,0.046875 0.046875,0.109375 0.125,0.109375 0.109375,0 0.125,-0.046875 0.171875,-0.21875 0.28125,-1 0.734375,-1.484375 1.203125,-1.484375 0.109375,0 0.3125,0.015625 0.3125,0.390625 0,0.3125 -0.15625,0.703125 -0.25,0.96875 l -0.84375,2.21875 C 0.984375,-1.25 0.90625,-1.0625 0.90625,-0.84375 c 0,0.53125 0.375,0.96875 0.953125,0.96875 1.09375,0 1.515625,-1.75 1.515625,-1.828125 z m -0.09375,-5.75 c 0,-0.1875 -0.140625,-0.40625 -0.40625,-0.40625 -0.265625,0 -0.578125,0.265625 -0.578125,0.578125 0,0.296875 0.25,0.390625 0.390625,0.390625 0.328125,0 0.59375,-0.3125 0.59375,-0.5625 z m 0,0"
             id="path81" />
        </g>
      </g>
      <g
         fill="#000000"
         fill-opacity="1"
         id="g92"
         transform="matrix(0.352778,0,0,0.352778,-0.818841,-0.695193)">
        <g
           id="g91"
           transform="translate(5.9860001,11.623)">
          <path
             d="m 2.25,-1.625 c 0.125,-0.125 0.453125,-0.390625 0.59375,-0.5 0.484375,-0.453125 0.953125,-0.890625 0.953125,-1.609375 0,-0.953125 -0.796875,-1.5625 -1.78125,-1.5625 -0.96875,0 -1.59375,0.71875 -1.59375,1.4375 0,0.390625 0.3125,0.4375 0.421875,0.4375 0.171875,0 0.421875,-0.109375 0.421875,-0.421875 0,-0.40625 -0.40625,-0.40625 -0.5,-0.40625 C 1,-4.84375 1.53125,-5.03125 1.921875,-5.03125 c 0.734375,0 1.125,0.625 1.125,1.296875 0,0.828125 -0.578125,1.4375 -1.53125,2.390625 l -1,1.046875 C 0.421875,-0.21875 0.421875,-0.203125 0.421875,0 H 3.5625 l 0.234375,-1.421875 h -0.25 C 3.53125,-1.265625 3.46875,-0.875 3.375,-0.71875 c -0.046875,0.0625 -0.65625,0.0625 -0.78125,0.0625 H 1.171875 Z m 0,0"
             id="path90" />
        </g>
      </g>
    </g>
    <g
       inkscape:label=""
       transform="translate(106.37705,206.78477)"
       id="g98">
      <g
         fill="#000000"
         fill-opacity="1"
         id="g95"
         transform="matrix(0.352778,0,0,0.352778,-0.818841,-0.661238)">
        <g
           id="g94"
           transform="translate(-4.1262378,2.2767463)">
          <path
             d="M 4.078125,-0.6875 C 4.234375,-0.03125 4.8125,0.125 5.09375,0.125 c 0.375,0 0.671875,-0.25 0.859375,-0.65625 0.203125,-0.4375 0.359375,-1.140625 0.359375,-1.171875 0,-0.0625 -0.046875,-0.109375 -0.125,-0.109375 -0.109375,0 -0.109375,0.0625 -0.15625,0.234375 C 5.8125,-0.75 5.59375,-0.125 5.109375,-0.125 4.75,-0.125 4.75,-0.515625 4.75,-0.671875 4.75,-0.9375 4.796875,-1.0625 4.90625,-1.5625 5,-1.890625 5.078125,-2.21875 5.15625,-2.546875 L 5.640625,-4.5 C 5.71875,-4.796875 5.71875,-4.8125 5.71875,-4.859375 c 0,-0.171875 -0.140625,-0.296875 -0.3125,-0.296875 -0.34375,0 -0.4375,0.296875 -0.5,0.609375 -0.125,0.453125 -0.765625,3.03125 -0.859375,3.453125 0,0 -0.46875,0.96875 -1.34375,0.96875 -0.625,0 -0.75,-0.53125 -0.75,-0.96875 0,-0.6875 0.34375,-1.640625 0.65625,-2.4375 C 2.75,-3.921875 2.8125,-4.078125 2.8125,-4.3125 c 0,-0.515625 -0.375,-0.953125 -0.953125,-0.953125 -1.09375,0 -1.53125,1.734375 -1.53125,1.828125 0,0.046875 0.046875,0.109375 0.125,0.109375 0.109375,0 0.125,-0.046875 0.171875,-0.21875 0.28125,-1.03125 0.75,-1.484375 1.203125,-1.484375 0.125,0 0.3125,0.015625 0.3125,0.390625 0,0.3125 -0.125,0.65625 -0.3125,1.109375 C 1.296875,-2.109375 1.25,-1.65625 1.25,-1.296875 1.25,-0.078125 2.15625,0.125 2.65625,0.125 c 0.765625,0 1.1875,-0.53125 1.421875,-0.8125 z m 0,0"
             id="path93" />
        </g>
      </g>
      <g
         fill="#000000"
         fill-opacity="1"
         id="g97"
         transform="matrix(0.352778,0,0,0.352778,-2.9775735,-2.3768869)">
        <g
           id="g96"
           transform="translate(8.6549997,8.9329996)">
          <path
             d="m 2.25,-1.625 c 0.125,-0.125 0.453125,-0.390625 0.59375,-0.5 0.484375,-0.453125 0.953125,-0.890625 0.953125,-1.609375 0,-0.953125 -0.796875,-1.5625 -1.78125,-1.5625 -0.96875,0 -1.59375,0.71875 -1.59375,1.4375 0,0.390625 0.3125,0.4375 0.421875,0.4375 0.171875,0 0.421875,-0.109375 0.421875,-0.421875 0,-0.40625 -0.40625,-0.40625 -0.5,-0.40625 C 1,-4.84375 1.53125,-5.03125 1.921875,-5.03125 c 0.734375,0 1.125,0.625 1.125,1.296875 0,0.828125 -0.578125,1.4375 -1.53125,2.390625 l -1,1.046875 C 0.421875,-0.21875 0.421875,-0.203125 0.421875,0 H 3.5625 l 0.234375,-1.421875 h -0.25 C 3.53125,-1.265625 3.46875,-0.875 3.375,-0.71875 c -0.046875,0.0625 -0.65625,0.0625 -0.78125,0.0625 H 1.171875 Z m 0,0"
             id="path95" />
        </g>
      </g>
    </g>
    <g
       inkscape:label=""
       transform="translate(36.203868,204.562)"
       id="g115">
      <g
         fill="#000000"
         fill-opacity="1"
         id="g112"
         transform="matrix(0.352778,0,0,0.352778,-0.818841,-0.661238)">
        <g
           id="g111"
           transform="translate(1.993,7.1399999)">
          <path
             d="M 4.078125,-0.6875 C 4.234375,-0.03125 4.8125,0.125 5.09375,0.125 c 0.375,0 0.671875,-0.25 0.859375,-0.65625 0.203125,-0.4375 0.359375,-1.140625 0.359375,-1.171875 0,-0.0625 -0.046875,-0.109375 -0.125,-0.109375 -0.109375,0 -0.109375,0.0625 -0.15625,0.234375 C 5.8125,-0.75 5.59375,-0.125 5.109375,-0.125 4.75,-0.125 4.75,-0.515625 4.75,-0.671875 4.75,-0.9375 4.796875,-1.0625 4.90625,-1.5625 5,-1.890625 5.078125,-2.21875 5.15625,-2.546875 L 5.640625,-4.5 C 5.71875,-4.796875 5.71875,-4.8125 5.71875,-4.859375 c 0,-0.171875 -0.140625,-0.296875 -0.3125,-0.296875 -0.34375,0 -0.4375,0.296875 -0.5,0.609375 -0.125,0.453125 -0.765625,3.03125 -0.859375,3.453125 0,0 -0.46875,0.96875 -1.34375,0.96875 -0.625,0 -0.75,-0.53125 -0.75,-0.96875 0,-0.6875 0.34375,-1.640625 0.65625,-2.4375 C 2.75,-3.921875 2.8125,-4.078125 2.8125,-4.3125 c 0,-0.515625 -0.375,-0.953125 -0.953125,-0.953125 -1.09375,0 -1.53125,1.734375 -1.53125,1.828125 0,0.046875 0.046875,0.109375 0.125,0.109375 0.109375,0 0.125,-0.046875 0.171875,-0.21875 0.28125,-1.03125 0.75,-1.484375 1.203125,-1.484375 0.125,0 0.3125,0.015625 0.3125,0.390625 0,0.3125 -0.125,0.65625 -0.3125,1.109375 C 1.296875,-2.109375 1.25,-1.65625 1.25,-1.296875 1.25,-0.078125 2.15625,0.125 2.65625,0.125 c 0.765625,0 1.1875,-0.53125 1.421875,-0.8125 z m 0,0"
             id="path111" />
        </g>
      </g>
      <g
         fill="#000000"
         fill-opacity="1"
         id="g114"
         transform="matrix(0.352778,0,0,0.352778,-0.818841,-0.661238)">
        <g
           id="g113"
           transform="translate(8.6549997,8.9329996)">
          <path
             d="m 2.5,-5.078125 c 0,-0.21875 -0.015625,-0.21875 -0.234375,-0.21875 -0.328125,0.3125 -0.75,0.5 -1.5,0.5 v 0.265625 c 0.21875,0 0.640625,0 1.109375,-0.203125 v 4.078125 c 0,0.296875 -0.03125,0.390625 -0.78125,0.390625 H 0.8125 V 0 c 0.328125,-0.03125 1.015625,-0.03125 1.375,-0.03125 0.359375,0 1.046875,0 1.375,0.03125 V -0.265625 H 3.28125 c -0.75,0 -0.78125,-0.09375 -0.78125,-0.390625 z m 0,0"
             id="path112" />
        </g>
      </g>
    </g>
    <g
       inkscape:label=""
       transform="translate(36.685894,192.48073)"
       id="g120">
      <g
         fill="#000000"
         fill-opacity="1"
         id="g117"
         transform="matrix(0.352778,0,0,0.352778,-0.818841,-0.695193)">
        <g
           id="g116"
           transform="translate(1.993,9.8299999)">
          <path
             d="m 3.375,-1.703125 c 0,-0.0625 -0.046875,-0.109375 -0.109375,-0.109375 -0.109375,0 -0.125,0.03125 -0.1875,0.234375 -0.3125,1.09375 -0.796875,1.453125 -1.1875,1.453125 -0.140625,0 -0.3125,-0.03125 -0.3125,-0.390625 0,-0.328125 0.140625,-0.671875 0.28125,-1.03125 L 2.6875,-3.78125 c 0.03125,-0.09375 0.125,-0.3125 0.125,-0.53125 0,-0.5 -0.359375,-0.953125 -0.953125,-0.953125 -1.09375,0 -1.53125,1.734375 -1.53125,1.828125 0,0.046875 0.046875,0.109375 0.125,0.109375 0.109375,0 0.125,-0.046875 0.171875,-0.21875 0.28125,-1 0.734375,-1.484375 1.203125,-1.484375 0.109375,0 0.3125,0.015625 0.3125,0.390625 0,0.3125 -0.15625,0.703125 -0.25,0.96875 l -0.84375,2.21875 C 0.984375,-1.25 0.90625,-1.0625 0.90625,-0.84375 c 0,0.53125 0.375,0.96875 0.953125,0.96875 1.09375,0 1.515625,-1.75 1.515625,-1.828125 z m -0.09375,-5.75 c 0,-0.1875 -0.140625,-0.40625 -0.40625,-0.40625 -0.265625,0 -0.578125,0.265625 -0.578125,0.578125 0,0.296875 0.25,0.390625 0.390625,0.390625 0.328125,0 0.59375,-0.3125 0.59375,-0.5625 z m 0,0"
             id="path116" />
        </g>
      </g>
      <g
         fill="#000000"
         fill-opacity="1"
         id="g119"
         transform="matrix(0.352778,0,0,0.352778,-0.818841,-0.695193)">
        <g
           id="g118"
           transform="translate(5.9860001,11.623)">
          <path
             d="m 2.5,-5.078125 c 0,-0.21875 -0.015625,-0.21875 -0.234375,-0.21875 -0.328125,0.3125 -0.75,0.5 -1.5,0.5 v 0.265625 c 0.21875,0 0.640625,0 1.109375,-0.203125 v 4.078125 c 0,0.296875 -0.03125,0.390625 -0.78125,0.390625 H 0.8125 V 0 c 0.328125,-0.03125 1.015625,-0.03125 1.375,-0.03125 0.359375,0 1.046875,0 1.375,0.03125 V -0.265625 H 3.28125 c -0.75,0 -0.78125,-0.09375 -0.78125,-0.390625 z m 0,0"
             id="path117" />
        </g>
      </g>
    </g>
    <g
       inkscape:label=""
       transform="translate(84.103864,204.68681)"
       id="g131">
      <g
         fill="#000000"
         fill-opacity="1"
         id="g122"
         transform="matrix(0.352778,0,0,0.352778,-0.896011,-0.707584)">
        <g
           id="g121"
           transform="translate(1.993,10.162)">
          <path
             d="m 8.84375,-6.90625 c 0.140625,-0.515625 0.328125,-0.875 1.234375,-0.90625 0.03125,0 0.171875,-0.015625 0.171875,-0.21875 0,-0.125 -0.109375,-0.125 -0.15625,-0.125 -0.234375,0 -0.84375,0.015625 -1.078125,0.015625 H 8.4375 c -0.171875,0 -0.375,-0.015625 -0.546875,-0.015625 -0.078125,0 -0.21875,0 -0.21875,0.21875 0,0.125 0.09375,0.125 0.1875,0.125 C 8.578125,-7.796875 8.625,-7.515625 8.625,-7.296875 8.625,-7.203125 8.609375,-7.15625 8.578125,-7 L 7.21875,-1.609375 4.65625,-7.953125 C 4.578125,-8.15625 4.5625,-8.15625 4.296875,-8.15625 H 2.84375 c -0.234375,0 -0.34375,0 -0.34375,0.21875 0,0.125 0.078125,0.125 0.3125,0.125 0.0625,0 0.765625,0 0.765625,0.109375 0,0.015625 -0.03125,0.109375 -0.046875,0.15625 L 1.953125,-1.21875 c -0.140625,0.578125 -0.4375,0.84375 -1.21875,0.875 -0.0625,0 -0.1875,0.015625 -0.1875,0.21875 0,0.125 0.125,0.125 0.15625,0.125 0.234375,0 0.84375,-0.03125 1.09375,-0.03125 h 0.5625 C 2.53125,-0.03125 2.734375,0 2.90625,0 2.984375,0 3.125,0 3.125,-0.234375 3.125,-0.328125 3,-0.34375 2.953125,-0.34375 2.5625,-0.359375 2.171875,-0.4375 2.171875,-0.859375 c 0,-0.09375 0.03125,-0.203125 0.046875,-0.296875 l 1.625,-6.390625 c 0.0625,0.109375 0.0625,0.140625 0.109375,0.25 l 2.84375,7.078125 C 6.859375,-0.078125 6.890625,0 7,0 7.109375,0 7.125,-0.03125 7.171875,-0.234375 Z m 0,0"
             id="path121" />
        </g>
      </g>
      <g
         fill="#000000"
         fill-opacity="1"
         id="g124"
         transform="matrix(0.352778,0,0,0.352778,-0.896011,-0.707584)">
        <g
           id="g123"
           transform="translate(11.366,11.955)">
          <path
             d="m 2.5,-5.078125 c 0,-0.21875 -0.015625,-0.21875 -0.234375,-0.21875 -0.328125,0.3125 -0.75,0.5 -1.5,0.5 v 0.265625 c 0.21875,0 0.640625,0 1.109375,-0.203125 v 4.078125 c 0,0.296875 -0.03125,0.390625 -0.78125,0.390625 H 0.8125 V 0 c 0.328125,-0.03125 1.015625,-0.03125 1.375,-0.03125 0.359375,0 1.046875,0 1.375,0.03125 V -0.265625 H 3.28125 c -0.75,0 -0.78125,-0.09375 -0.78125,-0.390625 z m 0,0"
             id="path122" />
        </g>
      </g>
      <g
         fill="#000000"
         fill-opacity="1"
         id="g126"
         transform="matrix(0.352778,0,0,0.352778,-0.896011,-0.707584)">
        <g
           id="g125"
           transform="translate(19.419001,10.162)">
          <path
             d="m 2.203125,-4.578125 c 0,-0.328125 -0.28125,-0.578125 -0.578125,-0.578125 -0.34375,0 -0.578125,0.28125 -0.578125,0.578125 C 1.046875,-4.21875 1.34375,-4 1.609375,-4 1.9375,-4 2.203125,-4.25 2.203125,-4.578125 Z m 0,4 c 0,-0.328125 -0.28125,-0.578125 -0.578125,-0.578125 -0.34375,0 -0.578125,0.265625 -0.578125,0.578125 C 1.046875,-0.234375 1.34375,0 1.609375,0 1.9375,0 2.203125,-0.25 2.203125,-0.578125 Z m 0,0"
             id="path124" />
        </g>
      </g>
      <g
         fill="#000000"
         fill-opacity="1"
         id="g128"
         transform="matrix(0.352778,0,0,0.352778,-0.896011,-0.707584)">
        <g
           id="g127"
           transform="translate(25.992001,10.162)">
          <path
             d="m 8.84375,-6.90625 c 0.140625,-0.515625 0.328125,-0.875 1.234375,-0.90625 0.03125,0 0.171875,-0.015625 0.171875,-0.21875 0,-0.125 -0.109375,-0.125 -0.15625,-0.125 -0.234375,0 -0.84375,0.015625 -1.078125,0.015625 H 8.4375 c -0.171875,0 -0.375,-0.015625 -0.546875,-0.015625 -0.078125,0 -0.21875,0 -0.21875,0.21875 0,0.125 0.09375,0.125 0.1875,0.125 C 8.578125,-7.796875 8.625,-7.515625 8.625,-7.296875 8.625,-7.203125 8.609375,-7.15625 8.578125,-7 L 7.21875,-1.609375 4.65625,-7.953125 C 4.578125,-8.15625 4.5625,-8.15625 4.296875,-8.15625 H 2.84375 c -0.234375,0 -0.34375,0 -0.34375,0.21875 0,0.125 0.078125,0.125 0.3125,0.125 0.0625,0 0.765625,0 0.765625,0.109375 0,0.015625 -0.03125,0.109375 -0.046875,0.15625 L 1.953125,-1.21875 c -0.140625,0.578125 -0.4375,0.84375 -1.21875,0.875 -0.0625,0 -0.1875,0.015625 -0.1875,0.21875 0,0.125 0.125,0.125 0.15625,0.125 0.234375,0 0.84375,-0.03125 1.09375,-0.03125 h 0.5625 C 2.53125,-0.03125 2.734375,0 2.90625,0 2.984375,0 3.125,0 3.125,-0.234375 3.125,-0.328125 3,-0.34375 2.953125,-0.34375 2.5625,-0.359375 2.171875,-0.4375 2.171875,-0.859375 c 0,-0.09375 0.03125,-0.203125 0.046875,-0.296875 l 1.625,-6.390625 c 0.0625,0.109375 0.0625,0.140625 0.109375,0.25 l 2.84375,7.078125 C 6.859375,-0.078125 6.890625,0 7,0 7.109375,0 7.125,-0.03125 7.171875,-0.234375 Z m 0,0"
             id="path12" />
        </g>
      </g>
      <g
         fill="#000000"
         fill-opacity="1"
         id="g130"
         transform="matrix(0.352778,0,0,0.352778,-0.896011,-0.707584)">
        <g
           id="g129"
           transform="translate(35.366001,11.955)">
          <path
             d="m 2.25,-1.625 c 0.125,-0.125 0.453125,-0.390625 0.59375,-0.5 0.484375,-0.453125 0.953125,-0.890625 0.953125,-1.609375 0,-0.953125 -0.796875,-1.5625 -1.78125,-1.5625 -0.96875,0 -1.59375,0.71875 -1.59375,1.4375 0,0.390625 0.3125,0.4375 0.421875,0.4375 0.171875,0 0.421875,-0.109375 0.421875,-0.421875 0,-0.40625 -0.40625,-0.40625 -0.5,-0.40625 C 1,-4.84375 1.53125,-5.03125 1.921875,-5.03125 c 0.734375,0 1.125,0.625 1.125,1.296875 0,0.828125 -0.578125,1.4375 -1.53125,2.390625 l -1,1.046875 C 0.421875,-0.21875 0.421875,-0.203125 0.421875,0 H 3.5625 l 0.234375,-1.421875 h -0.25 C 3.53125,-1.265625 3.46875,-0.875 3.375,-0.71875 c -0.046875,0.0625 -0.65625,0.0625 -0.78125,0.0625 H 1.171875 Z m 0,0"
             id="path13" />
        </g>
      </g>
    </g>
    <ellipse
       ry="0.39901915"
       rx="0.40116644"
       cy="197.0378"
       cx="54.040791"
       id="path5953-3-9-9"
       style="fill:#000000;fill-opacity:1;stroke:#000000;stroke-width:0.256;stroke-linecap:round;stroke-linejoin:round;stroke-miterlimit:4;stroke-dasharray:none;stroke-dashoffset:0;stroke-opacity:1;paint-order:normal" />
  </g>
  <g
     inkscape:label=""
     transform="translate(41.760115,11.576184)"
     id="g132">
    <g
       fill="#000000"
       fill-opacity="1"
       id="g106"
       transform="matrix(0.352778,0,0,0.352778,-0.818841,-0.694223)">
      <g
         id="g105"
         transform="translate(1.993,10.759)">
        <path
           d="M 4.078125,-0.6875 C 4.234375,-0.03125 4.8125,0.125 5.09375,0.125 c 0.375,0 0.671875,-0.25 0.859375,-0.65625 0.203125,-0.4375 0.359375,-1.140625 0.359375,-1.171875 0,-0.0625 -0.046875,-0.109375 -0.125,-0.109375 -0.109375,0 -0.109375,0.0625 -0.15625,0.234375 C 5.8125,-0.75 5.59375,-0.125 5.109375,-0.125 4.75,-0.125 4.75,-0.515625 4.75,-0.671875 4.75,-0.9375 4.796875,-1.0625 4.90625,-1.5625 5,-1.890625 5.078125,-2.21875 5.15625,-2.546875 L 5.640625,-4.5 C 5.71875,-4.796875 5.71875,-4.8125 5.71875,-4.859375 c 0,-0.171875 -0.140625,-0.296875 -0.3125,-0.296875 -0.34375,0 -0.4375,0.296875 -0.5,0.609375 -0.125,0.453125 -0.765625,3.03125 -0.859375,3.453125 0,0 -0.46875,0.96875 -1.34375,0.96875 -0.625,0 -0.75,-0.53125 -0.75,-0.96875 0,-0.6875 0.34375,-1.640625 0.65625,-2.4375 C 2.75,-3.921875 2.8125,-4.078125 2.8125,-4.3125 c 0,-0.515625 -0.375,-0.953125 -0.953125,-0.953125 -1.09375,0 -1.53125,1.734375 -1.53125,1.828125 0,0.046875 0.046875,0.109375 0.125,0.109375 0.109375,0 0.125,-0.046875 0.171875,-0.21875 0.28125,-1.03125 0.75,-1.484375 1.203125,-1.484375 0.125,0 0.3125,0.015625 0.3125,0.390625 0,0.3125 -0.125,0.65625 -0.3125,1.109375 C 1.296875,-2.109375 1.25,-1.65625 1.25,-1.296875 1.25,-0.078125 2.15625,0.125 2.65625,0.125 c 0.765625,0 1.1875,-0.53125 1.421875,-0.8125 z m 0,0"
           id="path105" />
      </g>
    </g>
    <g
       fill="#000000"
       fill-opacity="1"
       id="g108"
       transform="matrix(0.352778,0,0,0.352778,-0.818841,-0.694223)">
      <g
         id="g107"
         transform="translate(8.6549997,6.421)">
        <path
           d="M 2.109375,-3.78125 C 2.15625,-3.875 2.1875,-3.9375 2.1875,-4.015625 c 0,-0.265625 -0.25,-0.4375 -0.46875,-0.4375 -0.3125,0 -0.40625,0.28125 -0.4375,0.390625 L 0.265625,-0.625 c -0.03125,0.09375 -0.03125,0.109375 -0.03125,0.125 0,0.0625 0.046875,0.078125 0.125,0.109375 0.15625,0.0625 0.171875,0.0625 0.1875,0.0625 0.015625,0 0.0625,0 0.125,-0.140625 z m 0,0"
           id="path106" />
      </g>
    </g>
    <g
       fill="#000000"
       fill-opacity="1"
       id="g110"
       transform="matrix(0.352778,0,0,0.352778,-0.818841,-0.694223)">
      <g
         id="g109"
         transform="translate(8.6549997,13.714)">
        <path
           d="m 2.25,-1.625 c 0.125,-0.125 0.453125,-0.390625 0.59375,-0.5 0.484375,-0.453125 0.953125,-0.890625 0.953125,-1.609375 0,-0.953125 -0.796875,-1.5625 -1.78125,-1.5625 -0.96875,0 -1.59375,0.71875 -1.59375,1.4375 0,0.390625 0.3125,0.4375 0.421875,0.4375 0.171875,0 0.421875,-0.109375 0.421875,-0.421875 0,-0.40625 -0.40625,-0.40625 -0.5,-0.40625 C 1,-4.84375 1.53125,-5.03125 1.921875,-5.03125 c 0.734375,0 1.125,0.625 1.125,1.296875 0,0.828125 -0.578125,1.4375 -1.53125,2.390625 l -1,1.046875 C 0.421875,-0.21875 0.421875,-0.203125 0.421875,0 H 3.5625 l 0.234375,-1.421875 h -0.25 C 3.53125,-1.265625 3.46875,-0.875 3.375,-0.71875 c -0.046875,0.0625 -0.65625,0.0625 -0.78125,0.0625 H 1.171875 Z m 0,0"
           id="path108" />
      </g>
    </g>
  </g>
</svg>
