<?xml version="1.0" encoding="UTF-8" standalone="no"?>
<!-- Created with Inkscape (http://www.inkscape.org/) -->

<svg
   width="90mm"
   height="40mm"
   viewBox="0 0 90 40"
   version="1.1"
   id="svg1"
   inkscape:version="1.3.2 (091e20e, 2023-11-25, custom)"
   sodipodi:docname="vectorDiagram_IM.svg"
   xmlns:inkscape="http://www.inkscape.org/namespaces/inkscape"
   xmlns:sodipodi="http://sodipodi.sourceforge.net/DTD/sodipodi-0.dtd"
   xmlns="http://www.w3.org/2000/svg"
   xmlns:svg="http://www.w3.org/2000/svg">
  <sodipodi:namedview
     id="namedview1"
     pagecolor="#ffffff"
     bordercolor="#000000"
     borderopacity="0.25"
     inkscape:showpageshadow="2"
     inkscape:pageopacity="0.0"
     inkscape:pagecheckerboard="0"
     inkscape:deskcolor="#d1d1d1"
     inkscape:document-units="mm"
     showgrid="true"
     inkscape:zoom="5.911246"
     inkscape:cx="142.86328"
     inkscape:cy="51.850321"
     inkscape:window-width="1920"
     inkscape:window-height="1057"
     inkscape:window-x="3832"
     inkscape:window-y="49"
     inkscape:window-maximized="1"
     inkscape:current-layer="layer1">
    <inkscape:grid
       id="grid1"
       units="mm"
       originx="0"
       originy="0"
       spacingx="1"
       spacingy="0.99999999"
       empcolor="#0099e5"
       empopacity="0.30196078"
       color="#0099e5"
       opacity="0.14901961"
       empspacing="5"
       dotted="false"
       gridanglex="30"
       gridanglez="30"
       visible="true" />
  </sodipodi:namedview>
  <defs
     id="defs1">
    <marker
       style="overflow:visible"
       id="Triangle"
       refX="0"
       refY="0"
       orient="auto-start-reverse"
       inkscape:stockid="Triangle arrow"
       markerWidth="1"
       markerHeight="1"
       viewBox="0 0 1 1"
       inkscape:isstock="true"
       inkscape:collect="always"
       preserveAspectRatio="xMidYMid">
      <path
         transform="scale(0.5)"
         style="fill:context-stroke;fill-rule:evenodd;stroke:context-stroke;stroke-width:1pt"
         d="M 5.77,0 -2.88,5 V -5 Z"
         id="path135" />
    </marker>
    <marker
       style="overflow:visible"
       id="Triangle-4"
       refX="0"
       refY="0"
       orient="auto-start-reverse"
       inkscape:stockid="Triangle arrow"
       markerWidth="1"
       markerHeight="1"
       viewBox="0 0 1 1"
       inkscape:isstock="true"
       inkscape:collect="always"
       preserveAspectRatio="xMidYMid">
      <path
         transform="scale(0.5)"
         style="fill:context-stroke;fill-rule:evenodd;stroke:context-stroke;stroke-width:1pt"
         d="M 5.77,0 -2.88,5 V -5 Z"
         id="path135-6" />
    </marker>
  </defs>
  <g
     inkscape:label="Ebene 1"
     inkscape:groupmode="layer"
     id="layer1">
    <path
       style="fill:none;stroke:#0000ff;stroke-width:0.25;stroke-opacity:1;marker-end:url(#Triangle)"
       d="M 9.9999998,25 33.868657,5.2190204"
       id="path2" />
    <g
       inkscape:label=""
       transform="translate(79.481568,20.131379)"
       id="g8"
       style="stroke:none;stroke-opacity:1">
      <g
         fill="#000000"
         fill-opacity="1"
         id="g3"
         transform="matrix(0.352778,0,0,0.352778,-0.702799,-0.695193)"
         style="stroke:none;stroke-opacity:1">
        <g
           id="use2"
           transform="translate(1.993,9.8299999)"
           style="stroke:none;stroke-opacity:1">
          <path
             d="m 3.375,-1.703125 c 0,-0.0625 -0.046875,-0.109375 -0.109375,-0.109375 -0.109375,0 -0.125,0.03125 -0.1875,0.234375 -0.3125,1.09375 -0.796875,1.453125 -1.1875,1.453125 -0.140625,0 -0.3125,-0.03125 -0.3125,-0.390625 0,-0.328125 0.140625,-0.671875 0.28125,-1.03125 L 2.6875,-3.78125 c 0.03125,-0.09375 0.125,-0.3125 0.125,-0.53125 0,-0.5 -0.359375,-0.953125 -0.953125,-0.953125 -1.09375,0 -1.53125,1.734375 -1.53125,1.828125 0,0.046875 0.046875,0.109375 0.125,0.109375 0.109375,0 0.125,-0.046875 0.171875,-0.21875 0.28125,-1 0.734375,-1.484375 1.203125,-1.484375 0.109375,0 0.3125,0.015625 0.3125,0.390625 0,0.3125 -0.15625,0.703125 -0.25,0.96875 l -0.84375,2.21875 C 0.984375,-1.25 0.90625,-1.0625 0.90625,-0.84375 c 0,0.53125 0.375,0.96875 0.953125,0.96875 1.09375,0 1.515625,-1.75 1.515625,-1.828125 z m -0.09375,-5.75 c 0,-0.1875 -0.140625,-0.40625 -0.40625,-0.40625 -0.265625,0 -0.578125,0.265625 -0.578125,0.578125 0,0.296875 0.25,0.390625 0.390625,0.390625 0.328125,0 0.59375,-0.3125 0.59375,-0.5625 z m 0,0"
             id="path6"
             style="stroke:none;stroke-opacity:1" />
        </g>
      </g>
      <path
         fill="none"
         stroke-width="0.478"
         stroke-linecap="butt"
         stroke-linejoin="miter"
         stroke="#000000"
         stroke-opacity="1"
         stroke-miterlimit="10"
         d="M 0,9.5332813 H 3.9921875"
         id="path7"
         transform="scale(0.352778)"
         style="stroke:none;stroke-opacity:1" />
      <g
         fill="#000000"
         fill-opacity="1"
         id="g4"
         transform="matrix(0.352778,0,0,0.352778,-0.702799,-0.695193)"
         style="stroke:none;stroke-opacity:1">
        <g
           id="use3"
           transform="translate(5.9860001,12.719)"
           style="stroke:none;stroke-opacity:1">
          <path
             d="m 2.84375,-3.34375 c 0,-0.125 0,-0.203125 -0.109375,-0.203125 -0.046875,0 -0.0625,0 -0.1875,0.125 -0.015625,0 -0.09375,0.078125 -0.109375,0.078125 -0.015625,0 -0.03125,0 -0.078125,-0.03125 C 2.234375,-3.46875 2,-3.546875 1.640625,-3.546875 c -1.109375,0 -1.359375,0.59375 -1.359375,0.984375 0,0.390625 0.296875,0.625 0.3125,0.65625 0.328125,0.234375 0.5,0.265625 1.046875,0.359375 0.375,0.078125 0.984375,0.1875 0.984375,0.71875 0,0.3125 -0.203125,0.6875 -0.9375,0.6875 -0.8125,0 -1.046875,-0.625 -1.140625,-1.046875 C 0.515625,-1.296875 0.5,-1.328125 0.40625,-1.328125 c -0.125,0 -0.125,0.0625 -0.125,0.21875 V -0.125 c 0,0.125 0,0.203125 0.09375,0.203125 0.0625,0 0.0625,0 0.203125,-0.15625 C 0.625,-0.125 0.703125,-0.21875 0.75,-0.265625 c 0.359375,0.328125 0.734375,0.34375 0.9375,0.34375 1.015625,0 1.359375,-0.578125 1.359375,-1.109375 0,-0.375 -0.21875,-0.9375 -1.171875,-1.109375 -0.0625,-0.015625 -0.515625,-0.09375 -0.546875,-0.09375 -0.25,-0.0625 -0.625,-0.234375 -0.625,-0.546875 0,-0.234375 0.1875,-0.578125 0.9375,-0.578125 0.890625,0 0.9375,0.65625 0.953125,0.875 0,0.0625 0.0625,0.09375 0.109375,0.09375 0.140625,0 0.140625,-0.0625 0.140625,-0.203125 z m 0,0"
             id="path8"
             style="stroke:none;stroke-opacity:1" />
        </g>
      </g>
    </g>
    <g
       inkscape:label=""
       transform="translate(34.487845,6.9593564)"
       id="g13">
      <g
         fill="#000000"
         fill-opacity="1"
         id="g10"
         transform="matrix(0.352778,0,0,0.352778,-0.702799,-0.660885)">
        <g
           id="g9"
           transform="translate(1.993,7.1389999)">
          <path
             d="M 4.078125,-0.6875 C 4.234375,-0.03125 4.8125,0.125 5.09375,0.125 c 0.375,0 0.671875,-0.25 0.859375,-0.65625 0.203125,-0.4375 0.359375,-1.140625 0.359375,-1.171875 0,-0.0625 -0.046875,-0.109375 -0.125,-0.109375 -0.109375,0 -0.109375,0.0625 -0.15625,0.234375 C 5.8125,-0.75 5.59375,-0.125 5.109375,-0.125 4.75,-0.125 4.75,-0.515625 4.75,-0.671875 4.75,-0.9375 4.796875,-1.0625 4.90625,-1.5625 5,-1.890625 5.078125,-2.21875 5.15625,-2.546875 L 5.640625,-4.5 C 5.71875,-4.796875 5.71875,-4.8125 5.71875,-4.859375 c 0,-0.171875 -0.140625,-0.296875 -0.3125,-0.296875 -0.34375,0 -0.4375,0.296875 -0.5,0.609375 -0.125,0.453125 -0.765625,3.03125 -0.859375,3.453125 0,0 -0.46875,0.96875 -1.34375,0.96875 -0.625,0 -0.75,-0.53125 -0.75,-0.96875 0,-0.6875 0.34375,-1.640625 0.65625,-2.4375 C 2.75,-3.921875 2.8125,-4.078125 2.8125,-4.3125 c 0,-0.515625 -0.375,-0.953125 -0.953125,-0.953125 -1.09375,0 -1.53125,1.734375 -1.53125,1.828125 0,0.046875 0.046875,0.109375 0.125,0.109375 0.109375,0 0.125,-0.046875 0.171875,-0.21875 0.28125,-1.03125 0.75,-1.484375 1.203125,-1.484375 0.125,0 0.3125,0.015625 0.3125,0.390625 0,0.3125 -0.125,0.65625 -0.3125,1.109375 C 1.296875,-2.109375 1.25,-1.65625 1.25,-1.296875 1.25,-0.078125 2.15625,0.125 2.65625,0.125 c 0.765625,0 1.1875,-0.53125 1.421875,-0.8125 z m 0,0"
             id="path9" />
        </g>
      </g>
      <path
         fill="none"
         stroke-width="0.478"
         stroke-linecap="butt"
         stroke-linejoin="miter"
         stroke="#000000"
         stroke-opacity="1"
         stroke-miterlimit="10"
         d="M 0,6.9391251 H 6.6640625"
         id="path10"
         transform="scale(0.352778)" />
      <g
         fill="#000000"
         fill-opacity="1"
         id="g12"
         transform="matrix(0.352778,0,0,0.352778,-0.702799,-0.660885)">
        <g
           id="g11"
           transform="translate(8.6549997,10.028)">
          <path
             d="m 2.84375,-3.34375 c 0,-0.125 0,-0.203125 -0.109375,-0.203125 -0.046875,0 -0.0625,0 -0.1875,0.125 -0.015625,0 -0.09375,0.078125 -0.109375,0.078125 -0.015625,0 -0.03125,0 -0.078125,-0.03125 C 2.234375,-3.46875 2,-3.546875 1.640625,-3.546875 c -1.109375,0 -1.359375,0.59375 -1.359375,0.984375 0,0.390625 0.296875,0.625 0.3125,0.65625 0.328125,0.234375 0.5,0.265625 1.046875,0.359375 0.375,0.078125 0.984375,0.1875 0.984375,0.71875 0,0.3125 -0.203125,0.6875 -0.9375,0.6875 -0.8125,0 -1.046875,-0.625 -1.140625,-1.046875 C 0.515625,-1.296875 0.5,-1.328125 0.40625,-1.328125 c -0.125,0 -0.125,0.0625 -0.125,0.21875 V -0.125 c 0,0.125 0,0.203125 0.09375,0.203125 0.0625,0 0.0625,0 0.203125,-0.15625 C 0.625,-0.125 0.703125,-0.21875 0.75,-0.265625 c 0.359375,0.328125 0.734375,0.34375 0.9375,0.34375 1.015625,0 1.359375,-0.578125 1.359375,-1.109375 0,-0.375 -0.21875,-0.9375 -1.171875,-1.109375 -0.0625,-0.015625 -0.515625,-0.09375 -0.546875,-0.09375 -0.25,-0.0625 -0.625,-0.234375 -0.625,-0.546875 0,-0.234375 0.1875,-0.578125 0.9375,-0.578125 0.890625,0 0.9375,0.65625 0.953125,0.875 0,0.0625 0.0625,0.09375 0.109375,0.09375 0.140625,0 0.140625,-0.0625 0.140625,-0.203125 z m 0,0"
             id="path11" />
        </g>
      </g>
    </g>
    <g
       inkscape:label=""
       transform="translate(18.709867,31.117142)"
       id="g18">
      <g
         fill="#000000"
         fill-opacity="1"
         id="g15"
         transform="matrix(0.352778,0,0,0.352778,-0.702799,-0.704894)">
        <g
           id="g14"
           transform="translate(1.993,10.295)">
          <path
             d="m 5.625,-8.015625 c 0,0 0.046875,-0.15625 0.046875,-0.171875 0,-0.109375 -0.109375,-0.109375 -0.140625,-0.109375 -0.109375,0 -0.109375,0.0625 -0.171875,0.234375 l -1.96875,7.921875 c -0.984375,-0.125 -1.359375,-0.625 -1.359375,-1.34375 0,-0.265625 0,-0.53125 0.5625,-2.015625 C 2.75,-3.9375 2.8125,-4.09375 2.8125,-4.296875 c 0,-0.546875 -0.390625,-0.96875 -0.953125,-0.96875 -1.09375,0 -1.53125,1.734375 -1.53125,1.828125 0,0.046875 0.046875,0.109375 0.125,0.109375 0.109375,0 0.125,-0.046875 0.171875,-0.21875 0.28125,-1.046875 0.765625,-1.484375 1.203125,-1.484375 0.109375,0 0.3125,0.015625 0.3125,0.390625 0,0.046875 0,0.3125 -0.203125,0.84375 -0.640625,1.6875 -0.640625,1.953125 -0.640625,2.234375 0,1.140625 0.953125,1.59375 2.03125,1.671875 -0.09375,0.375 -0.1875,0.75 -0.28125,1.125 -0.1875,0.71875 -0.28125,1.046875 -0.28125,1.09375 0,0.109375 0.109375,0.109375 0.140625,0.109375 0.015625,0 0.0625,0 0.09375,-0.046875 C 3.046875,2.34375 3.53125,0.328125 3.578125,0.125 c 0.453125,0 1.390625,0 2.46875,-1.109375 0.390625,-0.4375 0.75,-0.984375 0.953125,-1.5 0.125,-0.3125 0.40625,-1.375 0.40625,-1.984375 0,-0.71875 -0.359375,-0.796875 -0.46875,-0.796875 -0.296875,0 -0.546875,0.28125 -0.546875,0.515625 0,0.140625 0.078125,0.234375 0.125,0.28125 0.109375,0.109375 0.421875,0.421875 0.421875,1.046875 0,0.4375 -0.234375,1.3125 -1,2.171875 -1,1.125 -1.921875,1.125 -2.28125,1.125 z m 0,0"
             id="path13" />
        </g>
      </g>
      <path
         fill="none"
         stroke-width="0.478"
         stroke-linecap="butt"
         stroke-linejoin="miter"
         stroke="#000000"
         stroke-opacity="1"
         stroke-miterlimit="10"
         d="M 0,12.294844 H 8.0390625"
         id="path15"
         transform="scale(0.352778)" />
      <g
         fill="#000000"
         fill-opacity="1"
         id="g17"
         transform="matrix(0.352778,0,0,0.352778,-0.702799,-0.704894)">
        <g
           id="g16"
           transform="translate(10.032,15.508)">
          <path
             d="m 2.84375,-3.34375 c 0,-0.125 0,-0.203125 -0.109375,-0.203125 -0.046875,0 -0.0625,0 -0.1875,0.125 -0.015625,0 -0.09375,0.078125 -0.109375,0.078125 -0.015625,0 -0.03125,0 -0.078125,-0.03125 C 2.234375,-3.46875 2,-3.546875 1.640625,-3.546875 c -1.109375,0 -1.359375,0.59375 -1.359375,0.984375 0,0.390625 0.296875,0.625 0.3125,0.65625 0.328125,0.234375 0.5,0.265625 1.046875,0.359375 0.375,0.078125 0.984375,0.1875 0.984375,0.71875 0,0.3125 -0.203125,0.6875 -0.9375,0.6875 -0.8125,0 -1.046875,-0.625 -1.140625,-1.046875 C 0.515625,-1.296875 0.5,-1.328125 0.40625,-1.328125 c -0.125,0 -0.125,0.0625 -0.125,0.21875 V -0.125 c 0,0.125 0,0.203125 0.09375,0.203125 0.0625,0 0.0625,0 0.203125,-0.15625 C 0.625,-0.125 0.703125,-0.21875 0.75,-0.265625 c 0.359375,0.328125 0.734375,0.34375 0.9375,0.34375 1.015625,0 1.359375,-0.578125 1.359375,-1.109375 0,-0.375 -0.21875,-0.9375 -1.171875,-1.109375 -0.0625,-0.015625 -0.515625,-0.09375 -0.546875,-0.09375 -0.25,-0.0625 -0.625,-0.234375 -0.625,-0.546875 0,-0.234375 0.1875,-0.578125 0.9375,-0.578125 0.890625,0 0.9375,0.65625 0.953125,0.875 0,0.0625 0.0625,0.09375 0.109375,0.09375 0.140625,0 0.140625,-0.0625 0.140625,-0.203125 z m 0,0"
             id="path16" />
        </g>
      </g>
    </g>
    <g
       inkscape:label=""
       transform="translate(15.803574,8.1309069)"
       id="g22">
      <g
         fill="#000000"
         fill-opacity="1"
         id="g20"
         transform="matrix(0.352778,0,0,0.352778,-0.702799,-0.696339)">
        <g
           id="g19"
           transform="translate(5.6869998,9.927)">
          <path
             d="m 2.203125,-7.359375 c 0,-0.359375 -0.296875,-0.59375 -0.578125,-0.59375 -0.328125,0 -0.578125,0.265625 -0.578125,0.59375 0,0.3125 0.25,0.5625 0.5625,0.5625 0.359375,0 0.59375,-0.28125 0.59375,-0.5625 z m 0,0"
             id="path18" />
        </g>
      </g>
      <g
         fill="#000000"
         fill-opacity="1"
         id="g5"
         transform="matrix(0.352778,0,0,0.352778,-0.702799,-0.696339)">
        <g
           id="use4"
           transform="translate(1.993,13.082)">
          <path
             d="m 5.625,-8.015625 c 0,0 0.046875,-0.15625 0.046875,-0.171875 0,-0.109375 -0.109375,-0.109375 -0.140625,-0.109375 -0.109375,0 -0.109375,0.0625 -0.171875,0.234375 l -1.96875,7.921875 c -0.984375,-0.125 -1.359375,-0.625 -1.359375,-1.34375 0,-0.265625 0,-0.53125 0.5625,-2.015625 C 2.75,-3.9375 2.8125,-4.09375 2.8125,-4.296875 c 0,-0.546875 -0.390625,-0.96875 -0.953125,-0.96875 -1.09375,0 -1.53125,1.734375 -1.53125,1.828125 0,0.046875 0.046875,0.109375 0.125,0.109375 0.109375,0 0.125,-0.046875 0.171875,-0.21875 0.28125,-1.046875 0.765625,-1.484375 1.203125,-1.484375 0.109375,0 0.3125,0.015625 0.3125,0.390625 0,0.046875 0,0.3125 -0.203125,0.84375 -0.640625,1.6875 -0.640625,1.953125 -0.640625,2.234375 0,1.140625 0.953125,1.59375 2.03125,1.671875 -0.09375,0.375 -0.1875,0.75 -0.28125,1.125 -0.1875,0.71875 -0.28125,1.046875 -0.28125,1.09375 0,0.109375 0.109375,0.109375 0.140625,0.109375 0.015625,0 0.0625,0 0.09375,-0.046875 C 3.046875,2.34375 3.53125,0.328125 3.578125,0.125 c 0.453125,0 1.390625,0 2.46875,-1.109375 0.390625,-0.4375 0.75,-0.984375 0.953125,-1.5 0.125,-0.3125 0.40625,-1.375 0.40625,-1.984375 0,-0.71875 -0.359375,-0.796875 -0.46875,-0.796875 -0.296875,0 -0.546875,0.28125 -0.546875,0.515625 0,0.140625 0.078125,0.234375 0.125,0.28125 0.109375,0.109375 0.421875,0.421875 0.421875,1.046875 0,0.4375 -0.234375,1.3125 -1,2.171875 -1,1.125 -1.921875,1.125 -2.28125,1.125 z m 0,0"
             id="path20" />
        </g>
      </g>
      <path
         fill="none"
         stroke-width="0.478"
         stroke-linecap="butt"
         stroke-linejoin="miter"
         stroke="#000000"
         stroke-opacity="1"
         stroke-miterlimit="10"
         d="M 0,15.10425 H 8.0390625"
         id="path21"
         transform="scale(0.352778)" />
      <g
         fill="#000000"
         fill-opacity="1"
         id="g6"
         transform="matrix(0.352778,0,0,0.352778,-0.702799,-0.696339)">
        <g
           id="use5"
           transform="translate(10.032,18.295)">
          <path
             d="m 2.84375,-3.34375 c 0,-0.125 0,-0.203125 -0.109375,-0.203125 -0.046875,0 -0.0625,0 -0.1875,0.125 -0.015625,0 -0.09375,0.078125 -0.109375,0.078125 -0.015625,0 -0.03125,0 -0.078125,-0.03125 C 2.234375,-3.46875 2,-3.546875 1.640625,-3.546875 c -1.109375,0 -1.359375,0.59375 -1.359375,0.984375 0,0.390625 0.296875,0.625 0.3125,0.65625 0.328125,0.234375 0.5,0.265625 1.046875,0.359375 0.375,0.078125 0.984375,0.1875 0.984375,0.71875 0,0.3125 -0.203125,0.6875 -0.9375,0.6875 -0.8125,0 -1.046875,-0.625 -1.140625,-1.046875 C 0.515625,-1.296875 0.5,-1.328125 0.40625,-1.328125 c -0.125,0 -0.125,0.0625 -0.125,0.21875 V -0.125 c 0,0.125 0,0.203125 0.09375,0.203125 0.0625,0 0.0625,0 0.203125,-0.15625 C 0.625,-0.125 0.703125,-0.21875 0.75,-0.265625 c 0.359375,0.328125 0.734375,0.34375 0.9375,0.34375 1.015625,0 1.359375,-0.578125 1.359375,-1.109375 0,-0.375 -0.21875,-0.9375 -1.171875,-1.109375 -0.0625,-0.015625 -0.515625,-0.09375 -0.546875,-0.09375 -0.25,-0.0625 -0.625,-0.234375 -0.625,-0.546875 0,-0.234375 0.1875,-0.578125 0.9375,-0.578125 0.890625,0 0.9375,0.65625 0.953125,0.875 0,0.0625 0.0625,0.09375 0.109375,0.09375 0.140625,0 0.140625,-0.0625 0.140625,-0.203125 z m 0,0"
             id="path22" />
        </g>
      </g>
    </g>
    <path
       style="fill:#0000ff;fill-rule:evenodd;stroke:#000000;stroke-width:0.25;marker-start:url(#Triangle);stroke-opacity:1"
       d="M 9.9999997,1 V 38"
       id="path12" />
    <path
       style="fill:#0000ff;fill-rule:evenodd;stroke:#000000;stroke-width:0.249999;stroke-opacity:1;marker-start:url(#Triangle-4)"
       d="M 88.111044,25.000001 H 4.9999999"
       id="path12-8" />
    <path
       style="fill:none;stroke:#ff0001;stroke-width:0.25;stroke-opacity:1;marker-end:url(#Triangle)"
       d="M 9.9999998,25 H 86"
       id="path1" />
    <g
       inkscape:label=""
       transform="translate(85.199822,27.552603)"
       id="g25">
      <g
         fill="#000000"
         fill-opacity="1"
         id="g24"
         transform="matrix(0.352778,0,0,0.352778,-0.879475,-0.707231)">
        <g
           id="g21"
           transform="translate(1.993,10.161)">
          <path
             d="m 5.046875,-4.0625 c 1.1875,-0.28125 2.09375,-1.03125 2.09375,-1.953125 0,-1.15625 -1.34375,-2.140625 -3.0625,-2.140625 H 0.5 v 0.34375 h 0.234375 c 0.875,0 0.90625,0.109375 0.90625,0.5625 v 6.34375 c 0,0.4375 -0.03125,0.5625 -0.90625,0.5625 H 0.5 V 0 c 0.28125,-0.03125 1.25,-0.03125 1.609375,-0.03125 0.34375,0 1.328125,0 1.609375,0.03125 V -0.34375 H 3.484375 c -0.859375,0 -0.90625,-0.125 -0.90625,-0.5625 v -3.0625 H 3.96875 c 0.46875,0 0.90625,0.125 1.234375,0.46875 0.40625,0.453125 0.40625,0.703125 0.40625,1.53125 0,0.9375 0,1.25 0.515625,1.765625 C 6.3125,-0.03125 6.8125,0.25 7.484375,0.25 c 0.9375,0 1.09375,-1.03125 1.09375,-1.296875 0,-0.0625 0,-0.171875 -0.140625,-0.171875 -0.125,0 -0.125,0.078125 -0.125,0.1875 C 8.25,-0.3125 7.90625,0.015625 7.515625,0.015625 6.96875,0.015625 6.84375,-0.546875 6.75,-1.1875 6.734375,-1.265625 6.671875,-1.78125 6.640625,-2.078125 6.546875,-2.671875 6.5,-3.0625 6.140625,-3.4375 c -0.125,-0.125 -0.4375,-0.453125 -1.09375,-0.625 z m -1.125,-0.140625 H 2.578125 V -7.34375 c 0,-0.265625 0,-0.40625 0.25,-0.46875 0.109375,0 0.46875,0 0.703125,0 0.96875,0 2.5,0 2.5,1.796875 0,1.046875 -0.5625,1.8125 -2.109375,1.8125 z m 0,0"
             id="path14" />
        </g>
        <g
           id="g23"
           transform="translate(10.607917,10.161)">
          <path
             d="m 4.578125,-2.765625 c 0.265625,0 0.28125,0 0.28125,-0.234375 0,-1.203125 -0.640625,-2.328125 -2.09375,-2.328125 -1.359375,0 -2.40625,1.234375 -2.40625,2.703125 0,1.578125 1.21875,2.75 2.546875,2.75 1.421875,0 1.953125,-1.296875 1.953125,-1.546875 0,-0.078125 -0.046875,-0.125 -0.125,-0.125 -0.09375,0 -0.125,0.0625 -0.140625,0.125 -0.3125,1 -1.109375,1.28125 -1.625,1.28125 -0.5,0 -1.703125,-0.34375 -1.703125,-2.40625 v -0.21875 z M 1.28125,-3 c 0.09375,-1.875 1.140625,-2.09375 1.484375,-2.09375 1.28125,0 1.34375,1.6875 1.359375,2.09375 z m 0,0"
             id="path23" />
        </g>
      </g>
    </g>
    <g
       inkscape:label=""
       transform="translate(11.074906,0.13367814)"
       id="g29">
      <g
         fill="#000000"
         fill-opacity="1"
         id="g28"
         transform="matrix(0.352778,0,0,0.352778,-0.857426,-0.707231)">
        <g
           id="g26"
           transform="translate(1.993,10.161)">
          <path
             d="m 2.59375,-7.25 c 0,-0.453125 0.03125,-0.5625 0.9375,-0.5625 H 3.796875 V -8.15625 C 3.5,-8.140625 2.46875,-8.140625 2.109375,-8.140625 c -0.359375,0 -1.390625,0 -1.671875,-0.015625 v 0.34375 h 0.25 c 0.90625,0 0.9375,0.109375 0.9375,0.5625 v 6.34375 c 0,0.4375 -0.03125,0.5625 -0.9375,0.5625 h -0.25 V 0 c 0.28125,-0.03125 1.3125,-0.03125 1.671875,-0.03125 0.359375,0 1.390625,0 1.6875,0.03125 V -0.34375 H 3.53125 c -0.90625,0 -0.9375,-0.125 -0.9375,-0.5625 z m 0,0"
             id="path25" />
        </g>
        <g
           id="g27"
           transform="translate(6.2155771,10.161)">
          <path
             d="m 8.578125,-2.90625 c 0,-1.109375 0,-1.4375 -0.28125,-1.828125 -0.34375,-0.46875 -0.90625,-0.53125 -1.3125,-0.53125 -1,0 -1.5,0.71875 -1.6875,1.171875 -0.171875,-0.921875 -0.8125,-1.171875 -1.5625,-1.171875 -1.171875,0 -1.625,0.984375 -1.71875,1.21875 v -1.21875 l -1.640625,0.125 v 0.34375 c 0.8125,0 0.921875,0.09375 0.921875,0.671875 v 3.234375 c 0,0.546875 -0.140625,0.546875 -0.921875,0.546875 V 0 c 0.3125,-0.03125 0.96875,-0.03125 1.296875,-0.03125 0.34375,0 1,0 1.296875,0.03125 v -0.34375 c -0.75,0 -0.90625,0 -0.90625,-0.546875 v -2.21875 c 0,-1.25 0.828125,-1.921875 1.578125,-1.921875 0.734375,0 0.90625,0.609375 0.90625,1.34375 v 2.796875 c 0,0.546875 -0.140625,0.546875 -0.90625,0.546875 V 0 c 0.296875,-0.03125 0.953125,-0.03125 1.28125,-0.03125 0.34375,0 1,0 1.3125,0.03125 v -0.34375 c -0.765625,0 -0.921875,0 -0.921875,-0.546875 v -2.21875 c 0,-1.25 0.828125,-1.921875 1.578125,-1.921875 0.734375,0 0.90625,0.609375 0.90625,1.34375 v 2.796875 c 0,0.546875 -0.140625,0.546875 -0.90625,0.546875 V 0 c 0.3125,-0.03125 0.953125,-0.03125 1.28125,-0.03125 0.34375,0 1,0 1.3125,0.03125 v -0.34375 c -0.609375,0 -0.90625,0 -0.90625,-0.359375 z m 0,0"
             id="path26" />
        </g>
      </g>
    </g>
    <path
       style="fill:none;stroke:#010001;stroke-width:0.25;stroke-dasharray:1.5, 1.5;stroke-dashoffset:0;stroke-opacity:1;marker-end:url(#Triangle)"
       d="M 9.9999998,25 30.219576,5.1995267"
       id="path1-5" />
    <path
       style="fill:#0000ff;fill-rule:evenodd;stroke:#010001;stroke-width:0.25;stroke-dasharray:none;stroke-dashoffset:0;stroke-opacity:1;marker-end:url(#Triangle)"
       d="m 30.788217,4.6525386 h 2.846637"
       id="path29" />
    <g
       inkscape:label=""
       transform="translate(28.784569,0.15939573)"
       id="g42">
      <g
         fill="#000000"
         fill-opacity="1"
         id="g37"
         transform="matrix(0.352778,0,0,0.352778,-0.901524,-0.707584)">
        <g
           id="g36"
           transform="translate(1.993,10.162)">
          <path
             d="M 4.40625,-7.34375 C 4.5,-7.796875 4.546875,-7.8125 5.015625,-7.8125 H 5.875 c 1.03125,0 1.796875,0.3125 1.796875,1.234375 0,0.609375 -0.3125,2.375 -2.71875,2.375 H 3.609375 Z M 6.0625,-4.0625 C 7.546875,-4.390625 8.703125,-5.34375 8.703125,-6.375 8.703125,-7.296875 7.75,-8.15625 6.09375,-8.15625 H 2.859375 c -0.234375,0 -0.34375,0 -0.34375,0.21875 0,0.125 0.078125,0.125 0.3125,0.125 0.703125,0 0.703125,0.09375 0.703125,0.21875 0,0.03125 0,0.09375 -0.046875,0.28125 L 1.875,-0.890625 C 1.765625,-0.46875 1.75,-0.34375 0.921875,-0.34375 c -0.28125,0 -0.359375,0 -0.359375,0.21875 C 0.5625,0 0.6875,0 0.734375,0 0.9375,0 1.1875,-0.03125 1.421875,-0.03125 h 1.40625 c 0.21875,0 0.46875,0.03125 0.6875,0.03125 0.09375,0 0.21875,0 0.21875,-0.234375 0,-0.109375 -0.09375,-0.109375 -0.28125,-0.109375 -0.734375,0 -0.734375,-0.09375 -0.734375,-0.21875 0,-0.015625 0,-0.09375 0.03125,-0.1875 l 0.796875,-3.21875 h 1.4375 c 1.140625,0 1.34375,0.71875 1.34375,1.109375 0,0.1875 -0.109375,0.640625 -0.203125,0.953125 -0.125,0.5625 -0.15625,0.6875 -0.15625,0.921875 0,0.84375 0.6875,1.234375 1.484375,1.234375 0.96875,0 1.390625,-1.1875 1.390625,-1.34375 0,-0.09375 -0.0625,-0.125 -0.125,-0.125 -0.09375,0 -0.125,0.078125 -0.140625,0.171875 C 8.28125,-0.203125 7.796875,0.015625 7.5,0.015625 7.203125,0.015625 7,-0.125 7,-0.65625 c 0,-0.28125 0.140625,-1.375 0.15625,-1.4375 0.0625,-0.4375 0.0625,-0.484375 0.0625,-0.578125 0,-0.875 -0.703125,-1.25 -1.15625,-1.390625 z m 0,0"
             id="path36" />
        </g>
      </g>
      <g
         fill="#000000"
         fill-opacity="1"
         id="g39"
         transform="matrix(0.352778,0,0,0.352778,-0.901524,-0.707584)">
        <g
           id="g38"
           transform="translate(10.903,11.955)">
          <path
             d="m 2.84375,-3.34375 c 0,-0.125 0,-0.203125 -0.109375,-0.203125 -0.046875,0 -0.0625,0 -0.1875,0.125 -0.015625,0 -0.09375,0.078125 -0.109375,0.078125 -0.015625,0 -0.03125,0 -0.078125,-0.03125 C 2.234375,-3.46875 2,-3.546875 1.640625,-3.546875 c -1.109375,0 -1.359375,0.59375 -1.359375,0.984375 0,0.390625 0.296875,0.625 0.3125,0.65625 0.328125,0.234375 0.5,0.265625 1.046875,0.359375 0.375,0.078125 0.984375,0.1875 0.984375,0.71875 0,0.3125 -0.203125,0.6875 -0.9375,0.6875 -0.8125,0 -1.046875,-0.625 -1.140625,-1.046875 C 0.515625,-1.296875 0.5,-1.328125 0.40625,-1.328125 c -0.125,0 -0.125,0.0625 -0.125,0.21875 V -0.125 c 0,0.125 0,0.203125 0.09375,0.203125 0.0625,0 0.0625,0 0.203125,-0.15625 C 0.625,-0.125 0.703125,-0.21875 0.75,-0.265625 c 0.359375,0.328125 0.734375,0.34375 0.9375,0.34375 1.015625,0 1.359375,-0.578125 1.359375,-1.109375 0,-0.375 -0.21875,-0.9375 -1.171875,-1.109375 -0.0625,-0.015625 -0.515625,-0.09375 -0.546875,-0.09375 -0.25,-0.0625 -0.625,-0.234375 -0.625,-0.546875 0,-0.234375 0.1875,-0.578125 0.9375,-0.578125 0.890625,0 0.9375,0.65625 0.953125,0.875 0,0.0625 0.0625,0.09375 0.109375,0.09375 0.140625,0 0.140625,-0.0625 0.140625,-0.203125 z m 0,0"
             id="path37" />
        </g>
      </g>
      <g
         fill="#000000"
         fill-opacity="1"
         id="g41"
         transform="matrix(0.352778,0,0,0.352778,-0.901524,-0.707584)">
        <g
           id="g40"
           transform="translate(14.741,10.162)">
          <path
             d="m 3.375,-1.703125 c 0,-0.0625 -0.046875,-0.109375 -0.109375,-0.109375 -0.109375,0 -0.125,0.03125 -0.1875,0.234375 -0.3125,1.09375 -0.796875,1.453125 -1.1875,1.453125 -0.140625,0 -0.3125,-0.03125 -0.3125,-0.390625 0,-0.328125 0.140625,-0.671875 0.28125,-1.03125 L 2.6875,-3.78125 c 0.03125,-0.09375 0.125,-0.3125 0.125,-0.53125 0,-0.5 -0.359375,-0.953125 -0.953125,-0.953125 -1.09375,0 -1.53125,1.734375 -1.53125,1.828125 0,0.046875 0.046875,0.109375 0.125,0.109375 0.109375,0 0.125,-0.046875 0.171875,-0.21875 0.28125,-1 0.734375,-1.484375 1.203125,-1.484375 0.109375,0 0.3125,0.015625 0.3125,0.390625 0,0.3125 -0.15625,0.703125 -0.25,0.96875 l -0.84375,2.21875 C 0.984375,-1.25 0.90625,-1.0625 0.90625,-0.84375 c 0,0.53125 0.375,0.96875 0.953125,0.96875 1.09375,0 1.515625,-1.75 1.515625,-1.828125 z m -0.09375,-5.75 c 0,-0.1875 -0.140625,-0.40625 -0.40625,-0.40625 -0.265625,0 -0.578125,0.265625 -0.578125,0.578125 0,0.296875 0.25,0.390625 0.390625,0.390625 0.328125,0 0.59375,-0.3125 0.59375,-0.5625 z m 0,0"
             id="path39" />
        </g>
      </g>
      <g
         fill="#000000"
         fill-opacity="1"
         id="g7"
         transform="matrix(0.352778,0,0,0.352778,-0.901524,-0.707584)">
        <g
           id="use6"
           transform="translate(18.733999,11.955)">
          <path
             d="m 2.84375,-3.34375 c 0,-0.125 0,-0.203125 -0.109375,-0.203125 -0.046875,0 -0.0625,0 -0.1875,0.125 -0.015625,0 -0.09375,0.078125 -0.109375,0.078125 -0.015625,0 -0.03125,0 -0.078125,-0.03125 C 2.234375,-3.46875 2,-3.546875 1.640625,-3.546875 c -1.109375,0 -1.359375,0.59375 -1.359375,0.984375 0,0.390625 0.296875,0.625 0.3125,0.65625 0.328125,0.234375 0.5,0.265625 1.046875,0.359375 0.375,0.078125 0.984375,0.1875 0.984375,0.71875 0,0.3125 -0.203125,0.6875 -0.9375,0.6875 -0.8125,0 -1.046875,-0.625 -1.140625,-1.046875 C 0.515625,-1.296875 0.5,-1.328125 0.40625,-1.328125 c -0.125,0 -0.125,0.0625 -0.125,0.21875 V -0.125 c 0,0.125 0,0.203125 0.09375,0.203125 0.0625,0 0.0625,0 0.203125,-0.15625 C 0.625,-0.125 0.703125,-0.21875 0.75,-0.265625 c 0.359375,0.328125 0.734375,0.34375 0.9375,0.34375 1.015625,0 1.359375,-0.578125 1.359375,-1.109375 0,-0.375 -0.21875,-0.9375 -1.171875,-1.109375 -0.0625,-0.015625 -0.515625,-0.09375 -0.546875,-0.09375 -0.25,-0.0625 -0.625,-0.234375 -0.625,-0.546875 0,-0.234375 0.1875,-0.578125 0.9375,-0.578125 0.890625,0 0.9375,0.65625 0.953125,0.875 0,0.0625 0.0625,0.09375 0.109375,0.09375 0.140625,0 0.140625,-0.0625 0.140625,-0.203125 z m 0,0"
             id="path41" />
        </g>
      </g>
    </g>
    <path
       style="fill:#0000ff;fill-rule:evenodd;stroke:#010001;stroke-width:0.25;stroke-dasharray:none;stroke-dashoffset:0;stroke-opacity:1;marker-end:url(#Triangle)"
       d="m 9.9999997,25.000001 5.6785173,5.798711"
       id="path42" />
  </g>
</svg>
