<?xml version="1.0" encoding="UTF-8" standalone="no"?>
<!-- Created with Inkscape (http://www.inkscape.org/) -->

<svg
   width="57.315353mm"
   height="22.79236mm"
   viewBox="0 0 57.315354 22.79236"
   version="1.1"
   id="svg1"
   inkscape:version="1.3.2 (091e20e, 2023-11-25, custom)"
   sodipodi:docname="Block_diagram_rotational_converter.svg"
   xmlns:inkscape="http://www.inkscape.org/namespaces/inkscape"
   xmlns:sodipodi="http://sodipodi.sourceforge.net/DTD/sodipodi-0.dtd"
   xmlns="http://www.w3.org/2000/svg"
   xmlns:svg="http://www.w3.org/2000/svg"
   xmlns:rdf="http://www.w3.org/1999/02/22-rdf-syntax-ns#"
   xmlns:cc="http://creativecommons.org/ns#"
   xmlns:dc="http://purl.org/dc/elements/1.1/">
  <sodipodi:namedview
     id="namedview1"
     pagecolor="#505050"
     bordercolor="#eeeeee"
     borderopacity="1"
     inkscape:showpageshadow="0"
     inkscape:pageopacity="0"
     inkscape:pagecheckerboard="0"
     inkscape:deskcolor="#505050"
     inkscape:document-units="mm"
     showgrid="true"
     inkscape:zoom="2.8649134"
     inkscape:cx="114.13958"
     inkscape:cy="-50.61235"
     inkscape:window-width="1520"
     inkscape:window-height="1250"
     inkscape:window-x="1022"
     inkscape:window-y="83"
     inkscape:window-maximized="0"
     inkscape:current-layer="layer1">
    <inkscape:grid
       id="grid1"
       units="mm"
       originx="-4.0642712"
       originy="-9.9251289"
       spacingx="0.99999998"
       spacingy="1"
       empcolor="#0099e5"
       empopacity="0.30196078"
       color="#0099e5"
       opacity="0.14901961"
       empspacing="5"
       dotted="false"
       gridanglex="30"
       gridanglez="30"
       visible="true" />
  </sodipodi:namedview>
  <title
     id="title411">Electric Symbols</title>
  <defs
     id="defs1">
    <inkscape:path-effect
       effect="bspline"
       id="path-effect1"
       is_visible="true"
       lpeversion="1.3"
       weight="33.333333"
       steps="2"
       helper_size="0"
       apply_no_weight="true"
       apply_with_weight="true"
       only_selected="false"
       uniform="false" />
    <marker
       inkscape:collect="always"
       inkscape:isstock="true"
       style="overflow:visible"
       id="TriangleInM"
       refX="0"
       refY="0"
       orient="auto"
       inkscape:stockid="TriangleInM"
       viewBox="0 0 4.25952648 4.92430807"
       markerWidth="4.25952625"
       markerHeight="4.92430781"
       preserveAspectRatio="xMidYMid">
      <path
         transform="scale(-0.4)"
         style="fill:context-stroke;fill-rule:evenodd;stroke:context-stroke;stroke-width:1pt"
         d="M 5.77,0 -2.88,5 V -5 Z"
         id="path5871" />
    </marker>
    <marker
       inkscape:collect="always"
       inkscape:isstock="true"
       style="overflow:visible"
       id="TriangleInM-1"
       refX="0"
       refY="0"
       orient="auto"
       inkscape:stockid="TriangleInM">
      <path
         transform="scale(-0.4)"
         style="fill:context-stroke;fill-rule:evenodd;stroke:context-stroke;stroke-width:1pt"
         d="M 5.77,0 -2.88,5 V -5 Z"
         id="path5871-1" />
    </marker>
    <marker
       inkscape:collect="always"
       inkscape:isstock="true"
       style="overflow:visible"
       id="TriangleInM-5"
       refX="0"
       refY="0"
       orient="auto"
       inkscape:stockid="TriangleInM"
       viewBox="0 0 4.2595265 4.9243081"
       markerWidth="4.2595263"
       markerHeight="4.9243078"
       preserveAspectRatio="xMidYMid">
      <path
         transform="scale(-0.4)"
         style="fill:context-stroke;fill-rule:evenodd;stroke:context-stroke;stroke-width:1pt"
         d="M 5.77,0 -2.88,5 V -5 Z"
         id="path5871-3" />
    </marker>
  </defs>
  <g
     inkscape:label="Ebene 1"
     inkscape:groupmode="layer"
     id="layer1"
     transform="translate(-4.06428, -9.92513)">
    <g
       transform="matrix(1.5646828,0,0,1.5646828,-177.3717,-63.048172)"
       id="g5731">
      <path
         style="fill:none;stroke:#000000;stroke-width:0.264583px;stroke-linecap:round;stroke-linejoin:miter;stroke-opacity:1"
         d="m 129.64583,54.90624 h 7.9375"
         id="path5633-92"
         inkscape:connector-curvature="0" />
      <path
         style="fill:none;stroke:#000000;stroke-width:0.264583px;stroke-linecap:round;stroke-linejoin:miter;stroke-opacity:1"
         d="m 137.58333,46.96874 h -7.9375"
         id="path5635-28"
         inkscape:connector-curvature="0" />
      <path
         style="fill:none;stroke:#000000;stroke-width:0.264583px;stroke-linecap:round;stroke-linejoin:miter;stroke-opacity:1"
         d="m 137.58333,54.90624 v -7.9375"
         id="path5637-97"
         inkscape:connector-curvature="0" />
      <path
         style="fill:none;stroke:#000000;stroke-width:0.265;stroke-linecap:round;stroke-linejoin:miter;stroke-dasharray:none;stroke-opacity:1"
         d="m 129.64583,54.90624 v -7.9375"
         id="path5639-36"
         inkscape:connector-curvature="0" />
    </g>
    <path
       inkscape:connector-curvature="0"
       id="path5718"
       d="M 15.302437,13.552444 H 25.502838"
       style="fill:none;stroke:#000000;stroke-width:0.374779;stroke-linecap:round;stroke-linejoin:round;stroke-miterlimit:4;stroke-dasharray:none;stroke-opacity:1" />
    <path
       inkscape:connector-curvature="0"
       id="path5718-1"
       d="M 15.1874,20.423303 H 25.387801"
       style="fill:none;stroke:#000000;stroke-width:0.374779;stroke-linecap:round;stroke-linejoin:round;stroke-miterlimit:4;stroke-dasharray:none;stroke-opacity:1" />
    <path
       inkscape:connector-curvature="0"
       id="path5718-1-8"
       d="m 37.946183,17.910346 h 7.864923"
       style="fill:none;stroke:#000000;stroke-width:0.414641;stroke-linecap:round;stroke-linejoin:round;stroke-miterlimit:4;stroke-dasharray:none;stroke-opacity:1"
       sodipodi:nodetypes="cc" />
    <path
       inkscape:connector-curvature="0"
       id="path5718-1-8-4"
       d="m 37.92812,15.395342 h 7.882986"
       style="fill:none;stroke:#000000;stroke-width:0.414641;stroke-linecap:round;stroke-linejoin:round;stroke-miterlimit:4;stroke-dasharray:none;stroke-opacity:1"
       sodipodi:nodetypes="cc" />
    <path
       inkscape:connector-curvature="0"
       id="path5718-1-8-4-2"
       d="m 45.811106,15.395342 v 2.515004"
       style="fill:none;stroke:#000000;stroke-width:0.414641;stroke-linecap:round;stroke-linejoin:round;stroke-miterlimit:4;stroke-dasharray:none;stroke-opacity:1"
       sodipodi:nodetypes="cc" />
    <path
       inkscape:connector-curvature="0"
       id="path5718-7-5"
       d="M 20.464101,13.572375 H 19.453316"
       style="fill:none;stroke:#000000;stroke-width:0.414641;stroke-linecap:round;stroke-linejoin:round;stroke-miterlimit:4;stroke-dasharray:none;stroke-opacity:1;marker-start:url(#TriangleInM)" />
    <path
       inkscape:connector-curvature="0"
       id="path411"
       d="M 14.043165,19.693062 V 13.580041"
       style="fill:none;stroke:#000000;stroke-width:0.234702;stroke-linecap:round;stroke-linejoin:round;stroke-miterlimit:4;stroke-dasharray:none;stroke-opacity:1;marker-start:url(#TriangleInM-1)" />
    <g
       inkscape:label=""
       transform="translate(8.6731804,15.076256)"
       id="g411">
      <g
         fill="#000000"
         fill-opacity="1"
         id="g5"
         transform="matrix(0.352778,0,0,0.352778,-0.785768,-0.705996)">
        <g
           id="use4"
           transform="translate(1.993,7.9699998)">
          <path
             d="m 2.984375,-0.875 c -0.03125,0.15625 -0.40625,0.734375 -0.9375,0.734375 -0.390625,0 -0.53125,-0.296875 -0.53125,-0.640625 0,-0.484375 0.28125,-1.1875 0.453125,-1.640625 C 2.046875,-2.625 2.078125,-2.6875 2.078125,-2.84375 c 0,-0.4375 -0.359375,-0.671875 -0.71875,-0.671875 -0.796875,0 -1.125,1.125 -1.125,1.21875 0,0.078125 0.0625,0.109375 0.125,0.109375 0.109375,0 0.109375,-0.046875 0.140625,-0.125 0.203125,-0.71875 0.546875,-0.984375 0.828125,-0.984375 0.125,0 0.1875,0.078125 0.1875,0.265625 0,0.1875 -0.0625,0.375 -0.171875,0.65625 -0.328125,0.84375 -0.40625,1.1875 -0.40625,1.46875 0,0.78125 0.59375,0.984375 1.0625,0.984375 0.59375,0 0.96875,-0.46875 1,-0.515625 0.125,0.375 0.484375,0.515625 0.765625,0.515625 0.375,0 0.5625,-0.3125 0.609375,-0.4375 0.171875,-0.28125 0.28125,-0.75 0.28125,-0.78125 C 4.65625,-1.1875 4.625,-1.25 4.53125,-1.25 4.4375,-1.25 4.421875,-1.203125 4.359375,-1 c -0.09375,0.40625 -0.234375,0.859375 -0.5625,0.859375 -0.1875,0 -0.265625,-0.15625 -0.265625,-0.375 0,-0.140625 0.078125,-0.40625 0.125,-0.609375 0.046875,-0.203125 0.171875,-0.671875 0.203125,-0.8125 l 0.15625,-0.609375 C 4.0625,-2.765625 4.15625,-3.140625 4.15625,-3.1875 c 0,-0.203125 -0.15625,-0.25 -0.25,-0.25 -0.109375,0 -0.28125,0.078125 -0.34375,0.265625 z m 0,0"
             id="path8" />
        </g>
      </g>
      <g
         fill="#000000"
         fill-opacity="1"
         id="g6"
         transform="matrix(0.352778,0,0,0.352778,-0.785768,-0.705996)">
        <g
           id="use5"
           transform="translate(6.895,7.9699998)">
          <path
             d="m 2.65625,1.984375 c 0.0625,0 0.15625,0 0.15625,-0.09375 0,-0.03125 0,-0.03125 -0.109375,-0.140625 -1.09375,-1.03125 -1.359375,-2.5 -1.359375,-3.734375 0,-2.296875 0.9375,-3.375 1.34375,-3.75 0.125,-0.09375 0.125,-0.109375 0.125,-0.140625 0,-0.046875 -0.03125,-0.09375 -0.109375,-0.09375 -0.125,0 -0.53125,0.40625 -0.59375,0.46875 -1.0625,1.125 -1.28125,2.546875 -1.28125,3.515625 0,1.78125 0.734375,3.21875 1.828125,3.96875 z m 0,0"
             id="path9" />
        </g>
      </g>
      <g
         fill="#000000"
         fill-opacity="1"
         id="g7"
         transform="matrix(0.352778,0,0,0.352778,-0.785768,-0.705996)">
        <g
           id="use6"
           transform="translate(10.189,7.9699998)">
          <path
             d="m 1.765625,-3.171875 h 0.78125 c 0.140625,0 0.234375,0 0.234375,-0.15625 C 2.78125,-3.4375 2.6875,-3.4375 2.546875,-3.4375 h -0.71875 l 0.28125,-1.125 c 0.03125,-0.125 0.03125,-0.15625 0.03125,-0.171875 0,-0.171875 -0.125,-0.25 -0.265625,-0.25 -0.265625,0 -0.328125,0.21875 -0.40625,0.578125 l -0.25,0.96875 H 0.453125 c -0.15625,0 -0.25,0 -0.25,0.15625 0,0.109375 0.09375,0.109375 0.234375,0.109375 h 0.71875 l -0.484375,1.90625 C 0.625,-1.0625 0.5625,-0.78125 0.5625,-0.671875 c 0,0.484375 0.390625,0.75 0.8125,0.75 0.84375,0 1.328125,-1.125 1.328125,-1.21875 C 2.703125,-1.234375 2.640625,-1.25 2.59375,-1.25 2.5,-1.25 2.5,-1.21875 2.4375,-1.09375 2.28125,-0.703125 1.875,-0.140625 1.390625,-0.140625 1.234375,-0.140625 1.125,-0.25 1.125,-0.515625 c 0,-0.15625 0.03125,-0.234375 0.046875,-0.34375 z m 0,0"
             id="path10" />
        </g>
      </g>
      <g
         fill="#000000"
         fill-opacity="1"
         id="g8"
         transform="matrix(0.352778,0,0,0.352778,-0.785768,-0.705996)">
        <g
           id="use7"
           transform="translate(13.247,7.9699998)">
          <path
             d="m 2.46875,-1.984375 c 0,-0.765625 -0.140625,-1.671875 -0.625,-2.609375 -0.390625,-0.734375 -1.125,-1.375 -1.265625,-1.375 -0.078125,0 -0.09375,0.046875 -0.09375,0.09375 0,0.03125 0,0.046875 0.09375,0.140625 1.109375,1.0625 1.359375,2.515625 1.359375,3.75 C 1.9375,0.296875 1,1.375 0.59375,1.75 0.484375,1.84375 0.484375,1.859375 0.484375,1.890625 c 0,0.046875 0.015625,0.09375 0.09375,0.09375 0.125,0 0.53125,-0.40625 0.59375,-0.46875 1.0625,-1.125 1.296875,-2.546875 1.296875,-3.5 z m 0,0"
             id="path11" />
        </g>
      </g>
    </g>
    <g
       inkscape:label=""
       transform="translate(19.0647,9.9251278)"
       id="g420">
      <g
         fill="#000000"
         fill-opacity="1"
         id="g413"
         transform="matrix(0.352778,0,0,0.352778,-0.785768,-0.705996)">
        <g
           id="g412"
           transform="translate(1.993,7.9699998)">
          <path
             d="m 2.375,-4.96875 c 0,-0.171875 -0.125,-0.3125 -0.3125,-0.3125 -0.203125,0 -0.4375,0.203125 -0.4375,0.4375 0,0.171875 0.125,0.296875 0.3125,0.296875 0.203125,0 0.4375,-0.1875 0.4375,-0.421875 z m -1.15625,2.921875 -0.4375,1.09375 c -0.046875,0.125 -0.078125,0.21875 -0.078125,0.359375 0,0.390625 0.296875,0.671875 0.71875,0.671875 0.78125,0 1.109375,-1.109375 1.109375,-1.21875 0,-0.078125 -0.0625,-0.109375 -0.125,-0.109375 -0.09375,0 -0.109375,0.0625 -0.140625,0.140625 -0.171875,0.640625 -0.5,0.96875 -0.828125,0.96875 -0.09375,0 -0.1875,-0.046875 -0.1875,-0.25 0,-0.203125 0.0625,-0.34375 0.15625,-0.59375 C 1.484375,-1.1875 1.5625,-1.40625 1.65625,-1.625 l 0.25,-0.640625 c 0.0625,-0.1875 0.171875,-0.4375 0.171875,-0.578125 0,-0.390625 -0.328125,-0.671875 -0.734375,-0.671875 -0.765625,0 -1.109375,1.109375 -1.109375,1.21875 0,0.078125 0.0625,0.109375 0.125,0.109375 0.109375,0 0.109375,-0.046875 0.140625,-0.125 0.21875,-0.765625 0.578125,-0.984375 0.828125,-0.984375 0.109375,0 0.1875,0.046875 0.1875,0.265625 0,0.078125 -0.015625,0.1875 -0.09375,0.4375 z m 0,0"
             id="path412" />
        </g>
      </g>
      <g
         fill="#000000"
         fill-opacity="1"
         id="g415"
         transform="matrix(0.352778,0,0,0.352778,-0.785768,-0.705996)">
        <g
           id="g414"
           transform="translate(4.8759999,7.9699998)">
          <path
             d="m 2.65625,1.984375 c 0.0625,0 0.15625,0 0.15625,-0.09375 0,-0.03125 0,-0.03125 -0.109375,-0.140625 -1.09375,-1.03125 -1.359375,-2.5 -1.359375,-3.734375 0,-2.296875 0.9375,-3.375 1.34375,-3.75 0.125,-0.09375 0.125,-0.109375 0.125,-0.140625 0,-0.046875 -0.03125,-0.09375 -0.109375,-0.09375 -0.125,0 -0.53125,0.40625 -0.59375,0.46875 -1.0625,1.125 -1.28125,2.546875 -1.28125,3.515625 0,1.78125 0.734375,3.21875 1.828125,3.96875 z m 0,0"
             id="path413" />
        </g>
      </g>
      <g
         fill="#000000"
         fill-opacity="1"
         id="g417"
         transform="matrix(0.352778,0,0,0.352778,-0.785768,-0.705996)">
        <g
           id="g416"
           transform="translate(8.1689997,7.9699998)">
          <path
             d="m 1.765625,-3.171875 h 0.78125 c 0.140625,0 0.234375,0 0.234375,-0.15625 C 2.78125,-3.4375 2.6875,-3.4375 2.546875,-3.4375 h -0.71875 l 0.28125,-1.125 c 0.03125,-0.125 0.03125,-0.15625 0.03125,-0.171875 0,-0.171875 -0.125,-0.25 -0.265625,-0.25 -0.265625,0 -0.328125,0.21875 -0.40625,0.578125 l -0.25,0.96875 H 0.453125 c -0.15625,0 -0.25,0 -0.25,0.15625 0,0.109375 0.09375,0.109375 0.234375,0.109375 h 0.71875 l -0.484375,1.90625 C 0.625,-1.0625 0.5625,-0.78125 0.5625,-0.671875 c 0,0.484375 0.390625,0.75 0.8125,0.75 0.84375,0 1.328125,-1.125 1.328125,-1.21875 C 2.703125,-1.234375 2.640625,-1.25 2.59375,-1.25 2.5,-1.25 2.5,-1.21875 2.4375,-1.09375 2.28125,-0.703125 1.875,-0.140625 1.390625,-0.140625 1.234375,-0.140625 1.125,-0.25 1.125,-0.515625 c 0,-0.15625 0.03125,-0.234375 0.046875,-0.34375 z m 0,0"
             id="path415" />
        </g>
      </g>
      <g
         fill="#000000"
         fill-opacity="1"
         id="g419"
         transform="matrix(0.352778,0,0,0.352778,-0.785768,-0.705996)">
        <g
           id="g418"
           transform="translate(11.227,7.9699998)">
          <path
             d="m 2.46875,-1.984375 c 0,-0.765625 -0.140625,-1.671875 -0.625,-2.609375 -0.390625,-0.734375 -1.125,-1.375 -1.265625,-1.375 -0.078125,0 -0.09375,0.046875 -0.09375,0.09375 0,0.03125 0,0.046875 0.09375,0.140625 1.109375,1.0625 1.359375,2.515625 1.359375,3.75 C 1.9375,0.296875 1,1.375 0.59375,1.75 0.484375,1.84375 0.484375,1.859375 0.484375,1.890625 c 0,0.046875 0.015625,0.09375 0.09375,0.09375 0.125,0 0.53125,-0.40625 0.59375,-0.46875 1.0625,-1.125 1.296875,-2.546875 1.296875,-3.5 z m 0,0"
             id="path417" />
        </g>
      </g>
    </g>
    <text
       xml:space="preserve"
       style="font-size:2.11667px;line-height:1;font-family:sans-serif;-inkscape-font-specification:sans-serif;fill:#000000;stroke-width:0.15;stroke-dasharray:none"
       x="14.391832"
       y="28.058334"
       id="text438"><tspan
         sodipodi:role="line"
         style="font-size:2.11667px;text-align:center;text-anchor:middle;stroke-width:0.15"
         x="14.391832"
         y="28.058334"
         id="tspan439">Load convention</tspan><tspan
         sodipodi:role="line"
         style="font-size:2.11667px;text-align:center;text-anchor:middle;stroke-width:0.15"
         x="14.391832"
         y="30.175005"
         id="tspan440">(arrows pointing in </tspan><tspan
         sodipodi:role="line"
         style="font-size:2.11667px;text-align:center;text-anchor:middle;stroke-width:0.15"
         x="14.391832"
         y="32.291676"
         id="tspan441">the same direction)</tspan></text>
    <text
       xml:space="preserve"
       style="font-size:2.11667px;line-height:1;font-family:sans-serif;-inkscape-font-specification:sans-serif;fill:#000000;stroke-width:0.15;stroke-dasharray:none"
       x="49.529179"
       y="28.058334"
       id="text438-0"><tspan
         sodipodi:role="line"
         style="font-size:2.11667px;text-align:center;text-anchor:middle;stroke-width:0.15"
         x="49.529179"
         y="28.058334"
         id="tspan439-3">Generator convention</tspan><tspan
         sodipodi:role="line"
         style="font-size:2.11667px;text-align:center;text-anchor:middle;stroke-width:0.15"
         x="49.529179"
         y="30.175005"
         id="tspan440-3">(arrows pointing in </tspan><tspan
         sodipodi:role="line"
         style="font-size:2.11667px;text-align:center;text-anchor:middle;stroke-width:0.15"
         x="49.529179"
         y="32.291676"
         id="tspan441-3">the opposite direction)</tspan></text>
    <path
       style="fill:none;stroke:#000000;stroke-width:0.235;stroke-dasharray:none;stroke-opacity:1;marker-start:url(#TriangleInM)"
       id="path3"
       sodipodi:type="arc"
       sodipodi:cx="48.4767"
       sodipodi:cy="16.654873"
       sodipodi:rx="1.0122031"
       sodipodi:ry="4.1749659"
       sodipodi:start="0.36713367"
       sodipodi:end="5.8030366"
       sodipodi:open="true"
       sodipodi:arc-type="arc"
       d="m 49.42145,18.153442 a 1.0122031,4.1749659 0 0 1 -1.101327,2.626143 1.0122031,4.1749659 0 0 1 -0.854011,-3.888921 1.0122031,4.1749659 0 0 1 0.742233,-4.261358 1.0122031,4.1749659 0 0 1 1.166104,2.097104" />
    <path
       style="fill:none;stroke:#000000;stroke-width:0.235;stroke-dasharray:none;stroke-opacity:1;marker-start:url(#TriangleInM-5)"
       id="path3-5"
       sodipodi:type="arc"
       sodipodi:cx="56.129051"
       sodipodi:cy="-16.650816"
       sodipodi:rx="1.0122031"
       sodipodi:ry="4.1749659"
       sodipodi:start="0.36713367"
       sodipodi:end="5.8030366"
       sodipodi:open="true"
       sodipodi:arc-type="arc"
       d="m 57.073801,-15.152247 a 1.0122031,4.1749659 0 0 1 -1.101327,2.626143 1.0122031,4.1749659 0 0 1 -0.85401,-3.888921 1.0122031,4.1749659 0 0 1 0.742232,-4.261358 1.0122031,4.1749659 0 0 1 1.166105,2.097104"
       transform="scale(1,-1)" />
    <g
       inkscape:label=""
       transform="translate(53.697276,21.570052)"
       id="g18"
       inkscape:transform-center-x="0.13852949">
      <g
         fill="#000000"
         fill-opacity="1"
         id="g9"
         transform="matrix(0.352778,0,0,0.352778,-0.747183,-0.705996)">
        <g
           id="g4"
           transform="translate(1.993,7.9699998)">
          <path
             d="m 5.109375,-2.921875 c 0,-0.234375 -0.078125,-0.59375 -0.390625,-0.59375 -0.203125,0 -0.421875,0.1875 -0.421875,0.421875 0,0.109375 0.09375,0.1875 0.1875,0.265625 0.109375,0.125 0.234375,0.328125 0.234375,0.625 0,0.53125 -0.546875,1.65625 -1.34375,1.65625 -0.421875,0 -0.703125,-0.234375 -0.796875,-0.625 C 2.703125,-1.4375 2.875,-1.875 2.875,-2.109375 c 0,-0.125 -0.0625,-0.234375 -0.21875,-0.234375 -0.359375,0 -0.40625,0.890625 -0.40625,1.140625 -0.28125,0.328125 -0.609375,0.65625 -1.078125,0.65625 -0.5,0 -0.734375,-0.40625 -0.734375,-0.875 0,-0.375 0.09375,-0.703125 0.25,-1.015625 0.234375,-0.46875 0.546875,-0.765625 0.546875,-0.890625 0,-0.09375 -0.078125,-0.15625 -0.15625,-0.15625 -0.15625,0 -0.265625,0.234375 -0.359375,0.375 -0.34375,0.5625 -0.59375,1.3125 -0.59375,1.96875 0,0.609375 0.234375,1.21875 0.9375,1.21875 0.6875,0 1.078125,-0.5625 1.25,-0.78125 0.125,0.4375 0.4375,0.78125 0.9375,0.78125 0.640625,0 0.96875,-0.421875 1.296875,-0.96875 0.265625,-0.421875 0.5625,-1.53125 0.5625,-2.03125 z m 0,0"
             id="path4" />
        </g>
      </g>
      <g
         fill="#000000"
         fill-opacity="1"
         id="g13"
         transform="matrix(0.352778,0,0,0.352778,-0.747183,-0.705996)">
        <g
           id="g12"
           transform="translate(7.5440001,7.9699998)">
          <path
             d="m 2.65625,1.984375 c 0.0625,0 0.15625,0 0.15625,-0.09375 0,-0.03125 0,-0.03125 -0.109375,-0.140625 -1.09375,-1.03125 -1.359375,-2.5 -1.359375,-3.734375 0,-2.296875 0.9375,-3.375 1.34375,-3.75 0.125,-0.09375 0.125,-0.109375 0.125,-0.140625 0,-0.046875 -0.03125,-0.09375 -0.109375,-0.09375 -0.125,0 -0.53125,0.40625 -0.59375,0.46875 -1.0625,1.125 -1.28125,2.546875 -1.28125,3.515625 0,1.78125 0.734375,3.21875 1.828125,3.96875 z m 0,0"
             id="path12" />
        </g>
      </g>
      <g
         fill="#000000"
         fill-opacity="1"
         id="g15"
         transform="matrix(0.352778,0,0,0.352778,-0.747183,-0.705996)">
        <g
           id="g14"
           transform="translate(10.837,7.9699998)">
          <path
             d="m 1.765625,-3.171875 h 0.78125 c 0.140625,0 0.234375,0 0.234375,-0.15625 C 2.78125,-3.4375 2.6875,-3.4375 2.546875,-3.4375 h -0.71875 l 0.28125,-1.125 c 0.03125,-0.125 0.03125,-0.15625 0.03125,-0.171875 0,-0.171875 -0.125,-0.25 -0.265625,-0.25 -0.265625,0 -0.328125,0.21875 -0.40625,0.578125 l -0.25,0.96875 H 0.453125 c -0.15625,0 -0.25,0 -0.25,0.15625 0,0.109375 0.09375,0.109375 0.234375,0.109375 h 0.71875 l -0.484375,1.90625 C 0.625,-1.0625 0.5625,-0.78125 0.5625,-0.671875 c 0,0.484375 0.390625,0.75 0.8125,0.75 0.84375,0 1.328125,-1.125 1.328125,-1.21875 C 2.703125,-1.234375 2.640625,-1.25 2.59375,-1.25 2.5,-1.25 2.5,-1.21875 2.4375,-1.09375 2.28125,-0.703125 1.875,-0.140625 1.390625,-0.140625 1.234375,-0.140625 1.125,-0.25 1.125,-0.515625 c 0,-0.15625 0.03125,-0.234375 0.046875,-0.34375 z m 0,0"
             id="path13" />
        </g>
      </g>
      <g
         fill="#000000"
         fill-opacity="1"
         id="g17"
         transform="matrix(0.352778,0,0,0.352778,-0.747183,-0.705996)">
        <g
           id="g16"
           transform="translate(13.895,7.9699998)">
          <path
             d="m 2.46875,-1.984375 c 0,-0.765625 -0.140625,-1.671875 -0.625,-2.609375 -0.390625,-0.734375 -1.125,-1.375 -1.265625,-1.375 -0.078125,0 -0.09375,0.046875 -0.09375,0.09375 0,0.03125 0,0.046875 0.09375,0.140625 1.109375,1.0625 1.359375,2.515625 1.359375,3.75 C 1.9375,0.296875 1,1.375 0.59375,1.75 0.484375,1.84375 0.484375,1.859375 0.484375,1.890625 c 0,0.046875 0.015625,0.09375 0.09375,0.09375 0.125,0 0.53125,-0.40625 0.59375,-0.46875 1.0625,-1.125 1.296875,-2.546875 1.296875,-3.5 z m 0,0"
             id="path15" />
        </g>
      </g>
    </g>
    <g
       inkscape:label=""
       transform="translate(46.051916,21.603125)"
       id="g27">
      <g
         fill="#000000"
         fill-opacity="1"
         id="g20"
         transform="matrix(0.352778,0,0,0.352778,-0.774744,-0.705996)">
        <g
           id="g19"
           transform="translate(1.993,7.9699998)">
          <path
             d="M 3.609375,-4.828125 C 3.671875,-5.109375 3.6875,-5.125 4.015625,-5.125 h 0.59375 c 0.828125,0 0.921875,0.265625 0.921875,0.65625 0,0.203125 -0.046875,0.546875 -0.046875,0.59375 -0.015625,0.078125 -0.03125,0.15625 -0.03125,0.171875 0,0.09375 0.078125,0.125 0.125,0.125 0.09375,0 0.125,-0.046875 0.140625,-0.203125 l 0.21875,-1.5 c 0,-0.109375 -0.09375,-0.109375 -0.234375,-0.109375 H 1 c -0.1875,0 -0.21875,0 -0.265625,0.171875 L 0.25,-3.84375 c -0.015625,0.046875 -0.046875,0.109375 -0.046875,0.15625 0,0.0625 0.0625,0.109375 0.125,0.109375 0.09375,0 0.109375,-0.046875 0.15625,-0.171875 C 0.9375,-5.03125 1.15625,-5.125 2.375,-5.125 h 0.3125 c 0.234375,0 0.25,0.015625 0.25,0.078125 0,0.015625 -0.03125,0.171875 -0.046875,0.203125 l -1.046875,4.1875 c -0.078125,0.3125 -0.09375,0.390625 -0.921875,0.390625 -0.265625,0 -0.34375,0 -0.34375,0.15625 0,0 0,0.109375 0.140625,0.109375 0.21875,0 0.765625,-0.03125 0.984375,-0.03125 H 2.375 c 0.21875,0 0.78125,0.03125 1,0.03125 0.0625,0 0.1875,0 0.1875,-0.15625 0,-0.109375 -0.09375,-0.109375 -0.296875,-0.109375 -0.203125,0 -0.265625,0 -0.46875,-0.015625 -0.25,-0.015625 -0.28125,-0.046875 -0.28125,-0.15625 0,-0.03125 0,-0.0625 0.03125,-0.140625 z m 0,0"
             id="path18" />
        </g>
      </g>
      <g
         fill="#000000"
         fill-opacity="1"
         id="g22"
         transform="matrix(0.352778,0,0,0.352778,-0.774744,-0.705996)">
        <g
           id="g21"
           transform="translate(8.099,7.9699998)">
          <path
             d="m 2.65625,1.984375 c 0.0625,0 0.15625,0 0.15625,-0.09375 0,-0.03125 0,-0.03125 -0.109375,-0.140625 -1.09375,-1.03125 -1.359375,-2.5 -1.359375,-3.734375 0,-2.296875 0.9375,-3.375 1.34375,-3.75 0.125,-0.09375 0.125,-0.109375 0.125,-0.140625 0,-0.046875 -0.03125,-0.09375 -0.109375,-0.09375 -0.125,0 -0.53125,0.40625 -0.59375,0.46875 -1.0625,1.125 -1.28125,2.546875 -1.28125,3.515625 0,1.78125 0.734375,3.21875 1.828125,3.96875 z m 0,0"
             id="path20" />
        </g>
      </g>
      <g
         fill="#000000"
         fill-opacity="1"
         id="g24"
         transform="matrix(0.352778,0,0,0.352778,-0.774744,-0.705996)">
        <g
           id="g23"
           transform="translate(11.392,7.9699998)">
          <path
             d="m 1.765625,-3.171875 h 0.78125 c 0.140625,0 0.234375,0 0.234375,-0.15625 C 2.78125,-3.4375 2.6875,-3.4375 2.546875,-3.4375 h -0.71875 l 0.28125,-1.125 c 0.03125,-0.125 0.03125,-0.15625 0.03125,-0.171875 0,-0.171875 -0.125,-0.25 -0.265625,-0.25 -0.265625,0 -0.328125,0.21875 -0.40625,0.578125 l -0.25,0.96875 H 0.453125 c -0.15625,0 -0.25,0 -0.25,0.15625 0,0.109375 0.09375,0.109375 0.234375,0.109375 h 0.71875 l -0.484375,1.90625 C 0.625,-1.0625 0.5625,-0.78125 0.5625,-0.671875 c 0,0.484375 0.390625,0.75 0.8125,0.75 0.84375,0 1.328125,-1.125 1.328125,-1.21875 C 2.703125,-1.234375 2.640625,-1.25 2.59375,-1.25 2.5,-1.25 2.5,-1.21875 2.4375,-1.09375 2.28125,-0.703125 1.875,-0.140625 1.390625,-0.140625 1.234375,-0.140625 1.125,-0.25 1.125,-0.515625 c 0,-0.15625 0.03125,-0.234375 0.046875,-0.34375 z m 0,0"
             id="path22" />
        </g>
      </g>
      <g
         fill="#000000"
         fill-opacity="1"
         id="g26"
         transform="matrix(0.352778,0,0,0.352778,-0.774744,-0.705996)">
        <g
           id="g25"
           transform="translate(14.45,7.9699998)">
          <path
             d="m 2.46875,-1.984375 c 0,-0.765625 -0.140625,-1.671875 -0.625,-2.609375 -0.390625,-0.734375 -1.125,-1.375 -1.265625,-1.375 -0.078125,0 -0.09375,0.046875 -0.09375,0.09375 0,0.03125 0,0.046875 0.09375,0.140625 1.109375,1.0625 1.359375,2.515625 1.359375,3.75 C 1.9375,0.296875 1,1.375 0.59375,1.75 0.484375,1.84375 0.484375,1.859375 0.484375,1.890625 c 0,0.046875 0.015625,0.09375 0.09375,0.09375 0.125,0 0.53125,-0.40625 0.59375,-0.46875 1.0625,-1.125 1.296875,-2.546875 1.296875,-3.5 z m 0,0"
             id="path24" />
        </g>
      </g>
    </g>
  </g>
  <metadata
     id="metadata411">
    <rdf:RDF>
      <cc:Work
         rdf:about="">
        <dc:title>Electric Symbols</dc:title>
      </cc:Work>
    </rdf:RDF>
  </metadata>
</svg>
