<?xml version="1.0" encoding="UTF-8" standalone="no"?>
<!-- Created with Inkscape (http://www.inkscape.org/) -->

<svg
   width="85mm"
   height="47mm"
   viewBox="-1 -1 85 47"
   version="1.1"
   id="svg1"
   inkscape:version="1.3.2 (091e20e, 2023-11-25, custom)"
   sodipodi:docname="MagneticIron3D.svg"
   xmlns:inkscape="http://www.inkscape.org/namespaces/inkscape"
   xmlns:sodipodi="http://sodipodi.sourceforge.net/DTD/sodipodi-0.dtd"
   xmlns="http://www.w3.org/2000/svg"
   xmlns:svg="http://www.w3.org/2000/svg">
  <sodipodi:namedview
     id="namedview1"
     pagecolor="#ffffff"
     bordercolor="#000000"
     borderopacity="0.25"
     inkscape:showpageshadow="2"
     inkscape:pageopacity="0.0"
     inkscape:pagecheckerboard="0"
     inkscape:deskcolor="#d1d1d1"
     inkscape:document-units="mm"
     showgrid="true"
     inkscape:zoom="1.4142136"
     inkscape:cx="52.325902"
     inkscape:cy="126.21856"
     inkscape:window-width="1920"
     inkscape:window-height="1009"
     inkscape:window-x="-8"
     inkscape:window-y="-8"
     inkscape:window-maximized="1"
     inkscape:current-layer="layer1">
    <inkscape:grid
       id="grid1"
       units="mm"
       originx="-6.184"
       originy="-5.9000001"
       spacingx="0.5"
       spacingy="0.5"
       empcolor="#0099e5"
       empopacity="0.30196078"
       color="#0099e5"
       opacity="0.14901961"
       empspacing="5"
       dotted="false"
       gridanglex="30"
       gridanglez="30"
       visible="true" />
  </sodipodi:namedview>
  <defs
     id="defs1">
    <marker
       style="overflow:visible"
       id="Triangle"
       refX="0"
       refY="0"
       orient="auto-start-reverse"
       inkscape:stockid="Triangle arrow"
       markerWidth="1"
       markerHeight="1"
       viewBox="0 0 1 1"
       inkscape:isstock="true"
       inkscape:collect="always"
       preserveAspectRatio="xMidYMid">
      <path
         transform="scale(0.5)"
         style="fill:context-stroke;fill-rule:evenodd;stroke:context-stroke;stroke-width:1pt"
         d="M 5.77,0 -2.88,5 V -5 Z"
         id="path135" />
    </marker>
    <marker
       style="overflow:visible"
       id="Triangle-6"
       refX="0"
       refY="0"
       orient="auto-start-reverse"
       inkscape:stockid="Triangle arrow"
       markerWidth="1"
       markerHeight="1"
       viewBox="0 0 1 1"
       inkscape:isstock="true"
       inkscape:collect="always"
       preserveAspectRatio="xMidYMid">
      <path
         transform="scale(0.5)"
         style="fill:context-stroke;fill-rule:evenodd;stroke:context-stroke;stroke-width:1pt"
         d="M 5.77,0 -2.88,5 V -5 Z"
         id="path135-1" />
    </marker>
  </defs>
  <g
     inkscape:label="Ebene 1"
     inkscape:groupmode="layer"
     id="layer1"
     transform="translate(-6.1840002,-5.8999998)">
    <rect
       style="fill:none;stroke:#000000;stroke-width:0.2;stroke-dasharray:none;stroke-opacity:1"
       id="rect1"
       width="40.000004"
       height="40"
       x="20"
       y="10" />
    <rect
       style="fill:none;stroke:#000000;stroke-width:0.2;stroke-dasharray:none;stroke-opacity:1"
       id="rect1-7"
       width="23.935167"
       height="23.935167"
       x="28.004993"
       y="18.004993" />
    <rect
       style="fill:#ffffff;fill-opacity:1;stroke:#ffffff;stroke-width:0.411362;stroke-dasharray:none;stroke-opacity:1"
       id="rect2"
       width="9.5886374"
       height="10.588638"
       x="19.205685"
       y="24.205681" />
    <path
       style="fill:#ffffff;fill-opacity:1;stroke:#000000;stroke-width:0.203053;stroke-dasharray:none;stroke-opacity:1"
       d="m 19.9,23.992087 h 8.20396"
       id="path2" />
    <path
       style="fill:#ffffff;fill-opacity:1;stroke:#000000;stroke-width:0.203004;stroke-dasharray:none;stroke-opacity:1"
       d="m 19.899998,35 h 8.200004"
       id="path2-7" />
    <path
       sodipodi:nodetypes="cc"
       inkscape:connector-curvature="0"
       id="path5718-49"
       d="m 65.120578,34.664307 c 5.037734,1.229924 -0.127875,1.670237 -3.962265,1.953214"
       style="fill:none;stroke:#000000;stroke-width:0.2;stroke-linecap:round;stroke-linejoin:round;stroke-miterlimit:4;stroke-dasharray:none;stroke-opacity:1" />
    <path
       sodipodi:nodetypes="cc"
       inkscape:connector-curvature="0"
       id="path5718-2-0-2"
       d="M 52,27.883332 C 34.348352,26.107536 76.767751,27.504555 65,24.544887"
       style="fill:none;stroke:#000000;stroke-width:0.2;stroke-linecap:butt;stroke-linejoin:round;stroke-miterlimit:4;stroke-dasharray:none;stroke-opacity:1" />
    <path
       style="fill:#000000;fill-opacity:1;stroke:#000000;stroke-width:0.11;stroke-dasharray:none;stroke-dashoffset:0;stroke-opacity:1"
       d="m 74.10194,20.942883 v 0.999998 l -1.999999,-0.999998 1.999999,-1.000001 v 1.000001"
       id="path13-8" />
    <path
       style="fill:#000000;stroke:#000000;stroke-width:0.2;stroke-linecap:round;stroke-dasharray:none;marker-start:url(#Triangle)"
       d="M 68.893588,28.743313 C 72.425948,27 72.425948,27 72.425948,27"
       id="path5" />
    <path
       style="fill:none;stroke:#000006;stroke-width:0.2;stroke-linecap:round;stroke-opacity:1"
       d="M 28.103959,23.992087 31.999999,20 v -2"
       id="path3" />
    <path
       style="fill:none;stroke:#000006;stroke-width:0.2;stroke-linecap:butt;stroke-linejoin:bevel;stroke-opacity:1"
       d="m 19.95,35 4,-4 h 8.100001 l -4,4"
       id="path4" />
    <path
       style="fill:none;stroke:#000006;stroke-width:0.2;stroke-linecap:square;stroke-opacity:1"
       d="m 32,31 v 7.000002 h 20"
       id="path6" />
    <path
       style="fill:none;stroke:#000006;stroke-width:0.2;stroke-linecap:round;stroke-opacity:1"
       d="M 20,9.9999997 24,5.9999998 H 64.999999 V 46 l -4.999998,4"
       id="path7" />
    <path
       style="fill:none;stroke:#000006;stroke-width:0.2;stroke-linecap:round;stroke-opacity:1"
       d="M 60.000001,9.9999997 64.999999,5.9999998"
       id="path8" />
    <path
       style="fill:none;stroke:#000006;stroke-width:0.2;stroke-linecap:round;stroke-opacity:1"
       d="M 28.004992,41.940162 31.999999,38"
       id="path9" />
    <path
       sodipodi:nodetypes="cc"
       inkscape:connector-curvature="0"
       id="path5718-49-9"
       d="M 51.917384,24.447907 C 37.943813,22.870734 60.945228,21.128186 64.125416,21.1262"
       style="fill:none;stroke:#000000;stroke-width:0.21405;stroke-linecap:round;stroke-linejoin:round;stroke-miterlimit:4;stroke-dasharray:none;stroke-opacity:1" />
    <path
       sodipodi:nodetypes="cc"
       inkscape:connector-curvature="0"
       id="path5718-2-0-2-0"
       d="M 52,31.221777 C 34.348352,29.445981 76.767751,30.843 65,27.883332"
       style="fill:none;stroke:#000000;stroke-width:0.2;stroke-linecap:butt;stroke-linejoin:round;stroke-miterlimit:4;stroke-dasharray:none;stroke-opacity:1" />
    <path
       sodipodi:nodetypes="cc"
       inkscape:connector-curvature="0"
       id="path5718-2-0-2-4"
       d="M 52,34.71851 C 34.348352,32.942714 76.767751,34.339733 65,31.380065"
       style="fill:none;stroke:#000000;stroke-width:0.2;stroke-linecap:butt;stroke-linejoin:round;stroke-miterlimit:4;stroke-dasharray:none;stroke-opacity:1" />
    <path
       style="fill:none;stroke:#000006;stroke-width:0.2;stroke-linecap:butt;stroke-dasharray:none"
       d="M 61.283246,36.608279 60.999999,36.636519 61,40 h 13.000001"
       id="path10" />
    <path
       style="fill:none;stroke:#000006;stroke-width:0.201334;stroke-linecap:butt;stroke-dasharray:none"
       d="m 63.886329,21.128858 3.738317,-0.175917 14.375507,-0.03152"
       id="path11" />
    <ellipse
       style="fill:none;stroke:#000006;stroke-width:0.2;stroke-linecap:butt;stroke-dasharray:none"
       id="path12"
       cx="82.5"
       cy="20.90905"
       rx="0.5"
       ry="0.49999997" />
    <ellipse
       style="fill:none;stroke:#000006;stroke-width:0.2;stroke-linecap:butt;stroke-dasharray:none"
       id="path12-8"
       cx="82.5"
       cy="40"
       rx="0.5"
       ry="0.49999997" />
    <path
       style="fill:none;stroke:#000006;stroke-width:0.2;stroke-linecap:butt;stroke-dasharray:none"
       d="m 73.362144,39.999999 h 8.637855"
       id="path13" />
    <g
       inkscape:label=""
       transform="translate(29.092989,35.629829)"
       id="g14">
      <g
         fill="#000000"
         fill-opacity="1"
         id="g2"
         transform="matrix(0.352778,0,0,0.352778,-0.84089,-0.704541)">
        <g
           id="use1"
           transform="translate(1.993,10.294)">
          <path
             d="M 2.0625,-8.296875 0.390625,-8.15625 v 0.34375 c 0.8125,0 0.90625,0.078125 0.90625,0.671875 v 6.25 c 0,0.546875 -0.125,0.546875 -0.90625,0.546875 V 0 c 0.34375,-0.03125 0.921875,-0.03125 1.28125,-0.03125 0.359375,0 0.953125,0 1.296875,0.03125 v -0.34375 c -0.765625,0 -0.90625,0 -0.90625,-0.546875 z m 0,0"
             id="path14" />
        </g>
      </g>
    </g>
    <g
       inkscape:label=""
       transform="translate(22.90308,37.117141)"
       id="g17">
      <g
         fill="#000000"
         fill-opacity="1"
         id="g16"
         transform="matrix(0.352778,0,0,0.352778,-0.818841,-0.704541)">
        <g
           id="g15"
           transform="translate(1.993,10.294)">
          <path
             d="M 2,-8.296875 0.328125,-8.15625 v 0.34375 c 0.8125,0 0.921875,0.078125 0.921875,0.671875 V 0 H 1.5 C 1.546875,-0.09375 1.890625,-0.6875 1.9375,-0.78125 2.21875,-0.328125 2.71875,0.125 3.484375,0.125 c 1.375,0 2.59375,-1.171875 2.59375,-2.703125 0,-1.515625 -1.125,-2.6875 -2.453125,-2.6875 -0.65625,0 -1.21875,0.296875 -1.625,0.796875 z m 0.015625,4.46875 c 0,-0.21875 0,-0.234375 0.140625,-0.421875 0.28125,-0.4375 0.8125,-0.78125 1.390625,-0.78125 0.359375,0 1.609375,0.140625 1.609375,2.4375 0,0.796875 -0.109375,1.296875 -0.40625,1.734375 -0.234375,0.375 -0.703125,0.734375 -1.3125,0.734375 -0.640625,0 -1.0625,-0.40625 -1.265625,-0.734375 -0.15625,-0.25 -0.15625,-0.296875 -0.15625,-0.5 z m 0,0"
             id="path15" />
        </g>
      </g>
    </g>
    <path
       style="fill:none;stroke:#000006;stroke-width:0.253369;stroke-linecap:butt;stroke-linejoin:bevel;stroke-dasharray:none;marker-start:url(#Triangle);marker-end:url(#Triangle)"
       d="m 20.971566,40.995668 6.028396,0.0044"
       id="path17" />
    <path
       style="fill:none;stroke:#000006;stroke-width:0.170907;stroke-linecap:butt;stroke-linejoin:bevel;stroke-dasharray:none;marker-start:url(#Triangle-6);marker-end:url(#Triangle-6)"
       d="m 28.56373,40.490546 2.877531,-2.873334"
       id="path17-9" />
    <path
       style="fill:none;stroke:#000006;stroke-width:0.2;stroke-linecap:round;stroke-linejoin:bevel;stroke-dasharray:none"
       d="M 21.5,28.5 20,30 h 8 l 4,-4 H 23.5 L 22,27.5 h -5 -3"
       id="path23"
       sodipodi:nodetypes="cccccccc" />
    <path
       style="fill:none;stroke:#000006;stroke-width:0.2;stroke-linecap:round;stroke-linejoin:bevel;stroke-dasharray:none"
       d="m 11.5,28.5 c 3.332705,0 6.518255,0 10,0"
       id="path24"
       sodipodi:nodetypes="cc" />
    <circle
       style="fill:none;stroke:#000006;stroke-width:0.319727;stroke-linecap:round;stroke-linejoin:bevel;stroke-dasharray:none"
       id="path25"
       cx="8.934"
       cy="27.993999"
       r="2.5901363" />
    <g
       inkscape:label=""
       transform="translate(7.450215,26.748936)"
       id="g27">
      <g
         fill="#000000"
         fill-opacity="1"
         id="g3"
         transform="matrix(0.352778,0,0,0.352778,-0.818841,-0.661238)">
        <g
           id="use2"
           transform="translate(1.993,7.1399999)">
          <path
             d="M 4.078125,-0.6875 C 4.234375,-0.03125 4.8125,0.125 5.09375,0.125 c 0.375,0 0.671875,-0.25 0.859375,-0.65625 0.203125,-0.4375 0.359375,-1.140625 0.359375,-1.171875 0,-0.0625 -0.046875,-0.109375 -0.125,-0.109375 -0.109375,0 -0.109375,0.0625 -0.15625,0.234375 C 5.8125,-0.75 5.59375,-0.125 5.109375,-0.125 4.75,-0.125 4.75,-0.515625 4.75,-0.671875 4.75,-0.9375 4.796875,-1.0625 4.90625,-1.5625 5,-1.890625 5.078125,-2.21875 5.15625,-2.546875 L 5.640625,-4.5 C 5.71875,-4.796875 5.71875,-4.8125 5.71875,-4.859375 c 0,-0.171875 -0.140625,-0.296875 -0.3125,-0.296875 -0.34375,0 -0.4375,0.296875 -0.5,0.609375 -0.125,0.453125 -0.765625,3.03125 -0.859375,3.453125 0,0 -0.46875,0.96875 -1.34375,0.96875 -0.625,0 -0.75,-0.53125 -0.75,-0.96875 0,-0.6875 0.34375,-1.640625 0.65625,-2.4375 C 2.75,-3.921875 2.8125,-4.078125 2.8125,-4.3125 c 0,-0.515625 -0.375,-0.953125 -0.953125,-0.953125 -1.09375,0 -1.53125,1.734375 -1.53125,1.828125 0,0.046875 0.046875,0.109375 0.125,0.109375 0.109375,0 0.125,-0.046875 0.171875,-0.21875 0.28125,-1.03125 0.75,-1.484375 1.203125,-1.484375 0.125,0 0.3125,0.015625 0.3125,0.390625 0,0.3125 -0.125,0.65625 -0.3125,1.109375 C 1.296875,-2.109375 1.25,-1.65625 1.25,-1.296875 1.25,-0.078125 2.15625,0.125 2.65625,0.125 c 0.765625,0 1.1875,-0.53125 1.421875,-0.8125 z m 0,0"
             id="path26" />
        </g>
      </g>
      <g
         fill="#000000"
         fill-opacity="1"
         id="g4"
         transform="matrix(0.352778,0,0,0.352778,-0.818841,-0.661238)">
        <g
           id="use3"
           transform="translate(8.6549997,8.9329996)">
          <path
             d="m 1.546875,-4.90625 c 0,-0.234375 -0.171875,-0.453125 -0.4375,-0.453125 -0.234375,0 -0.4375,0.1875 -0.4375,0.4375 0,0.28125 0.234375,0.453125 0.4375,0.453125 0.28125,0 0.4375,-0.234375 0.4375,-0.4375 z m -1.1875,1.484375 v 0.265625 c 0.515625,0 0.578125,0.046875 0.578125,0.4375 V -0.625 c 0,0.359375 -0.09375,0.359375 -0.609375,0.359375 V 0 c 0.3125,-0.03125 0.765625,-0.03125 0.890625,-0.03125 0.09375,0 0.578125,0 0.859375,0.03125 v -0.265625 c -0.53125,0 -0.5625,-0.03125 -0.5625,-0.34375 v -2.90625 z m 0,0"
             id="path27" />
        </g>
      </g>
    </g>
    <g
       inkscape:label=""
       transform="translate(75.490582,17.662845)"
       id="g30">
      <g
         fill="#000000"
         fill-opacity="1"
         id="g29"
         transform="matrix(0.352778,0,0,0.352778,-0.873963,-0.707231)">
        <g
           id="g28"
           transform="translate(1.993,10.161)">
          <path
             d="m 4.40625,-7.28125 c 0.09375,-0.421875 0.125,-0.53125 1,-0.53125 0.265625,0 0.359375,0 0.359375,-0.234375 0,-0.109375 -0.140625,-0.109375 -0.171875,-0.109375 -0.21875,0 -0.484375,0.015625 -0.6875,0.015625 H 3.4375 c -0.25,0 -0.515625,-0.015625 -0.765625,-0.015625 -0.09375,0 -0.21875,0 -0.21875,0.21875 0,0.125 0.09375,0.125 0.328125,0.125 0.75,0 0.75,0.09375 0.75,0.21875 0,0.09375 -0.03125,0.15625 -0.046875,0.265625 l -1.625,6.4375 c -0.109375,0.421875 -0.125,0.546875 -1,0.546875 -0.265625,0 -0.375,0 -0.375,0.21875 0,0.125 0.125,0.125 0.1875,0.125 0.21875,0 0.46875,-0.03125 0.6875,-0.03125 h 1.46875 c 0.25,0 0.5,0.03125 0.75,0.03125 0.09375,0 0.234375,0 0.234375,-0.21875 0,-0.125 -0.078125,-0.125 -0.328125,-0.125 -0.75,0 -0.75,-0.09375 -0.75,-0.234375 0,-0.03125 0,-0.09375 0.046875,-0.28125 z m 0,0"
             id="path28" />
        </g>
      </g>
    </g>
    <g
       inkscape:label=""
       transform="translate(72.646309,25.190406)"
       id="g33">
      <g
         fill="#000000"
         fill-opacity="1"
         id="g32"
         transform="matrix(0.352778,0,0,0.352778,-0.896011,-0.707231)">
        <g
           id="g31"
           transform="translate(1.993,10.161)">
          <path
             d="m 8.84375,-6.90625 c 0.140625,-0.515625 0.328125,-0.875 1.234375,-0.90625 0.03125,0 0.171875,-0.015625 0.171875,-0.21875 0,-0.125 -0.109375,-0.125 -0.15625,-0.125 -0.234375,0 -0.84375,0.015625 -1.078125,0.015625 H 8.4375 c -0.171875,0 -0.375,-0.015625 -0.546875,-0.015625 -0.078125,0 -0.21875,0 -0.21875,0.21875 0,0.125 0.09375,0.125 0.1875,0.125 C 8.578125,-7.796875 8.625,-7.515625 8.625,-7.296875 8.625,-7.203125 8.609375,-7.15625 8.578125,-7 L 7.21875,-1.609375 4.65625,-7.953125 C 4.578125,-8.15625 4.5625,-8.15625 4.296875,-8.15625 H 2.84375 c -0.234375,0 -0.34375,0 -0.34375,0.21875 0,0.125 0.078125,0.125 0.3125,0.125 0.0625,0 0.765625,0 0.765625,0.109375 0,0.015625 -0.03125,0.109375 -0.046875,0.15625 L 1.953125,-1.21875 c -0.140625,0.578125 -0.4375,0.84375 -1.21875,0.875 -0.0625,0 -0.1875,0.015625 -0.1875,0.21875 0,0.125 0.125,0.125 0.15625,0.125 0.234375,0 0.84375,-0.03125 1.09375,-0.03125 h 0.5625 C 2.53125,-0.03125 2.734375,0 2.90625,0 2.984375,0 3.125,0 3.125,-0.234375 3.125,-0.328125 3,-0.34375 2.953125,-0.34375 2.5625,-0.359375 2.171875,-0.4375 2.171875,-0.859375 c 0,-0.09375 0.03125,-0.203125 0.046875,-0.296875 l 1.625,-6.390625 c 0.0625,0.109375 0.0625,0.140625 0.109375,0.25 l 2.84375,7.078125 C 6.859375,-0.078125 6.890625,0 7,0 7.109375,0 7.125,-0.03125 7.171875,-0.234375 Z m 0,0"
             id="path30" />
        </g>
      </g>
    </g>
    <path
       style="fill:none;stroke:#000006;stroke-width:0.2;stroke-linecap:round;stroke-linejoin:bevel;stroke-dasharray:none"
       d="M 14.013248,27.5 H 11.585194"
       id="path33" />
    <g
       inkscape:label=""
       transform="translate(13.514017,20.776995)"
       id="g36">
      <g
         fill="#000000"
         fill-opacity="1"
         id="g35"
         transform="matrix(0.352778,0,0,0.352778,-0.846402,-0.57494)">
        <g
           id="g34"
           transform="translate(1.993,10.161)">
          <path
             d="M 2.03125,-1.328125 C 1.609375,-0.625 1.203125,-0.375 0.640625,-0.34375 0.5,-0.328125 0.40625,-0.328125 0.40625,-0.125 c 0,0.078125 0.0625,0.125 0.140625,0.125 0.21875,0 0.75,-0.03125 0.96875,-0.03125 C 1.859375,-0.03125 2.25,0 2.578125,0 c 0.078125,0 0.21875,0 0.21875,-0.234375 0,-0.09375 -0.09375,-0.109375 -0.171875,-0.109375 -0.265625,-0.03125 -0.5,-0.125 -0.5,-0.40625 0,-0.171875 0.078125,-0.296875 0.234375,-0.5625 l 0.90625,-1.515625 H 6.3125 c 0.015625,0.109375 0.015625,0.203125 0.015625,0.3125 0.046875,0.3125 0.1875,1.5625 0.1875,1.78125 0,0.359375 -0.609375,0.390625 -0.796875,0.390625 -0.140625,0 -0.265625,0 -0.265625,0.21875 C 5.453125,0 5.5625,0 5.625,0 5.828125,0 6.078125,-0.03125 6.28125,-0.03125 H 6.953125 C 7.6875,-0.03125 8.21875,0 8.21875,0 8.3125,0 8.4375,0 8.4375,-0.234375 8.4375,-0.34375 8.328125,-0.34375 8.15625,-0.34375 7.5,-0.34375 7.484375,-0.453125 7.453125,-0.8125 L 6.71875,-8.265625 c -0.03125,-0.25 -0.078125,-0.265625 -0.203125,-0.265625 -0.125,0 -0.1875,0.015625 -0.296875,0.203125 z M 3.46875,-3.171875 5.875,-7.1875 6.28125,-3.171875 Z m 0,0"
             id="path34" />
        </g>
      </g>
    </g>
    <path
       style="fill:none;stroke:#000006;stroke-width:0.2;stroke-linecap:round;stroke-linejoin:bevel;stroke-dasharray:none"
       d="M 24.5,27.5 17,22.999999"
       id="path36" />
    <path
       style="fill:none;stroke:#000006;stroke-width:0.2;stroke-linecap:round;stroke-linejoin:bevel;stroke-dasharray:none;marker-end:url(#Triangle)"
       d="M 16.9,31.518489 19,30.499999"
       id="path37" />
    <g
       inkscape:label=""
       transform="translate(12.796743,30.448327)"
       id="g42">
      <g
         fill="#000000"
         fill-opacity="1"
         id="g39"
         transform="matrix(0.352778,0,0,0.352778,-0.896011,-0.707584)">
        <g
           id="g38"
           transform="translate(1.993,10.162)">
          <path
             d="m 8.84375,-6.90625 c 0.140625,-0.515625 0.328125,-0.875 1.234375,-0.90625 0.03125,0 0.171875,-0.015625 0.171875,-0.21875 0,-0.125 -0.109375,-0.125 -0.15625,-0.125 -0.234375,0 -0.84375,0.015625 -1.078125,0.015625 H 8.4375 c -0.171875,0 -0.375,-0.015625 -0.546875,-0.015625 -0.078125,0 -0.21875,0 -0.21875,0.21875 0,0.125 0.09375,0.125 0.1875,0.125 C 8.578125,-7.796875 8.625,-7.515625 8.625,-7.296875 8.625,-7.203125 8.609375,-7.15625 8.578125,-7 L 7.21875,-1.609375 4.65625,-7.953125 C 4.578125,-8.15625 4.5625,-8.15625 4.296875,-8.15625 H 2.84375 c -0.234375,0 -0.34375,0 -0.34375,0.21875 0,0.125 0.078125,0.125 0.3125,0.125 0.0625,0 0.765625,0 0.765625,0.109375 0,0.015625 -0.03125,0.109375 -0.046875,0.15625 L 1.953125,-1.21875 c -0.140625,0.578125 -0.4375,0.84375 -1.21875,0.875 -0.0625,0 -0.1875,0.015625 -0.1875,0.21875 0,0.125 0.125,0.125 0.15625,0.125 0.234375,0 0.84375,-0.03125 1.09375,-0.03125 h 0.5625 C 2.53125,-0.03125 2.734375,0 2.90625,0 2.984375,0 3.125,0 3.125,-0.234375 3.125,-0.328125 3,-0.34375 2.953125,-0.34375 2.5625,-0.359375 2.171875,-0.4375 2.171875,-0.859375 c 0,-0.09375 0.03125,-0.203125 0.046875,-0.296875 l 1.625,-6.390625 c 0.0625,0.109375 0.0625,0.140625 0.109375,0.25 l 2.84375,7.078125 C 6.859375,-0.078125 6.890625,0 7,0 7.109375,0 7.125,-0.03125 7.171875,-0.234375 Z m 0,0"
             id="path38" />
        </g>
      </g>
      <g
         fill="#000000"
         fill-opacity="1"
         id="g41"
         transform="matrix(0.352778,0,0,0.352778,-0.896011,-0.707584)">
        <g
           id="g40"
           transform="translate(11.366,11.955)">
          <path
             d="m 2.9375,-3.15625 c -0.234375,0.0625 -0.265625,0.25 -0.265625,0.34375 0,0.21875 0.15625,0.375 0.375,0.375 0.21875,0 0.375,-0.140625 0.375,-0.390625 0,-0.484375 -0.53125,-0.71875 -1.28125,-0.71875 -1.109375,0 -1.859375,0.875 -1.859375,1.828125 0,1.015625 0.828125,1.796875 1.828125,1.796875 1.125,0 1.40625,-0.9375 1.40625,-1.03125 0,-0.09375 -0.109375,-0.09375 -0.125,-0.09375 -0.0625,0 -0.09375,0 -0.125,0.078125 -0.046875,0.171875 -0.28125,0.796875 -1.078125,0.796875 -0.484375,0 -1.203125,-0.375 -1.203125,-1.5625 0,-1.140625 0.59375,-1.578125 1.171875,-1.578125 0.078125,0 0.5,0 0.78125,0.15625 z m 0,0"
             id="path39" />
        </g>
      </g>
    </g>
  </g>
</svg>
