<?xml version="1.0" encoding="UTF-8" standalone="no"?>
<!-- Created with Inkscape (http://www.inkscape.org/) -->

<svg
   width="50mm"
   height="35mm"
   viewBox="0 0 50 35"
   version="1.1"
   id="svg1"
   inkscape:version="1.3.2 (091e20e, 2023-11-25, custom)"
   sodipodi:docname="solution_LorentzForce.svg"
   xmlns:inkscape="http://www.inkscape.org/namespaces/inkscape"
   xmlns:sodipodi="http://sodipodi.sourceforge.net/DTD/sodipodi-0.dtd"
   xmlns="http://www.w3.org/2000/svg"
   xmlns:svg="http://www.w3.org/2000/svg"
   xmlns:rdf="http://www.w3.org/1999/02/22-rdf-syntax-ns#"
   xmlns:cc="http://creativecommons.org/ns#"
   xmlns:dc="http://purl.org/dc/elements/1.1/">
  <sodipodi:namedview
     id="namedview1"
     pagecolor="#ffffff"
     bordercolor="#000000"
     borderopacity="0.25"
     inkscape:showpageshadow="2"
     inkscape:pageopacity="0.0"
     inkscape:pagecheckerboard="0"
     inkscape:deskcolor="#d1d1d1"
     inkscape:document-units="mm"
     showgrid="true"
     inkscape:zoom="2"
     inkscape:cx="35.25"
     inkscape:cy="30.75"
     inkscape:window-width="1920"
     inkscape:window-height="1009"
     inkscape:window-x="-8"
     inkscape:window-y="-8"
     inkscape:window-maximized="1"
     inkscape:current-layer="layer1">
    <inkscape:grid
       id="grid1"
       units="mm"
       originx="0"
       originy="0"
       spacingx="0.99999999"
       spacingy="0.99999999"
       empcolor="#0099e5"
       empopacity="0.30196078"
       color="#0099e5"
       opacity="0.14901961"
       empspacing="5"
       dotted="false"
       gridanglex="30"
       gridanglez="30"
       visible="true" />
  </sodipodi:namedview>
  <title
     id="title1">Electric Symbols</title>
  <defs
     id="defs1" />
  <g
     inkscape:label="Ebene 1"
     inkscape:groupmode="layer"
     id="layer1">
    <circle
       style="fill:none;stroke:#000000;stroke-width:0.2;stroke-linecap:square"
       id="path1"
       cx="12.863398"
       cy="26.136602"
       r="1" />
    <path
       style="fill:none;stroke:#000000;stroke-width:0.2;stroke-linecap:square"
       d="M 12.375362,25.26378 42.686252,7.7637803"
       id="path2" />
    <path
       style="fill:none;stroke:#000000;stroke-width:0.200006;stroke-linecap:square"
       d="M 13.404767,26.977388 43.726791,9.4750693"
       id="path3" />
    <circle
       style="fill:none;stroke:#000000;stroke-width:0.2;stroke-linecap:square"
       id="path1-4"
       cx="43.324528"
       cy="8.5491362"
       r="1" />
    <path
       style="fill:#000000;fill-opacity:1;stroke:#000000;stroke-width:0.2;stroke-linecap:square;stroke-opacity:1"
       d="M 12.863398,26.136603 9.3992975,28.136604"
       id="path4" />
    <path
       style="fill:#000000;fill-opacity:1;stroke:none;stroke-width:0.2;stroke-linecap:square;stroke-opacity:1"
       d="M 9.3992975,28.136604 8.8992979,27.27058 7.6672458,29.136603 9.8992965,29.00263 9.3992975,28.136604"
       id="path5" />
    <circle
       style="fill:#000000;fill-opacity:1;stroke:none;stroke-width:0.2;stroke-linecap:square;stroke-opacity:1"
       id="path6"
       cx="29.869125"
       cy="16.32745"
       r="0.34999999" />
    <path
       style="fill:#000000;fill-opacity:1;stroke:none;stroke-width:0.2;stroke-linecap:square;stroke-opacity:1"
       d="m 29.863399,23.136604 0.999998,1e-6 -0.999996,1.999999 -1.000002,-2 h 1"
       id="path5-6" />
    <path
       style="fill:none;fill-opacity:1;stroke:#000000;stroke-width:0.2;stroke-linecap:square;stroke-opacity:1"
       d="m 29.863399,16.617052 v 6.516283"
       id="path7" />
    <path
       style="fill:none;fill-opacity:1;stroke:#000000;stroke-width:0.2;stroke-linecap:square;stroke-opacity:1"
       d="M 39.204151,16.327451 H 30.009122"
       id="path7-5" />
    <path
       style="fill:#000000;fill-opacity:1;stroke:none;stroke-width:0.2;stroke-linecap:square;stroke-opacity:1"
       d="m 39.25938,16.32745 v -0.999998 l 2,0.999996 -2,1.000002 v -1"
       id="path5-6-4" />
    <g
       inkscape:label=""
       transform="translate(18.098013,11.871107)"
       id="g18">
      <g
         fill="#000000"
         fill-opacity="1"
         id="g14"
         transform="matrix(0.352778,0,0,0.352778,-0.818841,-0.614848)">
        <g
           id="g13"
           transform="translate(1.993,9.6960001)">
          <path
             d="m 5.46875,-4.46875 c 0,-0.75 -0.390625,-0.796875 -0.484375,-0.796875 -0.28125,0 -0.546875,0.28125 -0.546875,0.515625 0,0.140625 0.078125,0.234375 0.125,0.28125 C 4.6875,-4.359375 5,-4.046875 5,-3.421875 c 0,0.5 -0.71875,3.296875 -2.15625,3.296875 -0.734375,0 -0.875,-0.609375 -0.875,-1.046875 0,-0.59375 0.28125,-1.4375 0.59375,-2.296875 0.203125,-0.484375 0.25,-0.609375 0.25,-0.84375 0,-0.5 -0.359375,-0.953125 -0.953125,-0.953125 -1.09375,0 -1.53125,1.734375 -1.53125,1.828125 0,0.046875 0.046875,0.109375 0.125,0.109375 0.109375,0 0.125,-0.046875 0.171875,-0.21875 0.28125,-1.03125 0.75,-1.484375 1.203125,-1.484375 0.109375,0 0.3125,0 0.3125,0.390625 0,0.3125 -0.125,0.65625 -0.3125,1.109375 C 1.25,-2 1.25,-1.625 1.25,-1.34375 c 0,0.265625 0.046875,0.765625 0.40625,1.09375 0.4375,0.375 1.03125,0.375 1.140625,0.375 1.984375,0 2.671875,-3.921875 2.671875,-4.59375 z m 0,0"
             id="path13" />
        </g>
      </g>
      <g
         fill="#000000"
         fill-opacity="1"
         id="g17"
         transform="matrix(0.352778,0,0,0.352778,-0.818841,-0.614848)">
        <g
           id="g15"
           transform="translate(8.0810003,9.6960001)">
          <path
             d="m 8.0625,-3.875 c 0.171875,0 0.390625,0 0.390625,-0.21875 C 8.453125,-4.3125 8.25,-4.3125 8.0625,-4.3125 H 1.03125 c -0.171875,0 -0.390625,0 -0.390625,0.21875 0,0.21875 0.203125,0.21875 0.390625,0.21875 z m 0,2.21875 c 0.171875,0 0.390625,0 0.390625,-0.203125 C 8.453125,-2.09375 8.25,-2.09375 8.0625,-2.09375 H 1.03125 c -0.171875,0 -0.390625,0 -0.390625,0.21875 0,0.21875 0.203125,0.21875 0.390625,0.21875 z m 0,0"
             id="path14" />
        </g>
        <g
           id="g16"
           transform="translate(17.186081,9.6960001)">
          <path
             d="m 5.359375,-3.828125 c 0,-0.984375 -0.0625,-1.953125 -0.5,-2.859375 -0.484375,-1 -1.34375,-1.265625 -1.9375,-1.265625 -0.6875,0 -1.53125,0.34375 -1.984375,1.34375 -0.328125,0.75 -0.453125,1.5 -0.453125,2.78125 0,1.15625 0.09375,2.03125 0.515625,2.890625 0.46875,0.90625 1.296875,1.1875 1.921875,1.1875 1.03125,0 1.625,-0.625 1.984375,-1.3125 0.421875,-0.890625 0.453125,-2.0625 0.453125,-2.765625 z m -2.4375,3.84375 C 2.53125,0.015625 1.75,-0.203125 1.53125,-1.5 c -0.125,-0.71875 -0.125,-1.625 -0.125,-2.46875 0,-0.984375 0,-1.859375 0.1875,-2.5625 0.203125,-0.8125 0.8125,-1.171875 1.328125,-1.171875 0.453125,0 1.140625,0.265625 1.375,1.296875 0.15625,0.6875 0.15625,1.625 0.15625,2.4375 0,0.796875 0,1.703125 -0.140625,2.4375 -0.21875,1.3125 -0.984375,1.546875 -1.390625,1.546875 z m 0,0"
             id="path15" />
        </g>
      </g>
    </g>
    <g
       inkscape:label=""
       transform="translate(8.5902144,22.73376)"
       id="g19">
      <g
         fill="#000000"
         fill-opacity="1"
         id="g2"
         transform="matrix(0.352778,0,0,0.352778,-1.08894,-0.614848)">
        <g
           id="use1"
           transform="translate(1.993,9.6960001)">
          <path
             d="m 3.4375,-7.65625 c 0,-0.28125 0,-0.296875 -0.234375,-0.296875 C 2.921875,-7.625 2.3125,-7.1875 1.09375,-7.1875 v 0.34375 c 0.265625,0 0.859375,0 1.53125,-0.296875 v 6.21875 c 0,0.4375 -0.046875,0.578125 -1.09375,0.578125 h -0.375 V 0 c 0.328125,-0.03125 1.484375,-0.03125 1.875,-0.03125 0.40625,0 1.546875,0 1.875,0.03125 v -0.34375 h -0.375 c -1.046875,0 -1.09375,-0.140625 -1.09375,-0.578125 z m 0,0"
             id="path18" />
        </g>
      </g>
    </g>
    <g
       inkscape:label=""
       transform="translate(44.78825,5.1011783)"
       id="g22">
      <g
         fill="#000000"
         fill-opacity="1"
         id="g21"
         transform="matrix(0.352778,0,0,0.352778,-0.907036,-0.614848)">
        <g
           id="g20"
           transform="translate(1.993,9.6960001)">
          <path
             d="M 5.265625,-2.015625 H 5 c -0.046875,0.203125 -0.140625,0.875 -0.25,1.0625 C 4.65625,-0.84375 3.984375,-0.84375 3.625,-0.84375 H 1.40625 c 0.328125,-0.28125 1.0625,-1.046875 1.359375,-1.328125 1.828125,-1.671875 2.5,-2.296875 2.5,-3.484375 0,-1.375 -1.09375,-2.296875 -2.484375,-2.296875 -1.375,0 -2.203125,1.1875 -2.203125,2.21875 0,0.609375 0.53125,0.609375 0.5625,0.609375 0.265625,0 0.5625,-0.1875 0.5625,-0.5625 0,-0.34375 -0.21875,-0.5625 -0.5625,-0.5625 -0.09375,0 -0.125,0 -0.15625,0.015625 0.21875,-0.8125 0.875,-1.375 1.640625,-1.375 1.015625,0 1.640625,0.859375 1.640625,1.953125 C 4.265625,-4.640625 3.6875,-3.75 3,-2.984375 L 0.578125,-0.28125 V 0 h 4.375 z m 0,0"
             id="path19" />
        </g>
      </g>
    </g>
    <path
       style="fill:none;fill-opacity:1;stroke:#000000;stroke-width:0.2;stroke-linecap:square;stroke-opacity:1"
       id="path22"
       sodipodi:type="arc"
       sodipodi:cx="29.969126"
       sodipodi:cy="16.42745"
       sodipodi:rx="2.3999999"
       sodipodi:ry="2.4000001"
       sodipodi:start="0"
       sodipodi:end="1.5707963"
       sodipodi:arc-type="arc"
       d="m 32.369126,16.42745 a 2.3999999,2.4000001 0 0 1 -2.4,2.4"
       sodipodi:open="true" />
    <circle
       style="fill:#000000;fill-opacity:1;stroke:none;stroke-width:0.2;stroke-linecap:square;stroke-opacity:1"
       id="path6-9"
       cx="30.969126"
       cy="17.42745"
       r="0.2" />
    <g
       inkscape:label=""
       transform="translate(43.362343,15.1074)"
       id="g25">
      <g
         fill="#000000"
         fill-opacity="1"
         id="g24"
         transform="matrix(0.352778,0,0,0.352778,-0.884987,-0.73025)">
        <g
           id="g23"
           transform="translate(1.993,10.195)">
          <path
             d="m 4.375,-3.796875 h 0.78125 c 0.71875,0 0.921875,0.125 0.921875,0.515625 0,0.140625 -0.046875,0.359375 -0.078125,0.515625 -0.03125,0.078125 -0.03125,0.140625 -0.03125,0.15625 0,0.1875 0.15625,0.21875 0.265625,0.21875 0.234375,0 0.25,-0.078125 0.296875,-0.28125 L 7.203125,-5.34375 C 7.25,-5.5 7.25,-5.515625 7.25,-5.53125 7.25,-5.75 7.015625,-5.75 6.96875,-5.75 c -0.234375,0 -0.25,0.078125 -0.3125,0.3125 -0.234375,0.90625 -0.609375,1.09375 -1.46875,1.09375 H 4.515625 L 5.3125,-7.546875 C 5.46875,-7.5625 5.59375,-7.5625 5.71875,-7.5625 h 1.421875 c 1.359375,0 1.78125,0.34375 1.78125,1.390625 0,0.296875 -0.046875,0.65625 -0.046875,0.703125 0,0.21875 0.21875,0.21875 0.28125,0.21875 0.25,0 0.265625,-0.109375 0.28125,-0.328125 L 9.65625,-7.71875 9.671875,-7.90625 C 9.671875,-8.125 9.46875,-8.125 9.28125,-8.125 h -6.4375 c -0.25,0 -0.265625,0.015625 -0.328125,0.0625 -0.078125,0.046875 -0.09375,0.265625 -0.09375,0.28125 0,0.21875 0.15625,0.21875 0.484375,0.21875 0.25,0 0.46875,0.015625 0.734375,0.015625 l -1.6875,6.75 c -0.046875,0.1875 -0.0625,0.203125 -0.28125,0.21875 -0.203125,0.015625 -0.4375,0.015625 -0.625,0.015625 -0.3125,0 -0.34375,0 -0.390625,0.03125 -0.140625,0.078125 -0.140625,0.265625 -0.140625,0.3125 0,0.015625 0,0.21875 0.265625,0.21875 0.296875,0 0.609375,-0.03125 0.90625,-0.03125 0.328125,0 0.640625,0 0.96875,0 0.359375,0 0.71875,0 1.078125,0 C 4.078125,-0.03125 4.421875,0 4.75,0 4.90625,0 5.109375,0 5.109375,-0.34375 5.109375,-0.5625 4.90625,-0.5625 4.71875,-0.5625 H 4.328125 c -0.453125,0 -0.640625,-0.015625 -0.75,-0.046875 z m 0,0"
             id="path16" />
        </g>
      </g>
    </g>
    <g
       inkscape:label=""
       transform="translate(32.779003,23.044905)"
       id="g30">
      <g
         fill="#000000"
         fill-opacity="1"
         id="g27"
         transform="matrix(0.352778,0,0,0.352778,-0.884987,-0.702689)">
        <g
           id="g26"
           transform="translate(1.993,10.195)">
          <path
             d="m 1.953125,-0.796875 c -0.046875,0.1875 -0.0625,0.203125 -0.28125,0.21875 -0.203125,0.015625 -0.4375,0.015625 -0.625,0.015625 -0.3125,0 -0.34375,0 -0.390625,0.03125 -0.140625,0.078125 -0.140625,0.265625 -0.140625,0.3125 C 0.515625,0 0.734375,0 0.921875,0 h 5.0625 c 2.5,0 3.625,-1.578125 3.625,-2.640625 0,-1.03125 -0.890625,-1.546875 -2,-1.640625 1.921875,-0.34375 2.59375,-1.453125 2.59375,-2.25 0,-0.984375 -0.859375,-1.671875 -2.546875,-1.671875 H 2.875 c -0.25,0 -0.453125,0 -0.453125,0.34375 0,0.21875 0.15625,0.21875 0.5,0.21875 0.25,0 0.484375,0.015625 0.734375,0.03125 z m 3.203125,-6.625 c 0.046875,-0.1875 0.0625,-0.1875 0.125,-0.203125 0.109375,-0.015625 0.1875,-0.015625 0.328125,-0.015625 h 1.78125 c 0.234375,0 1.203125,0 1.203125,1.046875 0,0.828125 -0.671875,2.109375 -2.296875,2.109375 H 4.40625 Z M 3.734375,-0.5625 c -0.1875,0 -0.203125,0 -0.296875,-0.015625 l 0.859375,-3.46875 h 2.34375 c 0.296875,0 1.3125,0 1.3125,1.21875 0,0.921875 -0.609375,2.265625 -2.3125,2.265625 z m 0,0"
             id="path25" />
        </g>
      </g>
      <g
         fill="#000000"
         fill-opacity="1"
         id="g29"
         transform="matrix(0.352778,0,0,0.352778,-0.884987,-0.702689)">
        <g
           id="g28"
           transform="translate(12.929,11.988)">
          <path
             d="M 3.0625,-5.46875 C 2.828125,-5.5 2.640625,-5.53125 2.421875,-5.53125 c -0.578125,0 -1.078125,0.171875 -1.359375,0.734375 -0.046875,0.09375 -0.09375,0.1875 -0.09375,0.296875 0,0.296875 0.4375,0.703125 0.734375,0.984375 -0.609375,0.609375 -1.25,1.421875 -1.25,2.234375 0,0.65625 0.34375,1.359375 1.171875,1.359375 1.046875,0 1.859375,-1.046875 1.859375,-2.078125 0,-0.4375 -0.234375,-0.84375 -0.53125,-1.140625 L 2.1875,-3.875 C 1.546875,-4.484375 1.359375,-4.609375 1.359375,-4.828125 c 0,-0.25 0.25,-0.3125 0.515625,-0.3125 0.53125,0 0.828125,0.046875 1.109375,0.0625 L 3.09375,-5.40625 Z m -1.171875,2.109375 c 0.484375,0.46875 1.09375,1.125 1.09375,1.6875 C 2.984375,-1 2.625,-0.34375 2.03125,-0.34375 c -0.6875,0 -0.96875,-0.765625 -0.96875,-1.34375 0,-0.609375 0.28125,-1.09375 0.828125,-1.671875 z m 0,0"
             id="path27" />
        </g>
      </g>
    </g>
  </g>
  <metadata
     id="metadata1">
    <rdf:RDF>
      <cc:Work
         rdf:about="">
        <dc:title>Electric Symbols</dc:title>
      </cc:Work>
    </rdf:RDF>
  </metadata>
</svg>
