<?xml version="1.0" encoding="UTF-8" standalone="no"?>
<!-- Created with Inkscape (http://www.inkscape.org/) -->

<svg
   width="92mm"
   height="47mm"
   viewBox="-1 -1 92 47"
   version="1.1"
   id="svg1"
   xml:space="preserve"
   inkscape:version="1.3.2 (091e20e, 2023-11-25, custom)"
   sodipodi:docname="CoilSurface.svg"
   xmlns:inkscape="http://www.inkscape.org/namespaces/inkscape"
   xmlns:sodipodi="http://sodipodi.sourceforge.net/DTD/sodipodi-0.dtd"
   xmlns="http://www.w3.org/2000/svg"
   xmlns:svg="http://www.w3.org/2000/svg"><sodipodi:namedview
     id="namedview1"
     pagecolor="#ffffff"
     bordercolor="#000000"
     borderopacity="0.25"
     inkscape:showpageshadow="2"
     inkscape:pageopacity="0.0"
     inkscape:pagecheckerboard="0"
     inkscape:deskcolor="#d1d1d1"
     inkscape:document-units="mm"
     showgrid="true"
     inkscape:zoom="2.8970538"
     inkscape:cx="135.13729"
     inkscape:cy="68.517885"
     inkscape:window-width="2560"
     inkscape:window-height="1369"
     inkscape:window-x="-8"
     inkscape:window-y="-8"
     inkscape:window-maximized="1"
     inkscape:current-layer="layer1"><inkscape:grid
       id="grid1"
       units="mm"
       originx="-3.3401361"
       originy="-2.509418"
       spacingx="0.99999999"
       spacingy="1"
       empcolor="#0099e5"
       empopacity="0.30196078"
       color="#0099e5"
       opacity="0.14901961"
       empspacing="5"
       dotted="false"
       gridanglex="30"
       gridanglez="30"
       visible="true" /></sodipodi:namedview><defs
     id="defs1"><marker
       style="overflow:visible"
       id="marker16"
       refX="0"
       refY="0"
       orient="auto-start-reverse"
       inkscape:stockid="Triangle arrow"
       markerWidth="1"
       markerHeight="1"
       viewBox="0 0 1 1"
       inkscape:isstock="true"
       inkscape:collect="always"
       preserveAspectRatio="xMidYMid"><path
         transform="scale(0.5)"
         style="fill:context-stroke;fill-rule:evenodd;stroke:context-stroke;stroke-width:1pt"
         d="M 5.77,0 -2.88,5 V -5 Z"
         id="path16" /></marker><marker
       style="overflow:visible"
       id="marker6"
       refX="0"
       refY="0"
       orient="auto-start-reverse"
       inkscape:stockid="Triangle arrow"
       markerWidth="1"
       markerHeight="1"
       viewBox="0 0 1 1"
       inkscape:isstock="true"
       inkscape:collect="always"
       preserveAspectRatio="xMidYMid"><path
         transform="scale(0.5)"
         style="fill:context-stroke;fill-rule:evenodd;stroke:context-stroke;stroke-width:1pt"
         d="M 5.77,0 -2.88,5 V -5 Z"
         id="path6" /></marker><marker
       style="overflow:visible"
       id="Triangle"
       refX="0"
       refY="0"
       orient="auto-start-reverse"
       inkscape:stockid="Triangle arrow"
       markerWidth="1"
       markerHeight="1"
       viewBox="0 0 1 1"
       inkscape:isstock="true"
       inkscape:collect="always"
       preserveAspectRatio="xMidYMid"><path
         transform="scale(0.5)"
         style="fill:context-stroke;fill-rule:evenodd;stroke:context-stroke;stroke-width:1pt"
         d="M 5.77,0 -2.88,5 V -5 Z"
         id="path135" /></marker></defs><g
     inkscape:label="Ebene 1"
     inkscape:groupmode="layer"
     id="layer1"
     transform="translate(-3.34014, -2.50942)"><path
       style="fill:none;stroke:#000006;stroke-width:0.2;stroke-linecap:round;stroke-linejoin:bevel"
       d="M 10,30 H 30 L 20,39.999999 H 64.999999 L 84.999998,20 89.999999,15 H 45 l -10,10 -25,-1e-6"
       id="path1"
       sodipodi:nodetypes="ccccccccc" /><path
       style="fill:none;stroke:#000006;stroke-width:0.2;stroke-linecap:round;stroke-linejoin:bevel;stroke-dasharray:none;marker-end:url(#Triangle)"
       d="M 49.997445,37.873732 49.985381,5.2579115"
       id="path2" /><path
       style="fill:none;stroke:#000006;stroke-width:0.2;stroke-linecap:round;stroke-linejoin:bevel;stroke-dasharray:none"
       d="m 50,42.148061 v 4.794742"
       id="path3" /><path
       style="fill:none;stroke:#000006;stroke-width:0.2;stroke-linecap:round;stroke-linejoin:bevel;stroke-dasharray:none"
       d="m 53,25 h 7.306273"
       id="path4" /><path
       style="fill:none;stroke:#000006;stroke-width:0.2;stroke-linecap:round;stroke-linejoin:bevel;stroke-dasharray:none;marker-end:url(#marker6)"
       d="m 56.120847,25 v 7"
       id="path5" /><path
       style="fill:none;stroke:#000006;stroke-width:0.203547;stroke-linecap:round;stroke-linejoin:bevel;stroke-dasharray:none"
       id="path7"
       sodipodi:type="arc"
       sodipodi:cx="56.12085"
       sodipodi:cy="24.999998"
       sodipodi:rx="2.0706725"
       sodipodi:ry="2.0706723"
       sodipodi:start="0.022105942"
       sodipodi:end="1.5409646"
       sodipodi:arc-type="arc"
       d="m 58.191016,25.045769 a 2.0706725,2.0706723 0 0 1 -2.008404,2.02398"
       sodipodi:open="true" /><circle
       style="fill:#000000;fill-opacity:1;stroke:#000006;stroke-width:0.2;stroke-linecap:round;stroke-linejoin:bevel;stroke-dasharray:none"
       id="path8"
       cx="56.937515"
       cy="25.816664"
       r="0.083333433" /><path
       style="fill:#000000;fill-opacity:1;stroke:#000006;stroke-width:0.2;stroke-linecap:round;stroke-linejoin:bevel;stroke-dasharray:none"
       d="m 63,14 v 2"
       id="path14" /><path
       style="fill:#000000;fill-opacity:1;stroke:#000006;stroke-width:0.2;stroke-linecap:round;stroke-linejoin:bevel;stroke-dasharray:none;marker-end:url(#marker16)"
       d="m 63,15 h 2.999999"
       id="path15" /><ellipse
       style="fill:#000000;fill-opacity:1;stroke:#000006;stroke-width:0.2;stroke-linecap:round;stroke-linejoin:bevel;stroke-dasharray:none"
       id="path23"
       cx="80"
       cy="25.011415"
       rx="0.5"
       ry="0.49999997" /><path
       style="fill:#000000;fill-opacity:1;stroke:#000006;stroke-width:0.2;stroke-linecap:round;stroke-linejoin:bevel;stroke-dasharray:none"
       d="m 80,24.999999 4.041453,7"
       id="path24" /><ellipse
       style="fill:none;fill-opacity:1;stroke:#000006;stroke-width:0.2;stroke-linecap:round;stroke-linejoin:bevel;stroke-dasharray:none"
       id="path26"
       cx="9.5"
       cy="24.999998"
       rx="0.5"
       ry="0.49999997" /><ellipse
       style="fill:none;fill-opacity:1;stroke:#000006;stroke-width:0.2;stroke-linecap:round;stroke-linejoin:bevel;stroke-dasharray:none"
       id="path26-7"
       cx="9.5"
       cy="30"
       rx="0.5"
       ry="0.49999997" /><path
       style="fill:none;fill-opacity:1;stroke:#000006;stroke-width:0.184876;stroke-linecap:round;stroke-linejoin:bevel;stroke-dasharray:none;marker-end:url(#marker6)"
       d="m 8.0000001,25.291046 v 3.417907"
       id="path27" /><g
       inkscape:label=""
       transform="translate(3.3401353,26.036971)"
       id="g31"><g
   fill="#000000"
   fill-opacity="1"
   id="g3"
   transform="matrix(0.352778,0,0,0.352778,-0.818841,-0.661238)">
    <g
   id="use2"
   transform="translate(1.993,7.1399999)">
      <path
   d="M 4.078125,-0.6875 C 4.234375,-0.03125 4.8125,0.125 5.09375,0.125 c 0.375,0 0.671875,-0.25 0.859375,-0.65625 0.203125,-0.4375 0.359375,-1.140625 0.359375,-1.171875 0,-0.0625 -0.046875,-0.109375 -0.125,-0.109375 -0.109375,0 -0.109375,0.0625 -0.15625,0.234375 C 5.8125,-0.75 5.59375,-0.125 5.109375,-0.125 4.75,-0.125 4.75,-0.515625 4.75,-0.671875 4.75,-0.9375 4.796875,-1.0625 4.90625,-1.5625 5,-1.890625 5.078125,-2.21875 5.15625,-2.546875 L 5.640625,-4.5 C 5.71875,-4.796875 5.71875,-4.8125 5.71875,-4.859375 c 0,-0.171875 -0.140625,-0.296875 -0.3125,-0.296875 -0.34375,0 -0.4375,0.296875 -0.5,0.609375 -0.125,0.453125 -0.765625,3.03125 -0.859375,3.453125 0,0 -0.46875,0.96875 -1.34375,0.96875 -0.625,0 -0.75,-0.53125 -0.75,-0.96875 0,-0.6875 0.34375,-1.640625 0.65625,-2.4375 C 2.75,-3.921875 2.8125,-4.078125 2.8125,-4.3125 c 0,-0.515625 -0.375,-0.953125 -0.953125,-0.953125 -1.09375,0 -1.53125,1.734375 -1.53125,1.828125 0,0.046875 0.046875,0.109375 0.125,0.109375 0.109375,0 0.125,-0.046875 0.171875,-0.21875 0.28125,-1.03125 0.75,-1.484375 1.203125,-1.484375 0.125,0 0.3125,0.015625 0.3125,0.390625 0,0.3125 -0.125,0.65625 -0.3125,1.109375 C 1.296875,-2.109375 1.25,-1.65625 1.25,-1.296875 1.25,-0.078125 2.15625,0.125 2.65625,0.125 c 0.765625,0 1.1875,-0.53125 1.421875,-0.8125 z m 0,0"
   id="path28" />
    </g>
  </g>
  <g
   fill="#000000"
   fill-opacity="1"
   id="g30"
   transform="matrix(0.352778,0,0,0.352778,-0.818841,-0.661238)">
    <g
   id="g29"
   transform="translate(8.6549997,8.9329996)">
      <path
   d="m 1.546875,-4.90625 c 0,-0.234375 -0.171875,-0.453125 -0.4375,-0.453125 -0.234375,0 -0.4375,0.1875 -0.4375,0.4375 0,0.28125 0.234375,0.453125 0.4375,0.453125 0.28125,0 0.4375,-0.234375 0.4375,-0.4375 z m -1.1875,1.484375 v 0.265625 c 0.515625,0 0.578125,0.046875 0.578125,0.4375 V -0.625 c 0,0.359375 -0.09375,0.359375 -0.609375,0.359375 V 0 c 0.3125,-0.03125 0.765625,-0.03125 0.890625,-0.03125 0.09375,0 0.578125,0 0.859375,0.03125 v -0.265625 c -0.53125,0 -0.5625,-0.03125 -0.5625,-0.34375 v -2.90625 z m 0,0"
   id="path29" />
    </g>
  </g>
</g><g
       inkscape:label=""
       transform="translate(52.257478,3.0169925)"
       id="g108"><g
   fill="#000000"
   fill-opacity="1"
   id="g73"
   transform="matrix(0.352778,0,0,0.352778,-0.884987,-0.702116)">
    <g
   id="g51"
   transform="translate(1.993,10.959)">
      <path
   d="m 1.953125,-0.796875 c -0.046875,0.1875 -0.0625,0.203125 -0.28125,0.21875 -0.203125,0.015625 -0.4375,0.015625 -0.625,0.015625 -0.3125,0 -0.34375,0 -0.390625,0.03125 -0.140625,0.078125 -0.140625,0.265625 -0.140625,0.3125 C 0.515625,0 0.734375,0 0.921875,0 h 5.0625 c 2.5,0 3.625,-1.578125 3.625,-2.640625 0,-1.03125 -0.890625,-1.546875 -2,-1.640625 1.921875,-0.34375 2.59375,-1.453125 2.59375,-2.25 0,-0.984375 -0.859375,-1.671875 -2.546875,-1.671875 H 2.875 c -0.25,0 -0.453125,0 -0.453125,0.34375 0,0.21875 0.15625,0.21875 0.5,0.21875 0.25,0 0.484375,0.015625 0.734375,0.03125 z m 3.203125,-6.625 c 0.046875,-0.1875 0.0625,-0.1875 0.125,-0.203125 0.109375,-0.015625 0.1875,-0.015625 0.328125,-0.015625 h 1.78125 c 0.234375,0 1.203125,0 1.203125,1.046875 0,0.828125 -0.671875,2.109375 -2.296875,2.109375 H 4.40625 Z M 3.734375,-0.5625 c -0.1875,0 -0.203125,0 -0.296875,-0.015625 l 0.859375,-3.46875 h 2.34375 c 0.296875,0 1.3125,0 1.3125,1.21875 0,0.921875 -0.609375,2.265625 -2.3125,2.265625 z m 0,0"
   id="path50" />
    </g>
  </g>
  <g
   fill="#000000"
   fill-opacity="1"
   id="g79"
   transform="matrix(0.352778,0,0,0.352778,-0.884987,-0.702116)">
    <g
   id="g78"
   transform="translate(12.929,12.752)">
      <path
   d="M 3.0625,-5.46875 C 2.828125,-5.5 2.640625,-5.53125 2.421875,-5.53125 c -0.578125,0 -1.078125,0.171875 -1.359375,0.734375 -0.046875,0.09375 -0.09375,0.1875 -0.09375,0.296875 0,0.296875 0.4375,0.703125 0.734375,0.984375 -0.609375,0.609375 -1.25,1.421875 -1.25,2.234375 0,0.65625 0.34375,1.359375 1.171875,1.359375 1.046875,0 1.859375,-1.046875 1.859375,-2.078125 0,-0.4375 -0.234375,-0.84375 -0.53125,-1.140625 L 2.1875,-3.875 C 1.546875,-4.484375 1.359375,-4.609375 1.359375,-4.828125 c 0,-0.25 0.25,-0.3125 0.515625,-0.3125 0.53125,0 0.828125,0.046875 1.109375,0.0625 L 3.09375,-5.40625 Z m -1.171875,2.109375 c 0.484375,0.46875 1.09375,1.125 1.09375,1.6875 C 2.984375,-1 2.625,-0.34375 2.03125,-0.34375 c -0.6875,0 -0.96875,-0.765625 -0.96875,-1.34375 0,-0.609375 0.28125,-1.09375 0.828125,-1.671875 z m 0,0"
   id="path77" />
    </g>
  </g>
  <g
   fill="#000000"
   fill-opacity="1"
   id="g81"
   transform="matrix(0.352778,0,0,0.352778,-0.884987,-0.702116)">
    <g
   id="g80"
   transform="translate(17.42,10.959)">
      <path
   d="m 3.890625,2.90625 c 0,-0.03125 0,-0.0625 -0.203125,-0.265625 C 2.484375,1.4375 1.8125,-0.53125 1.8125,-2.96875 c 0,-2.328125 0.5625,-4.328125 1.953125,-5.734375 0.125,-0.109375 0.125,-0.125 0.125,-0.171875 0,-0.0625 -0.0625,-0.09375 -0.109375,-0.09375 -0.15625,0 -1.140625,0.859375 -1.71875,2.03125 -0.609375,1.21875 -0.890625,2.484375 -0.890625,3.96875 0,1.0625 0.171875,2.484375 0.78125,3.75 C 2.671875,2.21875 3.640625,3 3.78125,3 3.828125,3 3.890625,2.96875 3.890625,2.90625 Z m 0,0"
   id="path79" />
    </g>
  </g>
  <g
   fill="#000000"
   fill-opacity="1"
   id="g83"
   transform="matrix(0.352778,0,0,0.352778,-0.884987,-0.702116)">
    <g
   id="g82"
   transform="translate(21.972,10.959)">
      <path
   d="M 2.40625,-4.8125 H 3.5 c 0.234375,0 0.34375,0 0.34375,-0.203125 0,-0.140625 -0.0625,-0.140625 -0.3125,-0.140625 H 2.484375 l 0.4375,-1.734375 C 2.96875,-7.0625 2.96875,-7.09375 2.96875,-7.171875 c 0,-0.1875 -0.140625,-0.296875 -0.296875,-0.296875 -0.109375,0 -0.375,0.03125 -0.46875,0.421875 l -0.46875,1.890625 h -1.125 c -0.234375,0 -0.34375,0 -0.34375,0.234375 0,0.109375 0.078125,0.109375 0.3125,0.109375 h 1.0625 L 0.84375,-1.65625 c -0.09375,0.421875 -0.125,0.546875 -0.125,0.703125 0,0.5625 0.390625,1.078125 1.0625,1.078125 1.203125,0 1.859375,-1.75 1.859375,-1.828125 0,-0.078125 -0.0625,-0.109375 -0.125,-0.109375 -0.03125,0 -0.078125,0 -0.09375,0.046875 C 3.40625,-1.75 3.390625,-1.75 3.3125,-1.546875 c -0.25,0.59375 -0.796875,1.421875 -1.5,1.421875 -0.359375,0 -0.375,-0.296875 -0.375,-0.5625 0,0 0,-0.234375 0.03125,-0.375 z m 0,0"
   id="path81" />
    </g>
  </g>
  <g
   fill="#000000"
   fill-opacity="1"
   id="g85"
   transform="matrix(0.352778,0,0,0.352778,-0.884987,-0.702116)">
    <g
   id="g84"
   transform="translate(26.198999,10.959)">
      <path
   d="M 3.375,-2.96875 C 3.375,-3.890625 3.25,-5.359375 2.578125,-6.75 1.875,-8.1875 0.890625,-8.96875 0.765625,-8.96875 c -0.046875,0 -0.109375,0.03125 -0.109375,0.09375 0,0.046875 0,0.0625 0.203125,0.265625 1.203125,1.203125 1.859375,3.1875 1.859375,5.625 0,2.3125 -0.5625,4.3125 -1.9375,5.71875 C 0.65625,2.84375 0.65625,2.875 0.65625,2.90625 0.65625,2.96875 0.71875,3 0.765625,3 0.921875,3 1.90625,2.140625 2.484375,0.96875 3.09375,-0.25 3.375,-1.546875 3.375,-2.96875 Z m 0,0"
   id="path83" />
    </g>
  </g>
  <g
   fill="#000000"
   fill-opacity="1"
   id="g16"
   transform="matrix(0.352778,0,0,0.352778,-0.884987,-0.702116)">
    <g
   id="g86"
   transform="translate(30.752001,10.959)">
      <path
   d="m 2.328125,0.046875 c 0,-0.6875 -0.21875,-1.203125 -0.71875,-1.203125 -0.375,0 -0.5625,0.3125 -0.5625,0.578125 C 1.046875,-0.328125 1.21875,0 1.625,0 1.78125,0 1.90625,-0.046875 2.015625,-0.15625 2.046875,-0.171875 2.0625,-0.171875 2.0625,-0.171875 c 0.03125,0 0.03125,0.15625 0.03125,0.21875 C 2.09375,0.4375 2.015625,1.21875 1.328125,2 1.1875,2.140625 1.1875,2.15625 1.1875,2.1875 c 0,0.0625 0.0625,0.125 0.125,0.125 0.09375,0 1.015625,-0.890625 1.015625,-2.265625 z m 0,0"
   id="path85" />
    </g>
  </g>
  <g
   fill="#000000"
   fill-opacity="1"
   id="g88"
   transform="matrix(0.352778,0,0,0.352778,-0.884987,-0.702116)">
    <g
   id="g87"
   transform="translate(36.000332,10.959)">
      <path
   d="m 5.421875,-4 c -0.0625,-0.65625 -0.484375,-1.46875 -1.5625,-1.46875 -1.6875,0 -3.40625,1.71875 -3.40625,3.609375 0,0.734375 0.5,2.109375 2.125,2.109375 2.828125,0 4.03125,-4.109375 4.03125,-5.75 0,-1.71875 -0.96875,-3.046875 -2.5,-3.046875 -1.734375,0 -2.25,1.515625 -2.25,1.84375 0,0.109375 0.078125,0.375 0.40625,0.375 0.421875,0 0.609375,-0.390625 0.609375,-0.59375 0,-0.375 -0.375,-0.375 -0.53125,-0.375 0.484375,-0.875 1.390625,-0.96875 1.71875,-0.96875 1.046875,0 1.71875,0.84375 1.71875,2.1875 C 5.78125,-5.3125 5.5625,-4.4375 5.4375,-4 Z M 2.625,-0.078125 c -1.125,0 -1.328125,-0.875 -1.328125,-1.375 0,-0.53125 0.34375,-1.765625 0.515625,-2.203125 0.15625,-0.359375 0.84375,-1.5625 2.078125,-1.5625 1.09375,0 1.34375,0.9375 1.34375,1.578125 0,0.890625 -0.78125,3.5625 -2.609375,3.5625 z m 0,0"
   id="path86" />
    </g>
  </g>
  <g
   fill="#000000"
   fill-opacity="1"
   id="g90"
   transform="matrix(0.352778,0,0,0.352778,-0.884987,-0.702116)">
    <g
   id="g89"
   transform="translate(42.826,10.959)">
      <path
   d="m 1.953125,-0.796875 c -0.046875,0.1875 -0.0625,0.203125 -0.28125,0.21875 -0.203125,0.015625 -0.4375,0.015625 -0.625,0.015625 -0.3125,0 -0.34375,0 -0.390625,0.03125 -0.140625,0.078125 -0.140625,0.265625 -0.140625,0.3125 C 0.515625,0 0.734375,0 0.921875,0 h 5.0625 c 2.5,0 3.625,-1.578125 3.625,-2.640625 0,-1.03125 -0.890625,-1.546875 -2,-1.640625 1.921875,-0.34375 2.59375,-1.453125 2.59375,-2.25 0,-0.984375 -0.859375,-1.671875 -2.546875,-1.671875 H 2.875 c -0.25,0 -0.453125,0 -0.453125,0.34375 0,0.21875 0.15625,0.21875 0.5,0.21875 0.25,0 0.484375,0.015625 0.734375,0.03125 z m 3.203125,-6.625 c 0.046875,-0.1875 0.0625,-0.1875 0.125,-0.203125 0.109375,-0.015625 0.1875,-0.015625 0.328125,-0.015625 h 1.78125 c 0.234375,0 1.203125,0 1.203125,1.046875 0,0.828125 -0.671875,2.109375 -2.296875,2.109375 H 4.40625 Z M 3.734375,-0.5625 c -0.1875,0 -0.203125,0 -0.296875,-0.015625 l 0.859375,-3.46875 h 2.34375 c 0.296875,0 1.3125,0 1.3125,1.21875 0,0.921875 -0.609375,2.265625 -2.3125,2.265625 z m 0,0"
   id="path88" />
    </g>
  </g>
  <g
   fill="#000000"
   fill-opacity="1"
   id="g92"
   transform="matrix(0.352778,0,0,0.352778,-0.884987,-0.702116)">
    <g
   id="g91"
   transform="translate(53.762001,12.752)">
      <path
   d="M 3.0625,-5.46875 C 2.828125,-5.5 2.640625,-5.53125 2.421875,-5.53125 c -0.578125,0 -1.078125,0.171875 -1.359375,0.734375 -0.046875,0.09375 -0.09375,0.1875 -0.09375,0.296875 0,0.296875 0.4375,0.703125 0.734375,0.984375 -0.609375,0.609375 -1.25,1.421875 -1.25,2.234375 0,0.65625 0.34375,1.359375 1.171875,1.359375 1.046875,0 1.859375,-1.046875 1.859375,-2.078125 0,-0.4375 -0.234375,-0.84375 -0.53125,-1.140625 L 2.1875,-3.875 C 1.546875,-4.484375 1.359375,-4.609375 1.359375,-4.828125 c 0,-0.25 0.25,-0.3125 0.515625,-0.3125 0.53125,0 0.828125,0.046875 1.109375,0.0625 L 3.09375,-5.40625 Z m -1.171875,2.109375 c 0.484375,0.46875 1.09375,1.125 1.09375,1.6875 C 2.984375,-1 2.625,-0.34375 2.03125,-0.34375 c -0.6875,0 -0.96875,-0.765625 -0.96875,-1.34375 0,-0.609375 0.28125,-1.09375 0.828125,-1.671875 z m 0,0"
   id="path90" />
    </g>
  </g>
  <g
   fill="#000000"
   fill-opacity="1"
   id="g95"
   transform="matrix(0.352778,0,0,0.352778,-0.884987,-0.702116)">
    <g
   id="g93"
   transform="translate(58.252998,10.959)">
      <path
   d="m 5.125,-8.515625 c 0,-0.015625 0.078125,-0.203125 0.078125,-0.21875 0,-0.140625 -0.125,-0.234375 -0.21875,-0.234375 -0.0625,0 -0.171875,0 -0.265625,0.265625 l -4,11.25 c 0,0.015625 -0.078125,0.1875 -0.078125,0.21875 0,0.140625 0.125,0.21875 0.21875,0.21875 0.078125,0 0.1875,-0.015625 0.265625,-0.265625 z m 0,0"
   id="path92" />
    </g>
    <g
   id="g94"
   transform="translate(64.106262,10.959)">
      <path
   d="m 5.421875,-4 c -0.0625,-0.65625 -0.484375,-1.46875 -1.5625,-1.46875 -1.6875,0 -3.40625,1.71875 -3.40625,3.609375 0,0.734375 0.5,2.109375 2.125,2.109375 2.828125,0 4.03125,-4.109375 4.03125,-5.75 0,-1.71875 -0.96875,-3.046875 -2.5,-3.046875 -1.734375,0 -2.25,1.515625 -2.25,1.84375 0,0.109375 0.078125,0.375 0.40625,0.375 0.421875,0 0.609375,-0.390625 0.609375,-0.59375 0,-0.375 -0.375,-0.375 -0.53125,-0.375 0.484375,-0.875 1.390625,-0.96875 1.71875,-0.96875 1.046875,0 1.71875,0.84375 1.71875,2.1875 C 5.78125,-5.3125 5.5625,-4.4375 5.4375,-4 Z M 2.625,-0.078125 c -1.125,0 -1.328125,-0.875 -1.328125,-1.375 0,-0.53125 0.34375,-1.765625 0.515625,-2.203125 0.15625,-0.359375 0.84375,-1.5625 2.078125,-1.5625 1.09375,0 1.34375,0.9375 1.34375,1.578125 0,0.890625 -0.78125,3.5625 -2.609375,3.5625 z m 0,0"
   id="path93" />
    </g>
  </g>
  <g
   fill="#000000"
   fill-opacity="1"
   id="g98"
   transform="matrix(0.352778,0,0,0.352778,-0.884987,-0.702116)">
    <g
   id="g96"
   transform="translate(70.931488,10.959)">
      <path
   d="M 2.40625,-4.8125 H 3.5 c 0.234375,0 0.34375,0 0.34375,-0.203125 0,-0.140625 -0.0625,-0.140625 -0.3125,-0.140625 H 2.484375 l 0.4375,-1.734375 C 2.96875,-7.0625 2.96875,-7.09375 2.96875,-7.171875 c 0,-0.1875 -0.140625,-0.296875 -0.296875,-0.296875 -0.109375,0 -0.375,0.03125 -0.46875,0.421875 l -0.46875,1.890625 h -1.125 c -0.234375,0 -0.34375,0 -0.34375,0.234375 0,0.109375 0.078125,0.109375 0.3125,0.109375 h 1.0625 L 0.84375,-1.65625 c -0.09375,0.421875 -0.125,0.546875 -0.125,0.703125 0,0.5625 0.390625,1.078125 1.0625,1.078125 1.203125,0 1.859375,-1.75 1.859375,-1.828125 0,-0.078125 -0.0625,-0.109375 -0.125,-0.109375 -0.03125,0 -0.078125,0 -0.09375,0.046875 C 3.40625,-1.75 3.390625,-1.75 3.3125,-1.546875 c -0.25,0.59375 -0.796875,1.421875 -1.5,1.421875 -0.359375,0 -0.375,-0.296875 -0.375,-0.5625 0,0 0,-0.234375 0.03125,-0.375 z m 0,0"
   id="path95" />
    </g>
    <g
   id="g97"
   transform="translate(75.158852,10.959)">
      <path
   d="m 2.328125,0.046875 c 0,-0.6875 -0.21875,-1.203125 -0.71875,-1.203125 -0.375,0 -0.5625,0.3125 -0.5625,0.578125 C 1.046875,-0.328125 1.21875,0 1.625,0 1.78125,0 1.90625,-0.046875 2.015625,-0.15625 2.046875,-0.171875 2.0625,-0.171875 2.0625,-0.171875 c 0.03125,0 0.03125,0.15625 0.03125,0.21875 C 2.09375,0.4375 2.015625,1.21875 1.328125,2 1.1875,2.140625 1.1875,2.15625 1.1875,2.1875 c 0,0.0625 0.0625,0.125 0.125,0.125 0.09375,0 1.015625,-0.890625 1.015625,-2.265625 z m 0,0"
   id="path96" />
    </g>
  </g>
  <g
   fill="#000000"
   fill-opacity="1"
   id="g100"
   transform="matrix(0.352778,0,0,0.352778,-0.884987,-0.702116)">
    <g
   id="g99"
   transform="translate(80.406998,10.959)">
      <path
   d="M 3.578125,-8.15625 V -7.8125 C 4.40625,-7.8125 4.5,-7.734375 4.5,-7.140625 V -4.5 C 4.25,-4.859375 3.734375,-5.265625 3,-5.265625 c -1.390625,0 -2.578125,1.171875 -2.578125,2.703125 0,1.515625 1.125,2.6875 2.453125,2.6875 0.90625,0 1.421875,-0.609375 1.59375,-0.828125 V 0.125 L 6.15625,0 V -0.34375 C 5.34375,-0.34375 5.25,-0.4375 5.25,-1.015625 v -7.28125 z m 0.890625,6.75 c 0,0.21875 0,0.265625 -0.171875,0.515625 -0.28125,0.421875 -0.765625,0.765625 -1.375,0.765625 -0.296875,0 -1.59375,-0.109375 -1.59375,-2.4375 0,-0.859375 0.140625,-1.328125 0.40625,-1.734375 0.234375,-0.359375 0.71875,-0.734375 1.3125,-0.734375 0.75,0 1.15625,0.53125 1.28125,0.734375 0.140625,0.203125 0.140625,0.21875 0.140625,0.4375 z m 0,0"
   id="path98" />
    </g>
  </g>
  <g
   fill="#000000"
   fill-opacity="1"
   id="g102"
   transform="matrix(0.352778,0,0,0.352778,-0.884987,-0.702116)">
    <g
   id="g101"
   transform="translate(86.910004,10.959)">
      <path
   d="M 6.6875,-7.265625 C 6.796875,-7.703125 6.875,-7.8125 7.78125,-7.8125 h 0.078125 c 0.203125,0 0.328125,0 0.328125,-0.21875 0,-0.125 -0.109375,-0.125 -0.171875,-0.125 -0.5,0 -1.015625,0.015625 -1.53125,0.015625 -0.515625,0 -1.03125,-0.015625 -1.53125,-0.015625 -0.109375,0 -0.25,0 -0.25,0.21875 0,0.125 0.109375,0.125 0.296875,0.125 h 0.078125 c 0.4375,0 0.84375,0 0.84375,0.234375 0,0.09375 -0.015625,0.15625 -0.03125,0.171875 L 4.5,-1.859375 C 3.734375,-2.0625 3.53125,-2.75 3.53125,-3.484375 c 0,-0.40625 0.0625,-0.828125 0.203125,-1.40625 C 3.875,-5.453125 3.875,-5.671875 3.875,-5.796875 c 0,-0.84375 -0.46875,-0.84375 -0.75,-0.84375 H 2.828125 c -0.203125,0 -0.296875,0 -0.296875,0.125 0,0.09375 0.09375,0.109375 0.140625,0.125 0.140625,0.015625 0.375,0.046875 0.375,0.59375 0,0.3125 -0.09375,0.734375 -0.140625,0.890625 -0.046875,0.203125 -0.171875,0.71875 -0.171875,1.21875 0,1.03125 0.46875,1.90625 1.703125,2.078125 C 4.34375,-1.25 4.203125,-0.671875 4.140625,-0.578125 4.0625,-0.46875 3.984375,-0.34375 3.15625,-0.34375 H 3.078125 c -0.203125,0 -0.3125,0 -0.3125,0.21875 C 2.765625,0 2.875,0 2.9375,0 c 0.5,0 1.015625,-0.03125 1.515625,-0.03125 0.5,0 1.03125,0.03125 1.53125,0.03125 0.109375,0 0.25,0 0.25,-0.234375 C 6.234375,-0.34375 6.125,-0.34375 5.9375,-0.34375 H 5.875 c -0.46875,0 -0.84375,0 -0.84375,-0.234375 0,-0.078125 0.078125,-0.359375 0.109375,-0.515625 0.046875,-0.15625 0.046875,-0.1875 0.125,-0.5 2.03125,-0.25 2.84375,-1.859375 3.203125,-3.203125 0.203125,-0.71875 0.40625,-1.5 1.0625,-1.59375 0.078125,-0.015625 0.15625,-0.03125 0.15625,-0.125 0,-0.125 -0.09375,-0.125 -0.296875,-0.125 h -0.3125 C 8.625,-6.640625 8.09375,-6.53125 7.671875,-4.9375 7.5,-4.25 6.96875,-2.265625 5.328125,-1.859375 Z m 0,0"
   id="path100" />
    </g>
  </g>
  <g
   fill="#000000"
   fill-opacity="1"
   id="g104"
   transform="matrix(0.352778,0,0,0.352778,-0.884987,-0.702116)">
    <g
   id="g103"
   transform="translate(97.211998,10.959)">
      <path
   d="m 5.125,-8.515625 c 0,-0.015625 0.078125,-0.203125 0.078125,-0.21875 0,-0.140625 -0.125,-0.234375 -0.21875,-0.234375 -0.0625,0 -0.171875,0 -0.265625,0.265625 l -4,11.25 c 0,0.015625 -0.078125,0.1875 -0.078125,0.21875 0,0.140625 0.125,0.21875 0.21875,0.21875 0.078125,0 0.1875,-0.015625 0.265625,-0.265625 z m 0,0"
   id="path102" />
    </g>
  </g>
  <g
   fill="#000000"
   fill-opacity="1"
   id="g26"
   transform="matrix(0.352778,0,0,0.352778,-0.884987,-0.702116)">
    <g
   id="g105"
   transform="translate(103.065,10.959)">
      <path
   d="M 3.578125,-8.15625 V -7.8125 C 4.40625,-7.8125 4.5,-7.734375 4.5,-7.140625 V -4.5 C 4.25,-4.859375 3.734375,-5.265625 3,-5.265625 c -1.390625,0 -2.578125,1.171875 -2.578125,2.703125 0,1.515625 1.125,2.6875 2.453125,2.6875 0.90625,0 1.421875,-0.609375 1.59375,-0.828125 V 0.125 L 6.15625,0 V -0.34375 C 5.34375,-0.34375 5.25,-0.4375 5.25,-1.015625 v -7.28125 z m 0.890625,6.75 c 0,0.21875 0,0.265625 -0.171875,0.515625 -0.28125,0.421875 -0.765625,0.765625 -1.375,0.765625 -0.296875,0 -1.59375,-0.109375 -1.59375,-2.4375 0,-0.859375 0.140625,-1.328125 0.40625,-1.734375 0.234375,-0.359375 0.71875,-0.734375 1.3125,-0.734375 0.75,0 1.15625,0.53125 1.28125,0.734375 0.140625,0.203125 0.140625,0.21875 0.140625,0.4375 z m 0,0"
   id="path104" />
    </g>
  </g>
  <g
   fill="#000000"
   fill-opacity="1"
   id="g107"
   transform="matrix(0.352778,0,0,0.352778,-0.884987,-0.702116)">
    <g
   id="g106"
   transform="translate(109.568,10.959)">
      <path
   d="M 2.40625,-4.8125 H 3.5 c 0.234375,0 0.34375,0 0.34375,-0.203125 0,-0.140625 -0.0625,-0.140625 -0.3125,-0.140625 H 2.484375 l 0.4375,-1.734375 C 2.96875,-7.0625 2.96875,-7.09375 2.96875,-7.171875 c 0,-0.1875 -0.140625,-0.296875 -0.296875,-0.296875 -0.109375,0 -0.375,0.03125 -0.46875,0.421875 l -0.46875,1.890625 h -1.125 c -0.234375,0 -0.34375,0 -0.34375,0.234375 0,0.109375 0.078125,0.109375 0.3125,0.109375 h 1.0625 L 0.84375,-1.65625 c -0.09375,0.421875 -0.125,0.546875 -0.125,0.703125 0,0.5625 0.390625,1.078125 1.0625,1.078125 1.203125,0 1.859375,-1.75 1.859375,-1.828125 0,-0.078125 -0.0625,-0.109375 -0.125,-0.109375 -0.03125,0 -0.078125,0 -0.09375,0.046875 C 3.40625,-1.75 3.390625,-1.75 3.3125,-1.546875 c -0.25,0.59375 -0.796875,1.421875 -1.5,1.421875 -0.359375,0 -0.375,-0.296875 -0.375,-0.5625 0,0 0,-0.234375 0.03125,-0.375 z m 0,0"
   id="path105" />
    </g>
  </g>
</g><g
       inkscape:label=""
       transform="translate(64.259401,10.329818)"
       id="g118"><g
   fill="#000000"
   fill-opacity="1"
   id="g115"
   transform="matrix(0.352778,0,0,0.352778,-0.851914,-0.704541)">
    <g
   id="g114"
   transform="translate(1.993,10.294)">
      <path
   d="M 3.578125,-8.15625 V -7.8125 C 4.40625,-7.8125 4.5,-7.734375 4.5,-7.140625 V -4.5 C 4.25,-4.859375 3.734375,-5.265625 3,-5.265625 c -1.390625,0 -2.578125,1.171875 -2.578125,2.703125 0,1.515625 1.125,2.6875 2.453125,2.6875 0.90625,0 1.421875,-0.609375 1.59375,-0.828125 V 0.125 L 6.15625,0 V -0.34375 C 5.34375,-0.34375 5.25,-0.4375 5.25,-1.015625 v -7.28125 z m 0.890625,6.75 c 0,0.21875 0,0.265625 -0.171875,0.515625 -0.28125,0.421875 -0.765625,0.765625 -1.375,0.765625 -0.296875,0 -1.59375,-0.109375 -1.59375,-2.4375 0,-0.859375 0.140625,-1.328125 0.40625,-1.734375 0.234375,-0.359375 0.71875,-0.734375 1.3125,-0.734375 0.75,0 1.15625,0.53125 1.28125,0.734375 0.140625,0.203125 0.140625,0.21875 0.140625,0.4375 z m 0,0"
   id="path113" />
    </g>
  </g>
  <g
   fill="#000000"
   fill-opacity="1"
   id="g117"
   transform="matrix(0.352778,0,0,0.352778,-0.851914,-0.704541)">
    <g
   id="g116"
   transform="translate(8.4960003,10.294)">
      <path
   d="m 4.953125,-4.703125 c -0.40625,0.15625 -0.5,0.5 -0.5,0.671875 0,0.3125 0.25,0.5 0.5,0.5 0.296875,0 0.734375,-0.25 0.734375,-0.8125 0,-0.640625 -0.625,-1.0625 -1.703125,-1.0625 -0.34375,0 -1.015625,0.03125 -1.5625,0.453125 C 1.875,-4.546875 1.6875,-3.859375 1.6875,-3.5625 c 0,0.359375 0.171875,0.6875 0.421875,0.90625 0.34375,0.265625 0.546875,0.296875 1.359375,0.453125 0.359375,0.0625 1.078125,0.1875 1.078125,0.734375 0,0.046875 0,1.140625 -1.78125,1.140625 -0.59375,0 -1.03125,-0.125 -1.296875,-0.3125 0.40625,-0.125 0.65625,-0.46875 0.65625,-0.828125 0,-0.4375 -0.34375,-0.546875 -0.578125,-0.546875 -0.40625,0 -0.859375,0.328125 -0.859375,0.921875 0,0.78125 0.828125,1.1875 2.046875,1.1875 2.734375,0 2.734375,-2.046875 2.734375,-2.046875 0,-0.40625 -0.203125,-0.734375 -0.484375,-0.96875 C 4.609375,-3.25 4.15625,-3.328125 3.734375,-3.40625 3.078125,-3.53125 2.625,-3.609375 2.625,-4.046875 c 0,-0.03125 0,-0.921875 1.328125,-0.921875 0.25,0 0.671875,0.015625 1,0.265625 z m 0,0"
   id="path115" />
    </g>
  </g>
</g><g
       inkscape:label=""
       transform="translate(82.413067,32.428582)"
       id="g123"><g
   fill="#000000"
   fill-opacity="1"
   id="g120"
   transform="matrix(0.352778,0,0,0.352778,-0.862939,-0.616347)">
    <g
   id="g119"
   transform="translate(1.993,10.294)">
      <path
   d="m 5.421875,-4 c -0.0625,-0.65625 -0.484375,-1.46875 -1.5625,-1.46875 -1.6875,0 -3.40625,1.71875 -3.40625,3.609375 0,0.734375 0.5,2.109375 2.125,2.109375 2.828125,0 4.03125,-4.109375 4.03125,-5.75 0,-1.71875 -0.96875,-3.046875 -2.5,-3.046875 -1.734375,0 -2.25,1.515625 -2.25,1.84375 0,0.109375 0.078125,0.375 0.40625,0.375 0.421875,0 0.609375,-0.390625 0.609375,-0.59375 0,-0.375 -0.375,-0.375 -0.53125,-0.375 0.484375,-0.875 1.390625,-0.96875 1.71875,-0.96875 1.046875,0 1.71875,0.84375 1.71875,2.1875 C 5.78125,-5.3125 5.5625,-4.4375 5.4375,-4 Z M 2.625,-0.078125 c -1.125,0 -1.328125,-0.875 -1.328125,-1.375 0,-0.53125 0.34375,-1.765625 0.515625,-2.203125 0.15625,-0.359375 0.84375,-1.5625 2.078125,-1.5625 1.09375,0 1.34375,0.9375 1.34375,1.578125 0,0.890625 -0.78125,3.5625 -2.609375,3.5625 z m 0,0"
   id="path118" />
    </g>
  </g>
  <g
   fill="#000000"
   fill-opacity="1"
   id="g122"
   transform="matrix(0.352778,0,0,0.352778,-0.862939,-0.616347)">
    <g
   id="g121"
   transform="translate(8.818224,10.294)">
      <path
   d="m 7.59375,-8.3125 c 0,-0.109375 -0.09375,-0.109375 -0.109375,-0.109375 -0.046875,0 -0.0625,0.015625 -0.203125,0.203125 C 7.203125,-8.140625 6.71875,-7.515625 6.703125,-7.5 6.3125,-8.28125 5.515625,-8.421875 5.015625,-8.421875 3.5,-8.421875 2.125,-7.03125 2.125,-5.671875 2.125,-4.78125 2.671875,-4.25 3.25,-4.046875 3.375,-4 4.09375,-3.8125 4.453125,-3.734375 5.0625,-3.5625 5.21875,-3.515625 5.46875,-3.25 5.515625,-3.1875 5.75,-2.921875 5.75,-2.359375 5.75,-1.25 4.71875,-0.09375 3.53125,-0.09375 c -0.984375,0 -2.078125,-0.421875 -2.078125,-1.765625 0,-0.21875 0.046875,-0.5 0.09375,-0.625 0,-0.03125 0,-0.09375 0,-0.125 0,-0.046875 -0.015625,-0.109375 -0.109375,-0.109375 -0.109375,0 -0.125,0.03125 -0.171875,0.234375 L 0.65625,-0.03125 c 0,0 -0.046875,0.15625 -0.046875,0.171875 C 0.609375,0.25 0.703125,0.25 0.734375,0.25 0.78125,0.25 0.78125,0.234375 0.9375,0.0625 L 1.484375,-0.65625 C 1.765625,-0.234375 2.390625,0.25 3.5,0.25 c 1.546875,0 2.953125,-1.5 2.953125,-2.984375 0,-0.5 -0.125,-0.953125 -0.578125,-1.390625 -0.25,-0.25 -0.453125,-0.3125 -1.5625,-0.59375 -0.796875,-0.21875 -0.90625,-0.25 -1.125,-0.4375 -0.203125,-0.203125 -0.359375,-0.5 -0.359375,-0.90625 0,-1 1.015625,-2.03125 2.15625,-2.03125 1.171875,0 1.71875,0.71875 1.71875,1.859375 0,0.3125 -0.0625,0.625 -0.0625,0.671875 0,0.109375 0.09375,0.109375 0.140625,0.109375 0.109375,0 0.109375,-0.03125 0.15625,-0.21875 z m 0,0"
   id="path120" />
    </g>
  </g>
</g><g
       inkscape:label=""
       transform="translate(60.901071,25.927886)"
       id="g14">
  
<g
   inkscape:label=""
   transform="translate(4e-5,2e-5)"
   id="g13"><g
   fill="#000000"
   fill-opacity="1"
   id="g12"
   transform="matrix(0.352778,0,0,0.352778,-0.851914,-0.665956)">
    <g
   id="g11"
   transform="translate(1.993,10.294)">
      <path
   d="M 3.578125,-8.15625 V -7.8125 C 4.40625,-7.8125 4.5,-7.734375 4.5,-7.140625 V -4.5 C 4.25,-4.859375 3.734375,-5.265625 3,-5.265625 c -1.390625,0 -2.578125,1.171875 -2.578125,2.703125 0,1.515625 1.125,2.6875 2.453125,2.6875 0.90625,0 1.421875,-0.609375 1.59375,-0.828125 V 0.125 L 6.15625,0 V -0.34375 C 5.34375,-0.34375 5.25,-0.4375 5.25,-1.015625 v -7.28125 z m 0.890625,6.75 c 0,0.21875 0,0.265625 -0.171875,0.515625 -0.28125,0.421875 -0.765625,0.765625 -1.375,0.765625 -0.296875,0 -1.59375,-0.109375 -1.59375,-2.4375 0,-0.859375 0.140625,-1.328125 0.40625,-1.734375 0.234375,-0.359375 0.71875,-0.734375 1.3125,-0.734375 0.75,0 1.15625,0.53125 1.28125,0.734375 0.140625,0.203125 0.140625,0.21875 0.140625,0.4375 z m 0,0"
   id="path11" />
    </g>
  </g>
  <g
   fill="#000000"
   fill-opacity="1"
   id="g4"
   transform="matrix(0.352778,0,0,0.352778,-0.851914,-0.665956)">
    <g
   id="use3"
   transform="translate(8.4960003,10.294)">
      <path
   d="M 8.484375,-7.984375 C 8.5,-8.015625 8.53125,-8.203125 8.53125,-8.21875 c 0,-0.15625 -0.125,-0.1875 -0.21875,-0.1875 -0.078125,0 -0.09375,0 -0.25,0.140625 l -0.65625,0.5625 C 6.9375,-8.1875 6.296875,-8.40625 5.5,-8.40625 c -2.21875,0 -3.296875,1.71875 -3.296875,2.9375 0,0.625 0.28125,1.078125 0.5625,1.359375 0.421875,0.375 0.71875,0.421875 1.59375,0.625 0.28125,0.078125 0.59375,0.15625 0.9375,0.21875 0.203125,0.046875 0.9375,0.21875 0.9375,1.078125 0,0.578125 -0.484375,1.828125 -2.03125,1.828125 -0.296875,0 -1.078125,-0.03125 -1.640625,-0.359375 -0.671875,-0.421875 -0.671875,-0.984375 -0.671875,-1.234375 0,-0.09375 0,-0.265625 0.0625,-0.484375 0,-0.03125 0,-0.09375 0,-0.125 0,-0.15625 -0.15625,-0.15625 -0.265625,-0.15625 -0.234375,0 -0.25,0.046875 -0.3125,0.265625 L 0.765625,0.03125 c 0,0.140625 0.109375,0.171875 0.203125,0.171875 0.109375,0 0.109375,-0.015625 0.234375,-0.125 0.046875,-0.015625 0.5,-0.40625 0.6875,-0.5625 0.671875,0.59375 1.6875,0.6875 2.25,0.6875 2.34375,0 3.390625,-1.953125 3.390625,-3.171875 0,-0.640625 -0.265625,-1.125 -0.53125,-1.390625 -0.4375,-0.4375 -0.71875,-0.5 -1.734375,-0.71875 L 4.34375,-5.296875 C 3.8125,-5.421875 3.484375,-5.78125 3.484375,-6.25 c 0,-0.578125 0.53125,-1.640625 1.984375,-1.640625 0.984375,0 1.890625,0.421875 1.890625,1.765625 0,0.21875 -0.03125,0.4375 -0.03125,0.46875 0,0.1875 0.171875,0.1875 0.28125,0.1875 0.234375,0 0.25,-0.03125 0.296875,-0.265625 z m 0,0"
   id="path12" />
    </g>
  </g>
</g></g></g></svg>
