<?xml version="1.0" encoding="UTF-8" standalone="no"?>
<!-- Created with Inkscape (http://www.inkscape.org/) -->

<svg
   width="82mm"
   height="45mm"
   viewBox="-1 -1 82 45"
   version="1.1"
   id="svg1"
   xml:space="preserve"
   inkscape:version="1.3.2 (091e20e, 2023-11-25, custom)"
   sodipodi:docname="ConductorInMagneticField.svg"
   xmlns:inkscape="http://www.inkscape.org/namespaces/inkscape"
   xmlns:sodipodi="http://sodipodi.sourceforge.net/DTD/sodipodi-0.dtd"
   xmlns="http://www.w3.org/2000/svg"
   xmlns:svg="http://www.w3.org/2000/svg"><sodipodi:namedview
     id="namedview1"
     pagecolor="#ffffff"
     bordercolor="#000000"
     borderopacity="0.25"
     inkscape:showpageshadow="2"
     inkscape:pageopacity="0.0"
     inkscape:pagecheckerboard="0"
     inkscape:deskcolor="#d1d1d1"
     inkscape:document-units="mm"
     inkscape:zoom="2"
     inkscape:cx="143.5"
     inkscape:cy="109.75"
     inkscape:window-width="1920"
     inkscape:window-height="1009"
     inkscape:window-x="-8"
     inkscape:window-y="-8"
     inkscape:window-maximized="1"
     inkscape:current-layer="layer1"
     showgrid="true"><inkscape:grid
       id="grid177345"
       units="mm"
       originx="-4.9000001"
       originy="-16.062822"
       spacingx="0.99999998"
       spacingy="1"
       empcolor="#0099e5"
       empopacity="0.30196078"
       color="#0099e5"
       opacity="0.14901961"
       empspacing="5"
       dotted="false"
       gridanglex="30"
       gridanglez="30"
       visible="true" /></sodipodi:namedview><defs
     id="defs1"><marker
       style="overflow:visible"
       id="Triangle"
       refX="0"
       refY="0"
       orient="auto-start-reverse"
       inkscape:stockid="Triangle arrow"
       markerWidth="1"
       markerHeight="1"
       viewBox="0 0 1 1"
       inkscape:isstock="true"
       inkscape:collect="always"
       preserveAspectRatio="xMidYMid"><path
         transform="scale(0.5)"
         style="fill:context-stroke;fill-rule:evenodd;stroke:context-stroke;stroke-width:1pt"
         d="M 5.77,0 -2.88,5 V -5 Z"
         id="path135" /></marker><marker
       style="overflow:visible"
       id="Triangle-1"
       refX="0"
       refY="0"
       orient="auto-start-reverse"
       inkscape:stockid="Triangle arrow"
       markerWidth="1"
       markerHeight="1"
       viewBox="0 0 1 1"
       inkscape:isstock="true"
       inkscape:collect="always"
       preserveAspectRatio="xMidYMid"><path
         transform="scale(0.5)"
         style="fill:context-stroke;fill-rule:evenodd;stroke:context-stroke;stroke-width:1pt"
         d="M 5.77,0 -2.88,5 V -5 Z"
         id="path135-5" /></marker><marker
       style="overflow:visible"
       id="Triangle-4"
       refX="0"
       refY="0"
       orient="auto-start-reverse"
       inkscape:stockid="Triangle arrow"
       markerWidth="1"
       markerHeight="1"
       viewBox="0 0 1 1"
       inkscape:isstock="true"
       inkscape:collect="always"
       preserveAspectRatio="xMidYMid"><path
         transform="scale(0.5)"
         style="fill:context-stroke;fill-rule:evenodd;stroke:context-stroke;stroke-width:1pt"
         d="M 5.77,0 -2.88,5 V -5 Z"
         id="path135-0" /></marker><marker
       style="overflow:visible"
       id="Triangle-12"
       refX="0"
       refY="0"
       orient="auto-start-reverse"
       inkscape:stockid="Triangle arrow"
       markerWidth="1"
       markerHeight="1"
       viewBox="0 0 1 1"
       inkscape:isstock="true"
       inkscape:collect="always"
       preserveAspectRatio="xMidYMid"><path
         transform="scale(0.5)"
         style="fill:context-stroke;fill-rule:evenodd;stroke:context-stroke;stroke-width:1pt"
         d="M 5.77,0 -2.88,5 V -5 Z"
         id="path135-52" /></marker><marker
       style="overflow:visible"
       id="Triangle-1-9"
       refX="0"
       refY="0"
       orient="auto-start-reverse"
       inkscape:stockid="Triangle arrow"
       markerWidth="1"
       markerHeight="1"
       viewBox="0 0 1 1"
       inkscape:isstock="true"
       inkscape:collect="always"
       preserveAspectRatio="xMidYMid"><path
         transform="scale(0.5)"
         style="fill:context-stroke;fill-rule:evenodd;stroke:context-stroke;stroke-width:1pt"
         d="M 5.77,0 -2.88,5 V -5 Z"
         id="path135-5-0" /></marker></defs><g
     inkscape:label="Ebene 1"
     inkscape:groupmode="layer"
     id="layer1"
     transform="translate(-4.9,-16.062823)"><path
       style="fill:none;stroke:#000006;stroke-width:0.2;stroke-linecap:round;stroke-dasharray:none"
       d="M 53.70544,32.92982 H 50.435244"
       id="path177350" /><path
       style="fill:none;fill-opacity:1;stroke:#000006;stroke-width:0.324025;stroke-linecap:round;stroke-dasharray:none;stroke-opacity:1;marker-start:url(#Triangle-1-9)"
       d="M 77.750813,56.477592 V 48.865633"
       id="path177370-5" /><ellipse
       style="fill:none;fill-opacity:1;stroke:#000006;stroke-width:0.2;stroke-linecap:round;stroke-dasharray:none;stroke-opacity:1"
       id="path177353-8-1-2"
       cx="71.74807"
       cy="55.119892"
       rx="0.50833338"
       ry="0.50833333" /><ellipse
       style="fill:none;fill-opacity:1;stroke:#000006;stroke-width:0.2;stroke-linecap:round;stroke-dasharray:none;stroke-opacity:1"
       id="path177353-8-1"
       cx="39.748062"
       cy="43.96479"
       rx="0.50833338"
       ry="0.50833333" /><ellipse
       style="fill:none;fill-opacity:1;stroke:#000006;stroke-width:0.2;stroke-linecap:round;stroke-dasharray:none;stroke-opacity:1"
       id="path177353-8"
       cx="60.332237"
       cy="30.357908"
       rx="0.50833338"
       ry="0.50833333" /><path
       style="fill:none;fill-opacity:1;stroke:#000006;stroke-width:0.2;stroke-linecap:round;stroke-dasharray:none;stroke-opacity:1"
       id="path177353-2"
       sodipodi:type="arc"
       sodipodi:cx="54.936665"
       sodipodi:cy="33.085342"
       sodipodi:rx="0.67499954"
       sodipodi:ry="0.67499948"
       sodipodi:start="4.0859298"
       sodipodi:end="0.47340995"
       sodipodi:arc-type="arc"
       d="m 54.540926,32.53852 a 0.67499954,0.67499948 0 0 1 0.835149,0.03443 0.67499954,0.67499948 0 0 1 0.161352,0.820138"
       sodipodi:open="true" /><path
       style="fill:#000000;fill-opacity:1;stroke:#000006;stroke-width:0.2;stroke-linecap:round;stroke-opacity:1"
       d="M 41.124221,40.164956 55.537427,33.393092"
       id="path177352-6" /><path
       style="fill:none;stroke:#000006;stroke-width:0.2;stroke-linecap:round;marker-end:url(#Triangle-12)"
       d="m 38.981479,34.593608 v 4.999998"
       id="path177351-06" /><path
       style="fill:none;stroke:#000006;stroke-width:0.2;stroke-linecap:round;marker-end:url(#Triangle-4)"
       d="m 30.57034,34.593608 v 4.999998"
       id="path177351-0" /><path
       style="fill:none;stroke:#000006;stroke-width:0.2;stroke-linecap:round;marker-end:url(#Triangle-1)"
       d="m 22.159201,34.593608 v 4.999998"
       id="path177351-8" /><path
       style="fill:none;stroke:#000006;stroke-width:0.2;stroke-linecap:round"
       d="M 5.1,18.628228 V 34.1692 H 47.748062 V 18.628228"
       id="path177345" /><path
       style="fill:none;stroke:#000006;stroke-width:0.2;stroke-linecap:round"
       d="M 47.748062,34.1692 64.098153,26.628229 V 16.162823"
       id="path177346" /><path
       style="fill:none;stroke:#000006;stroke-width:0.2;stroke-linecap:round"
       d="M 5,50 V 40.628228 L 18.308371,34.1692"
       id="path177347" /><path
       style="fill:none;stroke:#000006;stroke-width:0.2;stroke-linecap:round"
       d="m 5,40.628228 h 43.10349 v 9.330523"
       id="path177348" /><path
       style="fill:none;stroke:#000006;stroke-width:0.2;stroke-linecap:round"
       d="m 48.10349,40.628228 15.999433,-7.540726 v 9.540727"
       id="path177349" /><path
       style="fill:none;stroke:#000006;stroke-width:0.2;stroke-linecap:round;marker-end:url(#Triangle)"
       d="m 13.748062,34.628229 v 4.999998"
       id="path177351" /><path
       style="fill:#000000;fill-opacity:1;stroke:#000006;stroke-width:0.200004;stroke-linecap:round;stroke-opacity:1"
       d="M 40.148643,39.299311 54.562128,32.527316"
       id="path177352" /><ellipse
       style="fill:none;fill-opacity:1;stroke:#000006;stroke-width:0.2;stroke-linecap:round;stroke-dasharray:none;stroke-opacity:1"
       id="path177353"
       cx="40.523064"
       cy="39.853226"
       rx="0.67499954"
       ry="0.67499948" /><path
       style="fill:none;fill-opacity:1;stroke:#000006;stroke-width:0.2;stroke-linecap:round;stroke-dasharray:none;stroke-opacity:1"
       d="m 51.395964,40.628228 h 2.145673"
       id="path177355" /><path
       style="fill:none;fill-opacity:1;stroke:#000006;stroke-width:0.2;stroke-linecap:round;stroke-dasharray:none;stroke-opacity:1"
       d="m 67.514822,33.02982 h 2.157367"
       id="path177356" /><path
       style="fill:none;fill-opacity:1;stroke:#000006;stroke-width:0.194182;stroke-linecap:round;stroke-dasharray:none;stroke-opacity:1;marker-start:url(#Triangle);marker-end:url(#Triangle)"
       d="M 53.759823,40.235888 68.121313,33.42216"
       id="path177357" /><path
       style="fill:none;fill-opacity:1;stroke:#000006;stroke-width:0.19906;stroke-linecap:round;stroke-dasharray:none;stroke-opacity:1"
       d="m 40.523064,39.912431 -0.775002,3.544026"
       id="path177359"
       sodipodi:nodetypes="cc" /><path
       style="fill:none;fill-opacity:1;stroke:#000006;stroke-width:0.2;stroke-linecap:round;stroke-dasharray:none;stroke-opacity:1"
       d="m 39.748062,44.473124 v 14.155104 h 31.999999 v -2"
       id="path177361" /><ellipse
       style="fill:none;fill-opacity:1;stroke:#000006;stroke-width:0.2;stroke-linecap:round;stroke-dasharray:none;stroke-opacity:1"
       id="path177353-8-1-5"
       cx="71.74807"
       cy="51.119892"
       rx="0.50833338"
       ry="0.50833333" /><path
       style="fill:none;fill-opacity:1;stroke:#000006;stroke-width:0.2;stroke-linecap:butt;stroke-dasharray:none;stroke-opacity:1"
       d="m 71.748061,54.61156 v -0.983332 0 -0.0052"
       id="path177362" /><path
       style="fill:none;fill-opacity:1;stroke:#000006;stroke-width:0.2;stroke-linecap:round;stroke-dasharray:none;stroke-opacity:1"
       d="m 69.748063,52.628228 h 4"
       id="path177364" /><path
       style="fill:none;fill-opacity:1;stroke:#000006;stroke-width:0.2;stroke-linecap:round;stroke-dasharray:none;stroke-opacity:1"
       d="m 70.748061,53.628228 h 2.000001"
       id="path177365" /><path
       style="fill:none;fill-opacity:1;stroke:#000006;stroke-width:0.2;stroke-linecap:round;stroke-dasharray:none;stroke-opacity:1"
       d="m 71.748061,55.628227 v 1.000001"
       id="path177366" /><path
       style="fill:none;fill-opacity:1;stroke:#000006;stroke-width:0.2;stroke-linecap:butt;stroke-dasharray:none;stroke-opacity:1"
       d="m 71.748061,51.628227 v 1.000001"
       id="path177367" /><path
       style="fill:none;fill-opacity:1;stroke:#000006;stroke-width:0.2;stroke-linecap:round;stroke-dasharray:none;stroke-opacity:1"
       d="M 71.748061,48.628228 V 50.61156"
       id="path177368" /><path
       style="fill:none;fill-opacity:1;stroke:#000006;stroke-width:0.2;stroke-linecap:round;stroke-dasharray:none;stroke-opacity:1;marker-start:url(#Triangle-1)"
       d="m 71.748063,42.728229 v 2.9"
       id="path177370" /><path
       style="fill:none;fill-opacity:1;stroke:#000006;stroke-width:0.2;stroke-linecap:round;stroke-dasharray:none;stroke-opacity:1"
       d="m 74.774884,49.619894 -0.02682,2.008333"
       id="path177371" /><path
       style="fill:none;fill-opacity:1;stroke:#000006;stroke-width:0.2;stroke-linecap:round;stroke-dasharray:none;stroke-opacity:1"
       d="m 73.650405,50.624059 2.097656,0.0042"
       id="path177372" /><path
       style="fill:none;fill-opacity:1;stroke:#000006;stroke-width:0.2;stroke-linecap:round;stroke-dasharray:none;stroke-opacity:1"
       d="m 73.748064,55.628229 h 1.999998"
       id="path177373" /><g
       inkscape:label=""
       transform="translate(79.574162,50.70264)"
       id="g5"><g
   fill="#000000"
   fill-opacity="1"
   id="g3"
   transform="matrix(0.352778,0,0,0.352778,-0.989718,-0.707584)">
    <g
   id="use2"
   transform="translate(1.993,10.162)">
      <path
   d="M 6.046875,-2.75 C 5.625,-1.078125 4.25,-0.09375 3.125,-0.09375 c -0.859375,0 -1.453125,-0.578125 -1.453125,-1.5625 0,-0.046875 0,-0.40625 0.140625,-0.9375 L 2.96875,-7.296875 C 3.078125,-7.703125 3.109375,-7.8125 3.953125,-7.8125 c 0.21875,0 0.34375,0 0.34375,-0.21875 0,-0.125 -0.109375,-0.125 -0.1875,-0.125 -0.21875,0 -0.46875,0.015625 -0.6875,0.015625 h -1.40625 c -0.234375,0 -0.484375,-0.015625 -0.71875,-0.015625 -0.078125,0 -0.21875,0 -0.21875,0.21875 0,0.125 0.078125,0.125 0.3125,0.125 0.71875,0 0.71875,0.09375 0.71875,0.21875 0,0.078125 -0.09375,0.421875 -0.15625,0.625 l -1.03125,4.1875 C 0.890625,-2.65625 0.8125,-2.328125 0.8125,-2.015625 0.8125,-0.6875 1.75,0.25 3.0625,0.25 c 1.203125,0 2.546875,-0.953125 3.15625,-2.46875 0.078125,-0.203125 0.1875,-0.625 0.265625,-0.953125 C 6.59375,-3.59375 6.84375,-4.65625 6.9375,-4.953125 L 7.390625,-6.75 c 0.15625,-0.625 0.25,-1.015625 1.296875,-1.0625 0.09375,-0.015625 0.140625,-0.109375 0.140625,-0.21875 0,-0.125 -0.109375,-0.125 -0.15625,-0.125 -0.15625,0 -0.375,0.015625 -0.546875,0.015625 H 7.5625 c -0.734375,0 -1.125,-0.015625 -1.125,-0.015625 -0.078125,0 -0.21875,0 -0.21875,0.21875 0,0.125 0.09375,0.125 0.171875,0.125 0.71875,0.015625 0.765625,0.296875 0.765625,0.515625 0,0.09375 0,0.140625 -0.046875,0.296875 z m 0,0"
   id="path4" />
    </g>
  </g>
  <g
   fill="#000000"
   fill-opacity="1"
   id="g4"
   transform="matrix(0.352778,0,0,0.352778,-0.989718,-0.707584)">
    <g
   id="use3"
   transform="translate(9.9429998,11.955)">
      <path
   d="m 0.375,-5.4375 v 0.265625 h 0.1875 c 0.609375,0 0.625,0.078125 0.625,0.375 v 4.15625 c 0,0.296875 -0.015625,0.375 -0.625,0.375 H 0.375 V 0 h 3.265625 c 1.09375,0 1.875,-0.703125 1.875,-1.453125 0,-0.65625 -0.609375,-1.28125 -1.609375,-1.390625 0.859375,-0.1875 1.375,-0.703125 1.375,-1.25 0,-0.71875 -0.796875,-1.34375 -1.875,-1.34375 z m 1.484375,2.5 v -1.921875 c 0,-0.265625 0.015625,-0.3125 0.390625,-0.3125 H 3.359375 C 4.140625,-5.171875 4.5,-4.5625 4.5,-4.09375 4.5,-3.546875 4.03125,-2.9375 3.109375,-2.9375 Z M 2.25,-0.265625 c -0.375,0 -0.390625,-0.046875 -0.390625,-0.328125 v -2.125 h 1.625 c 0.765625,0 1.21875,0.625 1.21875,1.25 0,0.640625 -0.53125,1.203125 -1.34375,1.203125 z m 0,0"
   id="path5" />
    </g>
  </g>
</g><g
       inkscape:label=""
       transform="translate(73.656655,41.750883)"
       id="g6"><g
   fill="#000000"
   fill-opacity="1"
   id="g2"
   transform="matrix(0.352778,0,0,0.352778,-0.873963,-0.707231)">
    <g
   id="use1"
   transform="translate(1.993,10.161)">
      <path
   d="m 4.40625,-7.28125 c 0.09375,-0.421875 0.125,-0.53125 1,-0.53125 0.265625,0 0.359375,0 0.359375,-0.234375 0,-0.109375 -0.140625,-0.109375 -0.171875,-0.109375 -0.21875,0 -0.484375,0.015625 -0.6875,0.015625 H 3.4375 c -0.25,0 -0.515625,-0.015625 -0.765625,-0.015625 -0.09375,0 -0.21875,0 -0.21875,0.21875 0,0.125 0.09375,0.125 0.328125,0.125 0.75,0 0.75,0.09375 0.75,0.21875 0,0.09375 -0.03125,0.15625 -0.046875,0.265625 l -1.625,6.4375 c -0.109375,0.421875 -0.125,0.546875 -1,0.546875 -0.265625,0 -0.375,0 -0.375,0.21875 0,0.125 0.125,0.125 0.1875,0.125 0.21875,0 0.46875,-0.03125 0.6875,-0.03125 h 1.46875 c 0.25,0 0.5,0.03125 0.75,0.03125 0.09375,0 0.234375,0 0.234375,-0.21875 0,-0.125 -0.078125,-0.125 -0.328125,-0.125 -0.75,0 -0.75,-0.09375 -0.75,-0.234375 0,-0.03125 0,-0.09375 0.046875,-0.28125 z m 0,0"
   id="path2" />
    </g>
  </g>
</g><g
       inkscape:label=""
       transform="translate(24.283689,35.629995)"
       id="g11"><g
   fill="#000000"
   fill-opacity="1"
   id="g8"
   transform="matrix(0.352778,0,0,0.352778,-0.907036,-0.707584)">
    <g
   id="g7"
   transform="translate(1.993,10.162)">
      <path
   d="M 4.375,-7.34375 C 4.484375,-7.796875 4.53125,-7.8125 5,-7.8125 h 1.546875 c 1.359375,0 1.359375,1.140625 1.359375,1.25 0,0.96875 -0.96875,2.203125 -2.546875,2.203125 h -1.71875 z m 2.015625,3.078125 C 7.703125,-4.5 8.875,-5.421875 8.875,-6.515625 8.875,-7.453125 8.0625,-8.15625 6.703125,-8.15625 H 2.875 c -0.234375,0 -0.34375,0 -0.34375,0.21875 0,0.125 0.109375,0.125 0.296875,0.125 0.71875,0 0.71875,0.09375 0.71875,0.21875 0,0.03125 0,0.09375 -0.046875,0.28125 L 1.890625,-0.890625 C 1.78125,-0.46875 1.75,-0.34375 0.921875,-0.34375 c -0.234375,0 -0.34375,0 -0.34375,0.21875 0,0.125 0.0625,0.125 0.3125,0.125 h 4.09375 C 6.8125,0 8.21875,-1.390625 8.21875,-2.59375 c 0,-0.984375 -0.859375,-1.578125 -1.828125,-1.671875 z m -1.6875,3.921875 h -1.625 c -0.15625,0 -0.1875,0 -0.25,-0.015625 -0.140625,-0.015625 -0.15625,-0.03125 -0.15625,-0.125 0,-0.09375 0.03125,-0.15625 0.046875,-0.265625 L 3.5625,-4.125 h 2.25 c 1.40625,0 1.40625,1.3125 1.40625,1.40625 0,1.15625 -1.03125,2.375 -2.515625,2.375 z m 0,0"
   id="path6" />
    </g>
  </g>
  <g
   fill="#000000"
   fill-opacity="1"
   id="g10"
   transform="matrix(0.352778,0,0,0.352778,-0.907036,-0.707584)">
    <g
   id="g9"
   transform="translate(10.885,11.955)">
      <path
   d="M 3.0625,-5.46875 C 2.828125,-5.5 2.640625,-5.53125 2.421875,-5.53125 c -0.578125,0 -1.078125,0.171875 -1.359375,0.734375 -0.046875,0.09375 -0.09375,0.1875 -0.09375,0.296875 0,0.296875 0.4375,0.703125 0.734375,0.984375 -0.609375,0.609375 -1.25,1.421875 -1.25,2.234375 0,0.65625 0.34375,1.359375 1.171875,1.359375 1.046875,0 1.859375,-1.046875 1.859375,-2.078125 0,-0.4375 -0.234375,-0.84375 -0.53125,-1.140625 L 2.1875,-3.875 C 1.546875,-4.484375 1.359375,-4.609375 1.359375,-4.828125 c 0,-0.25 0.25,-0.3125 0.515625,-0.3125 0.53125,0 0.828125,0.046875 1.109375,0.0625 L 3.09375,-5.40625 Z m -1.171875,2.109375 c 0.484375,0.46875 1.09375,1.125 1.09375,1.6875 C 2.984375,-1 2.625,-0.34375 2.03125,-0.34375 c -0.6875,0 -0.96875,-0.765625 -0.96875,-1.34375 0,-0.609375 0.28125,-1.09375 0.828125,-1.671875 z m 0,0"
   id="path8" />
    </g>
  </g>
</g><g
       inkscape:label=""
       transform="translate(37.072155,42.561948)"
       id="g14"><g
   fill="#000000"
   fill-opacity="1"
   id="g13"
   transform="matrix(0.352778,0,0,0.352778,-1.08894,-0.614848)">
    <g
   id="g12"
   transform="translate(1.993,9.6960001)">
      <path
   d="m 3.4375,-7.65625 c 0,-0.28125 0,-0.296875 -0.234375,-0.296875 C 2.921875,-7.625 2.3125,-7.1875 1.09375,-7.1875 v 0.34375 c 0.265625,0 0.859375,0 1.53125,-0.296875 v 6.21875 c 0,0.4375 -0.046875,0.578125 -1.09375,0.578125 h -0.375 V 0 c 0.328125,-0.03125 1.484375,-0.03125 1.875,-0.03125 0.40625,0 1.546875,0 1.875,0.03125 v -0.34375 h -0.375 c -1.046875,0 -1.09375,-0.140625 -1.09375,-0.578125 z m 0,0"
   id="path11" />
    </g>
  </g>
</g><g
       inkscape:label=""
       transform="translate(61.893678,29.875363)"
       id="g17"><g
   fill="#000000"
   fill-opacity="1"
   id="g16"
   transform="matrix(0.352778,0,0,0.352778,-0.907036,-0.614848)">
    <g
   id="g15"
   transform="translate(1.993,9.6960001)">
      <path
   d="M 5.265625,-2.015625 H 5 c -0.046875,0.203125 -0.140625,0.875 -0.25,1.0625 C 4.65625,-0.84375 3.984375,-0.84375 3.625,-0.84375 H 1.40625 c 0.328125,-0.28125 1.0625,-1.046875 1.359375,-1.328125 1.828125,-1.671875 2.5,-2.296875 2.5,-3.484375 0,-1.375 -1.09375,-2.296875 -2.484375,-2.296875 -1.375,0 -2.203125,1.1875 -2.203125,2.21875 0,0.609375 0.53125,0.609375 0.5625,0.609375 0.265625,0 0.5625,-0.1875 0.5625,-0.5625 0,-0.34375 -0.21875,-0.5625 -0.5625,-0.5625 -0.09375,0 -0.125,0 -0.15625,0.015625 0.21875,-0.8125 0.875,-1.375 1.640625,-1.375 1.015625,0 1.640625,0.859375 1.640625,1.953125 C 4.265625,-4.640625 3.6875,-3.75 3,-2.984375 L 0.578125,-0.28125 V 0 h 4.375 z m 0,0"
   id="path14" />
    </g>
  </g>
</g><g
       inkscape:label=""
       transform="translate(24.172042,29.302555)"
       id="g20"><g
   fill="#000000"
   fill-opacity="1"
   id="g19"
   transform="matrix(0.352778,0,0,0.352778,-0.873963,-0.707231)">
    <g
   id="g18"
   transform="translate(1.993,10.161)">
      <path
   d="M 2.703125,-8 C 2.59375,-8.15625 2.578125,-8.15625 2.3125,-8.15625 H 0.484375 v 0.34375 c 0.515625,0 0.8125,0 1.140625,0.078125 V -1.25 c 0,0.34375 0,0.90625 -1.140625,0.90625 V 0 c 0.3125,-0.03125 0.953125,-0.03125 1.28125,-0.03125 0.34375,0 0.96875,0 1.28125,0.03125 V -0.34375 C 1.90625,-0.34375 1.90625,-0.90625 1.90625,-1.25 v -6.296875 c 0.109375,0.09375 0.109375,0.125 0.203125,0.265625 L 6.78125,-0.171875 C 6.890625,-0.015625 6.90625,0 7,0 7.09375,0 7.125,-0.046875 7.140625,-0.078125 V -6.90625 c 0,-0.34375 0,-0.90625 1.125,-0.90625 V -8.15625 C 7.953125,-8.140625 7.328125,-8.140625 7,-8.140625 c -0.34375,0 -0.96875,0 -1.28125,-0.015625 v 0.34375 c 1.125,0 1.125,0.5625 1.125,0.90625 v 5.21875 z m 0,0"
   id="path17" />
    </g>
  </g>
</g><g
       inkscape:label=""
       transform="translate(24.626794,43.886387)"
       id="g23"><g
   fill="#000000"
   fill-opacity="1"
   id="g22"
   transform="matrix(0.352778,0,0,0.352778,-0.929084,-0.613525)">
    <g
   id="g21"
   transform="translate(1.993,10.161)">
      <path
   d="M 2.484375,-4.984375 C 1.875,-5.140625 1.34375,-5.734375 1.34375,-6.5 c 0,-0.84375 0.671875,-1.59375 1.59375,-1.59375 1.96875,0 2.21875,1.9375 2.296875,2.453125 0.03125,0.140625 0.03125,0.1875 0.140625,0.1875 0.140625,0 0.140625,-0.0625 0.140625,-0.265625 v -2.421875 c 0,-0.21875 0,-0.28125 -0.125,-0.28125 -0.03125,0 -0.078125,0 -0.171875,0.15625 L 4.828125,-7.53125 C 4.25,-8.265625 3.46875,-8.421875 2.9375,-8.421875 c -1.328125,0 -2.296875,1.078125 -2.296875,2.296875 0,0.5625 0.203125,1.09375 0.65625,1.578125 0.40625,0.453125 0.828125,0.5625 1.671875,0.78125 0.421875,0.09375 1.078125,0.265625 1.25,0.328125 0.5625,0.28125 0.9375,0.921875 0.9375,1.59375 0,0.90625 -0.640625,1.75 -1.625,1.75 -0.546875,0 -1.28125,-0.140625 -1.875,-0.640625 -0.6875,-0.625 -0.734375,-1.484375 -0.75,-1.890625 -0.015625,-0.09375 -0.109375,-0.09375 -0.125,-0.09375 -0.140625,0 -0.140625,0.0625 -0.140625,0.28125 v 2.40625 c 0,0.21875 0,0.28125 0.125,0.28125 C 0.84375,0.25 0.84375,0.234375 0.9375,0.078125 0.984375,-0.015625 1.234375,-0.453125 1.328125,-0.640625 1.75,-0.15625 2.515625,0.25 3.53125,0.25 4.875,0.25 5.84375,-0.890625 5.84375,-2.203125 5.84375,-2.921875 5.5625,-3.46875 5.25,-3.859375 4.8125,-4.40625 4.265625,-4.53125 3.796875,-4.65625 Z m 0,0"
   id="path20" />
    </g>
  </g>
</g><path
       style="fill:none;stroke:#000006;stroke-width:0.17792;stroke-linecap:butt;stroke-dasharray:none"
       d="m 64.198153,32.92982 h -8.60465"
       id="path177350-6" /><path
       style="fill:none;stroke:#000006;stroke-width:0.2"
       d="m 55.506868,32.68105 4.378859,-2.080175"
       id="path1" /><path
       style="fill:none;stroke:#000006;stroke-width:0.2;stroke-linecap:round"
       d="M 71.748059,49.005537 V 27.999999"
       id="path3" /><path
       style="fill:none;stroke:#000006;stroke-width:0.2;stroke-linecap:round"
       d="m 60.793907,30.145156 4.206092,-2.145157 h 6.74806"
       id="path7" /><g
       inkscape:label=""
       transform="translate(60,38.194311)"
       id="g26"><g
   fill="#000000"
   fill-opacity="1"
   id="g25"
   transform="matrix(0.352778,0,0,0.352778,-0.84089,-0.704541)">
    <g
   id="g24"
   transform="translate(1.993,10.294)">
      <path
   d="M 2.0625,-8.296875 0.390625,-8.15625 v 0.34375 c 0.8125,0 0.90625,0.078125 0.90625,0.671875 v 6.25 c 0,0.546875 -0.125,0.546875 -0.90625,0.546875 V 0 c 0.34375,-0.03125 0.921875,-0.03125 1.28125,-0.03125 0.359375,0 0.953125,0 1.296875,0.03125 v -0.34375 c -0.765625,0 -0.90625,0 -0.90625,-0.546875 z m 0,0"
   id="path9" />
    </g>
  </g>
</g></g></svg>
