<?xml version="1.0" encoding="UTF-8" standalone="no"?>
<!-- Created with Inkscape (http://www.inkscape.org/) -->

<svg
   width="36.570255mm"
   height="51.859097mm"
   viewBox="0 0 36.570254 51.859097"
   version="1.1"
   id="svg1"
   inkscape:version="1.3.2 (091e20e, 2023-11-25, custom)"
   sodipodi:docname="Commutation_universal_machine.svg"
   xmlns:inkscape="http://www.inkscape.org/namespaces/inkscape"
   xmlns:sodipodi="http://sodipodi.sourceforge.net/DTD/sodipodi-0.dtd"
   xmlns="http://www.w3.org/2000/svg"
   xmlns:svg="http://www.w3.org/2000/svg">
  <sodipodi:namedview
     id="namedview1"
     pagecolor="#505050"
     bordercolor="#eeeeee"
     borderopacity="1"
     inkscape:showpageshadow="0"
     inkscape:pageopacity="0"
     inkscape:pagecheckerboard="0"
     inkscape:deskcolor="#505050"
     inkscape:document-units="mm"
     inkscape:zoom="2.0578704"
     inkscape:cx="97.673789"
     inkscape:cy="97.430819"
     inkscape:window-width="2560"
     inkscape:window-height="1351"
     inkscape:window-x="2551"
     inkscape:window-y="-9"
     inkscape:window-maximized="1"
     inkscape:current-layer="layer1" />
  <defs
     id="defs1">
    <inkscape:path-effect
       effect="bspline"
       id="path-effect118"
       is_visible="true"
       lpeversion="1.3"
       weight="33.333333"
       steps="2"
       helper_size="0"
       apply_no_weight="true"
       apply_with_weight="true"
       only_selected="false"
       uniform="false" />
    <inkscape:path-effect
       effect="bspline"
       id="path-effect117"
       is_visible="true"
       lpeversion="1.3"
       weight="33.333333"
       steps="2"
       helper_size="0"
       apply_no_weight="true"
       apply_with_weight="true"
       only_selected="false"
       uniform="false" />
    <inkscape:path-effect
       effect="bspline"
       id="path-effect6"
       is_visible="true"
       lpeversion="1.3"
       weight="33.333333"
       steps="2"
       helper_size="0"
       apply_no_weight="true"
       apply_with_weight="true"
       only_selected="false"
       uniform="false" />
    <clipPath
       clipPathUnits="userSpaceOnUse"
       id="clipPath2">
      <path
         d="M 0,0 H 567 V 216 H 0 Z"
         transform="scale(9.9999997)"
         id="path2" />
    </clipPath>
    <clipPath
       clipPathUnits="userSpaceOnUse"
       id="clipPath3">
      <path
         d="M 0,0 H 5670 V 2160 H 0 Z m 4231.16,1033.32 5.05,-6.3 -76.22,-81.883 2.52,26.453 -26.46,3.152 z"
         clip-rule="evenodd"
         id="path3" />
    </clipPath>
    <clipPath
       clipPathUnits="userSpaceOnUse"
       id="clipPath4">
      <path
         d="M 0,0 H 567 V 216 H 0 Z"
         transform="scale(9.9999997)"
         id="path4" />
    </clipPath>
    <clipPath
       clipPathUnits="userSpaceOnUse"
       id="clipPath5">
      <path
         d="M 0,0 H 567 V 216 H 0 Z"
         transform="scale(9.9999997)"
         id="path5" />
    </clipPath>
    <clipPath
       clipPathUnits="userSpaceOnUse"
       id="clipPath7">
      <path
         d="M 0,0 H 5670 V 2160 H 0 Z m 1930.14,1306.7 v 8.82 l 90.07,14.48 v -37.79 z"
         clip-rule="evenodd"
         id="path7" />
    </clipPath>
    <clipPath
       clipPathUnits="userSpaceOnUse"
       id="clipPath8">
      <path
         d="M 0,0 H 567 V 216 H 0 Z"
         transform="scale(9.9999997)"
         id="path8" />
    </clipPath>
    <clipPath
       clipPathUnits="userSpaceOnUse"
       id="clipPath9">
      <path
         d="M 0,0 H 5670 V 2160 H 0 Z m 1930.14,1221.66 v 8.82 l 90.07,14.49 v -37.8 z"
         clip-rule="evenodd"
         id="path9" />
    </clipPath>
    <clipPath
       clipPathUnits="userSpaceOnUse"
       id="clipPath10">
      <path
         d="M 0,0 H 567 V 216 H 0 Z"
         transform="scale(9.9999997)"
         id="path10" />
    </clipPath>
    <clipPath
       clipPathUnits="userSpaceOnUse"
       id="clipPath11">
      <path
         d="M 0,0 H 567 V 216 H 0 Z"
         transform="scale(9.9999997)"
         id="path11" />
    </clipPath>
    <clipPath
       clipPathUnits="userSpaceOnUse"
       id="clipPath12">
      <path
         d="M 0,0 H 567 V 216 H 0 Z"
         transform="scale(9.9999997)"
         id="path12" />
    </clipPath>
    <clipPath
       clipPathUnits="userSpaceOnUse"
       id="clipPath13">
      <path
         d="M 0,0 H 5670 V 2160 H 0 Z m 1930.14,796.48 v 8.817 l 90.07,14.488 v -37.793 z"
         clip-rule="evenodd"
         id="path13" />
    </clipPath>
    <clipPath
       clipPathUnits="userSpaceOnUse"
       id="clipPath14">
      <path
         d="M 0,0 H 567 V 216 H 0 Z"
         transform="scale(9.9999997)"
         id="path14" />
    </clipPath>
    <clipPath
       clipPathUnits="userSpaceOnUse"
       id="clipPath15">
      <path
         d="M 0,0 H 5670 V 2160 H 0 Z m 1930.14,881.516 v 8.816 l 90.07,14.488 v -37.793 z"
         clip-rule="evenodd"
         id="path15" />
    </clipPath>
    <clipPath
       clipPathUnits="userSpaceOnUse"
       id="clipPath16">
      <path
         d="M 0,0 H 567 V 216 H 0 Z"
         transform="scale(9.9999997)"
         id="path16" />
    </clipPath>
    <clipPath
       clipPathUnits="userSpaceOnUse"
       id="clipPath17">
      <path
         d="M 0,0 H 567 V 216 H 0 Z"
         transform="scale(9.9999997)"
         id="path17" />
    </clipPath>
    <clipPath
       clipPathUnits="userSpaceOnUse"
       id="clipPath18">
      <path
         d="M 0,0 H 567 V 216 H 0 Z"
         transform="scale(9.9999997)"
         id="path18" />
    </clipPath>
    <clipPath
       clipPathUnits="userSpaceOnUse"
       id="clipPath19">
      <path
         d="M 0,0 H 567 V 216 H 0 Z"
         transform="scale(9.9999997)"
         id="path19" />
    </clipPath>
    <clipPath
       clipPathUnits="userSpaceOnUse"
       id="clipPath20">
      <path
         d="M 0,0 H 567 V 216 H 0 Z"
         transform="scale(9.9999997)"
         id="path20" />
    </clipPath>
    <clipPath
       clipPathUnits="userSpaceOnUse"
       id="clipPath21">
      <path
         d="M 0,0 H 567 V 216 H 0 Z"
         transform="scale(9.9999997)"
         id="path21" />
    </clipPath>
    <clipPath
       clipPathUnits="userSpaceOnUse"
       id="clipPath22">
      <path
         d="M 0,0 H 567 V 216 H 0 Z"
         transform="scale(9.9999997)"
         id="path22" />
    </clipPath>
    <clipPath
       clipPathUnits="userSpaceOnUse"
       id="clipPath23">
      <path
         d="M 0,0 H 567 V 216 H 0 Z"
         transform="scale(9.9999997)"
         id="path23" />
    </clipPath>
    <clipPath
       clipPathUnits="userSpaceOnUse"
       id="clipPath24">
      <path
         d="M 0,0 H 567 V 216 H 0 Z"
         transform="scale(9.9999997)"
         id="path24" />
    </clipPath>
    <clipPath
       clipPathUnits="userSpaceOnUse"
       id="clipPath25">
      <path
         d="M 0,0 H 567 V 216 H 0 Z"
         transform="scale(9.9999997)"
         id="path25" />
    </clipPath>
    <clipPath
       clipPathUnits="userSpaceOnUse"
       id="clipPath26">
      <path
         d="M 0,0 H 567 V 216 H 0 Z"
         transform="scale(9.9999997)"
         id="path26" />
    </clipPath>
    <clipPath
       clipPathUnits="userSpaceOnUse"
       id="clipPath27">
      <path
         d="M 0,0 H 567 V 216 H 0 Z"
         transform="scale(9.9999997)"
         id="path27" />
    </clipPath>
    <clipPath
       clipPathUnits="userSpaceOnUse"
       id="clipPath28">
      <path
         d="M 0,0 H 567 V 216 H 0 Z"
         transform="scale(9.9999997)"
         id="path28" />
    </clipPath>
    <clipPath
       clipPathUnits="userSpaceOnUse"
       id="clipPath29">
      <path
         d="M 0,0 H 567 V 216 H 0 Z"
         transform="scale(9.9999997)"
         id="path29" />
    </clipPath>
    <clipPath
       clipPathUnits="userSpaceOnUse"
       id="clipPath30">
      <path
         d="M 0,0 H 567 V 216 H 0 Z"
         transform="scale(9.9999997)"
         id="path30" />
    </clipPath>
    <clipPath
       clipPathUnits="userSpaceOnUse"
       id="clipPath31">
      <path
         d="M 0,0 H 567 V 216 H 0 Z"
         transform="scale(9.9999997)"
         id="path31" />
    </clipPath>
    <clipPath
       clipPathUnits="userSpaceOnUse"
       id="clipPath32">
      <path
         d="M 0,0 H 567 V 216 H 0 Z"
         transform="scale(9.9999997)"
         id="path32" />
    </clipPath>
    <clipPath
       clipPathUnits="userSpaceOnUse"
       id="clipPath33">
      <path
         d="M 0,0 H 567 V 216 H 0 Z"
         transform="scale(9.9999997)"
         id="path33" />
    </clipPath>
    <clipPath
       clipPathUnits="userSpaceOnUse"
       id="clipPath34">
      <path
         d="M 0,0 H 567 V 216 H 0 Z"
         transform="scale(9.9999997)"
         id="path34" />
    </clipPath>
    <clipPath
       clipPathUnits="userSpaceOnUse"
       id="clipPath35">
      <path
         d="M 0,0 H 567 V 216 H 0 Z"
         transform="scale(9.9999997)"
         id="path35" />
    </clipPath>
    <clipPath
       clipPathUnits="userSpaceOnUse"
       id="clipPath36">
      <path
         d="M 0,0 H 567 V 216 H 0 Z"
         transform="scale(9.9999997)"
         id="path36" />
    </clipPath>
    <clipPath
       clipPathUnits="userSpaceOnUse"
       id="clipPath37">
      <path
         d="M 0,0 H 567 V 216 H 0 Z"
         transform="scale(9.9999997)"
         id="path37" />
    </clipPath>
    <clipPath
       clipPathUnits="userSpaceOnUse"
       id="clipPath38">
      <path
         d="M 0,0 H 567 V 216 H 0 Z"
         transform="scale(9.9999997)"
         id="path38" />
    </clipPath>
    <clipPath
       clipPathUnits="userSpaceOnUse"
       id="clipPath39">
      <path
         d="M 0,0 H 567 V 216 H 0 Z"
         transform="scale(9.9999997)"
         id="path39" />
    </clipPath>
    <clipPath
       clipPathUnits="userSpaceOnUse"
       id="clipPath40">
      <path
         d="M 0,0 H 567 V 216 H 0 Z"
         transform="scale(9.9999997)"
         id="path40" />
    </clipPath>
    <clipPath
       clipPathUnits="userSpaceOnUse"
       id="clipPath41">
      <path
         d="M 0,0 H 567 V 216 H 0 Z"
         transform="scale(9.9999997)"
         id="path41" />
    </clipPath>
    <clipPath
       clipPathUnits="userSpaceOnUse"
       id="clipPath42">
      <path
         d="M 0,0 H 567 V 216 H 0 Z"
         transform="scale(9.9999997)"
         id="path42" />
    </clipPath>
    <clipPath
       clipPathUnits="userSpaceOnUse"
       id="clipPath43">
      <path
         d="M 0,0 H 567 V 216 H 0 Z"
         transform="scale(9.9999997)"
         id="path43" />
    </clipPath>
    <clipPath
       clipPathUnits="userSpaceOnUse"
       id="clipPath44">
      <path
         d="M 0,0 H 567 V 216 H 0 Z"
         transform="scale(9.9999997)"
         id="path44" />
    </clipPath>
    <clipPath
       clipPathUnits="userSpaceOnUse"
       id="clipPath45">
      <path
         d="M 0,0 H 567 V 216 H 0 Z"
         transform="scale(9.9999997)"
         id="path45" />
    </clipPath>
    <clipPath
       clipPathUnits="userSpaceOnUse"
       id="clipPath46">
      <path
         d="M 0,0 H 567 V 216 H 0 Z"
         transform="scale(9.9999997)"
         id="path46" />
    </clipPath>
    <clipPath
       clipPathUnits="userSpaceOnUse"
       id="clipPath47">
      <path
         d="M 0,0 H 567 V 216 H 0 Z"
         transform="scale(9.9999997)"
         id="path47" />
    </clipPath>
    <clipPath
       clipPathUnits="userSpaceOnUse"
       id="clipPath48">
      <path
         d="M 0,0 H 567 V 216 H 0 Z"
         transform="scale(9.9999997)"
         id="path48" />
    </clipPath>
    <clipPath
       clipPathUnits="userSpaceOnUse"
       id="clipPath49">
      <path
         d="M 0,0 H 567 V 216 H 0 Z"
         transform="scale(9.9999997)"
         id="path49" />
    </clipPath>
    <clipPath
       clipPathUnits="userSpaceOnUse"
       id="clipPath50">
      <path
         d="M 0,0 H 567 V 216 H 0 Z"
         transform="scale(9.9999997)"
         id="path50" />
    </clipPath>
    <clipPath
       clipPathUnits="userSpaceOnUse"
       id="clipPath51">
      <path
         d="M 0,0 H 567 V 216 H 0 Z"
         transform="scale(9.9999997)"
         id="path51" />
    </clipPath>
    <clipPath
       clipPathUnits="userSpaceOnUse"
       id="clipPath52">
      <path
         d="M 0,0 H 567 V 216 H 0 Z"
         transform="scale(9.9999997)"
         id="path52" />
    </clipPath>
    <clipPath
       clipPathUnits="userSpaceOnUse"
       id="clipPath53">
      <path
         d="M 0,0 H 567 V 216 H 0 Z"
         transform="scale(9.9999997)"
         id="path53" />
    </clipPath>
    <clipPath
       clipPathUnits="userSpaceOnUse"
       id="clipPath54">
      <path
         d="M 0,0 H 567 V 216 H 0 Z"
         transform="scale(9.9999997)"
         id="path54" />
    </clipPath>
    <clipPath
       clipPathUnits="userSpaceOnUse"
       id="clipPath55">
      <path
         d="M 0,0 H 567 V 216 H 0 Z"
         transform="scale(9.9999997)"
         id="path55" />
    </clipPath>
    <clipPath
       clipPathUnits="userSpaceOnUse"
       id="clipPath56">
      <path
         d="M 0,0 H 567 V 216 H 0 Z"
         transform="scale(9.9999997)"
         id="path56" />
    </clipPath>
    <clipPath
       clipPathUnits="userSpaceOnUse"
       id="clipPath57">
      <path
         d="M 0,0 H 567 V 216 H 0 Z"
         transform="scale(9.9999997)"
         id="path57" />
    </clipPath>
    <clipPath
       clipPathUnits="userSpaceOnUse"
       id="clipPath58">
      <path
         d="M 0,0 H 567 V 216 H 0 Z"
         transform="scale(9.9999997)"
         id="path58" />
    </clipPath>
    <clipPath
       clipPathUnits="userSpaceOnUse"
       id="clipPath59">
      <path
         d="M 0,0 H 567 V 216 H 0 Z"
         transform="scale(9.9999997)"
         id="path59" />
    </clipPath>
    <clipPath
       clipPathUnits="userSpaceOnUse"
       id="clipPath60">
      <path
         d="M 0,0 H 5670 V 2160 H 0 Z m 2950.58,2024.15 h 8.82 l 14.49,-90.07 h -37.8 z"
         clip-rule="evenodd"
         id="path60" />
    </clipPath>
    <clipPath
       clipPathUnits="userSpaceOnUse"
       id="clipPath61">
      <path
         d="M 0,0 H 567 V 216 H 0 Z"
         transform="scale(9.9999997)"
         id="path61" />
    </clipPath>
    <clipPath
       clipPathUnits="userSpaceOnUse"
       id="clipPath62">
      <path
         d="M 0,0 H 5670 V 2160 H 0 Z m 5652.22,1032.06 v -8.82 l -90.08,-14.49 v 37.8 z"
         clip-rule="evenodd"
         id="path62" />
    </clipPath>
    <clipPath
       clipPathUnits="userSpaceOnUse"
       id="clipPath63">
      <path
         d="M 0,0 H 567 V 216 H 0 Z"
         transform="scale(9.9999997)"
         id="path63" />
    </clipPath>
    <clipPath
       clipPathUnits="userSpaceOnUse"
       id="clipPath64">
      <path
         d="M 0,0 H 567 V 216 H 0 Z"
         transform="scale(9.9999997)"
         id="path64" />
    </clipPath>
    <clipPath
       clipPathUnits="userSpaceOnUse"
       id="clipPath65">
      <path
         d="M 0,0 H 567 V 216 H 0 Z"
         transform="scale(9.9999997)"
         id="path65" />
    </clipPath>
    <clipPath
       clipPathUnits="userSpaceOnUse"
       id="clipPath66">
      <path
         d="M 0,0 H 567 V 216 H 0 Z"
         transform="scale(9.9999997)"
         id="path66" />
    </clipPath>
    <clipPath
       clipPathUnits="userSpaceOnUse"
       id="clipPath67">
      <path
         d="M 0,0 H 567 V 216 H 0 Z"
         transform="scale(9.9999997)"
         id="path67" />
    </clipPath>
    <clipPath
       clipPathUnits="userSpaceOnUse"
       id="clipPath68">
      <path
         d="M 0,0 H 567 V 216 H 0 Z"
         transform="scale(9.9999997)"
         id="path68" />
    </clipPath>
    <clipPath
       clipPathUnits="userSpaceOnUse"
       id="clipPath69">
      <path
         d="M 0,0 H 5670 V 2160 H 0 Z m 2837.2,947.023 h 8.82 l 14.48,-90.074 h -37.79 z"
         clip-rule="evenodd"
         id="path69" />
    </clipPath>
    <clipPath
       clipPathUnits="userSpaceOnUse"
       id="clipPath70">
      <path
         d="M 0,0 H 567 V 216 H 0 Z"
         transform="scale(9.9999997)"
         id="path70" />
    </clipPath>
    <clipPath
       clipPathUnits="userSpaceOnUse"
       id="clipPath71">
      <path
         d="M 0,0 H 5670 V 2160 H 0 Z m 2846.02,1023.24 h -8.82 l -14.49,90.08 h 37.79 z"
         clip-rule="evenodd"
         id="path71" />
    </clipPath>
    <clipPath
       clipPathUnits="userSpaceOnUse"
       id="clipPath72">
      <path
         d="M 0,0 H 567 V 216 H 0 Z"
         transform="scale(9.9999997)"
         id="path72" />
    </clipPath>
    <clipPath
       clipPathUnits="userSpaceOnUse"
       id="clipPath73">
      <path
         d="M 0,0 H 5670 V 2160 H 0 Z m 4339.51,201.223 v 8.82 l 90.08,14.488 v -37.797 z"
         clip-rule="evenodd"
         id="path73" />
    </clipPath>
    <clipPath
       clipPathUnits="userSpaceOnUse"
       id="clipPath74">
      <path
         d="M 0,0 H 567 V 216 H 0 Z"
         transform="scale(9.9999997)"
         id="path74" />
    </clipPath>
    <clipPath
       clipPathUnits="userSpaceOnUse"
       id="clipPath75">
      <path
         d="M 0,0 H 5670 V 2160 H 0 Z m 2950.58,201.223 v 8.82 l 90.08,14.488 v -37.797 z m 1284.37,8.82 v -8.82 l -90.08,-14.489 v 37.797 z"
         clip-rule="evenodd"
         id="path75" />
    </clipPath>
    <clipPath
       clipPathUnits="userSpaceOnUse"
       id="clipPath76">
      <path
         d="M 0,0 H 567 V 216 H 0 Z"
         transform="scale(9.9999997)"
         id="path76" />
    </clipPath>
    <clipPath
       clipPathUnits="userSpaceOnUse"
       id="clipPath77">
      <path
         d="M 0,0 H 567 V 216 H 0 Z"
         transform="scale(9.9999997)"
         id="path77" />
    </clipPath>
    <clipPath
       clipPathUnits="userSpaceOnUse"
       id="clipPath78">
      <path
         d="M 0,0 H 567 V 216 H 0 Z"
         transform="scale(9.9999997)"
         id="path78" />
    </clipPath>
    <clipPath
       clipPathUnits="userSpaceOnUse"
       id="clipPath79">
      <path
         d="M 0,0 H 567 V 216 H 0 Z"
         transform="scale(9.9999997)"
         id="path79" />
    </clipPath>
    <clipPath
       clipPathUnits="userSpaceOnUse"
       id="clipPath80">
      <path
         d="M 0,0 H 567 V 216 H 0 Z"
         transform="scale(9.9999997)"
         id="path80" />
    </clipPath>
    <clipPath
       clipPathUnits="userSpaceOnUse"
       id="clipPath81">
      <path
         d="M 0,0 H 5670 V 2160 H 0 Z m 238.23,1051.59 h -8.82 l -14.488,90.07 h 37.797 z"
         clip-rule="evenodd"
         id="path81" />
    </clipPath>
    <clipPath
       clipPathUnits="userSpaceOnUse"
       id="clipPath82">
      <path
         d="M 0,0 H 567 V 216 H 0 Z"
         transform="scale(9.9999997)"
         id="path82" />
    </clipPath>
    <clipPath
       clipPathUnits="userSpaceOnUse"
       id="clipPath83">
      <path
         d="M 0,0 H 5670 V 2160 H 0 Z m 379.957,1051.59 h -8.82 l -14.485,90.07 h 37.793 z"
         clip-rule="evenodd"
         id="path83" />
    </clipPath>
    <clipPath
       clipPathUnits="userSpaceOnUse"
       id="clipPath84">
      <path
         d="M 0,0 H 567 V 216 H 0 Z"
         transform="scale(9.9999997)"
         id="path84" />
    </clipPath>
    <clipPath
       clipPathUnits="userSpaceOnUse"
       id="clipPath85">
      <path
         d="M 0,0 H 5670 V 2160 H 0 Z m 521.684,1051.59 h -8.817 l -14.488,90.07 h 37.793 z"
         clip-rule="evenodd"
         id="path85" />
    </clipPath>
    <clipPath
       clipPathUnits="userSpaceOnUse"
       id="clipPath86">
      <path
         d="M 0,0 H 567 V 216 H 0 Z"
         transform="scale(9.9999997)"
         id="path86" />
    </clipPath>
    <clipPath
       clipPathUnits="userSpaceOnUse"
       id="clipPath87">
      <path
         d="M 0,0 H 5670 V 2160 H 0 Z m 663.41,1051.59 h -8.816 l -14.489,90.07 h 37.793 z"
         clip-rule="evenodd"
         id="path87" />
    </clipPath>
    <clipPath
       clipPathUnits="userSpaceOnUse"
       id="clipPath88">
      <path
         d="M 0,0 H 567 V 216 H 0 Z"
         transform="scale(9.9999997)"
         id="path88" />
    </clipPath>
    <clipPath
       clipPathUnits="userSpaceOnUse"
       id="clipPath89">
      <path
         d="M 0,0 H 5670 V 2160 H 0 Z m 805.141,1051.59 h -8.821 l -14.488,90.07 h 37.797 z"
         clip-rule="evenodd"
         id="path89" />
    </clipPath>
    <clipPath
       clipPathUnits="userSpaceOnUse"
       id="clipPath90">
      <path
         d="M 0,0 H 567 V 216 H 0 Z"
         transform="scale(9.9999997)"
         id="path90" />
    </clipPath>
    <clipPath
       clipPathUnits="userSpaceOnUse"
       id="clipPath91">
      <path
         d="M 0,0 H 567 V 216 H 0 Z"
         transform="scale(9.9999997)"
         id="path91" />
    </clipPath>
    <clipPath
       clipPathUnits="userSpaceOnUse"
       id="clipPath92">
      <path
         d="M 0,0 H 567 V 216 H 0 Z"
         transform="scale(9.9999997)"
         id="path92" />
    </clipPath>
    <clipPath
       clipPathUnits="userSpaceOnUse"
       id="clipPath93">
      <path
         d="M 0,0 H 567 V 216 H 0 Z"
         transform="scale(9.9999997)"
         id="path93" />
    </clipPath>
    <clipPath
       clipPathUnits="userSpaceOnUse"
       id="clipPath94">
      <path
         d="M 0,0 H 567 V 216 H 0 Z"
         transform="scale(9.9999997)"
         id="path94" />
    </clipPath>
    <clipPath
       clipPathUnits="userSpaceOnUse"
       id="clipPath95">
      <path
         d="M 0,0 H 5670 V 2160 H 0 Z m 1930.14,1136.63 v 8.81 l 90.07,14.49 v -37.79 z"
         clip-rule="evenodd"
         id="path95" />
    </clipPath>
    <clipPath
       clipPathUnits="userSpaceOnUse"
       id="clipPath96">
      <path
         d="M 0,0 H 567 V 216 H 0 Z"
         transform="scale(9.9999997)"
         id="path96" />
    </clipPath>
    <clipPath
       clipPathUnits="userSpaceOnUse"
       id="clipPath97">
      <path
         d="M 0,0 H 5670 V 2160 H 0 Z m 1930.14,970.332 v 8.816 l 90.07,14.489 v -37.793 z"
         clip-rule="evenodd"
         id="path97" />
    </clipPath>
    <clipPath
       clipPathUnits="userSpaceOnUse"
       id="clipPath98">
      <path
         d="M 0,0 H 567 V 216 H 0 Z"
         transform="scale(9.9999997)"
         id="path98" />
    </clipPath>
    <clipPath
       clipPathUnits="userSpaceOnUse"
       id="clipPath99">
      <path
         d="M 0,0 H 567 V 216 H 0 Z"
         transform="scale(9.9999997)"
         id="path99" />
    </clipPath>
    <clipPath
       clipPathUnits="userSpaceOnUse"
       id="clipPath100">
      <path
         d="M 0,0 H 567 V 216 H 0 Z"
         transform="scale(9.9999997)"
         id="path100" />
    </clipPath>
    <clipPath
       clipPathUnits="userSpaceOnUse"
       id="clipPath101">
      <path
         d="M 0,0 H 567 V 216 H 0 Z"
         transform="scale(9.9999997)"
         id="path101" />
    </clipPath>
    <clipPath
       clipPathUnits="userSpaceOnUse"
       id="clipPath102">
      <path
         d="M 0,0 H 5670 V 2160 H 0 Z m 1930.14,1051.59 v 8.82 l 90.07,14.48 v -37.79 z"
         clip-rule="evenodd"
         id="path102" />
    </clipPath>
    <clipPath
       clipPathUnits="userSpaceOnUse"
       id="clipPath103">
      <path
         d="M 0,0 H 567 V 216 H 0 Z"
         transform="scale(9.9999997)"
         id="path103" />
    </clipPath>
    <clipPath
       clipPathUnits="userSpaceOnUse"
       id="clipPath104">
      <path
         d="M 0,0 H 567 V 216 H 0 Z"
         transform="scale(9.9999997)"
         id="path104" />
    </clipPath>
    <clipPath
       clipPathUnits="userSpaceOnUse"
       id="clipPath105">
      <path
         d="M 0,0 H 567 V 216 H 0 Z"
         transform="scale(9.9999997)"
         id="path105" />
    </clipPath>
    <clipPath
       clipPathUnits="userSpaceOnUse"
       id="clipPath106">
      <path
         d="M 0,0 H 567 V 216 H 0 Z"
         transform="scale(9.9999997)"
         id="path106" />
    </clipPath>
    <clipPath
       clipPathUnits="userSpaceOnUse"
       id="clipPath107">
      <path
         d="M 0,0 H 567 V 216 H 0 Z"
         transform="scale(9.9999997)"
         id="path107" />
    </clipPath>
    <clipPath
       clipPathUnits="userSpaceOnUse"
       id="clipPath108">
      <path
         d="M 0,0 H 567 V 216 H 0 Z"
         transform="scale(9.9999997)"
         id="path108" />
    </clipPath>
    <clipPath
       clipPathUnits="userSpaceOnUse"
       id="clipPath109">
      <path
         d="M 0,0 H 567 V 216 H 0 Z"
         transform="scale(9.9999997)"
         id="path109" />
    </clipPath>
    <clipPath
       clipPathUnits="userSpaceOnUse"
       id="clipPath110">
      <path
         d="M 0,0 H 567 V 216 H 0 Z"
         transform="scale(9.9999997)"
         id="path110" />
    </clipPath>
    <clipPath
       clipPathUnits="userSpaceOnUse"
       id="clipPath111">
      <path
         d="M 0,0 H 567 V 216 H 0 Z"
         transform="scale(9.9999997)"
         id="path111" />
    </clipPath>
    <clipPath
       clipPathUnits="userSpaceOnUse"
       id="clipPath1">
      <g
         id="g2"
         style="stroke-width:0.999999">
        <path
           d="M 23.150898,126.8582 H 183.1709 V 65.898204 H 23.150898 Z"
           id="path1"
           style="stroke-width:0.999999" />
      </g>
    </clipPath>
    <clipPath
       clipPathUnits="userSpaceOnUse"
       id="clipPath112">
      <g
         id="g229"
         style="stroke-width:0.999999">
        <path
           d="M 23.150898,126.8582 H 183.1709 V 65.898204 H 23.150898 Z"
           id="path229"
           style="stroke-width:0.999999" />
      </g>
    </clipPath>
    <clipPath
       clipPathUnits="userSpaceOnUse"
       id="clipPath230">
      <g
         id="g231"
         style="stroke-width:0.999999">
        <path
           d="M 23.150899,126.8582 H 183.1709 V 65.898198 H 23.150899 Z"
           id="path230"
           style="stroke-width:0.999999" />
      </g>
    </clipPath>
    <clipPath
       clipPathUnits="userSpaceOnUse"
       id="clipPath231">
      <g
         id="g232"
         style="stroke-width:0.999999">
        <path
           d="M 23.150899,126.8582 H 183.1709 V 65.898198 H 23.150899 Z"
           id="path231"
           style="stroke-width:0.999999" />
      </g>
    </clipPath>
    <clipPath
       clipPathUnits="userSpaceOnUse"
       id="clipPath232">
      <g
         id="g233"
         style="stroke-width:0.999999">
        <path
           d="M 23.150899,126.8582 H 183.1709 V 65.898198 H 23.150899 Z"
           id="path232"
           style="stroke-width:0.999999" />
      </g>
    </clipPath>
    <clipPath
       clipPathUnits="userSpaceOnUse"
       id="clipPath233">
      <g
         id="g234"
         style="stroke-width:0.999999">
        <path
           d="M 23.150899,126.8582 H 183.1709 V 65.898198 H 23.150899 Z"
           id="path233"
           style="stroke-width:0.999999" />
      </g>
    </clipPath>
    <clipPath
       clipPathUnits="userSpaceOnUse"
       id="clipPath234">
      <g
         id="g235"
         style="stroke-width:0.999999">
        <path
           d="M 23.150899,126.8582 H 183.1709 V 65.898198 H 23.150899 Z"
           id="path234"
           style="stroke-width:0.999999" />
      </g>
    </clipPath>
    <inkscape:path-effect
       effect="bspline"
       id="path-effect6-4"
       is_visible="true"
       lpeversion="1.3"
       weight="33.333333"
       steps="2"
       helper_size="0"
       apply_no_weight="true"
       apply_with_weight="true"
       only_selected="false"
       uniform="false" />
    <inkscape:path-effect
       effect="bspline"
       id="path-effect117-0"
       is_visible="true"
       lpeversion="1.3"
       weight="33.333333"
       steps="2"
       helper_size="0"
       apply_no_weight="true"
       apply_with_weight="true"
       only_selected="false"
       uniform="false" />
    <inkscape:path-effect
       effect="bspline"
       id="path-effect118-9"
       is_visible="true"
       lpeversion="1.3"
       weight="33.333333"
       steps="2"
       helper_size="0"
       apply_no_weight="true"
       apply_with_weight="true"
       only_selected="false"
       uniform="false" />
  </defs>
  <g
     inkscape:label="Ebene 1"
     inkscape:groupmode="layer"
     id="layer1"
     transform="translate(-19.461127,-69.329013)">
    <path
       style="fill:none;fill-opacity:1;fill-rule:evenodd;stroke:#000000;stroke-width:0.165;stroke-linecap:round;stroke-miterlimit:3.9;stroke-dasharray:0.495, 0.495;stroke-dashoffset:0;stroke-opacity:1"
       d="m 28.448789,97.800872 c 1.766958,1.618172 3.533882,3.236308 5.084042,4.239878 1.550161,1.00356 2.883403,1.39245 4.216727,1.39245 1.333324,0 2.66657,-0.38889 4.208051,-1.3901 1.541481,-1.00121 3.291046,-2.614644 5.040648,-4.228112"
       id="path117-0"
       inkscape:path-effect="#path-effect118-9"
       inkscape:original-d="m 28.448789,97.800872 c 1.766959,1.618171 3.533884,3.236308 5.300879,4.854518 1.333323,0.38892 2.666567,0.77781 3.999889,1.16673 1.333324,-0.38892 2.666572,-0.77781 3.999897,-1.16673 1.749635,-1.6135 3.499201,-3.226934 5.248803,-4.840402"
       sodipodi:nodetypes="ccccc"
       transform="matrix(1,0,0,-1,-2.4761296e-7,193.3289)" />
    <path
       d="m 92.0977,1339.46 c 95.0743,141.72 254.5193,226.75 425.1753,226.75 170.661,0 330.106,-85.03 425.18,-226.75"
       style="fill:none;stroke:#000000;stroke-width:9.4485;stroke-linecap:round;stroke-linejoin:bevel;stroke-miterlimit:10;stroke-dasharray:none;stroke-opacity:1"
       transform="matrix(0.02822222,0,0,-0.02822222,23.150898,126.8582)"
       clip-path="url(#clipPath19)"
       id="path134" />
    <path
       d="M 92.0977,772.539 C 187.172,630.816 346.617,545.777 517.273,545.777 c 170.661,0 330.106,85.039 425.18,226.762"
       style="fill:none;stroke:#000000;stroke-width:9.4485;stroke-linecap:round;stroke-linejoin:bevel;stroke-miterlimit:10;stroke-dasharray:none;stroke-opacity:1"
       transform="matrix(0.02822222,0,0,-0.02822222,23.150898,126.8582)"
       clip-path="url(#clipPath20)"
       id="path135" />
    <path
       d="m 942.457,1056 c 0,-234.824 -190.363,-425.184 -425.184,-425.184 -234.82,0 -425.1792,190.36 -425.1792,425.184 0,234.82 190.3592,425.18 425.1792,425.18 234.821,0 425.184,-190.36 425.184,-425.18 z"
       style="fill:none;stroke:#000000;stroke-width:9.4485;stroke-linecap:round;stroke-linejoin:bevel;stroke-miterlimit:10;stroke-dasharray:none;stroke-opacity:1"
       transform="matrix(0.02822222,0,0,-0.02822222,23.150898,126.8582)"
       clip-path="url(#clipPath23)"
       id="path138" />
    <path
       d="M 92.0938,772.543 V 205.633"
       style="fill:none;stroke:#000000;stroke-width:9.4485;stroke-linecap:round;stroke-linejoin:round;stroke-miterlimit:10;stroke-dasharray:none;stroke-opacity:1"
       transform="matrix(0.02822222,0,0,-0.02822222,23.150898,126.8582)"
       clip-path="url(#clipPath37)"
       id="path152" />
    <path
       d="M 942.457,772.543 V 205.633"
       style="fill:none;stroke:#000000;stroke-width:9.4485;stroke-linecap:round;stroke-linejoin:round;stroke-miterlimit:10;stroke-dasharray:none;stroke-opacity:1"
       transform="matrix(0.02822222,0,0,-0.02822222,23.150898,126.8582)"
       clip-path="url(#clipPath38)"
       id="path153" />
    <path
       d="M 92.0938,1906.36 V 1339.45"
       style="fill:none;stroke:#000000;stroke-width:9.4485;stroke-linecap:round;stroke-linejoin:round;stroke-miterlimit:10;stroke-dasharray:none;stroke-opacity:1"
       transform="matrix(0.02822222,0,0,-0.02822222,23.150898,126.8582)"
       clip-path="url(#clipPath39)"
       id="path154" />
    <path
       d="M 942.457,1906.36 V 1339.45"
       style="fill:none;stroke:#000000;stroke-width:9.4485;stroke-linecap:round;stroke-linejoin:round;stroke-miterlimit:10;stroke-dasharray:none;stroke-opacity:1"
       transform="matrix(0.02822222,0,0,-0.02822222,23.150898,126.8582)"
       clip-path="url(#clipPath40)"
       id="path155" />
    <path
       d="m 148.785,205.633 v 481.875 l 85.035,85.035 V 1056"
       style="fill:none;stroke:#8496b0;stroke-width:4.72425;stroke-linecap:round;stroke-linejoin:round;stroke-miterlimit:10;stroke-dasharray:none;stroke-opacity:1"
       transform="matrix(0.02822222,0,0,-0.02822222,23.150898,126.8582)"
       clip-path="url(#clipPath80)"
       id="path195" />
    <path
       d="m 148.785,1906.36 v -481.87 l 85.035,-85.04 V 1056"
       style="fill:none;stroke:#8496b0;stroke-width:4.72425;stroke-linecap:round;stroke-linejoin:round;stroke-miterlimit:10;stroke-dasharray:none;stroke-opacity:1"
       transform="matrix(0.02822222,0,0,-0.02822222,23.150898,126.8582)"
       clip-path="url(#clipPath81)"
       id="path196" />
    <path
       d="m 214.922,1141.66 18.898,-75.59 18.899,75.59 z"
       style="fill:#8496b0;fill-opacity:1;fill-rule:evenodd;stroke:#8496b0;stroke-width:4.72425;stroke-linecap:butt;stroke-linejoin:miter;stroke-miterlimit:10;stroke-dasharray:none;stroke-opacity:1"
       transform="matrix(0.02822222,0,0,-0.02822222,23.150898,126.8582)"
       clip-path="url(#clipPath82)"
       id="path197" />
    <path
       d="m 347.203,1906.36 v -368.49 l 28.344,-85.03 V 1056"
       style="fill:none;stroke:#8496b0;stroke-width:4.72425;stroke-linecap:round;stroke-linejoin:round;stroke-miterlimit:10;stroke-dasharray:none;stroke-opacity:1"
       transform="matrix(0.02822222,0,0,-0.02822222,23.150898,126.8582)"
       clip-path="url(#clipPath83)"
       id="path198" />
    <path
       d="m 356.652,1141.66 18.895,-75.59 18.898,75.59 z"
       style="fill:#8496b0;fill-opacity:1;fill-rule:evenodd;stroke:#8496b0;stroke-width:4.72425;stroke-linecap:butt;stroke-linejoin:miter;stroke-miterlimit:10;stroke-dasharray:none;stroke-opacity:1"
       transform="matrix(0.02822222,0,0,-0.02822222,23.150898,126.8582)"
       clip-path="url(#clipPath84)"
       id="path199" />
    <path
       d="M 517.273,1906.36 V 1056"
       style="fill:none;stroke:#8496b0;stroke-width:4.72425;stroke-linecap:round;stroke-linejoin:round;stroke-miterlimit:10;stroke-dasharray:none;stroke-opacity:1"
       transform="matrix(0.02822222,0,0,-0.02822222,23.150898,126.8582)"
       clip-path="url(#clipPath85)"
       id="path200" />
    <path
       d="m 498.379,1141.66 18.894,-75.59 18.899,75.59 z"
       style="fill:#8496b0;fill-opacity:1;fill-rule:evenodd;stroke:#8496b0;stroke-width:4.72425;stroke-linecap:butt;stroke-linejoin:miter;stroke-miterlimit:10;stroke-dasharray:none;stroke-opacity:1"
       transform="matrix(0.02822222,0,0,-0.02822222,23.150898,126.8582)"
       clip-path="url(#clipPath86)"
       id="path201" />
    <path
       d="m 687.348,1906.36 v -368.49 l -28.344,-85.03 V 1056"
       style="fill:none;stroke:#8496b0;stroke-width:4.72425;stroke-linecap:round;stroke-linejoin:round;stroke-miterlimit:10;stroke-dasharray:none;stroke-opacity:1"
       transform="matrix(0.02822222,0,0,-0.02822222,23.150898,126.8582)"
       clip-path="url(#clipPath87)"
       id="path202" />
    <path
       d="m 640.105,1141.66 18.899,-75.59 18.894,75.59 z"
       style="fill:#8496b0;fill-opacity:1;fill-rule:evenodd;stroke:#8496b0;stroke-width:4.72425;stroke-linecap:butt;stroke-linejoin:miter;stroke-miterlimit:10;stroke-dasharray:none;stroke-opacity:1"
       transform="matrix(0.02822222,0,0,-0.02822222,23.150898,126.8582)"
       clip-path="url(#clipPath88)"
       id="path203" />
    <path
       d="M 885.766,1906.36 V 1424.49 L 800.73,1339.45 V 1056"
       style="fill:none;stroke:#8496b0;stroke-width:4.72425;stroke-linecap:round;stroke-linejoin:round;stroke-miterlimit:10;stroke-dasharray:none;stroke-opacity:1"
       transform="matrix(0.02822222,0,0,-0.02822222,23.150898,126.8582)"
       clip-path="url(#clipPath89)"
       id="path204" />
    <path
       d="m 781.832,1141.66 18.898,-75.59 18.899,75.59 z"
       style="fill:#8496b0;fill-opacity:1;fill-rule:evenodd;stroke:#8496b0;stroke-width:4.72425;stroke-linecap:butt;stroke-linejoin:miter;stroke-miterlimit:10;stroke-dasharray:none;stroke-opacity:1"
       transform="matrix(0.02822222,0,0,-0.02822222,23.150898,126.8582)"
       clip-path="url(#clipPath90)"
       id="path205" />
    <path
       d="m 347.203,205.633 v 368.492 l 28.344,85.035 V 1056"
       style="fill:none;stroke:#8496b0;stroke-width:4.72425;stroke-linecap:round;stroke-linejoin:round;stroke-miterlimit:10;stroke-dasharray:none;stroke-opacity:1"
       transform="matrix(0.02822222,0,0,-0.02822222,23.150898,126.8582)"
       clip-path="url(#clipPath91)"
       id="path206" />
    <path
       d="M 517.273,205.633 V 1056"
       style="fill:none;stroke:#8496b0;stroke-width:4.72425;stroke-linecap:round;stroke-linejoin:round;stroke-miterlimit:10;stroke-dasharray:none;stroke-opacity:1"
       transform="matrix(0.02822222,0,0,-0.02822222,23.150898,126.8582)"
       clip-path="url(#clipPath92)"
       id="path207" />
    <path
       d="M 687.348,205.633 V 574.125 L 659.004,659.16 V 1056"
       style="fill:none;stroke:#8496b0;stroke-width:4.72425;stroke-linecap:round;stroke-linejoin:round;stroke-miterlimit:10;stroke-dasharray:none;stroke-opacity:1"
       transform="matrix(0.02822222,0,0,-0.02822222,23.150898,126.8582)"
       clip-path="url(#clipPath93)"
       id="path208" />
    <path
       d="M 885.766,205.633 V 687.508 L 800.73,772.543 V 1056"
       style="fill:none;stroke:#8496b0;stroke-width:4.72425;stroke-linecap:round;stroke-linejoin:round;stroke-miterlimit:10;stroke-dasharray:none;stroke-opacity:1"
       transform="matrix(0.02822222,0,0,-0.02822222,23.150898,126.8582)"
       clip-path="url(#clipPath94)"
       id="path209" />
    <text
       xml:space="preserve"
       style="font-size:2.82222px;line-height:1.15;font-family:'Times New Roman';-inkscape-font-specification:'Times New Roman, Normal';text-align:center;text-anchor:middle;fill:#8496b0;fill-opacity:1;fill-rule:evenodd;stroke:#8496b0;stroke-width:0.2;stroke-linecap:square;stroke-miterlimit:3.9;stroke-opacity:1"
       x="37.63942"
       y="71.288582"
       id="text229"><tspan
         sodipodi:role="line"
         id="tspan229"
         style="font-size:2.82222px;stroke:none;stroke-width:0.2"
         x="37.63942"
         y="71.288582">Field excitation</tspan></text>
    <rect
       style="fill:#000000;fill-opacity:1;fill-rule:evenodd;stroke:none;stroke-width:0.264999;stroke-linecap:round;stroke-miterlimit:3.9;stroke-opacity:1"
       id="rect116"
       width="3.2274373"
       height="5.5645843"
       x="49.882454"
       y="93.928497" />
    <g
       id="g299-3-2-0"
       transform="matrix(0.26458333,0,0,0.26458333,-46.141836,58.051634)">
      <path
         id="path299-8-2-8"
         d="m 329.35,234.74 0.02,0.52 0.1,0.56 0.18,0.5 0.22,0.47 0.28,0.43 0.32,0.45 0.4,0.33 0.45,0.35 0.48,0.22 0.45,0.2 0.55,0.15 0.5,0.05 h 0.55 l 0.52,-0.05 0.5,-0.15 0.5,-0.2 0.48,-0.22 0.45,-0.3 0.37,-0.38 0.33,-0.4 0.3,-0.48 0.2,-0.47 0.17,-0.5 0.1,-0.56 0.03,-0.5 -0.03,-0.52 -0.1,-0.56 -0.15,-0.5 -0.22,-0.47 -0.3,-0.43 -0.33,-0.45 -0.37,-0.35 -0.45,-0.33 -0.48,-0.25 -0.5,-0.17 -0.5,-0.13 -0.52,-0.08 h -0.53 l -0.52,0.08 -0.5,0.13 -0.5,0.17 -0.48,0.25 -0.45,0.33 -0.35,0.35 -0.35,0.4 -0.3,0.48 -0.22,0.47 -0.18,0.5 -0.1,0.51 z"
         style="fill:#b3b3b3;fill-opacity:1;fill-rule:evenodd;stroke:#000000;stroke-width:0.24024;stroke-linecap:butt;stroke-linejoin:round;stroke-miterlimit:8;stroke-dasharray:none;stroke-opacity:1"
         transform="matrix(1.3333333,0,0,-1.3333333,-166.72933,459.10667)" />
    </g>
    <g
       id="g299-3-2-0-6"
       transform="matrix(0.26458333,0,0,0.26458333,-25.479085,58.051634)">
      <path
         id="path299-8-2-8-7"
         d="m 329.35,234.74 0.02,0.52 0.1,0.56 0.18,0.5 0.22,0.47 0.28,0.43 0.32,0.45 0.4,0.33 0.45,0.35 0.48,0.22 0.45,0.2 0.55,0.15 0.5,0.05 h 0.55 l 0.52,-0.05 0.5,-0.15 0.5,-0.2 0.48,-0.22 0.45,-0.3 0.37,-0.38 0.33,-0.4 0.3,-0.48 0.2,-0.47 0.17,-0.5 0.1,-0.56 0.03,-0.5 -0.03,-0.52 -0.1,-0.56 -0.15,-0.5 -0.22,-0.47 -0.3,-0.43 -0.33,-0.45 -0.37,-0.35 -0.45,-0.33 -0.48,-0.25 -0.5,-0.17 -0.5,-0.13 -0.52,-0.08 h -0.53 l -0.52,0.08 -0.5,0.13 -0.5,0.17 -0.48,0.25 -0.45,0.33 -0.35,0.35 -0.35,0.4 -0.3,0.48 -0.22,0.47 -0.18,0.5 -0.1,0.51 z"
         style="fill:#b3b3b3;fill-opacity:1;fill-rule:evenodd;stroke:#000000;stroke-width:0.24024;stroke-linecap:butt;stroke-linejoin:round;stroke-miterlimit:8;stroke-dasharray:none;stroke-opacity:1"
         transform="matrix(1.3333333,0,0,-1.3333333,-166.72933,459.10667)" />
    </g>
    <rect
       style="fill:#000000;fill-opacity:1;fill-rule:evenodd;stroke:none;stroke-width:0.264999;stroke-linecap:round;stroke-miterlimit:3.9;stroke-opacity:1"
       id="rect116-0"
       width="3.2274373"
       height="5.5645843"
       x="22.34124"
       y="93.928497" />
    <path
       style="fill:#000000;fill-opacity:1;fill-rule:evenodd;stroke:#000000;stroke-width:0.264999;stroke-linecap:round;stroke-miterlimit:3.9;stroke-opacity:1"
       d="M 23.954959,96.710789 H 19.593627"
       id="path116" />
    <path
       style="fill:#000000;fill-opacity:1;fill-rule:evenodd;stroke:#000000;stroke-width:0.264999;stroke-linecap:round;stroke-miterlimit:3.9;stroke-opacity:1"
       d="M 55.898885,96.710789 H 51.537553"
       id="path116-3" />
    <path
       style="fill:none;fill-opacity:1;fill-rule:evenodd;stroke:#000000;stroke-width:0.165;stroke-linecap:round;stroke-miterlimit:3.9;stroke-dasharray:none;stroke-dashoffset:0;stroke-opacity:1"
       d="m 28.448789,97.800872 c 1.766958,1.618172 3.533882,3.236308 5.084042,4.239878 1.550161,1.00356 2.883403,1.39245 4.216727,1.39245 1.333324,0 2.66657,-0.38889 4.208051,-1.3901 1.541481,-1.00121 3.291046,-2.614644 5.040648,-4.228112"
       id="path117"
       inkscape:path-effect="#path-effect118"
       inkscape:original-d="m 28.448789,97.800872 c 1.766959,1.618171 3.533884,3.236308 5.300879,4.854518 1.333323,0.38892 2.666567,0.77781 3.999889,1.16673 1.333324,-0.38892 2.666572,-0.77781 3.999897,-1.16673 1.749635,-1.6135 3.499201,-3.226934 5.248803,-4.840402"
       sodipodi:nodetypes="ccccc" />
  </g>
</svg>
