<?xml version="1.0" encoding="UTF-8" standalone="no"?>
<!-- Created with Inkscape (http://www.inkscape.org/) -->

<svg
   width="55.251392mm"
   height="55.251354mm"
   viewBox="0 0 55.251392 55.251354"
   version="1.1"
   id="svg1"
   inkscape:version="1.3.2 (091e20e, 2023-11-25, custom)"
   sodipodi:docname="Ideal_air_gap_field.svg"
   xmlns:inkscape="http://www.inkscape.org/namespaces/inkscape"
   xmlns:sodipodi="http://sodipodi.sourceforge.net/DTD/sodipodi-0.dtd"
   xmlns="http://www.w3.org/2000/svg"
   xmlns:svg="http://www.w3.org/2000/svg">
  <sodipodi:namedview
     id="namedview1"
     pagecolor="#505050"
     bordercolor="#eeeeee"
     borderopacity="1"
     inkscape:showpageshadow="0"
     inkscape:pageopacity="0"
     inkscape:pagecheckerboard="0"
     inkscape:deskcolor="#505050"
     inkscape:document-units="mm"
     inkscape:zoom="4.1157407"
     inkscape:cx="110.18673"
     inkscape:cy="112.61642"
     inkscape:window-width="2560"
     inkscape:window-height="1351"
     inkscape:window-x="-9"
     inkscape:window-y="-9"
     inkscape:window-maximized="1"
     inkscape:current-layer="g70" />
  <defs
     id="defs1">
    <clipPath
       clipPathUnits="userSpaceOnUse"
       id="clipPath3">
      <path
         d="M 0,0 H 236 V 210 H 0 Z"
         transform="matrix(9.9999997,0,0,9.9999997,-3.1249999e-6,-3.125e-5)"
         id="path3" />
    </clipPath>
    <clipPath
       clipPathUnits="userSpaceOnUse"
       id="clipPath4">
      <path
         d="M 0,0 H 236 V 210 H 0 Z"
         transform="matrix(9.9999997,0,0,9.9999997,-3.1249999e-6,-3.125e-5)"
         id="path4" />
    </clipPath>
    <clipPath
       clipPathUnits="userSpaceOnUse"
       id="clipPath5">
      <path
         d="M 0,0 H 236 V 210 H 0 Z"
         transform="matrix(9.9999997,0,0,9.9999997,-3.1249999e-6,-3.125e-5)"
         id="path5" />
    </clipPath>
    <clipPath
       clipPathUnits="userSpaceOnUse"
       id="clipPath6">
      <path
         d="M 0,0 H 236 V 210 H 0 Z"
         transform="matrix(9.9999997,0,0,9.9999997,-3.1249999e-6,-3.125e-5)"
         id="path6" />
    </clipPath>
    <clipPath
       clipPathUnits="userSpaceOnUse"
       id="clipPath7">
      <path
         d="M 0,0 H 236 V 210 H 0 Z"
         transform="matrix(9.9999997,0,0,9.9999997,-3.1249999e-6,-3.125e-5)"
         id="path7" />
    </clipPath>
    <clipPath
       clipPathUnits="userSpaceOnUse"
       id="clipPath8">
      <path
         d="M 0,0 H 236 V 210 H 0 Z"
         transform="matrix(9.9999997,0,0,9.9999997,-3.1249999e-6,-3.125e-5)"
         id="path8" />
    </clipPath>
    <clipPath
       clipPathUnits="userSpaceOnUse"
       id="clipPath9">
      <path
         d="M 0,0 H 236 V 210 H 0 Z"
         transform="matrix(9.9999997,0,0,9.9999997,-3.1249999e-6,-3.125e-5)"
         id="path9" />
    </clipPath>
    <clipPath
       clipPathUnits="userSpaceOnUse"
       id="clipPath10">
      <path
         d="M 0,0 H 236 V 210 H 0 Z"
         transform="matrix(9.9999997,0,0,9.9999997,-3.1249999e-6,-3.125e-5)"
         id="path10" />
    </clipPath>
    <clipPath
       clipPathUnits="userSpaceOnUse"
       id="clipPath11">
      <path
         d="M 0,0 H 236 V 210 H 0 Z"
         transform="matrix(9.9999997,0,0,9.9999997,-3.1249999e-6,-3.125e-5)"
         id="path11" />
    </clipPath>
    <clipPath
       clipPathUnits="userSpaceOnUse"
       id="clipPath12">
      <path
         d="M 0,0 H 236 V 210 H 0 Z"
         transform="matrix(9.9999997,0,0,9.9999997,-3.1249999e-6,-3.125e-5)"
         id="path12" />
    </clipPath>
    <clipPath
       clipPathUnits="userSpaceOnUse"
       id="clipPath13">
      <path
         d="M 0,0 H 236 V 210 H 0 Z"
         transform="matrix(9.9999997,0,0,9.9999997,-3.1249999e-6,-3.125e-5)"
         id="path13" />
    </clipPath>
    <clipPath
       clipPathUnits="userSpaceOnUse"
       id="clipPath14">
      <path
         d="M 0,0 H 236 V 210 H 0 Z"
         transform="matrix(9.9999997,0,0,9.9999997,-3.1249999e-6,-3.125e-5)"
         id="path14" />
    </clipPath>
    <clipPath
       clipPathUnits="userSpaceOnUse"
       id="clipPath15">
      <path
         d="M 0,0 H 236 V 210 H 0 Z"
         transform="matrix(9.9999997,0,0,9.9999997,-3.1249999e-6,-3.125e-5)"
         id="path15" />
    </clipPath>
    <clipPath
       clipPathUnits="userSpaceOnUse"
       id="clipPath16">
      <path
         d="M 0,0 H 236 V 210 H 0 Z"
         transform="matrix(9.9999997,0,0,9.9999997,-3.1249999e-6,-3.125e-5)"
         id="path16" />
    </clipPath>
    <clipPath
       clipPathUnits="userSpaceOnUse"
       id="clipPath17">
      <path
         d="M 0,0 H 236 V 210 H 0 Z"
         transform="matrix(9.9999997,0,0,9.9999997,-3.1249999e-6,-3.125e-5)"
         id="path17" />
    </clipPath>
    <clipPath
       clipPathUnits="userSpaceOnUse"
       id="clipPath18">
      <path
         d="M 0,0 H 236 V 210 H 0 Z"
         transform="matrix(9.9999997,0,0,9.9999997,-3.1249999e-6,-3.125e-5)"
         id="path18" />
    </clipPath>
    <clipPath
       clipPathUnits="userSpaceOnUse"
       id="clipPath19">
      <path
         d="M 0,0 H 236 V 210 H 0 Z"
         transform="matrix(9.9999997,0,0,9.9999997,-3.1249999e-6,-3.125e-5)"
         id="path19" />
    </clipPath>
    <clipPath
       clipPathUnits="userSpaceOnUse"
       id="clipPath20">
      <path
         d="M 0,0 H 236 V 210 H 0 Z"
         transform="matrix(9.9999997,0,0,9.9999997,-3.1249999e-6,-3.125e-5)"
         id="path20" />
    </clipPath>
    <clipPath
       clipPathUnits="userSpaceOnUse"
       id="clipPath21">
      <path
         d="M 0,0 H 236 V 210 H 0 Z"
         transform="matrix(9.9999997,0,0,9.9999997,-3.1249999e-6,-3.125e-5)"
         id="path21" />
    </clipPath>
    <clipPath
       clipPathUnits="userSpaceOnUse"
       id="clipPath22">
      <path
         d="M 0,0 H 236 V 210 H 0 Z"
         transform="matrix(9.9999997,0,0,9.9999997,-3.1249999e-6,-3.125e-5)"
         id="path22" />
    </clipPath>
    <clipPath
       clipPathUnits="userSpaceOnUse"
       id="clipPath23">
      <path
         d="M 0,0 H 236 V 210 H 0 Z"
         transform="matrix(9.9999997,0,0,9.9999997,-3.1249999e-6,-3.125e-5)"
         id="path23" />
    </clipPath>
    <clipPath
       clipPathUnits="userSpaceOnUse"
       id="clipPath24">
      <path
         d="M 0,0 H 236 V 210 H 0 Z"
         transform="matrix(9.9999997,0,0,9.9999997,-3.1249999e-6,-3.125e-5)"
         id="path24" />
    </clipPath>
    <clipPath
       clipPathUnits="userSpaceOnUse"
       id="clipPath25">
      <path
         d="M 0,0 H 236 V 210 H 0 Z"
         transform="matrix(9.9999997,0,0,9.9999997,-3.1249999e-6,-3.125e-5)"
         id="path25" />
    </clipPath>
    <clipPath
       clipPathUnits="userSpaceOnUse"
       id="clipPath26">
      <path
         d="M 0,0 H 236 V 210 H 0 Z"
         transform="matrix(9.9999997,0,0,9.9999997,-3.1249999e-6,-3.125e-5)"
         id="path26" />
    </clipPath>
    <clipPath
       clipPathUnits="userSpaceOnUse"
       id="clipPath27">
      <path
         d="M 0,0 H 236 V 210 H 0 Z"
         transform="matrix(9.9999997,0,0,9.9999997,-3.1249999e-6,-3.125e-5)"
         id="path27" />
    </clipPath>
    <clipPath
       clipPathUnits="userSpaceOnUse"
       id="clipPath28">
      <path
         d="M 0,0 H 236 V 210 H 0 Z"
         transform="matrix(9.9999997,0,0,9.9999997,-3.1249999e-6,-3.125e-5)"
         id="path28" />
    </clipPath>
    <clipPath
       clipPathUnits="userSpaceOnUse"
       id="clipPath29">
      <path
         d="M 0,0 H 236 V 210 H 0 Z"
         transform="matrix(9.9999997,0,0,9.9999997,-3.1249999e-6,-3.125e-5)"
         id="path29" />
    </clipPath>
    <clipPath
       clipPathUnits="userSpaceOnUse"
       id="clipPath30">
      <path
         d="M 0,0 H 236 V 210 H 0 Z"
         transform="matrix(9.9999997,0,0,9.9999997,-3.1249999e-6,-3.125e-5)"
         id="path30" />
    </clipPath>
    <clipPath
       clipPathUnits="userSpaceOnUse"
       id="clipPath31">
      <path
         d="M 0,0 H 236 V 210 H 0 Z"
         transform="matrix(9.9999997,0,0,9.9999997,-3.1249999e-6,-3.125e-5)"
         id="path31" />
    </clipPath>
    <clipPath
       clipPathUnits="userSpaceOnUse"
       id="clipPath32">
      <path
         d="M 0,0 H 236 V 210 H 0 Z"
         transform="matrix(9.9999997,0,0,9.9999997,-3.1249999e-6,-3.125e-5)"
         id="path32" />
    </clipPath>
    <clipPath
       clipPathUnits="userSpaceOnUse"
       id="clipPath33">
      <path
         d="M 0,0 H 236 V 210 H 0 Z"
         transform="matrix(9.9999997,0,0,9.9999997,-3.1249999e-6,-3.125e-5)"
         id="path33" />
    </clipPath>
    <clipPath
       clipPathUnits="userSpaceOnUse"
       id="clipPath34">
      <path
         d="M 0,0 H 236 V 210 H 0 Z"
         transform="matrix(9.9999997,0,0,9.9999997,-3.1249999e-6,-3.125e-5)"
         id="path34" />
    </clipPath>
    <clipPath
       clipPathUnits="userSpaceOnUse"
       id="clipPath35">
      <path
         d="M 0,0 H 236 V 210 H 0 Z"
         transform="matrix(9.9999997,0,0,9.9999997,-3.1249999e-6,-3.125e-5)"
         id="path35" />
    </clipPath>
    <clipPath
       clipPathUnits="userSpaceOnUse"
       id="clipPath36">
      <path
         d="M 0,0 H 236 V 210 H 0 Z"
         transform="matrix(0.99999997,0,0,-0.99999997,-3.6343699,3.6324218)"
         id="path36" />
    </clipPath>
  </defs>
  <g
     inkscape:label="Ebene 1"
     inkscape:groupmode="layer"
     id="layer1"
     transform="translate(-100.2768,-97.796714)">
    <g
       id="g70"
       transform="matrix(0.26458333,0,0,0.26458333,100.55647,95.501523)">
      <path
         d="m 588.77,45.7734 v 8.1875 l -0.633,2.5196 v 10.0781 l -0.629,2.5195 v 1.8907 2.5195 l -0.629,2.5195 v 2.5195 l -0.629,2.5196 v 2.5195 l -0.633,1.8906 v 2.5196 l -0.629,2.5195 -0.629,2.5195 v 2.5196 l -0.629,1.8867 -0.632,2.5234 v 2.5197 l -0.629,2.519 -0.629,2.52 -0.629,1.887 -0.633,2.519 -0.629,2.52 -0.629,1.89 -0.629,2.52 -0.632,2.519 -0.629,2.52 -0.629,1.891 -0.633,2.519 -0.629,2.52 -0.629,1.89 -1.262,2.52 -0.628,2.519 -0.629,1.891 -0.629,2.519 -1.262,2.52 -0.629,1.887 -1.262,2.519 -0.629,1.891 -1.257,2.519 -0.633,1.891 -1.258,2.52 -0.629,1.89 -1.262,2.52 -0.628,1.886 -1.262,2.52 -1.258,1.891 -0.629,2.519 -1.262,1.891 -1.257,2.519 -1.262,1.891 -1.258,2.519 -1.262,1.891 -0.629,1.887 -1.261,2.519 -1.258,1.891 -1.262,1.891 -1.258,1.89 -1.261,2.52 -1.258,1.886 -1.891,1.891 -1.262,1.891 -1.257,2.519 -1.262,1.891 -1.258,1.89 -1.262,1.887 -1.886,1.891 -1.262,1.89 -1.258,1.891 -1.89,1.887 -1.262,2.519 -1.258,1.891 -1.891,1.891 -1.257,1.89 -1.891,1.258 -1.262,1.891 -1.887,1.89 -1.261,1.887 -1.891,1.891 -1.887,1.89 -1.261,1.891 -1.891,1.887 -1.887,1.261 -1.261,1.891 -1.891,1.891 -1.891,1.257 -1.257,1.891 -1.891,1.891 -1.891,1.257 -1.886,1.891 -1.891,1.891 -1.891,1.257 -1.89,1.891 -1.887,1.258 -1.262,1.891 -1.89,1.261 -1.887,1.887 -1.891,1.262 -2.519,1.257 -1.891,1.891 -1.89,1.262 -1.887,1.258 -1.891,1.89 -1.89,1.258 -1.891,1.262 -1.891,1.258 -2.519,1.261 -1.887,1.262 -1.891,1.887 -1.89,1.261 -2.52,1.258 -1.89,1.262 -1.887,1.258 -1.891,1.262 -2.519,1.257 -1.891,0.633 -1.89,1.258 -2.52,1.262 -1.887,1.258 -2.519,1.261 -1.891,1.258 -2.519,0.629 -1.891,1.262 -2.52,1.257 -1.89,0.633 -2.52,1.258 -1.89,0.629 -2.52,1.262 -1.887,0.629 -2.519,1.261 -1.891,0.629 -2.519,1.258 -1.891,0.633 -2.519,1.258 -2.52,0.629 -1.891,0.632 -2.519,0.629 -2.52,1.258 -1.89,0.633 -2.52,0.629 -2.519,0.629 -1.887,0.629 -2.52,0.632 -2.519,0.629 -2.52,0.629 -1.89,0.633 -2.52,0.629 -2.519,0.629 -1.891,0.629 -2.519,0.633 -2.52,0.629 h -2.52 l -2.519,0.628 -1.891,0.629 h -2.519 l -2.52,0.633 -2.519,0.629 h -2.52 l -1.89,0.629 h -2.52 l -2.52,0.629 h -2.519 l -2.52,0.633 h -2.519 -1.887 l -2.519,0.629 h -2.524 -2.519 -2.52 -2.519 l -2.52,0.629 h -1.887 -2.519 -2.52 -1.261"
         style="fill:none;stroke:#000000;stroke-width:4.72425;stroke-linecap:butt;stroke-linejoin:miter;stroke-miterlimit:10;stroke-dasharray:none;stroke-opacity:1"
         transform="matrix(0.10666667,0,0,-0.10666667,-33.657333,221.87733)"
         clip-path="url(#clipPath5)"
         id="path39" />
      <path
         d="m 1013.95,1387.46 h 5.04"
         style="fill:none;stroke:#000000;stroke-width:4.72425;stroke-linecap:butt;stroke-linejoin:miter;stroke-miterlimit:10;stroke-dasharray:none;stroke-opacity:1"
         transform="matrix(0.10666667,0,0,-0.10666667,-33.657333,221.87733)"
         clip-path="url(#clipPath6)"
         id="path40" />
      <path
         d="m 2258.63,45.7734 v 8.1875 L 2258,70.9688 v 17.0078 l -0.62,17.0074 -0.64,17.004 -0.63,17.008 -0.63,17.008 -1.26,17.008 -1.26,17.008 -1.26,17.007 -1.25,17.008 -1.9,17.004 -1.89,17.008 -1.89,17.008 -1.88,16.379 -2.52,17.007 -1.89,17.008 -2.52,16.375 -2.52,17.008 -3.15,17.008 -3.15,16.379 -3.15,17.004 -3.15,16.379 -3.15,17.007 -3.78,16.379 -3.78,17.004 -3.78,16.379 -3.78,16.379 -3.78,16.375 -4.41,16.379 -4.41,16.375 -4.4,16.379 -5.05,16.379 -4.4,16.375 -5.04,16.379 -5.04,16.379 -5.67,16.375 -5.04,15.746 -5.67,16.379 -5.67,15.746 -5.67,15.75 -6.3,16.375 -6.3,15.75 -5.67,15.746 -6.92,15.75 -6.3,15.746 -6.3,15.746 -6.93,15.75 -6.93,15.117 -6.93,15.746 -7.56,15.117 -6.93,15.75 -7.55,15.118 -7.56,15.117 -8.19,15.117 -7.56,15.117 -8.19,15.117 -8.19,15.118 -8.19,14.488 -8.19,15.119 -8.18,14.49 -8.82,14.48 -8.82,14.49 -8.82,14.49 -8.82,14.49 -9.45,14.48 -9.45,14.49 -8.82,13.86 -10.07,14.49 -9.45,13.86 -9.45,13.85 -10.08,13.86 -10.08,13.86 -10.07,13.23 -10.09,13.86 -10.7,13.22 -10.08,13.86 -10.71,13.23 -10.71,13.22 -10.71,13.23 -11.33,12.6 -10.71,13.23 -11.34,12.6 -11.34,12.59 -11.34,12.61 -11.33,12.59 -11.34,12.6 -11.97,12.6 -11.97,11.97 -11.97,11.96 -11.97,11.97 -11.96,11.97 -11.97,11.97 -12.6,11.97 -12.6,11.33 -12.6,11.34 -12.59,11.34 -12.6,11.34 -12.6,11.34 -13.23,10.71 -12.6,11.34 -13.22,10.7 -13.23,10.71 -13.23,10.71 -13.86,10.08 -13.23,10.71 -13.85,10.07 -13.23,10.08 -13.86,10.08 -13.86,10.08 -13.85,9.45 -13.86,9.45 -14.49,10.08 -13.86,8.82 -14.48,9.44 -14.49,9.45 -14.49,8.82 -14.49,8.82 -14.49,8.82 -14.48,8.81 -14.49,8.19 -15.12,8.19 -14.49,8.19 -15.11,8.19 -15.12,8.19 -15.12,7.56 -15.12,8.18 -15.12,7.56 -15.11,7.56 -15.75,6.93 -15.12,7.56 -15.75,6.93 -15.11,6.93 -15.75,6.93 -15.75,6.3 -15.75,6.3 -15.74,6.93 -15.75,5.66 -15.75,6.3 -16.376,6.3 -15.746,5.67 -15.746,5.67 -16.379,5.67 -15.746,5.04 -16.379,5.67 -16.379,5.04 -16.375,5.04 -16.379,4.41 -16.375,5.03 -16.379,4.41 -16.379,4.41 -16.375,4.41 -16.379,3.78 -16.375,3.78 -16.379,3.78 -17.008,3.78 -16.378,3.78 -17.004,3.15 -16.379,3.15 -17.008,3.15 -16.379,3.15 -17.004,3.15 -17.008,2.52 -16.379,2.51 -17.007,1.9 -17.008,2.51 -16.375,1.9 -17.008,1.89 -17.008,1.88 -17.008,1.89 -17.008,1.27 -17.007,1.25 -17.004,1.26 -17.008,1.26 -17.008,0.63 -17.008,0.63 -17.007,0.63 -17.008,0.63 h -17.008 l -17.008,0.63 h -8.187"
         style="fill:none;stroke:#000000;stroke-width:9.4485;stroke-linecap:round;stroke-linejoin:round;stroke-miterlimit:10;stroke-dasharray:none;stroke-opacity:1"
         transform="matrix(0.10666667,0,0,-0.10666667,-33.657333,221.87733)"
         clip-path="url(#clipPath7)"
         id="path41" />
      <path
         d="m 1980.22,45.7734 v 22.0469 l -0.63,14.4844 V 96.793 l -0.63,14.488 -0.63,14.489 -0.63,14.488 -1.26,14.488 -0.63,14.484 -1.26,15.122 -1.26,14.484 -1.26,14.488 -1.89,14.489 -1.26,14.488 -1.89,14.488 -1.89,13.856 -2.52,14.488 -1.89,14.488 -2.52,14.488 -1.89,14.489 -2.52,14.488 -3.15,13.855 -2.52,14.489 -3.15,14.488 -2.52,13.859 -3.15,14.485 -3.77,14.488 -3.16,13.859 -3.77,14.489 -3.16,13.855 -3.77,13.86 -4.41,14.488 -3.78,13.855 -4.41,13.86 -3.78,13.859 -4.41,13.855 -4.41,13.86 -5.04,13.855 -4.41,13.86 -5.04,13.859 -5.04,13.856 -5.03,13.23 -5.04,13.855 -5.68,13.227 -5.03,13.859 -5.67,13.227 -5.67,13.23 -6.3,13.856 -5.67,13.23 -6.3,13.227 -5.67,13.227 -6.3,13.23 -6.3,12.598 -6.93,13.226 -6.29,13.227 -6.93,12.601 -6.93,13.227 -6.93,12.598 -6.93,12.597 -6.93,12.598 -7.56,12.598 -7.55,12.597 -7.56,12.598 -7.56,12.601 -7.56,12.598 -7.56,11.965 -8.19,11.969 -8.19,12.597 -8.19,11.969 -8.19,11.969 -8.18,11.969 -57.95,-57.954 -52.29,-52.281 -48.5,-47.871 -43.46,-44.094 -40.32,-40.312 -37.16,-37.164 -34.64,-34.645 -32.13,-32.125 -29.6,-29.605 -28.35,-28.344 -25.83,-25.828 4.41,-8.188 5.04,-8.191 4.41,-8.188 4.41,-8.187 4.41,-8.188 3.78,-8.82 4.41,-8.187 4.41,-8.192 3.78,-8.816 3.78,-8.188 3.78,-8.82 3.78,-8.187 3.78,-8.821 3.78,-8.816 3.77,-8.82 3.79,-8.188 3.14,-8.82 3.15,-8.817 3.78,-8.82 3.15,-8.82 3.15,-8.817 -120.31,-42.203 -2.52,8.188 -3.15,7.558 -3.15,7.559 -2.52,8.191 -3.15,7.559 -3.15,7.558 -3.15,7.559 -3.15,7.559 -3.14,7.558 -3.79,7.559 -3.14,7.558 -3.79,7.559 -3.14,7.559 -3.78,7.558 -3.78,6.93 -3.78,7.558 -3.78,7.559 -3.78,6.93 -3.78,7.558 -4.41,6.93 -3.78,7.559 -4.41,6.925 -3.78,7.563 -4.4,6.926 -4.41,6.929 -4.42,6.93 -4.41,6.93 -4.41,6.926 -5.03,6.929 -4.41,6.93 -4.41,6.93 -5.04,6.929 -4.41,6.297 -5.04,6.93 -5.04,6.93 -5.04,6.296 -5.04,6.301 -5.04,6.93 -5.03,6.297 -5.04,6.301 -5.68,6.296 -5.03,6.301 -5.67,6.297 -5.04,6.301 -5.67,6.301 -5.67,6.296 -5.67,6.301 -5.67,5.668 -5.665,6.297 -5.672,5.672 -5.668,6.297 -5.668,5.672 -6.301,5.668 -5.668,5.668 -6.301,5.668 -5.668,5.672 -6.296,5.667 -6.301,5.668 -6.301,5.672 -6.297,5.039 -6.301,5.668 -6.297,5.039 -6.3,5.668 -6.297,5.039 -6.301,5.04 -6.93,5.039 -6.297,5.039 -6.3,5.039 -6.926,5.039 -6.93,5.039 -6.301,4.41 -6.929,5.039 -6.926,4.41 -6.93,4.41 -6.929,5.039 -6.93,4.411 -6.93,4.406 -6.926,4.41 -6.929,4.41 -6.93,4.41 -7.559,3.778 -6.929,4.41 -7.559,3.781 -6.93,4.406 -7.558,3.782 -6.93,3.777 -7.558,3.781 -7.559,3.781 -6.926,3.778 -7.558,3.781 -7.563,3.148 -7.558,3.778 -7.559,3.152 -7.559,3.777 -7.558,3.149 -7.559,3.152 -7.558,3.149 -7.559,3.148 -7.559,3.152 -8.187,2.52 -7.559,3.148 -7.558,3.149 -8.192,2.519 42.203,120.311 8.821,-3.15 8.816,-3.15 8.82,-3.78 8.821,-3.15 8.816,-3.15 8.188,-3.77 8.82,-3.79 8.82,-3.77 8.817,-3.78 8.187,-3.79 8.82,-3.77 8.188,-3.78 8.82,-3.78 8.188,-4.41 8.191,-4.41 8.817,-3.78 8.187,-4.409 8.192,-4.41 8.187,-4.411 8.188,-5.039 8.191,-4.406 25.824,25.825 28.344,28.35 29.605,29.6 32.125,32.12 34.645,34.65 37.168,37.16 40.31,40.32 44.1,43.46 47.87,48.5 52.28,52.28 57.95,57.95 -11.97,8.2 -11.97,8.18 -11.96,8.19 -12.6,8.19 -11.97,8.19 -11.97,7.56 -12.6,7.56 -12.6,7.56 -12.59,7.55 -12.6,7.56 -12.6,7.56 -12.6,6.93 -12.59,6.93 -12.6,6.93 -13.23,6.93 -12.6,6.93 -13.23,6.3 -13.23,6.93 -12.59,6.29 -13.23,6.3 -13.23,5.67 -13.227,6.3 -13.227,5.67 -13.859,6.3 -13.227,5.67 -13.227,5.67 -13.859,5.04 -13.226,5.66 -13.86,5.04 -13.226,5.04 -13.86,5.04 -13.859,5.04 -13.856,4.41 -13.859,5.04 -13.855,4.41 -13.86,4.41 -13.859,3.78 -13.856,4.41 -13.859,3.78 -14.488,4.4 -13.856,3.79 -13.859,3.14 -14.488,3.79 -13.856,3.14 -14.488,3.79 -14.489,3.14 -13.855,2.52 -14.488,3.15 -14.489,2.52 -13.859,3.15 -14.488,2.52 -14.485,1.89 -14.488,2.52 -14.488,1.89 -14.488,2.52 -13.86,1.89 -14.488,1.89 -14.484,1.26 -14.489,1.89 -14.488,1.26 -14.488,1.26 -15.117,1.26 -14.489,0.63 -14.488,1.26 -14.488,0.63 -14.485,0.63 -14.488,0.63 h -14.488 l -14.489,0.63 h -14.488 -7.558"
         style="fill:none;stroke:#000000;stroke-width:9.4485;stroke-linecap:round;stroke-linejoin:round;stroke-miterlimit:10;stroke-dasharray:none;stroke-opacity:1"
         transform="matrix(0.10666667,0,0,-0.10666667,-33.657333,221.87733)"
         clip-path="url(#clipPath8)"
         id="path42" />
      <path
         d="m 853.324,1015.19 233.696,416.99 -11.97,6.93 -12.6,6.3 -11.97,6.93 -12.59,6.3 -11.97,6.3 -12.6,6.29 -12.6,5.68 -12.595,6.29 -12.598,5.67 -12.597,5.67 -12.598,5.67 -12.598,5.67 -12.601,5.67 -13.227,5.04 -12.597,5.04 -13.227,5.04 -12.598,5.04 -13.23,5.04 -12.598,5.04 -161.883,-450.38 8.817,-3.15 9.449,-3.78 8.82,-3.15 9.45,-3.78 8.816,-3.78 8.82,-3.78 8.817,-3.78 8.82,-3.78 8.816,-3.78 8.821,-3.78 8.816,-4.41 8.82,-4.41 8.821,-3.78 8.816,-4.41 8.821,-4.4 8.187,-4.41 8.82,-4.41 8.188,-5.04 z"
         style="fill:none;stroke:#000000;stroke-width:9.4485;stroke-linecap:round;stroke-linejoin:round;stroke-miterlimit:10;stroke-dasharray:none;stroke-opacity:1"
         transform="matrix(0.10666667,0,0,-0.10666667,-33.657333,221.87733)"
         clip-path="url(#clipPath9)"
         id="path43" />
      <path
         d="m 1182.13,45.7734 v 26.4532 l -0.63,7.5586 v 7.5586 l -0.62,7.5585 -0.64,8.1917 v 7.558 l -0.63,7.559 -0.63,7.559 -1.26,7.558 -0.63,7.559 -0.63,7.558 -1.26,7.559 -0.63,7.559 -1.25,7.558 -1.27,7.559 -1.25,7.558 -1.26,6.93 -1.26,7.559 -1.26,7.558 -1.26,7.559 -1.89,7.558 -1.26,7.559 -1.89,7.559 -1.26,6.929 -1.89,7.559 -1.89,7.558 -1.89,6.93 -1.89,7.559 -2.52,7.558 -1.89,6.93 -1.89,7.559 -2.52,7.558 -2.52,6.93 -1.89,7.558 -2.52,6.93 -2.52,6.93 -2.52,7.558 -2.52,6.926 -2.52,6.93 -3.15,7.558 -2.52,6.93 -3.15,6.93 -2.52,6.93 -3.14,6.929 -3.16,7.559 -3.14,6.926 -3.15,6.929 -3.15,6.93 -3.15,6.301 -3.15,6.926 -3.78,6.929 -3.15,6.93 -3.78,6.93 -3.78,6.296 -3.15,6.93 -3.78,6.301 -3.78,6.926 -3.78,6.301 -3.78,6.929 -3.78,6.297 -4.4,6.301 -3.79,6.93 -4.41,6.296 -3.77,6.301 -4.41,6.297 -4.41,6.301 -4.41,6.297 -3.78,6.301 -4.41,6.296 -5.04,6.301 -4.41,5.668 -4.41,6.301 -4.41,6.297 -5.035,5.672 -4.41,6.297 -5.04,5.668 -5.039,5.671 -4.41,5.668 -5.039,6.301 -5.039,5.668 -5.039,5.668 -5.039,5.668 -5.039,5.672 -5.668,5.668 -5.039,5.039 -5.043,5.668 -5.668,5.672 -5.039,5.039 -5.668,5.668 -5.668,5.039 -5.039,5.039 -5.672,5.668 -5.668,5.039 -5.668,5.039 -5.672,5.039 -5.668,5.039 -6.297,5.043 -5.671,4.406 -5.668,5.039 -5.668,5.04 -6.301,4.41 -5.668,5.039 -6.301,4.41 -6.297,4.41 -5.672,4.41 -6.297,5.039 -6.3,4.407 -6.297,3.781 -6.301,4.41 -6.297,4.406 -6.301,4.41 -6.297,3.782 -6.3,4.41 -6.93,3.777 -6.297,4.41 -6.301,3.778 -6.929,3.781 -6.297,3.777 -6.93,3.781 -6.297,3.778 -6.929,3.152 -6.301,3.777 -6.93,3.782 -6.926,3.148 -6.929,3.781 -6.93,3.149 -6.301,3.148 -6.926,3.149 -6.929,3.152 -6.93,3.148 -7.559,3.149 -6.929,3.148 -6.93,2.524 -6.926,3.148 -6.929,2.52 -7.559,3.148 -6.93,2.52 -6.929,2.519 -7.559,2.52 -6.93,2.519 -6.926,2.52 -7.562,1.89 -6.926,2.52 -7.558,2.52 -7.559,1.89 -6.93,1.887 -7.558,2.523 -7.559,1.887 -6.93,1.891 -7.558,1.89 -7.559,1.891 -6.929,1.258 -7.559,1.89 -7.559,1.258 -7.558,1.891 -7.559,1.262 -7.558,1.257 -7.559,1.262 -6.93,1.258 -7.558,1.262 -7.559,1.257 -7.558,1.262 -7.559,0.629 -7.559,1.258 -7.558,0.633 -7.563,0.629 -7.558,1.257 -7.559,0.633 -7.559,0.629 h -7.558 l -8.188,0.629 -7.558,0.629 h -7.559 l -7.558,0.633 h -7.559 -7.559 -7.558 -3.781"
         style="fill:none;stroke:#000000;stroke-width:9.4485;stroke-linecap:round;stroke-linejoin:round;stroke-miterlimit:10;stroke-dasharray:none;stroke-opacity:1"
         transform="matrix(0.10666667,0,0,-0.10666667,-33.657333,221.87733)"
         clip-path="url(#clipPath10)"
         id="path44" />
      <path
         d="m 1355.98,421.191 450.38,161.887 -5.04,12.598 -5.03,13.226 -5.04,12.598 -5.04,13.227 -5.04,12.601 -5.04,13.227 -5.67,12.597 -5.67,12.598 -5.67,12.598 -5.67,12.597 -5.66,12.598 -6.31,12.598 -5.66,12.601 -6.3,12.598 -6.3,11.965 -6.3,12.601 -6.93,11.965 -6.3,12.598 -6.93,11.969 -416.99,-233.692 4.41,-8.82 5.03,-8.188 4.42,-8.82 4.41,-8.188 4.41,-8.816 4.41,-8.82 3.77,-8.821 4.41,-8.816 4.41,-8.82 3.78,-8.817 3.78,-8.82 3.78,-8.816 3.78,-8.821 3.78,-8.816 3.78,-8.82 3.78,-9.45 3.15,-8.816 3.78,-9.449 z"
         style="fill:none;stroke:#000000;stroke-width:9.4485;stroke-linecap:round;stroke-linejoin:round;stroke-miterlimit:10;stroke-dasharray:none;stroke-opacity:1"
         transform="matrix(0.10666667,0,0,-0.10666667,-33.657333,221.87733)"
         clip-path="url(#clipPath11)"
         id="path45" />
      <path
         d="m 1126.7,45.7734 v 32.125 l 0.63,6.9258 v 28.9768 l 0.63,6.929 v 7.559 l 0.63,6.93 v 7.558 6.93 l 0.63,7.559 0.63,7.558 v 6.93 l 0.63,7.559 0.63,7.558 v 7.559 l 0.63,1.886 v 5.672 l 0.63,7.559 0.63,7.558 0.63,7.559 0.63,7.559 0.63,7.558 1.26,8.188 0.63,7.558 1.26,8.192 0.63,8.187 1.89,8.188 1.26,8.191 1.89,8.188 0.63,3.777 22.05,11.34 11.33,5.668 10.08,9.449 5.04,4.41 3.78,4.41 2.52,3.149 0.63,1.258 5.67,9.449 0.63,1.262 1.26,1.89 3.15,7.559 8.19,11.965 3.78,10.078 1.26,3.152 3.15,7.559 3.15,10.707 1.26,9.449 0.62,10.078 v 9.449 8.817 l -1.25,9.449 -0.63,9.449 -1.26,8.82 -1.89,8.817 -1.26,9.449 -1.89,8.82 -0.63,6.297 -0.63,3.149 -1.89,8.82 -1.89,8.816 -2.52,9.45 -1.89,8.82 -2.52,9.449 -1.89,8.817 5.04,13.859 3.15,11.969 4.41,13.226 3.15,10.707 1.89,3.782 8.81,16.375 8.83,16.378 0.62,1.262 15.75,22.043 6.93,10.082 11.97,14.485 15.12,18.898 8.18,9.449 22.05,24.567 7.56,8.187 25.19,27.715 10.71,11.34 25.83,26.457 18.9,19.523 20.78,20.789 38.43,37.164 5.67,5.668 49.76,44.723 57.95,44.723 29.61,10.079 42.83,13.86 6.93,3.78 44.09,13.85 10.71,-10.7 10.08,-11.34 10.08,-11.34 10.07,-11.338 8.82,-11.969 9.45,-11.968 8.82,-11.969 8.82,-12.598 8.82,-11.965 8.18,-12.601 8.2,-13.227 7.55,-12.597 7.56,-13.227 7.56,-13.23 7.56,-13.227 6.93,-13.226 6.93,-13.231 6.92,-13.227 6.93,-13.859 6.31,-13.226 6.29,-13.86 6.3,-13.855 6.3,-13.86 5.67,-13.855 5.67,-13.86 5.67,-14.488 5.67,-13.855 5.03,-13.86 5.04,-14.488 5.04,-14.488 5.05,-13.856 5.03,-14.488 4.41,-14.488 4.41,-14.489 4.41,-14.488 4.41,-14.488 3.78,-14.484 4.41,-14.489 3.78,-14.488 3.78,-14.488 3.15,-14.489 3.78,-14.488 3.15,-15.117 3.14,-14.488 3.16,-15.118 3.14,-14.488 3.15,-14.484 2.52,-15.121 2.52,-14.485 2.52,-15.117 2.52,-15.121 2.52,-14.484 1.89,-15.121 1.89,-14.485 1.89,-15.117 1.89,-15.121 1.89,-15.117 1.26,-14.489 1.89,-15.117 1.26,-15.117 1.26,-15.117 0.63,-14.488 1.26,-15.118 0.63,-15.117 0.63,-15.117 0.63,-15.117 0.63,-15.1173 0.63,-14.4883 V 68.4492 53.332 45.7734"
         style="fill:none;stroke:#8496b0;stroke-width:4.72425;stroke-linecap:round;stroke-linejoin:round;stroke-miterlimit:10;stroke-dasharray:none;stroke-opacity:1"
         transform="matrix(0.10666667,0,0,-0.10666667,-33.657333,221.87733)"
         clip-path="url(#clipPath14)"
         id="path48" />
      <path
         d="m 2054.55,45.7734 v 37.793 l -0.64,15.7461 -0.62,15.1175 -0.63,15.117 -0.63,15.121 -0.64,15.117 -1.25,15.117 -1.26,15.118 -1.26,15.117 -1.26,15.746 -1.26,15.117 -1.89,15.121 -1.26,15.117 -1.89,15.117 -1.89,15.118 -2.52,15.117 -1.89,15.117 -2.52,14.488 -2.52,15.118 -2.52,15.117 -2.52,15.117 -3.15,15.117 -2.52,15.117 -3.15,14.489 -3.15,15.117 -3.78,15.121 -3.15,14.484 -3.78,15.117 -3.78,14.489 -3.77,15.117 -3.79,14.488 -3.77,14.488 -4.41,15.118 -4.41,14.488 -4.41,14.488 -4.41,14.488 -5.04,14.489 -5.04,14.488 -5.04,14.484 -5.04,14.489 -5.04,14.488 -5.67,14.488 -5.67,13.86 -5.66,14.484 -5.67,13.859 -6.3,13.86 -5.67,14.484 -6.93,13.859 -6.3,13.86 -6.3,13.855 -6.93,13.231 -6.93,13.855 -7.56,13.227 -6.92,13.859 -7.56,13.227 -7.56,13.23 -8.19,13.227 -8.19,12.597 -8.19,12.598 -8.81,13.231 -8.83,11.964 -8.81,12.602 -9.45,11.965 -9.45,11.969 -10.08,11.339 -10.08,11.969 -10.71,10.71 -11.33,10.7 -11.34,10.72 -37.8,-8.83 -23.93,1.27 -5.04,-0.64 -33.39,-10.7 -44.72,-15.12 -1.89,-1.26 -59.21,-42.834 -26.46,-22.676 -23.93,-21.418 -44.09,-42.203 -14.49,-14.488 -25.83,-25.825 -25.2,-26.457 -10.7,-10.707 -28.35,-30.867 -4.41,-5.039 -25.19,-29.605 -4.41,-5.039 -18.9,-23.934 -7.56,-9.449 -10.08,-14.489 -13.22,-18.898 -1.27,-3.148 -9.44,-17.637 -8.19,-15.117 -0.63,-1.262 -5.04,-14.484 -4.41,-13.86 -3.15,-12.597 -2.52,-11.969 -1.26,-11.34 v -10.078 -2.52 -7.558 l 0.63,-10.078 0.63,-9.45 0.63,-9.445 1.26,-9.449 1.26,-9.449 0.63,-9.45 1.26,-8.816 0.63,-9.449 0.63,-9.449 v -8.821 -9.445 l -0.63,-6.93 v -2.519 l -0.63,-9.449 -1.26,-10.079 -1.89,-9.449 -2.52,-10.078 -1.89,-6.93 -1.89,-0.629 -8.19,-3.781 -4.41,-1.887 -3.78,-1.89 -11.33,-5.668 -5.67,-3.152 -34.02,-14.485 -3.15,-6.93 -3.78,-9.449 -3.14,-8.82 -3.15,-8.816 -2.53,-8.821 -1.88,-8.187 -1.89,-6.93 v -1.258 l -2.52,-8.191 -1.89,-8.188 -1.89,-8.187 -1.26,-7.559 -1.26,-8.191 -1.89,-7.559 -0.63,-7.558 -1.26,-7.559 -1.26,-7.559 -0.63,-6.929 -1.26,-7.559 -0.63,-7.558 -1.26,-6.93 -0.63,-7.559 -0.63,-6.925 -0.63,-6.93 -0.63,-6.93 -0.63,-6.93 -0.63,-7.558 -0.63,-6.93 -0.63,-6.926 v -6.3 l -0.63,-6.93 -0.63,-6.93 v -6.926 l -0.63,-6.929 v -6.9299 -6.3008 l -0.63,-6.9258 v -6.9297 -6.9297 -6.3008 -6.9257 -6.9297 -3.1485"
         style="fill:none;stroke:#8496b0;stroke-width:4.72425;stroke-linecap:round;stroke-linejoin:round;stroke-miterlimit:10;stroke-dasharray:none;stroke-opacity:1"
         transform="matrix(0.10666667,0,0,-0.10666667,-33.657333,221.87733)"
         clip-path="url(#clipPath15)"
         id="path49" />
      <path
         d="m 1035.37,45.7734 v 15.7461 l 0.63,6.3008 v 18.8945 l 0.63,6.9297 v 6.3008 l 0.63,6.2967 v 6.301 l 0.63,6.297 0.63,6.93 0.62,6.296 v 6.301 l 0.64,6.93 0.63,6.297 0.63,6.929 1.26,6.301 0.63,6.93 0.62,6.926 1.27,6.3 0.63,6.93 1.26,6.926 1.25,6.93 1.27,6.929 1.25,7.559 v 0.629 l 1.27,6.301 1.25,6.929 1.27,7.559 1.88,7.558 1.26,7.559 1.89,7.559 1.89,7.558 2.52,7.559 1.89,8.187 2.52,7.559 v 0.633 l 2.52,8.187 2.52,8.188 3.15,8.191 3.15,8.817 3.15,9.449 4.41,8.816 0.63,2.52 3.15,6.929 4.41,10.079 5.04,10.078 5.66,10.711 3.79,6.296 34.01,15.118 17.01,8.191 3.78,1.887 4.41,1.89 8.18,3.782 1.89,0.629 0.63,2.519 0.63,9.449 0.64,9.45 v 9.445 9.449 9.449 7.559 1.262 l -0.64,9.445 -0.63,9.449 -0.63,9.449 -0.62,9.45 -0.64,9.449 v 10.078 10.078 l 1.26,10.707 1.26,11.34 0.64,5.039 0.62,6.297 2.52,11.969 3.78,13.23 4.41,13.856 5.67,14.488 3.15,9.449 4.41,6.93 9.45,18.265 5.67,9.45 7.56,11.968 15.11,22.047 1.9,1.887 23.3,29.605 1.26,1.891 29.61,34.016 v 0.629 l 32.75,35.273 10.08,10.078 25.82,27.086 32.76,32.758 6.93,6.926 44.72,42.203 50.39,43.465 59.21,42.206 25.2,10.07 44.09,15.12 10.71,3.78 18.9,0.63 23.93,-0.63 21.42,-3.15 28.34,1.89 11.97,-10.08 11.34,-10.7 11.34,-10.71 10.71,-11.34 10.71,-11.34 10.08,-11.969 1.89,-1.887 8.18,-10.078 9.45,-11.969 9.45,-12.597 8.82,-12.598 8.82,-12.598 8.19,-13.23 8.19,-13.227 8.19,-13.23 7.55,-13.227 7.56,-13.855 6.93,-13.86 7.56,-13.226 6.93,-13.859 6.3,-14.489 6.93,-13.855 6.29,-13.86 6.3,-14.488 6.31,-13.855 5.66,-14.489 6.3,-14.488 5.67,-13.859 5.04,-14.489 5.67,-14.484 5.04,-15.121 5.04,-14.484 5.04,-14.489 5.04,-14.488 4.41,-15.117 5.03,-14.488 4.41,-15.118 4.41,-14.488 3.78,-15.117 4.41,-15.117 3.78,-14.489 3.78,-15.117 3.78,-15.117 3.15,-15.117 3.15,-15.121 3.78,-15.117 3.15,-15.118 2.52,-15.117 3.15,-15.117 2.52,-15.117 3.14,-15.117 1.9,-15.118 2.51,-15.75 2.52,-15.117 1.89,-15.117 1.9,-15.117 1.88,-15.746 1.89,-15.117 1.89,-15.121 1.26,-15.747 1.26,-15.117 1.26,-15.746 1.26,-15.117 1.26,-15.121 0.63,-15.746 0.63,-15.117 0.63,-15.746 0.63,-15.1177 0.63,-15.75 V 69.0781 53.332 45.7734"
         style="fill:none;stroke:#8496b0;stroke-width:4.72425;stroke-linecap:round;stroke-linejoin:round;stroke-miterlimit:10;stroke-dasharray:none;stroke-opacity:1"
         transform="matrix(0.10666667,0,0,-0.10666667,-33.657333,221.87733)"
         clip-path="url(#clipPath16)"
         id="path50" />
      <path
         d="m 2101.16,45.7734 v 23.3047 l -0.63,15.7461 v 15.7498 l -0.63,15.746 -0.63,15.118 -0.63,15.75 -1.26,15.746 -0.63,15.746 -1.26,15.117 -1.26,15.75 -1.26,15.746 -1.89,15.746 -1.89,15.121 -1.26,15.746 -1.89,15.746 -2.52,15.118 -1.89,15.75 -2.52,15.117 -2.52,15.746 -2.52,15.117 -2.52,15.75 -2.52,15.117 -3.15,15.746 -3.15,15.117 -3.14,15.118 -3.79,15.75 -3.14,15.117 -3.78,15.117 -3.78,15.117 -3.78,15.117 -3.78,15.118 -4.41,15.117 -3.78,15.117 -4.41,15.121 -5.04,15.117 -4.41,15.117 -5.04,14.489 -4.41,15.117 -5.66,14.488 -5.04,15.117 -5.04,14.489 -5.67,15.117 -5.67,14.488 -5.67,14.485 -6.3,14.488 -5.67,14.488 -6.3,14.488 -6.3,14.489 -6.3,13.855 -6.92,14.488 -6.93,13.86 -6.93,13.855 -7.56,14.489 -6.93,13.23 -7.56,13.855 -8.19,13.86 -7.56,13.226 -8.19,13.86 -8.81,12.597 -8.2,13.227 -9.44,13.23 -8.82,12.598 -10.08,11.965 -10.08,12.602 -10.08,11.337 -11.34,11.34 -11.96,10.71 -12.6,10.07 -14.49,9.45 -3.15,1.26 -10.08,8.19 -18.89,5.04 -18.9,5.04 -20.78,3.15 -23.31,1.26 -25.83,-1.26 -11.97,-1.26 -25.19,-9.45 -45.99,-18.9 -6.93,-2.52 -60.46,-42.2 -50.39,-43.465 -40.95,-39.05 -3.15,-2.52 -40.32,-39.683 -27.08,-28.348 -8.82,-9.449 -32.75,-35.274 -4.41,-5.668 -24.57,-28.347 -7.56,-9.446 -18.89,-23.308 -4.41,-6.93 -17.64,-25.195 -0.63,-1.258 -11.34,-19.527 -8.19,-14.489 -1.88,-3.781 -6.93,-16.375 -5.68,-15.117 -4.4,-13.86 -3.78,-13.226 v -1.262 l -2.52,-10.707 -1.89,-11.969 -1.26,-10.707 -0.63,-10.711 -0.63,-10.707 v -10.078 -9.449 -4.41 l 0.63,-5.039 v -10.078 l 0.63,-8.817 v -9.449 l 0.63,-9.449 v -9.449 -5.668 l -1.89,-0.629 -8.19,-4.41 -4.41,-1.891 -3.78,-1.887 -17.01,-8.191 -32.75,-17.008 -3.15,-4.406 -7.56,-11.969 -6.93,-11.34 -5.67,-10.078 v -1.258 l -5.67,-10.082 -5.66,-10.078 -4.41,-10.078 -4.42,-9.445 -1.25,-2.52 -2.52,-6.93 -4.41,-8.82 -3.15,-8.816 -3.15,-8.192 -3.15,-8.187 -2.52,-8.188 -0.63,-2.519 -2.52,-5.672 -2.52,-7.559 -2.52,-8.187 -1.89,-7.559 -2.52,-6.929 -1.89,-7.559 -1.89,-7.559 -1.26,-6.929 -1.89,-6.297 V 236 l -1.89,-6.926 -1.26,-6.929 -1.26,-6.93 -1.89,-6.297 -1.26,-6.93 -1.259,-6.3 -0.629,-6.93 -1.258,-6.297 -1.261,-6.301 -0.629,-6.297 -0.629,-6.3 -1.262,-6.297 -0.629,-6.301 -0.629,-6.297 -0.633,-6.301 -0.629,-5.668 -0.628,-6.301 -0.629,-6.296 -0.633,-5.672 v -6.297 l -0.629,-6.301 -0.629,-5.6679 v -5.668 l -0.629,-6.3008 v -5.668 -6.3007 l -0.633,-5.668 v -6.3008 -5.668 -5.6679 -3.1485"
         style="fill:none;stroke:#8496b0;stroke-width:4.72425;stroke-linecap:round;stroke-linejoin:round;stroke-miterlimit:10;stroke-dasharray:none;stroke-opacity:1"
         transform="matrix(0.10666667,0,0,-0.10666667,-33.657333,221.87733)"
         clip-path="url(#clipPath17)"
         id="path51" />
      <path
         d="m 935.211,45.7734 v 8.1875 l 0.633,5.668 v 16.3789 l 0.629,5.0391 v 5.6679 l 0.629,5.668 v 5.6719 l 0.632,5.0393 v 5.668 l 0.629,5.668 0.629,5.672 0.629,5.668 0.633,5.668 0.629,5.671 0.629,5.668 0.629,5.668 1.261,6.301 0.629,5.668 1.262,5.668 0.629,6.301 0.629,3.148 0.629,2.52 0.633,6.301 1.257,5.668 1.262,6.296 1.258,6.301 1.262,6.301 1.257,6.297 1.891,6.301 1.258,6.925 1.89,6.301 1.891,6.93 1.891,6.93 1.258,5.668 0.628,1.257 1.891,6.93 1.891,6.93 2.519,6.929 2.52,7.559 2.519,7.559 2.52,7.558 3.148,8.188 1.891,3.781 1.262,3.777 3.148,8.192 3.148,8.187 3.782,8.817 4.406,8.82 3.779,9.449 0.63,0.629 3.78,8.188 5.04,10.078 5.04,10.082 5.67,10.078 1.89,3.148 4.41,8.188 6.3,10.707 7.55,11.969 3.79,6.3 3.77,6.297 8.82,13.231 10.08,13.855 0.63,1.262 32.75,18.265 15.75,9.45 4.41,1.89 3.78,2.52 8.19,4.41 1.89,1.258 -0.63,8.187 -0.63,9.45 v 9.449 9.449 10.078 5.668 l 0.63,5.039 0.63,10.078 1.26,11.34 1.89,11.336 2.52,12.602 2.52,12.597 1.26,4.407 3.78,9.449 5.67,15.75 6.93,16.375 8.81,17.636 12.6,21.418 6.93,11.969 10.08,13.227 13.23,18.898 10.08,11.969 16.37,20.785 17.01,19.527 12.6,13.86 32.12,35.273 5.67,5.668 30.87,31.496 39.68,39.684 20.16,18.894 23.94,22.68 50.39,43.464 34.64,24.56 25.2,17.64 42.2,19.53 34.64,14.49 7.56,1.25 27.72,3.78 25.2,0.63 23.3,-1.89 20.16,-3.15 15.75,-5.03 3.15,-0.63 17,-6.3 16.38,-7.56 15.12,-8.82 13.23,-9.45 11.97,-10.71 11.96,-11.34 10.71,-11.33 10.71,-12.6 9.45,-11.967 10.08,-12.602 9.45,-13.227 8.81,-13.226 8.82,-13.231 8.19,-13.226 8.19,-13.227 8.19,-13.859 7.56,-13.856 7.56,-13.859 7.55,-13.859 7.56,-14.489 6.93,-13.855 6.93,-14.488 6.93,-14.489 6.93,-14.488 6.3,-14.488 6.3,-14.485 6.3,-14.488 5.66,-14.488 6.31,-15.117 5.66,-14.489 5.67,-15.117 5.04,-15.117 5.67,-14.488 5.04,-15.117 5.04,-15.118 5.04,-15.117 4.41,-15.121 4.41,-15.117 5.03,-15.117 4.41,-15.118 3.79,-15.746 4.4,-15.117 3.78,-15.117 3.78,-15.75 3.78,-15.117 3.15,-15.746 3.78,-15.117 3.15,-15.75 3.15,-15.747 3.15,-15.117 2.52,-15.75 3.15,-15.746 2.52,-15.746 2.52,-15.75 2.52,-15.746 1.89,-15.117 2.52,-15.746 1.89,-15.75 1.89,-15.746 1.26,-15.746 1.89,-15.75 1.26,-15.747 1.26,-15.75 1.25,-15.746 1.27,-16.379 0.63,-15.746 0.62,-15.746 1.27,-15.75 v -15.746 l 0.62,-15.746 v -15.75 l 0.63,-15.7461 v -8.1875"
         style="fill:none;stroke:#8496b0;stroke-width:4.72425;stroke-linecap:round;stroke-linejoin:round;stroke-miterlimit:10;stroke-dasharray:none;stroke-opacity:1"
         transform="matrix(0.10666667,0,0,-0.10666667,-33.657333,221.87733)"
         clip-path="url(#clipPath18)"
         id="path52" />
      <path
         d="m 2148.4,45.7734 v 40.3125 l -0.63,15.7461 -0.63,16.379 -0.63,15.746 -0.63,15.75 -1.26,16.375 -0.63,15.75 -1.26,16.375 -1.26,15.75 -1.89,15.746 -1.26,16.379 -1.89,15.746 -1.89,15.746 -1.89,16.379 -2.52,15.746 -1.89,15.75 -2.52,15.746 -2.52,15.746 -2.52,16.379 -3.14,15.746 -3.15,15.75 -3.15,15.747 -3.15,15.746 -3.15,15.75 -3.78,15.746 -3.15,15.117 -3.78,15.75 -4.41,15.746 -3.78,15.746 -4.41,15.117 -3.78,15.75 -4.41,15.117 -5.04,15.747 -4.41,15.117 -5.04,15.117 -5.04,15.75 -5.03,15.117 -5.04,15.117 -5.67,15.117 -5.67,15.118 -5.67,15.117 -5.67,15.117 -5.67,14.488 -6.3,15.118 -6.3,14.488 -6.3,15.117 -6.93,14.488 -6.29,14.489 -6.93,14.488 -7.56,14.488 -6.93,14.488 -7.56,14.485 -7.56,13.859 -7.56,14.488 -8.18,13.856 -7.56,13.859 -8.82,13.86 -8.19,13.226 -8.82,13.86 -8.82,13.226 -9.45,13.227 -9.45,12.6 -10.07,12.6 -10.08,12.6 -10.71,11.96 -11.34,11.97 -11.97,10.71 -12.6,10.71 -13.85,9.45 -14.49,8.81 -16.38,8.2 -17.01,6.92 -18.26,5.67 -18.9,4.41 h -0.63 l -21.42,2.52 h -24.56 l -27.09,-3.15 -30.86,-6.3 -7.56,-1.89 -39.68,-18.27 -34.65,-18.26 -56.69,-42.21 -2.52,-1.89 -30.87,-27.08 -18.89,-16.377 -44.72,-41.574 -39.69,-39.684 -35.9,-36.535 v -0.629 l -32.76,-34.645 -23.3,-26.457 -6.3,-6.929 -26.46,-32.125 -2.52,-3.149 -21.41,-28.343 -1.89,-3.153 -17.01,-25.195 -1.26,-3.149 -9.45,-17.636 -9.45,-18.266 -6.93,-17.008 -1.26,-1.89 -3.78,-12.598 -3.77,-13.859 -3.16,-12.598 -1.88,-11.969 -1.27,-8.816 -0.62,-2.52 -0.63,-10.711 -0.64,-10.707 v -10.078 -9.449 -1.891 l -1.25,-0.629 -8.2,-5.039 -3.77,-2.519 -3.78,-2.52 -15.75,-10.078 -31.5,-19.527 -10.07,-13.856 -11.97,-15.75 -1.89,-2.519 -8.19,-11.969 -8.82,-13.855 -5.67,-8.192 -3.148,-4.406 -7.559,-12.598 -6.929,-11.34 -5.039,-8.187 -1.258,-3.152 -6.301,-10.707 -5.668,-10.079 -5.039,-9.449 -2.519,-5.668 -1.891,-3.781 -5.039,-9.445 -4.41,-8.821 -3.778,-8.82 -3.781,-8.187 -1.887,-5.039 -1.261,-3.149 -3.149,-7.559 -3.781,-8.191 -2.52,-7.559 -3.148,-6.925 -2.52,-7.559 -1.89,-6.93 -1.258,-2.519 -1.262,-4.41 -2.519,-6.93 -2.52,-6.297 -1.89,-6.93 -1.887,-6.3 -1.891,-6.297 -1.89,-6.301 -1.258,-6.297 -1.891,-5.672 -1.261,-6.297 -1.258,-5.668 -1.262,-6.3 -1.258,-5.668 -0.633,-3.782 -0.629,-1.89 -1.257,-5.668 -0.633,-5.668 -1.258,-5.668 -1.262,-5.043 -0.629,-5.668 -0.629,-5.668 -1.261,-5.039 -0.629,-5.668 -0.629,-5.039 -0.629,-5.043 -0.633,-5.668 -0.629,-5.039 -0.629,-5.039 -0.628,-5.039 v -5.039 l -0.633,-5.039 -0.629,-5.6683 v -5.0391 l -0.629,-5.039 v -5.0391 -5.0391 l -0.629,-4.4101 v -5.0391 -5.039 -5.0391 -5.0391 l -0.633,-5.039 v -2.5196"
         style="fill:none;stroke:#8496b0;stroke-width:4.72425;stroke-linecap:round;stroke-linejoin:round;stroke-miterlimit:10;stroke-dasharray:none;stroke-opacity:1"
         transform="matrix(0.10666667,0,0,-0.10666667,-33.657333,221.87733)"
         clip-path="url(#clipPath19)"
         id="path53" />
      <path
         d="m 821.832,45.7734 v 20.1563 l 0.629,4.4101 v 8.8165 l 0.629,4.4101 v 5.0391 4.4101 l 0.629,4.4063 v 4.4101 l 0.633,5.039 v 4.41 l 0.628,4.41 0.629,5.039 v 4.411 l 0.629,4.406 0.633,5.039 0.629,4.41 0.629,5.039 0.633,5.039 0.629,4.41 1.257,5.039 0.633,5.04 0.629,5.039 1.258,5.039 0.633,5.039 1.258,5.039 1.261,5.672 1.258,5.039 1.262,5.039 1.258,5.668 1.261,5.668 v 1.261 l 1.258,4.411 1.262,5.039 1.887,5.668 1.261,6.296 1.891,5.672 1.887,5.668 1.89,6.301 1.891,6.297 2.519,6.301 2.52,6.926 2.52,6.3 2.519,6.93 2.52,6.93 2.519,6.925 3.149,7.559 3.152,7.559 3.777,7.562 3.782,8.188 3.777,8.187 1.89,3.149 1.891,5.039 4.406,8.82 5.043,8.82 5.039,9.446 4.407,8.191 1.261,1.887 5.668,10.082 6.301,10.707 6.297,11.336 1.891,2.519 5.668,9.449 8.191,12.598 8.187,12.598 0.629,0.633 9.45,13.855 10.707,15.117 2.519,3.153 9.449,13.226 13.856,17.637 v 0.629 l 15.75,19.527 8.82,10.711 30.23,21.414 15.12,10.711 3.78,2.52 3.78,3.148 7.56,5.039 1.89,1.258 v 4.41 l 1.26,11.34 1.26,11.336 1.89,10.711 0.63,1.258 3.15,13.859 5.04,14.488 5.66,15.746 3.16,7.559 5.66,10.707 11.34,20.789 11.97,20.156 3.15,4.41 18.27,25.196 5.04,6.929 18.89,23.934 18.27,20.789 8.82,10.707 29.61,32.754 25.19,25.828 7.56,8.817 36.54,36.535 39.68,39.683 44.09,41.575 49.76,44.09 57.95,45.35 32.76,19.53 38.42,20.79 13.23,5.04 34.02,9.45 29.6,5.03 25.82,1.27 h 1.27 l 20.78,-1.89 20.16,-3.79 18.9,-5.03 17,-6.93 16.38,-7.56 15.12,-8.19 14.48,-9.45 13.24,-10.08 12.59,-10.7 11.97,-11.34 11.34,-11.97 11.34,-11.97 10.08,-12.6 9.44,-11.34 0.63,-1.25 10.08,-13.23 10.08,-12.6 8.82,-13.228 9.45,-13.859 8.82,-13.227 8.82,-13.859 8.18,-13.856 8.19,-14.488 8.19,-13.86 7.56,-14.488 7.56,-14.488 7.56,-14.484 6.92,-14.489 7.56,-14.488 6.93,-14.488 6.93,-15.118 6.3,-14.488 6.93,-15.117 6.3,-15.117 6.3,-15.117 5.67,-15.118 6.3,-15.117 5.67,-15.121 5.66,-15.117 5.67,-15.746 5.04,-15.117 5.04,-15.117 5.04,-15.75 5.04,-15.747 5.04,-15.117 4.41,-15.746 4.41,-15.75 4.41,-15.746 4.4,-15.746 4.42,-15.75 3.78,-15.746 3.77,-15.75 3.78,-15.746 3.78,-15.746 3.15,-15.75 3.15,-16.375 3.15,-15.75 3.15,-15.746 3.15,-16.379 2.52,-15.746 2.52,-16.379 2.52,-15.746 2.52,-16.379 1.89,-15.746 2.52,-16.375 1.89,-15.75 1.89,-16.375 1.26,-16.379 1.89,-15.746 1.26,-16.379 1.26,-16.379 0.63,-16.375 1.26,-15.75 0.63,-16.375 0.63,-16.379 0.63,-16.375 0.63,-16.3791 V 70.3398 53.9609 l 0.62,-8.1875"
         style="fill:none;stroke:#8496b0;stroke-width:4.72425;stroke-linecap:round;stroke-linejoin:round;stroke-miterlimit:10;stroke-dasharray:none;stroke-opacity:1"
         transform="matrix(0.10666667,0,0,-0.10666667,-33.657333,221.87733)"
         clip-path="url(#clipPath20)"
         id="path54" />
      <path
         d="m 2197.53,45.7734 v 24.5664 l -0.63,16.375 v 16.3792 l -0.63,17.008 -0.63,16.375 -1.26,16.378 -0.63,16.375 -1.26,16.379 -1.26,16.379 -1.26,16.375 -1.88,16.379 -1.27,16.379 -1.89,16.375 -1.88,16.379 -2.53,16.375 -1.88,16.379 -2.52,16.379 -2.52,16.375 -2.52,16.379 -3.15,15.746 -2.52,16.379 -3.15,16.375 -3.78,15.75 -3.15,16.375 -3.15,16.379 -3.78,15.746 -3.78,16.379 -3.78,15.746 -4.41,15.75 -3.78,16.375 -4.41,15.75 -4.4,15.746 -5.04,15.746 -4.41,15.75 -5.04,15.746 -5.04,15.75 -5.04,15.746 -5.67,15.746 -5.04,15.117 -5.67,15.75 -5.67,15.746 -6.3,15.118 -5.67,15.117 -6.3,15.75 -6.29,15.117 -6.3,15.117 -6.93,15.117 -6.3,15.118 -6.93,15.117 -7.56,14.488 -6.93,15.117 -7.56,14.489 -7.56,15.117 -7.55,14.488 -7.56,14.488 -8.19,14.489 -8.19,13.855 -8.19,14.488 -8.82,13.86 -8.82,13.855 -8.82,13.86 -8.81,13.86 -9.45,13.23 -10.08,13.85 -10.08,12.6 -10.08,13.23 -10.7,12.6 -11.34,11.97 -11.34,11.96 -12.6,11.34 -12.6,10.71 -13.23,10.71 -11.96,8.81 -1.89,1.27 -13.86,9.45 -15.12,8.81 -16.38,7.56 -17,6.93 -18.9,5.04 -20.16,3.78 -22.67,1.26 -25.2,-1.26 h -1.89 l -29.61,-6.93 -38.42,-13.86 -26.45,-12.6 -30.87,-19.52 -37.16,-25.2 -56.69,-47.24 -48.51,-44.72 -44.09,-42.207 -39.68,-39.055 -35.91,-36.535 -23.31,-24.566 -10.07,-10.078 -30.24,-32.125 -27.08,-30.864 -5.04,-6.3 -20.16,-23.305 -17.01,-22.047 -5.04,-6.297 -17,-25.199 -14.49,-22.676 -1.26,-2.519 -10.08,-20.157 -7.56,-17.007 -2.52,-6.93 -2.52,-8.188 -3.78,-13.855 -1.89,-9.449 -1.26,-1.262 -7.55,-5.668 -3.79,-2.519 -3.14,-3.149 -15.12,-11.34 -28.978,-22.675 -5.668,-6.93 -18.898,-22.047 -3.778,-4.41 -19.527,-23.305 -1.262,-1.891 -15.117,-18.894 -8.187,-11.34 -5.668,-7.558 -12.598,-16.379 -5.039,-7.559 -6.301,-8.187 -10.078,-14.489 -6.301,-9.449 -3.148,-3.777 -8.188,-12.598 -7.558,-11.969 -3.153,-5.668 -3.777,-5.672 -6.301,-10.707 -5.668,-10.078 -5.668,-9.449 -5.039,-8.82 -0.629,-1.258 -3.781,-7.559 -5.039,-8.187 -3.781,-8.192 -3.778,-8.187 -3.781,-7.559 -3.148,-6.929 -1.258,-3.778 -1.891,-3.152 -3.148,-6.926 -2.52,-6.93 -2.519,-6.3 -2.52,-6.297 -2.523,-6.301 -1.887,-5.668 -1.891,-5.668 -1.89,-5.672 -1.891,-5.668 -0.629,-3.148 -0.629,-2.52 -1.89,-5.672 -1.891,-5.039 -1.258,-5.039 -1.261,-5.039 -1.258,-5.039 -1.262,-5.039 -1.258,-5.039 -1.261,-5.039 -0.629,-4.41 -1.258,-4.406 -0.633,-5.039 -0.629,-4.411 -0.629,-4.41 -1.262,-4.41 -0.628,-4.41 -0.629,-4.406 -0.629,-4.411 v -4.41 l -0.633,-4.41 -0.629,-3.777 -0.629,-4.41 -0.629,-4.41 v -3.778 l -0.633,-4.41 -0.629,-4.41 v -3.777 l -0.628,-3.782 v -4.41 l -0.629,-3.777 V 98.6836 L 758.84,94.9023 V 91.125 86.7148 l -0.629,-3.7773 v -3.7812 -3.7774 -4.4101 -3.7813 l -0.629,-3.7773 v -3.7813 -4.4101 -3.7774 -3.7812 -1.8868"
         style="fill:none;stroke:#8496b0;stroke-width:4.72425;stroke-linecap:round;stroke-linejoin:round;stroke-miterlimit:10;stroke-dasharray:none;stroke-opacity:1"
         transform="matrix(0.10666667,0,0,-0.10666667,-33.657333,221.87733)"
         clip-path="url(#clipPath21)"
         id="path55" />
      <path
         d="m 689.551,45.7734 v 44.7227 l 0.633,3.7773 V 114.43 l 0.629,3.781 v 3.148 3.782 3.148 l 0.628,3.777 v 3.153 3.777 l 0.629,3.781 v 3.778 3.152 l 0.633,3.777 v 3.782 l 0.629,3.777 0.629,3.781 v 3.778 l 0.629,3.781 0.633,3.777 0.629,4.41 0.628,3.782 0.629,3.777 0.633,4.41 0.629,4.41 0.629,1.887 v 1.891 l 0.629,4.41 1.262,4.41 0.629,4.41 1.261,4.406 1.258,4.41 1.262,5.04 1.258,5.039 1.261,4.41 1.887,5.668 1.891,5.039 1.89,5.039 1.891,5.672 1.887,5.668 1.261,1.89 1.258,4.407 2.524,5.671 2.519,6.297 3.149,6.301 3.148,6.93 3.148,7.558 4.411,7.559 3.781,6.297 v 1.262 l 4.406,8.187 5.039,8.82 5.672,8.817 5.668,10.078 5.039,7.558 1.891,2.52 6.929,11.34 8.188,11.969 8.82,12.597 1.887,2.52 8.191,11.336 11.336,15.75 9.449,11.968 3.149,5.04 15.117,18.894 5.039,6.301 11.969,14.488 11.969,15.117 8.187,9.45 16.379,19.527 7.559,8.816 17.007,19.528 13.227,15.117 11.34,12.597 25.195,27.715 28.344,24.567 13.859,11.968 3.78,3.149 3.15,2.519 6.93,6.301 1.89,1.258 v 0.633 l 8.19,18.265 3.78,6.93 9.44,15.746 16.38,25.196 3.78,5.039 30.24,38.425 5.67,6.93 17.63,20.785 25.2,28.348 28.34,29.605 10.08,10.707 20.16,21.418 33.38,34.012 35.91,36.535 39.68,39.684 43.46,42.2 48.51,45.99 54.8,48.5 54.17,42.2 9.45,7.56 54.8,32.12 28.97,13.86 13.23,4.41 30.87,6.3 25.19,1.26 22.05,-1.89 19.53,-4.41 10.71,-3.78 6.92,-2.52 16.38,-7.55 15.75,-8.2 14.49,-9.44 14.49,-9.45 13.22,-10.71 12.6,-10.71 12.6,-11.97 11.97,-11.33 11.34,-11.97 11.34,-12.6 10.7,-12.6 10.71,-13.23 10.08,-13.22 10.08,-13.23 9.45,-13.86 9.44,-13.86 9.45,-13.85 8.82,-13.86 8.82,-13.86 8.82,-14.488 8.19,-14.488 8.19,-14.488 8.18,-14.488 8.19,-14.489 7.56,-15.117 8.19,-14.488 7.56,-15.117 6.93,-15.118 7.56,-14.488 6.93,-15.117 6.93,-15.746 6.92,-15.117 6.93,-15.118 6.3,-15.117 6.3,-15.75 6.3,-15.117 6.3,-15.746 5.67,-15.75 5.67,-15.746 6.3,-15.746 5.04,-15.75 5.67,-15.746 5.03,-15.746 5.04,-15.75 5.04,-15.746 5.04,-16.379 5.04,-15.746 4.41,-16.379 4.41,-15.746 4.41,-16.379 3.78,-16.375 4.41,-15.75 3.78,-16.375 3.78,-16.379 3.15,-16.379 3.78,-16.375 3.15,-16.379 3.14,-16.375 3.15,-16.379 2.52,-16.379 3.15,-16.375 2.52,-16.379 2.52,-16.375 1.89,-17.008 2.52,-16.379 1.89,-16.378 1.89,-16.375 1.89,-17.008 1.26,-16.379 1.26,-17.008 1.26,-16.375 1.26,-16.379 1.26,-17.008 0.63,-16.375 0.63,-17.008 0.63,-16.378 0.63,-17.0082 v -16.375 l 0.63,-17.0079 v -8.1875"
         style="fill:none;stroke:#8496b0;stroke-width:4.72425;stroke-linecap:round;stroke-linejoin:round;stroke-miterlimit:10;stroke-dasharray:none;stroke-opacity:1"
         transform="matrix(0.10666667,0,0,-0.10666667,-33.657333,221.87733)"
         clip-path="url(#clipPath22)"
         id="path56" />
      <path
         d="m 2247.29,45.7734 v 25.1954 l -0.63,17.0078 v 17.0074 l -0.62,17.004 -0.63,17.008 -1.27,16.379 -0.62,17.008 -1.27,17.008 -1.25,17.007 -1.89,16.375 -1.26,17.008 -1.89,17.008 -1.89,16.375 -1.89,17.008 -2.52,17.008 -1.89,16.379 -2.52,17.007 -3.15,16.375 -2.52,17.008 -3.15,16.379 -3.15,17.008 -3.15,16.375 -3.15,16.379 -3.78,17.008 -3.15,16.375 -4.41,16.379 -3.78,16.378 -3.77,16.375 -4.41,16.379 -4.41,16.375 -4.41,16.379 -4.41,16.379 -5.04,15.746 -5.04,16.379 -5.04,16.375 -5.04,15.75 -5.67,16.375 -5.04,15.75 -5.67,15.746 -6.3,15.746 -5.66,16.379 -6.31,15.746 -5.66,15.75 -6.93,15.746 -6.3,15.118 -6.3,15.746 -6.93,15.75 -6.93,15.117 -6.93,15.746 -7.55,15.117 -6.93,15.121 -7.56,15.118 -7.56,15.117 -7.56,15.117 -8.19,15.117 -7.56,14.488 -8.19,15.118 -8.82,14.488 -8.19,15.117 -8.18,14.49 -8.82,14.49 -8.82,13.85 -9.45,14.49 -8.82,14.49 -9.44,13.85 -9.45,13.86 -9.45,13.86 -10.08,13.86 -10.08,13.86 -10.08,13.22 -10.71,13.23 -10.71,13.23 -10.7,12.6 -11.34,12.6 -11.34,12.59 -11.34,12.6 -11.97,11.97 -12.59,11.34 -12.6,11.34 -13.23,10.71 -13.86,10.08 -14.49,9.44 -16.37,7.56 -17.64,6.3 -20.79,3.15 -25.82,-1.89 -2.52,-0.63 -35.91,-13.23 -49.76,-30.86 -25.82,-20.79 -45.99,-38.42 -59.21,-54.81 -52.91,-50.39 -47.24,-46.61 -43.47,-42.83 -39.68,-39.686 -35.9,-36.535 -33.39,-33.383 -30.86,-31.496 -28.98,-29.605 -26.45,-27.086 -17.64,-18.899 -6.93,-6.926 -37.17,-40.316 -30.23,-35.902 -4.41,-5.039 -11.969,-15.75 -1.257,-1.258 -6.301,-6.301 -3.778,-3.148 -3.148,-3.149 -13.23,-12.598 -27.086,-25.828 -25.825,-26.453 -25.828,-27.086 -17.636,-18.269 -8.188,-8.188 -25.195,-27.086 -25.828,-27.086 -6.926,-7.558 -18.27,-20.156 -23.933,-26.458 -6.93,-8.187 -23.937,-26.457 -6.93,-8.188 -15.746,-18.898 -14.489,-17.008 -3.777,-4.406 -13.859,-17.637 -11.34,-15.121 h -0.629 l -9.449,-13.226 -7.559,-11.336 -6.929,-10.082 -3.149,-5.668 -2.519,-3.149 -4.411,-8.187 -3.777,-7.559 -3.781,-6.301 -3.149,-6.3 -1.89,-6.297 -2.52,-5.039 -1.258,-3.782 -0.629,-1.886 -1.261,-4.411 -1.262,-5.039 -1.258,-4.41 -0.629,-4.41 -1.261,-3.777 -0.629,-4.41 v -3.782 l -0.629,-3.777 -0.633,-3.148 v -3.782 -3.777 -3.152 -3.149 -3.781 -3.148 -3.149 -3.148 -3.153 l 0.633,-3.148 v -2.52 -3.148 l 0.629,-3.149 v -2.519 -0.633 l 0.629,-2.519 v -3.149 l 0.629,-3.148 v -2.52 l 0.632,-3.152 0.629,-2.52 v -3.148 l 0.629,-2.52 v -3.148 l 0.629,-2.52 0.633,-2.519 v -3.149 l 0.629,-2.523 v -3.148 l 0.629,-2.52 v -2.52 l 0.632,-3.148 0.629,-2.52 v -3.148 l 0.629,-2.519 v -2.52 l 0.629,-3.152 v -2.52 -2.519 l 0.633,-3.149 v -2.5194 l 0.629,-2.5195 v -3.1485 -2.5195 l 0.629,-2.5195 v -3.1524 -2.5195 l 0.629,-2.5195 v -2.5196 -3.1484 -2.5195 -2.5196 l 0.633,-3.1484 v -2.5195 -2.5196 -3.1523 -2.5195 -2.5196 -3.1484 -2.5195 -1.2579"
         style="fill:none;stroke:#8496b0;stroke-width:4.72425;stroke-linecap:round;stroke-linejoin:round;stroke-miterlimit:10;stroke-dasharray:none;stroke-opacity:1"
         transform="matrix(0.10666667,0,0,-0.10666667,-33.657333,221.87733)"
         clip-path="url(#clipPath23)"
         id="path57" />
      <path
         d="m 310.352,356.313 h 20.156 l 3.152,-0.629 h 10.707 l 2.52,-0.629 h 2.519 3.149 l 2.519,-0.633 h 2.52 3.148 l 2.52,-0.629 h 2.523 l 3.149,-0.629 h 2.519 2.52 l 3.148,-0.629 h 2.52 l 2.519,-0.633 h 3.149 l 2.519,-0.629 3.152,-0.628 h 2.52 l 2.52,-0.633 h 3.148 l 2.52,-0.629 h 3.148 l 2.519,-0.629 2.52,-0.629 h 3.152 l 2.52,-0.633 h 3.148 l 2.52,-0.629 3.148,-0.629 h 2.52 l 3.148,-0.629 h 3.153 l 2.519,-0.632 h 0.629 2.52 L 442,344.344 h 3.152 2.52 l 3.148,-0.629 h 3.149 3.148 3.153 3.148 3.777 3.153 3.148 3.781 3.778 l 3.148,0.629 3.781,0.629 h 3.778 l 4.41,0.632 3.781,1.258 4.406,0.629 4.411,1.262 5.039,1.258 4.41,1.261 1.89,0.629 3.778,1.262 5.039,2.52 6.301,1.89 6.296,3.149 6.301,3.777 7.559,3.781 8.187,4.41 3.153,2.52 5.668,3.148 10.078,6.93 11.34,7.559 13.226,9.449 v 0.629 l 15.117,11.336 17.637,13.859 4.41,3.781 17.008,14.485 18.895,15.75 8.191,6.929 26.453,23.934 8.192,6.93 26.453,23.937 20.16,18.266 7.558,6.93 27.086,25.824 27.086,25.195 8.188,8.191 18.265,17.637 27.086,25.824 26.457,25.829 25.825,27.085 12.597,13.227 3.153,3.148 3.148,3.782 6.297,6.297 1.262,1.261 15.746,11.969 5.039,4.41 35.906,30.235 40.31,37.164 6.93,6.929 18.9,17.637 27.09,26.453 29.6,28.977 31.49,30.867 33.39,33.383 36.53,35.906 39.69,39.687 42.83,43.46 46.62,47.24 50.39,52.91 54.8,59.21 38.42,45.99 20.79,25.82 30.86,49.77 13.23,35.9 0.63,2.52 1.89,25.83 -3.15,20.78 -6.3,17.64 -7.56,16.38 -9.45,14.48 -10.07,13.86 -10.71,13.23 -11.34,12.6 -11.34,12.6 -11.97,11.96 -12.59,11.34 -12.6,11.34 -12.6,11.34 -12.6,10.71 -13.23,10.7 -13.22,10.71 -13.23,10.08 -13.86,10.08 -13.86,10.08 -13.85,9.44 -13.86,9.45 -13.86,9.45 -14.49,8.82 -14.49,9.45 -13.86,8.82 -14.48,8.82 -14.49,8.19 -15.12,8.18 -14.49,8.82 -15.11,8.19 -14.49,7.56 -15.12,8.19 -15.12,7.56 -15.11,7.56 -15.12,7.55 -15.12,6.93 -15.12,7.56 -15.75,6.93 -15.11,6.93 -15.75,6.93 -15.75,6.3 -15.11,6.3 -15.75,6.92 -15.75,5.68 -15.749,6.29 -16.375,5.68 -15.75,6.29 -15.746,5.67 -15.746,5.04 -16.379,5.67 -15.746,5.04 -16.379,5.04 -16.375,5.04 -15.75,5.04 -16.375,4.41 -16.379,4.4 -16.378,4.41 -16.375,4.41 -16.379,3.79 -16.379,3.77 -16.375,4.41 -16.379,3.15 -17.008,3.78 -16.375,3.15 -16.379,3.15 -17.008,3.15 -16.375,3.15 -17.008,2.52 -16.378,3.15 -17.008,2.52 -16.375,1.89 -17.008,2.52 -17.008,1.89 -16.379,1.89 -17.008,1.89 -17.004,1.26 -16.378,1.88 -17.008,1.27 -17.008,1.25 -17.008,0.64 -16.375,1.25 -17.008,0.63 -17.007,0.64 h -17.008 l -17.008,0.62 h -17.008 -8.187"
         style="fill:none;stroke:#8496b0;stroke-width:4.72425;stroke-linecap:round;stroke-linejoin:round;stroke-miterlimit:10;stroke-dasharray:none;stroke-opacity:1"
         transform="matrix(0.10666667,0,0,-0.10666667,-33.657333,221.87733)"
         clip-path="url(#clipPath24)"
         id="path58" />
      <path
         d="m 310.352,1958.15 h 8.187 l 17.008,-0.63 h 16.379 l 17.008,-0.63 16.375,-0.63 17.007,-0.63 16.379,-0.63 17.008,-1.26 16.375,-1.26 16.379,-1.26 17.008,-1.26 16.375,-1.26 17.008,-1.89 16.379,-1.89 16.378,-1.89 16.375,-2.52 17.008,-1.89 16.379,-2.52 16.375,-2.52 16.379,-3.15 16.379,-2.52 16.375,-3.14 16.379,-3.16 16.375,-3.15 16.379,-3.78 16.379,-3.14 16.375,-3.78 16.379,-3.78 15.746,-4.41 16.379,-3.78 16.375,-4.41 15.75,-4.41 16.375,-4.41 15.75,-5.04 16.375,-5.04 15.75,-5.04 15.746,-5.04 15.746,-5.04 15.75,-5.66 15.746,-5.04 15.75,-6.3 15.746,-5.67 15.745,-5.67 15.75,-6.3 15.12,-6.3 15.74,-6.3 15.12,-6.3 15.12,-6.93 15.12,-6.93 15.75,-6.92 15.11,-6.93 14.49,-7.56 15.12,-6.93 15.12,-7.56 14.48,-8.19 15.12,-7.56 14.49,-8.18 14.49,-8.19 14.48,-8.19 14.49,-8.19 14.49,-8.82 13.86,-8.82 13.85,-8.82 13.86,-9.45 13.86,-9.44 13.86,-9.45 13.22,-10.08 13.23,-10.08 13.23,-10.71 12.6,-10.71 12.6,-11.34 11.97,-11.33 11.34,-11.97 11.96,-12.6 10.71,-12.6 10.71,-13.22 9.45,-14.49 9.45,-14.49 8.18,-15.75 7.56,-16.37 2.52,-6.93 3.78,-10.71 4.41,-19.53 1.89,-22.05 -1.26,-25.19 -6.3,-30.87 -4.41,-13.22 -13.85,-28.98 -32.13,-54.8 -7.56,-9.45 -42.2,-54.17 -48.5,-54.8 -45.98,-48.5 -42.21,-43.47 -39.68,-39.68 -36.54,-35.904 -34.01,-33.387 -21.42,-20.156 -10.71,-10.078 -29.6,-28.348 -28.35,-25.195 -20.79,-17.637 -6.93,-5.668 -38.42,-30.234 -5.036,-3.782 -25.196,-16.375 -15.75,-9.449 -6.925,-3.781 -18.27,-8.188 h -0.629 l -1.262,-1.89 -6.297,-6.93 -2.519,-3.148 -3.148,-3.778 -11.969,-13.859 -24.567,-28.348 -27.714,-25.195 -12.598,-11.336 -15.121,-13.231 -19.524,-17.003 -8.82,-7.563 -19.527,-16.375 -9.45,-8.187 -15.117,-11.969 -14.488,-11.969 -6.297,-5.039 -18.898,-15.117 -5.039,-3.153 -11.969,-9.445 -15.746,-11.34 -11.34,-8.187 -2.52,-1.891 -12.597,-8.82 -11.969,-8.188 -11.336,-6.929 -2.519,-1.887 -7.559,-5.039 -10.078,-5.672 -8.821,-5.668 -8.816,-5.039 -8.191,-4.41 h -1.258 l -6.301,-3.778 -7.559,-4.41 -7.558,-3.148 -6.93,-3.152 -6.297,-3.149 -6.3,-2.519 -5.668,-2.52 -4.411,-1.262 -1.89,-1.257 -5.668,-1.891 -5.668,-1.891 -5.039,-1.886 -5.039,-1.891 -5.672,-1.891 -4.406,-1.258 -5.039,-1.261 -5.04,-1.258 -4.41,-1.262 -4.41,-1.258 -4.41,-0.632 -4.41,-1.258 -4.406,-0.629 h -1.891 l -1.891,-0.633 -4.41,-0.629 -4.406,-0.629 -3.781,-0.629 -3.778,-0.632 -4.41,-0.629 -3.781,-0.629 -3.777,-0.629 h -3.782 l -3.777,-0.633 -3.781,-0.629 h -3.778 l -3.781,-0.629 h -3.148 -3.782 l -3.777,-0.629 h -3.781 -3.149 l -3.781,-0.633 h -3.148 -3.778 -3.152 l -3.777,-0.628 h -3.149 -3.781 -3.148 -3.782 -3.148 -3.149 l -3.781,-0.629 h -3.148 -3.149 -3.781 -3.148 -3.149 -3.781 -3.148 -3.153 -3.148 -3.778 -3.152 -3.148 -3.149 -1.89"
         style="fill:none;stroke:#8496b0;stroke-width:4.72425;stroke-linecap:round;stroke-linejoin:round;stroke-miterlimit:10;stroke-dasharray:none;stroke-opacity:1"
         transform="matrix(0.10666667,0,0,-0.10666667,-33.657333,221.87733)"
         clip-path="url(#clipPath25)"
         id="path59" />
      <path
         d="m 310.352,493 h 17.636 l 3.782,0.629 h 15.746 l 3.781,0.633 h 4.406 3.781 l 3.778,0.629 h 4.41 l 3.781,0.629 h 4.41 l 3.778,0.632 h 3.781 l 4.406,0.629 4.41,0.629 h 3.782 l 4.41,0.629 4.406,0.633 3.781,0.629 4.41,0.629 h 4.407 l 4.41,0.629 4.41,0.632 4.41,0.629 4.406,1.258 4.41,0.633 4.411,0.629 5.039,0.629 4.41,1.261 4.41,0.629 5.039,1.258 5.039,1.262 5.039,1.258 5.039,1.261 5.039,1.258 5.039,1.262 5.039,1.891 5.668,1.886 2.52,0.633 3.148,0.629 5.672,1.891 5.668,1.886 5.668,1.891 5.672,1.891 6.297,2.519 6.301,2.52 6.297,2.519 6.929,2.52 6.93,3.148 3.148,1.891 3.782,1.262 6.925,3.148 7.563,3.777 8.187,3.782 8.188,3.777 8.187,5.039 7.559,3.781 1.262,0.629 8.82,5.039 9.445,5.672 10.079,5.668 10.71,6.297 5.668,3.781 5.668,3.149 11.969,7.558 12.598,8.192 3.781,3.148 9.449,6.297 14.485,10.078 8.191,6.301 7.559,5.039 16.375,12.598 7.562,5.668 11.336,8.191 18.899,15.117 1.886,1.258 23.309,19.527 4.41,3.782 22.047,18.894 6.926,5.672 22.679,28.973 11.336,15.117 3.149,3.152 2.519,3.777 5.672,7.559 1.258,1.262 9.449,1.89 13.86,3.778 8.187,2.519 6.93,2.52 17.008,7.558 20.156,10.079 2.519,1.261 22.676,14.489 25.196,17.007 6.3,5.039 22.05,17.004 23.3,20.16 6.3,5.04 30.87,27.085 32.12,30.235 10.08,10.078 24.57,23.305 36.53,35.909 39.05,39.68 42.21,44.09 44.72,48.5 47.24,56.7 25.2,37.16 19.53,30.87 12.59,26.45 13.86,38.43 6.93,29.6 v 1.89 l 1.26,25.2 -1.26,22.67 -3.78,20.16 -5.04,18.9 -6.93,17 -7.56,16.38 -8.82,15.12 -9.45,13.86 -1.25,1.89 -8.82,11.96 -10.71,13.23 -10.71,12.6 -11.34,12.6 -11.97,11.33 -11.97,11.34 -12.59,10.71 -13.23,10.08 -12.6,10.08 -13.86,10.08 -13.22,9.44 -13.86,8.83 -13.86,8.82 -13.86,8.81 -13.85,8.82 -14.49,8.19 -13.86,8.19 -14.49,8.19 -14.49,7.56 -14.48,7.56 -15.12,7.55 -14.49,7.56 -15.11,6.93 -14.49,7.56 -15.12,6.93 -15.12,6.3 -15.12,6.93 -15.11,6.29 -15.12,6.31 -15.75,6.29 -15.115,5.67 -15.117,6.3 -15.75,5.67 -15.747,5.67 -15.117,5.04 -15.75,5.67 -15.746,5.04 -15.746,5.04 -15.75,5.03 -15.746,4.41 -15.746,5.04 -15.75,4.41 -15.746,4.41 -16.379,3.78 -15.746,4.41 -15.746,3.78 -16.379,3.78 -15.746,3.78 -16.379,3.15 -16.379,3.15 -15.746,3.78 -16.379,3.15 -16.375,2.52 -15.75,3.15 -16.375,2.52 -16.379,2.52 -16.375,2.51 -16.379,1.9 -16.379,2.51 -16.375,1.9 -16.379,1.88 -16.379,1.26 -16.375,1.89 -16.379,1.26 -16.375,1.26 -16.378,1.26 -16.379,0.63 -16.375,1.26 -16.379,0.63 -17.008,0.63 h -16.375 l -16.379,0.63 h -16.379 -8.187"
         style="fill:none;stroke:#8496b0;stroke-width:4.72425;stroke-linecap:round;stroke-linejoin:round;stroke-miterlimit:10;stroke-dasharray:none;stroke-opacity:1"
         transform="matrix(0.10666667,0,0,-0.10666667,-33.657333,221.87733)"
         clip-path="url(#clipPath26)"
         id="path60" />
      <path
         d="m 310.352,1908.39 8.187,-0.63 h 32.125 l 16.379,-0.63 16.379,-0.63 16.375,-0.63 16.379,-0.63 15.746,-1.26 16.379,-0.63 16.375,-1.26 16.379,-1.26 15.746,-1.89 16.379,-1.26 16.379,-1.89 15.746,-1.89 16.379,-2.52 15.746,-1.89 16.379,-2.52 15.746,-2.52 16.379,-2.52 15.746,-2.52 16.379,-3.15 15.746,-3.15 15.746,-3.15 16.379,-3.15 15.746,-3.15 15.75,-3.78 15.746,-3.77 15.746,-3.79 15.75,-3.77 15.746,-4.41 15.746,-4.41 15.75,-4.41 15.746,-4.41 15.746,-4.41 15.121,-5.04 15.747,-5.04 15.746,-5.04 15.117,-5.04 15.121,-5.04 15.746,-5.67 15.117,-5.67 15.117,-5.66 15.116,-6.3 15.12,-5.67 15.12,-6.3 15.12,-6.3 15.11,-6.93 14.49,-6.3 15.12,-6.93 14.48,-6.93 14.49,-7.55 14.49,-6.93 14.49,-7.56 14.49,-7.56 14.49,-7.56 13.85,-8.19 14.49,-8.19 13.86,-8.19 13.85,-8.82 13.23,-8.81 13.86,-9.45 13.23,-8.82 12.6,-10.08 13.22,-10.08 1.27,-0.63 11.33,-9.45 12.6,-10.07 11.97,-11.34 11.97,-11.34 11.33,-11.97 10.71,-12.6 10.08,-13.22 9.45,-14.49 8.19,-15.12 7.56,-16.38 6.93,-17.01 5.04,-18.89 3.77,-20.16 1.89,-20.79 v -1.25 l -1.25,-25.83 -5.04,-29.61 -9.45,-34.01 -5.04,-13.23 -20.79,-38.42 -19.52,-32.76 -45.36,-57.95 -44.09,-49.76 -41.57,-44.09 -39.69,-39.69 -36.53,-36.53 -8.82,-7.56 -25.83,-25.196 -32.75,-29.606 -10.71,-8.816 -20.79,-18.269 -23.93,-18.895 -6.93,-5.039 -25.2,-18.27 -4.409,-3.148 -20.156,-11.969 -20.785,-11.34 -10.707,-5.668 -7.559,-3.148 -15.75,-5.668 -14.488,-5.039 -13.855,-3.152 -1.262,-0.629 -10.707,-1.891 -11.34,-1.258 -11.336,-1.261 h -4.41 l -1.262,-1.887 -5.039,-7.563 -3.148,-3.777 -2.52,-3.781 -10.707,-15.117 -21.418,-30.235 -10.707,-8.816 -19.527,-15.75 h -0.629 l -17.637,-13.856 -13.23,-9.449 -3.149,-2.519 -15.117,-10.711 -13.859,-9.446 -0.629,-0.633 -12.598,-8.187 -12.597,-8.188 -9.45,-5.671 -2.519,-1.887 -11.34,-6.301 -10.707,-6.297 -10.078,-5.672 -1.891,-1.257 -8.187,-4.411 -9.45,-5.039 -8.816,-5.039 -8.82,-4.41 -5.039,-1.891 -3.149,-1.886 -8.191,-3.782 -8.188,-3.777 -7.558,-3.781 -7.559,-3.149 -7.558,-3.148 -6.93,-2.52 -6.93,-2.523 -6.93,-2.519 -6.296,-2.52 -6.93,-2.52 -6.297,-2.519 -6.301,-1.887 -6.297,-1.89 -5.672,-1.891 -5.667,-1.891 -6.301,-1.257 -5.668,-1.891 -5.039,-1.258 -4.41,-1.262 h -1.258 l -5.672,-1.257 -5.668,-1.262 -5.039,-1.258 -5.039,-1.262 -5.668,-1.258 -5.039,-1.261 -5.039,-0.629 -5.039,-1.262 -5.039,-0.629 -5.04,-0.629 -5.039,-1.261 -4.41,-0.629 -5.039,-0.629 -5.039,-0.633 -4.41,-0.629 -5.039,-0.629 -4.41,-0.629 h -4.41 l -5.039,-0.633 -4.407,-0.628 h -4.41 l -5.039,-0.629 h -4.41 l -4.41,-0.629 h -4.41 -5.039 l -4.407,-0.633 h -4.41 -4.41 l -4.41,-0.629 h -4.41 -4.407 -4.41 -4.41 -2.519"
         style="fill:none;stroke:#8496b0;stroke-width:4.72425;stroke-linecap:round;stroke-linejoin:round;stroke-miterlimit:10;stroke-dasharray:none;stroke-opacity:1"
         transform="matrix(0.10666667,0,0,-0.10666667,-33.657333,221.87733)"
         clip-path="url(#clipPath27)"
         id="path61" />
      <path
         d="m 310.352,615.832 h 2.519 l 5.039,0.629 h 20.156 l 4.411,0.629 h 5.039 5.039 l 5.039,0.633 h 5.039 l 5.672,0.629 5.039,0.628 h 5.039 l 5.039,0.629 5.039,0.633 5.039,0.629 5.668,0.629 5.039,0.629 5.039,0.633 5.668,0.629 5.039,1.257 5.672,0.633 5.668,0.629 5.039,1.258 5.668,1.262 5.672,0.629 5.668,1.261 1.89,0.629 3.778,0.629 5.668,1.262 6.301,1.258 5.668,1.261 6.3,1.258 5.668,1.891 6.301,1.262 6.297,1.886 6.301,1.891 6.297,1.891 6.929,1.89 6.301,2.52 6.926,2.519 4.41,1.258 2.52,1.262 6.929,1.886 7.559,2.52 6.93,3.152 7.558,2.52 8.188,3.777 7.558,3.149 3.153,1.261 5.039,1.891 8.187,3.777 8.817,3.782 8.82,4.41 9.449,5.039 3.777,1.887 5.672,2.519 9.446,5.039 10.082,5.672 10.707,6.297 3.148,1.262 8.188,5.039 11.339,6.929 12.598,7.559 4.41,3.148 8.188,5.668 13.859,8.821 11.969,8.187 2.519,1.891 15.746,11.969 13.86,10.078 19.527,31.492 10.078,15.75 2.52,3.777 2.519,3.781 5.039,8.188 0.629,1.262 h 1.891 9.445 10.082 l 10.707,0.629 10.707,0.628 2.52,0.629 8.82,1.262 11.969,1.891 12.598,3.148 13.855,3.781 12.598,3.778 1.89,1.261 17.008,6.926 18.266,9.449 17.64,9.45 3.149,1.261 25.193,17.004 3.15,1.891 28.35,21.418 3.15,2.519 32.12,26.457 6.93,6.297 26.45,23.305 34.65,32.76 h 0.63 l 36.53,35.9 39.69,39.68 41.57,44.73 16.38,18.89 27.09,30.87 1.89,2.52 42.2,56.69 18.27,34.64 18.26,39.69 1.89,7.56 6.3,30.86 3.15,27.09 v 24.57 l -2.52,21.41 v 0.63 l -4.41,18.9 -5.67,18.27 -6.93,17 -8.18,16.38 -8.82,14.49 -9.45,13.86 -10.71,12.59 -10.71,11.97 -11.97,11.34 -11.97,10.71 -12.59,10.07 -12.6,10.09 -12.6,9.44 -13.23,9.45 -13.23,8.82 -13.85,8.82 -13.23,8.19 -13.86,8.82 -13.86,7.55 -13.86,8.2 -14.48,7.55 -13.86,7.56 -14.49,7.56 -14.49,6.93 -14.48,7.56 -14.49,6.93 -14.49,6.3 -14.48,6.93 -15.12,6.29 -14.49,6.3 -15.12,6.3 -14.486,5.67 -15.117,5.67 -15.117,5.67 -15.117,5.67 -15.122,5.67 -15.117,5.04 -15.117,5.04 -15.746,5.04 -15.117,5.03 -15.117,4.41 -15.75,5.04 -15.118,4.41 -15.746,3.78 -15.117,4.41 -15.75,3.78 -15.746,4.41 -15.746,3.78 -15.117,3.15 -15.75,3.78 -15.746,3.15 -15.75,3.15 -15.746,3.14 -15.747,3.16 -15.75,3.15 -16.375,2.52 -15.75,2.51 -15.746,2.52 -15.746,1.89 -15.75,2.52 -16.375,1.89 -15.75,1.89 -15.746,1.89 -16.379,1.26 -15.746,1.89 -15.746,1.26 -16.379,1.26 -15.746,0.63 -16.379,1.26 -15.746,0.63 -15.75,0.63 -16.375,0.63 -15.75,0.63 h -16.375 -15.75 -8.187"
         style="fill:none;stroke:#8496b0;stroke-width:4.72425;stroke-linecap:round;stroke-linejoin:round;stroke-miterlimit:10;stroke-dasharray:none;stroke-opacity:1"
         transform="matrix(0.10666667,0,0,-0.10666667,-33.657333,221.87733)"
         clip-path="url(#clipPath28)"
         id="path62" />
      <path
         d="m 310.352,1860.52 h 8.187 l 15.75,-0.64 h 15.746 l 15.75,-0.63 h 15.746 l 15.746,-1.25 15.75,-0.64 15.746,-0.63 16.379,-1.25 15.746,-1.27 15.747,-1.25 15.75,-1.26 15.746,-1.9 15.746,-1.25 15.75,-1.89 15.746,-1.89 15.746,-2.52 15.121,-1.89 15.746,-2.52 15.746,-2.52 15.75,-2.52 15.746,-3.15 15.746,-2.52 15.118,-3.15 15.75,-3.15 15.746,-3.15 15.117,-3.78 15.75,-3.15 15.117,-3.78 15.746,-3.78 15.117,-3.78 15.118,-4.41 15.75,-3.77 15.117,-4.41 15.117,-5.04 15.117,-4.41 15.117,-4.41 15.117,-5.04 15.118,-5.04 15.117,-5.04 14.488,-5.67 15.117,-5.04 15.117,-5.67 14.489,-5.67 15.117,-6.29 14.489,-5.68 14.49,-6.29 14.49,-6.3 14.48,-6.3 14.49,-6.93 14.49,-6.93 14.49,-6.93 13.85,-6.93 14.49,-7.56 13.86,-7.56 13.86,-7.55 13.86,-7.56 13.85,-8.19 13.23,-8.19 13.23,-8.19 13.23,-8.82 13.23,-8.82 13.22,-9.45 12.6,-10.07 11.97,-9.45 12.6,-10.71 11.34,-10.71 11.33,-11.97 10.71,-11.96 9.45,-13.23 8.82,-15.12 7.56,-16.38 6.29,-17.01 0.64,-3.14 5.04,-15.75 3.15,-20.16 1.89,-23.3 -0.63,-25.2 -3.78,-27.71 -1.27,-7.56 -14.48,-34.65 -19.53,-42.2 -17.63,-25.2 -24.57,-34.64 -43.47,-50.4 -22.67,-23.93 -18.9,-20.16 -39.68,-39.68 -31.5,-30.87 -5.67,-5.66 -35.27,-32.13 -13.86,-12.6 -19.52,-17.004 -20.79,-16.379 -11.97,-10.078 -18.9,-13.227 -13.227,-10.078 -11.965,-6.93 -21.418,-12.597 -17.636,-8.821 -16.379,-6.929 -15.746,-5.668 -9.449,-3.782 -4.411,-1.257 -12.597,-2.52 -12.598,-2.52 -11.34,-1.89 -11.336,-1.258 -10.078,-0.633 -5.039,-0.629 h -5.672 -10.078 -9.445 -9.449 l -9.45,0.629 -8.187,0.633 -1.262,-1.891 -4.41,-8.187 -2.52,-3.781 -1.886,-4.41 -9.449,-15.747 -18.27,-32.753 -1.258,-0.633 -13.859,-10.078 -13.227,-8.817 -6.301,-3.781 -6.296,-3.777 -11.969,-7.559 -10.707,-6.301 -8.192,-4.41 -3.148,-1.887 -10.078,-5.672 -10.078,-5.039 -10.078,-5.039 -8.188,-3.777 -0.633,-0.633 -9.449,-3.777 -8.816,-4.41 -8.821,-3.778 -8.187,-3.152 -8.188,-3.148 -3.781,-1.258 -3.777,-1.891 -8.192,-3.148 -7.558,-2.52 -7.559,-2.519 -7.558,-2.524 -6.93,-2.519 -6.926,-1.887 -6.93,-1.891 -1.261,-0.629 -5.668,-1.261 -6.93,-1.891 -6.93,-1.887 -6.297,-1.89 -6.929,-1.262 -6.297,-1.887 -6.301,-1.261 -6.301,-1.258 -6.297,-1.262 -6.3,-1.258 -5.668,-1.262 -6.297,-0.628 -2.52,-0.629 -3.152,-0.633 -6.297,-0.629 -5.672,-1.258 -5.668,-0.633 -6.297,-1.257 -5.672,-0.629 -5.667,-0.633 -5.668,-0.629 -5.672,-0.629 -5.668,-0.629 -5.668,-0.633 -5.668,-0.629 h -5.672 l -5.039,-0.629 h -5.668 l -5.668,-0.632 h -5.672 l -5.039,-0.629 h -5.668 -5.668 -5.039 l -5.672,-0.629 h -5.668 -2.519"
         style="fill:none;stroke:#8496b0;stroke-width:4.72425;stroke-linecap:round;stroke-linejoin:round;stroke-miterlimit:10;stroke-dasharray:none;stroke-opacity:1"
         transform="matrix(0.10666667,0,0,-0.10666667,-33.657333,221.87733)"
         clip-path="url(#clipPath29)"
         id="path63" />
      <path
         d="m 310.352,722.285 h 20.789 l 5.668,0.629 h 11.968 l 6.297,0.629 h 5.668 l 5.672,0.633 6.297,0.629 h 6.301 l 5.668,0.629 6.3,0.629 6.297,0.632 5.672,0.629 6.297,0.629 6.301,0.629 6.297,0.633 6.301,1.258 6.296,0.629 6.301,0.632 6.297,1.258 6.301,1.262 6.93,0.629 6.296,1.258 6.93,1.261 6.301,1.891 6.926,1.258 6.929,1.262 6.93,1.886 h 0.629 l 6.301,1.891 6.929,1.262 7.559,1.89 7.559,1.887 6.925,2.519 7.563,1.891 8.187,2.52 7.559,2.519 5.668,2.52 2.519,0.629 8.188,2.519 8.191,3.152 8.188,3.149 8.82,3.148 8.817,4.41 6.929,2.52 2.52,1.262 9.449,4.406 10.078,4.41 10.078,5.668 10.078,5.672 h 1.262 l 10.078,5.668 11.336,6.93 11.969,7.558 4.41,3.149 17.008,32.754 8.187,17.007 1.891,3.782 1.891,4.406 4.406,8.191 0.633,1.891 h 5.668 9.449 l 9.449,-0.633 h 9.445 l 8.821,-0.629 h 10.078 l 5.039,-0.629 h 4.41 9.449 10.078 l 10.707,0.629 10.708,0.629 10.71,1.262 11.965,1.89 10.711,2.52 h 1.258 l 13.231,3.777 13.855,4.41 15.117,5.668 16.379,6.93 3.777,1.891 14.489,8.187 19.527,11.34 1.262,0.629 25.195,17.637 6.926,4.41 23.31,18.894 9.45,7.559 28.34,24.57 5.67,4.41 35.28,32.75 9.45,8.82 28.34,27.09 39.68,40.31 2.52,3.15 39.06,40.94 43.46,50.39 42.21,60.48 2.52,6.93 18.89,45.98 9.45,25.19 1.26,11.97 1.26,25.83 -1.26,23.3 -3.15,20.79 -5.04,18.9 -5.04,18.9 -8.19,10.07 -1.26,3.15 -9.44,14.49 -10.08,12.6 -10.71,11.97 -11.34,11.33 -11.34,10.08 -12.6,10.08 -11.97,10.08 -12.59,8.82 -13.23,9.45 -13.23,8.18 -12.6,8.82 -13.85,8.19 -13.23,7.56 -13.86,8.19 -13.86,7.56 -13.23,6.93 -14.48,7.55 -13.86,6.93 -13.86,6.93 -14.49,6.93 -13.86,6.3 -14.48,6.3 -14.49,6.3 -14.49,5.67 -14.485,6.3 -14.489,5.67 -14.488,5.67 -15.117,5.66 -14.488,5.04 -15.118,5.04 -14.488,5.67 -15.117,4.41 -14.488,5.04 -15.118,4.41 -15.117,5.04 -15.117,4.41 -15.117,3.78 -15.117,4.41 -15.118,3.78 -15.117,3.78 -15.121,3.78 -15.117,3.77 -15.117,3.16 -15.746,3.77 -15.117,3.15 -15.118,3.15 -15.75,3.15 -15.117,2.52 -15.746,2.52 -15.117,2.52 -15.75,2.52 -15.117,2.52 -15.746,1.89 -15.118,2.52 -15.75,1.89 -15.746,1.26 -15.117,1.89 -15.746,1.89 -15.75,1.26 -15.746,1.26 -15.117,1.26 -15.75,0.63 -15.746,1.26 -15.746,0.63 -15.118,0.63 -15.75,0.63 h -15.746 l -15.746,0.63 h -15.75 -7.558"
         style="fill:none;stroke:#8496b0;stroke-width:4.72425;stroke-linecap:round;stroke-linejoin:round;stroke-miterlimit:10;stroke-dasharray:none;stroke-opacity:1"
         transform="matrix(0.10666667,0,0,-0.10666667,-33.657333,221.87733)"
         clip-path="url(#clipPath30)"
         id="path64" />
      <path
         d="m 310.352,1812.64 h 38.425 l 15.746,-0.63 15.118,-0.63 15.746,-0.63 15.121,-0.63 15.746,-0.63 15.117,-1.26 15.117,-1.26 15.75,-1.26 15.117,-1.26 15.747,-1.26 15.117,-1.89 15.117,-1.89 15.75,-1.89 15.117,-1.89 15.117,-1.88 15.118,-2.52 15.746,-2.52 15.117,-1.89 15.117,-3.15 15.121,-2.52 15.117,-3.15 15.117,-2.52 15.118,-3.15 15.117,-3.78 15.117,-3.15 15.117,-3.15 15.117,-3.78 15.118,-3.78 14.488,-3.78 15.117,-4.41 15.117,-3.78 14.489,-4.41 15.117,-4.41 14.488,-5.04 15.117,-4.4 14.488,-5.04 14.489,-5.04 14.488,-5.04 15.117,-5.04 14.488,-5.67 14.489,-5.04 13.855,-5.67 14.489,-6.3 14.487,-5.67 13.86,-6.3 14.48,-6.29 13.86,-6.31 13.86,-6.92 14.49,-6.3 13.86,-6.93 13.22,-7.56 13.86,-6.93 13.86,-7.56 13.23,-7.56 13.23,-8.18 13.23,-8.19 13.22,-8.19 12.6,-8.82 12.6,-8.82 12.6,-9.45 11.96,-9.44 10.08,-8.2 1.89,-1.88 11.97,-10.08 11.34,-10.71 11.34,-10.71 10.7,-11.34 10.72,-11.33 10.07,-11.97 -1.89,-28.35 3.15,-21.42 0.63,-23.93 -0.63,-18.9 -3.78,-10.71 -15.11,-44.09 -10.09,-25.2 -42.2,-59.21 -43.46,-50.39 -42.2,-44.72 -6.93,-6.93 -32.76,-32.75 -27.08,-25.83 -10.08,-10.08 -35.27,-32.76 h -0.64 l -34.01,-29.6 -1.89,-1.26 -29.604,-23.307 -1.891,-1.891 -22.047,-15.117 -11.968,-7.558 -9.446,-5.668 -18.269,-9.45 -6.93,-4.41 -9.445,-3.148 -14.488,-5.668 -13.86,-4.41 -13.226,-3.782 -11.969,-2.519 -6.301,-0.629 -5.039,-0.629 -11.336,-1.262 -10.711,-1.257 h -10.078 -10.078 l -9.449,0.628 -9.446,0.629 -9.449,0.633 -9.449,0.629 -9.449,0.629 h -1.258 -7.559 -9.449 -9.449 -9.449 l -9.45,-0.629 -9.445,-0.629 -2.519,-0.633 -0.633,-1.886 -3.778,-8.192 -1.89,-4.406 -1.891,-3.781 -8.187,-17.008 -15.117,-34.016 -6.301,-3.777 -10.707,-5.668 -10.078,-5.039 -10.079,-4.41 -6.929,-3.149 -2.52,-0.632 -8.82,-4.407 -9.445,-3.152 -8.821,-3.149 -8.187,-3.148 -8.192,-2.519 -8.187,-2.52 h -0.629 l -7.559,-2.52 -8.187,-1.89 -7.563,-2.52 -7.558,-1.89 -7.559,-1.891 -7.558,-1.258 -7.559,-1.89 -7.559,-1.258 -6.929,-1.262 -6.297,-1.258 h -0.629 l -7.559,-1.261 -6.929,-1.258 -6.93,-1.262 -6.93,-1.258 -6.929,-0.633 -6.297,-1.257 -6.93,-0.633 -6.93,-0.629 -6.297,-1.258 -6.929,-0.633 -6.301,-0.629 -6.926,-0.629 h -6.301 l -6.3,-0.628 -6.926,-0.633 -6.301,-0.629 h -6.297 l -6.301,-0.629 h -6.3 l -6.926,-0.629 h -6.301 -6.297 -6.301 l -6.3,-0.633 h -6.297 -6.301 -3.148"
         style="fill:none;stroke:#8496b0;stroke-width:4.72425;stroke-linecap:round;stroke-linejoin:round;stroke-miterlimit:10;stroke-dasharray:none;stroke-opacity:1"
         transform="matrix(0.10666667,0,0,-0.10666667,-33.657333,221.87733)"
         clip-path="url(#clipPath31)"
         id="path65" />
      <path
         d="m 310.352,817.398 h 37.164 l 6.929,0.633 h 13.227 l 6.93,0.629 h 6.929 l 6.93,0.629 6.926,0.629 h 6.301 l 6.929,0.633 6.93,0.629 7.558,0.629 6.926,0.629 6.93,0.632 6.93,0.629 6.929,0.629 7.559,0.629 6.93,1.262 7.558,0.629 7.559,1.261 6.929,0.629 7.559,1.258 7.559,1.262 7.558,0.629 7.559,1.89 8.187,1.258 7.559,1.262 8.187,1.891 8.192,1.886 8.187,2.52 h 1.262 l 6.926,1.89 8.191,1.891 8.817,2.52 8.82,3.148 8.816,3.152 9.45,3.778 6.929,3.148 14.489,34.016 3.148,5.668 5.668,11.34 1.891,3.777 1.89,4.41 3.778,8.191 0.632,1.887 6.93,1.891 10.078,2.519 9.446,1.891 10.078,1.258 9.449,0.633 h 2.519 l 6.93,0.628 h 9.449 8.821 l 9.445,-0.628 9.449,-0.633 8.82,-1.258 9.45,-0.629 9.445,-1.262 9.449,-1.257 9.449,-0.633 9.45,-0.629 10.078,-0.629 h 7.558 2.52 10.078 l 11.34,1.258 11.965,2.519 12.597,3.153 13.86,4.406 14.488,5.039 1.258,0.633 15.121,8.187 17.637,9.449 3.148,1.258 18.899,13.231 14.484,10.078 9.449,7.558 23.938,18.899 5.036,4.41 29.61,25.19 5.04,4.41 30.86,28.35 10.71,10.71 26.45,25.19 25.83,25.83 14.49,14.48 42.2,44.1 21.42,23.94 22.68,26.45 42.83,59.21 1.26,1.89 15.11,44.72 10.72,33.39 0.62,5.04 -1.25,23.93 8.81,37.8 -10.7,11.33 -10.71,11.34 -10.71,10.71 -11.97,10.08 -11.34,10.08 -11.97,9.45 -11.96,9.45 -12.6,8.82 -11.97,8.81 -13.23,8.82 -12.59,8.19 -12.6,8.19 -13.23,8.19 -13.23,7.56 -13.23,7.56 -13.86,6.93 -13.22,7.56 -13.86,6.92 -13.23,6.93 -13.86,6.3 -13.85,6.3 -13.86,6.93 -14.49,5.67 -13.86,6.3 -13.855,5.66 -14.488,5.67 -13.86,5.67 -14.484,5.67 -14.488,5.04 -14.489,5.04 -14.488,5.04 -14.488,5.04 -14.488,5.04 -14.489,4.41 -14.484,4.41 -14.488,4.41 -15.118,4.4 -14.488,3.79 -14.488,3.77 -15.117,3.78 -14.489,3.78 -15.117,3.78 -14.488,3.15 -15.117,3.78 -15.117,3.15 -14.489,3.15 -15.117,2.52 -15.117,3.15 -15.117,2.52 -15.117,2.52 -15.122,2.52 -14.484,2.52 -15.121,1.89 -15.117,2.52 -15.117,1.89 -15.118,1.89 -15.117,1.26 -15.117,1.89 -15.117,1.26 -15.75,1.26 -15.117,1.26 -15.118,1.25 -15.117,1.27 -15.117,0.63 -15.117,0.62 -15.117,0.64 -15.117,0.63 -15.75,0.62 h -15.118 -15.117 -7.558"
         style="fill:none;stroke:#8496b0;stroke-width:4.72425;stroke-linecap:round;stroke-linejoin:round;stroke-miterlimit:10;stroke-dasharray:none;stroke-opacity:1"
         transform="matrix(0.10666667,0,0,-0.10666667,-33.657333,221.87733)"
         clip-path="url(#clipPath32)"
         id="path66" />
      <path
         d="m 310.352,1767.29 h 37.793 l 14.488,-0.63 15.117,-0.63 15.117,-0.63 15.121,-0.63 15.117,-0.63 15.118,-1.26 14.488,-0.63 15.117,-1.26 15.117,-1.26 15.118,-1.89 14.488,-1.26 15.117,-1.89 15.117,-1.89 15.117,-1.89 14.489,-1.89 15.117,-1.89 14.488,-2.52 15.117,-2.52 15.117,-2.52 14.489,-2.52 15.117,-2.51 14.488,-3.16 14.489,-3.15 15.117,-3.14 14.488,-3.15 15.117,-3.15 14.488,-3.78 14.489,-3.15 14.484,-3.78 14.488,-3.78 14.489,-4.41 14.488,-3.78 14.488,-4.41 14.489,-4.41 14.488,-4.41 14.484,-4.41 14.488,-5.04 13.86,-5.04 14.488,-5.03 14.488,-5.04 13.856,-5.04 13.859,-5.67 14.489,-5.67 13.855,-5.67 13.857,-5.67 13.86,-6.3 13.86,-6.3 13.86,-6.3 13.22,-6.29 13.86,-6.93 13.23,-6.93 13.23,-6.93 13.23,-6.93 13.22,-7.56 13.23,-7.56 13.23,-7.56 12.6,-7.56 13.22,-8.18 12.6,-8.19 11.97,-8.82 12.6,-8.82 11.97,-8.82 11.97,-9.45 11.96,-8.82 11.34,-10.08 11.34,-10.07 11.34,-10.08 10.71,-10.71 -13.86,-44.09 -3.78,-6.93 -13.86,-42.84 -10.08,-29.6 -44.72,-57.95 -44.72,-49.76 -5.67,-5.67 -37.17,-38.43 -20.78,-20.78 -19.53,-18.9 -26.46,-25.83 -11.33,-10.7 -27.72,-25.2 -8.19,-7.56 -24.567,-22.04 -9.445,-8.19 -18.898,-15.12 -14.489,-11.97 -10.078,-6.928 -22.047,-15.75 -1.258,-0.629 -16.378,-8.816 -16.379,-8.821 -3.778,-1.89 -10.711,-3.149 -13.226,-4.41 -11.969,-3.148 -13.855,-5.039 -8.821,1.89 -9.449,2.52 -8.816,1.886 -9.45,2.52 -8.82,1.891 -8.816,1.89 -3.149,0.629 -6.301,0.633 -8.82,1.887 -9.445,1.261 -8.82,1.891 -8.817,1.258 -9.449,0.629 -9.449,1.261 h -8.821 -9.445 l -10.082,-0.628 -9.445,-1.262 -10.711,-3.149 -7.559,-3.148 -3.148,-1.262 -10.078,-3.781 -11.969,-8.188 -7.559,-3.148 -1.89,-1.262 -1.258,-0.629 -9.449,-5.668 -1.262,-0.628 -3.149,-2.52 -4.41,-3.781 -4.406,-5.039 -9.449,-10.078 -5.672,-11.34 -11.336,-22.047 -3.781,-0.629 -8.188,-1.891 -8.187,-1.258 -8.192,-1.89 -8.187,-0.629 -8.188,-1.262 -7.558,-0.629 -8.192,-1.257 -7.558,-0.633 -7.559,-0.629 -7.558,-0.629 -7.559,-0.629 -7.559,-0.633 h -5.668 l -1.89,-0.629 h -7.559 l -7.558,-0.629 -7.559,-0.629 h -6.93 l -7.558,-0.632 -7.559,-0.629 h -6.93 -7.558 l -6.93,-0.629 h -7.558 l -6.926,-0.629 h -7.559 -6.929 -6.93 -7.559 l -6.929,-0.633 h -6.93 -7.559 -6.929 -6.926 -3.781"
         style="fill:none;stroke:#8496b0;stroke-width:4.72425;stroke-linecap:round;stroke-linejoin:round;stroke-miterlimit:10;stroke-dasharray:none;stroke-opacity:1"
         transform="matrix(0.10666667,0,0,-0.10666667,-33.657333,221.87733)"
         clip-path="url(#clipPath33)"
         id="path67" />
    </g>
  </g>
</svg>
