<?xml version="1.0" encoding="UTF-8" standalone="no"?>
<!-- Created with Inkscape (http://www.inkscape.org/) -->

<svg
   width="51.068012mm"
   height="37.707066mm"
   viewBox="0 0 51.068012 37.707066"
   version="1.1"
   id="svg1"
   inkscape:version="1.3.2 (091e20e, 2023-11-25, custom)"
   sodipodi:docname="Sep_DC_machine_torque_speed.svg"
   xmlns:inkscape="http://www.inkscape.org/namespaces/inkscape"
   xmlns:sodipodi="http://sodipodi.sourceforge.net/DTD/sodipodi-0.dtd"
   xmlns="http://www.w3.org/2000/svg"
   xmlns:svg="http://www.w3.org/2000/svg">
  <sodipodi:namedview
     id="namedview1"
     pagecolor="#505050"
     bordercolor="#eeeeee"
     borderopacity="1"
     inkscape:showpageshadow="0"
     inkscape:pageopacity="0"
     inkscape:pagecheckerboard="0"
     inkscape:deskcolor="#505050"
     inkscape:document-units="mm"
     inkscape:zoom="4.1157407"
     inkscape:cx="69.975253"
     inkscape:cy="94.636671"
     inkscape:window-width="2560"
     inkscape:window-height="1351"
     inkscape:window-x="2551"
     inkscape:window-y="-9"
     inkscape:window-maximized="1"
     inkscape:current-layer="layer1" />
  <defs
     id="defs1">
    <inkscape:path-effect
       effect="bspline"
       id="path-effect31"
       is_visible="true"
       lpeversion="1.3"
       weight="33.333333"
       steps="2"
       helper_size="0"
       apply_no_weight="true"
       apply_with_weight="true"
       only_selected="false"
       uniform="false" />
    <inkscape:path-effect
       effect="bspline"
       id="path-effect2-4-7-0"
       is_visible="true"
       lpeversion="1.3"
       weight="33.333333"
       steps="2"
       helper_size="0"
       apply_no_weight="true"
       apply_with_weight="true"
       only_selected="false"
       uniform="false" />
    <inkscape:path-effect
       effect="bspline"
       id="path-effect2-4-7"
       is_visible="true"
       lpeversion="1.3"
       weight="33.333333"
       steps="2"
       helper_size="0"
       apply_no_weight="true"
       apply_with_weight="true"
       only_selected="false"
       uniform="false" />
    <inkscape:path-effect
       effect="bspline"
       id="path-effect2-4"
       is_visible="true"
       lpeversion="1.3"
       weight="33.333333"
       steps="2"
       helper_size="0"
       apply_no_weight="true"
       apply_with_weight="true"
       only_selected="false"
       uniform="false" />
    <inkscape:path-effect
       effect="bspline"
       id="path-effect2-5-3-2"
       is_visible="true"
       lpeversion="1.3"
       weight="33.333333"
       steps="2"
       helper_size="0"
       apply_no_weight="true"
       apply_with_weight="true"
       only_selected="false"
       uniform="false" />
    <inkscape:path-effect
       effect="bspline"
       id="path-effect2-5-3"
       is_visible="true"
       lpeversion="1.3"
       weight="33.333333"
       steps="2"
       helper_size="0"
       apply_no_weight="true"
       apply_with_weight="true"
       only_selected="false"
       uniform="false" />
    <inkscape:path-effect
       effect="bspline"
       id="path-effect2-5"
       is_visible="true"
       lpeversion="1.3"
       weight="33.333333"
       steps="2"
       helper_size="0"
       apply_no_weight="true"
       apply_with_weight="true"
       only_selected="false"
       uniform="false" />
    <inkscape:path-effect
       effect="bspline"
       id="path-effect2"
       is_visible="true"
       lpeversion="1.3"
       weight="33.333333"
       steps="2"
       helper_size="0"
       apply_no_weight="true"
       apply_with_weight="true"
       only_selected="false"
       uniform="false" />
    <marker
       style="overflow:visible"
       id="ConcaveTriangle-4"
       refX="0"
       refY="0"
       orient="auto-start-reverse"
       inkscape:stockid="Concave triangle arrow"
       markerWidth="1"
       markerHeight="1"
       viewBox="0 0 1 1"
       inkscape:isstock="true"
       inkscape:collect="always"
       preserveAspectRatio="xMidYMid">
      <path
         transform="scale(0.7)"
         d="M -2,-4 9,0 -2,4 c 2,-2.33 2,-5.66 0,-8 z"
         style="fill:context-stroke;fill-rule:evenodd;stroke:none"
         id="path7-4" />
    </marker>
    <marker
       style="overflow:visible"
       id="ConcaveTriangle"
       refX="0"
       refY="0"
       orient="auto-start-reverse"
       inkscape:stockid="Concave triangle arrow"
       markerWidth="1"
       markerHeight="1"
       viewBox="0 0 1 1"
       inkscape:isstock="true"
       inkscape:collect="always"
       preserveAspectRatio="xMidYMid">
      <path
         transform="scale(0.7)"
         d="M -2,-4 9,0 -2,4 c 2,-2.33 2,-5.66 0,-8 z"
         style="fill:context-stroke;fill-rule:evenodd;stroke:none"
         id="path7" />
    </marker>
    <inkscape:path-effect
       effect="bspline"
       id="path-effect35"
       is_visible="true"
       lpeversion="1.3"
       weight="33.333333"
       steps="2"
       helper_size="0"
       apply_no_weight="true"
       apply_with_weight="true"
       only_selected="false"
       uniform="false" />
  </defs>
  <g
     inkscape:label="Ebene 1"
     inkscape:groupmode="layer"
     id="layer1"
     transform="translate(-135.46666,-212.65507)">
    <path
       style="fill:none;fill-rule:evenodd;stroke:#000000;stroke-width:0.166508;stroke-linecap:square;stroke-miterlimit:3.9;stroke-dasharray:none;stroke-opacity:1"
       d="m 57.351109,40.69203 c 0,0 0.0041,-0.985459 0.0041,-0.985459 0,0 5.686857,0.0049 5.686857,0.0049"
       id="path35"
       inkscape:path-effect="#path-effect35"
       inkscape:original-d="m 57.351109,40.69203 0.0041,-0.985459 5.686857,0.0049"
       transform="matrix(0,0.82691984,-1.1874966,0,219.49956,172.33843)" />
    <path
       style="fill:#000000;fill-rule:evenodd;stroke:#000100;stroke-width:0.265;stroke-linecap:square;stroke-miterlimit:3.9;stroke-dasharray:none;marker-end:url(#ConcaveTriangle)"
       d="m 135.59916,231.61379 h 46.42072"
       id="path1" />
    <path
       style="fill:#000000;fill-rule:evenodd;stroke:#000100;stroke-width:0.265;stroke-linecap:square;stroke-miterlimit:3.9;stroke-dasharray:none;marker-end:url(#ConcaveTriangle-4)"
       d="M 159.57802,250.02703 V 214.65908"
       id="path1-3" />
    <path
       style="fill:#000000;fill-rule:evenodd;stroke:#7d7d7d;stroke-width:0.309949;stroke-linecap:square;stroke-miterlimit:3.9;stroke-dasharray:none;stroke-opacity:1"
       d="m 27.032143,45.803571 c 0,0 39.921428,-6.878572 39.921428,-6.878572"
       id="path2"
       inkscape:path-effect="#path-effect2"
       inkscape:original-d="M 27.032143,45.803571 66.953571,38.924999"
       transform="matrix(0,0.73098571,-1,0,202.04404,197.22345)" />
    <path
       style="fill:#000000;fill-rule:evenodd;stroke:#7d7d7d;stroke-width:0.309949;stroke-linecap:square;stroke-miterlimit:3.9;stroke-dasharray:none;stroke-opacity:1"
       d="m 27.032143,45.803571 c 0,0 39.921428,-6.878572 39.921428,-6.878572"
       id="path2-6"
       inkscape:path-effect="#path-effect2-5"
       inkscape:original-d="M 27.032143,45.803571 66.953571,38.924999"
       transform="matrix(0,0.73098571,-1,0,192.59235,197.22345)" />
    <path
       style="fill:#000000;fill-rule:evenodd;stroke:#7d7d7d;stroke-width:0.309949;stroke-linecap:square;stroke-miterlimit:3.9;stroke-dasharray:none;stroke-opacity:1"
       d="m 27.032143,45.803571 c 0,0 39.921428,-6.878572 39.921428,-6.878572"
       id="path2-6-5"
       inkscape:path-effect="#path-effect2-5-3"
       inkscape:original-d="M 27.032143,45.803571 66.953571,38.924999"
       transform="matrix(0,0.73098571,-1,0,197.32773,197.22345)" />
    <path
       style="fill:#000000;fill-rule:evenodd;stroke:#7d7d7d;stroke-width:0.309949;stroke-linecap:square;stroke-miterlimit:3.9;stroke-dasharray:none;stroke-opacity:1"
       d="m 27.032143,45.803571 c 0,0 39.921428,-6.878572 39.921428,-6.878572"
       id="path2-6-5-9"
       inkscape:path-effect="#path-effect2-5-3-2"
       inkscape:original-d="M 27.032143,45.803571 66.953571,38.924999"
       transform="matrix(0,0.73098571,-1,0,187.70664,197.22345)" />
    <path
       style="fill:#000000;fill-rule:evenodd;stroke:#7d7d7d;stroke-width:0.309949;stroke-linecap:square;stroke-miterlimit:3.9;stroke-dasharray:none;stroke-opacity:1"
       d="m 27.032143,45.803571 c 0,0 39.921428,-6.878572 39.921428,-6.878572"
       id="path2-0"
       inkscape:path-effect="#path-effect2-4"
       inkscape:original-d="M 27.032143,45.803571 66.953571,38.924999"
       transform="matrix(0,0.73098571,-1,0,206.77072,197.22345)" />
    <path
       style="fill:#000000;fill-rule:evenodd;stroke:#7d7d7d;stroke-width:0.309949;stroke-linecap:square;stroke-miterlimit:3.9;stroke-dasharray:none;stroke-opacity:1"
       d="m 27.032143,45.803571 c 0,0 39.921428,-6.878572 39.921428,-6.878572"
       id="path2-0-6"
       inkscape:path-effect="#path-effect2-4-7"
       inkscape:original-d="M 27.032143,45.803571 66.953571,38.924999"
       transform="matrix(0,0.73098571,-1,0,211.49572,197.22345)" />
    <path
       style="fill:#000000;fill-rule:evenodd;stroke:#7d7d7d;stroke-width:0.309949;stroke-linecap:square;stroke-miterlimit:3.9;stroke-dasharray:none;stroke-opacity:1"
       d="m 27.032143,45.803571 c 0,0 39.921428,-6.878572 39.921428,-6.878572"
       id="path2-0-6-3"
       inkscape:path-effect="#path-effect2-4-7-0"
       inkscape:original-d="M 27.032143,45.803571 66.953571,38.924999"
       transform="matrix(0,0.73098571,-1,0,216.38144,197.22345)" />
    <g
       inkscape:label=""
       transform="translate(184.41648,243.231)"
       id="g9">
      <g
         fill="#000000"
         fill-opacity="1"
         id="g8"
         transform="matrix(0.352778,0,0,0.352778,-36.360773,-31.295909)">
        <g
           id="use7"
           transform="translate(22.459,8.1190004)">
          <path
             d="m 3.9375,-5.46875 c 0.046875,-0.1875 0.078125,-0.28125 0.21875,-0.3125 0.078125,-0.015625 0.359375,-0.015625 0.546875,-0.015625 1.03125,0 1.34375,0.0625 1.34375,0.765625 0,0.109375 0,0.25 -0.078125,0.78125 l -0.015625,0.078125 c 0,0.0625 0.03125,0.125 0.125,0.125 0.109375,0 0.125,-0.09375 0.140625,-0.21875 l 0.234375,-1.5625 c 0.015625,-0.03125 0.015625,-0.09375 0.015625,-0.125 0,-0.125 -0.078125,-0.125 -0.25,-0.125 H 1.109375 c -0.21875,0 -0.21875,0.015625 -0.28125,0.1875 l -0.5625,1.578125 c -0.03125,0.109375 -0.03125,0.140625 -0.03125,0.140625 0,0.046875 0.03125,0.125 0.109375,0.125 0.109375,0 0.125,-0.0625 0.171875,-0.21875 0.5,-1.40625 0.78125,-1.53125 2.078125,-1.53125 H 2.9375 c 0.25,0 0.25,0.03125 0.25,0.109375 0,0.046875 -0.015625,0.109375 -0.03125,0.1875 l -1.203125,4.796875 c -0.078125,0.3125 -0.109375,0.421875 -1.0625,0.421875 -0.28125,0 -0.359375,0 -0.359375,0.171875 C 0.53125,0 0.640625,0 0.6875,0 c 0.234375,0 0.484375,-0.015625 0.734375,-0.015625 0.25,0 0.5,-0.015625 0.75,-0.015625 0.40625,0 0.421875,0 0.75,0.015625 C 3.046875,-0.015625 3.625,0 3.703125,0 c 0.078125,0 0.1875,0 0.1875,-0.15625 0,-0.125 -0.078125,-0.125 -0.296875,-0.125 -0.234375,0 -0.34375,0 -0.578125,-0.015625 -0.203125,-0.03125 -0.3125,-0.03125 -0.3125,-0.1875 0,-0.046875 0.015625,-0.109375 0.03125,-0.171875 z m 0,0"
             id="path11" />
        </g>
      </g>
    </g>
    <g
       inkscape:label=""
       transform="translate(184.61093,230.21707)"
       id="g16">
      <g
         fill="#000000"
         fill-opacity="1"
         id="g11"
         transform="matrix(0.352778,0,0,0.352778,-0.747183,-0.635441)">
        <g
           id="g10"
           transform="translate(1.993,7.77)">
          <path
             d="m 5.578125,-3.3125 c 0,-0.265625 -0.09375,-0.65625 -0.40625,-0.65625 -0.234375,0 -0.46875,0.234375 -0.46875,0.453125 0,0.140625 0.046875,0.15625 0.125,0.234375 C 4.9375,-3.171875 5.15625,-2.9375 5.15625,-2.5 c 0,0.546875 -0.578125,1.9375 -1.484375,1.9375 -0.5,0 -0.796875,-0.359375 -0.875,-0.734375 0,-0.125 0.3125,-0.765625 0.3125,-1.09375 0,-0.125 -0.0625,-0.234375 -0.203125,-0.234375 -0.078125,0 -0.15625,0.046875 -0.203125,0.109375 -0.171875,0.203125 -0.25,0.9375 -0.25,1.15625 -0.296875,0.421875 -0.671875,0.78125 -1.21875,0.78125 -0.578125,0 -0.78125,-0.484375 -0.78125,-1 0,-0.6875 0.265625,-1.28125 0.84375,-2.03125 C 1.34375,-3.6875 1.34375,-3.71875 1.34375,-3.765625 c 0,-0.078125 -0.078125,-0.15625 -0.15625,-0.15625 -0.09375,0 -0.171875,0.078125 -0.203125,0.140625 -0.5,0.703125 -0.859375,1.6875 -0.859375,2.546875 0,0.703125 0.25,1.328125 1.03125,1.328125 0.5625,0 1.078125,-0.484375 1.34375,-0.890625 0.125,0.359375 0.328125,0.890625 1.046875,0.890625 0.703125,0 1.15625,-0.5625 1.5,-1.265625 C 5.203125,-1.53125 5.3125,-1.90625 5.40625,-2.28125 5.5,-2.671875 5.578125,-3.046875 5.578125,-3.3125 Z m 0,0"
             id="path6" />
        </g>
      </g>
    </g>
    <g
       inkscape:label=""
       transform="translate(163.37953,247.82795)"
       id="g12">
      <g
         fill="#000000"
         fill-opacity="1"
         id="g5"
         transform="matrix(0.352778,0,0,0.352778,-0.923572,-0.703439)">
        <g
           id="use4"
           transform="translate(1.993,8.1190004)">
          <path
             d="m 5.828125,-5.15625 c 0.078125,-0.375 0.25,-0.671875 0.953125,-0.6875 0.046875,0 0.15625,-0.015625 0.15625,-0.171875 0,-0.0625 -0.046875,-0.109375 -0.125,-0.109375 -0.1875,0 -0.703125,0.03125 -0.890625,0.03125 -0.234375,0 -0.25,0 -0.453125,-0.015625 C 5.3125,-6.109375 5.125,-6.125 5,-6.125 c -0.046875,0 -0.171875,0 -0.171875,0.15625 0,0.125 0.109375,0.125 0.171875,0.125 0.34375,0 0.59375,0.078125 0.59375,0.375 0,0.046875 -0.03125,0.171875 -0.03125,0.1875 l -0.796875,3.203125 c -0.3125,1.25 -1.40625,2 -2.296875,2 -0.453125,0 -1.109375,-0.25 -1.109375,-1.203125 0,-0.21875 0.03125,-0.453125 0.078125,-0.6875 l 0.875,-3.46875 c 0.078125,-0.34375 0.109375,-0.40625 0.8125,-0.40625 0.140625,0 0.234375,0 0.234375,-0.171875 0,-0.078125 -0.0625,-0.109375 -0.125,-0.109375 L 2.65625,-6.109375 C 2.390625,-6.09375 2.375,-6.09375 2.09375,-6.09375 c -0.296875,0 -0.3125,0 -0.578125,-0.015625 -0.171875,0 -0.40625,-0.015625 -0.578125,-0.015625 -0.0625,0 -0.1875,0 -0.1875,0.15625 0,0.125 0.09375,0.125 0.265625,0.125 0.046875,0 0.203125,0 0.34375,0.015625 0.171875,0.015625 0.21875,0.046875 0.21875,0.140625 0,0.046875 -0.078125,0.375 -0.140625,0.5625 L 1.25,-4.34375 C 1.171875,-3.984375 0.734375,-2.3125 0.703125,-2.125 0.625,-1.84375 0.625,-1.734375 0.625,-1.546875 c 0,1.046875 0.78125,1.75 1.828125,1.75 C 3.609375,0.203125 4.75,-0.828125 5.03125,-2 Z m 0,0"
             id="path8" />
        </g>
      </g>
      <g
         fill="#000000"
         fill-opacity="1"
         id="g6"
         transform="matrix(0.352778,0,0,0.352778,-0.923572,-0.703439)">
        <g
           id="use5"
           transform="translate(8.2609997,9.1149998)">
          <path
             d="m 2.84375,-1.78125 c 0,-0.5625 -0.5625,-0.890625 -1.234375,-0.890625 -0.296875,0 -1,0.03125 -1,0.53125 0,0.171875 0.109375,0.296875 0.296875,0.296875 0.171875,0 0.28125,-0.125 0.28125,-0.28125 0,-0.109375 -0.046875,-0.21875 -0.15625,-0.265625 0.203125,-0.09375 0.5,-0.09375 0.5625,-0.09375 0.421875,0 0.75,0.265625 0.75,0.71875 v 0.15625 c -0.265625,0 -0.75,0.015625 -1.1875,0.171875 -0.390625,0.140625 -0.765625,0.40625 -0.765625,0.8125 0,0.53125 0.625,0.6875 1.09375,0.6875 0.5,0 0.796875,-0.25 0.9375,-0.484375 0.03125,0.3125 0.234375,0.453125 0.4375,0.453125 0.03125,0 0.671875,0 0.671875,-0.5625 V -0.875 H 3.3125 v 0.328125 c 0,0.0625 0,0.328125 -0.234375,0.328125 -0.234375,0 -0.234375,-0.265625 -0.234375,-0.328125 z m -0.5,0.9375 c 0,0.609375 -0.609375,0.71875 -0.8125,0.71875 -0.3125,0 -0.625,-0.203125 -0.625,-0.5 0,-0.34375 0.328125,-0.78125 1.4375,-0.8125 z m 0,0"
             id="path9" />
        </g>
      </g>
      <g
         fill="#000000"
         fill-opacity="1"
         id="g7"
         transform="matrix(0.352778,0,0,0.352778,-0.923572,-0.703439)">
        <g
           id="use6"
           transform="translate(14.971,8.1190004)">
          <path
             d="m 6.34375,-2.96875 c 0.125,0 0.296875,0 0.296875,-0.1875 0,-0.203125 -0.1875,-0.203125 -0.328125,-0.203125 H 0.84375 c -0.140625,0 -0.328125,0 -0.328125,0.203125 0,0.1875 0.171875,0.1875 0.296875,0.1875 z M 6.3125,-1.140625 c 0.140625,0 0.328125,0 0.328125,-0.203125 0,-0.1875 -0.171875,-0.1875 -0.296875,-0.1875 H 0.8125 c -0.125,0 -0.296875,0 -0.296875,0.1875 0,0.203125 0.1875,0.203125 0.328125,0.203125 z m 0,0"
             id="path10" />
        </g>
      </g>
      <g
         fill="#000000"
         fill-opacity="1"
         id="g4"
         transform="matrix(0.352778,0,0,0.352778,-0.923572,-0.703439)">
        <g
           id="g3"
           transform="translate(24.703131,8.1190004)">
          <path
             d="M 4.25,-2.875 C 4.25,-3.46875 4.21875,-4.25 3.90625,-4.921875 3.5,-5.765625 2.828125,-5.96875 2.3125,-5.96875 c -0.546875,0 -1.234375,0.203125 -1.625,1.078125 -0.28125,0.609375 -0.328125,1.34375 -0.328125,2.015625 0,0.59375 0.015625,1.453125 0.40625,2.171875 0.421875,0.75 1.125,0.90625 1.53125,0.90625 0.578125,0 1.25,-0.25 1.625,-1.078125 C 4.1875,-1.484375 4.25,-2.15625 4.25,-2.875 Z m -1.9375,2.84375 c -0.28125,0 -0.921875,-0.125 -1.09375,-1.140625 C 1.125,-1.6875 1.125,-2.46875 1.125,-2.984375 c 0,-0.609375 0,-1.3125 0.109375,-1.8125 0.1875,-0.796875 0.75,-0.953125 1.0625,-0.953125 0.34375,0 0.90625,0.1875 1.078125,1.015625 0.09375,0.484375 0.09375,1.1875 0.09375,1.75 0,0.5625 0,1.3125 -0.09375,1.84375 -0.1875,1.03125 -0.84375,1.109375 -1.0625,1.109375 z m 0,0"
             id="path3" />
        </g>
      </g>
    </g>
    <g
       inkscape:label=""
       transform="translate(176.2838,235.21606)"
       id="g22">
      <g
         fill="#000000"
         fill-opacity="1"
         id="g14"
         transform="matrix(0.352778,0,0,0.352778,-0.923572,-0.703439)">
        <g
           id="g13"
           transform="translate(1.993,8.1190004)">
          <path
             d="m 5.828125,-5.15625 c 0.078125,-0.375 0.25,-0.671875 0.953125,-0.6875 0.046875,0 0.15625,-0.015625 0.15625,-0.171875 0,-0.0625 -0.046875,-0.109375 -0.125,-0.109375 -0.1875,0 -0.703125,0.03125 -0.890625,0.03125 -0.234375,0 -0.25,0 -0.453125,-0.015625 C 5.3125,-6.109375 5.125,-6.125 5,-6.125 c -0.046875,0 -0.171875,0 -0.171875,0.15625 0,0.125 0.109375,0.125 0.171875,0.125 0.34375,0 0.59375,0.078125 0.59375,0.375 0,0.046875 -0.03125,0.171875 -0.03125,0.1875 l -0.796875,3.203125 c -0.3125,1.25 -1.40625,2 -2.296875,2 -0.453125,0 -1.109375,-0.25 -1.109375,-1.203125 0,-0.21875 0.03125,-0.453125 0.078125,-0.6875 l 0.875,-3.46875 c 0.078125,-0.34375 0.109375,-0.40625 0.8125,-0.40625 0.140625,0 0.234375,0 0.234375,-0.171875 0,-0.078125 -0.0625,-0.109375 -0.125,-0.109375 L 2.65625,-6.109375 C 2.390625,-6.09375 2.375,-6.09375 2.09375,-6.09375 c -0.296875,0 -0.3125,0 -0.578125,-0.015625 -0.171875,0 -0.40625,-0.015625 -0.578125,-0.015625 -0.0625,0 -0.1875,0 -0.1875,0.15625 0,0.125 0.09375,0.125 0.265625,0.125 0.046875,0 0.203125,0 0.34375,0.015625 0.171875,0.015625 0.21875,0.046875 0.21875,0.140625 0,0.046875 -0.078125,0.375 -0.140625,0.5625 L 1.25,-4.34375 C 1.171875,-3.984375 0.734375,-2.3125 0.703125,-2.125 0.625,-1.84375 0.625,-1.734375 0.625,-1.546875 c 0,1.046875 0.78125,1.75 1.828125,1.75 C 3.609375,0.203125 4.75,-0.828125 5.03125,-2 Z m 0,0"
             id="path12" />
        </g>
      </g>
      <g
         fill="#000000"
         fill-opacity="1"
         id="g17"
         transform="matrix(0.352778,0,0,0.352778,-0.923572,-0.703439)">
        <g
           id="g15"
           transform="translate(8.2609997,9.1149998)">
          <path
             d="m 2.84375,-1.78125 c 0,-0.5625 -0.5625,-0.890625 -1.234375,-0.890625 -0.296875,0 -1,0.03125 -1,0.53125 0,0.171875 0.109375,0.296875 0.296875,0.296875 0.171875,0 0.28125,-0.125 0.28125,-0.28125 0,-0.109375 -0.046875,-0.21875 -0.15625,-0.265625 0.203125,-0.09375 0.5,-0.09375 0.5625,-0.09375 0.421875,0 0.75,0.265625 0.75,0.71875 v 0.15625 c -0.265625,0 -0.75,0.015625 -1.1875,0.171875 -0.390625,0.140625 -0.765625,0.40625 -0.765625,0.8125 0,0.53125 0.625,0.6875 1.09375,0.6875 0.5,0 0.796875,-0.25 0.9375,-0.484375 0.03125,0.3125 0.234375,0.453125 0.4375,0.453125 0.03125,0 0.671875,0 0.671875,-0.5625 V -0.875 H 3.3125 v 0.328125 c 0,0.0625 0,0.328125 -0.234375,0.328125 -0.234375,0 -0.234375,-0.265625 -0.234375,-0.328125 z m -0.5,0.9375 c 0,0.609375 -0.609375,0.71875 -0.8125,0.71875 -0.3125,0 -0.625,-0.203125 -0.625,-0.5 0,-0.34375 0.328125,-0.78125 1.4375,-0.8125 z m 0,0"
             id="path14" />
        </g>
      </g>
      <g
         fill="#000000"
         fill-opacity="1"
         id="g19"
         transform="matrix(0.352778,0,0,0.352778,-0.923572,-0.703439)">
        <g
           id="g18"
           transform="translate(14.971,8.1190004)">
          <path
             d="M 6.203125,-2.03125 C 6.3125,-2.078125 6.390625,-2.125 6.390625,-2.25 c 0,-0.125 -0.109375,-0.171875 -0.1875,-0.203125 l -5.0625,-2.4375 c -0.125,-0.0625 -0.15625,-0.0625 -0.1875,-0.0625 -0.109375,0 -0.1875,0.09375 -0.1875,0.1875 0,0.109375 0.0625,0.15625 0.1875,0.21875 L 5.75,-2.25 0.953125,0.046875 c -0.125,0.0625 -0.1875,0.109375 -0.1875,0.21875 0,0.0625 0.0625,0.1875 0.203125,0.1875 0.015625,0 0.046875,0 0.15625,-0.046875 z m 0,0"
             id="path17" />
        </g>
      </g>
      <g
         fill="#000000"
         fill-opacity="1"
         id="g21"
         transform="matrix(0.352778,0,0,0.352778,-0.923572,-0.703439)">
        <g
           id="g20"
           transform="translate(24.698999,8.1190004)">
          <path
             d="M 4.25,-2.875 C 4.25,-3.46875 4.21875,-4.25 3.90625,-4.921875 3.5,-5.765625 2.828125,-5.96875 2.3125,-5.96875 c -0.546875,0 -1.234375,0.203125 -1.625,1.078125 -0.28125,0.609375 -0.328125,1.34375 -0.328125,2.015625 0,0.59375 0.015625,1.453125 0.40625,2.171875 0.421875,0.75 1.125,0.90625 1.53125,0.90625 0.578125,0 1.25,-0.25 1.625,-1.078125 C 4.1875,-1.484375 4.25,-2.15625 4.25,-2.875 Z m -1.9375,2.84375 c -0.28125,0 -0.921875,-0.125 -1.09375,-1.140625 C 1.125,-1.6875 1.125,-2.46875 1.125,-2.984375 c 0,-0.609375 0,-1.3125 0.109375,-1.8125 0.1875,-0.796875 0.75,-0.953125 1.0625,-0.953125 0.34375,0 0.90625,0.1875 1.078125,1.015625 0.09375,0.484375 0.09375,1.1875 0.09375,1.75 0,0.5625 0,1.3125 -0.09375,1.84375 -0.1875,1.03125 -0.84375,1.109375 -1.0625,1.109375 z m 0,0"
             id="path19" />
        </g>
      </g>
    </g>
    <g
       inkscape:label=""
       transform="translate(135.46666,239.53447)"
       id="g31">
      <g
         fill="#000000"
         fill-opacity="1"
         id="g24"
         transform="matrix(0.352778,0,0,0.352778,-0.923572,-0.703439)">
        <g
           id="g23"
           transform="translate(1.993,8.1190004)">
          <path
             d="m 5.828125,-5.15625 c 0.078125,-0.375 0.25,-0.671875 0.953125,-0.6875 0.046875,0 0.15625,-0.015625 0.15625,-0.171875 0,-0.0625 -0.046875,-0.109375 -0.125,-0.109375 -0.1875,0 -0.703125,0.03125 -0.890625,0.03125 -0.234375,0 -0.25,0 -0.453125,-0.015625 C 5.3125,-6.109375 5.125,-6.125 5,-6.125 c -0.046875,0 -0.171875,0 -0.171875,0.15625 0,0.125 0.109375,0.125 0.171875,0.125 0.34375,0 0.59375,0.078125 0.59375,0.375 0,0.046875 -0.03125,0.171875 -0.03125,0.1875 l -0.796875,3.203125 c -0.3125,1.25 -1.40625,2 -2.296875,2 -0.453125,0 -1.109375,-0.25 -1.109375,-1.203125 0,-0.21875 0.03125,-0.453125 0.078125,-0.6875 l 0.875,-3.46875 c 0.078125,-0.34375 0.109375,-0.40625 0.8125,-0.40625 0.140625,0 0.234375,0 0.234375,-0.171875 0,-0.078125 -0.0625,-0.109375 -0.125,-0.109375 L 2.65625,-6.109375 C 2.390625,-6.09375 2.375,-6.09375 2.09375,-6.09375 c -0.296875,0 -0.3125,0 -0.578125,-0.015625 -0.171875,0 -0.40625,-0.015625 -0.578125,-0.015625 -0.0625,0 -0.1875,0 -0.1875,0.15625 0,0.125 0.09375,0.125 0.265625,0.125 0.046875,0 0.203125,0 0.34375,0.015625 0.171875,0.015625 0.21875,0.046875 0.21875,0.140625 0,0.046875 -0.078125,0.375 -0.140625,0.5625 L 1.25,-4.34375 C 1.171875,-3.984375 0.734375,-2.3125 0.703125,-2.125 0.625,-1.84375 0.625,-1.734375 0.625,-1.546875 c 0,1.046875 0.78125,1.75 1.828125,1.75 C 3.609375,0.203125 4.75,-0.828125 5.03125,-2 Z m 0,0"
             id="path22" />
        </g>
      </g>
      <g
         fill="#000000"
         fill-opacity="1"
         id="g26"
         transform="matrix(0.352778,0,0,0.352778,-0.923572,-0.703439)">
        <g
           id="g25"
           transform="translate(8.2609997,9.1149998)">
          <path
             d="m 2.84375,-1.78125 c 0,-0.5625 -0.5625,-0.890625 -1.234375,-0.890625 -0.296875,0 -1,0.03125 -1,0.53125 0,0.171875 0.109375,0.296875 0.296875,0.296875 0.171875,0 0.28125,-0.125 0.28125,-0.28125 0,-0.109375 -0.046875,-0.21875 -0.15625,-0.265625 0.203125,-0.09375 0.5,-0.09375 0.5625,-0.09375 0.421875,0 0.75,0.265625 0.75,0.71875 v 0.15625 c -0.265625,0 -0.75,0.015625 -1.1875,0.171875 -0.390625,0.140625 -0.765625,0.40625 -0.765625,0.8125 0,0.53125 0.625,0.6875 1.09375,0.6875 0.5,0 0.796875,-0.25 0.9375,-0.484375 0.03125,0.3125 0.234375,0.453125 0.4375,0.453125 0.03125,0 0.671875,0 0.671875,-0.5625 V -0.875 H 3.3125 v 0.328125 c 0,0.0625 0,0.328125 -0.234375,0.328125 -0.234375,0 -0.234375,-0.265625 -0.234375,-0.328125 z m -0.5,0.9375 c 0,0.609375 -0.609375,0.71875 -0.8125,0.71875 -0.3125,0 -0.625,-0.203125 -0.625,-0.5 0,-0.34375 0.328125,-0.78125 1.4375,-0.8125 z m 0,0"
             id="path24" />
        </g>
      </g>
      <g
         fill="#000000"
         fill-opacity="1"
         id="g28"
         transform="matrix(0.352778,0,0,0.352778,-0.923572,-0.703439)">
        <g
           id="g27"
           transform="translate(14.971,8.1190004)">
          <path
             d="m 6.203125,-4.546875 c 0.078125,-0.03125 0.1875,-0.09375 0.1875,-0.203125 0,-0.109375 -0.078125,-0.203125 -0.203125,-0.203125 -0.015625,0 -0.046875,0 -0.15625,0.0625 l -5.078125,2.4375 C 0.875,-2.421875 0.765625,-2.375 0.765625,-2.25 c 0,0.125 0.09375,0.171875 0.1875,0.21875 l 5.0625,2.421875 c 0.125,0.0625 0.15625,0.0625 0.171875,0.0625 0.140625,0 0.203125,-0.125 0.203125,-0.1875 0,-0.109375 -0.0625,-0.15625 -0.171875,-0.1875 L 1.40625,-2.25 Z m 0,0"
             id="path26" />
        </g>
      </g>
      <g
         fill="#000000"
         fill-opacity="1"
         id="g30"
         transform="matrix(0.352778,0,0,0.352778,-0.923572,-0.703439)">
        <g
           id="g29"
           transform="translate(24.698999,8.1190004)">
          <path
             d="M 4.25,-2.875 C 4.25,-3.46875 4.21875,-4.25 3.90625,-4.921875 3.5,-5.765625 2.828125,-5.96875 2.3125,-5.96875 c -0.546875,0 -1.234375,0.203125 -1.625,1.078125 -0.28125,0.609375 -0.328125,1.34375 -0.328125,2.015625 0,0.59375 0.015625,1.453125 0.40625,2.171875 0.421875,0.75 1.125,0.90625 1.53125,0.90625 0.578125,0 1.25,-0.25 1.625,-1.078125 C 4.1875,-1.484375 4.25,-2.15625 4.25,-2.875 Z m -1.9375,2.84375 c -0.28125,0 -0.921875,-0.125 -1.09375,-1.140625 C 1.125,-1.6875 1.125,-2.46875 1.125,-2.984375 c 0,-0.609375 0,-1.3125 0.109375,-1.8125 0.1875,-0.796875 0.75,-0.953125 1.0625,-0.953125 0.34375,0 0.90625,0.1875 1.078125,1.015625 0.09375,0.484375 0.09375,1.1875 0.09375,1.75 0,0.5625 0,1.3125 -0.09375,1.84375 -0.1875,1.03125 -0.84375,1.109375 -1.0625,1.109375 z m 0,0"
             id="path28" />
        </g>
      </g>
    </g>
    <path
       style="fill:none;fill-rule:evenodd;stroke:#000000;stroke-width:0.165;stroke-linecap:square;stroke-miterlimit:3.9"
       d="m 166.78928,247.37143 c 0,0 -3.4912,-2.89286 -3.4912,-2.89286"
       id="path31"
       inkscape:path-effect="#path-effect31"
       inkscape:original-d="m 166.78928,247.37143 -3.4912,-2.89286" />
    <g
       inkscape:label=""
       transform="translate(173.5323,218.8905)"
       id="g40">
      <g
         fill="#000000"
         fill-opacity="1"
         id="g33"
         transform="matrix(0.352778,0,0,0.352778,-0.973182,-0.666926)">
        <g
           id="g32"
           transform="translate(1.993,12.633)">
          <path
             d="m 6.046875,-2.046875 c 0.171875,0 0.34375,0 0.34375,-0.203125 0,-0.1875 -0.1875,-0.1875 -0.34375,-0.1875 h -4.9375 c -0.15625,0 -0.34375,0 -0.34375,0.1875 0,0.203125 0.171875,0.203125 0.34375,0.203125 z m 0,0"
             id="path32" />
        </g>
      </g>
      <g
         fill="#000000"
         fill-opacity="1"
         id="g34"
         transform="matrix(0.352778,0,0,0.352778,-0.973182,-0.666926)">
        <g
           id="use8"
           transform="translate(10.356,7.711)">
          <path
             d="M 3.484375,-3.984375 C 3.484375,-4 3.5,-4.046875 3.5,-4.0625 c 0,-0.09375 -0.09375,-0.09375 -0.125,-0.09375 -0.078125,0 -0.09375,0.03125 -0.109375,0.140625 L 2.296875,-0.15625 C 2.03125,-0.171875 1.84375,-0.25 1.71875,-0.328125 1.484375,-0.5 1.484375,-0.71875 1.484375,-0.8125 c 0,-0.109375 0,-0.234375 0.265625,-0.90625 0.046875,-0.125 0.109375,-0.296875 0.109375,-0.40625 0,-0.328125 -0.296875,-0.515625 -0.59375,-0.515625 -0.609375,0 -0.90625,0.796875 -0.90625,0.921875 0,0.03125 0.03125,0.078125 0.109375,0.078125 0.09375,0 0.109375,-0.03125 0.125,-0.078125 C 0.765625,-2.28125 1.0625,-2.4375 1.25,-2.4375 c 0.109375,0 0.15625,0.078125 0.15625,0.21875 0,0.125 -0.078125,0.328125 -0.140625,0.484375 C 1.046875,-1.21875 1,-0.984375 1,-0.84375 1,-0.3125 1.484375,0 2.234375,0.046875 L 1.96875,1.140625 c 0,0.0625 0.078125,0.078125 0.109375,0.078125 0.09375,0 0.109375,-0.046875 0.125,-0.125 L 2.46875,0.0625 c 0.375,0 0.90625,-0.078125 1.46875,-0.625 0.265625,-0.265625 0.390625,-0.515625 0.453125,-0.625 0.0625,-0.140625 0.203125,-0.65625 0.203125,-0.953125 0,-0.4375 -0.25,-0.5 -0.328125,-0.5 -0.15625,0 -0.328125,0.171875 -0.328125,0.328125 0,0.109375 0.078125,0.171875 0.109375,0.203125 0.109375,0.078125 0.234375,0.21875 0.234375,0.453125 0,0.53125 -0.734375,1.515625 -1.765625,1.515625 z m 0,0"
             id="path15" />
        </g>
      </g>
      <g
         fill="#000000"
         fill-opacity="1"
         id="g35"
         transform="matrix(0.352778,0,0,0.352778,-0.973182,-0.666926)">
        <g
           id="use9"
           transform="translate(15.468,5.2030001)">
          <path
             d="m 1.796875,-2.3125 c 0,-0.015625 0.046875,-0.109375 0.046875,-0.1875 0,-0.171875 -0.15625,-0.28125 -0.3125,-0.28125 -0.203125,0 -0.25,0.15625 -0.28125,0.21875 L 0.484375,-0.40625 C 0.46875,-0.34375 0.46875,-0.328125 0.46875,-0.3125 c 0,0.078125 0.203125,0.125 0.203125,0.125 0.046875,0 0.0625,-0.03125 0.09375,-0.09375 z m 0,0"
             id="path16" />
        </g>
      </g>
      <g
         fill="#000000"
         fill-opacity="1"
         id="g36"
         transform="matrix(0.352778,0,0,0.352778,-0.973182,-0.666926)">
        <g
           id="use10"
           transform="translate(17.665001,5.2030001)">
          <path
             d="M 2.9375,-0.96875 H 2.71875 c 0,0.09375 -0.0625,0.40625 -0.140625,0.453125 -0.03125,0.03125 -0.453125,0.03125 -0.53125,0.03125 H 1.078125 C 1.40625,-0.71875 1.765625,-1 2.0625,-1.203125 c 0.453125,-0.3125 0.875,-0.59375 0.875,-1.125 0,-0.640625 -0.609375,-0.984375 -1.3125,-0.984375 -0.671875,0 -1.171875,0.375 -1.171875,0.875 0,0.25 0.21875,0.296875 0.296875,0.296875 0.125,0 0.28125,-0.09375 0.28125,-0.296875 0,-0.171875 -0.125,-0.28125 -0.28125,-0.28125 0.140625,-0.234375 0.4375,-0.375 0.765625,-0.375 0.484375,0 0.890625,0.28125 0.890625,0.765625 0,0.421875 -0.296875,0.75 -0.671875,1.0625 l -1.21875,1.03125 C 0.46875,-0.1875 0.453125,-0.1875 0.453125,-0.15625 V 0 h 2.3125 z m 0,0"
             id="path36" />
        </g>
      </g>
      <g
         fill="#000000"
         fill-opacity="1"
         id="g37"
         transform="matrix(0.352778,0,0,0.352778,-0.973182,-0.666926)">
        <g
           id="use11"
           transform="translate(15.254,9.823)">
          <path
             d="m 1.25,-1.921875 h 0.71875 v -0.21875 H 1.234375 V -2.6875 c 0,-0.46875 0.3125,-0.65625 0.546875,-0.65625 0.03125,0 0.125,0 0.125,0.015625 V -3.3125 C 1.875,-3.28125 1.8125,-3.21875 1.8125,-3.125 c 0,0.140625 0.109375,0.265625 0.265625,0.265625 0.15625,0 0.25,-0.125 0.25,-0.265625 0,-0.21875 -0.203125,-0.390625 -0.546875,-0.390625 -0.4375,0 -0.953125,0.28125 -0.953125,0.828125 v 0.546875 H 0.34375 v 0.21875 h 0.484375 v 1.5 c 0,0.15625 0,0.203125 -0.3125,0.203125 H 0.421875 V 0 C 0.625,-0.015625 0.859375,-0.015625 1.0625,-0.015625 c 0.265625,0 0.5,0 0.71875,0.015625 V -0.21875 H 1.640625 C 1.25,-0.21875 1.25,-0.265625 1.25,-0.421875 Z m 0,0"
             id="path18" />
        </g>
      </g>
      <path
         fill="none"
         stroke-width="0.379"
         stroke-linecap="butt"
         stroke-linejoin="miter"
         stroke="#000000"
         stroke-opacity="1"
         stroke-miterlimit="10"
         d="M 7.5968437,8.5001249 H 18.796062"
         id="path37"
         transform="scale(0.352778)" />
      <g
         fill="#000000"
         fill-opacity="1"
         id="g38"
         transform="matrix(0.352778,0,0,0.352778,-0.973182,-0.666926)">
        <g
           id="use12"
           transform="translate(11.254,15.675)">
          <path
             d="M 2.609375,-3.640625 C 2.65625,-3.84375 2.65625,-3.84375 2.90625,-3.84375 H 3.5 c 0.59375,0 1.03125,0.140625 1.03125,0.625 0,0.203125 -0.09375,0.640625 -0.5,0.859375 -0.234375,0.140625 -0.5625,0.21875 -0.96875,0.21875 H 2.21875 Z m 1.21875,1.609375 c 0.578125,-0.140625 1.34375,-0.546875 1.34375,-1.125 0,-0.5 -0.625,-0.9375 -1.5625,-0.9375 H 1.6875 c -0.125,0 -0.203125,0 -0.203125,0.15625 0,0.09375 0.078125,0.09375 0.1875,0.09375 0.109375,0 0.265625,0 0.390625,0.03125 0,0.0625 0,0.109375 -0.03125,0.203125 L 1.25,-0.5 c -0.046875,0.21875 -0.0625,0.265625 -0.515625,0.265625 -0.125,0 -0.140625,0 -0.171875,0.015625 C 0.53125,-0.203125 0.515625,-0.125 0.515625,-0.078125 0.515625,-0.0625 0.53125,0 0.609375,0 c 0.1875,0 0.625,-0.03125 0.796875,-0.03125 0.375,0 -0.015625,0 0.421875,0.015625 C 1.953125,-0.015625 2.09375,0 2.21875,0 2.265625,0 2.296875,0 2.328125,-0.046875 2.34375,-0.0625 2.359375,-0.125 2.359375,-0.15625 2.34375,-0.234375 2.296875,-0.234375 2.15625,-0.234375 2.078125,-0.234375 2,-0.25 1.921875,-0.25 1.8125,-0.265625 1.78125,-0.265625 1.78125,-0.328125 c 0,-0.03125 0,-0.046875 0.015625,-0.109375 l 0.375,-1.5 h 0.875 c 0.515625,0 0.78125,0.234375 0.78125,0.515625 0,0.078125 -0.046875,0.28125 -0.09375,0.421875 -0.0625,0.265625 -0.078125,0.359375 -0.078125,0.46875 0,0.4375 0.40625,0.65625 0.921875,0.65625 0.5625,0 0.828125,-0.5625 0.828125,-0.703125 0,-0.03125 -0.03125,-0.09375 -0.109375,-0.09375 -0.078125,0 -0.109375,0.046875 -0.109375,0.09375 -0.140625,0.40625 -0.4375,0.5 -0.578125,0.5 -0.15625,0 -0.296875,-0.046875 -0.296875,-0.40625 0,-0.140625 0.046875,-0.46875 0.0625,-0.625 0,-0.0625 0.03125,-0.1875 0.03125,-0.234375 0,-0.390625 -0.3125,-0.59375 -0.578125,-0.6875 z m 0,0"
             id="path38" />
        </g>
      </g>
      <g
         fill="#000000"
         fill-opacity="1"
         id="g39"
         transform="matrix(0.352778,0,0,0.352778,-0.973182,-0.666926)">
        <g
           id="use13"
           transform="translate(16.766001,16.671)">
          <path
             d="m 2.609375,-1.484375 c 0,-0.46875 -0.5,-0.75 -1.125,-0.75 -0.296875,0 -0.875,0.015625 -0.875,0.4375 0,0.1875 0.140625,0.265625 0.265625,0.265625 0.125,0 0.25,-0.09375 0.25,-0.265625 0,-0.109375 -0.0625,-0.1875 -0.109375,-0.21875 C 1.1875,-2.0625 1.421875,-2.0625 1.46875,-2.0625 c 0.4375,0 0.6875,0.234375 0.6875,0.59375 v 0.125 c -0.46875,0.015625 -0.75,0.03125 -1.125,0.171875 -0.328125,0.109375 -0.625,0.328125 -0.625,0.65625 0,0.453125 0.578125,0.578125 0.984375,0.578125 0.375,0 0.671875,-0.15625 0.828125,-0.421875 0.03125,0.1875 0.140625,0.390625 0.390625,0.390625 0.03125,0 0.609375,0 0.609375,-0.484375 V -0.71875 H 3 v 0.265625 C 3,-0.40625 3,-0.1875 2.8125,-0.1875 c -0.203125,0 -0.203125,-0.21875 -0.203125,-0.265625 z m -0.453125,0.78125 c 0,0.546875 -0.59375,0.59375 -0.71875,0.59375 -0.296875,0 -0.5625,-0.15625 -0.5625,-0.40625 0,-0.171875 0.09375,-0.625 1.28125,-0.6875 z m 0,0"
             id="path20" />
        </g>
      </g>
    </g>
  </g>
</svg>
