<?xml version="1.0" encoding="UTF-8" standalone="no"?>
<!-- Created with Inkscape (http://www.inkscape.org/) -->

<svg
   width="56.651413mm"
   height="37.169945mm"
   viewBox="0 0 56.651413 37.169945"
   version="1.1"
   id="svg1"
   xml:space="preserve"
   inkscape:version="1.3.2 (091e20e, 2023-11-25, custom)"
   sodipodi:docname="Sep_DC_machine_voltage_current.svg"
   xmlns:inkscape="http://www.inkscape.org/namespaces/inkscape"
   xmlns:sodipodi="http://sodipodi.sourceforge.net/DTD/sodipodi-0.dtd"
   xmlns="http://www.w3.org/2000/svg"
   xmlns:svg="http://www.w3.org/2000/svg"><sodipodi:namedview
     id="namedview1"
     pagecolor="#505050"
     bordercolor="#eeeeee"
     borderopacity="1"
     inkscape:showpageshadow="0"
     inkscape:pageopacity="0"
     inkscape:pagecheckerboard="0"
     inkscape:deskcolor="#505050"
     inkscape:document-units="mm"
     inkscape:zoom="2.9102682"
     inkscape:cx="141.91132"
     inkscape:cy="55.493167"
     inkscape:window-width="2560"
     inkscape:window-height="1351"
     inkscape:window-x="2551"
     inkscape:window-y="-9"
     inkscape:window-maximized="1"
     inkscape:current-layer="layer1" /><defs
     id="defs1"><inkscape:path-effect
       effect="bspline"
       id="path-effect35"
       is_visible="true"
       lpeversion="1.3"
       weight="33.333333"
       steps="2"
       helper_size="0"
       apply_no_weight="true"
       apply_with_weight="true"
       only_selected="false"
       uniform="false" /><inkscape:path-effect
       effect="bspline"
       id="path-effect2"
       is_visible="true"
       lpeversion="1.3"
       weight="33.333333"
       steps="2"
       helper_size="0"
       apply_no_weight="true"
       apply_with_weight="true"
       only_selected="false"
       uniform="false" /><marker
       style="overflow:visible"
       id="ConcaveTriangle"
       refX="0"
       refY="0"
       orient="auto-start-reverse"
       inkscape:stockid="Concave triangle arrow"
       markerWidth="1"
       markerHeight="1"
       viewBox="0 0 1 1"
       inkscape:isstock="true"
       inkscape:collect="always"
       preserveAspectRatio="xMidYMid"><path
         transform="scale(0.7)"
         d="M -2,-4 9,0 -2,4 c 2,-2.33 2,-5.66 0,-8 z"
         style="fill:context-stroke;fill-rule:evenodd;stroke:none"
         id="path7" /></marker><marker
       style="overflow:visible"
       id="ConcaveTriangle-4"
       refX="0"
       refY="0"
       orient="auto-start-reverse"
       inkscape:stockid="Concave triangle arrow"
       markerWidth="1"
       markerHeight="1"
       viewBox="0 0 1 1"
       inkscape:isstock="true"
       inkscape:collect="always"
       preserveAspectRatio="xMidYMid"><path
         transform="scale(0.7)"
         d="M -2,-4 9,0 -2,4 c 2,-2.33 2,-5.66 0,-8 z"
         style="fill:context-stroke;fill-rule:evenodd;stroke:none"
         id="path7-4" /></marker><inkscape:path-effect
       effect="bspline"
       id="path-effect2-4"
       is_visible="true"
       lpeversion="1.3"
       weight="33.333333"
       steps="2"
       helper_size="0"
       apply_no_weight="true"
       apply_with_weight="true"
       only_selected="false"
       uniform="false" /><inkscape:path-effect
       effect="bspline"
       id="path-effect2-4-7"
       is_visible="true"
       lpeversion="1.3"
       weight="33.333333"
       steps="2"
       helper_size="0"
       apply_no_weight="true"
       apply_with_weight="true"
       only_selected="false"
       uniform="false" /><inkscape:path-effect
       effect="bspline"
       id="path-effect2-4-7-0"
       is_visible="true"
       lpeversion="1.3"
       weight="33.333333"
       steps="2"
       helper_size="0"
       apply_no_weight="true"
       apply_with_weight="true"
       only_selected="false"
       uniform="false" /><inkscape:path-effect
       effect="bspline"
       id="path-effect2-5"
       is_visible="true"
       lpeversion="1.3"
       weight="33.333333"
       steps="2"
       helper_size="0"
       apply_no_weight="true"
       apply_with_weight="true"
       only_selected="false"
       uniform="false" /><inkscape:path-effect
       effect="bspline"
       id="path-effect2-5-3"
       is_visible="true"
       lpeversion="1.3"
       weight="33.333333"
       steps="2"
       helper_size="0"
       apply_no_weight="true"
       apply_with_weight="true"
       only_selected="false"
       uniform="false" /><inkscape:path-effect
       effect="bspline"
       id="path-effect2-5-3-2"
       is_visible="true"
       lpeversion="1.3"
       weight="33.333333"
       steps="2"
       helper_size="0"
       apply_no_weight="true"
       apply_with_weight="true"
       only_selected="false"
       uniform="false" /></defs><g
     inkscape:label="Ebene 1"
     inkscape:groupmode="layer"
     id="layer1"
     transform="translate(-23.672593,-23.734883)"><path
       style="fill:none;fill-rule:evenodd;stroke:#000000;stroke-width:0.14027;stroke-linecap:square;stroke-miterlimit:3.9;stroke-dasharray:none;stroke-opacity:1"
       d="m 57.351109,40.69203 c 0,0 0.0041,-0.985459 0.0041,-0.985459 0,0 5.686857,0.0049 5.686857,0.0049"
       id="path35"
       inkscape:path-effect="#path-effect35"
       inkscape:original-d="m 57.351109,40.69203 0.0041,-0.985459 5.686857,0.0049"
       transform="matrix(1.1652157,0,0,1.1874966,-10.415519,-7.6457137)" /><path
       style="fill:#000000;fill-rule:evenodd;stroke:#000100;stroke-width:0.265;stroke-linecap:square;stroke-miterlimit:3.9;stroke-dasharray:none;marker-end:url(#ConcaveTriangle)"
       d="M 23.805093,42.359095 H 70.225815"
       id="path1" /><path
       style="fill:#000000;fill-rule:evenodd;stroke:#000100;stroke-width:0.265;stroke-linecap:square;stroke-miterlimit:3.9;stroke-dasharray:none;marker-end:url(#ConcaveTriangle-4)"
       d="M 47.783954,60.772329 V 25.404383"
       id="path1-3" /><g
       inkscape:label=""
       transform="translate(42.99167,24.547021)"
       id="g1"><g
   fill="#000000"
   fill-opacity="1"
   id="g3"
   transform="matrix(0.352778,0,0,0.352778,-0.923572,-0.703439)">
    <g
   id="use2"
   transform="translate(1.993,8.1190004)">
      <path
   d="m 5.828125,-5.15625 c 0.078125,-0.375 0.25,-0.671875 0.953125,-0.6875 0.046875,0 0.15625,-0.015625 0.15625,-0.171875 0,-0.0625 -0.046875,-0.109375 -0.125,-0.109375 -0.1875,0 -0.703125,0.03125 -0.890625,0.03125 -0.234375,0 -0.25,0 -0.453125,-0.015625 C 5.3125,-6.109375 5.125,-6.125 5,-6.125 c -0.046875,0 -0.171875,0 -0.171875,0.15625 0,0.125 0.109375,0.125 0.171875,0.125 0.34375,0 0.59375,0.078125 0.59375,0.375 0,0.046875 -0.03125,0.171875 -0.03125,0.1875 l -0.796875,3.203125 c -0.3125,1.25 -1.40625,2 -2.296875,2 -0.453125,0 -1.109375,-0.25 -1.109375,-1.203125 0,-0.21875 0.03125,-0.453125 0.078125,-0.6875 l 0.875,-3.46875 c 0.078125,-0.34375 0.109375,-0.40625 0.8125,-0.40625 0.140625,0 0.234375,0 0.234375,-0.171875 0,-0.078125 -0.0625,-0.109375 -0.125,-0.109375 L 2.65625,-6.109375 C 2.390625,-6.09375 2.375,-6.09375 2.09375,-6.09375 c -0.296875,0 -0.3125,0 -0.578125,-0.015625 -0.171875,0 -0.40625,-0.015625 -0.578125,-0.015625 -0.0625,0 -0.1875,0 -0.1875,0.15625 0,0.125 0.09375,0.125 0.265625,0.125 0.046875,0 0.203125,0 0.34375,0.015625 0.171875,0.015625 0.21875,0.046875 0.21875,0.140625 0,0.046875 -0.078125,0.375 -0.140625,0.5625 L 1.25,-4.34375 C 1.171875,-3.984375 0.734375,-2.3125 0.703125,-2.125 0.625,-1.84375 0.625,-1.734375 0.625,-1.546875 c 0,1.046875 0.78125,1.75 1.828125,1.75 C 3.609375,0.203125 4.75,-0.828125 5.03125,-2 Z m 0,0"
   id="path4" />
    </g>
  </g>
  <g
   fill="#000000"
   fill-opacity="1"
   id="g4"
   transform="matrix(0.352778,0,0,0.352778,-0.923572,-0.703439)">
    <g
   id="use3"
   transform="translate(8.2609997,9.1149998)">
      <path
   d="m 2.84375,-1.78125 c 0,-0.5625 -0.5625,-0.890625 -1.234375,-0.890625 -0.296875,0 -1,0.03125 -1,0.53125 0,0.171875 0.109375,0.296875 0.296875,0.296875 0.171875,0 0.28125,-0.125 0.28125,-0.28125 0,-0.109375 -0.046875,-0.21875 -0.15625,-0.265625 0.203125,-0.09375 0.5,-0.09375 0.5625,-0.09375 0.421875,0 0.75,0.265625 0.75,0.71875 v 0.15625 c -0.265625,0 -0.75,0.015625 -1.1875,0.171875 -0.390625,0.140625 -0.765625,0.40625 -0.765625,0.8125 0,0.53125 0.625,0.6875 1.09375,0.6875 0.5,0 0.796875,-0.25 0.9375,-0.484375 0.03125,0.3125 0.234375,0.453125 0.4375,0.453125 0.03125,0 0.671875,0 0.671875,-0.5625 V -0.875 H 3.3125 v 0.328125 c 0,0.0625 0,0.328125 -0.234375,0.328125 -0.234375,0 -0.234375,-0.265625 -0.234375,-0.328125 z m -0.5,0.9375 c 0,0.609375 -0.609375,0.71875 -0.8125,0.71875 -0.3125,0 -0.625,-0.203125 -0.625,-0.5 0,-0.34375 0.328125,-0.78125 1.4375,-0.8125 z m 0,0"
   id="path5" />
    </g>
  </g>
</g><path
       style="fill:#7d7d7d;fill-rule:evenodd;stroke:#7d7d7d;stroke-width:0.264999;stroke-linecap:square;stroke-miterlimit:3.9;stroke-dasharray:none;stroke-opacity:1;fill-opacity:1"
       d="m 27.032143,45.803571 c 0,0 39.921428,-6.878572 39.921428,-6.878572"
       id="path2"
       inkscape:path-effect="#path-effect2"
       inkscape:original-d="M 27.032143,45.803571 66.953571,38.924999"
       transform="translate(0,0.11250001)" /><path
       style="fill:#7d7d7d;fill-rule:evenodd;stroke:#7d7d7d;stroke-width:0.264999;stroke-linecap:square;stroke-miterlimit:3.9;stroke-dasharray:none;stroke-opacity:1;fill-opacity:1"
       d="m 27.032143,45.803571 c 0,0 39.921428,-6.878572 39.921428,-6.878572"
       id="path2-6"
       inkscape:path-effect="#path-effect2-5"
       inkscape:original-d="M 27.032143,45.803571 66.953571,38.924999"
       transform="translate(0,9.5641867)" /><path
       style="fill:#7d7d7d;fill-rule:evenodd;stroke:#7d7d7d;stroke-width:0.264999;stroke-linecap:square;stroke-miterlimit:3.9;stroke-dasharray:none;stroke-opacity:1;fill-opacity:1"
       d="m 27.032143,45.803571 c 0,0 39.921428,-6.878572 39.921428,-6.878572"
       id="path2-6-5"
       inkscape:path-effect="#path-effect2-5-3"
       inkscape:original-d="M 27.032143,45.803571 66.953571,38.924999"
       transform="translate(0,4.8288067)" /><path
       style="fill:#7d7d7d;fill-rule:evenodd;stroke:#7d7d7d;stroke-width:0.264999;stroke-linecap:square;stroke-miterlimit:3.9;stroke-dasharray:none;stroke-opacity:1;fill-opacity:1"
       d="m 27.032143,45.803571 c 0,0 39.921428,-6.878572 39.921428,-6.878572"
       id="path2-6-5-9"
       inkscape:path-effect="#path-effect2-5-3-2"
       inkscape:original-d="M 27.032143,45.803571 66.953571,38.924999"
       transform="translate(0,14.449898)" /><path
       style="fill:#7d7d7d;fill-rule:evenodd;stroke:#7d7d7d;stroke-width:0.264999;stroke-linecap:square;stroke-miterlimit:3.9;stroke-dasharray:none;stroke-opacity:1;fill-opacity:1"
       d="m 27.032143,45.803571 c 0,0 39.921428,-6.878572 39.921428,-6.878572"
       id="path2-0"
       inkscape:path-effect="#path-effect2-4"
       inkscape:original-d="M 27.032143,45.803571 66.953571,38.924999"
       transform="translate(0,-4.6141871)" /><path
       style="fill:#7d7d7d;fill-rule:evenodd;stroke:#7d7d7d;stroke-width:0.264999;stroke-linecap:square;stroke-miterlimit:3.9;stroke-dasharray:none;stroke-opacity:1;fill-opacity:1"
       d="m 27.032143,45.803571 c 0,0 39.921428,-6.878572 39.921428,-6.878572"
       id="path2-0-6"
       inkscape:path-effect="#path-effect2-4-7"
       inkscape:original-d="M 27.032143,45.803571 66.953571,38.924999"
       transform="translate(0,-9.3391871)" /><path
       style="fill:#7d7d7d;fill-rule:evenodd;stroke:#7d7d7d;stroke-width:0.264999;stroke-linecap:square;stroke-miterlimit:3.9;stroke-dasharray:none;stroke-opacity:1;fill-opacity:1"
       d="m 27.032143,45.803571 c 0,0 39.921428,-6.878572 39.921428,-6.878572"
       id="path2-0-6-3"
       inkscape:path-effect="#path-effect2-4-7-0"
       inkscape:original-d="M 27.032143,45.803571 66.953571,38.924999"
       transform="translate(0,-14.224904)" /><g
       inkscape:label=""
       transform="translate(72.00162,41.066551)"
       id="g2"><g
   fill="#000000"
   fill-opacity="1"
   id="g5"
   transform="matrix(0.352778,0,0,0.352778,-0.824353,-0.703439)">
    <g
   id="use4"
   transform="translate(1.993,8.1190004)">
      <path
   d="M 3.421875,-5.421875 C 3.5,-5.765625 3.53125,-5.84375 4.25,-5.84375 c 0.171875,0 0.265625,0 0.265625,-0.171875 0,-0.09375 -0.09375,-0.109375 -0.140625,-0.109375 -0.1875,0 -0.390625,0.015625 -0.578125,0.015625 -0.203125,0 -0.546875,0.015625 -0.609375,0.015625 -0.203125,0 -0.40625,-0.015625 -0.609375,-0.015625 -0.1875,0 -0.40625,-0.015625 -0.59375,-0.015625 -0.046875,0 -0.171875,0 -0.171875,0.15625 0,0.125 0.09375,0.125 0.265625,0.125 0.203125,0 0.40625,0 0.578125,0.0625 0.015625,0.046875 0.015625,0.078125 0.015625,0.09375 0,0.03125 -0.015625,0.125 -0.015625,0.15625 L 1.4375,-0.6875 c -0.078125,0.3125 -0.09375,0.40625 -0.796875,0.40625 -0.1875,0 -0.296875,0 -0.296875,0.171875 C 0.34375,-0.078125 0.375,0 0.484375,0 c 0.171875,0 0.375,-0.015625 0.5625,-0.015625 0.203125,0 0.421875,-0.015625 0.625,-0.015625 0.203125,0 0.40625,0.015625 0.609375,0.015625 C 2.46875,-0.015625 2.6875,0 2.875,0 c 0.0625,0 0.171875,0 0.171875,-0.15625 0,-0.125 -0.09375,-0.125 -0.265625,-0.125 -0.34375,0 -0.609375,0 -0.609375,-0.15625 0,-0.0625 0,-0.078125 0.046875,-0.203125 z m 0,0"
   id="path8" />
    </g>
  </g>
  <g
   fill="#000000"
   fill-opacity="1"
   id="g6"
   transform="matrix(0.352778,0,0,0.352778,-0.824353,-0.703439)">
    <g
   id="use5"
   transform="translate(6.0209999,9.1149998)">
      <path
   d="m 2.84375,-1.78125 c 0,-0.5625 -0.5625,-0.890625 -1.234375,-0.890625 -0.296875,0 -1,0.03125 -1,0.53125 0,0.171875 0.109375,0.296875 0.296875,0.296875 0.171875,0 0.28125,-0.125 0.28125,-0.28125 0,-0.109375 -0.046875,-0.21875 -0.15625,-0.265625 0.203125,-0.09375 0.5,-0.09375 0.5625,-0.09375 0.421875,0 0.75,0.265625 0.75,0.71875 v 0.15625 c -0.265625,0 -0.75,0.015625 -1.1875,0.171875 -0.390625,0.140625 -0.765625,0.40625 -0.765625,0.8125 0,0.53125 0.625,0.6875 1.09375,0.6875 0.5,0 0.796875,-0.25 0.9375,-0.484375 0.03125,0.3125 0.234375,0.453125 0.4375,0.453125 0.03125,0 0.671875,0 0.671875,-0.5625 V -0.875 H 3.3125 v 0.328125 c 0,0.0625 0,0.328125 -0.234375,0.328125 -0.234375,0 -0.234375,-0.265625 -0.234375,-0.328125 z m -0.5,0.9375 c 0,0.609375 -0.609375,0.71875 -0.8125,0.71875 -0.3125,0 -0.625,-0.203125 -0.625,-0.5 0,-0.34375 0.328125,-0.78125 1.4375,-0.8125 z m 0,0"
   id="path9" />
    </g>
  </g>
  <g
   fill="#000000"
   fill-opacity="1"
   id="g7"
   transform="matrix(0.352778,0,0,0.352778,-1.3535197,-0.703439)">
    <g
   id="use6"
   transform="translate(12.732,8.1190004)">
      <path
   d="m 6.640625,-3.015625 c 0,-0.25 -0.078125,-0.3125 -0.125,-0.3125 -0.125,0 -0.125,0.203125 -0.140625,0.328125 -0.03125,0.671875 -0.53125,1.3125 -1.265625,1.3125 -0.515625,0 -0.9375,-0.296875 -1.46875,-0.78125 -0.53125,-0.5 -0.984375,-0.875 -1.59375,-0.875 -0.984375,0 -1.53125,1.015625 -1.53125,1.875 0,0.234375 0.0625,0.3125 0.125,0.3125 0.109375,0 0.140625,-0.171875 0.140625,-0.21875 0.046875,-1.125 0.828125,-1.421875 1.265625,-1.421875 0.515625,0 0.9375,0.296875 1.46875,0.78125 0.53125,0.5 0.984375,0.875 1.59375,0.875 0.984375,0 1.53125,-1.015625 1.53125,-1.875 z m 0,0"
   id="path10" />
    </g>
  </g>
  <g
   fill="#000000"
   fill-opacity="1"
   id="g8"
   transform="matrix(0.352778,0,0,0.352778,-1.8826864,-0.703439)">
    <g
   id="use7"
   transform="translate(22.459,8.1190004)">
      <path
   d="m 3.9375,-5.46875 c 0.046875,-0.1875 0.078125,-0.28125 0.21875,-0.3125 0.078125,-0.015625 0.359375,-0.015625 0.546875,-0.015625 1.03125,0 1.34375,0.0625 1.34375,0.765625 0,0.109375 0,0.25 -0.078125,0.78125 l -0.015625,0.078125 c 0,0.0625 0.03125,0.125 0.125,0.125 0.109375,0 0.125,-0.09375 0.140625,-0.21875 l 0.234375,-1.5625 c 0.015625,-0.03125 0.015625,-0.09375 0.015625,-0.125 0,-0.125 -0.078125,-0.125 -0.25,-0.125 H 1.109375 c -0.21875,0 -0.21875,0.015625 -0.28125,0.1875 l -0.5625,1.578125 c -0.03125,0.109375 -0.03125,0.140625 -0.03125,0.140625 0,0.046875 0.03125,0.125 0.109375,0.125 0.109375,0 0.125,-0.0625 0.171875,-0.21875 0.5,-1.40625 0.78125,-1.53125 2.078125,-1.53125 H 2.9375 c 0.25,0 0.25,0.03125 0.25,0.109375 0,0.046875 -0.015625,0.109375 -0.03125,0.1875 l -1.203125,4.796875 c -0.078125,0.3125 -0.109375,0.421875 -1.0625,0.421875 -0.28125,0 -0.359375,0 -0.359375,0.171875 C 0.53125,0 0.640625,0 0.6875,0 c 0.234375,0 0.484375,-0.015625 0.734375,-0.015625 0.25,0 0.5,-0.015625 0.75,-0.015625 0.40625,0 0.421875,0 0.75,0.015625 C 3.046875,-0.015625 3.625,0 3.703125,0 c 0.078125,0 0.1875,0 0.1875,-0.15625 0,-0.125 -0.078125,-0.125 -0.296875,-0.125 -0.234375,0 -0.34375,0 -0.578125,-0.015625 -0.203125,-0.03125 -0.3125,-0.03125 -0.3125,-0.1875 0,-0.046875 0.015625,-0.109375 0.03125,-0.171875 z m 0,0"
   id="path11" />
    </g>
  </g>
</g><g
       inkscape:label=""
       transform="translate(67.907523,37.474378)"
       id="g16"><g
   fill="#000000"
   fill-opacity="1"
   id="g10"
   transform="matrix(0.352778,0,0,0.352778,-0.747183,-0.635441)">
    <g
   id="g9"
   transform="translate(1.993,7.77)">
      <path
   d="m 5.578125,-3.3125 c 0,-0.265625 -0.09375,-0.65625 -0.40625,-0.65625 -0.234375,0 -0.46875,0.234375 -0.46875,0.453125 0,0.140625 0.046875,0.15625 0.125,0.234375 C 4.9375,-3.171875 5.15625,-2.9375 5.15625,-2.5 c 0,0.546875 -0.578125,1.9375 -1.484375,1.9375 -0.5,0 -0.796875,-0.359375 -0.875,-0.734375 0,-0.125 0.3125,-0.765625 0.3125,-1.09375 0,-0.125 -0.0625,-0.234375 -0.203125,-0.234375 -0.078125,0 -0.15625,0.046875 -0.203125,0.109375 -0.171875,0.203125 -0.25,0.9375 -0.25,1.15625 -0.296875,0.421875 -0.671875,0.78125 -1.21875,0.78125 -0.578125,0 -0.78125,-0.484375 -0.78125,-1 0,-0.6875 0.265625,-1.28125 0.84375,-2.03125 C 1.34375,-3.6875 1.34375,-3.71875 1.34375,-3.765625 c 0,-0.078125 -0.078125,-0.15625 -0.15625,-0.15625 -0.09375,0 -0.171875,0.078125 -0.203125,0.140625 -0.5,0.703125 -0.859375,1.6875 -0.859375,2.546875 0,0.703125 0.25,1.328125 1.03125,1.328125 0.5625,0 1.078125,-0.484375 1.34375,-0.890625 0.125,0.359375 0.328125,0.890625 1.046875,0.890625 0.703125,0 1.15625,-0.5625 1.5,-1.265625 C 5.203125,-1.53125 5.3125,-1.90625 5.40625,-2.28125 5.5,-2.671875 5.578125,-3.046875 5.578125,-3.3125 Z m 0,0"
   id="path6" />
    </g>
  </g>
  <g
   fill="#000000"
   fill-opacity="1"
   id="g13"
   transform="matrix(0.352778,0,0,0.352778,-0.747183,-0.635441)">
    <g
   id="g12"
   transform="translate(10.607,7.77)">
      <path
   d="m 6.34375,-2.96875 c 0.125,0 0.296875,0 0.296875,-0.1875 0,-0.203125 -0.1875,-0.203125 -0.328125,-0.203125 H 0.84375 c -0.140625,0 -0.328125,0 -0.328125,0.203125 0,0.1875 0.171875,0.1875 0.296875,0.1875 z M 6.3125,-1.140625 c 0.140625,0 0.328125,0 0.328125,-0.203125 0,-0.1875 -0.171875,-0.1875 -0.296875,-0.1875 H 0.8125 c -0.125,0 -0.296875,0 -0.296875,0.1875 0,0.203125 0.1875,0.203125 0.328125,0.203125 z m 0,0"
   id="path12" />
    </g>
  </g>
  <g
   fill="#000000"
   fill-opacity="1"
   id="g15"
   transform="matrix(0.352778,0,0,0.352778,-0.747183,-0.635441)">
    <g
   id="g14"
   transform="translate(20.33913,7.77)">
      <path
   d="M 4.25,-2.875 C 4.25,-3.46875 4.21875,-4.25 3.90625,-4.921875 3.5,-5.765625 2.828125,-5.96875 2.3125,-5.96875 c -0.546875,0 -1.234375,0.203125 -1.625,1.078125 -0.28125,0.609375 -0.328125,1.34375 -0.328125,2.015625 0,0.59375 0.015625,1.453125 0.40625,2.171875 0.421875,0.75 1.125,0.90625 1.53125,0.90625 0.578125,0 1.25,-0.25 1.625,-1.078125 C 4.1875,-1.484375 4.25,-2.15625 4.25,-2.875 Z m -1.9375,2.84375 c -0.28125,0 -0.921875,-0.125 -1.09375,-1.140625 C 1.125,-1.6875 1.125,-2.46875 1.125,-2.984375 c 0,-0.609375 0,-1.3125 0.109375,-1.8125 0.1875,-0.796875 0.75,-0.953125 1.0625,-0.953125 0.34375,0 0.90625,0.1875 1.078125,1.015625 0.09375,0.484375 0.09375,1.1875 0.09375,1.75 0,0.5625 0,1.3125 -0.09375,1.84375 -0.1875,1.03125 -0.84375,1.109375 -1.0625,1.109375 z m 0,0"
   id="path13" />
    </g>
  </g>
</g><g
       inkscape:label=""
       transform="translate(67.95162,46.939136)"
       id="g23"><g
   fill="#000000"
   fill-opacity="1"
   id="g18"
   transform="matrix(0.352778,0,0,0.352778,-0.747183,-0.635441)">
    <g
   id="g17"
   transform="translate(1.993,7.77)">
      <path
   d="m 5.578125,-3.3125 c 0,-0.265625 -0.09375,-0.65625 -0.40625,-0.65625 -0.234375,0 -0.46875,0.234375 -0.46875,0.453125 0,0.140625 0.046875,0.15625 0.125,0.234375 C 4.9375,-3.171875 5.15625,-2.9375 5.15625,-2.5 c 0,0.546875 -0.578125,1.9375 -1.484375,1.9375 -0.5,0 -0.796875,-0.359375 -0.875,-0.734375 0,-0.125 0.3125,-0.765625 0.3125,-1.09375 0,-0.125 -0.0625,-0.234375 -0.203125,-0.234375 -0.078125,0 -0.15625,0.046875 -0.203125,0.109375 -0.171875,0.203125 -0.25,0.9375 -0.25,1.15625 -0.296875,0.421875 -0.671875,0.78125 -1.21875,0.78125 -0.578125,0 -0.78125,-0.484375 -0.78125,-1 0,-0.6875 0.265625,-1.28125 0.84375,-2.03125 C 1.34375,-3.6875 1.34375,-3.71875 1.34375,-3.765625 c 0,-0.078125 -0.078125,-0.15625 -0.15625,-0.15625 -0.09375,0 -0.171875,0.078125 -0.203125,0.140625 -0.5,0.703125 -0.859375,1.6875 -0.859375,2.546875 0,0.703125 0.25,1.328125 1.03125,1.328125 0.5625,0 1.078125,-0.484375 1.34375,-0.890625 0.125,0.359375 0.328125,0.890625 1.046875,0.890625 0.703125,0 1.15625,-0.5625 1.5,-1.265625 C 5.203125,-1.53125 5.3125,-1.90625 5.40625,-2.28125 5.5,-2.671875 5.578125,-3.046875 5.578125,-3.3125 Z m 0,0"
   id="path16" />
    </g>
  </g>
  <g
   fill="#000000"
   fill-opacity="1"
   id="g20"
   transform="matrix(0.352778,0,0,0.352778,-0.747183,-0.635441)">
    <g
   id="g19"
   transform="translate(10.604331,7.77)">
      <path
   d="M 6.203125,-2.03125 C 6.3125,-2.078125 6.390625,-2.125 6.390625,-2.25 c 0,-0.125 -0.109375,-0.171875 -0.1875,-0.203125 l -5.0625,-2.4375 c -0.125,-0.0625 -0.15625,-0.0625 -0.1875,-0.0625 -0.109375,0 -0.1875,0.09375 -0.1875,0.1875 0,0.109375 0.0625,0.15625 0.1875,0.21875 L 5.75,-2.25 0.953125,0.046875 c -0.125,0.0625 -0.1875,0.109375 -0.1875,0.21875 0,0.0625 0.0625,0.1875 0.203125,0.1875 0.015625,0 0.046875,0 0.15625,-0.046875 z m 0,0"
   id="path18" />
    </g>
  </g>
  <g
   fill="#000000"
   fill-opacity="1"
   id="g22"
   transform="matrix(0.352778,0,0,0.352778,-0.747183,-0.635441)">
    <g
   id="g21"
   transform="translate(20.334999,7.77)">
      <path
   d="M 4.25,-2.875 C 4.25,-3.46875 4.21875,-4.25 3.90625,-4.921875 3.5,-5.765625 2.828125,-5.96875 2.3125,-5.96875 c -0.546875,0 -1.234375,0.203125 -1.625,1.078125 -0.28125,0.609375 -0.328125,1.34375 -0.328125,2.015625 0,0.59375 0.015625,1.453125 0.40625,2.171875 0.421875,0.75 1.125,0.90625 1.53125,0.90625 0.578125,0 1.25,-0.25 1.625,-1.078125 C 4.1875,-1.484375 4.25,-2.15625 4.25,-2.875 Z m -1.9375,2.84375 c -0.28125,0 -0.921875,-0.125 -1.09375,-1.140625 C 1.125,-1.6875 1.125,-2.46875 1.125,-2.984375 c 0,-0.609375 0,-1.3125 0.109375,-1.8125 0.1875,-0.796875 0.75,-0.953125 1.0625,-0.953125 0.34375,0 0.90625,0.1875 1.078125,1.015625 0.09375,0.484375 0.09375,1.1875 0.09375,1.75 0,0.5625 0,1.3125 -0.09375,1.84375 -0.1875,1.03125 -0.84375,1.109375 -1.0625,1.109375 z m 0,0"
   id="path20" />
    </g>
  </g>
</g><g
       inkscape:label=""
       transform="translate(67.95162,28.01157)"
       id="g30"><g
   fill="#000000"
   fill-opacity="1"
   id="g25"
   transform="matrix(0.352778,0,0,0.352778,-0.747183,-0.635441)">
    <g
   id="g24"
   transform="translate(1.993,7.77)">
      <path
   d="m 5.578125,-3.3125 c 0,-0.265625 -0.09375,-0.65625 -0.40625,-0.65625 -0.234375,0 -0.46875,0.234375 -0.46875,0.453125 0,0.140625 0.046875,0.15625 0.125,0.234375 C 4.9375,-3.171875 5.15625,-2.9375 5.15625,-2.5 c 0,0.546875 -0.578125,1.9375 -1.484375,1.9375 -0.5,0 -0.796875,-0.359375 -0.875,-0.734375 0,-0.125 0.3125,-0.765625 0.3125,-1.09375 0,-0.125 -0.0625,-0.234375 -0.203125,-0.234375 -0.078125,0 -0.15625,0.046875 -0.203125,0.109375 -0.171875,0.203125 -0.25,0.9375 -0.25,1.15625 -0.296875,0.421875 -0.671875,0.78125 -1.21875,0.78125 -0.578125,0 -0.78125,-0.484375 -0.78125,-1 0,-0.6875 0.265625,-1.28125 0.84375,-2.03125 C 1.34375,-3.6875 1.34375,-3.71875 1.34375,-3.765625 c 0,-0.078125 -0.078125,-0.15625 -0.15625,-0.15625 -0.09375,0 -0.171875,0.078125 -0.203125,0.140625 -0.5,0.703125 -0.859375,1.6875 -0.859375,2.546875 0,0.703125 0.25,1.328125 1.03125,1.328125 0.5625,0 1.078125,-0.484375 1.34375,-0.890625 0.125,0.359375 0.328125,0.890625 1.046875,0.890625 0.703125,0 1.15625,-0.5625 1.5,-1.265625 C 5.203125,-1.53125 5.3125,-1.90625 5.40625,-2.28125 5.5,-2.671875 5.578125,-3.046875 5.578125,-3.3125 Z m 0,0"
   id="path23" />
    </g>
  </g>
  <g
   fill="#000000"
   fill-opacity="1"
   id="g27"
   transform="matrix(0.352778,0,0,0.352778,-0.747183,-0.635441)">
    <g
   id="g26"
   transform="translate(10.604331,7.77)">
      <path
   d="m 6.203125,-4.546875 c 0.078125,-0.03125 0.1875,-0.09375 0.1875,-0.203125 0,-0.109375 -0.078125,-0.203125 -0.203125,-0.203125 -0.015625,0 -0.046875,0 -0.15625,0.0625 l -5.078125,2.4375 C 0.875,-2.421875 0.765625,-2.375 0.765625,-2.25 c 0,0.125 0.09375,0.171875 0.1875,0.21875 l 5.0625,2.421875 c 0.125,0.0625 0.15625,0.0625 0.171875,0.0625 0.140625,0 0.203125,-0.125 0.203125,-0.1875 0,-0.109375 -0.0625,-0.15625 -0.171875,-0.1875 L 1.40625,-2.25 Z m 0,0"
   id="path25" />
    </g>
  </g>
  <g
   fill="#000000"
   fill-opacity="1"
   id="g29"
   transform="matrix(0.352778,0,0,0.352778,-0.747183,-0.635441)">
    <g
   id="g28"
   transform="translate(20.334999,7.77)">
      <path
   d="M 4.25,-2.875 C 4.25,-3.46875 4.21875,-4.25 3.90625,-4.921875 3.5,-5.765625 2.828125,-5.96875 2.3125,-5.96875 c -0.546875,0 -1.234375,0.203125 -1.625,1.078125 -0.28125,0.609375 -0.328125,1.34375 -0.328125,2.015625 0,0.59375 0.015625,1.453125 0.40625,2.171875 0.421875,0.75 1.125,0.90625 1.53125,0.90625 0.578125,0 1.25,-0.25 1.625,-1.078125 C 4.1875,-1.484375 4.25,-2.15625 4.25,-2.875 Z m -1.9375,2.84375 c -0.28125,0 -0.921875,-0.125 -1.09375,-1.140625 C 1.125,-1.6875 1.125,-2.46875 1.125,-2.984375 c 0,-0.609375 0,-1.3125 0.109375,-1.8125 0.1875,-0.796875 0.75,-0.953125 1.0625,-0.953125 0.34375,0 0.90625,0.1875 1.078125,1.015625 0.09375,0.484375 0.09375,1.1875 0.09375,1.75 0,0.5625 0,1.3125 -0.09375,1.84375 -0.1875,1.03125 -0.84375,1.109375 -1.0625,1.109375 z m 0,0"
   id="path27" />
    </g>
  </g>
</g><g
       inkscape:label=""
       transform="translate(57.659228,36.617457)"
       id="g35"><g
   fill="#000000"
   fill-opacity="1"
   id="g32"
   transform="matrix(0.352778,0,0,0.352778,-0.846402,-0.703439)">
    <g
   id="g31"
   transform="translate(1.993,8.1190004)">
      <path
   d="M 3.421875,-5.5 C 3.46875,-5.71875 3.5,-5.8125 3.65625,-5.84375 c 0.078125,0 0.375,0 0.5625,0 0.71875,0 1.703125,0 1.703125,0.90625 0,0.328125 -0.140625,1 -0.640625,1.390625 -0.21875,0.140625 -0.671875,0.375 -1.390625,0.375 h -1.0625 z M 4.8125,-3.046875 c 1.21875,-0.3125 1.96875,-0.984375 1.96875,-1.71875 0,-0.78125 -0.859375,-1.359375 -2.046875,-1.359375 h -2.59375 c -0.171875,0 -0.28125,0 -0.28125,0.15625 0,0.125 0.09375,0.125 0.28125,0.125 0.03125,0 0.1875,0 0.328125,0.015625 0.15625,0.015625 0.21875,0.03125 0.21875,0.140625 0,0.03125 0,0.078125 -0.03125,0.171875 L 1.4375,-0.6875 c -0.078125,0.328125 -0.09375,0.40625 -0.765625,0.40625 -0.171875,0 -0.265625,0 -0.265625,0.171875 C 0.40625,-0.015625 0.46875,0 0.53125,0 0.6875,0 0.953125,-0.015625 1.109375,-0.015625 1.296875,-0.03125 1.3125,-0.03125 1.65625,-0.03125 c 0.296875,0 0.3125,0 0.578125,0.015625 C 2.40625,-0.015625 2.640625,0 2.8125,0 2.875,0 2.984375,0 2.984375,-0.15625 c 0,-0.125 -0.09375,-0.125 -0.28125,-0.125 -0.03125,0 -0.1875,0 -0.328125,-0.015625 -0.203125,-0.03125 -0.21875,-0.0625 -0.21875,-0.140625 0,-0.03125 0,-0.046875 0.046875,-0.203125 l 0.578125,-2.3125 h 1.109375 c 0.796875,0 1,0.46875 1,0.8125 0,0.0625 0,0.125 -0.046875,0.3125 C 4.625,-1 4.625,-0.921875 4.625,-0.78125 c 0,0.8125 0.765625,0.984375 1.21875,0.984375 0.78125,0 1.109375,-0.90625 1.109375,-1.0625 0,-0.0625 -0.0625,-0.09375 -0.125,-0.09375 -0.09375,0 -0.09375,0.03125 -0.140625,0.140625 -0.15625,0.46875 -0.484375,0.78125 -0.8125,0.78125 -0.34375,0 -0.359375,-0.265625 -0.359375,-0.53125 0,-0.21875 0.0625,-0.734375 0.078125,-0.796875 C 5.609375,-1.5 5.65625,-1.859375 5.65625,-2 c 0,-0.515625 -0.328125,-0.859375 -0.84375,-1.046875 z m 0,0"
   id="path30" />
    </g>
  </g>
  <g
   fill="#000000"
   fill-opacity="1"
   id="g34"
   transform="matrix(0.352778,0,0,0.352778,-0.846402,-0.703439)">
    <g
   id="g33"
   transform="translate(8.9650002,9.1149998)">
      <path
   d="m 2.84375,-1.78125 c 0,-0.5625 -0.5625,-0.890625 -1.234375,-0.890625 -0.296875,0 -1,0.03125 -1,0.53125 0,0.171875 0.109375,0.296875 0.296875,0.296875 0.171875,0 0.28125,-0.125 0.28125,-0.28125 0,-0.109375 -0.046875,-0.21875 -0.15625,-0.265625 0.203125,-0.09375 0.5,-0.09375 0.5625,-0.09375 0.421875,0 0.75,0.265625 0.75,0.71875 v 0.15625 c -0.265625,0 -0.75,0.015625 -1.1875,0.171875 -0.390625,0.140625 -0.765625,0.40625 -0.765625,0.8125 0,0.53125 0.625,0.6875 1.09375,0.6875 0.5,0 0.796875,-0.25 0.9375,-0.484375 0.03125,0.3125 0.234375,0.453125 0.4375,0.453125 0.03125,0 0.671875,0 0.671875,-0.5625 V -0.875 H 3.3125 v 0.328125 c 0,0.0625 0,0.328125 -0.234375,0.328125 -0.234375,0 -0.234375,-0.265625 -0.234375,-0.328125 z m -0.5,0.9375 c 0,0.609375 -0.609375,0.71875 -0.8125,0.71875 -0.3125,0 -0.625,-0.203125 -0.625,-0.5 0,-0.34375 0.328125,-0.78125 1.4375,-0.8125 z m 0,0"
   id="path32" />
    </g>
  </g>
</g></g></svg>
