<?xml version="1.0" encoding="UTF-8" standalone="no"?>
<!-- Created with Inkscape (http://www.inkscape.org/) -->

<svg
   width="53.022938mm"
   height="22.331285mm"
   viewBox="0 0 53.022937 22.331285"
   version="1.1"
   id="svg1"
   inkscape:version="1.3.2 (091e20e, 2023-11-25, custom)"
   sodipodi:docname="Separately_excited_DC_machine.svg"
   xmlns:inkscape="http://www.inkscape.org/namespaces/inkscape"
   xmlns:sodipodi="http://sodipodi.sourceforge.net/DTD/sodipodi-0.dtd"
   xmlns="http://www.w3.org/2000/svg"
   xmlns:svg="http://www.w3.org/2000/svg">
  <sodipodi:namedview
     id="namedview1"
     pagecolor="#505050"
     bordercolor="#eeeeee"
     borderopacity="1"
     inkscape:showpageshadow="0"
     inkscape:pageopacity="0"
     inkscape:pagecheckerboard="0"
     inkscape:deskcolor="#505050"
     inkscape:document-units="mm"
     inkscape:zoom="4.1157407"
     inkscape:cx="86.011249"
     inkscape:cy="103.86952"
     inkscape:window-width="2560"
     inkscape:window-height="1351"
     inkscape:window-x="2551"
     inkscape:window-y="-9"
     inkscape:window-maximized="1"
     inkscape:current-layer="layer1" />
  <defs
     id="defs1">
    <inkscape:path-effect
       effect="bspline"
       id="path-effect10"
       is_visible="true"
       lpeversion="1.3"
       weight="33.333333"
       steps="2"
       helper_size="0"
       apply_no_weight="true"
       apply_with_weight="true"
       only_selected="false"
       uniform="false" />
    <marker
       inkscape:collect="always"
       inkscape:isstock="true"
       style="overflow:visible"
       id="TriangleInM"
       refX="0"
       refY="0"
       orient="auto"
       inkscape:stockid="TriangleInM">
      <path
         transform="scale(-0.4)"
         style="fill:context-stroke;fill-rule:evenodd;stroke:context-stroke;stroke-width:1pt"
         d="M 5.77,0 -2.88,5 V -5 Z"
         id="path5871" />
    </marker>
    <marker
       inkscape:collect="always"
       inkscape:isstock="true"
       style="overflow:visible"
       id="TriangleInM-7"
       refX="0"
       refY="0"
       orient="auto"
       inkscape:stockid="TriangleInM">
      <path
         transform="scale(-0.4)"
         style="fill:context-stroke;fill-rule:evenodd;stroke:context-stroke;stroke-width:1pt"
         d="M 5.77,0 -2.88,5 V -5 Z"
         id="path5871-1" />
    </marker>
    <marker
       inkscape:collect="always"
       inkscape:isstock="true"
       style="overflow:visible"
       id="TriangleInM-0"
       refX="0"
       refY="0"
       orient="auto"
       inkscape:stockid="TriangleInM">
      <path
         transform="scale(-0.4)"
         style="fill:context-stroke;fill-rule:evenodd;stroke:context-stroke;stroke-width:1pt"
         d="M 5.77,0 -2.88,5 V -5 Z"
         id="path5871-4" />
    </marker>
    <marker
       inkscape:collect="always"
       inkscape:isstock="true"
       style="overflow:visible"
       id="TriangleInM-0-2"
       refX="0"
       refY="0"
       orient="auto"
       inkscape:stockid="TriangleInM">
      <path
         transform="scale(-0.4)"
         style="fill:context-stroke;fill-rule:evenodd;stroke:context-stroke;stroke-width:1pt"
         d="M 5.77,0 -2.88,5 V -5 Z"
         id="path5871-4-3" />
    </marker>
    <marker
       inkscape:isstock="true"
       style="overflow:visible"
       id="marker1815"
       refX="0"
       refY="0"
       orient="auto"
       inkscape:stockid="TriangleInM">
      <path
         transform="scale(-0.4)"
         style="fill:context-stroke;fill-rule:evenodd;stroke:context-stroke;stroke-width:1pt"
         d="M 5.77,0 -2.88,5 V -5 Z"
         id="path1813"
         inkscape:connector-curvature="0" />
    </marker>
  </defs>
  <g
     inkscape:label="Ebene 1"
     inkscape:groupmode="layer"
     id="layer1"
     transform="translate(-63.982058,-189.17708)">
    <path
       style="fill:none;stroke:#000000;stroke-width:0.264583px;stroke-linecap:round;stroke-linejoin:miter;stroke-opacity:1"
       d="m 101.89977,202.86656 v 4.70834"
       id="path1"
       inkscape:connector-curvature="0"
       sodipodi:nodetypes="cc" />
    <circle
       style="fill:none;fill-opacity:1;stroke:#000000;stroke-width:0.265;stroke-linecap:round;stroke-linejoin:round;stroke-miterlimit:4;stroke-dasharray:none;stroke-dashoffset:0;stroke-opacity:1;paint-order:normal"
       id="circle1"
       cx="101.89977"
       cy="200.22073"
       r="2.6458333" />
    <path
       style="fill:none;stroke:#000000;stroke-width:0.264582px;stroke-linecap:round;stroke-linejoin:miter;stroke-opacity:1"
       d="m 101.89977,192.8053 v 4.47149"
       id="path2"
       inkscape:connector-curvature="0"
       sodipodi:nodetypes="cc" />
    <ellipse
       ry="0.39901915"
       rx="0.40116644"
       cy="192.31769"
       cx="101.89977"
       id="path5953"
       style="fill:none;fill-opacity:1;stroke:#000000;stroke-width:0.256;stroke-linecap:round;stroke-linejoin:round;stroke-miterlimit:4;stroke-dasharray:none;stroke-dashoffset:0;stroke-opacity:1;paint-order:normal" />
    <path
       style="fill:none;stroke:#000000;stroke-width:0.264582px;stroke-linecap:round;stroke-linejoin:miter;stroke-opacity:1"
       d="m 94.841433,207.5749 1e-6,-6.95069"
       id="path2-8"
       inkscape:connector-curvature="0"
       sodipodi:nodetypes="cc" />
    <ellipse
       ry="0.39901915"
       rx="0.40116644"
       cy="-208.09953"
       cx="101.89977"
       id="path5953-6"
       style="fill:none;fill-opacity:1;stroke:#000000;stroke-width:0.256;stroke-linecap:round;stroke-linejoin:round;stroke-miterlimit:4;stroke-dasharray:none;stroke-dashoffset:0;stroke-opacity:1;paint-order:normal"
       transform="scale(1,-1)" />
    <path
       style="fill:none;stroke:#000000;stroke-width:0.264582px;stroke-linecap:round;stroke-linejoin:miter;stroke-opacity:1"
       d="m 84.211233,207.5749 1e-6,-6.95069"
       id="path2-8-2"
       inkscape:connector-curvature="0"
       sodipodi:nodetypes="cc" />
    <ellipse
       ry="0.39901915"
       rx="0.40116644"
       cy="-208.09953"
       cx="94.841431"
       id="path5953-6-1"
       style="fill:none;fill-opacity:1;stroke:#000000;stroke-width:0.256;stroke-linecap:round;stroke-linejoin:round;stroke-miterlimit:4;stroke-dasharray:none;stroke-dashoffset:0;stroke-opacity:1;paint-order:normal"
       transform="scale(1,-1)" />
    <ellipse
       ry="0.39901915"
       rx="0.40116644"
       cy="208.09953"
       cx="84.211235"
       id="path5953-3"
       style="fill:none;fill-opacity:1;stroke:#000000;stroke-width:0.256;stroke-linecap:round;stroke-linejoin:round;stroke-miterlimit:4;stroke-dasharray:none;stroke-dashoffset:0;stroke-opacity:1;paint-order:normal" />
    <g
       id="use41951"
       transform="rotate(-90,154.01408,123.3393)">
      <title
         id="title4">Inductor</title>
      <path
         sodipodi:arc-type="arc"
         style="opacity:1;fill:none;fill-opacity:1;stroke:#000000;stroke-width:0.265;stroke-linecap:round;stroke-linejoin:round;stroke-miterlimit:4;stroke-dasharray:none;stroke-dashoffset:0;stroke-opacity:1;paint-order:normal"
         id="path4"
         inkscape:transform-center-x="-0.85988921"
         inkscape:transform-center-y="-0.64492188"
         sodipodi:type="arc"
         sodipodi:cx="76.729156"
         sodipodi:cy="62.049992"
         sodipodi:rx="1.0583333"
         sodipodi:ry="1.0583333"
         sodipodi:start="4.712389"
         sodipodi:end="1.5707963"
         sodipodi:open="true"
         d="m 76.729156,60.991658 a 1.0583333,1.0583333 0 0 1 1.058334,1.058334 1.0583333,1.0583333 0 0 1 -1.058334,1.058333" />
      <path
         sodipodi:arc-type="arc"
         style="opacity:1;fill:none;fill-opacity:1;stroke:#000000;stroke-width:0.265;stroke-linecap:round;stroke-linejoin:round;stroke-miterlimit:4;stroke-dasharray:none;stroke-dashoffset:0;stroke-opacity:1;paint-order:normal"
         id="path5"
         inkscape:transform-center-x="-0.85988921"
         inkscape:transform-center-y="-0.64492188"
         sodipodi:type="arc"
         sodipodi:cx="76.729164"
         sodipodi:cy="59.933323"
         sodipodi:rx="1.0583333"
         sodipodi:ry="1.0583333"
         sodipodi:start="4.712389"
         sodipodi:end="1.5707963"
         sodipodi:open="true"
         d="m 76.729164,58.87499 a 1.0583333,1.0583333 0 0 1 1.058333,1.058333 1.0583333,1.0583333 0 0 1 -1.058333,1.058333" />
      <path
         sodipodi:arc-type="arc"
         style="opacity:1;fill:none;fill-opacity:1;stroke:#000000;stroke-width:0.265;stroke-linecap:round;stroke-linejoin:round;stroke-miterlimit:4;stroke-dasharray:none;stroke-dashoffset:0;stroke-opacity:1;paint-order:normal"
         id="path6"
         inkscape:transform-center-x="-0.85988921"
         inkscape:transform-center-y="-0.64492188"
         sodipodi:type="arc"
         sodipodi:cx="76.729164"
         sodipodi:cy="57.816658"
         sodipodi:rx="1.0583333"
         sodipodi:ry="1.0583333"
         sodipodi:start="4.712389"
         sodipodi:end="1.5707963"
         d="m 76.729164,56.758325 a 1.0583333,1.0583333 0 0 1 1.058333,1.058333 1.0583333,1.0583333 0 0 1 -1.058333,1.058333"
         sodipodi:open="true" />
      <path
         sodipodi:arc-type="arc"
         style="opacity:1;fill:none;fill-opacity:1;stroke:#000000;stroke-width:0.265;stroke-linecap:round;stroke-linejoin:round;stroke-miterlimit:4;stroke-dasharray:none;stroke-dashoffset:0;stroke-opacity:1;paint-order:normal"
         id="path7"
         inkscape:transform-center-x="-0.85988921"
         inkscape:transform-center-y="-0.64492188"
         sodipodi:type="arc"
         sodipodi:cx="76.729164"
         sodipodi:cy="55.699989"
         sodipodi:rx="1.0583333"
         sodipodi:ry="1.0583333"
         sodipodi:start="4.712389"
         sodipodi:end="1.5707963"
         sodipodi:open="true"
         d="m 76.729164,54.641656 a 1.0583333,1.0583333 0 0 1 1.058333,1.058333 1.0583333,1.0583333 0 0 1 -1.058333,1.058334" />
      <path
         style="fill:none;stroke:#000000;stroke-width:0.264583px;stroke-linecap:round;stroke-linejoin:miter;stroke-opacity:1"
         d="M 76.729166,64.166653 V 63.10832"
         id="path8"
         inkscape:connector-curvature="0" />
      <path
         style="fill:none;stroke:#000000;stroke-width:0.264583px;stroke-linecap:round;stroke-linejoin:miter;stroke-opacity:1"
         d="m 76.729166,53.58332 v 1.058333"
         id="path9"
         inkscape:connector-curvature="0" />
      <title
         id="title9">Inductor</title>
    </g>
    <path
       inkscape:connector-curvature="0"
       id="path5718-7-5"
       d="M 93.106727,208.09954 H 85.838244"
       style="fill:none;stroke:#000000;stroke-width:0.265;stroke-linecap:round;stroke-linejoin:round;stroke-miterlimit:4;stroke-dasharray:none;stroke-opacity:1;marker-start:url(#TriangleInM)" />
    <path
       inkscape:connector-curvature="0"
       id="path5718-7-5-72"
       d="m 98.536402,203.06334 v -6.53092"
       style="fill:none;stroke:#000000;stroke-width:0.264999;stroke-linecap:round;stroke-linejoin:round;stroke-miterlimit:4;stroke-dasharray:none;stroke-opacity:1;marker-start:url(#TriangleInM-7)" />
    <path
       inkscape:connector-curvature="0"
       id="path5718-7-5-7"
       d="m 84.211233,204.46877 v 0.7478"
       style="fill:none;stroke:#000000;stroke-width:0.265;stroke-linecap:round;stroke-linejoin:round;stroke-miterlimit:4;stroke-dasharray:none;stroke-opacity:1;marker-start:url(#TriangleInM-0)" />
    <path
       inkscape:connector-curvature="0"
       id="path5718-7-5-7-3"
       d="m 101.89977,195.04105 v -0.7478"
       style="fill:none;stroke:#000000;stroke-width:0.265;stroke-linecap:round;stroke-linejoin:round;stroke-miterlimit:4;stroke-dasharray:none;stroke-opacity:1;marker-start:url(#TriangleInM-0-2)" />
    <g
       inkscape:label=""
       transform="translate(85.317811,203.09763)"
       id="g17">
      <g
         fill="#000000"
         fill-opacity="1"
         id="g3"
         transform="matrix(0.352778,0,0,0.352778,-0.796793,-0.701014)">
        <g
           id="use2"
           transform="translate(1.993,7.9089999)">
          <path
             d="m 2.59375,-5.59375 c 0,-0.203125 -0.140625,-0.328125 -0.328125,-0.328125 -0.25,0 -0.484375,0.234375 -0.484375,0.46875 0,0.171875 0.125,0.328125 0.328125,0.328125 0.25,0 0.484375,-0.21875 0.484375,-0.46875 z m 0.125,4.3125 c 0,-0.046875 -0.015625,-0.109375 -0.109375,-0.109375 -0.09375,0 -0.109375,0.046875 -0.140625,0.15625 C 2.25,-0.5 1.890625,-0.125 1.546875,-0.125 1.40625,-0.125 1.328125,-0.203125 1.328125,-0.421875 1.328125,-0.640625 1.40625,-0.828125 1.46875,-1 1.625,-1.4375 1.625,-1.453125 1.75,-1.734375 1.890625,-2.109375 2.09375,-2.625 2.171875,-2.875 2.25,-3.046875 2.25,-3.125 2.25,-3.203125 2.25,-3.71875 1.84375,-3.96875 1.484375,-3.96875 c -0.875,0 -1.21875,1.28125 -1.21875,1.390625 0,0.078125 0.0625,0.109375 0.125,0.109375 0.09375,0 0.109375,-0.0625 0.140625,-0.171875 0.1875,-0.640625 0.53125,-1.09375 0.921875,-1.09375 0.09375,0 0.21875,0.015625 0.21875,0.28125 0,0.21875 -0.09375,0.453125 -0.171875,0.65625 L 0.859375,-1.125 C 0.796875,-0.953125 0.75,-0.8125 0.75,-0.65625 c 0,0.421875 0.3125,0.75 0.765625,0.75 0.875,0 1.203125,-1.28125 1.203125,-1.375 z m 0,0"
             id="path16" />
        </g>
      </g>
      <g
         fill="#000000"
         fill-opacity="1"
         id="g4"
         transform="matrix(0.352778,0,0,0.352778,-0.796793,-0.701014)">
        <g
           id="use3"
           transform="translate(5.1459999,8.9709997)">
          <path
             d="M 1.328125,-2.34375 H 2.125 V -2.578125 H 1.3125 v -0.65625 c 0,-0.546875 0.34375,-0.78125 0.59375,-0.78125 C 1.984375,-4.015625 2.046875,-4 2.078125,-4 2.03125,-3.96875 1.96875,-3.921875 1.96875,-3.765625 c 0,0.15625 0.109375,0.28125 0.28125,0.28125 0.171875,0 0.28125,-0.125 0.28125,-0.28125 0,-0.265625 -0.265625,-0.453125 -0.625,-0.453125 -0.484375,0 -1.046875,0.34375 -1.046875,0.984375 v 0.65625 H 0.3125 v 0.234375 h 0.546875 v 1.859375 c 0,0.25 -0.0625,0.25 -0.46875,0.25 V 0 C 0.53125,-0.015625 0.984375,-0.03125 1.109375,-0.03125 1.421875,-0.03125 1.84375,0 1.921875,0 v -0.234375 h -0.125 c -0.453125,0 -0.46875,-0.0625 -0.46875,-0.265625 z m 0,0"
             id="path17" />
        </g>
      </g>
    </g>
    <g
       inkscape:label=""
       transform="translate(88.347249,205.86425)"
       id="g22">
      <g
         fill="#000000"
         fill-opacity="1"
         id="g19"
         transform="matrix(0.352778,0,0,0.352778,-0.796793,-0.664722)">
        <g
           id="g18"
           transform="translate(1.993,5.8530002)">
          <path
             d="m 4.375,-2.921875 c 0.046875,-0.234375 0.15625,-0.640625 0.15625,-0.6875 0,-0.109375 -0.078125,-0.25 -0.28125,-0.25 -0.125,0 -0.265625,0.078125 -0.328125,0.1875 C 3.890625,-3.59375 3.28125,-1.15625 3.21875,-0.859375 3.03125,-0.53125 2.671875,-0.125 2.171875,-0.125 1.625,-0.125 1.625,-0.6875 1.625,-0.859375 c 0,-0.40625 0.109375,-0.84375 0.5,-1.84375 0.078125,-0.21875 0.125,-0.34375 0.125,-0.5 0,-0.453125 -0.328125,-0.765625 -0.765625,-0.765625 -0.859375,0 -1.21875,1.28125 -1.21875,1.390625 0,0.078125 0.0625,0.109375 0.125,0.109375 0.09375,0 0.109375,-0.0625 0.140625,-0.171875 0.1875,-0.65625 0.53125,-1.09375 0.921875,-1.09375 0.1875,0 0.21875,0.125 0.21875,0.296875 0,0.140625 -0.046875,0.3125 -0.125,0.515625 -0.421875,1.125 -0.53125,1.5 -0.53125,1.921875 0,1 0.8125,1.09375 1.140625,1.09375 0.5,0 0.875,-0.3125 1.09375,-0.59375 0.171875,0.59375 0.765625,0.59375 0.8125,0.59375 0.265625,0 0.484375,-0.125 0.671875,-0.46875 0.15625,-0.296875 0.296875,-0.875 0.296875,-0.90625 0,-0.046875 -0.03125,-0.109375 -0.109375,-0.109375 -0.109375,0 -0.125,0.046875 -0.15625,0.21875 C 4.578125,-0.46875 4.390625,-0.125 4.09375,-0.125 3.875,-0.125 3.8125,-0.3125 3.8125,-0.53125 c 0,-0.171875 0.046875,-0.359375 0.125,-0.671875 L 4.15625,-2.125 Z m 0,0"
             id="path18" />
        </g>
      </g>
      <g
         fill="#000000"
         fill-opacity="1"
         id="g21"
         transform="matrix(0.352778,0,0,0.352778,-0.796793,-0.664722)">
        <g
           id="g20"
           transform="translate(7.296,6.915)">
          <path
             d="M 1.328125,-2.34375 H 2.125 V -2.578125 H 1.3125 v -0.65625 c 0,-0.546875 0.34375,-0.78125 0.59375,-0.78125 C 1.984375,-4.015625 2.046875,-4 2.078125,-4 2.03125,-3.96875 1.96875,-3.921875 1.96875,-3.765625 c 0,0.15625 0.109375,0.28125 0.28125,0.28125 0.171875,0 0.28125,-0.125 0.28125,-0.28125 0,-0.265625 -0.265625,-0.453125 -0.625,-0.453125 -0.484375,0 -1.046875,0.34375 -1.046875,0.984375 v 0.65625 H 0.3125 v 0.234375 h 0.546875 v 1.859375 c 0,0.25 -0.0625,0.25 -0.46875,0.25 V 0 C 0.53125,-0.015625 0.984375,-0.03125 1.109375,-0.03125 1.421875,-0.03125 1.84375,0 1.921875,0 v -0.234375 h -0.125 c -0.453125,0 -0.46875,-0.0625 -0.46875,-0.265625 z m 0,0"
             id="path19" />
        </g>
      </g>
    </g>
    <g
       inkscape:label=""
       transform="translate(94.861111,196.26101)"
       id="g27">
      <g
         fill="#000000"
         fill-opacity="1"
         id="g24"
         transform="matrix(0.352778,0,0,0.352778,-0.796793,-0.664722)">
        <g
           id="g23"
           transform="translate(1.993,5.8530002)">
          <path
             d="m 4.375,-2.921875 c 0.046875,-0.234375 0.15625,-0.640625 0.15625,-0.6875 0,-0.109375 -0.078125,-0.25 -0.28125,-0.25 -0.125,0 -0.265625,0.078125 -0.328125,0.1875 C 3.890625,-3.59375 3.28125,-1.15625 3.21875,-0.859375 3.03125,-0.53125 2.671875,-0.125 2.171875,-0.125 1.625,-0.125 1.625,-0.6875 1.625,-0.859375 c 0,-0.40625 0.109375,-0.84375 0.5,-1.84375 0.078125,-0.21875 0.125,-0.34375 0.125,-0.5 0,-0.453125 -0.328125,-0.765625 -0.765625,-0.765625 -0.859375,0 -1.21875,1.28125 -1.21875,1.390625 0,0.078125 0.0625,0.109375 0.125,0.109375 0.09375,0 0.109375,-0.0625 0.140625,-0.171875 0.1875,-0.65625 0.53125,-1.09375 0.921875,-1.09375 0.1875,0 0.21875,0.125 0.21875,0.296875 0,0.140625 -0.046875,0.3125 -0.125,0.515625 -0.421875,1.125 -0.53125,1.5 -0.53125,1.921875 0,1 0.8125,1.09375 1.140625,1.09375 0.5,0 0.875,-0.3125 1.09375,-0.59375 0.171875,0.59375 0.765625,0.59375 0.8125,0.59375 0.265625,0 0.484375,-0.125 0.671875,-0.46875 0.15625,-0.296875 0.296875,-0.875 0.296875,-0.90625 0,-0.046875 -0.03125,-0.109375 -0.109375,-0.109375 -0.109375,0 -0.125,0.046875 -0.15625,0.21875 C 4.578125,-0.46875 4.390625,-0.125 4.09375,-0.125 3.875,-0.125 3.8125,-0.3125 3.8125,-0.53125 c 0,-0.171875 0.046875,-0.359375 0.125,-0.671875 L 4.15625,-2.125 Z m 0,0"
             id="path22" />
        </g>
      </g>
      <g
         fill="#000000"
         fill-opacity="1"
         id="g26"
         transform="matrix(0.352778,0,0,0.352778,-0.796793,-0.664722)">
        <g
           id="g25"
           transform="translate(7.296,6.849)">
          <path
             d="m 2.84375,-1.78125 c 0,-0.5625 -0.5625,-0.890625 -1.234375,-0.890625 -0.296875,0 -1,0.03125 -1,0.53125 0,0.171875 0.109375,0.296875 0.296875,0.296875 0.171875,0 0.28125,-0.125 0.28125,-0.28125 0,-0.109375 -0.046875,-0.21875 -0.15625,-0.265625 0.203125,-0.09375 0.5,-0.09375 0.5625,-0.09375 0.421875,0 0.75,0.265625 0.75,0.71875 v 0.15625 c -0.265625,0 -0.75,0.015625 -1.1875,0.171875 -0.390625,0.140625 -0.765625,0.40625 -0.765625,0.8125 0,0.53125 0.625,0.6875 1.09375,0.6875 0.5,0 0.796875,-0.25 0.9375,-0.484375 0.03125,0.3125 0.234375,0.453125 0.4375,0.453125 0.03125,0 0.671875,0 0.671875,-0.5625 V -0.875 H 3.3125 v 0.328125 c 0,0.0625 0,0.328125 -0.234375,0.328125 -0.234375,0 -0.234375,-0.265625 -0.234375,-0.328125 z m -0.5,0.9375 c 0,0.609375 -0.609375,0.71875 -0.8125,0.71875 -0.3125,0 -0.625,-0.203125 -0.625,-0.5 0,-0.34375 0.328125,-0.78125 1.4375,-0.8125 z m 0,0"
             id="path24" />
        </g>
      </g>
    </g>
    <g
       inkscape:label=""
       transform="translate(102.86896,193.80978)"
       id="g32">
      <g
         fill="#000000"
         fill-opacity="1"
         id="g29"
         transform="matrix(0.352778,0,0,0.352778,-0.796793,-0.701014)">
        <g
           id="g28"
           transform="translate(1.993,7.9089999)">
          <path
             d="m 2.59375,-5.59375 c 0,-0.203125 -0.140625,-0.328125 -0.328125,-0.328125 -0.25,0 -0.484375,0.234375 -0.484375,0.46875 0,0.171875 0.125,0.328125 0.328125,0.328125 0.25,0 0.484375,-0.21875 0.484375,-0.46875 z m 0.125,4.3125 c 0,-0.046875 -0.015625,-0.109375 -0.109375,-0.109375 -0.09375,0 -0.109375,0.046875 -0.140625,0.15625 C 2.25,-0.5 1.890625,-0.125 1.546875,-0.125 1.40625,-0.125 1.328125,-0.203125 1.328125,-0.421875 1.328125,-0.640625 1.40625,-0.828125 1.46875,-1 1.625,-1.4375 1.625,-1.453125 1.75,-1.734375 1.890625,-2.109375 2.09375,-2.625 2.171875,-2.875 2.25,-3.046875 2.25,-3.125 2.25,-3.203125 2.25,-3.71875 1.84375,-3.96875 1.484375,-3.96875 c -0.875,0 -1.21875,1.28125 -1.21875,1.390625 0,0.078125 0.0625,0.109375 0.125,0.109375 0.09375,0 0.109375,-0.0625 0.140625,-0.171875 0.1875,-0.640625 0.53125,-1.09375 0.921875,-1.09375 0.09375,0 0.21875,0.015625 0.21875,0.28125 0,0.21875 -0.09375,0.453125 -0.171875,0.65625 L 0.859375,-1.125 C 0.796875,-0.953125 0.75,-0.8125 0.75,-0.65625 c 0,0.421875 0.3125,0.75 0.765625,0.75 0.875,0 1.203125,-1.28125 1.203125,-1.375 z m 0,0"
             id="path27" />
        </g>
      </g>
      <g
         fill="#000000"
         fill-opacity="1"
         id="g31"
         transform="matrix(0.352778,0,0,0.352778,-0.796793,-0.701014)">
        <g
           id="g30"
           transform="translate(5.1459999,8.9049997)">
          <path
             d="m 2.84375,-1.78125 c 0,-0.5625 -0.5625,-0.890625 -1.234375,-0.890625 -0.296875,0 -1,0.03125 -1,0.53125 0,0.171875 0.109375,0.296875 0.296875,0.296875 0.171875,0 0.28125,-0.125 0.28125,-0.28125 0,-0.109375 -0.046875,-0.21875 -0.15625,-0.265625 0.203125,-0.09375 0.5,-0.09375 0.5625,-0.09375 0.421875,0 0.75,0.265625 0.75,0.71875 v 0.15625 c -0.265625,0 -0.75,0.015625 -1.1875,0.171875 -0.390625,0.140625 -0.765625,0.40625 -0.765625,0.8125 0,0.53125 0.625,0.6875 1.09375,0.6875 0.5,0 0.796875,-0.25 0.9375,-0.484375 0.03125,0.3125 0.234375,0.453125 0.4375,0.453125 0.03125,0 0.671875,0 0.671875,-0.5625 V -0.875 H 3.3125 v 0.328125 c 0,0.0625 0,0.328125 -0.234375,0.328125 -0.234375,0 -0.234375,-0.265625 -0.234375,-0.328125 z m -0.5,0.9375 c 0,0.609375 -0.609375,0.71875 -0.8125,0.71875 -0.3125,0 -0.625,-0.203125 -0.625,-0.5 0,-0.34375 0.328125,-0.78125 1.4375,-0.8125 z m 0,0"
             id="path29" />
        </g>
      </g>
    </g>
    <g
       inkscape:label=""
       transform="translate(111.18669,198.86595)"
       id="g35">
      <g
         fill="#000000"
         fill-opacity="1"
         id="g34"
         transform="matrix(0.352778,0,0,0.352778,-0.747183,-0.720328)">
        <g
           id="g33"
           transform="translate(1.993,8.1199999)">
          <path
             d="m 5.578125,-3.3125 c 0,-0.265625 -0.09375,-0.65625 -0.40625,-0.65625 -0.234375,0 -0.46875,0.234375 -0.46875,0.453125 0,0.140625 0.046875,0.15625 0.125,0.234375 C 4.9375,-3.171875 5.15625,-2.9375 5.15625,-2.5 c 0,0.546875 -0.578125,1.9375 -1.484375,1.9375 -0.5,0 -0.796875,-0.359375 -0.875,-0.734375 0,-0.125 0.3125,-0.765625 0.3125,-1.09375 0,-0.125 -0.0625,-0.234375 -0.203125,-0.234375 -0.078125,0 -0.15625,0.046875 -0.203125,0.109375 -0.171875,0.203125 -0.25,0.9375 -0.25,1.15625 -0.296875,0.421875 -0.671875,0.78125 -1.21875,0.78125 -0.578125,0 -0.78125,-0.484375 -0.78125,-1 0,-0.6875 0.265625,-1.28125 0.84375,-2.03125 C 1.34375,-3.6875 1.34375,-3.71875 1.34375,-3.765625 c 0,-0.078125 -0.078125,-0.15625 -0.15625,-0.15625 -0.09375,0 -0.171875,0.078125 -0.203125,0.140625 -0.5,0.703125 -0.859375,1.6875 -0.859375,2.546875 0,0.703125 0.25,1.328125 1.03125,1.328125 0.5625,0 1.078125,-0.484375 1.34375,-0.890625 0.125,0.359375 0.328125,0.890625 1.046875,0.890625 0.703125,0 1.15625,-0.5625 1.5,-1.265625 C 5.203125,-1.53125 5.3125,-1.90625 5.40625,-2.28125 5.5,-2.671875 5.578125,-3.046875 5.578125,-3.3125 Z m 0,0"
             id="path32" />
        </g>
      </g>
      <g
         fill="#000000"
         fill-opacity="1"
         id="g5"
         transform="matrix(0.352778,0,0,0.352778,-0.747183,-0.720328)">
        <g
           id="use4"
           transform="translate(8.0489073,8.1199999)">
          <path
             d="m 1.625,-0.140625 c 0,0.296875 0,1.03125 -0.65625,1.671875 -0.046875,0.046875 -0.046875,0.0625 -0.046875,0.09375 0,0.0625 0.0625,0.109375 0.109375,0.109375 0.09375,0 0.828125,-0.703125 0.828125,-1.75 0,-0.5625 -0.203125,-0.953125 -0.578125,-0.953125 -0.3125,0 -0.484375,0.234375 -0.484375,0.484375 C 0.796875,-0.234375 0.96875,0 1.28125,0 1.40625,0 1.546875,-0.046875 1.625,-0.140625 Z m 0,0"
             id="path34" />
        </g>
      </g>
      <g
         fill="#000000"
         fill-opacity="1"
         id="g6"
         transform="matrix(0.352778,0,0,0.352778,-0.747183,-0.720328)">
        <g
           id="use5"
           transform="translate(12.142068,8.1199999)">
          <path
             d="m 3.9375,-5.46875 c 0.046875,-0.1875 0.078125,-0.28125 0.21875,-0.3125 0.078125,-0.015625 0.359375,-0.015625 0.546875,-0.015625 1.03125,0 1.34375,0.0625 1.34375,0.765625 0,0.109375 0,0.25 -0.078125,0.78125 l -0.015625,0.078125 c 0,0.0625 0.03125,0.125 0.125,0.125 0.109375,0 0.125,-0.09375 0.140625,-0.21875 l 0.234375,-1.5625 c 0.015625,-0.03125 0.015625,-0.09375 0.015625,-0.125 0,-0.125 -0.078125,-0.125 -0.25,-0.125 H 1.109375 c -0.21875,0 -0.21875,0.015625 -0.28125,0.1875 l -0.5625,1.578125 c -0.03125,0.109375 -0.03125,0.140625 -0.03125,0.140625 0,0.046875 0.03125,0.125 0.109375,0.125 0.109375,0 0.125,-0.0625 0.171875,-0.21875 0.5,-1.40625 0.78125,-1.53125 2.078125,-1.53125 H 2.9375 c 0.25,0 0.25,0.03125 0.25,0.109375 0,0.046875 -0.015625,0.109375 -0.03125,0.1875 l -1.203125,4.796875 c -0.078125,0.3125 -0.109375,0.421875 -1.0625,0.421875 -0.28125,0 -0.359375,0 -0.359375,0.171875 C 0.53125,0 0.640625,0 0.6875,0 c 0.234375,0 0.484375,-0.015625 0.734375,-0.015625 0.25,0 0.5,-0.015625 0.75,-0.015625 0.40625,0 0.421875,0 0.75,0.015625 C 3.046875,-0.015625 3.625,0 3.703125,0 c 0.078125,0 0.1875,0 0.1875,-0.15625 0,-0.125 -0.078125,-0.125 -0.296875,-0.125 -0.234375,0 -0.34375,0 -0.578125,-0.015625 -0.203125,-0.03125 -0.3125,-0.03125 -0.3125,-0.1875 0,-0.046875 0.015625,-0.109375 0.03125,-0.171875 z m 0,0"
             id="path35" />
        </g>
      </g>
    </g>
    <g
       inkscape:label=""
       transform="translate(100.03102,189.17708)"
       id="g39">
      <g
         fill="#000000"
         fill-opacity="1"
         id="g38"
         transform="matrix(0.352778,0,0,0.352778,-0.813329,-0.598708)">
        <g
           id="g36"
           transform="translate(1.993,8.1190004)">
          <path
             d="M 3.671875,-6.234375 C 3.625,-6.34375 3.59375,-6.421875 3.453125,-6.421875 c -0.140625,0 -0.15625,0.046875 -0.21875,0.203125 L 1.3125,-0.890625 C 1.203125,-0.59375 1,-0.28125 0.3125,-0.28125 V 0 c 0.328125,-0.03125 0.578125,-0.03125 0.90625,-0.03125 0.3125,0 0.515625,0.015625 1.015625,0.03125 v -0.28125 c -0.515625,0 -0.671875,-0.28125 -0.671875,-0.453125 0,-0.078125 0.03125,-0.125 0.046875,-0.171875 L 2.03125,-2.0625 h 2.3125 l 0.484375,1.359375 C 4.875,-0.625 4.875,-0.59375 4.875,-0.546875 c 0,0.265625 -0.5,0.265625 -0.734375,0.265625 V 0 c 0.40625,-0.03125 0.875,-0.03125 1.28125,-0.03125 0.40625,0 0.4375,0 1.171875,0.03125 V -0.28125 H 6.453125 c -0.5625,0 -0.65625,-0.078125 -0.75,-0.328125 z M 4.25,-2.34375 H 2.125 l 1.0625,-2.9375 z m 0,0"
             id="path3" />
        </g>
        <g
           id="g37"
           transform="translate(8.9034042,8.1190004)">
          <path
             d="m 2.71875,-5.734375 c 0,-0.21875 0,-0.234375 -0.21875,-0.234375 -0.5625,0.5625 -1.390625,0.5625 -1.671875,0.5625 V -5.125 c 0.171875,0 0.71875,0 1.203125,-0.234375 v 4.640625 c 0,0.328125 -0.015625,0.4375 -0.859375,0.4375 H 0.890625 V 0 c 0.3125,-0.03125 1.125,-0.03125 1.484375,-0.03125 0.375,0 1.171875,0 1.5,0.03125 V -0.28125 H 3.59375 c -0.84375,0 -0.875,-0.109375 -0.875,-0.4375 z m 0,0"
             id="path36" />
        </g>
      </g>
    </g>
    <g
       inkscape:label=""
       transform="translate(99.990713,209.24287)"
       id="g43">
      <g
         fill="#000000"
         fill-opacity="1"
         id="g42"
         transform="matrix(0.352778,0,0,0.352778,-0.813329,-0.598708)">
        <g
           id="g40"
           transform="translate(1.993,8.1190004)">
          <path
             d="M 3.671875,-6.234375 C 3.625,-6.34375 3.59375,-6.421875 3.453125,-6.421875 c -0.140625,0 -0.15625,0.046875 -0.21875,0.203125 L 1.3125,-0.890625 C 1.203125,-0.59375 1,-0.28125 0.3125,-0.28125 V 0 c 0.328125,-0.03125 0.578125,-0.03125 0.90625,-0.03125 0.3125,0 0.515625,0.015625 1.015625,0.03125 v -0.28125 c -0.515625,0 -0.671875,-0.28125 -0.671875,-0.453125 0,-0.078125 0.03125,-0.125 0.046875,-0.171875 L 2.03125,-2.0625 h 2.3125 l 0.484375,1.359375 C 4.875,-0.625 4.875,-0.59375 4.875,-0.546875 c 0,0.265625 -0.5,0.265625 -0.734375,0.265625 V 0 c 0.40625,-0.03125 0.875,-0.03125 1.28125,-0.03125 0.40625,0 0.4375,0 1.171875,0.03125 V -0.28125 H 6.453125 c -0.5625,0 -0.65625,-0.078125 -0.75,-0.328125 z M 4.25,-2.34375 H 2.125 l 1.0625,-2.9375 z m 0,0"
             id="path39" />
        </g>
        <g
           id="g41"
           transform="translate(8.9034042,8.1190004)">
          <path
             d="m 4.140625,-1.59375 h -0.25 C 3.875,-1.46875 3.796875,-0.9375 3.6875,-0.796875 3.625,-0.71875 3.015625,-0.71875 2.828125,-0.71875 H 1.234375 L 2.125,-1.5625 c 1.46875,-1.265625 2.015625,-1.75 2.015625,-2.65625 0,-1.03125 -0.84375,-1.75 -1.953125,-1.75 -1.03125,0 -1.734375,0.8125 -1.734375,1.625 0,0.453125 0.390625,0.5 0.46875,0.5 0.203125,0 0.46875,-0.140625 0.46875,-0.46875 0,-0.265625 -0.1875,-0.46875 -0.46875,-0.46875 -0.046875,0 -0.0625,0 -0.109375,0.015625 C 1.03125,-5.40625 1.609375,-5.6875 2.09375,-5.6875 c 0.90625,0 1.21875,0.84375 1.21875,1.46875 0,0.90625 -0.6875,1.65625 -1.109375,2.125 L 0.5625,-0.328125 C 0.453125,-0.21875 0.453125,-0.203125 0.453125,0 h 3.4375 z m 0,0"
             id="path40" />
        </g>
      </g>
    </g>
    <g
       inkscape:label=""
       transform="translate(93.104387,209.35077)"
       id="g47">
      <g
         fill="#000000"
         fill-opacity="1"
         id="g46"
         transform="matrix(0.352778,0,0,0.352778,-0.824353,-0.714463)">
        <g
           id="g44"
           transform="translate(1.993,8.1190004)">
          <path
             d="M 5.375,-6.09375 H 0.34375 v 0.265625 h 0.203125 c 0.6875,0 0.703125,0.109375 0.703125,0.4375 v 4.6875 C 1.25,-0.375 1.234375,-0.28125 0.546875,-0.28125 H 0.34375 V 0 c 0.40625,-0.03125 0.953125,-0.03125 1.375,-0.03125 0.359375,0 1.171875,0 1.484375,0.03125 V -0.28125 H 2.921875 C 2.09375,-0.28125 2.0625,-0.390625 2.0625,-0.71875 V -2.921875 H 2.875 c 0.859375,0 0.96875,0.296875 0.96875,1.0625 h 0.25 V -4.25 h -0.25 c 0,0.765625 -0.109375,1.0625 -0.96875,1.0625 H 2.0625 v -2.265625 c 0,-0.3125 0.015625,-0.375 0.4375,-0.375 h 1.125 c 1.375,0 1.609375,0.515625 1.75,1.75 h 0.25 z m 0,0"
             id="path43" />
        </g>
        <g
           id="g45"
           transform="translate(8.0076609,8.1190004)">
          <path
             d="m 4.140625,-1.59375 h -0.25 C 3.875,-1.46875 3.796875,-0.9375 3.6875,-0.796875 3.625,-0.71875 3.015625,-0.71875 2.828125,-0.71875 H 1.234375 L 2.125,-1.5625 c 1.46875,-1.265625 2.015625,-1.75 2.015625,-2.65625 0,-1.03125 -0.84375,-1.75 -1.953125,-1.75 -1.03125,0 -1.734375,0.8125 -1.734375,1.625 0,0.453125 0.390625,0.5 0.46875,0.5 0.203125,0 0.46875,-0.140625 0.46875,-0.46875 0,-0.265625 -0.1875,-0.46875 -0.46875,-0.46875 -0.046875,0 -0.0625,0 -0.109375,0.015625 C 1.03125,-5.40625 1.609375,-5.6875 2.09375,-5.6875 c 0.90625,0 1.21875,0.84375 1.21875,1.46875 0,0.90625 -0.6875,1.65625 -1.109375,2.125 L 0.5625,-0.328125 C 0.453125,-0.21875 0.453125,-0.203125 0.453125,0 h 3.4375 z m 0,0"
             id="path44" />
        </g>
      </g>
    </g>
    <g
       inkscape:label=""
       transform="translate(82.549999,209.35077)"
       id="g51">
      <g
         fill="#000000"
         fill-opacity="1"
         id="g50"
         transform="matrix(0.352778,0,0,0.352778,-0.824353,-0.714463)">
        <g
           id="g48"
           transform="translate(1.993,8.1190004)">
          <path
             d="M 5.375,-6.09375 H 0.34375 v 0.265625 h 0.203125 c 0.6875,0 0.703125,0.109375 0.703125,0.4375 v 4.6875 C 1.25,-0.375 1.234375,-0.28125 0.546875,-0.28125 H 0.34375 V 0 c 0.40625,-0.03125 0.953125,-0.03125 1.375,-0.03125 0.359375,0 1.171875,0 1.484375,0.03125 V -0.28125 H 2.921875 C 2.09375,-0.28125 2.0625,-0.390625 2.0625,-0.71875 V -2.921875 H 2.875 c 0.859375,0 0.96875,0.296875 0.96875,1.0625 h 0.25 V -4.25 h -0.25 c 0,0.765625 -0.109375,1.0625 -0.96875,1.0625 H 2.0625 v -2.265625 c 0,-0.3125 0.015625,-0.375 0.4375,-0.375 h 1.125 c 1.375,0 1.609375,0.515625 1.75,1.75 h 0.25 z m 0,0"
             id="path47" />
        </g>
        <g
           id="g49"
           transform="translate(8.0076609,8.1190004)">
          <path
             d="m 2.71875,-5.734375 c 0,-0.21875 0,-0.234375 -0.21875,-0.234375 -0.5625,0.5625 -1.390625,0.5625 -1.671875,0.5625 V -5.125 c 0.171875,0 0.71875,0 1.203125,-0.234375 v 4.640625 c 0,0.328125 -0.015625,0.4375 -0.859375,0.4375 H 0.890625 V 0 c 0.3125,-0.03125 1.125,-0.03125 1.484375,-0.03125 0.375,0 1.171875,0 1.5,0.03125 V -0.28125 H 3.59375 c -0.84375,0 -0.875,-0.109375 -0.875,-0.4375 z m 0,0"
             id="path48" />
        </g>
      </g>
    </g>
    <rect
       style="fill:#000000;fill-opacity:1;fill-rule:evenodd;stroke:none;stroke-width:0.264583;stroke-linecap:square;stroke-miterlimit:3.9"
       id="rect3"
       width="1.5568471"
       height="0.71342945"
       x="101.12138"
       y="202.8725" />
    <rect
       style="fill:#000000;fill-opacity:1;fill-rule:evenodd;stroke:none;stroke-width:0.264583;stroke-linecap:square;stroke-miterlimit:3.9"
       id="rect3-0"
       width="1.5568471"
       height="0.71342945"
       x="101.12138"
       y="196.86145" />
    <rect
       style="fill:none;fill-opacity:1;fill-rule:evenodd;stroke:#000100;stroke-width:0.264583;stroke-linecap:square;stroke-miterlimit:3.9;stroke-opacity:1"
       id="rect4"
       width="4.0105643"
       height="1.3613478"
       x="104.55386"
       y="199.54005" />
    <path
       style="fill:none;stroke:#000000;stroke-width:0.264999;stroke-linecap:round;stroke-linejoin:round;stroke-miterlimit:4;stroke-dasharray:none;marker-start:url(#marker1815)"
       id="path844"
       sodipodi:type="arc"
       sodipodi:cx="-200.28842"
       sodipodi:cy="107.42941"
       sodipodi:rx="2.9303143"
       sodipodi:ry="3.2070622"
       sodipodi:start="0.66885328"
       sodipodi:end="2.6048876"
       sodipodi:open="true"
       sodipodi:arc-type="arc"
       d="m -197.98949,109.41807 a 2.9303143,3.2070622 0 0 1 -2.49241,1.21141 2.9303143,3.2070622 0 0 1 -2.32483,-1.56027"
       transform="rotate(-90)" />
    <rect
       style="fill:#595959;fill-opacity:1;fill-rule:evenodd;stroke:#000100;stroke-width:0.264583;stroke-linecap:square;stroke-miterlimit:3.9"
       id="rect1"
       width="6.7354169"
       height="6.7354169"
       x="64.114349"
       y="197.38879" />
    <rect
       style="fill:#afafaf;fill-opacity:1;fill-rule:evenodd;stroke:#000100;stroke-width:0.264583;stroke-linecap:square;stroke-miterlimit:3.9"
       id="rect1-0"
       width="6.7354169"
       height="6.7354169"
       x="70.84977"
       y="197.38879" />
    <text
       xml:space="preserve"
       style="font-size:3.175px;line-height:1.05;font-family:'Times New Roman';-inkscape-font-specification:'Times New Roman, Normal';text-align:center;text-anchor:middle;fill:#000000;fill-opacity:1;fill-rule:evenodd;stroke:none;stroke-width:0.264583;stroke-linecap:square;stroke-miterlimit:3.9"
       x="74.260887"
       y="201.79054"
       id="text10"><tspan
         sodipodi:role="line"
         id="tspan10"
         style="font-size:3.175px;fill:#000000;fill-opacity:1;stroke:none;stroke-width:0.264583"
         x="74.260887"
         y="201.79054">N</tspan></text>
    <text
       xml:space="preserve"
       style="font-size:3.175px;line-height:1.05;font-family:'Times New Roman';-inkscape-font-specification:'Times New Roman, Normal';text-align:center;text-anchor:middle;fill:#000000;fill-opacity:1;fill-rule:evenodd;stroke:none;stroke-width:0.264583;stroke-linecap:square;stroke-miterlimit:3.9"
       x="67.468102"
       y="201.8076"
       id="text10-1"><tspan
         sodipodi:role="line"
         id="tspan10-6"
         style="font-size:3.175px;fill:#000000;fill-opacity:1;stroke:none;stroke-width:0.264583"
         x="67.468102"
         y="201.8076">S</tspan></text>
    <path
       style="fill:#000000;fill-opacity:1;fill-rule:evenodd;stroke:#000100;stroke-width:0.264583;stroke-linecap:square;stroke-miterlimit:3.9;stroke-opacity:1"
       d="m 83.558762,195.40467 c 0,0 -5.554448,10.86419 -5.554448,10.86419"
       id="path10"
       inkscape:path-effect="#path-effect10"
       inkscape:original-d="m 83.558762,195.40467 -5.554448,10.86419"
       transform="translate(0.25001276,-0.0802595)" />
  </g>
</svg>
