<?xml version="1.0" encoding="UTF-8" standalone="no"?>
<!-- Created with Inkscape (http://www.inkscape.org/) -->

<svg
   width="48mm"
   height="35.868mm"
   viewBox="0 0 48 35.868"
   version="1.1"
   id="svg1"
   inkscape:version="1.3.2 (091e20e, 2023-11-25, custom)"
   sodipodi:docname="Series_DC_machine_torque_speed.svg"
   xmlns:inkscape="http://www.inkscape.org/namespaces/inkscape"
   xmlns:sodipodi="http://sodipodi.sourceforge.net/DTD/sodipodi-0.dtd"
   xmlns="http://www.w3.org/2000/svg"
   xmlns:svg="http://www.w3.org/2000/svg">
  <sodipodi:namedview
     id="namedview1"
     pagecolor="#505050"
     bordercolor="#eeeeee"
     borderopacity="1"
     inkscape:showpageshadow="0"
     inkscape:pageopacity="0"
     inkscape:pagecheckerboard="0"
     inkscape:deskcolor="#505050"
     inkscape:document-units="mm"
     inkscape:zoom="4.1157408"
     inkscape:cx="81.880765"
     inkscape:cy="41.912261"
     inkscape:window-width="2560"
     inkscape:window-height="1351"
     inkscape:window-x="2551"
     inkscape:window-y="-9"
     inkscape:window-maximized="1"
     inkscape:current-layer="layer1" />
  <defs
     id="defs1">
    <marker
       style="overflow:visible"
       id="ArrowWide"
       refX="0"
       refY="0"
       orient="auto-start-reverse"
       inkscape:stockid="Wide arrow"
       markerWidth="1"
       markerHeight="1"
       viewBox="0 0 1 1"
       inkscape:isstock="true"
       inkscape:collect="always"
       preserveAspectRatio="xMidYMid">
      <path
         style="fill:none;stroke:context-stroke;stroke-width:1;stroke-linecap:butt"
         d="M 3,-3 0,0 3,3"
         transform="rotate(180,0.125,0)"
         sodipodi:nodetypes="ccc"
         id="path5" />
    </marker>
    <inkscape:path-effect
       effect="bspline"
       id="path-effect3"
       is_visible="true"
       lpeversion="1.3"
       weight="33.333333"
       steps="2"
       helper_size="0"
       apply_no_weight="true"
       apply_with_weight="true"
       only_selected="false"
       uniform="false" />
    <inkscape:path-effect
       effect="bspline"
       id="path-effect111"
       is_visible="true"
       lpeversion="1.3"
       weight="33.333333"
       steps="2"
       helper_size="0"
       apply_no_weight="true"
       apply_with_weight="true"
       only_selected="false"
       uniform="false" />
    <inkscape:path-effect
       effect="bspline"
       id="path-effect31"
       is_visible="true"
       lpeversion="1.3"
       weight="33.333333"
       steps="2"
       helper_size="0"
       apply_no_weight="true"
       apply_with_weight="true"
       only_selected="false"
       uniform="false" />
    <inkscape:path-effect
       effect="bspline"
       id="path-effect2-4-7-0"
       is_visible="true"
       lpeversion="1.3"
       weight="33.333333"
       steps="2"
       helper_size="0"
       apply_no_weight="true"
       apply_with_weight="true"
       only_selected="false"
       uniform="false" />
    <inkscape:path-effect
       effect="bspline"
       id="path-effect2-4-7"
       is_visible="true"
       lpeversion="1.3"
       weight="33.333333"
       steps="2"
       helper_size="0"
       apply_no_weight="true"
       apply_with_weight="true"
       only_selected="false"
       uniform="false" />
    <inkscape:path-effect
       effect="bspline"
       id="path-effect2-4"
       is_visible="true"
       lpeversion="1.3"
       weight="33.333333"
       steps="2"
       helper_size="0"
       apply_no_weight="true"
       apply_with_weight="true"
       only_selected="false"
       uniform="false" />
    <inkscape:path-effect
       effect="bspline"
       id="path-effect2-5-3-2"
       is_visible="true"
       lpeversion="1.3"
       weight="33.333333"
       steps="2"
       helper_size="0"
       apply_no_weight="true"
       apply_with_weight="true"
       only_selected="false"
       uniform="false" />
    <inkscape:path-effect
       effect="bspline"
       id="path-effect2-5-3"
       is_visible="true"
       lpeversion="1.3"
       weight="33.333333"
       steps="2"
       helper_size="0"
       apply_no_weight="true"
       apply_with_weight="true"
       only_selected="false"
       uniform="false" />
    <inkscape:path-effect
       effect="bspline"
       id="path-effect2-5"
       is_visible="true"
       lpeversion="1.3"
       weight="33.333333"
       steps="2"
       helper_size="0"
       apply_no_weight="true"
       apply_with_weight="true"
       only_selected="false"
       uniform="false" />
    <inkscape:path-effect
       effect="bspline"
       id="path-effect2"
       is_visible="true"
       lpeversion="1.3"
       weight="33.333333"
       steps="2"
       helper_size="0"
       apply_no_weight="true"
       apply_with_weight="true"
       only_selected="false"
       uniform="false" />
    <marker
       style="overflow:visible"
       id="ConcaveTriangle-4"
       refX="0"
       refY="0"
       orient="auto-start-reverse"
       inkscape:stockid="Concave triangle arrow"
       markerWidth="1"
       markerHeight="1"
       viewBox="0 0 1 1"
       inkscape:isstock="true"
       inkscape:collect="always"
       preserveAspectRatio="xMidYMid">
      <path
         transform="scale(0.7)"
         d="M -2,-4 9,0 -2,4 c 2,-2.33 2,-5.66 0,-8 z"
         style="fill:context-stroke;fill-rule:evenodd;stroke:none"
         id="path7-4" />
    </marker>
    <marker
       style="overflow:visible"
       id="ConcaveTriangle"
       refX="0"
       refY="0"
       orient="auto-start-reverse"
       inkscape:stockid="Concave triangle arrow"
       markerWidth="1"
       markerHeight="1"
       viewBox="0 0 1 1"
       inkscape:isstock="true"
       inkscape:collect="always"
       preserveAspectRatio="xMidYMid">
      <path
         transform="scale(0.7)"
         d="M -2,-4 9,0 -2,4 c 2,-2.33 2,-5.66 0,-8 z"
         style="fill:context-stroke;fill-rule:evenodd;stroke:none"
         id="path7" />
    </marker>
    <inkscape:path-effect
       effect="bspline"
       id="path-effect35"
       is_visible="true"
       lpeversion="1.3"
       weight="33.333333"
       steps="2"
       helper_size="0"
       apply_no_weight="true"
       apply_with_weight="true"
       only_selected="false"
       uniform="false" />
    <inkscape:path-effect
       effect="bspline"
       id="path-effect2-4-7-0-3"
       is_visible="true"
       lpeversion="1.3"
       weight="33.333333"
       steps="2"
       helper_size="0"
       apply_no_weight="true"
       apply_with_weight="true"
       only_selected="false"
       uniform="false" />
    <inkscape:path-effect
       effect="bspline"
       id="path-effect2-4-7-0-8"
       is_visible="true"
       lpeversion="1.3"
       weight="33.333333"
       steps="2"
       helper_size="0"
       apply_no_weight="true"
       apply_with_weight="true"
       only_selected="false"
       uniform="false" />
    <inkscape:path-effect
       effect="bspline"
       id="path-effect2-4-7-0-3-1"
       is_visible="true"
       lpeversion="1.3"
       weight="33.333333"
       steps="2"
       helper_size="0"
       apply_no_weight="true"
       apply_with_weight="true"
       only_selected="false"
       uniform="false" />
    <inkscape:path-effect
       effect="bspline"
       id="path-effect3-1"
       is_visible="true"
       lpeversion="1.3"
       weight="33.333333"
       steps="2"
       helper_size="0"
       apply_no_weight="true"
       apply_with_weight="true"
       only_selected="false"
       uniform="false" />
    <inkscape:path-effect
       effect="bspline"
       id="path-effect3-1-5"
       is_visible="true"
       lpeversion="1.3"
       weight="33.333333"
       steps="2"
       helper_size="0"
       apply_no_weight="true"
       apply_with_weight="true"
       only_selected="false"
       uniform="false" />
    <inkscape:path-effect
       effect="bspline"
       id="path-effect3-1-5-2"
       is_visible="true"
       lpeversion="1.3"
       weight="33.333333"
       steps="2"
       helper_size="0"
       apply_no_weight="true"
       apply_with_weight="true"
       only_selected="false"
       uniform="false" />
    <inkscape:path-effect
       effect="bspline"
       id="path-effect3-18"
       is_visible="true"
       lpeversion="1.3"
       weight="33.333333"
       steps="2"
       helper_size="0"
       apply_no_weight="true"
       apply_with_weight="true"
       only_selected="false"
       uniform="false" />
    <inkscape:path-effect
       effect="bspline"
       id="path-effect3-1-9"
       is_visible="true"
       lpeversion="1.3"
       weight="33.333333"
       steps="2"
       helper_size="0"
       apply_no_weight="true"
       apply_with_weight="true"
       only_selected="false"
       uniform="false" />
  </defs>
  <g
     inkscape:label="Ebene 1"
     inkscape:groupmode="layer"
     id="layer1"
     transform="translate(-110.586,-157.768)">
    <path
       style="fill:#000000;fill-rule:evenodd;stroke:#000100;stroke-width:0.265;stroke-linecap:square;stroke-miterlimit:3.9;stroke-dasharray:none;marker-end:url(#ConcaveTriangle-4)"
       d="M 133.4215,193.47745 V 159.66463"
       id="path1-3" />
    <g
       inkscape:label=""
       transform="translate(156.33772,188.21825)"
       id="g16">
      <g
         fill="#000000"
         fill-opacity="1"
         id="g11"
         transform="matrix(0.352778,0,0,0.352778,-0.747183,-0.635441)">
        <g
           id="g10"
           transform="translate(1.993,7.77)">
          <path
             d="m 5.578125,-3.3125 c 0,-0.265625 -0.09375,-0.65625 -0.40625,-0.65625 -0.234375,0 -0.46875,0.234375 -0.46875,0.453125 0,0.140625 0.046875,0.15625 0.125,0.234375 C 4.9375,-3.171875 5.15625,-2.9375 5.15625,-2.5 c 0,0.546875 -0.578125,1.9375 -1.484375,1.9375 -0.5,0 -0.796875,-0.359375 -0.875,-0.734375 0,-0.125 0.3125,-0.765625 0.3125,-1.09375 0,-0.125 -0.0625,-0.234375 -0.203125,-0.234375 -0.078125,0 -0.15625,0.046875 -0.203125,0.109375 -0.171875,0.203125 -0.25,0.9375 -0.25,1.15625 -0.296875,0.421875 -0.671875,0.78125 -1.21875,0.78125 -0.578125,0 -0.78125,-0.484375 -0.78125,-1 0,-0.6875 0.265625,-1.28125 0.84375,-2.03125 C 1.34375,-3.6875 1.34375,-3.71875 1.34375,-3.765625 c 0,-0.078125 -0.078125,-0.15625 -0.15625,-0.15625 -0.09375,0 -0.171875,0.078125 -0.203125,0.140625 -0.5,0.703125 -0.859375,1.6875 -0.859375,2.546875 0,0.703125 0.25,1.328125 1.03125,1.328125 0.5625,0 1.078125,-0.484375 1.34375,-0.890625 0.125,0.359375 0.328125,0.890625 1.046875,0.890625 0.703125,0 1.15625,-0.5625 1.5,-1.265625 C 5.203125,-1.53125 5.3125,-1.90625 5.40625,-2.28125 5.5,-2.671875 5.578125,-3.046875 5.578125,-3.3125 Z m 0,0"
             id="path6" />
        </g>
      </g>
    </g>
    <g
       inkscape:label=""
       transform="translate(126.76318,157.89647)"
       id="g91">
      <g
         fill="#000000"
         fill-opacity="1"
         id="g82"
         transform="matrix(0.352778,0,0,0.352778,-0.813329,-0.699426)">
        <g
           id="g81"
           transform="translate(23.750999,8.717)">
          <path
             d="m 3.9375,-5.46875 c 0.046875,-0.1875 0.078125,-0.28125 0.21875,-0.3125 0.078125,-0.015625 0.359375,-0.015625 0.546875,-0.015625 1.03125,0 1.34375,0.0625 1.34375,0.765625 0,0.109375 0,0.25 -0.078125,0.78125 l -0.015625,0.078125 c 0,0.0625 0.03125,0.125 0.125,0.125 0.109375,0 0.125,-0.09375 0.140625,-0.21875 l 0.234375,-1.5625 c 0.015625,-0.03125 0.015625,-0.09375 0.015625,-0.125 0,-0.125 -0.078125,-0.125 -0.25,-0.125 H 1.109375 c -0.21875,0 -0.21875,0.015625 -0.28125,0.1875 l -0.5625,1.578125 c -0.03125,0.109375 -0.03125,0.140625 -0.03125,0.140625 0,0.046875 0.03125,0.125 0.109375,0.125 0.109375,0 0.125,-0.0625 0.171875,-0.21875 0.5,-1.40625 0.78125,-1.53125 2.078125,-1.53125 H 2.9375 c 0.25,0 0.25,0.03125 0.25,0.109375 0,0.046875 -0.015625,0.109375 -0.03125,0.1875 l -1.203125,4.796875 c -0.078125,0.3125 -0.109375,0.421875 -1.0625,0.421875 -0.28125,0 -0.359375,0 -0.359375,0.171875 C 0.53125,0 0.640625,0 0.6875,0 c 0.234375,0 0.484375,-0.015625 0.734375,-0.015625 0.25,0 0.5,-0.015625 0.75,-0.015625 0.40625,0 0.421875,0 0.75,0.015625 C 3.046875,-0.015625 3.625,0 3.703125,0 c 0.078125,0 0.1875,0 0.1875,-0.15625 0,-0.125 -0.078125,-0.125 -0.296875,-0.125 -0.234375,0 -0.34375,0 -0.578125,-0.015625 -0.203125,-0.03125 -0.3125,-0.03125 -0.3125,-0.1875 0,-0.046875 0.015625,-0.109375 0.03125,-0.171875 z m 0,0"
             id="path80" />
        </g>
      </g>
      <g
         fill="#000000"
         fill-opacity="1"
         id="g84"
         transform="matrix(0.352778,0,0,0.352778,-0.813329,-0.699426)">
        <g
           id="g83"
           transform="translate(30.407,8.717)">
          <path
             d="M 3.0625,2.140625 C 3.0625,2.09375 3.03125,2.0625 2.984375,2 1.828125,0.9375 1.46875,-0.671875 1.46875,-2.25 1.46875,-3.625 1.734375,-5.3125 3,-6.515625 3.046875,-6.5625 3.0625,-6.578125 3.0625,-6.625 c 0,-0.0625 -0.046875,-0.109375 -0.109375,-0.109375 -0.109375,0 -0.921875,0.65625 -1.40625,1.625 C 1.125,-4.25 0.90625,-3.3125 0.90625,-2.25 c 0,0.640625 0.078125,1.671875 0.578125,2.71875 0.53125,1.109375 1.359375,1.765625 1.46875,1.765625 0.0625,0 0.109375,-0.03125 0.109375,-0.09375 z m 0,0"
             id="path82" />
        </g>
      </g>
      <g
         fill="#000000"
         fill-opacity="1"
         id="g86"
         transform="matrix(0.352778,0,0,0.352778,-0.813329,-0.699426)">
        <g
           id="g85"
           transform="translate(33.991001,8.717)">
          <path
             d="m 5.578125,-3.3125 c 0,-0.265625 -0.09375,-0.65625 -0.40625,-0.65625 -0.234375,0 -0.46875,0.234375 -0.46875,0.453125 0,0.140625 0.046875,0.15625 0.125,0.234375 C 4.9375,-3.171875 5.15625,-2.9375 5.15625,-2.5 c 0,0.546875 -0.578125,1.9375 -1.484375,1.9375 -0.5,0 -0.796875,-0.359375 -0.875,-0.734375 0,-0.125 0.3125,-0.765625 0.3125,-1.09375 0,-0.125 -0.0625,-0.234375 -0.203125,-0.234375 -0.078125,0 -0.15625,0.046875 -0.203125,0.109375 -0.171875,0.203125 -0.25,0.9375 -0.25,1.15625 -0.296875,0.421875 -0.671875,0.78125 -1.21875,0.78125 -0.578125,0 -0.78125,-0.484375 -0.78125,-1 0,-0.6875 0.265625,-1.28125 0.84375,-2.03125 C 1.34375,-3.6875 1.34375,-3.71875 1.34375,-3.765625 c 0,-0.078125 -0.078125,-0.15625 -0.15625,-0.15625 -0.09375,0 -0.171875,0.078125 -0.203125,0.140625 -0.5,0.703125 -0.859375,1.6875 -0.859375,2.546875 0,0.703125 0.25,1.328125 1.03125,1.328125 0.5625,0 1.078125,-0.484375 1.34375,-0.890625 0.125,0.359375 0.328125,0.890625 1.046875,0.890625 0.703125,0 1.15625,-0.5625 1.5,-1.265625 C 5.203125,-1.53125 5.3125,-1.90625 5.40625,-2.28125 5.5,-2.671875 5.578125,-3.046875 5.578125,-3.3125 Z m 0,0"
             id="path84" />
        </g>
      </g>
      <g
         fill="#000000"
         fill-opacity="1"
         id="g88"
         transform="matrix(0.352778,0,0,0.352778,-0.813329,-0.699426)">
        <g
           id="g87"
           transform="translate(40.046001,8.717)">
          <path
             d="M 2.671875,-2.25 C 2.671875,-2.984375 2.5625,-3.96875 2.09375,-4.96875 1.5625,-6.078125 0.734375,-6.734375 0.625,-6.734375 c -0.09375,0 -0.109375,0.078125 -0.109375,0.109375 0,0.046875 0.015625,0.0625 0.078125,0.125 0.53125,0.46875 1.515625,1.6875 1.515625,4.25 0,1.28125 -0.234375,3.0625 -1.53125,4.28125 -0.015625,0.015625 -0.0625,0.0625 -0.0625,0.109375 0,0.015625 0.015625,0.09375 0.109375,0.09375 0.109375,0 0.921875,-0.640625 1.40625,-1.625 C 2.453125,-0.25 2.671875,-1.171875 2.671875,-2.25 Z m 0,0"
             id="path86" />
        </g>
      </g>
    </g>
    <path
       style="fill:none;fill-rule:evenodd;stroke:#7d7d7d;stroke-width:0.264999;stroke-linecap:square;stroke-miterlimit:3.9;stroke-opacity:1"
       d="m 120.13972,136.28274 c 0.95758,14.54158 1.91514,29.08287 3.2978,37.84808 1.38267,8.76521 3.19029,11.75359 7.69255,13.37577 4.50226,1.62218 11.69877,1.87798 18.89543,2.13378"
       id="path3"
       inkscape:path-effect="#path-effect3"
       inkscape:original-d="m 120.13972,136.28274 c 0.95758,14.54158 1.91514,29.08287 2.87274,43.62474 1.80773,2.98855 3.61535,5.97693 5.42308,8.96549 7.19679,0.2558 14.3933,0.5116 21.58996,0.7674"
       sodipodi:nodetypes="cccc"
       transform="translate(5.5935496)" />
    <path
       style="fill:none;fill-rule:evenodd;stroke:#7d7d7d;stroke-width:0.264999;stroke-linecap:square;stroke-miterlimit:3.9;stroke-opacity:1"
       d="m 120.13972,136.28274 c 0.44764,14.73659 0.89527,29.47289 1.66828,38.36177 0.77302,8.88888 1.87133,11.92958 6.62857,13.45425 4.75723,1.52468 13.173,1.53314 21.58893,1.54161"
       id="path3-4"
       inkscape:path-effect="#path-effect3-1"
       inkscape:original-d="m 120.13972,136.28274 c 0.44764,14.73659 0.89527,29.47289 1.34292,44.20977 1.09838,3.04088 2.19669,6.08158 3.29507,9.12246 8.41609,0.008 16.83186,0.0169 25.24779,0.0254"
       sodipodi:nodetypes="cccc"
       transform="translate(5.5935496)" />
    <path
       style="fill:none;fill-rule:evenodd;stroke:#7d7d7d;stroke-width:0.264999;stroke-linecap:square;stroke-miterlimit:3.9;stroke-opacity:1"
       d="m 120.13972,136.28274 c 1.90984,14.74416 3.81964,29.48804 5.35028,37.78976 1.53064,8.30172 2.68199,10.16058 6.70811,11.68147 4.02612,1.52088 10.92669,2.70363 17.82739,3.8864"
       id="path3-4-0"
       inkscape:path-effect="#path-effect3-1-5"
       inkscape:original-d="m 120.13972,136.28274 c 1.90983,14.74416 3.81963,29.48804 5.72951,44.2325 1.15141,1.85898 2.30276,3.71784 3.45417,5.57682 6.90083,1.1828 13.8014,2.36554 20.7021,3.54831"
       sodipodi:nodetypes="cccc"
       transform="translate(5.5935496)" />
    <path
       style="fill:none;fill-rule:evenodd;stroke:#7d7d7d;stroke-width:0.264999;stroke-linecap:square;stroke-miterlimit:3.9;stroke-opacity:1"
       d="m 120.13972,136.28274 c 0.95758,14.54158 1.91514,29.08287 3.2978,37.84808 1.38267,8.76521 3.19029,11.75359 7.69255,13.37577 4.50226,1.62218 11.69877,1.87798 18.89543,2.13378"
       id="path3-9"
       inkscape:path-effect="#path-effect3-18"
       inkscape:original-d="m 120.13972,136.28274 c 0.95758,14.54158 1.91514,29.08287 2.87274,43.62474 1.80773,2.98855 3.61535,5.97693 5.42308,8.96549 7.19679,0.2558 14.3933,0.5116 21.58996,0.7674"
       sodipodi:nodetypes="cccc"
       transform="matrix(-1,0,0,1,245.87301,0)" />
    <path
       style="fill:none;fill-rule:evenodd;stroke:#7d7d7d;stroke-width:0.264999;stroke-linecap:square;stroke-miterlimit:3.9;stroke-opacity:1"
       d="m 120.13972,136.28274 c 0.44764,14.73659 0.89527,29.47289 1.66828,38.36177 0.77302,8.88888 1.87133,11.92958 6.62857,13.45425 4.75723,1.52468 13.173,1.53314 21.58893,1.54161"
       id="path3-4-9"
       inkscape:path-effect="#path-effect3-1-9"
       inkscape:original-d="m 120.13972,136.28274 c 0.44764,14.73659 0.89527,29.47289 1.34292,44.20977 1.09838,3.04088 2.19669,6.08158 3.29507,9.12246 8.41609,0.008 16.83186,0.0169 25.24779,0.0254"
       sodipodi:nodetypes="cccc"
       transform="matrix(-1,0,0,1,245.87301,0)" />
    <path
       style="fill:none;fill-rule:evenodd;stroke:#7d7d7d;stroke-width:0.264999;stroke-linecap:square;stroke-miterlimit:3.9;stroke-opacity:1"
       d="m 120.13972,136.28274 c 1.90984,14.74416 3.81964,29.48804 5.35028,37.78976 1.53064,8.30172 2.68199,10.16058 6.70811,11.68147 4.02612,1.52088 10.92669,2.70363 17.82739,3.8864"
       id="path3-4-0-1"
       inkscape:path-effect="#path-effect3-1-5-2"
       inkscape:original-d="m 120.13972,136.28274 c 1.90983,14.74416 3.81963,29.48804 5.72951,44.2325 1.15141,1.85898 2.30276,3.71784 3.45417,5.57682 6.90083,1.1828 13.8014,2.36554 20.7021,3.54831"
       sodipodi:nodetypes="cccc"
       transform="matrix(-1,0,0,1,245.87301,0)" />
    <path
       style="fill:#000000;fill-rule:evenodd;stroke:#000100;stroke-width:0.265;stroke-linecap:square;stroke-miterlimit:3.9;stroke-dasharray:none;marker-end:url(#ConcaveTriangle)"
       d="m 110.78318,189.61497 h 43.68207"
       id="path1" />
    <path
       style="fill:none;fill-rule:evenodd;stroke:#000000;stroke-width:0.165;stroke-linecap:square;stroke-miterlimit:3.9;stroke-dasharray:0.495, 0.495;stroke-dashoffset:0;stroke-opacity:1;marker-end:url(#ArrowWide)"
       d="m 131.13271,188.87297 4.6366,-9.10434"
       id="path4" />
    <g
       inkscape:label=""
       transform="translate(136.68346,178.79117)"
       id="g12">
      <g
         fill="#000000"
         fill-opacity="1"
         id="g4"
         transform="matrix(0.352778,0,0,0.352778,-1.08342,-0.699426)">
        <g
           id="use3"
           transform="translate(1.993,8.717)">
          <path
             d="m 1.46875,-6.390625 c 0,-0.15625 0,-0.34375 -0.1875,-0.34375 -0.203125,0 -0.203125,0.171875 -0.203125,0.34375 V 1.90625 c 0,0.15625 0,0.34375 0.203125,0.34375 0.1875,0 0.1875,-0.171875 0.1875,-0.34375 z m 0,0"
             id="path8" />
        </g>
      </g>
      <g
         fill="#000000"
         fill-opacity="1"
         id="g5"
         transform="matrix(0.352778,0,0,0.352778,-1.08342,-0.699426)">
        <g
           id="use4"
           transform="translate(4.552,8.717)">
          <path
             d="m 5.828125,-5.15625 c 0.078125,-0.375 0.25,-0.671875 0.953125,-0.6875 0.046875,0 0.15625,-0.015625 0.15625,-0.171875 0,-0.0625 -0.046875,-0.109375 -0.125,-0.109375 -0.1875,0 -0.703125,0.03125 -0.890625,0.03125 -0.234375,0 -0.25,0 -0.453125,-0.015625 C 5.3125,-6.109375 5.125,-6.125 5,-6.125 c -0.046875,0 -0.171875,0 -0.171875,0.15625 0,0.125 0.109375,0.125 0.171875,0.125 0.34375,0 0.59375,0.078125 0.59375,0.375 0,0.046875 -0.03125,0.171875 -0.03125,0.1875 l -0.796875,3.203125 c -0.3125,1.25 -1.40625,2 -2.296875,2 -0.453125,0 -1.109375,-0.25 -1.109375,-1.203125 0,-0.21875 0.03125,-0.453125 0.078125,-0.6875 l 0.875,-3.46875 c 0.078125,-0.34375 0.109375,-0.40625 0.8125,-0.40625 0.140625,0 0.234375,0 0.234375,-0.171875 0,-0.078125 -0.0625,-0.109375 -0.125,-0.109375 L 2.65625,-6.109375 C 2.390625,-6.09375 2.375,-6.09375 2.09375,-6.09375 c -0.296875,0 -0.3125,0 -0.578125,-0.015625 -0.171875,0 -0.40625,-0.015625 -0.578125,-0.015625 -0.0625,0 -0.1875,0 -0.1875,0.15625 0,0.125 0.09375,0.125 0.265625,0.125 0.046875,0 0.203125,0 0.34375,0.015625 0.171875,0.015625 0.21875,0.046875 0.21875,0.140625 0,0.046875 -0.078125,0.375 -0.140625,0.5625 L 1.25,-4.34375 C 1.171875,-3.984375 0.734375,-2.3125 0.703125,-2.125 0.625,-1.84375 0.625,-1.734375 0.625,-1.546875 c 0,1.046875 0.78125,1.75 1.828125,1.75 C 3.609375,0.203125 4.75,-0.828125 5.03125,-2 Z m 0,0"
             id="path9" />
        </g>
      </g>
      <g
         fill="#000000"
         fill-opacity="1"
         id="g6"
         transform="matrix(0.352778,0,0,0.352778,-1.08342,-0.699426)">
        <g
           id="use5"
           transform="translate(11.789,8.717)">
          <path
             d="m 1.46875,-6.390625 c 0,-0.15625 0,-0.34375 -0.1875,-0.34375 -0.203125,0 -0.203125,0.171875 -0.203125,0.34375 V 1.90625 c 0,0.15625 0,0.34375 0.203125,0.34375 0.1875,0 0.1875,-0.171875 0.1875,-0.34375 z m 0,0"
             id="path10" />
        </g>
      </g>
      <g
         fill="#000000"
         fill-opacity="1"
         id="g7"
         transform="matrix(0.352778,0,0,0.352778,-1.08342,-0.699426)">
        <g
           id="use6"
           transform="translate(16.904331,8.717)">
          <path
             d="m 2.5,-4.9375 c 0.28125,0.421875 0.609375,0.671875 0.703125,0.765625 0.53125,0.375 1.09375,0.484375 1.140625,0.484375 0.109375,0 0.109375,-0.109375 0.109375,-0.1875 0,-0.109375 0,-0.15625 -0.109375,-0.1875 C 2.765625,-4.5 2.5,-5.703125 2.40625,-6.140625 2.390625,-6.171875 2.34375,-6.21875 2.3125,-6.21875 c -0.09375,0 -0.125,0.078125 -0.125,0.09375 C 2.125,-5.84375 2.015625,-5.28125 1.5,-4.765625 1.28125,-4.53125 0.90625,-4.25 0.328125,-4.078125 0.15625,-4.03125 0.140625,-4.03125 0.140625,-3.875 c 0,0.078125 0,0.1875 0.125,0.1875 0.03125,0 0.59375,-0.09375 1.140625,-0.515625 C 1.8125,-4.5 2.078125,-4.90625 2.109375,-4.9375 v 6.34375 c 0,0.15625 0,0.328125 0.1875,0.328125 C 2.5,1.734375 2.5,1.5625 2.5,1.40625 Z m 0,0"
             id="path11" />
        </g>
      </g>
    </g>
    <path
       style="fill:none;fill-rule:evenodd;stroke:#000000;stroke-width:0.165;stroke-linecap:square;stroke-miterlimit:3.9;stroke-dasharray:0.495001, 0.495001;stroke-dashoffset:0;stroke-opacity:1"
       d="M 125.68772,189.09357 V 157.8505"
       id="path12"
       sodipodi:nodetypes="cc" />
    <g
       inkscape:label=""
       transform="translate(124.32352,190.33978)"
       id="g17">
      <g
         fill="#000000"
         fill-opacity="1"
         id="g3"
         transform="matrix(0.352778,0,0,0.352778,-0.747183,-0.664722)">
        <g
           id="use2"
           transform="translate(1.993,5.8530002)">
          <path
             d="m 5.578125,-3.3125 c 0,-0.265625 -0.09375,-0.65625 -0.40625,-0.65625 -0.234375,0 -0.46875,0.234375 -0.46875,0.453125 0,0.140625 0.046875,0.15625 0.125,0.234375 C 4.9375,-3.171875 5.15625,-2.9375 5.15625,-2.5 c 0,0.546875 -0.578125,1.9375 -1.484375,1.9375 -0.5,0 -0.796875,-0.359375 -0.875,-0.734375 0,-0.125 0.3125,-0.765625 0.3125,-1.09375 0,-0.125 -0.0625,-0.234375 -0.203125,-0.234375 -0.078125,0 -0.15625,0.046875 -0.203125,0.109375 -0.171875,0.203125 -0.25,0.9375 -0.25,1.15625 -0.296875,0.421875 -0.671875,0.78125 -1.21875,0.78125 -0.578125,0 -0.78125,-0.484375 -0.78125,-1 0,-0.6875 0.265625,-1.28125 0.84375,-2.03125 C 1.34375,-3.6875 1.34375,-3.71875 1.34375,-3.765625 c 0,-0.078125 -0.078125,-0.15625 -0.15625,-0.15625 -0.09375,0 -0.171875,0.078125 -0.203125,0.140625 -0.5,0.703125 -0.859375,1.6875 -0.859375,2.546875 0,0.703125 0.25,1.328125 1.03125,1.328125 0.5625,0 1.078125,-0.484375 1.34375,-0.890625 0.125,0.359375 0.328125,0.890625 1.046875,0.890625 0.703125,0 1.15625,-0.5625 1.5,-1.265625 C 5.203125,-1.53125 5.3125,-1.90625 5.40625,-2.28125 5.5,-2.671875 5.578125,-3.046875 5.578125,-3.3125 Z m 0,0"
             id="path13" />
        </g>
      </g>
      <g
         fill="#000000"
         fill-opacity="1"
         id="g15"
         transform="matrix(0.352778,0,0,0.352778,-0.747183,-0.664722)">
        <g
           id="g14"
           transform="translate(7.7259998,6.849)">
          <path
             d="m 1.296875,-1.34375 c 0,-0.546875 0.28125,-1.09375 0.8125,-1.109375 -0.046875,0.0625 -0.078125,0.125 -0.078125,0.203125 0,0.171875 0.125,0.28125 0.28125,0.28125 0.171875,0 0.28125,-0.109375 0.28125,-0.28125 0,-0.234375 -0.21875,-0.390625 -0.484375,-0.390625 -0.359375,0 -0.671875,0.21875 -0.859375,0.625 v -0.625 l -0.90625,0.0625 v 0.234375 c 0.421875,0 0.46875,0.046875 0.46875,0.34375 v 1.515625 c 0,0.25 -0.046875,0.25 -0.46875,0.25 V 0 C 0.5,-0.015625 0.9375,-0.03125 1.078125,-0.03125 1.375,-0.03125 1.796875,0 1.875,0 V -0.234375 H 1.75 c -0.453125,0 -0.453125,-0.0625 -0.453125,-0.265625 z m 0,0"
             id="path14" />
        </g>
      </g>
    </g>
  </g>
</svg>
