<?xml version="1.0" encoding="UTF-8" standalone="no"?>
<!-- Created with Inkscape (http://www.inkscape.org/) -->

<svg
   width="48mm"
   height="35.868mm"
   viewBox="0 0 48 35.868"
   version="1.1"
   id="svg1"
   inkscape:version="1.3.2 (091e20e, 2023-11-25, custom)"
   sodipodi:docname="Universal_motor_torque_speed.svg"
   xmlns:inkscape="http://www.inkscape.org/namespaces/inkscape"
   xmlns:sodipodi="http://sodipodi.sourceforge.net/DTD/sodipodi-0.dtd"
   xmlns="http://www.w3.org/2000/svg"
   xmlns:svg="http://www.w3.org/2000/svg">
  <sodipodi:namedview
     id="namedview1"
     pagecolor="#505050"
     bordercolor="#eeeeee"
     borderopacity="1"
     inkscape:showpageshadow="0"
     inkscape:pageopacity="0"
     inkscape:pagecheckerboard="0"
     inkscape:deskcolor="#505050"
     inkscape:document-units="mm"
     inkscape:zoom="5.8205364"
     inkscape:cx="76.28163"
     inkscape:cy="43.037271"
     inkscape:window-width="2560"
     inkscape:window-height="1351"
     inkscape:window-x="2551"
     inkscape:window-y="-9"
     inkscape:window-maximized="1"
     inkscape:current-layer="layer1" />
  <defs
     id="defs1">
    <inkscape:path-effect
       effect="bspline"
       id="path-effect2"
       is_visible="true"
       lpeversion="1.3"
       weight="33.333333"
       steps="2"
       helper_size="0"
       apply_no_weight="true"
       apply_with_weight="true"
       only_selected="false"
       uniform="false" />
    <marker
       style="overflow:visible"
       id="ArrowWide"
       refX="0"
       refY="0"
       orient="auto-start-reverse"
       inkscape:stockid="Wide arrow"
       markerWidth="1"
       markerHeight="1"
       viewBox="0 0 1 1"
       inkscape:isstock="true"
       inkscape:collect="always"
       preserveAspectRatio="xMidYMid">
      <path
         style="fill:none;stroke:context-stroke;stroke-width:1;stroke-linecap:butt"
         d="M 3,-3 0,0 3,3"
         transform="rotate(180,0.125,0)"
         sodipodi:nodetypes="ccc"
         id="path5" />
    </marker>
    <marker
       style="overflow:visible"
       id="ConcaveTriangle"
       refX="0"
       refY="0"
       orient="auto-start-reverse"
       inkscape:stockid="Concave triangle arrow"
       markerWidth="1"
       markerHeight="1"
       viewBox="0 0 1 1"
       inkscape:isstock="true"
       inkscape:collect="always"
       preserveAspectRatio="xMidYMid">
      <path
         transform="scale(0.7)"
         d="M -2,-4 9,0 -2,4 c 2,-2.33 2,-5.66 0,-8 z"
         style="fill:context-stroke;fill-rule:evenodd;stroke:none"
         id="path7" />
    </marker>
    <inkscape:path-effect
       effect="bspline"
       id="path-effect3-1-5-2"
       is_visible="true"
       lpeversion="1.3"
       weight="33.333333"
       steps="2"
       helper_size="0"
       apply_no_weight="true"
       apply_with_weight="true"
       only_selected="false"
       uniform="false" />
    <inkscape:path-effect
       effect="bspline"
       id="path-effect3-1-9"
       is_visible="true"
       lpeversion="1.3"
       weight="33.333333"
       steps="2"
       helper_size="0"
       apply_no_weight="true"
       apply_with_weight="true"
       only_selected="false"
       uniform="false" />
    <inkscape:path-effect
       effect="bspline"
       id="path-effect3-18"
       is_visible="true"
       lpeversion="1.3"
       weight="33.333333"
       steps="2"
       helper_size="0"
       apply_no_weight="true"
       apply_with_weight="true"
       only_selected="false"
       uniform="false" />
    <inkscape:path-effect
       effect="bspline"
       id="path-effect3-1-5"
       is_visible="true"
       lpeversion="1.3"
       weight="33.333333"
       steps="2"
       helper_size="0"
       apply_no_weight="true"
       apply_with_weight="true"
       only_selected="false"
       uniform="false" />
    <inkscape:path-effect
       effect="bspline"
       id="path-effect3-1"
       is_visible="true"
       lpeversion="1.3"
       weight="33.333333"
       steps="2"
       helper_size="0"
       apply_no_weight="true"
       apply_with_weight="true"
       only_selected="false"
       uniform="false" />
    <inkscape:path-effect
       effect="bspline"
       id="path-effect3"
       is_visible="true"
       lpeversion="1.3"
       weight="33.333333"
       steps="2"
       helper_size="0"
       apply_no_weight="true"
       apply_with_weight="true"
       only_selected="false"
       uniform="false" />
    <marker
       style="overflow:visible"
       id="ConcaveTriangle-4"
       refX="0"
       refY="0"
       orient="auto-start-reverse"
       inkscape:stockid="Concave triangle arrow"
       markerWidth="1"
       markerHeight="1"
       viewBox="0 0 1 1"
       inkscape:isstock="true"
       inkscape:collect="always"
       preserveAspectRatio="xMidYMid">
      <path
         transform="scale(0.7)"
         d="M -2,-4 9,0 -2,4 c 2,-2.33 2,-5.66 0,-8 z"
         style="fill:context-stroke;fill-rule:evenodd;stroke:none"
         id="path7-4" />
    </marker>
    <inkscape:path-effect
       effect="bspline"
       id="path-effect2-6"
       is_visible="true"
       lpeversion="1.3"
       weight="33.333333"
       steps="2"
       helper_size="0"
       apply_no_weight="true"
       apply_with_weight="true"
       only_selected="false"
       uniform="false" />
    <inkscape:path-effect
       effect="bspline"
       id="path-effect2-6-3"
       is_visible="true"
       lpeversion="1.3"
       weight="33.333333"
       steps="2"
       helper_size="0"
       apply_no_weight="true"
       apply_with_weight="true"
       only_selected="false"
       uniform="false" />
    <inkscape:path-effect
       effect="bspline"
       id="path-effect2-6-3-8"
       is_visible="true"
       lpeversion="1.3"
       weight="33.333333"
       steps="2"
       helper_size="0"
       apply_no_weight="true"
       apply_with_weight="true"
       only_selected="false"
       uniform="false" />
    <inkscape:path-effect
       effect="bspline"
       id="path-effect2-6-3-2"
       is_visible="true"
       lpeversion="1.3"
       weight="33.333333"
       steps="2"
       helper_size="0"
       apply_no_weight="true"
       apply_with_weight="true"
       only_selected="false"
       uniform="false" />
    <inkscape:path-effect
       effect="bspline"
       id="path-effect2-6-4"
       is_visible="true"
       lpeversion="1.3"
       weight="33.333333"
       steps="2"
       helper_size="0"
       apply_no_weight="true"
       apply_with_weight="true"
       only_selected="false"
       uniform="false" />
    <inkscape:path-effect
       effect="bspline"
       id="path-effect2-64"
       is_visible="true"
       lpeversion="1.3"
       weight="33.333333"
       steps="2"
       helper_size="0"
       apply_no_weight="true"
       apply_with_weight="true"
       only_selected="false"
       uniform="false" />
    <inkscape:path-effect
       effect="bspline"
       id="path-effect2-6-3-8-6"
       is_visible="true"
       lpeversion="1.3"
       weight="33.333333"
       steps="2"
       helper_size="0"
       apply_no_weight="true"
       apply_with_weight="true"
       only_selected="false"
       uniform="false" />
  </defs>
  <g
     inkscape:label="Ebene 1"
     inkscape:groupmode="layer"
     id="layer1">
    <path
       style="fill:#000000;fill-rule:evenodd;stroke:#000100;stroke-width:0.265;stroke-linecap:square;stroke-miterlimit:3.9;stroke-dasharray:none;marker-end:url(#ConcaveTriangle-4)"
       d="M 22.961316,35.7355 V 1.92268"
       id="path1-3" />
    <g
       inkscape:label=""
       transform="translate(45.877536,30.4763)"
       id="g16">
      <g
         fill="#000000"
         fill-opacity="1"
         id="g11"
         transform="matrix(0.352778,0,0,0.352778,-0.747183,-0.635441)">
        <g
           id="g10"
           transform="translate(1.993,7.77)">
          <path
             d="m 5.578125,-3.3125 c 0,-0.265625 -0.09375,-0.65625 -0.40625,-0.65625 -0.234375,0 -0.46875,0.234375 -0.46875,0.453125 0,0.140625 0.046875,0.15625 0.125,0.234375 C 4.9375,-3.171875 5.15625,-2.9375 5.15625,-2.5 c 0,0.546875 -0.578125,1.9375 -1.484375,1.9375 -0.5,0 -0.796875,-0.359375 -0.875,-0.734375 0,-0.125 0.3125,-0.765625 0.3125,-1.09375 0,-0.125 -0.0625,-0.234375 -0.203125,-0.234375 -0.078125,0 -0.15625,0.046875 -0.203125,0.109375 -0.171875,0.203125 -0.25,0.9375 -0.25,1.15625 -0.296875,0.421875 -0.671875,0.78125 -1.21875,0.78125 -0.578125,0 -0.78125,-0.484375 -0.78125,-1 0,-0.6875 0.265625,-1.28125 0.84375,-2.03125 C 1.34375,-3.6875 1.34375,-3.71875 1.34375,-3.765625 c 0,-0.078125 -0.078125,-0.15625 -0.15625,-0.15625 -0.09375,0 -0.171875,0.078125 -0.203125,0.140625 -0.5,0.703125 -0.859375,1.6875 -0.859375,2.546875 0,0.703125 0.25,1.328125 1.03125,1.328125 0.5625,0 1.078125,-0.484375 1.34375,-0.890625 0.125,0.359375 0.328125,0.890625 1.046875,0.890625 0.703125,0 1.15625,-0.5625 1.5,-1.265625 C 5.203125,-1.53125 5.3125,-1.90625 5.40625,-2.28125 5.5,-2.671875 5.578125,-3.046875 5.578125,-3.3125 Z m 0,0"
             id="path6" />
        </g>
      </g>
    </g>
    <g
       inkscape:label=""
       transform="translate(16.302996,0.29089062)"
       id="g91">
      <g
         fill="#000000"
         fill-opacity="1"
         id="g82"
         transform="matrix(0.352778,0,0,0.352778,-0.813329,-0.699426)">
        <g
           id="g81"
           transform="translate(23.750999,8.717)">
          <path
             d="m 3.9375,-5.46875 c 0.046875,-0.1875 0.078125,-0.28125 0.21875,-0.3125 0.078125,-0.015625 0.359375,-0.015625 0.546875,-0.015625 1.03125,0 1.34375,0.0625 1.34375,0.765625 0,0.109375 0,0.25 -0.078125,0.78125 l -0.015625,0.078125 c 0,0.0625 0.03125,0.125 0.125,0.125 0.109375,0 0.125,-0.09375 0.140625,-0.21875 l 0.234375,-1.5625 c 0.015625,-0.03125 0.015625,-0.09375 0.015625,-0.125 0,-0.125 -0.078125,-0.125 -0.25,-0.125 H 1.109375 c -0.21875,0 -0.21875,0.015625 -0.28125,0.1875 l -0.5625,1.578125 c -0.03125,0.109375 -0.03125,0.140625 -0.03125,0.140625 0,0.046875 0.03125,0.125 0.109375,0.125 0.109375,0 0.125,-0.0625 0.171875,-0.21875 0.5,-1.40625 0.78125,-1.53125 2.078125,-1.53125 H 2.9375 c 0.25,0 0.25,0.03125 0.25,0.109375 0,0.046875 -0.015625,0.109375 -0.03125,0.1875 l -1.203125,4.796875 c -0.078125,0.3125 -0.109375,0.421875 -1.0625,0.421875 -0.28125,0 -0.359375,0 -0.359375,0.171875 C 0.53125,0 0.640625,0 0.6875,0 c 0.234375,0 0.484375,-0.015625 0.734375,-0.015625 0.25,0 0.5,-0.015625 0.75,-0.015625 0.40625,0 0.421875,0 0.75,0.015625 C 3.046875,-0.015625 3.625,0 3.703125,0 c 0.078125,0 0.1875,0 0.1875,-0.15625 0,-0.125 -0.078125,-0.125 -0.296875,-0.125 -0.234375,0 -0.34375,0 -0.578125,-0.015625 -0.203125,-0.03125 -0.3125,-0.03125 -0.3125,-0.1875 0,-0.046875 0.015625,-0.109375 0.03125,-0.171875 z m 0,0"
             id="path80" />
        </g>
      </g>
      <g
         fill="#000000"
         fill-opacity="1"
         id="g84"
         transform="matrix(0.352778,0,0,0.352778,-0.813329,-0.699426)">
        <g
           id="g83"
           transform="translate(30.407,8.717)">
          <path
             d="M 3.0625,2.140625 C 3.0625,2.09375 3.03125,2.0625 2.984375,2 1.828125,0.9375 1.46875,-0.671875 1.46875,-2.25 1.46875,-3.625 1.734375,-5.3125 3,-6.515625 3.046875,-6.5625 3.0625,-6.578125 3.0625,-6.625 c 0,-0.0625 -0.046875,-0.109375 -0.109375,-0.109375 -0.109375,0 -0.921875,0.65625 -1.40625,1.625 C 1.125,-4.25 0.90625,-3.3125 0.90625,-2.25 c 0,0.640625 0.078125,1.671875 0.578125,2.71875 0.53125,1.109375 1.359375,1.765625 1.46875,1.765625 0.0625,0 0.109375,-0.03125 0.109375,-0.09375 z m 0,0"
             id="path82" />
        </g>
      </g>
      <g
         fill="#000000"
         fill-opacity="1"
         id="g86"
         transform="matrix(0.352778,0,0,0.352778,-0.813329,-0.699426)">
        <g
           id="g85"
           transform="translate(33.991001,8.717)">
          <path
             d="m 5.578125,-3.3125 c 0,-0.265625 -0.09375,-0.65625 -0.40625,-0.65625 -0.234375,0 -0.46875,0.234375 -0.46875,0.453125 0,0.140625 0.046875,0.15625 0.125,0.234375 C 4.9375,-3.171875 5.15625,-2.9375 5.15625,-2.5 c 0,0.546875 -0.578125,1.9375 -1.484375,1.9375 -0.5,0 -0.796875,-0.359375 -0.875,-0.734375 0,-0.125 0.3125,-0.765625 0.3125,-1.09375 0,-0.125 -0.0625,-0.234375 -0.203125,-0.234375 -0.078125,0 -0.15625,0.046875 -0.203125,0.109375 -0.171875,0.203125 -0.25,0.9375 -0.25,1.15625 -0.296875,0.421875 -0.671875,0.78125 -1.21875,0.78125 -0.578125,0 -0.78125,-0.484375 -0.78125,-1 0,-0.6875 0.265625,-1.28125 0.84375,-2.03125 C 1.34375,-3.6875 1.34375,-3.71875 1.34375,-3.765625 c 0,-0.078125 -0.078125,-0.15625 -0.15625,-0.15625 -0.09375,0 -0.171875,0.078125 -0.203125,0.140625 -0.5,0.703125 -0.859375,1.6875 -0.859375,2.546875 0,0.703125 0.25,1.328125 1.03125,1.328125 0.5625,0 1.078125,-0.484375 1.34375,-0.890625 0.125,0.359375 0.328125,0.890625 1.046875,0.890625 0.703125,0 1.15625,-0.5625 1.5,-1.265625 C 5.203125,-1.53125 5.3125,-1.90625 5.40625,-2.28125 5.5,-2.671875 5.578125,-3.046875 5.578125,-3.3125 Z m 0,0"
             id="path84" />
        </g>
      </g>
      <g
         fill="#000000"
         fill-opacity="1"
         id="g88"
         transform="matrix(0.352778,0,0,0.352778,-0.813329,-0.699426)">
        <g
           id="g87"
           transform="translate(40.046001,8.717)">
          <path
             d="M 2.671875,-2.25 C 2.671875,-2.984375 2.5625,-3.96875 2.09375,-4.96875 1.5625,-6.078125 0.734375,-6.734375 0.625,-6.734375 c -0.09375,0 -0.109375,0.078125 -0.109375,0.109375 0,0.046875 0.015625,0.0625 0.078125,0.125 0.53125,0.46875 1.515625,1.6875 1.515625,4.25 0,1.28125 -0.234375,3.0625 -1.53125,4.28125 -0.015625,0.015625 -0.0625,0.0625 -0.0625,0.109375 0,0.015625 0.015625,0.09375 0.109375,0.09375 0.109375,0 0.921875,-0.640625 1.40625,-1.625 C 2.453125,-0.25 2.671875,-1.171875 2.671875,-2.25 Z m 0,0"
             id="path86" />
        </g>
      </g>
    </g>
    <path
       style="fill:#000000;fill-rule:evenodd;stroke:#000100;stroke-width:0.265;stroke-linecap:square;stroke-miterlimit:3.9;stroke-dasharray:none;marker-end:url(#ConcaveTriangle)"
       d="M 0.32299326,31.87302 H 44.005066"
       id="path1" />
    <path
       style="fill:none;fill-rule:evenodd;stroke:#000000;stroke-width:0.165;stroke-linecap:square;stroke-miterlimit:3.9;stroke-dasharray:0.495, 0.495;stroke-dashoffset:0;stroke-opacity:1;marker-end:url(#ArrowWide)"
       d="M 28.375956,18.7158 17.760786,29.42728"
       id="path4"
       sodipodi:nodetypes="cc" />
    <g
       inkscape:label=""
       transform="translate(150.79101,237.65477)"
       id="g12" />
    <path
       style="fill:none;fill-rule:evenodd;stroke:#7d7d7d;stroke-width:0.265;stroke-linecap:round;stroke-miterlimit:3.9;stroke-dasharray:none;stroke-opacity:1"
       d="m 112.14642,249.34225 c 7.93638,-0.1463 15.87259,-0.2926 20.15579,-4.06995 4.2832,-3.77736 4.91304,-11.18539 5.55565,-15.01543 0.64262,-3.83004 1.29795,-4.08175 1.95332,-4.33348"
       id="path2"
       inkscape:path-effect="#path-effect2"
       inkscape:original-d="m 112.14642,249.34225 c 7.93638,-0.1463 15.87259,-0.2926 23.80912,-0.4389 0.62987,-7.40841 1.25971,-14.81644 1.88957,-22.22479 0.65537,-0.25173 1.3107,-0.50344 1.96607,-0.75517"
       sodipodi:nodetypes="cccc"
       transform="matrix(-1,0,0,1,154.99035,-217.46923)" />
    <path
       style="fill:none;fill-rule:evenodd;stroke:#7d7d7d;stroke-width:0.265;stroke-linecap:round;stroke-miterlimit:3.9;stroke-dasharray:none;stroke-opacity:1"
       d="m 112.01392,253.76329 c 6.92883,-0.38864 13.85753,-0.77727 18.12531,-5.67721 4.26779,-4.89993 5.8743,-14.31067 7.03963,-19.10599 1.16533,-4.79531 1.88938,-4.9748 2.61346,-5.15429"
       id="path2-6"
       inkscape:path-effect="#path-effect2-6"
       inkscape:original-d="m 112.01392,253.76329 c 6.92883,-0.38864 13.85753,-0.77727 20.7865,-1.16592 1.60659,-9.41122 3.21311,-18.82196 4.81969,-28.2331 0.72408,-0.17949 1.44813,-0.35898 2.17221,-0.53847"
       sodipodi:nodetypes="cccc"
       transform="matrix(-1,0,0,1,154.99035,-222.63226)" />
    <path
       style="fill:none;fill-rule:evenodd;stroke:#7d7d7d;stroke-width:0.265;stroke-linecap:round;stroke-miterlimit:3.9;stroke-dasharray:none;stroke-opacity:1"
       d="m 111.74892,258.649 c 6.3859,-1.22462 12.77168,-2.44922 17.08363,-8.16346 4.31195,-5.71423 6.54971,-15.91753 8.01741,-21.1063 1.46771,-5.18878 2.16525,-5.36258 2.86281,-5.53639"
       id="path2-6-4"
       inkscape:path-effect="#path-effect2-6-3"
       inkscape:original-d="m 111.74892,258.649 c 6.3859,-1.22462 12.77168,-2.44922 19.15771,-3.67387 2.23787,-10.20382 4.47563,-20.40712 6.71348,-30.61086 0.69756,-0.17381 1.3951,-0.34761 2.09266,-0.52142"
       sodipodi:nodetypes="cccc"
       transform="matrix(-1,0,0,1,154.85785,-228.7461)" />
    <path
       style="fill:none;fill-rule:evenodd;stroke:#7d7d7d;stroke-width:0.265;stroke-linecap:round;stroke-miterlimit:3.9;stroke-dasharray:none;stroke-opacity:1"
       d="m 115.84004,241.89249 c 7.06862,0 14.13711,0 17.79398,-2.47677 3.65687,-2.47678 3.90183,-7.43008 4.35248,-10.06472 0.45066,-2.63465 1.10697,-2.95042 1.76331,-3.2662"
       id="path2-6-4-9"
       inkscape:path-effect="#path-effect2-6-3-8"
       inkscape:original-d="m 115.84004,241.89249 c 7.06862,0 14.13711,0 21.20588,0 0.24497,-4.95355 0.48993,-9.90685 0.7349,-14.86036 0.65634,-0.31578 1.31265,-0.63155 1.96899,-0.94733"
       sodipodi:nodetypes="cccc"
       transform="matrix(-1,0,0,1,154.85785,-210.01947)" />
    <path
       style="fill:none;fill-rule:evenodd;stroke:#7d7d7d;stroke-width:0.265;stroke-linecap:round;stroke-miterlimit:3.9;stroke-dasharray:none;stroke-opacity:1"
       d="m 112.14642,249.34225 c 7.93638,-0.1463 15.87259,-0.2926 20.15579,-4.06995 4.2832,-3.77736 4.91304,-11.18539 5.56701,-15.01543 0.65398,-3.83004 1.33205,-4.08175 2.01014,-4.33348"
       id="path2-5"
       inkscape:path-effect="#path-effect2-64"
       inkscape:original-d="m 112.14642,249.34225 c 7.93638,-0.1463 15.87259,-0.2926 23.80912,-0.4389 0.62987,-7.40841 1.25971,-14.81644 1.88957,-22.22479 0.67809,-0.25173 1.35616,-0.50344 2.03425,-0.75517"
       sodipodi:nodetypes="cccc"
       transform="translate(-124.70019,-217.46923)" />
    <path
       style="fill:none;fill-rule:evenodd;stroke:#7d7d7d;stroke-width:0.265;stroke-linecap:round;stroke-miterlimit:3.9;stroke-dasharray:none;stroke-opacity:1"
       d="m 112.01392,253.76329 c 6.92883,-0.38864 13.85753,-0.77727 18.12531,-5.67721 4.26779,-4.89993 5.8743,-14.31067 7.05728,-19.10599 1.18298,-4.79531 1.94233,-4.9748 2.70171,-5.15429"
       id="path2-6-0"
       inkscape:path-effect="#path-effect2-6-4"
       inkscape:original-d="m 112.01392,253.76329 c 6.92883,-0.38864 13.85753,-0.77727 20.7865,-1.16592 1.60659,-9.41122 3.21311,-18.82196 4.81969,-28.2331 0.75938,-0.17949 1.51873,-0.35898 2.27811,-0.53847"
       sodipodi:nodetypes="cccc"
       transform="translate(-124.70019,-222.63226)" />
    <path
       style="fill:none;fill-rule:evenodd;stroke:#7d7d7d;stroke-width:0.265;stroke-linecap:round;stroke-miterlimit:3.9;stroke-dasharray:none;stroke-opacity:1"
       d="m 111.74892,258.649 c 6.3859,-1.22462 12.77168,-2.44922 17.08363,-8.16346 4.31195,-5.71423 6.54971,-15.91753 8.01741,-21.1063 1.46771,-5.18878 2.16525,-5.36258 2.86281,-5.53639"
       id="path2-6-4-2"
       inkscape:path-effect="#path-effect2-6-3-2"
       inkscape:original-d="m 111.74892,258.649 c 6.3859,-1.22462 12.77168,-2.44922 19.15771,-3.67387 2.23787,-10.20382 4.47563,-20.40712 6.71348,-30.61086 0.69756,-0.17381 1.3951,-0.34761 2.09266,-0.52142"
       sodipodi:nodetypes="cccc"
       transform="translate(-124.56769,-228.7461)" />
    <path
       style="fill:none;fill-rule:evenodd;stroke:#7d7d7d;stroke-width:0.265;stroke-linecap:round;stroke-miterlimit:3.9;stroke-dasharray:none;stroke-opacity:1"
       d="m 115.84004,241.89249 c 7.06862,0 14.13711,0 17.79398,-2.47677 3.65687,-2.47678 3.90183,-7.43008 4.34014,-10.06473 0.4383,-2.63464 1.06993,-2.95041 1.70157,-3.26619"
       id="path2-6-4-9-7"
       inkscape:path-effect="#path-effect2-6-3-8-6"
       inkscape:original-d="m 115.84004,241.89249 c 7.06862,0 14.13711,0 21.20588,0 0.24497,-4.95355 0.48993,-9.90685 0.7349,-14.86036 0.63164,-0.31578 1.26327,-0.63155 1.89491,-0.94733"
       sodipodi:nodetypes="cccc"
       transform="translate(-124.56769,-210.01947)" />
    <g
       inkscape:label=""
       transform="translate(28.994456,18.90545)"
       id="g18">
      <g
         fill="#000000"
         fill-opacity="1"
         id="g6"
         transform="matrix(0.352778,0,0,0.352778,-1.08342,-0.699426)">
        <g
           id="use5"
           transform="translate(1.993,8.717)">
          <path
             d="m 1.46875,-6.390625 c 0,-0.15625 0,-0.34375 -0.1875,-0.34375 -0.203125,0 -0.203125,0.171875 -0.203125,0.34375 V 1.90625 c 0,0.15625 0,0.34375 0.203125,0.34375 0.1875,0 0.1875,-0.171875 0.1875,-0.34375 z m 0,0"
             id="path10" />
        </g>
      </g>
      <g
         fill="#000000"
         fill-opacity="1"
         id="g7"
         transform="matrix(0.352778,0,0,0.352778,-1.08342,-0.699426)">
        <g
           id="use6"
           transform="translate(4.552,8.717)">
          <path
             d="m 5.578125,-3.3125 c 0,-0.265625 -0.09375,-0.65625 -0.40625,-0.65625 -0.234375,0 -0.46875,0.234375 -0.46875,0.453125 0,0.140625 0.046875,0.15625 0.125,0.234375 C 4.9375,-3.171875 5.15625,-2.9375 5.15625,-2.5 c 0,0.546875 -0.578125,1.9375 -1.484375,1.9375 -0.5,0 -0.796875,-0.359375 -0.875,-0.734375 0,-0.125 0.3125,-0.765625 0.3125,-1.09375 0,-0.125 -0.0625,-0.234375 -0.203125,-0.234375 -0.078125,0 -0.15625,0.046875 -0.203125,0.109375 -0.171875,0.203125 -0.25,0.9375 -0.25,1.15625 -0.296875,0.421875 -0.671875,0.78125 -1.21875,0.78125 -0.578125,0 -0.78125,-0.484375 -0.78125,-1 0,-0.6875 0.265625,-1.28125 0.84375,-2.03125 C 1.34375,-3.6875 1.34375,-3.71875 1.34375,-3.765625 c 0,-0.078125 -0.078125,-0.15625 -0.15625,-0.15625 -0.09375,0 -0.171875,0.078125 -0.203125,0.140625 -0.5,0.703125 -0.859375,1.6875 -0.859375,2.546875 0,0.703125 0.25,1.328125 1.03125,1.328125 0.5625,0 1.078125,-0.484375 1.34375,-0.890625 0.125,0.359375 0.328125,0.890625 1.046875,0.890625 0.703125,0 1.15625,-0.5625 1.5,-1.265625 C 5.203125,-1.53125 5.3125,-1.90625 5.40625,-2.28125 5.5,-2.671875 5.578125,-3.046875 5.578125,-3.3125 Z m 0,0"
             id="path11" />
        </g>
      </g>
      <g
         fill="#000000"
         fill-opacity="1"
         id="g8"
         transform="matrix(0.352778,0,0,0.352778,-1.08342,-0.699426)">
        <g
           id="use7"
           transform="translate(10.286,9.7799997)">
          <path
             d="m 2.8125,-1.359375 c 0.125,0 0.171875,0 0.171875,-0.140625 0,-0.453125 -0.25,-1.171875 -1.25,-1.171875 -0.84375,0 -1.453125,0.640625 -1.453125,1.359375 0,0.75 0.6875,1.375 1.53125,1.375 0.875,0 1.171875,-0.65625 1.171875,-0.78125 0,-0.03125 -0.015625,-0.09375 -0.109375,-0.09375 -0.078125,0 -0.09375,0.03125 -0.109375,0.109375 -0.1875,0.4375 -0.640625,0.546875 -0.90625,0.546875 -0.328125,0 -0.609375,-0.140625 -0.78125,-0.359375 -0.21875,-0.28125 -0.21875,-0.671875 -0.21875,-0.84375 z M 0.875,-1.53125 c 0.0625,-0.796875 0.609375,-0.953125 0.859375,-0.953125 0.765625,0 0.8125,0.78125 0.8125,0.953125 z m 0,0"
             id="path12" />
        </g>
        <g
           id="use8"
           transform="translate(13.551563,9.7799997)">
          <path
             d="m 1.328125,-4.15625 -0.9375,0.0625 v 0.234375 c 0.40625,0 0.46875,0.046875 0.46875,0.34375 v 3.03125 c 0,0.25 -0.0625,0.25 -0.46875,0.25 V 0 C 0.5625,-0.015625 1.046875,-0.03125 1.09375,-0.03125 1.328125,-0.03125 1.5625,-0.015625 1.796875,0 v -0.234375 c -0.40625,0 -0.46875,0 -0.46875,-0.25 z m 0,0"
             id="path8" />
        </g>
      </g>
      <g
         fill="#000000"
         fill-opacity="1"
         id="g9"
         transform="matrix(0.352778,0,0,0.352778,-1.08342,-0.699426)">
        <g
           id="use9"
           transform="translate(16.152,8.717)">
          <path
             d="m 1.46875,-6.390625 c 0,-0.15625 0,-0.34375 -0.1875,-0.34375 -0.203125,0 -0.203125,0.171875 -0.203125,0.34375 V 1.90625 c 0,0.15625 0,0.34375 0.203125,0.34375 0.1875,0 0.1875,-0.171875 0.1875,-0.34375 z m 0,0"
             id="path9" />
        </g>
      </g>
      <g
         fill="#000000"
         fill-opacity="1"
         id="g13"
         transform="matrix(0.352778,0,0,0.352778,-1.08342,-0.699426)">
        <g
           id="use10"
           transform="translate(21.276299,8.717)">
          <path
             d="m 2.5,-4.9375 c 0.28125,0.421875 0.609375,0.671875 0.703125,0.765625 0.53125,0.375 1.09375,0.484375 1.140625,0.484375 0.109375,0 0.109375,-0.109375 0.109375,-0.1875 0,-0.109375 0,-0.15625 -0.109375,-0.1875 C 2.765625,-4.5 2.5,-5.703125 2.40625,-6.140625 2.390625,-6.171875 2.34375,-6.21875 2.3125,-6.21875 c -0.09375,0 -0.125,0.078125 -0.125,0.09375 C 2.125,-5.84375 2.015625,-5.28125 1.5,-4.765625 1.28125,-4.53125 0.90625,-4.25 0.328125,-4.078125 0.15625,-4.03125 0.140625,-4.03125 0.140625,-3.875 c 0,0.078125 0,0.1875 0.125,0.1875 0.03125,0 0.59375,-0.09375 1.140625,-0.515625 C 1.8125,-4.5 2.078125,-4.90625 2.109375,-4.9375 v 6.34375 c 0,0.15625 0,0.328125 0.1875,0.328125 C 2.5,1.734375 2.5,1.5625 2.5,1.40625 Z m 0,0"
             id="path15" />
        </g>
      </g>
    </g>
  </g>
</svg>
